%TF.GenerationSoftware,Altium Limited,Altium Designer,23.6.0 (18)*%
G04 Layer_Color=65535*
%FSLAX45Y45*%
%MOMM*%
%TF.SameCoordinates,57B8E715-CDE8-4F81-9698-3B096703D57B*%
%TF.FilePolarity,Positive*%
%TF.FileFunction,Legend,Top*%
%TF.Part,Single*%
G01*
G75*
%TA.AperFunction,NonConductor*%
%ADD26C,0.25000*%
%ADD27C,0.15240*%
%ADD28C,0.20000*%
%ADD29C,0.16000*%
D26*
X-761292Y1077277D02*
G03*
X-761292Y1077277I-12500J0D01*
G01*
X-507500Y1937500D02*
G03*
X-507500Y1937500I-12500J0D01*
G01*
D27*
X176283Y1248242D02*
G03*
X-176283Y1248242I-176283J251758D01*
G01*
X317430Y1747270D02*
Y1786956D01*
X802570Y2133604D02*
Y2252730D01*
X317430Y1747270D02*
X802570D01*
Y1866396D01*
X317430Y2252730D02*
X802570D01*
X317430Y2213044D02*
Y2252730D01*
X-176283Y1248500D02*
X176283D01*
D28*
X-765000Y1310000D02*
X-758500D01*
X-765000Y1140000D02*
Y1310000D01*
Y1140000D02*
X-758500D01*
X-641500Y1310000D02*
X-635000D01*
Y1140000D02*
Y1310000D01*
X-641500Y1140000D02*
X-635000D01*
X-855000Y1750000D02*
X-545000D01*
X-855000Y1850000D02*
X-545000D01*
X-855000Y1750000D02*
Y1850000D01*
X-545000Y1750000D02*
Y1850000D01*
D29*
X-619799Y235961D02*
X-659786D01*
X-639793D01*
Y135994D01*
X-659786Y116000D01*
X-679780D01*
X-699773Y135994D01*
X-579812Y235961D02*
Y116000D01*
X-499838D01*
X-379877Y215968D02*
X-399870Y235961D01*
X-439857D01*
X-459851Y215968D01*
Y135994D01*
X-439857Y116000D01*
X-399870D01*
X-379877Y135994D01*
X-259916Y235961D02*
X-299903D01*
X-279909D01*
Y135994D01*
X-299903Y116000D01*
X-319896D01*
X-339890Y135994D01*
X-219929Y235961D02*
Y116000D01*
X-139955D01*
X-19993Y215968D02*
X-39987Y235961D01*
X-79974D01*
X-99968Y215968D01*
Y135994D01*
X-79974Y116000D01*
X-39987D01*
X-19993Y135994D01*
X99968Y235961D02*
X59981D01*
X79974D01*
Y135994D01*
X59981Y116000D01*
X39987D01*
X19994Y135994D01*
X139955Y235961D02*
Y116000D01*
X219929D01*
X339890Y215968D02*
X319896Y235961D01*
X279910D01*
X259916Y215968D01*
Y135994D01*
X279910Y116000D01*
X319896D01*
X339890Y135994D01*
X459851Y235961D02*
X419864D01*
X439858D01*
Y135994D01*
X419864Y116000D01*
X399871D01*
X379877Y135994D01*
X499838Y235961D02*
Y116000D01*
X579812D01*
X699774Y215968D02*
X679780Y235961D01*
X639793D01*
X619799Y215968D01*
Y135994D01*
X639793Y116000D01*
X679780D01*
X699774Y135994D01*
X-823310Y2154982D02*
Y2063345D01*
X-804982Y2045018D01*
X-768327D01*
X-750000Y2063345D01*
Y2154982D01*
X-713345Y2045018D02*
X-676690D01*
X-695018D01*
Y2154982D01*
X-713345Y2136655D01*
X-445018Y1386690D02*
X-554982D01*
Y1441673D01*
X-536655Y1460000D01*
X-500000D01*
X-481673Y1441673D01*
Y1386690D01*
Y1423345D02*
X-445018Y1460000D01*
Y1496655D02*
Y1533310D01*
Y1514982D01*
X-554982D01*
X-536655Y1496655D01*
X-334360Y764060D02*
Y874024D01*
X-279378D01*
X-261050Y855697D01*
Y819042D01*
X-279378Y800715D01*
X-334360D01*
X-224396Y764060D02*
X-187741D01*
X-206068D01*
Y874024D01*
X-224396Y855697D01*
X-754982Y836690D02*
X-645018D01*
Y891673D01*
X-663345Y910000D01*
X-736655D01*
X-754982Y891673D01*
Y836690D01*
X-645018Y946655D02*
Y983310D01*
Y964982D01*
X-754982D01*
X-736655Y946655D01*
X328363Y2305018D02*
Y2414982D01*
X383345D01*
X401673Y2396655D01*
Y2360000D01*
X383345Y2341673D01*
X328363D01*
X365018D02*
X401673Y2305018D01*
X511637D02*
X438327D01*
X511637Y2378328D01*
Y2396655D01*
X493310Y2414982D01*
X456655D01*
X438327Y2396655D01*
X-466655Y1990000D02*
X-484982Y1971673D01*
Y1935018D01*
X-466655Y1916691D01*
X-393345D01*
X-375018Y1935018D01*
Y1971673D01*
X-393345Y1990000D01*
X-375018Y2026655D02*
Y2063310D01*
Y2044982D01*
X-484982D01*
X-466655Y2026655D01*
X54982Y2238363D02*
X-54983D01*
Y2293345D01*
X-36655Y2311673D01*
X-1D01*
X18327Y2293345D01*
Y2238363D01*
Y2275018D02*
X54982Y2311673D01*
X-36655Y2348328D02*
X-54983Y2366655D01*
Y2403310D01*
X-36655Y2421637D01*
X-18328D01*
X-1Y2403310D01*
Y2384982D01*
Y2403310D01*
X18327Y2421637D01*
X36654D01*
X54982Y2403310D01*
Y2366655D01*
X36654Y2348328D01*
X0Y1113345D02*
Y1186655D01*
X-18327Y1204982D01*
X-54982D01*
X-73309Y1186655D01*
Y1113345D01*
X-54982Y1095018D01*
X-18327D01*
X-36655Y1131673D02*
X0Y1095018D01*
X-18327D02*
X0Y1113345D01*
X36655Y1095018D02*
X73310D01*
X54982D01*
Y1204982D01*
X36655Y1186655D01*
%TF.MD5,98ccb424831f3bb271a6a7ed7afb4d30*%
M02*
