%TF.GenerationSoftware,Altium Limited,Altium Designer,23.6.0 (18)*%
G04 Layer_Physical_Order=1*
G04 Layer_Color=255*
%FSLAX45Y45*%
%MOMM*%
%TF.SameCoordinates,57B8E715-CDE8-4F81-9698-3B096703D57B*%
%TF.FilePolarity,Positive*%
%TF.FileFunction,Copper,L1,Top,Signal*%
%TF.Part,Single*%
G01*
G75*
%TA.AperFunction,SMDPad,CuDef*%
G04:AMPARAMS|DCode=10|XSize=1.35523mm|YSize=0.47583mm|CornerRadius=0.23791mm|HoleSize=0mm|Usage=FLASHONLY|Rotation=90.000|XOffset=0mm|YOffset=0mm|HoleType=Round|Shape=RoundedRectangle|*
%AMROUNDEDRECTD10*
21,1,1.35523,0.00000,0,0,90.0*
21,1,0.87941,0.47583,0,0,90.0*
1,1,0.47583,0.00000,0.43970*
1,1,0.47583,0.00000,-0.43970*
1,1,0.47583,0.00000,-0.43970*
1,1,0.47583,0.00000,0.43970*
%
%ADD10ROUNDEDRECTD10*%
%ADD11R,0.47583X1.35523*%
%ADD12R,0.91213X0.95814*%
G04:AMPARAMS|DCode=13|XSize=0.6mm|YSize=1mm|CornerRadius=0.051mm|HoleSize=0mm|Usage=FLASHONLY|Rotation=0.000|XOffset=0mm|YOffset=0mm|HoleType=Round|Shape=RoundedRectangle|*
%AMROUNDEDRECTD13*
21,1,0.60000,0.89800,0,0,0.0*
21,1,0.49800,1.00000,0,0,0.0*
1,1,0.10200,0.24900,-0.44900*
1,1,0.10200,-0.24900,-0.44900*
1,1,0.10200,-0.24900,0.44900*
1,1,0.10200,0.24900,0.44900*
%
%ADD13ROUNDEDRECTD13*%
%ADD14R,0.91213X0.95872*%
%ADD15R,2.00660X1.29540*%
%ADD16R,2.00660X2.00660*%
%TA.AperFunction,Conductor*%
%ADD17C,0.30480*%
%ADD18C,0.60000*%
%TA.AperFunction,ComponentPad*%
%ADD19R,1.80000X1.80000*%
%ADD20C,1.80000*%
%ADD21C,1.52400*%
%ADD22R,1.52400X1.52400*%
%TA.AperFunction,WasherPad*%
%ADD23C,0.80000*%
%TA.AperFunction,ViaPad*%
%ADD24C,5.60000*%
%ADD25C,0.60000*%
G36*
X950000Y2979608D02*
Y20391D01*
X-950000Y20390D01*
Y2979608D01*
X950000Y2979608D01*
D02*
G37*
%LPC*%
G36*
X65906Y2188406D02*
X10150D01*
Y2130349D01*
X65906D01*
Y2188406D01*
D02*
G37*
G36*
X-10150D02*
X-65906D01*
Y2130349D01*
X-10150D01*
Y2188406D01*
D02*
G37*
G36*
X480630Y2200070D02*
X370150D01*
Y2125150D01*
X480630D01*
Y2200070D01*
D02*
G37*
G36*
X349850D02*
X239370D01*
Y2125150D01*
X349850D01*
Y2200070D01*
D02*
G37*
G36*
X480630Y2104850D02*
X370150D01*
Y2029930D01*
X480630D01*
Y2104850D01*
D02*
G37*
G36*
X349850D02*
X239370D01*
Y2029930D01*
X349850D01*
Y2104850D01*
D02*
G37*
G36*
X-580100Y2008297D02*
X-629900D01*
X-639811Y2006326D01*
X-643581Y2003807D01*
X-652500Y2001717D01*
X-661419Y2003807D01*
X-665190Y2006326D01*
X-675100Y2008297D01*
X-689850D01*
Y1937500D01*
Y1866703D01*
X-675100D01*
X-665190Y1868674D01*
X-661419Y1871193D01*
X-661125Y1871262D01*
X-657955Y1868664D01*
X-657156Y1851589D01*
X-672509Y1836236D01*
X-750000D01*
X-763867Y1833478D01*
X-775623Y1825623D01*
X-820623Y1780623D01*
X-828478Y1768867D01*
X-831236Y1755000D01*
Y1730374D01*
X-838212Y1725712D01*
X-843826Y1717311D01*
X-845797Y1707400D01*
Y1617600D01*
X-843826Y1607690D01*
X-838212Y1599288D01*
X-831236Y1594626D01*
Y1570000D01*
X-828478Y1556133D01*
X-820623Y1544377D01*
X-736236Y1459991D01*
Y1396650D01*
X-741533Y1388722D01*
X-744955Y1371518D01*
Y1283578D01*
X-741533Y1266374D01*
X-731788Y1251790D01*
X-717204Y1242045D01*
X-700000Y1238623D01*
X-682796Y1242045D01*
X-668212Y1251790D01*
X-658467Y1266374D01*
X-655045Y1283578D01*
Y1291312D01*
X-575934D01*
X-565906Y1281284D01*
Y1210708D01*
X-565907Y1201993D01*
X-565906Y1189292D01*
Y1061594D01*
X-483039D01*
X-144465Y723020D01*
X-149726Y710320D01*
X-153876Y710320D01*
X-243850D01*
Y610150D01*
X-143680D01*
Y699772D01*
X-143680Y704274D01*
X-130980Y709535D01*
X-110095Y688650D01*
X-109619Y688097D01*
X-107400Y684596D01*
X-105537Y680464D01*
X-104056Y675551D01*
X-103029Y669757D01*
X-102543Y663026D01*
X-102679Y655362D01*
X-103501Y646782D01*
X-105053Y637306D01*
X-107481Y626470D01*
X-107518Y624902D01*
X-110300Y614521D01*
Y585479D01*
X-102783Y557426D01*
X-88262Y532275D01*
X-67726Y511738D01*
X-42574Y497217D01*
X-14521Y489700D01*
X14521D01*
X42574Y497217D01*
X67726Y511738D01*
X88262Y532275D01*
X102783Y557426D01*
X110300Y585479D01*
Y614521D01*
X102783Y642574D01*
X88262Y667726D01*
X67726Y688262D01*
X42574Y702783D01*
X26828Y707002D01*
X25042Y707827D01*
X25032Y707828D01*
X25022Y707832D01*
X11204Y711145D01*
X-12815Y717714D01*
X-32097Y724185D01*
X-39552Y727193D01*
X-45843Y730125D01*
X-50723Y732813D01*
X-53907Y734953D01*
X-434094Y1115140D01*
Y1189292D01*
X-434093Y1198007D01*
X-434094Y1210708D01*
Y1338406D01*
X-516961D01*
X-531726Y1353171D01*
X-543482Y1361026D01*
X-557349Y1363784D01*
X-655045D01*
Y1371518D01*
X-658467Y1388722D01*
X-663764Y1396650D01*
Y1475000D01*
X-666522Y1488867D01*
X-674377Y1500623D01*
X-756807Y1583052D01*
X-755916Y1596530D01*
X-751788Y1599288D01*
X-746174Y1607690D01*
X-744202Y1617600D01*
Y1707400D01*
X-746174Y1717311D01*
X-751788Y1725712D01*
X-755915Y1728471D01*
X-756807Y1741947D01*
X-734991Y1763764D01*
X-657500D01*
X-643633Y1766522D01*
X-631877Y1774377D01*
X-579377Y1826877D01*
X-571522Y1838633D01*
X-568764Y1852500D01*
Y1869626D01*
X-561788Y1874288D01*
X-556174Y1882690D01*
X-554203Y1892600D01*
Y1982400D01*
X-556174Y1992310D01*
X-561788Y2000712D01*
X-570190Y2006326D01*
X-580100Y2008297D01*
D02*
G37*
G36*
X-359094Y1865906D02*
X-414850D01*
Y1807821D01*
X-359094D01*
Y1865906D01*
D02*
G37*
G36*
X-435150D02*
X-490906D01*
Y1807821D01*
X-435150D01*
Y1865906D01*
D02*
G37*
G36*
X-355000Y2166236D02*
X-746245D01*
X-760113Y2163478D01*
X-771868Y2155623D01*
X-820623Y2106868D01*
X-828478Y2095113D01*
X-831236Y2081246D01*
Y2005374D01*
X-838212Y2000712D01*
X-843826Y1992310D01*
X-845797Y1982400D01*
Y1892600D01*
X-843826Y1882690D01*
X-838212Y1874288D01*
X-829810Y1868674D01*
X-819900Y1866703D01*
X-770100D01*
X-760189Y1868674D01*
X-751788Y1874288D01*
X-743212D01*
X-734811Y1868674D01*
X-724900Y1866703D01*
X-710150D01*
Y1937500D01*
Y2008297D01*
X-724900D01*
X-734811Y2006326D01*
X-743212Y2000712D01*
X-747994D01*
X-758764Y2010523D01*
Y2066236D01*
X-731236Y2093764D01*
X-370010D01*
X-230423Y1954178D01*
X-218668Y1946322D01*
X-204801Y1943564D01*
X-65906D01*
Y1911594D01*
X-36236D01*
Y1743961D01*
X-36879Y1740597D01*
X-38141Y1736516D01*
X-40065Y1731946D01*
X-42713Y1726918D01*
X-46130Y1721469D01*
X-50188Y1715851D01*
X-61370Y1702791D01*
X-68118Y1695910D01*
X-69169Y1694302D01*
X-77219Y1686252D01*
X-89924Y1664248D01*
X-96500Y1639705D01*
Y1614295D01*
X-89924Y1589752D01*
X-77219Y1567748D01*
X-59252Y1549781D01*
X-37248Y1537076D01*
X-12705Y1530500D01*
X12705D01*
X37248Y1537076D01*
X59252Y1549781D01*
X77219Y1567748D01*
X89924Y1589752D01*
X96500Y1614295D01*
Y1639705D01*
X89924Y1664248D01*
X77219Y1686252D01*
X69323Y1694148D01*
X68420Y1695595D01*
X55216Y1709640D01*
X50344Y1715634D01*
X46131Y1721468D01*
X42714Y1726916D01*
X40065Y1731945D01*
X38141Y1736516D01*
X36879Y1740597D01*
X36236Y1743961D01*
Y1911594D01*
X65906D01*
Y1943564D01*
X215190D01*
X239370Y1919385D01*
Y1799930D01*
X480630D01*
Y1848764D01*
X657055D01*
X670922Y1851522D01*
X682678Y1859377D01*
X700533Y1877232D01*
X701961Y1879370D01*
X880630D01*
Y2120630D01*
X639370D01*
Y1921236D01*
X480630D01*
Y1970070D01*
X291176D01*
X255822Y2005423D01*
X244067Y2013278D01*
X230200Y2016037D01*
X74887D01*
X65906Y2025017D01*
X65907Y2048007D01*
X65906Y2060708D01*
Y2110050D01*
X0D01*
X-65906D01*
Y2060708D01*
X-65907Y2051993D01*
X-65906Y2039292D01*
Y2016037D01*
X-189791D01*
X-329378Y2155623D01*
X-341133Y2163478D01*
X-355000Y2166236D01*
D02*
G37*
G36*
X-359094Y1787521D02*
X-425000D01*
X-490906D01*
Y1733265D01*
X-490907Y1720565D01*
X-490906Y1716735D01*
Y1701285D01*
X-554203D01*
Y1707400D01*
X-556174Y1717311D01*
X-561788Y1725712D01*
X-570190Y1731326D01*
X-580100Y1733298D01*
X-629900D01*
X-639811Y1731326D01*
X-648212Y1725712D01*
X-653826Y1717311D01*
X-655798Y1707400D01*
Y1617600D01*
X-653826Y1607690D01*
X-648212Y1599288D01*
X-639811Y1593674D01*
X-629900Y1591703D01*
X-580100D01*
X-570190Y1593674D01*
X-562646Y1598715D01*
X-490906D01*
Y1584094D01*
X-408010D01*
X-171293Y1347377D01*
X-159538Y1339522D01*
X-145671Y1336764D01*
X-96500D01*
Y1276500D01*
X96500D01*
Y1469500D01*
X-96500D01*
Y1409236D01*
X-130661D01*
X-359094Y1637669D01*
Y1716735D01*
X-359093Y1729435D01*
X-359094Y1733265D01*
Y1787521D01*
D02*
G37*
G36*
X-655909Y1210513D02*
X-689850D01*
Y1132602D01*
X-655909D01*
Y1210513D01*
D02*
G37*
G36*
X-710150D02*
X-744091D01*
Y1132602D01*
X-710150D01*
Y1210513D01*
D02*
G37*
G36*
X-655909Y1112302D02*
X-689850D01*
Y1034390D01*
X-655909D01*
Y1112302D01*
D02*
G37*
G36*
X-710150D02*
X-744091D01*
Y1034390D01*
X-710150D01*
Y1112302D01*
D02*
G37*
G36*
X-264150Y710320D02*
X-364320D01*
Y610150D01*
X-264150D01*
Y710320D01*
D02*
G37*
G36*
X268521Y710300D02*
X239479D01*
X211426Y702783D01*
X186274Y688262D01*
X165738Y667726D01*
X151217Y642574D01*
X143700Y614521D01*
Y585479D01*
X151217Y557426D01*
X165738Y532275D01*
X186274Y511738D01*
X211426Y497217D01*
X239479Y489700D01*
X268521D01*
X296574Y497217D01*
X321726Y511738D01*
X342262Y532275D01*
X356783Y557426D01*
X364300Y585479D01*
Y614521D01*
X356783Y642574D01*
X342262Y667726D01*
X321726Y688262D01*
X296574Y702783D01*
X268521Y710300D01*
D02*
G37*
G36*
X-143680Y589850D02*
X-243850D01*
Y489680D01*
X-143680D01*
Y589850D01*
D02*
G37*
G36*
X-264150D02*
X-364320D01*
Y489680D01*
X-264150D01*
Y589850D01*
D02*
G37*
%LPD*%
G36*
X-66683Y718602D02*
X-61510Y715125D01*
X-55216Y711659D01*
X-47803Y708204D01*
X-39270Y704760D01*
X-18843Y697905D01*
X6063Y691094D01*
X20196Y687705D01*
X-87283Y621946D01*
X-84725Y633369D01*
X-82964Y644117D01*
X-81999Y654190D01*
X-81832Y663589D01*
X-82462Y672313D01*
X-83888Y680363D01*
X-86112Y687737D01*
X-89133Y694437D01*
X-92951Y700463D01*
X-97566Y705813D01*
X-70737Y722090D01*
X-66683Y718602D01*
D02*
G37*
G36*
X15621Y1741570D02*
X16764Y1735585D01*
X18669Y1729425D01*
X21336Y1723090D01*
X24765Y1716581D01*
X28956Y1709898D01*
X33909Y1703040D01*
X39624Y1696007D01*
X53340Y1681418D01*
X-53340D01*
X-46101Y1688800D01*
X-33909Y1703040D01*
X-28956Y1709898D01*
X-24765Y1716581D01*
X-21336Y1723090D01*
X-18669Y1729425D01*
X-16764Y1735585D01*
X-15621Y1741570D01*
X-15240Y1747381D01*
X15240D01*
X15621Y1741570D01*
D02*
G37*
D10*
X-700000Y1327548D02*
D03*
D11*
Y1122452D02*
D03*
D12*
X-500000Y1129800D02*
D03*
Y1270199D02*
D03*
X0Y1979800D02*
D03*
Y2120199D02*
D03*
D13*
X-605000Y1662500D02*
D03*
X-795000D02*
D03*
Y1937500D02*
D03*
X-700000D02*
D03*
X-605000D02*
D03*
D14*
X-425000Y1797671D02*
D03*
Y1652329D02*
D03*
D15*
X360000Y2115000D02*
D03*
Y1885000D02*
D03*
D16*
X760000Y2000000D02*
D03*
D17*
X674910Y1914910D02*
X760000Y2000000D01*
X674910Y1902855D02*
Y1914910D01*
X657055Y1885000D02*
X674910Y1902855D01*
X450000Y1885000D02*
X657055D01*
X324440D02*
X360000D01*
X274910Y1934530D02*
X324440Y1885000D01*
X230200Y1979800D02*
X274910Y1935090D01*
Y1934530D02*
Y1935090D01*
X0Y1979800D02*
X230200D01*
X414440Y1885000D02*
X450000D01*
X-795000Y1937500D02*
Y2081246D01*
X-746245Y2130000D02*
X-355000D01*
X-795000Y2081246D02*
X-746245Y2130000D01*
X-355000D02*
X-204801Y1979800D01*
X-700000Y1327548D02*
Y1475000D01*
X-795000Y1570000D02*
Y1755000D01*
Y1570000D02*
X-700000Y1475000D01*
X-750000Y1800000D02*
X-657500D01*
X-795000Y1755000D02*
X-750000Y1800000D01*
X-657500D02*
X-605000Y1852500D01*
X-204801Y1979800D02*
X0D01*
X-500000Y1127500D02*
Y1129800D01*
Y1127500D02*
X-469633Y1097133D01*
X-467333D01*
X0Y629800D01*
Y600000D02*
Y629800D01*
X-700000Y1327548D02*
X-557349D01*
X-532667Y1302867D01*
X-530367D01*
X-500000Y1272500D01*
Y1270199D02*
Y1272500D01*
X-605000Y1852500D02*
Y1937500D01*
X0Y1627000D02*
Y1979800D01*
X-425000Y1650000D02*
Y1652329D01*
Y1650000D02*
X-394633Y1619634D01*
X-392304D01*
X-145671Y1373000D01*
X0D01*
X-427329Y1650000D02*
X-425000Y1652329D01*
X-605000Y1662500D02*
X-592500Y1650000D01*
D18*
X-525000D02*
X-427329D01*
X-592500D02*
X-525000D01*
D19*
X-254000Y600000D02*
D03*
D20*
X0D02*
D03*
X254000D02*
D03*
D21*
X0Y1627000D02*
D03*
D22*
Y1373000D02*
D03*
D23*
X1050042Y2939997D02*
D03*
Y2819997D02*
D03*
Y2699997D02*
D03*
Y2579997D02*
D03*
Y2459997D02*
D03*
X-1049958Y2940000D02*
D03*
Y2820000D02*
D03*
Y2700000D02*
D03*
Y2580000D02*
D03*
Y2460000D02*
D03*
X1050000Y540000D02*
D03*
Y420000D02*
D03*
Y300000D02*
D03*
Y180000D02*
D03*
Y60000D02*
D03*
X-1050000D02*
D03*
Y180000D02*
D03*
Y300000D02*
D03*
Y420000D02*
D03*
Y540000D02*
D03*
D24*
X1600040Y2699998D02*
D03*
X-1599957Y2700000D02*
D03*
X1599999Y300001D02*
D03*
X-1600000Y300000D02*
D03*
D25*
X-700000Y1000000D02*
D03*
X-520000Y1800000D02*
D03*
X-700000Y2030000D02*
D03*
X360000Y2240000D02*
D03*
X0Y2225000D02*
D03*
X-525000Y1650000D02*
D03*
%TF.MD5,b75165084b25ecf014984cc79cec0074*%
M02*
