%TF.GenerationSoftware,Altium Limited,Altium Designer,23.6.0 (18)*%
G04 Layer_Color=16711935*
%FSLAX45Y45*%
%MOMM*%
%TF.SameCoordinates,57B8E715-CDE8-4F81-9698-3B096703D57B*%
%TF.FilePolarity,Negative*%
%TF.FileFunction,Soldermask,Bot*%
%TF.Part,Single*%
G01*
G75*
%TA.AperFunction,ComponentPad*%
%ADD32R,1.95000X1.95000*%
%ADD33C,1.95000*%
%ADD34C,1.67400*%
%ADD35R,1.67400X1.67400*%
%TA.AperFunction,WasherPad*%
%ADD36C,0.95000*%
%TA.AperFunction,ViaPad*%
%ADD37C,2.55200*%
D32*
X-254000Y600000D02*
D03*
D33*
X0D02*
D03*
X254000D02*
D03*
D34*
X0Y1627000D02*
D03*
D35*
Y1373000D02*
D03*
D36*
X1050042Y2939997D02*
D03*
Y2819997D02*
D03*
Y2699997D02*
D03*
Y2579997D02*
D03*
Y2459997D02*
D03*
X-1049958Y2940000D02*
D03*
Y2820000D02*
D03*
Y2700000D02*
D03*
Y2580000D02*
D03*
Y2460000D02*
D03*
X1050000Y540000D02*
D03*
Y420000D02*
D03*
Y300000D02*
D03*
Y180000D02*
D03*
Y60000D02*
D03*
X-1050000D02*
D03*
Y180000D02*
D03*
Y300000D02*
D03*
Y420000D02*
D03*
Y540000D02*
D03*
D37*
X1600040Y2699998D02*
D03*
X-1599957Y2700000D02*
D03*
X1599999Y300001D02*
D03*
X-1600000Y300000D02*
D03*
%TF.MD5,bcac4c02f2bd1b29aaba2c346753d603*%
M02*
