%TF.GenerationSoftware,Altium Limited,Altium Designer,23.6.0 (18)*%
G04 Layer_Physical_Order=3*
G04 Layer_Color=16440176*
%FSLAX45Y45*%
%MOMM*%
%TF.SameCoordinates,57B8E715-CDE8-4F81-9698-3B096703D57B*%
%TF.FilePolarity,Positive*%
%TF.FileFunction,Copper,L3,Inr,Signal*%
%TF.Part,Single*%
G01*
G75*
%TA.AperFunction,ComponentPad*%
%ADD20C,1.80000*%
%ADD22R,1.52400X1.52400*%
%TA.AperFunction,ViaPad*%
%ADD25C,0.60000*%
G36*
X950000Y2979608D02*
Y20391D01*
X-950000Y20390D01*
Y2979608D01*
X950000Y2979608D01*
D02*
G37*
%LPC*%
G36*
X367957Y2280000D02*
X352043D01*
X337342Y2273910D01*
X326090Y2262658D01*
X320000Y2247957D01*
Y2232044D01*
X326090Y2217342D01*
X337342Y2206090D01*
X352043Y2200000D01*
X367957D01*
X382658Y2206090D01*
X393910Y2217342D01*
X400000Y2232044D01*
Y2247957D01*
X393910Y2262658D01*
X382658Y2273910D01*
X367957Y2280000D01*
D02*
G37*
G36*
X7957Y2265000D02*
X-7957D01*
X-22658Y2258910D01*
X-33910Y2247658D01*
X-40000Y2232957D01*
Y2217044D01*
X-33910Y2202342D01*
X-22658Y2191090D01*
X-7957Y2185000D01*
X7957D01*
X22658Y2191090D01*
X33910Y2202342D01*
X40000Y2217044D01*
Y2232957D01*
X33910Y2247658D01*
X22658Y2258910D01*
X7957Y2265000D01*
D02*
G37*
G36*
X-692044Y2070000D02*
X-707957D01*
X-722658Y2063910D01*
X-733910Y2052658D01*
X-740000Y2037957D01*
Y2022043D01*
X-733910Y2007342D01*
X-722658Y1996090D01*
X-707957Y1990000D01*
X-692044D01*
X-677342Y1996090D01*
X-666090Y2007342D01*
X-660000Y2022043D01*
Y2037957D01*
X-666090Y2052658D01*
X-677342Y2063910D01*
X-692044Y2070000D01*
D02*
G37*
G36*
X-512043Y1840000D02*
X-527957D01*
X-542658Y1833910D01*
X-553910Y1822658D01*
X-560000Y1807957D01*
Y1792043D01*
X-553910Y1777342D01*
X-542658Y1766090D01*
X-527957Y1760000D01*
X-512043D01*
X-497342Y1766090D01*
X-486090Y1777342D01*
X-480000Y1792043D01*
Y1807957D01*
X-486090Y1822658D01*
X-497342Y1833910D01*
X-512043Y1840000D01*
D02*
G37*
G36*
X9979Y1702800D02*
X-9979D01*
X-29258Y1697634D01*
X-46542Y1687655D01*
X-60655Y1673542D01*
X-70634Y1656258D01*
X-75800Y1636979D01*
Y1617021D01*
X-70634Y1597742D01*
X-60655Y1580458D01*
X-46542Y1566345D01*
X-29258Y1556366D01*
X-9979Y1551200D01*
X9979D01*
X29258Y1556366D01*
X46542Y1566345D01*
X60655Y1580458D01*
X70634Y1597742D01*
X75800Y1617021D01*
Y1636979D01*
X70634Y1656258D01*
X60655Y1673542D01*
X46542Y1687655D01*
X29258Y1697634D01*
X9979Y1702800D01*
D02*
G37*
G36*
X96520Y1469520D02*
X10150D01*
Y1383150D01*
X96520D01*
Y1469520D01*
D02*
G37*
G36*
X-10150D02*
X-96520D01*
Y1383150D01*
X-10150D01*
Y1469520D01*
D02*
G37*
G36*
X96520Y1362850D02*
X10150D01*
Y1276480D01*
X96520D01*
Y1362850D01*
D02*
G37*
G36*
X-10150D02*
X-96520D01*
Y1276480D01*
X-10150D01*
Y1362850D01*
D02*
G37*
G36*
X-692044Y1040000D02*
X-707957D01*
X-722658Y1033910D01*
X-733910Y1022658D01*
X-740000Y1007957D01*
Y992043D01*
X-733910Y977342D01*
X-722658Y966090D01*
X-707957Y960000D01*
X-692044D01*
X-677342Y966090D01*
X-666090Y977342D01*
X-660000Y992043D01*
Y1007957D01*
X-666090Y1022658D01*
X-677342Y1033910D01*
X-692044Y1040000D01*
D02*
G37*
G36*
X268524Y710320D02*
X264150D01*
Y610150D01*
X364320D01*
Y614524D01*
X356802Y642582D01*
X342278Y667738D01*
X321738Y688278D01*
X296582Y702802D01*
X268524Y710320D01*
D02*
G37*
G36*
X243850D02*
X239476D01*
X211418Y702802D01*
X186262Y688278D01*
X165722Y667738D01*
X151198Y642582D01*
X143680Y614524D01*
Y610150D01*
X243850D01*
Y710320D01*
D02*
G37*
G36*
X10137Y677000D02*
X-10137D01*
X-29721Y671753D01*
X-47279Y661615D01*
X-61615Y647279D01*
X-71752Y629721D01*
X-77000Y610137D01*
Y589863D01*
X-71752Y570279D01*
X-61615Y552721D01*
X-47279Y538385D01*
X-29721Y528248D01*
X-10137Y523000D01*
X10137D01*
X29721Y528248D01*
X47279Y538385D01*
X61615Y552721D01*
X71752Y570279D01*
X77000Y589863D01*
Y610137D01*
X71752Y629721D01*
X61615Y647279D01*
X47279Y661615D01*
X29721Y671753D01*
X10137Y677000D01*
D02*
G37*
G36*
X-243863D02*
X-264137D01*
X-283721Y671753D01*
X-301279Y661615D01*
X-315615Y647279D01*
X-325752Y629721D01*
X-331000Y610137D01*
Y589863D01*
X-325752Y570279D01*
X-315615Y552721D01*
X-301279Y538385D01*
X-283721Y528248D01*
X-264137Y523000D01*
X-243863D01*
X-224279Y528248D01*
X-206721Y538385D01*
X-192385Y552721D01*
X-182248Y570279D01*
X-177000Y589863D01*
Y610137D01*
X-182248Y629721D01*
X-192385Y647279D01*
X-206721Y661615D01*
X-224279Y671753D01*
X-243863Y677000D01*
D02*
G37*
G36*
X364320Y589850D02*
X264150D01*
Y489680D01*
X268524D01*
X296582Y497198D01*
X321738Y511722D01*
X342278Y532262D01*
X356802Y557418D01*
X364320Y585476D01*
Y589850D01*
D02*
G37*
G36*
X243850D02*
X143680D01*
Y585476D01*
X151198Y557418D01*
X165722Y532262D01*
X186262Y511722D01*
X211418Y497198D01*
X239476Y489680D01*
X243850D01*
Y589850D01*
D02*
G37*
%LPD*%
D20*
X254000Y600000D02*
D03*
D22*
X0Y1373000D02*
D03*
D25*
X-525000Y1650000D02*
D03*
%TF.MD5,625a2607af11008faf8e8ee7a37c3a0d*%
M02*
