%TF.GenerationSoftware,Altium Limited,Altium Designer,23.6.0 (18)*%
G04 Layer_Color=2752767*
%FSLAX45Y45*%
%MOMM*%
%TF.SameCoordinates,57B8E715-CDE8-4F81-9698-3B096703D57B*%
%TF.FilePolarity,Positive*%
%TF.FileFunction,Drawing*%
%TF.Part,Single*%
G01*
G75*
%TA.AperFunction,NonConductor*%
%ADD38C,0.38100*%
%ADD40C,0.25400*%
%ADD69C,0.08467*%
%ADD70C,0.40640*%
D38*
X3019050Y2305050D02*
X31570807D01*
X3019050Y400050D02*
X31570807D01*
X3019050Y19050D02*
X31570807D01*
Y2686050D01*
X3019050D02*
X31570807D01*
X3019050Y19050D02*
Y2686050D01*
X28069144Y19050D02*
Y2686050D01*
X24681779Y19050D02*
Y2686050D01*
X22513222Y19050D02*
Y2686050D01*
X18983673Y19050D02*
Y2686050D01*
X17089346Y19050D02*
Y2686050D01*
X15591132Y19050D02*
Y2686050D01*
X11782272Y19050D02*
Y2686050D01*
X9918415Y19050D02*
Y2686050D01*
X8633491Y19050D02*
Y2686050D01*
X5789521Y19050D02*
Y2686050D01*
X4418274Y19050D02*
Y2686050D01*
D40*
X3340254Y980017D02*
G03*
X3340254Y980017I-84667J0D01*
G01*
X3170921Y2038350D02*
X3340254D01*
Y2207683D01*
X3170921D02*
X3340254D01*
X3170921Y2038350D02*
Y2207683D01*
X3255588Y1657350D02*
X3340254Y1826683D01*
X3170921D02*
X3340254D01*
X3170921D02*
X3255588Y1657350D01*
X3213254Y1318683D02*
X3255588Y1276350D01*
X3170921Y1318683D02*
X3213254D01*
X3170921D02*
X3213254Y1361017D01*
X3170921Y1403350D02*
X3213254Y1361017D01*
X3170921Y1403350D02*
X3213254D01*
X3255588Y1445683D01*
X3297921Y1403350D01*
X3340254D01*
X3297921Y1361017D02*
X3340254Y1403350D01*
X3297921Y1361017D02*
X3340254Y1318683D01*
X3297921D02*
X3340254D01*
X3255588Y1276350D02*
X3297921Y1318683D01*
X3170921Y514350D02*
X3255588Y556683D01*
X3340254Y514350D01*
X3297921Y599017D02*
X3340254Y514350D01*
X3297921Y599017D02*
X3340254Y683683D01*
X3255588Y641350D02*
X3340254Y683683D01*
X3170921D02*
X3255588Y641350D01*
X3170921Y683683D02*
X3213254Y599017D01*
X3170921Y514350D02*
X3213254Y599017D01*
X19148756Y2038350D02*
X19097974Y2089133D01*
Y2139917D01*
X19148756Y2190701D01*
X19224931Y2038350D02*
Y2190701D01*
X19275716Y2139917D01*
X19326498Y2190701D01*
Y2038350D01*
X19377283D02*
X19428065D01*
X19402675D01*
Y2139917D01*
X19377283D01*
X19504242D02*
X19605809Y2038350D01*
X19555025Y2089133D01*
X19605809Y2139917D01*
X19504242Y2038350D01*
X19732768D02*
X19681984D01*
X19656592Y2063742D01*
Y2114525D01*
X19681984Y2139917D01*
X19732768D01*
X19758160Y2114525D01*
Y2089133D01*
X19656592D01*
X19910510Y2190701D02*
Y2038350D01*
X19834335D01*
X19808943Y2063742D01*
Y2114525D01*
X19834335Y2139917D01*
X19910510D01*
X19961295Y2038350D02*
X20012077Y2089133D01*
Y2139917D01*
X19961295Y2190701D01*
X19148756Y1657350D02*
X19097974Y1708133D01*
Y1758917D01*
X19148756Y1809701D01*
X19224931Y1657350D02*
Y1809701D01*
X19275716Y1758917D01*
X19326498Y1809701D01*
Y1657350D01*
X19377283D02*
X19428065D01*
X19402675D01*
Y1758917D01*
X19377283D01*
X19504242D02*
X19605809Y1657350D01*
X19555025Y1708133D01*
X19605809Y1758917D01*
X19504242Y1657350D01*
X19732768D02*
X19681984D01*
X19656592Y1682742D01*
Y1733525D01*
X19681984Y1758917D01*
X19732768D01*
X19758160Y1733525D01*
Y1708133D01*
X19656592D01*
X19910510Y1809701D02*
Y1657350D01*
X19834335D01*
X19808943Y1682742D01*
Y1733525D01*
X19834335Y1758917D01*
X19910510D01*
X19961295Y1657350D02*
X20012077Y1708133D01*
Y1758917D01*
X19961295Y1809701D01*
X19199541Y1377917D02*
X19123364D01*
X19097974Y1352525D01*
Y1301742D01*
X19123364Y1276350D01*
X19199541D01*
X19351891Y1428701D02*
X19250323D01*
Y1352525D01*
X19301106Y1377917D01*
X19326498D01*
X19351891Y1352525D01*
Y1301742D01*
X19326498Y1276350D01*
X19275716D01*
X19250323Y1301742D01*
X19504242Y1428701D02*
X19453458Y1403309D01*
X19402675Y1352525D01*
Y1301742D01*
X19428067Y1276350D01*
X19478850D01*
X19504242Y1301742D01*
Y1327133D01*
X19478850Y1352525D01*
X19402675D01*
X19555025Y1403309D02*
X19580417Y1428701D01*
X19631201D01*
X19656593Y1403309D01*
Y1301742D01*
X19631201Y1276350D01*
X19580417D01*
X19555025Y1301742D01*
Y1403309D01*
X19707376Y1428701D02*
Y1276350D01*
Y1352525D01*
X19732768Y1377917D01*
X19783551D01*
X19808943Y1352525D01*
Y1276350D01*
X19859727Y1403309D02*
X19885120Y1428701D01*
X19935902D01*
X19961295Y1403309D01*
Y1377917D01*
X19935902Y1352525D01*
X19910510D01*
X19935902D01*
X19961295Y1327133D01*
Y1301742D01*
X19935902Y1276350D01*
X19885120D01*
X19859727Y1301742D01*
X20012077Y1403309D02*
X20037469Y1428701D01*
X20088252D01*
X20113644Y1403309D01*
Y1301742D01*
X20088252Y1276350D01*
X20037469D01*
X20012077Y1301742D01*
Y1403309D01*
X20164429D02*
X20189819Y1428701D01*
X20240604D01*
X20265996Y1403309D01*
Y1301742D01*
X20240604Y1276350D01*
X20189819D01*
X20164429Y1301742D01*
Y1403309D01*
X20316779Y1276350D02*
Y1377917D01*
X20342171D01*
X20367563Y1352525D01*
Y1276350D01*
Y1352525D01*
X20392953Y1377917D01*
X20418346Y1352525D01*
Y1276350D01*
X20545305D02*
Y1428701D01*
X20469130Y1352525D01*
X20570697D01*
X20621480Y1403309D02*
X20646872Y1428701D01*
X20697656D01*
X20723048Y1403309D01*
Y1301742D01*
X20697656Y1276350D01*
X20646872D01*
X20621480Y1301742D01*
Y1403309D01*
X20773831D02*
X20799223Y1428701D01*
X20850008D01*
X20875398Y1403309D01*
Y1377917D01*
X20850008Y1352525D01*
X20875398Y1327133D01*
Y1301742D01*
X20850008Y1276350D01*
X20799223D01*
X20773831Y1301742D01*
Y1327133D01*
X20799223Y1352525D01*
X20773831Y1377917D01*
Y1403309D01*
X20799223Y1352525D02*
X20850008D01*
X19097974Y996917D02*
X19148756Y895350D01*
X19199541Y996917D01*
X19351891Y1047701D02*
X19301106Y1022309D01*
X19250323Y971525D01*
Y920742D01*
X19275716Y895350D01*
X19326498D01*
X19351891Y920742D01*
Y946133D01*
X19326498Y971525D01*
X19250323D01*
X19402675Y1022309D02*
X19428067Y1047701D01*
X19478850D01*
X19504242Y1022309D01*
Y920742D01*
X19478850Y895350D01*
X19428067D01*
X19402675Y920742D01*
Y1022309D01*
X19555025Y1047701D02*
Y895350D01*
Y971525D01*
X19580417Y996917D01*
X19631201D01*
X19656593Y971525D01*
Y895350D01*
X19707376Y1022309D02*
X19732768Y1047701D01*
X19783551D01*
X19808943Y1022309D01*
Y996917D01*
X19783551Y971525D01*
X19758160D01*
X19783551D01*
X19808943Y946133D01*
Y920742D01*
X19783551Y895350D01*
X19732768D01*
X19707376Y920742D01*
X19859727Y1022309D02*
X19885120Y1047701D01*
X19935902D01*
X19961295Y1022309D01*
Y920742D01*
X19935902Y895350D01*
X19885120D01*
X19859727Y920742D01*
Y1022309D01*
X20012077Y895350D02*
Y996917D01*
X20037469D01*
X20062862Y971525D01*
Y895350D01*
Y971525D01*
X20088252Y996917D01*
X20113644Y971525D01*
Y895350D01*
X20164429Y1022309D02*
X20189819Y1047701D01*
X20240604D01*
X20265996Y1022309D01*
Y920742D01*
X20240604Y895350D01*
X20189819D01*
X20164429Y920742D01*
Y1022309D01*
X20316779Y895350D02*
Y996917D01*
X20342171D01*
X20367563Y971525D01*
Y895350D01*
Y971525D01*
X20392953Y996917D01*
X20418346Y971525D01*
Y895350D01*
X20469130Y996917D02*
X20570697Y895350D01*
X20519913Y946133D01*
X20570697Y996917D01*
X20469130Y895350D01*
X20621480Y1022309D02*
X20646872Y1047701D01*
X20697656D01*
X20723048Y1022309D01*
Y920742D01*
X20697656Y895350D01*
X20646872D01*
X20621480Y920742D01*
Y1022309D01*
X20773831Y869958D02*
X20875398D01*
X21027750Y895350D02*
X20926183D01*
X21027750Y996917D01*
Y1022309D01*
X21002357Y1047701D01*
X20951575D01*
X20926183Y1022309D01*
X21180099Y1047701D02*
X21129317Y1022309D01*
X21078532Y971525D01*
Y920742D01*
X21103925Y895350D01*
X21154707D01*
X21180099Y920742D01*
Y946133D01*
X21154707Y971525D01*
X21078532D01*
X21230882Y1047701D02*
X21332451D01*
Y1022309D01*
X21230882Y920742D01*
Y895350D01*
X21383234Y1022309D02*
X21408626Y1047701D01*
X21459409D01*
X21484801Y1022309D01*
Y920742D01*
X21459409Y895350D01*
X21408626D01*
X21383234Y920742D01*
Y1022309D01*
X21535585D02*
X21560977Y1047701D01*
X21611760D01*
X21637152Y1022309D01*
Y920742D01*
X21611760Y895350D01*
X21560977D01*
X21535585Y920742D01*
Y1022309D01*
X21687936D02*
X21713327Y1047701D01*
X21764111D01*
X21789503Y1022309D01*
Y996917D01*
X21764111Y971525D01*
X21738719D01*
X21764111D01*
X21789503Y946133D01*
Y920742D01*
X21764111Y895350D01*
X21713327D01*
X21687936Y920742D01*
X21916463Y895350D02*
Y1047701D01*
X21840286Y971525D01*
X21941853D01*
X21992638Y1022309D02*
X22018028Y1047701D01*
X22068813D01*
X22094205Y1022309D01*
Y920742D01*
X22068813Y895350D01*
X22018028D01*
X21992638Y920742D01*
Y1022309D01*
X22144987Y1047701D02*
X22246555D01*
Y1022309D01*
X22144987Y920742D01*
Y895350D01*
X22297337D02*
X22348122D01*
X22322729D01*
Y1047701D01*
X22297337Y1022309D01*
X19199541Y615917D02*
X19123364D01*
X19097974Y590525D01*
Y539742D01*
X19123364Y514350D01*
X19199541D01*
X19250323Y641309D02*
X19275716Y666701D01*
X19326498D01*
X19351891Y641309D01*
Y615917D01*
X19326498Y590525D01*
X19351891Y565133D01*
Y539742D01*
X19326498Y514350D01*
X19275716D01*
X19250323Y539742D01*
Y565133D01*
X19275716Y590525D01*
X19250323Y615917D01*
Y641309D01*
X19275716Y590525D02*
X19326498D01*
X19402675Y641309D02*
X19428067Y666701D01*
X19478850D01*
X19504242Y641309D01*
Y539742D01*
X19478850Y514350D01*
X19428067D01*
X19402675Y539742D01*
Y641309D01*
X19555025Y666701D02*
Y514350D01*
Y590525D01*
X19580417Y615917D01*
X19631201D01*
X19656593Y590525D01*
Y514350D01*
X19707376D02*
Y615917D01*
X19783551D01*
X19808943Y590525D01*
Y514350D01*
X19859727Y641309D02*
X19885120Y666701D01*
X19935902D01*
X19961295Y641309D01*
Y615917D01*
X19935902Y590525D01*
X19961295Y565133D01*
Y539742D01*
X19935902Y514350D01*
X19885120D01*
X19859727Y539742D01*
Y565133D01*
X19885120Y590525D01*
X19859727Y615917D01*
Y641309D01*
X19885120Y590525D02*
X19935902D01*
X20012077Y641309D02*
X20037469Y666701D01*
X20088252D01*
X20113644Y641309D01*
Y539742D01*
X20088252Y514350D01*
X20037469D01*
X20012077Y539742D01*
Y641309D01*
X17254430Y2038350D02*
X17203645Y2089133D01*
Y2139917D01*
X17254430Y2190701D01*
X17330605Y2038350D02*
Y2190701D01*
X17381387Y2139917D01*
X17432172Y2190701D01*
Y2038350D01*
X17482956D02*
X17533739D01*
X17508348D01*
Y2139917D01*
X17482956D01*
X17609914D02*
X17711482Y2038350D01*
X17660698Y2089133D01*
X17711482Y2139917D01*
X17609914Y2038350D01*
X17838441D02*
X17787657D01*
X17762265Y2063742D01*
Y2114525D01*
X17787657Y2139917D01*
X17838441D01*
X17863832Y2114525D01*
Y2089133D01*
X17762265D01*
X18016183Y2190701D02*
Y2038350D01*
X17940009D01*
X17914616Y2063742D01*
Y2114525D01*
X17940009Y2139917D01*
X18016183D01*
X18066966Y2038350D02*
X18117751Y2089133D01*
Y2139917D01*
X18066966Y2190701D01*
X17254430Y1657350D02*
X17203645Y1708133D01*
Y1758917D01*
X17254430Y1809701D01*
X17330605Y1657350D02*
Y1809701D01*
X17381387Y1758917D01*
X17432172Y1809701D01*
Y1657350D01*
X17482956D02*
X17533739D01*
X17508348D01*
Y1758917D01*
X17482956D01*
X17609914D02*
X17711482Y1657350D01*
X17660698Y1708133D01*
X17711482Y1758917D01*
X17609914Y1657350D01*
X17838441D02*
X17787657D01*
X17762265Y1682742D01*
Y1733525D01*
X17787657Y1758917D01*
X17838441D01*
X17863832Y1733525D01*
Y1708133D01*
X17762265D01*
X18016183Y1809701D02*
Y1657350D01*
X17940009D01*
X17914616Y1682742D01*
Y1733525D01*
X17940009Y1758917D01*
X18016183D01*
X18066966Y1657350D02*
X18117751Y1708133D01*
Y1758917D01*
X18066966Y1809701D01*
X17203645Y1276350D02*
Y1428701D01*
X17279820D01*
X17305212Y1403309D01*
Y1352525D01*
X17279820Y1327133D01*
X17203645D01*
X17254430D02*
X17305212Y1276350D01*
X17381389D02*
X17432172D01*
X17457564Y1301742D01*
Y1352525D01*
X17432172Y1377917D01*
X17381389D01*
X17355997Y1352525D01*
Y1301742D01*
X17381389Y1276350D01*
X17508348Y1377917D02*
Y1301742D01*
X17533739Y1276350D01*
X17609915D01*
Y1377917D01*
X17660698Y1276350D02*
Y1377917D01*
X17736874D01*
X17762265Y1352525D01*
Y1276350D01*
X17914616Y1428701D02*
Y1276350D01*
X17838441D01*
X17813049Y1301742D01*
Y1352525D01*
X17838441Y1377917D01*
X17914616D01*
X18041576Y1276350D02*
X17990791D01*
X17965401Y1301742D01*
Y1352525D01*
X17990791Y1377917D01*
X18041576D01*
X18066966Y1352525D01*
Y1327133D01*
X17965401D01*
X18219318Y1428701D02*
Y1276350D01*
X18143143D01*
X18117751Y1301742D01*
Y1352525D01*
X18143143Y1377917D01*
X18219318D01*
X17203645Y895350D02*
Y1047701D01*
X17279820D01*
X17305212Y1022309D01*
Y971525D01*
X17279820Y946133D01*
X17203645D01*
X17254430D02*
X17305212Y895350D01*
X17381389D02*
X17432172D01*
X17457564Y920742D01*
Y971525D01*
X17432172Y996917D01*
X17381389D01*
X17355997Y971525D01*
Y920742D01*
X17381389Y895350D01*
X17508348Y996917D02*
Y920742D01*
X17533739Y895350D01*
X17609915D01*
Y996917D01*
X17660698Y895350D02*
Y996917D01*
X17736874D01*
X17762265Y971525D01*
Y895350D01*
X17914616Y1047701D02*
Y895350D01*
X17838441D01*
X17813049Y920742D01*
Y971525D01*
X17838441Y996917D01*
X17914616D01*
X18041576Y895350D02*
X17990791D01*
X17965401Y920742D01*
Y971525D01*
X17990791Y996917D01*
X18041576D01*
X18066966Y971525D01*
Y946133D01*
X17965401D01*
X18219318Y1047701D02*
Y895350D01*
X18143143D01*
X18117751Y920742D01*
Y971525D01*
X18143143Y996917D01*
X18219318D01*
X17203645Y514350D02*
Y666701D01*
X17279820D01*
X17305212Y641309D01*
Y590525D01*
X17279820Y565133D01*
X17203645D01*
X17254430D02*
X17305212Y514350D01*
X17381389D02*
X17432172D01*
X17457564Y539742D01*
Y590525D01*
X17432172Y615917D01*
X17381389D01*
X17355997Y590525D01*
Y539742D01*
X17381389Y514350D01*
X17508348Y615917D02*
Y539742D01*
X17533739Y514350D01*
X17609915D01*
Y615917D01*
X17660698Y514350D02*
Y615917D01*
X17736874D01*
X17762265Y590525D01*
Y514350D01*
X17914616Y666701D02*
Y514350D01*
X17838441D01*
X17813049Y539742D01*
Y590525D01*
X17838441Y615917D01*
X17914616D01*
X18041576Y514350D02*
X17990791D01*
X17965401Y539742D01*
Y590525D01*
X17990791Y615917D01*
X18041576D01*
X18066966Y590525D01*
Y565133D01*
X17965401D01*
X18219318Y666701D02*
Y514350D01*
X18143143D01*
X18117751Y539742D01*
Y590525D01*
X18143143Y615917D01*
X18219318D01*
X15705431Y2038350D02*
Y2190701D01*
X15781606D01*
X15806998Y2165309D01*
Y2114525D01*
X15781606Y2089133D01*
X15705431D01*
X15883173Y2139917D02*
X15933957D01*
X15959349Y2114525D01*
Y2038350D01*
X15883173D01*
X15857780Y2063742D01*
X15883173Y2089133D01*
X15959349D01*
X16111699Y2190701D02*
Y2038350D01*
X16035524D01*
X16010132Y2063742D01*
Y2114525D01*
X16035524Y2139917D01*
X16111699D01*
X15705431Y1657350D02*
Y1809701D01*
X15781606D01*
X15806998Y1784309D01*
Y1733525D01*
X15781606Y1708133D01*
X15705431D01*
X15883173Y1758917D02*
X15933957D01*
X15959349Y1733525D01*
Y1657350D01*
X15883173D01*
X15857780Y1682742D01*
X15883173Y1708133D01*
X15959349D01*
X16111699Y1809701D02*
Y1657350D01*
X16035524D01*
X16010132Y1682742D01*
Y1733525D01*
X16035524Y1758917D01*
X16111699D01*
X15705431Y1276350D02*
Y1428701D01*
X15781606D01*
X15806998Y1403309D01*
Y1352525D01*
X15781606Y1327133D01*
X15705431D01*
X15883173Y1377917D02*
X15933957D01*
X15959349Y1352525D01*
Y1276350D01*
X15883173D01*
X15857780Y1301742D01*
X15883173Y1327133D01*
X15959349D01*
X16111699Y1428701D02*
Y1276350D01*
X16035524D01*
X16010132Y1301742D01*
Y1352525D01*
X16035524Y1377917D01*
X16111699D01*
X15705431Y1047701D02*
Y946133D01*
X15756213Y895350D01*
X15806998Y946133D01*
Y1047701D01*
X15857780Y895350D02*
X15908565D01*
X15883173D01*
Y996917D01*
X15857780D01*
X16010132D02*
X16060916D01*
X16086307Y971525D01*
Y895350D01*
X16010132D01*
X15984740Y920742D01*
X16010132Y946133D01*
X16086307D01*
X15705431Y514350D02*
Y666701D01*
X15781606D01*
X15806998Y641309D01*
Y590525D01*
X15781606Y565133D01*
X15705431D01*
X15883173Y615917D02*
X15933957D01*
X15959349Y590525D01*
Y514350D01*
X15883173D01*
X15857780Y539742D01*
X15883173Y565133D01*
X15959349D01*
X16111699Y666701D02*
Y514350D01*
X16035524D01*
X16010132Y539742D01*
Y590525D01*
X16035524Y615917D01*
X16111699D01*
X11896572Y2190701D02*
X11998140D01*
X11947356D01*
Y2038350D01*
X12074315D02*
X12125098D01*
X12150490Y2063742D01*
Y2114525D01*
X12125098Y2139917D01*
X12074315D01*
X12048923Y2114525D01*
Y2063742D01*
X12074315Y2038350D01*
X12201274Y1987567D02*
Y2139917D01*
X12277449D01*
X12302841Y2114525D01*
Y2063742D01*
X12277449Y2038350D01*
X12201274D01*
X12505975Y2190701D02*
Y2038350D01*
X12607542D01*
X12683718Y2139917D02*
X12734501D01*
X12759893Y2114525D01*
Y2038350D01*
X12683718D01*
X12658326Y2063742D01*
X12683718Y2089133D01*
X12759893D01*
X12810677Y2139917D02*
Y2063742D01*
X12836069Y2038350D01*
X12912244D01*
Y2012958D01*
X12886852Y1987567D01*
X12861459D01*
X12912244Y2038350D02*
Y2139917D01*
X13039203Y2038350D02*
X12988419D01*
X12963026Y2063742D01*
Y2114525D01*
X12988419Y2139917D01*
X13039203D01*
X13064595Y2114525D01*
Y2089133D01*
X12963026D01*
X13115378Y2139917D02*
Y2038350D01*
Y2089133D01*
X13140770Y2114525D01*
X13166162Y2139917D01*
X13191553D01*
X13420081Y2114525D02*
X13521648D01*
X13724780Y2190701D02*
Y2038350D01*
X13800957D01*
X13826347Y2063742D01*
Y2089133D01*
X13800957Y2114525D01*
X13724780D01*
X13800957D01*
X13826347Y2139917D01*
Y2165309D01*
X13800957Y2190701D01*
X13724780D01*
X13902524Y2038350D02*
X13953307D01*
X13978699Y2063742D01*
Y2114525D01*
X13953307Y2139917D01*
X13902524D01*
X13877132Y2114525D01*
Y2063742D01*
X13902524Y2038350D01*
X14054874Y2165309D02*
Y2139917D01*
X14029482D01*
X14080266D01*
X14054874D01*
Y2063742D01*
X14080266Y2038350D01*
X14181833Y2165309D02*
Y2139917D01*
X14156441D01*
X14207225D01*
X14181833D01*
Y2063742D01*
X14207225Y2038350D01*
X14308792D02*
X14359576D01*
X14384967Y2063742D01*
Y2114525D01*
X14359576Y2139917D01*
X14308792D01*
X14283400Y2114525D01*
Y2063742D01*
X14308792Y2038350D01*
X14435751D02*
Y2139917D01*
X14461143D01*
X14486534Y2114525D01*
Y2038350D01*
Y2114525D01*
X14511926Y2139917D01*
X14537318Y2114525D01*
Y2038350D01*
X14740453Y2190701D02*
Y2038350D01*
X14842020D01*
X14918195Y2139917D02*
X14968977D01*
X14994370Y2114525D01*
Y2038350D01*
X14918195D01*
X14892802Y2063742D01*
X14918195Y2089133D01*
X14994370D01*
X15045154Y2139917D02*
Y2063742D01*
X15070546Y2038350D01*
X15146721D01*
Y2012958D01*
X15121329Y1987567D01*
X15095937D01*
X15146721Y2038350D02*
Y2139917D01*
X15273680Y2038350D02*
X15222896D01*
X15197505Y2063742D01*
Y2114525D01*
X15222896Y2139917D01*
X15273680D01*
X15299072Y2114525D01*
Y2089133D01*
X15197505D01*
X15349855Y2139917D02*
Y2038350D01*
Y2089133D01*
X15375247Y2114525D01*
X15400639Y2139917D01*
X15426031D01*
X11896572Y1809701D02*
X11998140D01*
X11947356D01*
Y1657350D01*
X12074315D02*
X12125098D01*
X12150490Y1682742D01*
Y1733525D01*
X12125098Y1758917D01*
X12074315D01*
X12048923Y1733525D01*
Y1682742D01*
X12074315Y1657350D01*
X12201274Y1606567D02*
Y1758917D01*
X12277449D01*
X12302841Y1733525D01*
Y1682742D01*
X12277449Y1657350D01*
X12201274D01*
X12505975Y1809701D02*
Y1657350D01*
X12607542D01*
X12683718Y1758917D02*
X12734501D01*
X12759893Y1733525D01*
Y1657350D01*
X12683718D01*
X12658326Y1682742D01*
X12683718Y1708133D01*
X12759893D01*
X12810677Y1758917D02*
Y1682742D01*
X12836069Y1657350D01*
X12912244D01*
Y1631958D01*
X12886852Y1606567D01*
X12861459D01*
X12912244Y1657350D02*
Y1758917D01*
X13039203Y1657350D02*
X12988419D01*
X12963026Y1682742D01*
Y1733525D01*
X12988419Y1758917D01*
X13039203D01*
X13064595Y1733525D01*
Y1708133D01*
X12963026D01*
X13115378Y1758917D02*
Y1657350D01*
Y1708133D01*
X13140770Y1733525D01*
X13166162Y1758917D01*
X13191553D01*
X13420081Y1733525D02*
X13521648D01*
X13724780Y1809701D02*
Y1657350D01*
X13800957D01*
X13826347Y1682742D01*
Y1708133D01*
X13800957Y1733525D01*
X13724780D01*
X13800957D01*
X13826347Y1758917D01*
Y1784309D01*
X13800957Y1809701D01*
X13724780D01*
X13902524Y1657350D02*
X13953307D01*
X13978699Y1682742D01*
Y1733525D01*
X13953307Y1758917D01*
X13902524D01*
X13877132Y1733525D01*
Y1682742D01*
X13902524Y1657350D01*
X14054874Y1784309D02*
Y1758917D01*
X14029482D01*
X14080266D01*
X14054874D01*
Y1682742D01*
X14080266Y1657350D01*
X14181833Y1784309D02*
Y1758917D01*
X14156441D01*
X14207225D01*
X14181833D01*
Y1682742D01*
X14207225Y1657350D01*
X14308792D02*
X14359576D01*
X14384967Y1682742D01*
Y1733525D01*
X14359576Y1758917D01*
X14308792D01*
X14283400Y1733525D01*
Y1682742D01*
X14308792Y1657350D01*
X14435751D02*
Y1758917D01*
X14461143D01*
X14486534Y1733525D01*
Y1657350D01*
Y1733525D01*
X14511926Y1758917D01*
X14537318Y1733525D01*
Y1657350D01*
X14740453Y1809701D02*
Y1657350D01*
X14842020D01*
X14918195Y1758917D02*
X14968977D01*
X14994370Y1733525D01*
Y1657350D01*
X14918195D01*
X14892802Y1682742D01*
X14918195Y1708133D01*
X14994370D01*
X15045154Y1758917D02*
Y1682742D01*
X15070546Y1657350D01*
X15146721D01*
Y1631958D01*
X15121329Y1606567D01*
X15095937D01*
X15146721Y1657350D02*
Y1758917D01*
X15273680Y1657350D02*
X15222896D01*
X15197505Y1682742D01*
Y1733525D01*
X15222896Y1758917D01*
X15273680D01*
X15299072Y1733525D01*
Y1708133D01*
X15197505D01*
X15349855Y1758917D02*
Y1657350D01*
Y1708133D01*
X15375247Y1733525D01*
X15400639Y1758917D01*
X15426031D01*
X11896572Y1428701D02*
X11998140D01*
X11947356D01*
Y1276350D01*
X12074315D02*
X12125098D01*
X12150490Y1301742D01*
Y1352525D01*
X12125098Y1377917D01*
X12074315D01*
X12048923Y1352525D01*
Y1301742D01*
X12074315Y1276350D01*
X12201274Y1225567D02*
Y1377917D01*
X12277449D01*
X12302841Y1352525D01*
Y1301742D01*
X12277449Y1276350D01*
X12201274D01*
X12505975Y1428701D02*
Y1276350D01*
X12607542D01*
X12683718Y1377917D02*
X12734501D01*
X12759893Y1352525D01*
Y1276350D01*
X12683718D01*
X12658326Y1301742D01*
X12683718Y1327133D01*
X12759893D01*
X12810677Y1377917D02*
Y1301742D01*
X12836069Y1276350D01*
X12912244D01*
Y1250958D01*
X12886852Y1225567D01*
X12861459D01*
X12912244Y1276350D02*
Y1377917D01*
X13039203Y1276350D02*
X12988419D01*
X12963026Y1301742D01*
Y1352525D01*
X12988419Y1377917D01*
X13039203D01*
X13064595Y1352525D01*
Y1327133D01*
X12963026D01*
X13115378Y1377917D02*
Y1276350D01*
Y1327133D01*
X13140770Y1352525D01*
X13166162Y1377917D01*
X13191553D01*
X13420081Y1352525D02*
X13521648D01*
X13724780Y1428701D02*
Y1276350D01*
X13800957D01*
X13826347Y1301742D01*
Y1327133D01*
X13800957Y1352525D01*
X13724780D01*
X13800957D01*
X13826347Y1377917D01*
Y1403309D01*
X13800957Y1428701D01*
X13724780D01*
X13902524Y1276350D02*
X13953307D01*
X13978699Y1301742D01*
Y1352525D01*
X13953307Y1377917D01*
X13902524D01*
X13877132Y1352525D01*
Y1301742D01*
X13902524Y1276350D01*
X14054874Y1403309D02*
Y1377917D01*
X14029482D01*
X14080266D01*
X14054874D01*
Y1301742D01*
X14080266Y1276350D01*
X14181833Y1403309D02*
Y1377917D01*
X14156441D01*
X14207225D01*
X14181833D01*
Y1301742D01*
X14207225Y1276350D01*
X14308792D02*
X14359576D01*
X14384967Y1301742D01*
Y1352525D01*
X14359576Y1377917D01*
X14308792D01*
X14283400Y1352525D01*
Y1301742D01*
X14308792Y1276350D01*
X14435751D02*
Y1377917D01*
X14461143D01*
X14486534Y1352525D01*
Y1276350D01*
Y1352525D01*
X14511926Y1377917D01*
X14537318Y1352525D01*
Y1276350D01*
X14740453Y1428701D02*
Y1276350D01*
X14842020D01*
X14918195Y1377917D02*
X14968977D01*
X14994370Y1352525D01*
Y1276350D01*
X14918195D01*
X14892802Y1301742D01*
X14918195Y1327133D01*
X14994370D01*
X15045154Y1377917D02*
Y1301742D01*
X15070546Y1276350D01*
X15146721D01*
Y1250958D01*
X15121329Y1225567D01*
X15095937D01*
X15146721Y1276350D02*
Y1377917D01*
X15273680Y1276350D02*
X15222896D01*
X15197505Y1301742D01*
Y1352525D01*
X15222896Y1377917D01*
X15273680D01*
X15299072Y1352525D01*
Y1327133D01*
X15197505D01*
X15349855Y1377917D02*
Y1276350D01*
Y1327133D01*
X15375247Y1352525D01*
X15400639Y1377917D01*
X15426031D01*
X11896572Y1047701D02*
X11998140D01*
X11947356D01*
Y895350D01*
X12074315D02*
X12125098D01*
X12150490Y920742D01*
Y971525D01*
X12125098Y996917D01*
X12074315D01*
X12048923Y971525D01*
Y920742D01*
X12074315Y895350D01*
X12201274Y844567D02*
Y996917D01*
X12277449D01*
X12302841Y971525D01*
Y920742D01*
X12277449Y895350D01*
X12201274D01*
X12505975Y1047701D02*
Y895350D01*
X12607542D01*
X12683718Y996917D02*
X12734501D01*
X12759893Y971525D01*
Y895350D01*
X12683718D01*
X12658326Y920742D01*
X12683718Y946133D01*
X12759893D01*
X12810677Y996917D02*
Y920742D01*
X12836069Y895350D01*
X12912244D01*
Y869958D01*
X12886852Y844567D01*
X12861459D01*
X12912244Y895350D02*
Y996917D01*
X13039203Y895350D02*
X12988419D01*
X12963026Y920742D01*
Y971525D01*
X12988419Y996917D01*
X13039203D01*
X13064595Y971525D01*
Y946133D01*
X12963026D01*
X13115378Y996917D02*
Y895350D01*
Y946133D01*
X13140770Y971525D01*
X13166162Y996917D01*
X13191553D01*
X13420081Y971525D02*
X13521648D01*
X13724780Y1047701D02*
Y895350D01*
X13800957D01*
X13826347Y920742D01*
Y946133D01*
X13800957Y971525D01*
X13724780D01*
X13800957D01*
X13826347Y996917D01*
Y1022309D01*
X13800957Y1047701D01*
X13724780D01*
X13902524Y895350D02*
X13953307D01*
X13978699Y920742D01*
Y971525D01*
X13953307Y996917D01*
X13902524D01*
X13877132Y971525D01*
Y920742D01*
X13902524Y895350D01*
X14054874Y1022309D02*
Y996917D01*
X14029482D01*
X14080266D01*
X14054874D01*
Y920742D01*
X14080266Y895350D01*
X14181833Y1022309D02*
Y996917D01*
X14156441D01*
X14207225D01*
X14181833D01*
Y920742D01*
X14207225Y895350D01*
X14308792D02*
X14359576D01*
X14384967Y920742D01*
Y971525D01*
X14359576Y996917D01*
X14308792D01*
X14283400Y971525D01*
Y920742D01*
X14308792Y895350D01*
X14435751D02*
Y996917D01*
X14461143D01*
X14486534Y971525D01*
Y895350D01*
Y971525D01*
X14511926Y996917D01*
X14537318Y971525D01*
Y895350D01*
X14740453Y1047701D02*
Y895350D01*
X14842020D01*
X14918195Y996917D02*
X14968977D01*
X14994370Y971525D01*
Y895350D01*
X14918195D01*
X14892802Y920742D01*
X14918195Y946133D01*
X14994370D01*
X15045154Y996917D02*
Y920742D01*
X15070546Y895350D01*
X15146721D01*
Y869958D01*
X15121329Y844567D01*
X15095937D01*
X15146721Y895350D02*
Y996917D01*
X15273680Y895350D02*
X15222896D01*
X15197505Y920742D01*
Y971525D01*
X15222896Y996917D01*
X15273680D01*
X15299072Y971525D01*
Y946133D01*
X15197505D01*
X15349855Y996917D02*
Y895350D01*
Y946133D01*
X15375247Y971525D01*
X15400639Y996917D01*
X15426031D01*
X11896572Y666701D02*
X11998140D01*
X11947356D01*
Y514350D01*
X12074315D02*
X12125098D01*
X12150490Y539742D01*
Y590525D01*
X12125098Y615917D01*
X12074315D01*
X12048923Y590525D01*
Y539742D01*
X12074315Y514350D01*
X12201274Y463567D02*
Y615917D01*
X12277449D01*
X12302841Y590525D01*
Y539742D01*
X12277449Y514350D01*
X12201274D01*
X12505975Y666701D02*
Y514350D01*
X12607542D01*
X12683718Y615917D02*
X12734501D01*
X12759893Y590525D01*
Y514350D01*
X12683718D01*
X12658326Y539742D01*
X12683718Y565133D01*
X12759893D01*
X12810677Y615917D02*
Y539742D01*
X12836069Y514350D01*
X12912244D01*
Y488958D01*
X12886852Y463567D01*
X12861459D01*
X12912244Y514350D02*
Y615917D01*
X13039203Y514350D02*
X12988419D01*
X12963026Y539742D01*
Y590525D01*
X12988419Y615917D01*
X13039203D01*
X13064595Y590525D01*
Y565133D01*
X12963026D01*
X13115378Y615917D02*
Y514350D01*
Y565133D01*
X13140770Y590525D01*
X13166162Y615917D01*
X13191553D01*
X13420081Y590525D02*
X13521648D01*
X13724780Y666701D02*
Y514350D01*
X13800957D01*
X13826347Y539742D01*
Y565133D01*
X13800957Y590525D01*
X13724780D01*
X13800957D01*
X13826347Y615917D01*
Y641309D01*
X13800957Y666701D01*
X13724780D01*
X13902524Y514350D02*
X13953307D01*
X13978699Y539742D01*
Y590525D01*
X13953307Y615917D01*
X13902524D01*
X13877132Y590525D01*
Y539742D01*
X13902524Y514350D01*
X14054874Y641309D02*
Y615917D01*
X14029482D01*
X14080266D01*
X14054874D01*
Y539742D01*
X14080266Y514350D01*
X14181833Y641309D02*
Y615917D01*
X14156441D01*
X14207225D01*
X14181833D01*
Y539742D01*
X14207225Y514350D01*
X14308792D02*
X14359576D01*
X14384967Y539742D01*
Y590525D01*
X14359576Y615917D01*
X14308792D01*
X14283400Y590525D01*
Y539742D01*
X14308792Y514350D01*
X14435751D02*
Y615917D01*
X14461143D01*
X14486534Y590525D01*
Y514350D01*
Y590525D01*
X14511926Y615917D01*
X14537318Y590525D01*
Y514350D01*
X14740453Y666701D02*
Y514350D01*
X14842020D01*
X14918195Y615917D02*
X14968977D01*
X14994370Y590525D01*
Y514350D01*
X14918195D01*
X14892802Y539742D01*
X14918195Y565133D01*
X14994370D01*
X15045154Y615917D02*
Y539742D01*
X15070546Y514350D01*
X15146721D01*
Y488958D01*
X15121329Y463567D01*
X15095937D01*
X15146721Y514350D02*
Y615917D01*
X15273680Y514350D02*
X15222896D01*
X15197505Y539742D01*
Y590525D01*
X15222896Y615917D01*
X15273680D01*
X15299072Y590525D01*
Y565133D01*
X15197505D01*
X15349855Y615917D02*
Y514350D01*
Y565133D01*
X15375247Y590525D01*
X15400639Y615917D01*
X15426031D01*
X10032715Y2038350D02*
Y2190701D01*
X10108891D01*
X10134283Y2165309D01*
Y2114525D01*
X10108891Y2089133D01*
X10032715D01*
X10083499D02*
X10134283Y2038350D01*
X10210458D02*
X10261241D01*
X10286633Y2063742D01*
Y2114525D01*
X10261241Y2139917D01*
X10210458D01*
X10185066Y2114525D01*
Y2063742D01*
X10210458Y2038350D01*
X10337417Y2139917D02*
Y2063742D01*
X10362809Y2038350D01*
X10438984D01*
Y2139917D01*
X10489767Y2038350D02*
Y2139917D01*
X10565943D01*
X10591335Y2114525D01*
Y2038350D01*
X10743685Y2190701D02*
Y2038350D01*
X10667510D01*
X10642118Y2063742D01*
Y2114525D01*
X10667510Y2139917D01*
X10743685D01*
X10032715Y1657350D02*
Y1809701D01*
X10108891D01*
X10134283Y1784309D01*
Y1733525D01*
X10108891Y1708133D01*
X10032715D01*
X10083499D02*
X10134283Y1657350D01*
X10210458D02*
X10261241D01*
X10286633Y1682742D01*
Y1733525D01*
X10261241Y1758917D01*
X10210458D01*
X10185066Y1733525D01*
Y1682742D01*
X10210458Y1657350D01*
X10337417Y1758917D02*
Y1682742D01*
X10362809Y1657350D01*
X10438984D01*
Y1758917D01*
X10489767Y1657350D02*
Y1758917D01*
X10565943D01*
X10591335Y1733525D01*
Y1657350D01*
X10743685Y1809701D02*
Y1657350D01*
X10667510D01*
X10642118Y1682742D01*
Y1733525D01*
X10667510Y1758917D01*
X10743685D01*
X10032715Y1276350D02*
Y1428701D01*
X10108891D01*
X10134283Y1403309D01*
Y1352525D01*
X10108891Y1327133D01*
X10032715D01*
X10083499D02*
X10134283Y1276350D01*
X10210458D02*
X10261241D01*
X10286633Y1301742D01*
Y1352525D01*
X10261241Y1377917D01*
X10210458D01*
X10185066Y1352525D01*
Y1301742D01*
X10210458Y1276350D01*
X10337417Y1377917D02*
Y1301742D01*
X10362809Y1276350D01*
X10438984D01*
Y1377917D01*
X10489767Y1276350D02*
Y1377917D01*
X10565943D01*
X10591335Y1352525D01*
Y1276350D01*
X10743685Y1428701D02*
Y1276350D01*
X10667510D01*
X10642118Y1301742D01*
Y1352525D01*
X10667510Y1377917D01*
X10743685D01*
X10032715Y895350D02*
Y1047701D01*
X10108891D01*
X10134283Y1022309D01*
Y971525D01*
X10108891Y946133D01*
X10032715D01*
X10083499D02*
X10134283Y895350D01*
X10210458D02*
X10261241D01*
X10286633Y920742D01*
Y971525D01*
X10261241Y996917D01*
X10210458D01*
X10185066Y971525D01*
Y920742D01*
X10210458Y895350D01*
X10337417Y996917D02*
Y920742D01*
X10362809Y895350D01*
X10438984D01*
Y996917D01*
X10489767Y895350D02*
Y996917D01*
X10565943D01*
X10591335Y971525D01*
Y895350D01*
X10743685Y1047701D02*
Y895350D01*
X10667510D01*
X10642118Y920742D01*
Y971525D01*
X10667510Y996917D01*
X10743685D01*
X10032715Y514350D02*
Y666701D01*
X10108891D01*
X10134283Y641309D01*
Y590525D01*
X10108891Y565133D01*
X10032715D01*
X10083499D02*
X10134283Y514350D01*
X10210458D02*
X10261241D01*
X10286633Y539742D01*
Y590525D01*
X10261241Y615917D01*
X10210458D01*
X10185066Y590525D01*
Y539742D01*
X10210458Y514350D01*
X10337417Y615917D02*
Y539742D01*
X10362809Y514350D01*
X10438984D01*
Y615917D01*
X10489767Y514350D02*
Y615917D01*
X10565943D01*
X10591335Y590525D01*
Y514350D01*
X10743685Y666701D02*
Y514350D01*
X10667510D01*
X10642118Y539742D01*
Y590525D01*
X10667510Y615917D01*
X10743685D01*
X8747791Y2038350D02*
Y2190701D01*
X8823966D01*
X8849358Y2165309D01*
Y2114525D01*
X8823966Y2089133D01*
X8747791D01*
X8900141Y2190701D02*
X9001709D01*
X8950925D01*
Y2038350D01*
X9052492Y2190701D02*
Y2038350D01*
Y2114525D01*
X9154059D01*
Y2190701D01*
Y2038350D01*
X8747791Y1657350D02*
Y1809701D01*
X8823966D01*
X8849358Y1784309D01*
Y1733525D01*
X8823966Y1708133D01*
X8747791D01*
X8900141Y1809701D02*
X9001709D01*
X8950925D01*
Y1657350D01*
X9052492Y1809701D02*
Y1657350D01*
Y1733525D01*
X9154059D01*
Y1809701D01*
Y1657350D01*
X8747791Y1276350D02*
Y1428701D01*
X8823966D01*
X8849358Y1403309D01*
Y1352525D01*
X8823966Y1327133D01*
X8747791D01*
X8900141Y1428701D02*
X9001709D01*
X8950925D01*
Y1276350D01*
X9052492Y1428701D02*
Y1276350D01*
Y1352525D01*
X9154059D01*
Y1428701D01*
Y1276350D01*
X8747791Y895350D02*
Y1047701D01*
X8823966D01*
X8849358Y1022309D01*
Y971525D01*
X8823966Y946133D01*
X8747791D01*
X8900141Y1047701D02*
X9001709D01*
X8950925D01*
Y895350D01*
X9052492Y1047701D02*
Y895350D01*
Y971525D01*
X9154059D01*
Y1047701D01*
Y895350D01*
X8747791Y514350D02*
Y666701D01*
X8849358Y514350D01*
Y666701D01*
X8900141Y514350D02*
Y666701D01*
X8976317D01*
X9001709Y641309D01*
Y590525D01*
X8976317Y565133D01*
X8900141D01*
X9052492Y666701D02*
X9154059D01*
X9103276D01*
Y514350D01*
X9204843Y666701D02*
Y514350D01*
Y590525D01*
X9306410D01*
Y666701D01*
Y514350D01*
X5903821Y2038350D02*
X5954605D01*
X5929213D01*
Y2190701D01*
X5903821Y2165309D01*
X6030780Y2038350D02*
Y2063742D01*
X6056172D01*
Y2038350D01*
X6030780D01*
X6157739Y2165309D02*
X6183131Y2190701D01*
X6233914D01*
X6259306Y2165309D01*
Y2063742D01*
X6233914Y2038350D01*
X6183131D01*
X6157739Y2063742D01*
Y2165309D01*
X6310089Y2038350D02*
X6360873D01*
X6335481D01*
Y2190701D01*
X6310089Y2165309D01*
X6538616Y2190701D02*
X6487832Y2165309D01*
X6437048Y2114525D01*
Y2063742D01*
X6462440Y2038350D01*
X6513224D01*
X6538616Y2063742D01*
Y2089133D01*
X6513224Y2114525D01*
X6437048D01*
X6589399Y2038350D02*
Y2139917D01*
X6614791D01*
X6640183Y2114525D01*
Y2038350D01*
Y2114525D01*
X6665574Y2139917D01*
X6690966Y2114525D01*
Y2038350D01*
X6741750D02*
Y2139917D01*
X6767142D01*
X6792533Y2114525D01*
Y2038350D01*
Y2114525D01*
X6817925Y2139917D01*
X6843317Y2114525D01*
Y2038350D01*
X7097235D02*
X7046451Y2089133D01*
Y2139917D01*
X7097235Y2190701D01*
X7249585Y2038350D02*
Y2190701D01*
X7173410Y2114525D01*
X7274977D01*
X7325761Y2165309D02*
X7351153Y2190701D01*
X7401936D01*
X7427328Y2165309D01*
Y2063742D01*
X7401936Y2038350D01*
X7351153D01*
X7325761Y2063742D01*
Y2165309D01*
X7478112Y2038350D02*
Y2063742D01*
X7503503D01*
Y2038350D01*
X7478112D01*
X7605070Y2165309D02*
X7630462Y2190701D01*
X7681246D01*
X7706638Y2165309D01*
Y2063742D01*
X7681246Y2038350D01*
X7630462D01*
X7605070Y2063742D01*
Y2165309D01*
X7757421D02*
X7782813Y2190701D01*
X7833596D01*
X7858988Y2165309D01*
Y2063742D01*
X7833596Y2038350D01*
X7782813D01*
X7757421Y2063742D01*
Y2165309D01*
X7909772Y2038350D02*
Y2139917D01*
X7935164D01*
X7960555Y2114525D01*
Y2038350D01*
Y2114525D01*
X7985947Y2139917D01*
X8011339Y2114525D01*
Y2038350D01*
X8062123D02*
X8112906D01*
X8087514D01*
Y2139917D01*
X8062123D01*
X8189081Y2038350D02*
X8239865D01*
X8214473D01*
Y2190701D01*
X8189081D01*
X8316040Y2038350D02*
X8366824Y2089133D01*
Y2139917D01*
X8316040Y2190701D01*
X5903821Y1657350D02*
X5954605D01*
X5929213D01*
Y1809701D01*
X5903821Y1784309D01*
X6030780Y1657350D02*
Y1682742D01*
X6056172D01*
Y1657350D01*
X6030780D01*
X6157739Y1784309D02*
X6183131Y1809701D01*
X6233914D01*
X6259306Y1784309D01*
Y1682742D01*
X6233914Y1657350D01*
X6183131D01*
X6157739Y1682742D01*
Y1784309D01*
X6386265Y1657350D02*
Y1809701D01*
X6310089Y1733525D01*
X6411657D01*
X6462440Y1784309D02*
X6487832Y1809701D01*
X6538616D01*
X6564007Y1784309D01*
Y1682742D01*
X6538616Y1657350D01*
X6487832D01*
X6462440Y1682742D01*
Y1784309D01*
X6614791Y1657350D02*
Y1758917D01*
X6640183D01*
X6665574Y1733525D01*
Y1657350D01*
Y1733525D01*
X6690966Y1758917D01*
X6716358Y1733525D01*
Y1657350D01*
X6767142D02*
Y1758917D01*
X6792534D01*
X6817925Y1733525D01*
Y1657350D01*
Y1733525D01*
X6843317Y1758917D01*
X6868709Y1733525D01*
Y1657350D01*
X7122627D02*
X7071843Y1708133D01*
Y1758917D01*
X7122627Y1809701D01*
X7274977Y1657350D02*
Y1809701D01*
X7198802Y1733525D01*
X7300369D01*
X7351153Y1784309D02*
X7376545Y1809701D01*
X7427328D01*
X7452720Y1784309D01*
Y1682742D01*
X7427328Y1657350D01*
X7376545D01*
X7351153Y1682742D01*
Y1784309D01*
X7503503Y1657350D02*
Y1682742D01*
X7528895D01*
Y1657350D01*
X7503503D01*
X7630462Y1682742D02*
X7655854Y1657350D01*
X7706638D01*
X7732029Y1682742D01*
Y1784309D01*
X7706638Y1809701D01*
X7655854D01*
X7630462Y1784309D01*
Y1758917D01*
X7655854Y1733525D01*
X7732029D01*
X7884380Y1809701D02*
X7782813D01*
Y1733525D01*
X7833596Y1758917D01*
X7858988D01*
X7884380Y1733525D01*
Y1682742D01*
X7858988Y1657350D01*
X7808205D01*
X7782813Y1682742D01*
X7935164Y1657350D02*
Y1758917D01*
X7960556D01*
X7985947Y1733525D01*
Y1657350D01*
Y1733525D01*
X8011339Y1758917D01*
X8036731Y1733525D01*
Y1657350D01*
X8087514D02*
X8138298D01*
X8112906D01*
Y1758917D01*
X8087514D01*
X8214473Y1657350D02*
X8265257D01*
X8239865D01*
Y1809701D01*
X8214473D01*
X8341432Y1657350D02*
X8392216Y1708133D01*
Y1758917D01*
X8341432Y1809701D01*
X5903821Y1403309D02*
X5929213Y1428701D01*
X5979996D01*
X6005388Y1403309D01*
Y1377917D01*
X5979996Y1352525D01*
X5954605D01*
X5979996D01*
X6005388Y1327133D01*
Y1301742D01*
X5979996Y1276350D01*
X5929213D01*
X5903821Y1301742D01*
X6056172Y1276350D02*
Y1301742D01*
X6081564D01*
Y1276350D01*
X6056172D01*
X6183131Y1403309D02*
X6208523Y1428701D01*
X6259306D01*
X6284698Y1403309D01*
Y1301742D01*
X6259306Y1276350D01*
X6208523D01*
X6183131Y1301742D01*
Y1403309D01*
X6335481D02*
X6360873Y1428701D01*
X6411657D01*
X6437049Y1403309D01*
Y1301742D01*
X6411657Y1276350D01*
X6360873D01*
X6335481Y1301742D01*
Y1403309D01*
X6487832D02*
X6513224Y1428701D01*
X6564007D01*
X6589399Y1403309D01*
Y1301742D01*
X6564007Y1276350D01*
X6513224D01*
X6487832Y1301742D01*
Y1403309D01*
X6640183Y1276350D02*
Y1377917D01*
X6665575D01*
X6690966Y1352525D01*
Y1276350D01*
Y1352525D01*
X6716358Y1377917D01*
X6741750Y1352525D01*
Y1276350D01*
X6792534D02*
Y1377917D01*
X6817925D01*
X6843317Y1352525D01*
Y1276350D01*
Y1352525D01*
X6868709Y1377917D01*
X6894101Y1352525D01*
Y1276350D01*
X7148018D02*
X7097235Y1327133D01*
Y1377917D01*
X7148018Y1428701D01*
X7224194Y1276350D02*
X7274977D01*
X7249586D01*
Y1428701D01*
X7224194Y1403309D01*
X7351153Y1276350D02*
X7401936D01*
X7376545D01*
Y1428701D01*
X7351153Y1403309D01*
X7478112D02*
X7503503Y1428701D01*
X7554287D01*
X7579679Y1403309D01*
Y1377917D01*
X7554287Y1352525D01*
X7579679Y1327133D01*
Y1301742D01*
X7554287Y1276350D01*
X7503503D01*
X7478112Y1301742D01*
Y1327133D01*
X7503503Y1352525D01*
X7478112Y1377917D01*
Y1403309D01*
X7503503Y1352525D02*
X7554287D01*
X7630462Y1276350D02*
Y1301742D01*
X7655854D01*
Y1276350D01*
X7630462D01*
X7757421D02*
X7808205D01*
X7782813D01*
Y1428701D01*
X7757421Y1403309D01*
X7884380Y1276350D02*
X7935163D01*
X7909772D01*
Y1428701D01*
X7884380Y1403309D01*
X8011339Y1276350D02*
Y1377917D01*
X8036731D01*
X8062122Y1352525D01*
Y1276350D01*
Y1352525D01*
X8087514Y1377917D01*
X8112906Y1352525D01*
Y1276350D01*
X8163690D02*
X8214473D01*
X8189081D01*
Y1377917D01*
X8163690D01*
X8290648Y1276350D02*
X8341432D01*
X8316040D01*
Y1428701D01*
X8290648D01*
X8417607Y1276350D02*
X8468391Y1327133D01*
Y1377917D01*
X8417607Y1428701D01*
X5903821Y1022309D02*
X5929213Y1047701D01*
X5979996D01*
X6005388Y1022309D01*
Y920742D01*
X5979996Y895350D01*
X5929213D01*
X5903821Y920742D01*
Y1022309D01*
X6056172Y895350D02*
Y920742D01*
X6081564D01*
Y895350D01*
X6056172D01*
X6183131Y1022309D02*
X6208523Y1047701D01*
X6259306D01*
X6284698Y1022309D01*
Y996917D01*
X6259306Y971525D01*
X6233914D01*
X6259306D01*
X6284698Y946133D01*
Y920742D01*
X6259306Y895350D01*
X6208523D01*
X6183131Y920742D01*
X6335481Y1022309D02*
X6360873Y1047701D01*
X6411657D01*
X6437049Y1022309D01*
Y920742D01*
X6411657Y895350D01*
X6360873D01*
X6335481Y920742D01*
Y1022309D01*
X6487832D02*
X6513224Y1047701D01*
X6564007D01*
X6589399Y1022309D01*
Y920742D01*
X6564007Y895350D01*
X6513224D01*
X6487832Y920742D01*
Y1022309D01*
X6640183Y895350D02*
Y996917D01*
X6665575D01*
X6690966Y971525D01*
Y895350D01*
Y971525D01*
X6716358Y996917D01*
X6741750Y971525D01*
Y895350D01*
X6792534D02*
Y996917D01*
X6817925D01*
X6843317Y971525D01*
Y895350D01*
Y971525D01*
X6868709Y996917D01*
X6894101Y971525D01*
Y895350D01*
X7148018D02*
X7097235Y946133D01*
Y996917D01*
X7148018Y1047701D01*
X7224194Y895350D02*
X7274977D01*
X7249586D01*
Y1047701D01*
X7224194Y1022309D01*
X7351153Y895350D02*
X7401936D01*
X7376545D01*
Y1047701D01*
X7351153Y1022309D01*
X7478112Y895350D02*
Y920742D01*
X7503503D01*
Y895350D01*
X7478112D01*
X7605070Y1022309D02*
X7630462Y1047701D01*
X7681246D01*
X7706638Y1022309D01*
Y996917D01*
X7681246Y971525D01*
X7706638Y946133D01*
Y920742D01*
X7681246Y895350D01*
X7630462D01*
X7605070Y920742D01*
Y946133D01*
X7630462Y971525D01*
X7605070Y996917D01*
Y1022309D01*
X7630462Y971525D02*
X7681246D01*
X7757421Y895350D02*
X7808205D01*
X7782813D01*
Y1047701D01*
X7757421Y1022309D01*
X7884380Y895350D02*
Y996917D01*
X7909772D01*
X7935163Y971525D01*
Y895350D01*
Y971525D01*
X7960555Y996917D01*
X7985947Y971525D01*
Y895350D01*
X8036731D02*
X8087514D01*
X8062123D01*
Y996917D01*
X8036731D01*
X8163690Y895350D02*
X8214473D01*
X8189081D01*
Y1047701D01*
X8163690D01*
X8290648Y895350D02*
X8341432Y946133D01*
Y996917D01*
X8290648Y1047701D01*
X5903821Y641309D02*
X5929213Y666701D01*
X5979996D01*
X6005388Y641309D01*
Y539742D01*
X5979996Y514350D01*
X5929213D01*
X5903821Y539742D01*
Y641309D01*
X6056172Y514350D02*
Y539742D01*
X6081564D01*
Y514350D01*
X6056172D01*
X6183131Y641309D02*
X6208523Y666701D01*
X6259306D01*
X6284698Y641309D01*
Y615917D01*
X6259306Y590525D01*
X6284698Y565133D01*
Y539742D01*
X6259306Y514350D01*
X6208523D01*
X6183131Y539742D01*
Y565133D01*
X6208523Y590525D01*
X6183131Y615917D01*
Y641309D01*
X6208523Y590525D02*
X6259306D01*
X6335481Y641309D02*
X6360873Y666701D01*
X6411657D01*
X6437049Y641309D01*
Y539742D01*
X6411657Y514350D01*
X6360873D01*
X6335481Y539742D01*
Y641309D01*
X6487832D02*
X6513224Y666701D01*
X6564007D01*
X6589399Y641309D01*
Y539742D01*
X6564007Y514350D01*
X6513224D01*
X6487832Y539742D01*
Y641309D01*
X6640183Y514350D02*
Y615917D01*
X6665575D01*
X6690966Y590525D01*
Y514350D01*
Y590525D01*
X6716358Y615917D01*
X6741750Y590525D01*
Y514350D01*
X6792534D02*
Y615917D01*
X6817925D01*
X6843317Y590525D01*
Y514350D01*
Y590525D01*
X6868709Y615917D01*
X6894101Y590525D01*
Y514350D01*
X7148018D02*
X7097235Y565133D01*
Y615917D01*
X7148018Y666701D01*
X7224194Y641309D02*
X7249586Y666701D01*
X7300369D01*
X7325761Y641309D01*
Y615917D01*
X7300369Y590525D01*
X7274977D01*
X7300369D01*
X7325761Y565133D01*
Y539742D01*
X7300369Y514350D01*
X7249586D01*
X7224194Y539742D01*
X7376545Y514350D02*
X7427328D01*
X7401936D01*
Y666701D01*
X7376545Y641309D01*
X7503503Y514350D02*
Y539742D01*
X7528895D01*
Y514350D01*
X7503503D01*
X7732029Y666701D02*
X7630462D01*
Y590525D01*
X7681246Y615917D01*
X7706638D01*
X7732029Y590525D01*
Y539742D01*
X7706638Y514350D01*
X7655854D01*
X7630462Y539742D01*
X7782813Y641309D02*
X7808205Y666701D01*
X7858988D01*
X7884380Y641309D01*
Y539742D01*
X7858988Y514350D01*
X7808205D01*
X7782813Y539742D01*
Y641309D01*
X7935164Y514350D02*
Y615917D01*
X7960556D01*
X7985947Y590525D01*
Y514350D01*
Y590525D01*
X8011339Y615917D01*
X8036731Y590525D01*
Y514350D01*
X8087514D02*
X8138298D01*
X8112906D01*
Y615917D01*
X8087514D01*
X8214473Y514350D02*
X8265257D01*
X8239865D01*
Y666701D01*
X8214473D01*
X8341432Y514350D02*
X8392216Y565133D01*
Y615917D01*
X8341432Y666701D01*
X4532574Y260309D02*
X4557966Y285701D01*
X4608750D01*
X4634142Y260309D01*
Y234917D01*
X4608750Y209525D01*
X4583358D01*
X4608750D01*
X4634142Y184133D01*
Y158742D01*
X4608750Y133350D01*
X4557966D01*
X4532574Y158742D01*
X4786492Y285701D02*
X4684925D01*
Y209525D01*
X4735709Y234917D01*
X4761100D01*
X4786492Y209525D01*
Y158742D01*
X4761100Y133350D01*
X4710317D01*
X4684925Y158742D01*
X4989627Y285701D02*
X5091194D01*
X5040410D01*
Y133350D01*
X5167369D02*
X5218153D01*
X5243545Y158742D01*
Y209525D01*
X5218153Y234917D01*
X5167369D01*
X5141977Y209525D01*
Y158742D01*
X5167369Y133350D01*
X5319720Y260309D02*
Y234917D01*
X5294328D01*
X5345111D01*
X5319720D01*
Y158742D01*
X5345111Y133350D01*
X5446679Y234917D02*
X5497462D01*
X5522854Y209525D01*
Y133350D01*
X5446679D01*
X5421287Y158742D01*
X5446679Y184133D01*
X5522854D01*
X5573638Y133350D02*
X5624421D01*
X5599029D01*
Y285701D01*
X5573638D01*
X4634142Y2038350D02*
X4532574D01*
X4634142Y2139917D01*
Y2165309D01*
X4608750Y2190701D01*
X4557966D01*
X4532574Y2165309D01*
Y1784309D02*
X4557966Y1809701D01*
X4608750D01*
X4634142Y1784309D01*
Y1758917D01*
X4608750Y1733525D01*
X4583358D01*
X4608750D01*
X4634142Y1708133D01*
Y1682742D01*
X4608750Y1657350D01*
X4557966D01*
X4532574Y1682742D01*
X4608750Y1276350D02*
Y1428701D01*
X4532574Y1352525D01*
X4634142D01*
Y1047701D02*
X4583358Y1022309D01*
X4532574Y971525D01*
Y920742D01*
X4557966Y895350D01*
X4608750D01*
X4634142Y920742D01*
Y946133D01*
X4608750Y971525D01*
X4532574D01*
X4634142Y514350D02*
X4532574D01*
X4634142Y615917D01*
Y641309D01*
X4608750Y666701D01*
X4557966D01*
X4532574Y641309D01*
X4684925D02*
X4710317Y666701D01*
X4761100D01*
X4786492Y641309D01*
Y539742D01*
X4761100Y514350D01*
X4710317D01*
X4684925Y539742D01*
Y641309D01*
D69*
X-482667Y1650000D02*
G03*
X-482667Y1650000I-42333J0D01*
G01*
X42333Y2225000D02*
G03*
X42333Y2225000I-42333J0D01*
G01*
X402333Y2240000D02*
G03*
X402333Y2240000I-42333J0D01*
G01*
X-657667Y2030000D02*
G03*
X-657667Y2030000I-42333J0D01*
G01*
X-477667Y1800000D02*
G03*
X-477667Y1800000I-42333J0D01*
G01*
X-657667Y1000000D02*
G03*
X-657667Y1000000I-42333J0D01*
G01*
X-1621166Y278833D02*
X-1600000Y257667D01*
X-1642333Y278833D02*
X-1621166D01*
X-1642333D02*
X-1621166Y300000D01*
X-1642333Y321166D02*
X-1621166Y300000D01*
X-1642333Y321166D02*
X-1621166D01*
X-1600000Y342333D01*
X-1578833Y321166D01*
X-1557666D01*
X-1578833Y300000D02*
X-1557666Y321166D01*
X-1578833Y300000D02*
X-1557666Y278833D01*
X-1578833D02*
X-1557666D01*
X-1600000Y257667D02*
X-1578833Y278833D01*
X-1092333Y497667D02*
X-1050000Y518834D01*
X-1007667Y497667D01*
X-1028833Y540000D02*
X-1007667Y497667D01*
X-1028833Y540000D02*
X-1007667Y582333D01*
X-1050000Y561167D02*
X-1007667Y582333D01*
X-1092333D02*
X-1050000Y561167D01*
X-1092333Y582333D02*
X-1071167Y540000D01*
X-1092333Y497667D02*
X-1071167Y540000D01*
X-1092333Y377667D02*
X-1050000Y398834D01*
X-1007667Y377667D01*
X-1028833Y420000D02*
X-1007667Y377667D01*
X-1028833Y420000D02*
X-1007667Y462333D01*
X-1050000Y441167D02*
X-1007667Y462333D01*
X-1092333D02*
X-1050000Y441167D01*
X-1092333Y462333D02*
X-1071167Y420000D01*
X-1092333Y377667D02*
X-1071167Y420000D01*
X-1092333Y257667D02*
X-1050000Y278834D01*
X-1007667Y257667D01*
X-1028833Y300000D02*
X-1007667Y257667D01*
X-1028833Y300000D02*
X-1007667Y342333D01*
X-1050000Y321167D02*
X-1007667Y342333D01*
X-1092333D02*
X-1050000Y321167D01*
X-1092333Y342333D02*
X-1071167Y300000D01*
X-1092333Y257667D02*
X-1071167Y300000D01*
X-1092333Y137667D02*
X-1050000Y158834D01*
X-1007667Y137667D01*
X-1028833Y180000D02*
X-1007667Y137667D01*
X-1028833Y180000D02*
X-1007667Y222333D01*
X-1050000Y201167D02*
X-1007667Y222333D01*
X-1092333D02*
X-1050000Y201167D01*
X-1092333Y222333D02*
X-1071167Y180000D01*
X-1092333Y137667D02*
X-1071167Y180000D01*
X-1092333Y17667D02*
X-1050000Y38834D01*
X-1007667Y17667D01*
X-1028833Y60000D02*
X-1007667Y17667D01*
X-1028833Y60000D02*
X-1007667Y102333D01*
X-1050000Y81167D02*
X-1007667Y102333D01*
X-1092333D02*
X-1050000Y81167D01*
X-1092333Y102333D02*
X-1071167Y60000D01*
X-1092333Y17667D02*
X-1071167Y60000D01*
X1007667Y17667D02*
X1050000Y38834D01*
X1092333Y17667D01*
X1071167Y60000D02*
X1092333Y17667D01*
X1071167Y60000D02*
X1092333Y102333D01*
X1050000Y81167D02*
X1092333Y102333D01*
X1007667D02*
X1050000Y81167D01*
X1007667Y102333D02*
X1028833Y60000D01*
X1007667Y17667D02*
X1028833Y60000D01*
X1007667Y137667D02*
X1050000Y158834D01*
X1092333Y137667D01*
X1071167Y180000D02*
X1092333Y137667D01*
X1071167Y180000D02*
X1092333Y222333D01*
X1050000Y201167D02*
X1092333Y222333D01*
X1007667D02*
X1050000Y201167D01*
X1007667Y222333D02*
X1028833Y180000D01*
X1007667Y137667D02*
X1028833Y180000D01*
X1007667Y257667D02*
X1050000Y278834D01*
X1092333Y257667D01*
X1071167Y300000D02*
X1092333Y257667D01*
X1071167Y300000D02*
X1092333Y342333D01*
X1050000Y321167D02*
X1092333Y342333D01*
X1007667D02*
X1050000Y321167D01*
X1007667Y342333D02*
X1028833Y300000D01*
X1007667Y257667D02*
X1028833Y300000D01*
X1007667Y377667D02*
X1050000Y398834D01*
X1092333Y377667D01*
X1071167Y420000D02*
X1092333Y377667D01*
X1071167Y420000D02*
X1092333Y462333D01*
X1050000Y441167D02*
X1092333Y462333D01*
X1007667D02*
X1050000Y441167D01*
X1007667Y462333D02*
X1028833Y420000D01*
X1007667Y377667D02*
X1028833Y420000D01*
X1007667Y497667D02*
X1050000Y518834D01*
X1092333Y497667D01*
X1071167Y540000D02*
X1092333Y497667D01*
X1071167Y540000D02*
X1092333Y582333D01*
X1050000Y561167D02*
X1092333Y582333D01*
X1007667D02*
X1050000Y561167D01*
X1007667Y582333D02*
X1028833Y540000D01*
X1007667Y497667D02*
X1028833Y540000D01*
X1578832Y278835D02*
X1599999Y257668D01*
X1557666Y278835D02*
X1578832D01*
X1557666D02*
X1578832Y300001D01*
X1557666Y321168D02*
X1578832Y300001D01*
X1557666Y321168D02*
X1578832D01*
X1599999Y342334D01*
X1621165Y321168D01*
X1642332D01*
X1621165Y300001D02*
X1642332Y321168D01*
X1621165Y300001D02*
X1642332Y278835D01*
X1621165D02*
X1642332D01*
X1599999Y257668D02*
X1621165Y278835D01*
X-1621124Y2678833D02*
X-1599957Y2657667D01*
X-1642291Y2678833D02*
X-1621124D01*
X-1642291D02*
X-1621124Y2700000D01*
X-1642291Y2721166D02*
X-1621124Y2700000D01*
X-1642291Y2721166D02*
X-1621124D01*
X-1599957Y2742333D01*
X-1578791Y2721166D01*
X-1557624D01*
X-1578791Y2700000D02*
X-1557624Y2721166D01*
X-1578791Y2700000D02*
X-1557624Y2678833D01*
X-1578791D02*
X-1557624D01*
X-1599957Y2657667D02*
X-1578791Y2678833D01*
X-1092291Y2417667D02*
X-1049958Y2438833D01*
X-1007625Y2417667D01*
X-1028791Y2460000D02*
X-1007625Y2417667D01*
X-1028791Y2460000D02*
X-1007625Y2502333D01*
X-1049958Y2481166D02*
X-1007625Y2502333D01*
X-1092291D02*
X-1049958Y2481166D01*
X-1092291Y2502333D02*
X-1071124Y2460000D01*
X-1092291Y2417667D02*
X-1071124Y2460000D01*
X-1092291Y2537667D02*
X-1049958Y2558833D01*
X-1007625Y2537667D01*
X-1028791Y2580000D02*
X-1007625Y2537667D01*
X-1028791Y2580000D02*
X-1007625Y2622333D01*
X-1049958Y2601167D02*
X-1007625Y2622333D01*
X-1092291D02*
X-1049958Y2601167D01*
X-1092291Y2622333D02*
X-1071124Y2580000D01*
X-1092291Y2537667D02*
X-1071124Y2580000D01*
X-1092291Y2657667D02*
X-1049958Y2678833D01*
X-1007625Y2657667D01*
X-1028791Y2700000D02*
X-1007625Y2657667D01*
X-1028791Y2700000D02*
X-1007625Y2742333D01*
X-1049958Y2721167D02*
X-1007625Y2742333D01*
X-1092291D02*
X-1049958Y2721167D01*
X-1092291Y2742333D02*
X-1071124Y2700000D01*
X-1092291Y2657667D02*
X-1071124Y2700000D01*
X-1092291Y2777667D02*
X-1049958Y2798833D01*
X-1007625Y2777667D01*
X-1028791Y2820000D02*
X-1007625Y2777667D01*
X-1028791Y2820000D02*
X-1007625Y2862333D01*
X-1049958Y2841167D02*
X-1007625Y2862333D01*
X-1092291D02*
X-1049958Y2841167D01*
X-1092291Y2862333D02*
X-1071124Y2820000D01*
X-1092291Y2777667D02*
X-1071124Y2820000D01*
X-1092291Y2897667D02*
X-1049958Y2918833D01*
X-1007625Y2897667D01*
X-1028791Y2940000D02*
X-1007625Y2897667D01*
X-1028791Y2940000D02*
X-1007625Y2982333D01*
X-1049958Y2961167D02*
X-1007625Y2982333D01*
X-1092291D02*
X-1049958Y2961167D01*
X-1092291Y2982333D02*
X-1071124Y2940000D01*
X-1092291Y2897667D02*
X-1071124Y2940000D01*
X1578874Y2678832D02*
X1600040Y2657665D01*
X1557707Y2678832D02*
X1578874D01*
X1557707D02*
X1578874Y2699998D01*
X1557707Y2721165D02*
X1578874Y2699998D01*
X1557707Y2721165D02*
X1578874D01*
X1600040Y2742332D01*
X1621207Y2721165D01*
X1642374D01*
X1621207Y2699998D02*
X1642374Y2721165D01*
X1621207Y2699998D02*
X1642374Y2678832D01*
X1621207D02*
X1642374D01*
X1600040Y2657665D02*
X1621207Y2678832D01*
X1007708Y2417664D02*
X1050042Y2438831D01*
X1092375Y2417664D01*
X1071208Y2459997D02*
X1092375Y2417664D01*
X1071208Y2459997D02*
X1092375Y2502331D01*
X1050042Y2481164D02*
X1092375Y2502331D01*
X1007708D02*
X1050042Y2481164D01*
X1007708Y2502331D02*
X1028875Y2459997D01*
X1007708Y2417664D02*
X1028875Y2459997D01*
X1007708Y2537664D02*
X1050042Y2558831D01*
X1092375Y2537664D01*
X1071208Y2579997D02*
X1092375Y2537664D01*
X1071208Y2579997D02*
X1092375Y2622331D01*
X1050042Y2601164D02*
X1092375Y2622331D01*
X1007708D02*
X1050042Y2601164D01*
X1007708Y2622331D02*
X1028875Y2579997D01*
X1007708Y2537664D02*
X1028875Y2579997D01*
X1007708Y2657664D02*
X1050042Y2678831D01*
X1092375Y2657664D01*
X1071208Y2699997D02*
X1092375Y2657664D01*
X1071208Y2699997D02*
X1092375Y2742331D01*
X1050042Y2721164D02*
X1092375Y2742331D01*
X1007708D02*
X1050042Y2721164D01*
X1007708Y2742331D02*
X1028875Y2699997D01*
X1007708Y2657664D02*
X1028875Y2699997D01*
X1007708Y2777664D02*
X1050042Y2798831D01*
X1092375Y2777664D01*
X1071208Y2819997D02*
X1092375Y2777664D01*
X1071208Y2819997D02*
X1092375Y2862331D01*
X1050042Y2841164D02*
X1092375Y2862331D01*
X1007708D02*
X1050042Y2841164D01*
X1007708Y2862331D02*
X1028875Y2819997D01*
X1007708Y2777664D02*
X1028875Y2819997D01*
X1007708Y2897664D02*
X1050042Y2918831D01*
X1092375Y2897664D01*
X1071208Y2939997D02*
X1092375Y2897664D01*
X1071208Y2939997D02*
X1092375Y2982331D01*
X1050042Y2961164D02*
X1092375Y2982331D01*
X1007708D02*
X1050042Y2961164D01*
X1007708Y2982331D02*
X1028875Y2939997D01*
X1007708Y2897664D02*
X1028875Y2939997D01*
X-42333Y1330667D02*
X42333D01*
Y1415333D01*
X-42333D02*
X42333D01*
X-42333Y1330667D02*
Y1415333D01*
Y1584667D02*
X42333D01*
Y1669333D01*
X-42333D02*
X42333D01*
X-42333Y1584667D02*
Y1669333D01*
X254000Y557667D02*
X296333Y642333D01*
X211667D02*
X296333D01*
X211667D02*
X254000Y557667D01*
X0D02*
X42333Y642333D01*
X-42333D02*
X42333D01*
X-42333D02*
X0Y557667D01*
X-254000D02*
X-211667Y642333D01*
X-296333D02*
X-211667D01*
X-296333D02*
X-254000Y557667D01*
D70*
X28183444Y2602171D02*
Y2419350D01*
Y2510761D01*
X28305325D01*
Y2602171D01*
Y2419350D01*
X28396735D02*
X28457675D01*
X28488147Y2449820D01*
Y2510761D01*
X28457675Y2541231D01*
X28396735D01*
X28366266Y2510761D01*
Y2449820D01*
X28396735Y2419350D01*
X28549088D02*
X28610025D01*
X28579556D01*
Y2602171D01*
X28549088D01*
X28792847Y2419350D02*
X28731906D01*
X28701437Y2449820D01*
Y2510761D01*
X28731906Y2541231D01*
X28792847D01*
X28823318Y2510761D01*
Y2480290D01*
X28701437D01*
X29067078Y2602171D02*
X29188959D01*
X29128018D01*
Y2419350D01*
X29280368D02*
X29341309D01*
X29371780Y2449820D01*
Y2510761D01*
X29341309Y2541231D01*
X29280368D01*
X29249899Y2510761D01*
Y2449820D01*
X29280368Y2419350D01*
X29432721D02*
X29493661D01*
X29463190D01*
Y2602171D01*
X29432721D01*
X29676480Y2419350D02*
X29615540D01*
X29585071Y2449820D01*
Y2510761D01*
X29615540Y2541231D01*
X29676480D01*
X29706952Y2510761D01*
Y2480290D01*
X29585071D01*
X29767892Y2541231D02*
Y2419350D01*
Y2480290D01*
X29798361Y2510761D01*
X29828833Y2541231D01*
X29859302D01*
X29981183D02*
X30042123D01*
X30072592Y2510761D01*
Y2419350D01*
X29981183D01*
X29950711Y2449820D01*
X29981183Y2480290D01*
X30072592D01*
X30133533Y2419350D02*
Y2541231D01*
X30224945D01*
X30255414Y2510761D01*
Y2419350D01*
X30438235Y2541231D02*
X30346823D01*
X30316354Y2510761D01*
Y2449820D01*
X30346823Y2419350D01*
X30438235D01*
X30590585D02*
X30529645D01*
X30499176Y2449820D01*
Y2510761D01*
X30529645Y2541231D01*
X30590585D01*
X30621054Y2510761D01*
Y2480290D01*
X30499176D01*
X30925757Y2419350D02*
X30864816Y2480290D01*
Y2541231D01*
X30925757Y2602171D01*
X31017166Y2510761D02*
X31139047D01*
X31199988Y2419350D02*
X31260928Y2480290D01*
Y2541231D01*
X31199988Y2602171D01*
X24796080D02*
Y2419350D01*
Y2510761D01*
X24917961D01*
Y2602171D01*
Y2419350D01*
X25009370D02*
X25070312D01*
X25100781Y2449820D01*
Y2510761D01*
X25070312Y2541231D01*
X25009370D01*
X24978902Y2510761D01*
Y2449820D01*
X25009370Y2419350D01*
X25161722D02*
X25222662D01*
X25192192D01*
Y2602171D01*
X25161722D01*
X25405482Y2419350D02*
X25344543D01*
X25314073Y2449820D01*
Y2510761D01*
X25344543Y2541231D01*
X25405482D01*
X25435953Y2510761D01*
Y2480290D01*
X25314073D01*
X25679715Y2602171D02*
X25801596D01*
X25740656D01*
Y2419350D01*
X25893005D02*
X25953946D01*
X25984415Y2449820D01*
Y2510761D01*
X25953946Y2541231D01*
X25893005D01*
X25862534Y2510761D01*
Y2449820D01*
X25893005Y2419350D01*
X26045355D02*
X26106296D01*
X26075827D01*
Y2602171D01*
X26045355D01*
X26289117Y2419350D02*
X26228177D01*
X26197708Y2449820D01*
Y2510761D01*
X26228177Y2541231D01*
X26289117D01*
X26319586Y2510761D01*
Y2480290D01*
X26197708D01*
X26380527Y2541231D02*
Y2419350D01*
Y2480290D01*
X26410999Y2510761D01*
X26441467Y2541231D01*
X26471939D01*
X26593820D02*
X26654758D01*
X26685229Y2510761D01*
Y2419350D01*
X26593820D01*
X26563348Y2449820D01*
X26593820Y2480290D01*
X26685229D01*
X26746170Y2419350D02*
Y2541231D01*
X26837579D01*
X26868051Y2510761D01*
Y2419350D01*
X27050870Y2541231D02*
X26959460D01*
X26928989Y2510761D01*
Y2449820D01*
X26959460Y2419350D01*
X27050870D01*
X27203220D02*
X27142282D01*
X27111810Y2449820D01*
Y2510761D01*
X27142282Y2541231D01*
X27203220D01*
X27233691Y2510761D01*
Y2480290D01*
X27111810D01*
X27538394Y2419350D02*
X27477454Y2480290D01*
Y2541231D01*
X27538394Y2602171D01*
X27629803Y2510761D02*
X27751685D01*
X27690744Y2571701D02*
Y2449820D01*
X27812625Y2419350D02*
X27873563Y2480290D01*
Y2541231D01*
X27812625Y2602171D01*
X22627522D02*
Y2419350D01*
X22718932D01*
X22749403Y2449820D01*
Y2571701D01*
X22718932Y2602171D01*
X22627522D01*
X22901753Y2419350D02*
X22840813D01*
X22810342Y2449820D01*
Y2510761D01*
X22840813Y2541231D01*
X22901753D01*
X22932224Y2510761D01*
Y2480290D01*
X22810342D01*
X22993164Y2419350D02*
X23084573D01*
X23115044Y2449820D01*
X23084573Y2480290D01*
X23023634D01*
X22993164Y2510761D01*
X23023634Y2541231D01*
X23115044D01*
X23297865D02*
X23206454D01*
X23175984Y2510761D01*
Y2449820D01*
X23206454Y2419350D01*
X23297865D01*
X23358804Y2541231D02*
Y2419350D01*
Y2480290D01*
X23389275Y2510761D01*
X23419745Y2541231D01*
X23450217D01*
X23541626Y2419350D02*
X23602567D01*
X23572096D01*
Y2541231D01*
X23541626D01*
X23693977Y2358410D02*
Y2541231D01*
X23785387D01*
X23815857Y2510761D01*
Y2449820D01*
X23785387Y2419350D01*
X23693977D01*
X23907268Y2571701D02*
Y2541231D01*
X23876797D01*
X23937738D01*
X23907268D01*
Y2449820D01*
X23937738Y2419350D01*
X24029147D02*
X24090088D01*
X24059618D01*
Y2541231D01*
X24029147D01*
X24211969Y2419350D02*
X24272910D01*
X24303380Y2449820D01*
Y2510761D01*
X24272910Y2541231D01*
X24211969D01*
X24181499Y2510761D01*
Y2449820D01*
X24211969Y2419350D01*
X24364320D02*
Y2541231D01*
X24455730D01*
X24486200Y2510761D01*
Y2419350D01*
X19097974Y2602171D02*
X19219855D01*
X19158913D01*
Y2419350D01*
X19372205D02*
X19311264D01*
X19280794Y2449820D01*
Y2510761D01*
X19311264Y2541231D01*
X19372205D01*
X19402675Y2510761D01*
Y2480290D01*
X19280794D01*
X19463615Y2419350D02*
Y2541231D01*
X19494086D01*
X19524554Y2510761D01*
Y2419350D01*
Y2510761D01*
X19555025Y2541231D01*
X19585495Y2510761D01*
Y2419350D01*
X19646436Y2358410D02*
Y2541231D01*
X19737846D01*
X19768317Y2510761D01*
Y2449820D01*
X19737846Y2419350D01*
X19646436D01*
X19829257D02*
X19890198D01*
X19859727D01*
Y2602171D01*
X19829257D01*
X20012077Y2541231D02*
X20073018D01*
X20103488Y2510761D01*
Y2419350D01*
X20012077D01*
X19981607Y2449820D01*
X20012077Y2480290D01*
X20103488D01*
X20194897Y2571701D02*
Y2541231D01*
X20164429D01*
X20225368D01*
X20194897D01*
Y2449820D01*
X20225368Y2419350D01*
X20408189D02*
X20347249D01*
X20316779Y2449820D01*
Y2510761D01*
X20347249Y2541231D01*
X20408189D01*
X20438660Y2510761D01*
Y2480290D01*
X20316779D01*
X17203645Y2419350D02*
Y2602171D01*
X17295058D01*
X17325526Y2571701D01*
Y2510761D01*
X17295058Y2480290D01*
X17203645D01*
X17416937Y2541231D02*
X17477876D01*
X17508348Y2510761D01*
Y2419350D01*
X17416937D01*
X17386467Y2449820D01*
X17416937Y2480290D01*
X17508348D01*
X17691168Y2602171D02*
Y2419350D01*
X17599757D01*
X17569289Y2449820D01*
Y2510761D01*
X17599757Y2541231D01*
X17691168D01*
X18056810Y2571701D02*
X18026340Y2602171D01*
X17965399D01*
X17934929Y2571701D01*
Y2541231D01*
X17965399Y2510761D01*
X18026340D01*
X18056810Y2480290D01*
Y2449820D01*
X18026340Y2419350D01*
X17965399D01*
X17934929Y2449820D01*
X18117751Y2602171D02*
Y2419350D01*
Y2510761D01*
X18148219Y2541231D01*
X18209161D01*
X18239632Y2510761D01*
Y2419350D01*
X18331041Y2541231D02*
X18391982D01*
X18422452Y2510761D01*
Y2419350D01*
X18331041D01*
X18300571Y2449820D01*
X18331041Y2480290D01*
X18422452D01*
X18483392Y2358410D02*
Y2541231D01*
X18574802D01*
X18605272Y2510761D01*
Y2449820D01*
X18574802Y2419350D01*
X18483392D01*
X18757623D02*
X18696683D01*
X18666212Y2449820D01*
Y2510761D01*
X18696683Y2541231D01*
X18757623D01*
X18788094Y2510761D01*
Y2480290D01*
X18666212D01*
X15705431Y2602171D02*
Y2480290D01*
X15766371Y2419350D01*
X15827312Y2480290D01*
Y2602171D01*
X15888251Y2419350D02*
X15949191D01*
X15918723D01*
Y2541231D01*
X15888251D01*
X16071072D02*
X16132013D01*
X16162483Y2510761D01*
Y2419350D01*
X16071072D01*
X16040602Y2449820D01*
X16071072Y2480290D01*
X16162483D01*
X16223422Y2419350D02*
X16345303Y2541231D01*
X16406244Y2419350D02*
Y2602171D01*
X16497655D01*
X16528123Y2571701D01*
Y2510761D01*
X16497655Y2480290D01*
X16406244D01*
X16619534Y2541231D02*
X16680475D01*
X16710945Y2510761D01*
Y2419350D01*
X16619534D01*
X16589066Y2449820D01*
X16619534Y2480290D01*
X16710945D01*
X16893765Y2602171D02*
Y2419350D01*
X16802356D01*
X16771886Y2449820D01*
Y2510761D01*
X16802356Y2541231D01*
X16893765D01*
X11896572Y2602171D02*
Y2419350D01*
X11987983D01*
X12018453Y2449820D01*
Y2571701D01*
X11987983Y2602171D01*
X11896572D01*
X12079393Y2541231D02*
Y2419350D01*
Y2480290D01*
X12109863Y2510761D01*
X12140333Y2541231D01*
X12170804D01*
X12262214Y2419350D02*
X12323154D01*
X12292684D01*
Y2541231D01*
X12262214D01*
X12414565Y2419350D02*
X12475505D01*
X12445035D01*
Y2602171D01*
X12414565D01*
X12566915Y2419350D02*
X12627856D01*
X12597386D01*
Y2602171D01*
X12566915D01*
X12902087D02*
Y2419350D01*
X13023969D01*
X13115378Y2541231D02*
X13176318D01*
X13206789Y2510761D01*
Y2419350D01*
X13115378D01*
X13084908Y2449820D01*
X13115378Y2480290D01*
X13206789D01*
X13267729Y2541231D02*
Y2449820D01*
X13298199Y2419350D01*
X13389609D01*
Y2388880D01*
X13359138Y2358410D01*
X13328670D01*
X13389609Y2419350D02*
Y2541231D01*
X13541960Y2419350D02*
X13481020D01*
X13450549Y2449820D01*
Y2510761D01*
X13481020Y2541231D01*
X13541960D01*
X13572430Y2510761D01*
Y2480290D01*
X13450549D01*
X13633369Y2541231D02*
Y2419350D01*
Y2480290D01*
X13663840Y2510761D01*
X13694310Y2541231D01*
X13724780D01*
X13999013Y2419350D02*
Y2602171D01*
X14090422D01*
X14120892Y2571701D01*
Y2510761D01*
X14090422Y2480290D01*
X13999013D01*
X14212303Y2541231D02*
X14273244D01*
X14303712Y2510761D01*
Y2419350D01*
X14212303D01*
X14181833Y2449820D01*
X14212303Y2480290D01*
X14303712D01*
X14364655Y2419350D02*
X14425594D01*
X14395123D01*
Y2541231D01*
X14364655D01*
X14517004D02*
Y2419350D01*
Y2480290D01*
X14547475Y2510761D01*
X14577943Y2541231D01*
X14608415D01*
X10032715Y2602171D02*
Y2419350D01*
Y2510761D01*
X10154596D01*
Y2602171D01*
Y2419350D01*
X10246006D02*
X10306947D01*
X10337417Y2449820D01*
Y2510761D01*
X10306947Y2541231D01*
X10246006D01*
X10215536Y2510761D01*
Y2449820D01*
X10246006Y2419350D01*
X10398357D02*
X10459297D01*
X10428827D01*
Y2602171D01*
X10398357D01*
X10642118Y2419350D02*
X10581178D01*
X10550708Y2449820D01*
Y2510761D01*
X10581178Y2541231D01*
X10642118D01*
X10672588Y2510761D01*
Y2480290D01*
X10550708D01*
X10916349Y2602171D02*
X11038230D01*
X10977289D01*
Y2419350D01*
X11099170Y2541231D02*
Y2449820D01*
X11129640Y2419350D01*
X11221051D01*
Y2388880D01*
X11190581Y2358410D01*
X11160110D01*
X11221051Y2419350D02*
Y2541231D01*
X11281991Y2358410D02*
Y2541231D01*
X11373401D01*
X11403872Y2510761D01*
Y2449820D01*
X11373401Y2419350D01*
X11281991D01*
X11556222D02*
X11495282D01*
X11464812Y2449820D01*
Y2510761D01*
X11495282Y2541231D01*
X11556222D01*
X11586692Y2510761D01*
Y2480290D01*
X11464812D01*
X8747791Y2419350D02*
Y2602171D01*
X8839201D01*
X8869671Y2571701D01*
Y2510761D01*
X8839201Y2480290D01*
X8747791D01*
X8930612Y2419350D02*
X8991552D01*
X8961082D01*
Y2602171D01*
X8930612D01*
X9113432Y2541231D02*
X9174373D01*
X9204843Y2510761D01*
Y2419350D01*
X9113432D01*
X9082962Y2449820D01*
X9113432Y2480290D01*
X9204843D01*
X9296253Y2571701D02*
Y2541231D01*
X9265783D01*
X9326723D01*
X9296253D01*
Y2449820D01*
X9326723Y2419350D01*
X9509544D02*
X9448604D01*
X9418134Y2449820D01*
Y2510761D01*
X9448604Y2541231D01*
X9509544D01*
X9540014Y2510761D01*
Y2480290D01*
X9418134D01*
X9722835Y2602171D02*
Y2419350D01*
X9631425D01*
X9600955Y2449820D01*
Y2510761D01*
X9631425Y2541231D01*
X9722835D01*
X5903821Y2602171D02*
Y2419350D01*
Y2510761D01*
X6025702D01*
Y2602171D01*
Y2419350D01*
X6117112D02*
X6178052D01*
X6208523Y2449820D01*
Y2510761D01*
X6178052Y2541231D01*
X6117112D01*
X6086642Y2510761D01*
Y2449820D01*
X6117112Y2419350D01*
X6269463D02*
X6330403D01*
X6299933D01*
Y2602171D01*
X6269463D01*
X6513224Y2419350D02*
X6452284D01*
X6421813Y2449820D01*
Y2510761D01*
X6452284Y2541231D01*
X6513224D01*
X6543694Y2510761D01*
Y2480290D01*
X6421813D01*
X6909336Y2571701D02*
X6878866Y2602171D01*
X6817925D01*
X6787455Y2571701D01*
Y2541231D01*
X6817925Y2510761D01*
X6878866D01*
X6909336Y2480290D01*
Y2449820D01*
X6878866Y2419350D01*
X6817925D01*
X6787455Y2449820D01*
X6970276Y2419350D02*
X7031216D01*
X7000746D01*
Y2541231D01*
X6970276D01*
X7122627D02*
X7244507D01*
X7122627Y2419350D01*
X7244507D01*
X7396858D02*
X7335918D01*
X7305447Y2449820D01*
Y2510761D01*
X7335918Y2541231D01*
X7396858D01*
X7427328Y2510761D01*
Y2480290D01*
X7305447D01*
X4654455Y2571701D02*
X4623985Y2602171D01*
X4563044D01*
X4532574Y2571701D01*
Y2449820D01*
X4563044Y2419350D01*
X4623985D01*
X4654455Y2449820D01*
X4745865Y2419350D02*
X4806806D01*
X4837276Y2449820D01*
Y2510761D01*
X4806806Y2541231D01*
X4745865D01*
X4715395Y2510761D01*
Y2449820D01*
X4745865Y2419350D01*
X4898216Y2541231D02*
Y2449820D01*
X4928686Y2419350D01*
X5020097D01*
Y2541231D01*
X5081037Y2419350D02*
Y2541231D01*
X5172447D01*
X5202917Y2510761D01*
Y2419350D01*
X5294328Y2571701D02*
Y2541231D01*
X5263858D01*
X5324798D01*
X5294328D01*
Y2449820D01*
X5324798Y2419350D01*
X3369531Y2571701D02*
X3339061Y2602171D01*
X3278120D01*
X3247650Y2571701D01*
Y2541231D01*
X3278120Y2510761D01*
X3339061D01*
X3369531Y2480290D01*
Y2449820D01*
X3339061Y2419350D01*
X3278120D01*
X3247650Y2449820D01*
X3430471Y2541231D02*
Y2449820D01*
X3460941Y2419350D01*
X3552352D01*
Y2388880D01*
X3521881Y2358410D01*
X3491411D01*
X3552352Y2419350D02*
Y2541231D01*
X3613292Y2419350D02*
Y2541231D01*
X3643762D01*
X3674232Y2510761D01*
Y2419350D01*
Y2510761D01*
X3704702Y2541231D01*
X3735172Y2510761D01*
Y2419350D01*
X3796113Y2602171D02*
Y2419350D01*
X3887523D01*
X3917993Y2449820D01*
Y2480290D01*
Y2510761D01*
X3887523Y2541231D01*
X3796113D01*
X4009403Y2419350D02*
X4070344D01*
X4100814Y2449820D01*
Y2510761D01*
X4070344Y2541231D01*
X4009403D01*
X3978933Y2510761D01*
Y2449820D01*
X4009403Y2419350D01*
X4161754D02*
X4222694D01*
X4192224D01*
Y2602171D01*
X4161754D01*
%TF.MD5,559a674390a7b4e53bf6c39d6efbefb1*%
M02*
