%TF.GenerationSoftware,Altium Limited,Altium Designer,23.6.0 (18)*%
G04 Layer_Color=8388736*
%FSLAX45Y45*%
%MOMM*%
%TF.SameCoordinates,57B8E715-CDE8-4F81-9698-3B096703D57B*%
%TF.FilePolarity,Positive*%
%TF.FileFunction,Other,Layer_Stackup*%
%TF.Part,Single*%
G01*
G75*
%TA.AperFunction,NonConductor*%
%ADD38C,0.38100*%
%ADD39C,0.02540*%
%ADD40C,0.25400*%
D38*
X19050Y6571850D02*
X11547611D01*
X19050Y6876650D02*
X11547611D01*
X19050Y3219050D02*
Y6876650D01*
Y3219050D02*
X1060228D01*
X19050Y3523850D02*
X1060228D01*
X19050Y3828650D02*
X1060228D01*
X19050Y4133450D02*
X1060228D01*
X19050Y4438250D02*
X1060228D01*
X19050Y4743050D02*
X1060228D01*
X19050Y5047850D02*
X1060228D01*
X19050Y5352650D02*
X1060228D01*
X19050Y5657450D02*
X1060228D01*
X19050Y5962250D02*
X1060228D01*
X19050Y6267050D02*
X1060228D01*
Y3219050D02*
Y6876650D01*
Y3219050D02*
X3421779D01*
X1060228Y3523850D02*
X3421779D01*
X1060228Y3828650D02*
X3421779D01*
X1060228Y4133450D02*
X3421779D01*
X1060228Y4438250D02*
X3421779D01*
X1060228Y4743050D02*
X3421779D01*
X1060228Y5047850D02*
X3421779D01*
X1060228Y5352650D02*
X3421779D01*
X1060228Y5657450D02*
X3421779D01*
X1060228Y5962250D02*
X3421779D01*
X1060228Y6267050D02*
X3421779D01*
Y3219050D02*
Y6876650D01*
Y3219050D02*
X5605588D01*
X3421779Y3523850D02*
X5605588D01*
X3421779Y3828650D02*
X5605588D01*
X3421779Y4133450D02*
X5605588D01*
X3421779Y4438250D02*
X5605588D01*
X3421779Y4743050D02*
X5605588D01*
X3421779Y5047850D02*
X5605588D01*
X3421779Y5352650D02*
X5605588D01*
X3421779Y5657450D02*
X5605588D01*
X3421779Y5962250D02*
X5605588D01*
X3421779Y6267050D02*
X5605588D01*
Y3219050D02*
Y6876650D01*
Y3219050D02*
X7256169D01*
X5605588Y3523850D02*
X7256169D01*
X5605588Y3828650D02*
X7256169D01*
X5605588Y4133450D02*
X7256169D01*
X5605588Y4438250D02*
X7256169D01*
X5605588Y4743050D02*
X7256169D01*
X5605588Y5047850D02*
X7256169D01*
X5605588Y5352650D02*
X7256169D01*
X5605588Y5657450D02*
X7256169D01*
X5605588Y5962250D02*
X7256169D01*
X5605588Y6267050D02*
X7256169D01*
Y3219050D02*
Y6876650D01*
Y3219050D02*
X8703616D01*
X7256169Y3523850D02*
X8703616D01*
X7256169Y3828650D02*
X8703616D01*
X7256169Y4133450D02*
X8703616D01*
X7256169Y4438250D02*
X8703616D01*
X7256169Y4743050D02*
X8703616D01*
X7256169Y5047850D02*
X8703616D01*
X7256169Y5352650D02*
X8703616D01*
X7256169Y5657450D02*
X8703616D01*
X7256169Y5962250D02*
X8703616D01*
X7256169Y6267050D02*
X8703616D01*
Y3219050D02*
Y6876650D01*
Y3219050D02*
X11547611D01*
X8703616Y3523850D02*
X11547611D01*
X8703616Y3828650D02*
X11547611D01*
X8703616Y4133450D02*
X11547611D01*
X8703616Y4438250D02*
X11547611D01*
X8703616Y4743050D02*
X11547611D01*
X8703616Y5047850D02*
X11547611D01*
X8703616Y5352650D02*
X11547611D01*
X8703616Y5657450D02*
X11547611D01*
X8703616Y5962250D02*
X11547611D01*
X8703616Y6267050D02*
X11547611D01*
Y3219050D02*
Y6876650D01*
D39*
X11395211Y3219050D02*
X11547611Y3371450D01*
X11242811Y3219050D02*
X11547611Y3523850D01*
X11090411Y3219050D02*
X11395211Y3523850D01*
X10938011Y3219050D02*
X11242811Y3523850D01*
X10785611Y3219050D02*
X11090411Y3523850D01*
X10633211Y3219050D02*
X10938011Y3523850D01*
X10480811Y3219050D02*
X10785611Y3523850D01*
X10328411Y3219050D02*
X10633211Y3523850D01*
X10176011Y3219050D02*
X10480811Y3523850D01*
X10023611Y3219050D02*
X10328411Y3523850D01*
X9871211Y3219050D02*
X10176011Y3523850D01*
X9718811Y3219050D02*
X10023611Y3523850D01*
X9566411Y3219050D02*
X9871211Y3523850D01*
X9414011Y3219050D02*
X9718811Y3523850D01*
X9261611Y3219050D02*
X9566411Y3523850D01*
X9109211Y3219050D02*
X9414011Y3523850D01*
X8956811Y3219050D02*
X9261611Y3523850D01*
X8804411Y3219050D02*
X9109211Y3523850D01*
X8703616Y3270655D02*
X8956811Y3523850D01*
X8703616Y3423055D02*
X8804411Y3523850D01*
X11395211D02*
X11547611Y3676250D01*
X11242811Y3523850D02*
X11547611Y3828650D01*
X11090411Y3523850D02*
X11395211Y3828650D01*
X10938011Y3523850D02*
X11242811Y3828650D01*
X10785611Y3523850D02*
X11090411Y3828650D01*
X10633211Y3523850D02*
X10938011Y3828650D01*
X10480811Y3523850D02*
X10785611Y3828650D01*
X10328411Y3523850D02*
X10633211Y3828650D01*
X10176011Y3523850D02*
X10480811Y3828650D01*
X10023611Y3523850D02*
X10328411Y3828650D01*
X9871211Y3523850D02*
X10176011Y3828650D01*
X9718811Y3523850D02*
X10023611Y3828650D01*
X9566411Y3523850D02*
X9871211Y3828650D01*
X9414011Y3523850D02*
X9718811Y3828650D01*
X9261611Y3523850D02*
X9566411Y3828650D01*
X9109211Y3523850D02*
X9414011Y3828650D01*
X8956811Y3523850D02*
X9261611Y3828650D01*
X8804411Y3523850D02*
X9109211Y3828650D01*
X8703616Y3575455D02*
X8956811Y3828650D01*
X8703616Y3727855D02*
X8804411Y3828650D01*
X11395211D02*
X11547611Y3981050D01*
X11242811Y3828650D02*
X11547611Y4133450D01*
X11090411Y3828650D02*
X11395211Y4133450D01*
X10938011Y3828650D02*
X11242811Y4133450D01*
X10785611Y3828650D02*
X11090411Y4133450D01*
X10633211Y3828650D02*
X10938011Y4133450D01*
X10480811Y3828650D02*
X10785611Y4133450D01*
X10328411Y3828650D02*
X10633211Y4133450D01*
X10176011Y3828650D02*
X10480811Y4133450D01*
X10023611Y3828650D02*
X10328411Y4133450D01*
X9871211Y3828650D02*
X10176011Y4133450D01*
X9718811Y3828650D02*
X10023611Y4133450D01*
X9566411Y3828650D02*
X9871211Y4133450D01*
X9414011Y3828650D02*
X9718811Y4133450D01*
X9261611Y3828650D02*
X9566411Y4133450D01*
X9109211Y3828650D02*
X9414011Y4133450D01*
X8956811Y3828650D02*
X9261611Y4133450D01*
X8804411Y3828650D02*
X9109211Y4133450D01*
X8703616Y3880255D02*
X8956811Y4133450D01*
X8703616Y4032655D02*
X8804411Y4133450D01*
X11395211D02*
X11547611Y4285850D01*
X11242811Y4133450D02*
X11547611Y4438250D01*
X11090411Y4133450D02*
X11395211Y4438250D01*
X10938011Y4133450D02*
X11242811Y4438250D01*
X10785611Y4133450D02*
X11090411Y4438250D01*
X10633211Y4133450D02*
X10938011Y4438250D01*
X10480811Y4133450D02*
X10785611Y4438250D01*
X10328411Y4133450D02*
X10633211Y4438250D01*
X10176011Y4133450D02*
X10480811Y4438250D01*
X10023611Y4133450D02*
X10328411Y4438250D01*
X9871211Y4133450D02*
X10176011Y4438250D01*
X9718811Y4133450D02*
X10023611Y4438250D01*
X9566411Y4133450D02*
X9871211Y4438250D01*
X9414011Y4133450D02*
X9718811Y4438250D01*
X9261611Y4133450D02*
X9566411Y4438250D01*
X9109211Y4133450D02*
X9414011Y4438250D01*
X8956811Y4133450D02*
X9261611Y4438250D01*
X8804411Y4133450D02*
X9109211Y4438250D01*
X8703616Y4185055D02*
X8956811Y4438250D01*
X8703616Y4337455D02*
X8804411Y4438250D01*
X11395211D02*
X11547611Y4590650D01*
X11242811Y4438250D02*
X11547611Y4743050D01*
X11090411Y4438250D02*
X11395211Y4743050D01*
X10938011Y4438250D02*
X11242811Y4743050D01*
X10785611Y4438250D02*
X11090411Y4743050D01*
X10633211Y4438250D02*
X10938011Y4743050D01*
X10480811Y4438250D02*
X10785611Y4743050D01*
X10328411Y4438250D02*
X10633211Y4743050D01*
X10176011Y4438250D02*
X10480811Y4743050D01*
X10023611Y4438250D02*
X10328411Y4743050D01*
X9871211Y4438250D02*
X10176011Y4743050D01*
X9718811Y4438250D02*
X10023611Y4743050D01*
X9566411Y4438250D02*
X9871211Y4743050D01*
X9414011Y4438250D02*
X9718811Y4743050D01*
X9261611Y4438250D02*
X9566411Y4743050D01*
X9109211Y4438250D02*
X9414011Y4743050D01*
X8956811Y4438250D02*
X9261611Y4743050D01*
X8804411Y4438250D02*
X9109211Y4743050D01*
X8703616Y4489855D02*
X8956811Y4743050D01*
X8703616Y4642255D02*
X8804411Y4743050D01*
X11395211D02*
X11547611Y4895450D01*
X11242811Y4743050D02*
X11547611Y5047850D01*
X11090411Y4743050D02*
X11395211Y5047850D01*
X10938011Y4743050D02*
X11242811Y5047850D01*
X10785611Y4743050D02*
X11090411Y5047850D01*
X10633211Y4743050D02*
X10938011Y5047850D01*
X10480811Y4743050D02*
X10785611Y5047850D01*
X10328411Y4743050D02*
X10633211Y5047850D01*
X10176011Y4743050D02*
X10480811Y5047850D01*
X10023611Y4743050D02*
X10328411Y5047850D01*
X9871211Y4743050D02*
X10176011Y5047850D01*
X9718811Y4743050D02*
X10023611Y5047850D01*
X9566411Y4743050D02*
X9871211Y5047850D01*
X9414011Y4743050D02*
X9718811Y5047850D01*
X9261611Y4743050D02*
X9566411Y5047850D01*
X9109211Y4743050D02*
X9414011Y5047850D01*
X8956811Y4743050D02*
X9261611Y5047850D01*
X8804411Y4743050D02*
X9109211Y5047850D01*
X8703616Y4794655D02*
X8956811Y5047850D01*
X8703616Y4947055D02*
X8804411Y5047850D01*
X11395211D02*
X11547611Y5200250D01*
X11242811Y5047850D02*
X11547611Y5352650D01*
X11090411Y5047850D02*
X11395211Y5352650D01*
X10938011Y5047850D02*
X11242811Y5352650D01*
X10785611Y5047850D02*
X11090411Y5352650D01*
X10633211Y5047850D02*
X10938011Y5352650D01*
X10480811Y5047850D02*
X10785611Y5352650D01*
X10328411Y5047850D02*
X10633211Y5352650D01*
X10176011Y5047850D02*
X10480811Y5352650D01*
X10023611Y5047850D02*
X10328411Y5352650D01*
X9871211Y5047850D02*
X10176011Y5352650D01*
X9718811Y5047850D02*
X10023611Y5352650D01*
X9566411Y5047850D02*
X9871211Y5352650D01*
X9414011Y5047850D02*
X9718811Y5352650D01*
X9261611Y5047850D02*
X9566411Y5352650D01*
X9109211Y5047850D02*
X9414011Y5352650D01*
X8956811Y5047850D02*
X9261611Y5352650D01*
X8804411Y5047850D02*
X9109211Y5352650D01*
X8703616Y5099455D02*
X8956811Y5352650D01*
X8703616Y5251855D02*
X8804411Y5352650D01*
X11395211D02*
X11547611Y5505050D01*
X11242811Y5352650D02*
X11547611Y5657450D01*
X11090411Y5352650D02*
X11395211Y5657450D01*
X10938011Y5352650D02*
X11242811Y5657450D01*
X10785611Y5352650D02*
X11090411Y5657450D01*
X10633211Y5352650D02*
X10938011Y5657450D01*
X10480811Y5352650D02*
X10785611Y5657450D01*
X10328411Y5352650D02*
X10633211Y5657450D01*
X10176011Y5352650D02*
X10480811Y5657450D01*
X10023611Y5352650D02*
X10328411Y5657450D01*
X9871211Y5352650D02*
X10176011Y5657450D01*
X9718811Y5352650D02*
X10023611Y5657450D01*
X9566411Y5352650D02*
X9871211Y5657450D01*
X9414011Y5352650D02*
X9718811Y5657450D01*
X9261611Y5352650D02*
X9566411Y5657450D01*
X9109211Y5352650D02*
X9414011Y5657450D01*
X8956811Y5352650D02*
X9261611Y5657450D01*
X8804411Y5352650D02*
X9109211Y5657450D01*
X8703616Y5404255D02*
X8956811Y5657450D01*
X8703616Y5556655D02*
X8804411Y5657450D01*
X11395211D02*
X11547611Y5809850D01*
X11242811Y5657450D02*
X11547611Y5962250D01*
X11090411Y5657450D02*
X11395211Y5962250D01*
X10938011Y5657450D02*
X11242811Y5962250D01*
X10785611Y5657450D02*
X11090411Y5962250D01*
X10633211Y5657450D02*
X10938011Y5962250D01*
X10480811Y5657450D02*
X10785611Y5962250D01*
X10328411Y5657450D02*
X10633211Y5962250D01*
X10176011Y5657450D02*
X10480811Y5962250D01*
X10023611Y5657450D02*
X10328411Y5962250D01*
X9871211Y5657450D02*
X10176011Y5962250D01*
X9718811Y5657450D02*
X10023611Y5962250D01*
X9566411Y5657450D02*
X9871211Y5962250D01*
X9414011Y5657450D02*
X9718811Y5962250D01*
X9261611Y5657450D02*
X9566411Y5962250D01*
X9109211Y5657450D02*
X9414011Y5962250D01*
X8956811Y5657450D02*
X9261611Y5962250D01*
X8804411Y5657450D02*
X9109211Y5962250D01*
X8703616Y5709055D02*
X8956811Y5962250D01*
X8703616Y5861455D02*
X8804411Y5962250D01*
X11395211D02*
X11547611Y6114650D01*
X11242811Y5962250D02*
X11547611Y6267050D01*
X11090411Y5962250D02*
X11395211Y6267050D01*
X10938011Y5962250D02*
X11242811Y6267050D01*
X10785611Y5962250D02*
X11090411Y6267050D01*
X10633211Y5962250D02*
X10938011Y6267050D01*
X10480811Y5962250D02*
X10785611Y6267050D01*
X10328411Y5962250D02*
X10633211Y6267050D01*
X10176011Y5962250D02*
X10480811Y6267050D01*
X10023611Y5962250D02*
X10328411Y6267050D01*
X9871211Y5962250D02*
X10176011Y6267050D01*
X9718811Y5962250D02*
X10023611Y6267050D01*
X9566411Y5962250D02*
X9871211Y6267050D01*
X9414011Y5962250D02*
X9718811Y6267050D01*
X9261611Y5962250D02*
X9566411Y6267050D01*
X9109211Y5962250D02*
X9414011Y6267050D01*
X8956811Y5962250D02*
X9261611Y6267050D01*
X8804411Y5962250D02*
X9109211Y6267050D01*
X8703616Y6013855D02*
X8956811Y6267050D01*
X8703616Y6166255D02*
X8804411Y6267050D01*
X11395211D02*
X11547611Y6419450D01*
X11242811Y6267050D02*
X11547611Y6571850D01*
X11090411Y6267050D02*
X11395211Y6571850D01*
X10938011Y6267050D02*
X11242811Y6571850D01*
X10785611Y6267050D02*
X11090411Y6571850D01*
X10633211Y6267050D02*
X10938011Y6571850D01*
X10480811Y6267050D02*
X10785611Y6571850D01*
X10328411Y6267050D02*
X10633211Y6571850D01*
X10176011Y6267050D02*
X10480811Y6571850D01*
X10023611Y6267050D02*
X10328411Y6571850D01*
X9871211Y6267050D02*
X10176011Y6571850D01*
X9718811Y6267050D02*
X10023611Y6571850D01*
X9566411Y6267050D02*
X9871211Y6571850D01*
X9414011Y6267050D02*
X9718811Y6571850D01*
X9261611Y6267050D02*
X9566411Y6571850D01*
X9109211Y6267050D02*
X9414011Y6571850D01*
X8956811Y6267050D02*
X9261611Y6571850D01*
X8804411Y6267050D02*
X9109211Y6571850D01*
X8703616Y6318655D02*
X8956811Y6571850D01*
X8703616Y6471055D02*
X8804411Y6571850D01*
D40*
X196850Y6800401D02*
Y6648050D01*
X298417D01*
X374593Y6749617D02*
X425376D01*
X450768Y6724225D01*
Y6648050D01*
X374593D01*
X349201Y6673442D01*
X374593Y6698833D01*
X450768D01*
X501551Y6749617D02*
Y6673442D01*
X526943Y6648050D01*
X603119D01*
Y6622658D01*
X577727Y6597266D01*
X552335D01*
X603119Y6648050D02*
Y6749617D01*
X730078Y6648050D02*
X679294D01*
X653902Y6673442D01*
Y6724225D01*
X679294Y6749617D01*
X730078D01*
X755469Y6724225D01*
Y6698833D01*
X653902D01*
X806253Y6749617D02*
Y6648050D01*
Y6698833D01*
X831645Y6724225D01*
X857036Y6749617D01*
X882428D01*
X273025Y3904850D02*
Y4057201D01*
X196850Y3981025D01*
X298417D01*
X196850Y4641409D02*
X222242Y4666801D01*
X273025D01*
X298417Y4641409D01*
Y4616017D01*
X273025Y4590625D01*
X247633D01*
X273025D01*
X298417Y4565233D01*
Y4539842D01*
X273025Y4514450D01*
X222242D01*
X196850Y4539842D01*
X298417Y5124050D02*
X196850D01*
X298417Y5225617D01*
Y5251009D01*
X273025Y5276401D01*
X222242D01*
X196850Y5251009D01*
Y5733650D02*
X247633D01*
X222242D01*
Y5886001D01*
X196850Y5860609D01*
X1238028Y6648050D02*
Y6800401D01*
X1339595Y6648050D01*
Y6800401D01*
X1415771Y6749617D02*
X1466554D01*
X1491946Y6724225D01*
Y6648050D01*
X1415771D01*
X1390379Y6673442D01*
X1415771Y6698833D01*
X1491946D01*
X1542730Y6648050D02*
Y6749617D01*
X1568122D01*
X1593513Y6724225D01*
Y6648050D01*
Y6724225D01*
X1618905Y6749617D01*
X1644297Y6724225D01*
Y6648050D01*
X1771256D02*
X1720472D01*
X1695080Y6673442D01*
Y6724225D01*
X1720472Y6749617D01*
X1771256D01*
X1796648Y6724225D01*
Y6698833D01*
X1695080D01*
X1238028Y3447601D02*
Y3295250D01*
X1314204D01*
X1339595Y3320642D01*
Y3346033D01*
X1314204Y3371425D01*
X1238028D01*
X1314204D01*
X1339595Y3396817D01*
Y3422209D01*
X1314204Y3447601D01*
X1238028D01*
X1415771Y3295250D02*
X1466554D01*
X1491946Y3320642D01*
Y3371425D01*
X1466554Y3396817D01*
X1415771D01*
X1390379Y3371425D01*
Y3320642D01*
X1415771Y3295250D01*
X1568122Y3422209D02*
Y3396817D01*
X1542730D01*
X1593513D01*
X1568122D01*
Y3320642D01*
X1593513Y3295250D01*
X1695080Y3422209D02*
Y3396817D01*
X1669689D01*
X1720472D01*
X1695080D01*
Y3320642D01*
X1720472Y3295250D01*
X1822039D02*
X1872823D01*
X1898215Y3320642D01*
Y3371425D01*
X1872823Y3396817D01*
X1822039D01*
X1796647Y3371425D01*
Y3320642D01*
X1822039Y3295250D01*
X1948998D02*
Y3396817D01*
X1974390D01*
X1999782Y3371425D01*
Y3295250D01*
Y3371425D01*
X2025173Y3396817D01*
X2050565Y3371425D01*
Y3295250D01*
X2329875Y3447601D02*
X2279091D01*
X2253700Y3422209D01*
Y3320642D01*
X2279091Y3295250D01*
X2329875D01*
X2355267Y3320642D01*
Y3422209D01*
X2329875Y3447601D01*
X2406050Y3396817D02*
X2456834Y3295250D01*
X2507618Y3396817D01*
X2634576Y3295250D02*
X2583793D01*
X2558401Y3320642D01*
Y3371425D01*
X2583793Y3396817D01*
X2634576D01*
X2659968Y3371425D01*
Y3346033D01*
X2558401D01*
X2710752Y3396817D02*
Y3295250D01*
Y3346033D01*
X2736144Y3371425D01*
X2761535Y3396817D01*
X2786927D01*
X2863102Y3295250D02*
X2913886D01*
X2888494D01*
Y3447601D01*
X2863102D01*
X3015453Y3396817D02*
X3066237D01*
X3091629Y3371425D01*
Y3295250D01*
X3015453D01*
X2990061Y3320642D01*
X3015453Y3346033D01*
X3091629D01*
X3142412Y3396817D02*
Y3320642D01*
X3167804Y3295250D01*
X3243979D01*
Y3269858D01*
X3218587Y3244466D01*
X3193196D01*
X3243979Y3295250D02*
Y3396817D01*
X1238028Y3752401D02*
Y3600050D01*
X1314204D01*
X1339595Y3625442D01*
Y3650833D01*
X1314204Y3676225D01*
X1238028D01*
X1314204D01*
X1339595Y3701617D01*
Y3727009D01*
X1314204Y3752401D01*
X1238028D01*
X1415771Y3600050D02*
X1466554D01*
X1491946Y3625442D01*
Y3676225D01*
X1466554Y3701617D01*
X1415771D01*
X1390379Y3676225D01*
Y3625442D01*
X1415771Y3600050D01*
X1568122Y3727009D02*
Y3701617D01*
X1542730D01*
X1593513D01*
X1568122D01*
Y3625442D01*
X1593513Y3600050D01*
X1695080Y3727009D02*
Y3701617D01*
X1669689D01*
X1720472D01*
X1695080D01*
Y3625442D01*
X1720472Y3600050D01*
X1822039D02*
X1872823D01*
X1898215Y3625442D01*
Y3676225D01*
X1872823Y3701617D01*
X1822039D01*
X1796647Y3676225D01*
Y3625442D01*
X1822039Y3600050D01*
X1948998D02*
Y3701617D01*
X1974390D01*
X1999782Y3676225D01*
Y3600050D01*
Y3676225D01*
X2025173Y3701617D01*
X2050565Y3676225D01*
Y3600050D01*
X2355267Y3727009D02*
X2329875Y3752401D01*
X2279091D01*
X2253700Y3727009D01*
Y3701617D01*
X2279091Y3676225D01*
X2329875D01*
X2355267Y3650833D01*
Y3625442D01*
X2329875Y3600050D01*
X2279091D01*
X2253700Y3625442D01*
X2431442Y3600050D02*
X2482226D01*
X2507618Y3625442D01*
Y3676225D01*
X2482226Y3701617D01*
X2431442D01*
X2406050Y3676225D01*
Y3625442D01*
X2431442Y3600050D01*
X2558401D02*
X2609185D01*
X2583793D01*
Y3752401D01*
X2558401D01*
X2786927D02*
Y3600050D01*
X2710752D01*
X2685360Y3625442D01*
Y3676225D01*
X2710752Y3701617D01*
X2786927D01*
X2913886Y3600050D02*
X2863102D01*
X2837711Y3625442D01*
Y3676225D01*
X2863102Y3701617D01*
X2913886D01*
X2939278Y3676225D01*
Y3650833D01*
X2837711D01*
X2990061Y3701617D02*
Y3600050D01*
Y3650833D01*
X3015453Y3676225D01*
X3040845Y3701617D01*
X3066237D01*
X1238028Y4057201D02*
Y3904850D01*
X1314204D01*
X1339595Y3930242D01*
Y3955633D01*
X1314204Y3981025D01*
X1238028D01*
X1314204D01*
X1339595Y4006417D01*
Y4031809D01*
X1314204Y4057201D01*
X1238028D01*
X1415771Y3904850D02*
X1466554D01*
X1491946Y3930242D01*
Y3981025D01*
X1466554Y4006417D01*
X1415771D01*
X1390379Y3981025D01*
Y3930242D01*
X1415771Y3904850D01*
X1568122Y4031809D02*
Y4006417D01*
X1542730D01*
X1593513D01*
X1568122D01*
Y3930242D01*
X1593513Y3904850D01*
X1695080Y4031809D02*
Y4006417D01*
X1669689D01*
X1720472D01*
X1695080D01*
Y3930242D01*
X1720472Y3904850D01*
X1822039D02*
X1872823D01*
X1898215Y3930242D01*
Y3981025D01*
X1872823Y4006417D01*
X1822039D01*
X1796647Y3981025D01*
Y3930242D01*
X1822039Y3904850D01*
X1948998D02*
Y4006417D01*
X1974390D01*
X1999782Y3981025D01*
Y3904850D01*
Y3981025D01*
X2025173Y4006417D01*
X2050565Y3981025D01*
Y3904850D01*
X2253700Y4057201D02*
Y3904850D01*
X2355267D01*
X2431442Y4006417D02*
X2482226D01*
X2507618Y3981025D01*
Y3904850D01*
X2431442D01*
X2406050Y3930242D01*
X2431442Y3955633D01*
X2507618D01*
X2558401Y4006417D02*
Y3930242D01*
X2583793Y3904850D01*
X2659968D01*
Y3879458D01*
X2634576Y3854066D01*
X2609185D01*
X2659968Y3904850D02*
Y4006417D01*
X2786927Y3904850D02*
X2736144D01*
X2710752Y3930242D01*
Y3981025D01*
X2736144Y4006417D01*
X2786927D01*
X2812319Y3981025D01*
Y3955633D01*
X2710752D01*
X2863102Y4006417D02*
Y3904850D01*
Y3955633D01*
X2888494Y3981025D01*
X2913886Y4006417D01*
X2939278D01*
X1238028Y4362001D02*
Y4209650D01*
X1314204D01*
X1339595Y4235042D01*
Y4336609D01*
X1314204Y4362001D01*
X1238028D01*
X1390379Y4209650D02*
X1441162D01*
X1415771D01*
Y4311217D01*
X1390379D01*
X1593513Y4209650D02*
X1542730D01*
X1517338Y4235042D01*
Y4285825D01*
X1542730Y4311217D01*
X1593513D01*
X1618905Y4285825D01*
Y4260433D01*
X1517338D01*
X1669689Y4209650D02*
X1720472D01*
X1695080D01*
Y4362001D01*
X1669689D01*
X1872823Y4209650D02*
X1822039D01*
X1796647Y4235042D01*
Y4285825D01*
X1822039Y4311217D01*
X1872823D01*
X1898215Y4285825D01*
Y4260433D01*
X1796647D01*
X2050565Y4311217D02*
X1974390D01*
X1948998Y4285825D01*
Y4235042D01*
X1974390Y4209650D01*
X2050565D01*
X2126741Y4336609D02*
Y4311217D01*
X2101349D01*
X2152132D01*
X2126741D01*
Y4235042D01*
X2152132Y4209650D01*
X2228308Y4311217D02*
Y4209650D01*
Y4260433D01*
X2253700Y4285825D01*
X2279091Y4311217D01*
X2304483D01*
X2380658Y4209650D02*
X2431442D01*
X2406050D01*
Y4311217D01*
X2380658D01*
X2609185D02*
X2533009D01*
X2507617Y4285825D01*
Y4235042D01*
X2533009Y4209650D01*
X2609185D01*
X2913886D02*
X2812319D01*
X2913886Y4311217D01*
Y4336609D01*
X2888494Y4362001D01*
X2837711D01*
X2812319Y4336609D01*
X1238028Y4514450D02*
Y4666801D01*
X1288812Y4616017D01*
X1339595Y4666801D01*
Y4514450D01*
X1390379D02*
X1441162D01*
X1415771D01*
Y4616017D01*
X1390379D01*
X1618905Y4666801D02*
Y4514450D01*
X1542730D01*
X1517338Y4539842D01*
Y4590625D01*
X1542730Y4616017D01*
X1618905D01*
X1822039Y4666801D02*
Y4514450D01*
X1923607D01*
X1999782Y4616017D02*
X2050565D01*
X2075957Y4590625D01*
Y4514450D01*
X1999782D01*
X1974390Y4539842D01*
X1999782Y4565233D01*
X2075957D01*
X2126741Y4616017D02*
Y4539842D01*
X2152133Y4514450D01*
X2228308D01*
Y4489058D01*
X2202916Y4463666D01*
X2177524D01*
X2228308Y4514450D02*
Y4616017D01*
X2355267Y4514450D02*
X2304483D01*
X2279091Y4539842D01*
Y4590625D01*
X2304483Y4616017D01*
X2355267D01*
X2380659Y4590625D01*
Y4565233D01*
X2279091D01*
X2431442Y4616017D02*
Y4514450D01*
Y4565233D01*
X2456834Y4590625D01*
X2482226Y4616017D01*
X2507618D01*
X2837711Y4514450D02*
X2736144D01*
X2837711Y4616017D01*
Y4641409D01*
X2812319Y4666801D01*
X2761535D01*
X2736144Y4641409D01*
X1339595Y4946209D02*
X1314204Y4971601D01*
X1263420D01*
X1238028Y4946209D01*
Y4844642D01*
X1263420Y4819250D01*
X1314204D01*
X1339595Y4844642D01*
X1415771Y4819250D02*
X1466554D01*
X1491946Y4844642D01*
Y4895425D01*
X1466554Y4920817D01*
X1415771D01*
X1390379Y4895425D01*
Y4844642D01*
X1415771Y4819250D01*
X1542730Y4920817D02*
Y4819250D01*
Y4870033D01*
X1568122Y4895425D01*
X1593513Y4920817D01*
X1618905D01*
X1771256Y4819250D02*
X1720472D01*
X1695080Y4844642D01*
Y4895425D01*
X1720472Y4920817D01*
X1771256D01*
X1796648Y4895425D01*
Y4870033D01*
X1695080D01*
X1238028Y5124050D02*
Y5276401D01*
X1288812Y5225617D01*
X1339595Y5276401D01*
Y5124050D01*
X1390379D02*
X1441162D01*
X1415771D01*
Y5225617D01*
X1390379D01*
X1618905Y5276401D02*
Y5124050D01*
X1542730D01*
X1517338Y5149442D01*
Y5200225D01*
X1542730Y5225617D01*
X1618905D01*
X1822039Y5276401D02*
Y5124050D01*
X1923607D01*
X1999782Y5225617D02*
X2050565D01*
X2075957Y5200225D01*
Y5124050D01*
X1999782D01*
X1974390Y5149442D01*
X1999782Y5174833D01*
X2075957D01*
X2126741Y5225617D02*
Y5149442D01*
X2152133Y5124050D01*
X2228308D01*
Y5098658D01*
X2202916Y5073266D01*
X2177524D01*
X2228308Y5124050D02*
Y5225617D01*
X2355267Y5124050D02*
X2304483D01*
X2279091Y5149442D01*
Y5200225D01*
X2304483Y5225617D01*
X2355267D01*
X2380659Y5200225D01*
Y5174833D01*
X2279091D01*
X2431442Y5225617D02*
Y5124050D01*
Y5174833D01*
X2456834Y5200225D01*
X2482226Y5225617D01*
X2507618D01*
X2736144Y5124050D02*
X2786927D01*
X2761535D01*
Y5276401D01*
X2736144Y5251009D01*
X1238028Y5581201D02*
Y5428850D01*
X1314204D01*
X1339595Y5454242D01*
Y5555809D01*
X1314204Y5581201D01*
X1238028D01*
X1390379Y5428850D02*
X1441162D01*
X1415771D01*
Y5530417D01*
X1390379D01*
X1593513Y5428850D02*
X1542730D01*
X1517338Y5454242D01*
Y5505025D01*
X1542730Y5530417D01*
X1593513D01*
X1618905Y5505025D01*
Y5479633D01*
X1517338D01*
X1669689Y5428850D02*
X1720472D01*
X1695080D01*
Y5581201D01*
X1669689D01*
X1872823Y5428850D02*
X1822039D01*
X1796647Y5454242D01*
Y5505025D01*
X1822039Y5530417D01*
X1872823D01*
X1898215Y5505025D01*
Y5479633D01*
X1796647D01*
X2050565Y5530417D02*
X1974390D01*
X1948998Y5505025D01*
Y5454242D01*
X1974390Y5428850D01*
X2050565D01*
X2126741Y5555809D02*
Y5530417D01*
X2101349D01*
X2152132D01*
X2126741D01*
Y5454242D01*
X2152132Y5428850D01*
X2228308Y5530417D02*
Y5428850D01*
Y5479633D01*
X2253700Y5505025D01*
X2279091Y5530417D01*
X2304483D01*
X2380658Y5428850D02*
X2431442D01*
X2406050D01*
Y5530417D01*
X2380658D01*
X2609185D02*
X2533009D01*
X2507617Y5505025D01*
Y5454242D01*
X2533009Y5428850D01*
X2609185D01*
X2812319D02*
X2863102D01*
X2837711D01*
Y5581201D01*
X2812319Y5555809D01*
X1238028Y5886001D02*
X1339595D01*
X1288812D01*
Y5733650D01*
X1415771D02*
X1466554D01*
X1491946Y5759042D01*
Y5809825D01*
X1466554Y5835217D01*
X1415771D01*
X1390379Y5809825D01*
Y5759042D01*
X1415771Y5733650D01*
X1542730Y5682866D02*
Y5835217D01*
X1618905D01*
X1644297Y5809825D01*
Y5759042D01*
X1618905Y5733650D01*
X1542730D01*
X1847431Y5886001D02*
Y5733650D01*
X1948998D01*
X2025174Y5835217D02*
X2075957D01*
X2101349Y5809825D01*
Y5733650D01*
X2025174D01*
X1999782Y5759042D01*
X2025174Y5784433D01*
X2101349D01*
X2152133Y5835217D02*
Y5759042D01*
X2177524Y5733650D01*
X2253700D01*
Y5708258D01*
X2228308Y5682866D01*
X2202916D01*
X2253700Y5733650D02*
Y5835217D01*
X2380659Y5733650D02*
X2329875D01*
X2304483Y5759042D01*
Y5809825D01*
X2329875Y5835217D01*
X2380659D01*
X2406051Y5809825D01*
Y5784433D01*
X2304483D01*
X2456834Y5835217D02*
Y5733650D01*
Y5784433D01*
X2482226Y5809825D01*
X2507618Y5835217D01*
X2533009D01*
X1238028Y6190801D02*
X1339595D01*
X1288812D01*
Y6038450D01*
X1415771D02*
X1466554D01*
X1491946Y6063842D01*
Y6114625D01*
X1466554Y6140017D01*
X1415771D01*
X1390379Y6114625D01*
Y6063842D01*
X1415771Y6038450D01*
X1542730Y5987666D02*
Y6140017D01*
X1618905D01*
X1644297Y6114625D01*
Y6063842D01*
X1618905Y6038450D01*
X1542730D01*
X1948998Y6165409D02*
X1923607Y6190801D01*
X1872823D01*
X1847431Y6165409D01*
Y6140017D01*
X1872823Y6114625D01*
X1923607D01*
X1948998Y6089233D01*
Y6063842D01*
X1923607Y6038450D01*
X1872823D01*
X1847431Y6063842D01*
X2025174Y6038450D02*
X2075957D01*
X2101349Y6063842D01*
Y6114625D01*
X2075957Y6140017D01*
X2025174D01*
X1999782Y6114625D01*
Y6063842D01*
X2025174Y6038450D01*
X2152133D02*
X2202916D01*
X2177524D01*
Y6190801D01*
X2152133D01*
X2380659D02*
Y6038450D01*
X2304483D01*
X2279091Y6063842D01*
Y6114625D01*
X2304483Y6140017D01*
X2380659D01*
X2507618Y6038450D02*
X2456834D01*
X2431442Y6063842D01*
Y6114625D01*
X2456834Y6140017D01*
X2507618D01*
X2533009Y6114625D01*
Y6089233D01*
X2431442D01*
X2583793Y6140017D02*
Y6038450D01*
Y6089233D01*
X2609185Y6114625D01*
X2634576Y6140017D01*
X2659968D01*
X1238028Y6495601D02*
X1339595D01*
X1288812D01*
Y6343250D01*
X1415771D02*
X1466554D01*
X1491946Y6368642D01*
Y6419425D01*
X1466554Y6444817D01*
X1415771D01*
X1390379Y6419425D01*
Y6368642D01*
X1415771Y6343250D01*
X1542730Y6292466D02*
Y6444817D01*
X1618905D01*
X1644297Y6419425D01*
Y6368642D01*
X1618905Y6343250D01*
X1542730D01*
X1923607Y6495601D02*
X1872823D01*
X1847431Y6470209D01*
Y6368642D01*
X1872823Y6343250D01*
X1923607D01*
X1948998Y6368642D01*
Y6470209D01*
X1923607Y6495601D01*
X1999782Y6444817D02*
X2050565Y6343250D01*
X2101349Y6444817D01*
X2228308Y6343250D02*
X2177524D01*
X2152133Y6368642D01*
Y6419425D01*
X2177524Y6444817D01*
X2228308D01*
X2253700Y6419425D01*
Y6394033D01*
X2152133D01*
X2304483Y6444817D02*
Y6343250D01*
Y6394033D01*
X2329875Y6419425D01*
X2355267Y6444817D01*
X2380659D01*
X2456834Y6343250D02*
X2507618D01*
X2482226D01*
Y6495601D01*
X2456834D01*
X2609185Y6444817D02*
X2659968D01*
X2685360Y6419425D01*
Y6343250D01*
X2609185D01*
X2583793Y6368642D01*
X2609185Y6394033D01*
X2685360D01*
X2736144Y6444817D02*
Y6368642D01*
X2761535Y6343250D01*
X2837711D01*
Y6317858D01*
X2812319Y6292466D01*
X2786927D01*
X2837711Y6343250D02*
Y6444817D01*
X3599579Y6648050D02*
Y6800401D01*
X3650363Y6749617D01*
X3701147Y6800401D01*
Y6648050D01*
X3777322Y6749617D02*
X3828105D01*
X3853497Y6724225D01*
Y6648050D01*
X3777322D01*
X3751930Y6673442D01*
X3777322Y6698833D01*
X3853497D01*
X3929673Y6775009D02*
Y6749617D01*
X3904281D01*
X3955064D01*
X3929673D01*
Y6673442D01*
X3955064Y6648050D01*
X4107415D02*
X4056631D01*
X4031240Y6673442D01*
Y6724225D01*
X4056631Y6749617D01*
X4107415D01*
X4132807Y6724225D01*
Y6698833D01*
X4031240D01*
X4183590Y6749617D02*
Y6648050D01*
Y6698833D01*
X4208982Y6724225D01*
X4234374Y6749617D01*
X4259766D01*
X4335941Y6648050D02*
X4386725D01*
X4361333D01*
Y6749617D01*
X4335941D01*
X4488292D02*
X4539075D01*
X4564467Y6724225D01*
Y6648050D01*
X4488292D01*
X4462900Y6673442D01*
X4488292Y6698833D01*
X4564467D01*
X4615251Y6648050D02*
X4666034D01*
X4640642D01*
Y6800401D01*
X4615251D01*
X3701147Y3727009D02*
X3675755Y3752401D01*
X3624971D01*
X3599579Y3727009D01*
Y3701617D01*
X3624971Y3676225D01*
X3675755D01*
X3701147Y3650833D01*
Y3625442D01*
X3675755Y3600050D01*
X3624971D01*
X3599579Y3625442D01*
X3777322Y3600050D02*
X3828105D01*
X3853497Y3625442D01*
Y3676225D01*
X3828105Y3701617D01*
X3777322D01*
X3751930Y3676225D01*
Y3625442D01*
X3777322Y3600050D01*
X3904281D02*
X3955064D01*
X3929673D01*
Y3752401D01*
X3904281D01*
X4132807D02*
Y3600050D01*
X4056631D01*
X4031240Y3625442D01*
Y3676225D01*
X4056631Y3701617D01*
X4132807D01*
X4259766Y3600050D02*
X4208982D01*
X4183590Y3625442D01*
Y3676225D01*
X4208982Y3701617D01*
X4259766D01*
X4285158Y3676225D01*
Y3650833D01*
X4183590D01*
X4335941Y3701617D02*
Y3600050D01*
Y3650833D01*
X4361333Y3676225D01*
X4386725Y3701617D01*
X4412116D01*
X4640642Y3600050D02*
Y3752401D01*
X4716818D01*
X4742210Y3727009D01*
Y3676225D01*
X4716818Y3650833D01*
X4640642D01*
X4691426D02*
X4742210Y3600050D01*
X4869169D02*
X4818385D01*
X4792993Y3625442D01*
Y3676225D01*
X4818385Y3701617D01*
X4869169D01*
X4894560Y3676225D01*
Y3650833D01*
X4792993D01*
X4945344Y3600050D02*
X5021519D01*
X5046911Y3625442D01*
X5021519Y3650833D01*
X4970736D01*
X4945344Y3676225D01*
X4970736Y3701617D01*
X5046911D01*
X5097695Y3600050D02*
X5148478D01*
X5123087D01*
Y3701617D01*
X5097695D01*
X5224654Y3600050D02*
X5300829D01*
X5326221Y3625442D01*
X5300829Y3650833D01*
X5250045D01*
X5224654Y3676225D01*
X5250045Y3701617D01*
X5326221D01*
X5402396Y3727009D02*
Y3701617D01*
X5377004D01*
X5427788D01*
X5402396D01*
Y3625442D01*
X5427788Y3600050D01*
X3599579Y4362001D02*
X3701147D01*
Y4336609D01*
X3599579Y4235042D01*
Y4209650D01*
X3853497Y4362001D02*
X3802714Y4336609D01*
X3751930Y4285825D01*
Y4235042D01*
X3777322Y4209650D01*
X3828105D01*
X3853497Y4235042D01*
Y4260433D01*
X3828105Y4285825D01*
X3751930D01*
X4005848Y4209650D02*
X3904281D01*
X4005848Y4311217D01*
Y4336609D01*
X3980456Y4362001D01*
X3929673D01*
X3904281Y4336609D01*
X4056631D02*
X4082023Y4362001D01*
X4132807D01*
X4158199Y4336609D01*
Y4311217D01*
X4132807Y4285825D01*
X4158199Y4260433D01*
Y4235042D01*
X4132807Y4209650D01*
X4082023D01*
X4056631Y4235042D01*
Y4260433D01*
X4082023Y4285825D01*
X4056631Y4311217D01*
Y4336609D01*
X4082023Y4285825D02*
X4132807D01*
X3701147Y4971601D02*
X3599579D01*
Y4895425D01*
X3650363D01*
X3599579D01*
Y4819250D01*
X3751930D02*
Y4971601D01*
X3828105D01*
X3853497Y4946209D01*
Y4895425D01*
X3828105Y4870033D01*
X3751930D01*
X3802714D02*
X3853497Y4819250D01*
X3904281Y4895425D02*
X4005848D01*
X4132807Y4819250D02*
Y4971601D01*
X4056631Y4895425D01*
X4158199D01*
X3599579Y5581201D02*
X3701147D01*
Y5555809D01*
X3599579Y5454242D01*
Y5428850D01*
X3853497Y5581201D02*
X3802714Y5555809D01*
X3751930Y5505025D01*
Y5454242D01*
X3777322Y5428850D01*
X3828105D01*
X3853497Y5454242D01*
Y5479633D01*
X3828105Y5505025D01*
X3751930D01*
X4005848Y5428850D02*
X3904281D01*
X4005848Y5530417D01*
Y5555809D01*
X3980456Y5581201D01*
X3929673D01*
X3904281Y5555809D01*
X4056631D02*
X4082023Y5581201D01*
X4132807D01*
X4158199Y5555809D01*
Y5530417D01*
X4132807Y5505025D01*
X4158199Y5479633D01*
Y5454242D01*
X4132807Y5428850D01*
X4082023D01*
X4056631Y5454242D01*
Y5479633D01*
X4082023Y5505025D01*
X4056631Y5530417D01*
Y5555809D01*
X4082023Y5505025D02*
X4132807D01*
X3701147Y6165409D02*
X3675755Y6190801D01*
X3624971D01*
X3599579Y6165409D01*
Y6140017D01*
X3624971Y6114625D01*
X3675755D01*
X3701147Y6089233D01*
Y6063842D01*
X3675755Y6038450D01*
X3624971D01*
X3599579Y6063842D01*
X3777322Y6038450D02*
X3828105D01*
X3853497Y6063842D01*
Y6114625D01*
X3828105Y6140017D01*
X3777322D01*
X3751930Y6114625D01*
Y6063842D01*
X3777322Y6038450D01*
X3904281D02*
X3955064D01*
X3929673D01*
Y6190801D01*
X3904281D01*
X4132807D02*
Y6038450D01*
X4056631D01*
X4031240Y6063842D01*
Y6114625D01*
X4056631Y6140017D01*
X4132807D01*
X4259766Y6038450D02*
X4208982D01*
X4183590Y6063842D01*
Y6114625D01*
X4208982Y6140017D01*
X4259766D01*
X4285158Y6114625D01*
Y6089233D01*
X4183590D01*
X4335941Y6140017D02*
Y6038450D01*
Y6089233D01*
X4361333Y6114625D01*
X4386725Y6140017D01*
X4412116D01*
X4640642Y6038450D02*
Y6190801D01*
X4716818D01*
X4742210Y6165409D01*
Y6114625D01*
X4716818Y6089233D01*
X4640642D01*
X4691426D02*
X4742210Y6038450D01*
X4869169D02*
X4818385D01*
X4792993Y6063842D01*
Y6114625D01*
X4818385Y6140017D01*
X4869169D01*
X4894560Y6114625D01*
Y6089233D01*
X4792993D01*
X4945344Y6038450D02*
X5021519D01*
X5046911Y6063842D01*
X5021519Y6089233D01*
X4970736D01*
X4945344Y6114625D01*
X4970736Y6140017D01*
X5046911D01*
X5097695Y6038450D02*
X5148478D01*
X5123087D01*
Y6140017D01*
X5097695D01*
X5224654Y6038450D02*
X5300829D01*
X5326221Y6063842D01*
X5300829Y6089233D01*
X5250045D01*
X5224654Y6114625D01*
X5250045Y6140017D01*
X5326221D01*
X5402396Y6165409D02*
Y6140017D01*
X5377004D01*
X5427788D01*
X5402396D01*
Y6063842D01*
X5427788Y6038450D01*
X5783388Y6800401D02*
X5884955D01*
X5834171D01*
Y6648050D01*
X5935738Y6800401D02*
Y6648050D01*
Y6724225D01*
X5961130Y6749617D01*
X6011914D01*
X6037306Y6724225D01*
Y6648050D01*
X6088089D02*
X6138873D01*
X6113481D01*
Y6749617D01*
X6088089D01*
X6316615D02*
X6240440D01*
X6215048Y6724225D01*
Y6673442D01*
X6240440Y6648050D01*
X6316615D01*
X6367399D02*
Y6800401D01*
Y6698833D02*
X6443574Y6749617D01*
X6367399Y6698833D02*
X6443574Y6648050D01*
X6519749D02*
Y6749617D01*
X6595925D01*
X6621317Y6724225D01*
Y6648050D01*
X6748276D02*
X6697492D01*
X6672100Y6673442D01*
Y6724225D01*
X6697492Y6749617D01*
X6748276D01*
X6773667Y6724225D01*
Y6698833D01*
X6672100D01*
X6824451Y6648050D02*
X6900626D01*
X6926018Y6673442D01*
X6900626Y6698833D01*
X6849843D01*
X6824451Y6724225D01*
X6849843Y6749617D01*
X6926018D01*
X6976802Y6648050D02*
X7052977D01*
X7078369Y6673442D01*
X7052977Y6698833D01*
X7002194D01*
X6976802Y6724225D01*
X7002194Y6749617D01*
X7078369D01*
X5783388Y3727009D02*
X5808780Y3752401D01*
X5859563D01*
X5884955Y3727009D01*
Y3625442D01*
X5859563Y3600050D01*
X5808780D01*
X5783388Y3625442D01*
Y3727009D01*
X5935738Y3600050D02*
Y3625442D01*
X5961130D01*
Y3600050D01*
X5935738D01*
X6062697Y3727009D02*
X6088089Y3752401D01*
X6138873D01*
X6164265Y3727009D01*
Y3625442D01*
X6138873Y3600050D01*
X6088089D01*
X6062697Y3625442D01*
Y3727009D01*
X6215048Y3600050D02*
X6265832D01*
X6240440D01*
Y3752401D01*
X6215048Y3727009D01*
X6342007D02*
X6367399Y3752401D01*
X6418182D01*
X6443574Y3727009D01*
Y3701617D01*
X6418182Y3676225D01*
X6392790D01*
X6418182D01*
X6443574Y3650833D01*
Y3625442D01*
X6418182Y3600050D01*
X6367399D01*
X6342007Y3625442D01*
X6494358Y3600050D02*
Y3701617D01*
X6519749D01*
X6545141Y3676225D01*
Y3600050D01*
Y3676225D01*
X6570533Y3701617D01*
X6595925Y3676225D01*
Y3600050D01*
X6646708D02*
Y3701617D01*
X6672100D01*
X6697492Y3676225D01*
Y3600050D01*
Y3676225D01*
X6722884Y3701617D01*
X6748276Y3676225D01*
Y3600050D01*
X5783388Y4031809D02*
X5808780Y4057201D01*
X5859563D01*
X5884955Y4031809D01*
Y3930242D01*
X5859563Y3904850D01*
X5808780D01*
X5783388Y3930242D01*
Y4031809D01*
X5935738Y3904850D02*
Y3930242D01*
X5961130D01*
Y3904850D01*
X5935738D01*
X6062697Y4031809D02*
X6088089Y4057201D01*
X6138873D01*
X6164265Y4031809D01*
Y3930242D01*
X6138873Y3904850D01*
X6088089D01*
X6062697Y3930242D01*
Y4031809D01*
X6215048D02*
X6240440Y4057201D01*
X6291223D01*
X6316615Y4031809D01*
Y4006417D01*
X6291223Y3981025D01*
X6265832D01*
X6291223D01*
X6316615Y3955633D01*
Y3930242D01*
X6291223Y3904850D01*
X6240440D01*
X6215048Y3930242D01*
X6468966Y4057201D02*
X6367399D01*
Y3981025D01*
X6418182Y4006417D01*
X6443574D01*
X6468966Y3981025D01*
Y3930242D01*
X6443574Y3904850D01*
X6392791D01*
X6367399Y3930242D01*
X6519749Y3904850D02*
Y4006417D01*
X6545141D01*
X6570533Y3981025D01*
Y3904850D01*
Y3981025D01*
X6595925Y4006417D01*
X6621317Y3981025D01*
Y3904850D01*
X6672100D02*
Y4006417D01*
X6697492D01*
X6722884Y3981025D01*
Y3904850D01*
Y3981025D01*
X6748276Y4006417D01*
X6773667Y3981025D01*
Y3904850D01*
X5783388Y4336609D02*
X5808780Y4362001D01*
X5859563D01*
X5884955Y4336609D01*
Y4235042D01*
X5859563Y4209650D01*
X5808780D01*
X5783388Y4235042D01*
Y4336609D01*
X5935738Y4209650D02*
Y4235042D01*
X5961130D01*
Y4209650D01*
X5935738D01*
X6164265D02*
X6062697D01*
X6164265Y4311217D01*
Y4336609D01*
X6138873Y4362001D01*
X6088089D01*
X6062697Y4336609D01*
X6215048D02*
X6240440Y4362001D01*
X6291223D01*
X6316615Y4336609D01*
Y4235042D01*
X6291223Y4209650D01*
X6240440D01*
X6215048Y4235042D01*
Y4336609D01*
X6367399D02*
X6392791Y4362001D01*
X6443574D01*
X6468966Y4336609D01*
Y4235042D01*
X6443574Y4209650D01*
X6392791D01*
X6367399Y4235042D01*
Y4336609D01*
X6519749Y4209650D02*
Y4311217D01*
X6545141D01*
X6570533Y4285825D01*
Y4209650D01*
Y4285825D01*
X6595925Y4311217D01*
X6621317Y4285825D01*
Y4209650D01*
X6672100D02*
Y4311217D01*
X6697492D01*
X6722884Y4285825D01*
Y4209650D01*
Y4285825D01*
X6748276Y4311217D01*
X6773667Y4285825D01*
Y4209650D01*
X5783388Y4641409D02*
X5808780Y4666801D01*
X5859563D01*
X5884955Y4641409D01*
Y4539842D01*
X5859563Y4514450D01*
X5808780D01*
X5783388Y4539842D01*
Y4641409D01*
X5935738Y4514450D02*
Y4539842D01*
X5961130D01*
Y4514450D01*
X5935738D01*
X6062697Y4641409D02*
X6088089Y4666801D01*
X6138873D01*
X6164265Y4641409D01*
Y4539842D01*
X6138873Y4514450D01*
X6088089D01*
X6062697Y4539842D01*
Y4641409D01*
X6215048Y4514450D02*
X6265832D01*
X6240440D01*
Y4666801D01*
X6215048Y4641409D01*
X6342007D02*
X6367399Y4666801D01*
X6418182D01*
X6443574Y4641409D01*
Y4616017D01*
X6418182Y4590625D01*
X6443574Y4565233D01*
Y4539842D01*
X6418182Y4514450D01*
X6367399D01*
X6342007Y4539842D01*
Y4565233D01*
X6367399Y4590625D01*
X6342007Y4616017D01*
Y4641409D01*
X6367399Y4590625D02*
X6418182D01*
X6494358Y4514450D02*
Y4616017D01*
X6519749D01*
X6545141Y4590625D01*
Y4514450D01*
Y4590625D01*
X6570533Y4616017D01*
X6595925Y4590625D01*
Y4514450D01*
X6646708D02*
Y4616017D01*
X6672100D01*
X6697492Y4590625D01*
Y4514450D01*
Y4590625D01*
X6722884Y4616017D01*
X6748276Y4590625D01*
Y4514450D01*
X5783388Y4819250D02*
X5834171D01*
X5808780D01*
Y4971601D01*
X5783388Y4946209D01*
X5910347Y4819250D02*
Y4844642D01*
X5935738D01*
Y4819250D01*
X5910347D01*
X6037305Y4946209D02*
X6062697Y4971601D01*
X6113481D01*
X6138873Y4946209D01*
Y4844642D01*
X6113481Y4819250D01*
X6062697D01*
X6037305Y4844642D01*
Y4946209D01*
X6291223Y4971601D02*
X6240440Y4946209D01*
X6189656Y4895425D01*
Y4844642D01*
X6215048Y4819250D01*
X6265832D01*
X6291223Y4844642D01*
Y4870033D01*
X6265832Y4895425D01*
X6189656D01*
X6443574Y4971601D02*
X6342007D01*
Y4895425D01*
X6392790Y4920817D01*
X6418182D01*
X6443574Y4895425D01*
Y4844642D01*
X6418182Y4819250D01*
X6367399D01*
X6342007Y4844642D01*
X6494358Y4819250D02*
Y4920817D01*
X6519749D01*
X6545141Y4895425D01*
Y4819250D01*
Y4895425D01*
X6570533Y4920817D01*
X6595925Y4895425D01*
Y4819250D01*
X6646708D02*
Y4920817D01*
X6672100D01*
X6697492Y4895425D01*
Y4819250D01*
Y4895425D01*
X6722884Y4920817D01*
X6748276Y4895425D01*
Y4819250D01*
X5783388Y5251009D02*
X5808780Y5276401D01*
X5859563D01*
X5884955Y5251009D01*
Y5149442D01*
X5859563Y5124050D01*
X5808780D01*
X5783388Y5149442D01*
Y5251009D01*
X5935738Y5124050D02*
Y5149442D01*
X5961130D01*
Y5124050D01*
X5935738D01*
X6062697Y5251009D02*
X6088089Y5276401D01*
X6138873D01*
X6164265Y5251009D01*
Y5149442D01*
X6138873Y5124050D01*
X6088089D01*
X6062697Y5149442D01*
Y5251009D01*
X6215048Y5124050D02*
X6265832D01*
X6240440D01*
Y5276401D01*
X6215048Y5251009D01*
X6342007D02*
X6367399Y5276401D01*
X6418182D01*
X6443574Y5251009D01*
Y5225617D01*
X6418182Y5200225D01*
X6443574Y5174833D01*
Y5149442D01*
X6418182Y5124050D01*
X6367399D01*
X6342007Y5149442D01*
Y5174833D01*
X6367399Y5200225D01*
X6342007Y5225617D01*
Y5251009D01*
X6367399Y5200225D02*
X6418182D01*
X6494358Y5124050D02*
Y5225617D01*
X6519749D01*
X6545141Y5200225D01*
Y5124050D01*
Y5200225D01*
X6570533Y5225617D01*
X6595925Y5200225D01*
Y5124050D01*
X6646708D02*
Y5225617D01*
X6672100D01*
X6697492Y5200225D01*
Y5124050D01*
Y5200225D01*
X6722884Y5225617D01*
X6748276Y5200225D01*
Y5124050D01*
X5783388Y5555809D02*
X5808780Y5581201D01*
X5859563D01*
X5884955Y5555809D01*
Y5454242D01*
X5859563Y5428850D01*
X5808780D01*
X5783388Y5454242D01*
Y5555809D01*
X5935738Y5428850D02*
Y5454242D01*
X5961130D01*
Y5428850D01*
X5935738D01*
X6164265D02*
X6062697D01*
X6164265Y5530417D01*
Y5555809D01*
X6138873Y5581201D01*
X6088089D01*
X6062697Y5555809D01*
X6215048D02*
X6240440Y5581201D01*
X6291223D01*
X6316615Y5555809D01*
Y5454242D01*
X6291223Y5428850D01*
X6240440D01*
X6215048Y5454242D01*
Y5555809D01*
X6367399D02*
X6392791Y5581201D01*
X6443574D01*
X6468966Y5555809D01*
Y5454242D01*
X6443574Y5428850D01*
X6392791D01*
X6367399Y5454242D01*
Y5555809D01*
X6519749Y5428850D02*
Y5530417D01*
X6545141D01*
X6570533Y5505025D01*
Y5428850D01*
Y5505025D01*
X6595925Y5530417D01*
X6621317Y5505025D01*
Y5428850D01*
X6672100D02*
Y5530417D01*
X6697492D01*
X6722884Y5505025D01*
Y5428850D01*
Y5505025D01*
X6748276Y5530417D01*
X6773667Y5505025D01*
Y5428850D01*
X5783388Y5860609D02*
X5808780Y5886001D01*
X5859563D01*
X5884955Y5860609D01*
Y5759042D01*
X5859563Y5733650D01*
X5808780D01*
X5783388Y5759042D01*
Y5860609D01*
X5935738Y5733650D02*
Y5759042D01*
X5961130D01*
Y5733650D01*
X5935738D01*
X6062697Y5860609D02*
X6088089Y5886001D01*
X6138873D01*
X6164265Y5860609D01*
Y5759042D01*
X6138873Y5733650D01*
X6088089D01*
X6062697Y5759042D01*
Y5860609D01*
X6215048D02*
X6240440Y5886001D01*
X6291223D01*
X6316615Y5860609D01*
Y5835217D01*
X6291223Y5809825D01*
X6265832D01*
X6291223D01*
X6316615Y5784433D01*
Y5759042D01*
X6291223Y5733650D01*
X6240440D01*
X6215048Y5759042D01*
X6468966Y5886001D02*
X6367399D01*
Y5809825D01*
X6418182Y5835217D01*
X6443574D01*
X6468966Y5809825D01*
Y5759042D01*
X6443574Y5733650D01*
X6392791D01*
X6367399Y5759042D01*
X6519749Y5733650D02*
Y5835217D01*
X6545141D01*
X6570533Y5809825D01*
Y5733650D01*
Y5809825D01*
X6595925Y5835217D01*
X6621317Y5809825D01*
Y5733650D01*
X6672100D02*
Y5835217D01*
X6697492D01*
X6722884Y5809825D01*
Y5733650D01*
Y5809825D01*
X6748276Y5835217D01*
X6773667Y5809825D01*
Y5733650D01*
X5783388Y6165409D02*
X5808780Y6190801D01*
X5859563D01*
X5884955Y6165409D01*
Y6063842D01*
X5859563Y6038450D01*
X5808780D01*
X5783388Y6063842D01*
Y6165409D01*
X5935738Y6038450D02*
Y6063842D01*
X5961130D01*
Y6038450D01*
X5935738D01*
X6062697Y6165409D02*
X6088089Y6190801D01*
X6138873D01*
X6164265Y6165409D01*
Y6063842D01*
X6138873Y6038450D01*
X6088089D01*
X6062697Y6063842D01*
Y6165409D01*
X6215048Y6038450D02*
X6265832D01*
X6240440D01*
Y6190801D01*
X6215048Y6165409D01*
X6342007D02*
X6367399Y6190801D01*
X6418182D01*
X6443574Y6165409D01*
Y6140017D01*
X6418182Y6114625D01*
X6392790D01*
X6418182D01*
X6443574Y6089233D01*
Y6063842D01*
X6418182Y6038450D01*
X6367399D01*
X6342007Y6063842D01*
X6494358Y6038450D02*
Y6140017D01*
X6519749D01*
X6545141Y6114625D01*
Y6038450D01*
Y6114625D01*
X6570533Y6140017D01*
X6595925Y6114625D01*
Y6038450D01*
X6646708D02*
Y6140017D01*
X6672100D01*
X6697492Y6114625D01*
Y6038450D01*
Y6114625D01*
X6722884Y6140017D01*
X6748276Y6114625D01*
Y6038450D01*
X7535536Y6775009D02*
X7510144Y6800401D01*
X7459361D01*
X7433969Y6775009D01*
Y6673442D01*
X7459361Y6648050D01*
X7510144D01*
X7535536Y6673442D01*
X7611711Y6648050D02*
X7662495D01*
X7687887Y6673442D01*
Y6724225D01*
X7662495Y6749617D01*
X7611711D01*
X7586320Y6724225D01*
Y6673442D01*
X7611711Y6648050D01*
X7738670D02*
Y6749617D01*
X7814846D01*
X7840238Y6724225D01*
Y6648050D01*
X7891021D02*
X7967196D01*
X7992588Y6673442D01*
X7967196Y6698833D01*
X7916413D01*
X7891021Y6724225D01*
X7916413Y6749617D01*
X7992588D01*
X8068764Y6775009D02*
Y6749617D01*
X8043372D01*
X8094155D01*
X8068764D01*
Y6673442D01*
X8094155Y6648050D01*
X8195722Y6749617D02*
X8246506D01*
X8271898Y6724225D01*
Y6648050D01*
X8195722D01*
X8170331Y6673442D01*
X8195722Y6698833D01*
X8271898D01*
X8322681Y6648050D02*
Y6749617D01*
X8398857D01*
X8424249Y6724225D01*
Y6648050D01*
X8500424Y6775009D02*
Y6749617D01*
X8475032D01*
X8525816D01*
X8500424D01*
Y6673442D01*
X8525816Y6648050D01*
X7433969Y3727009D02*
X7459361Y3752401D01*
X7510144D01*
X7535536Y3727009D01*
Y3701617D01*
X7510144Y3676225D01*
X7484752D01*
X7510144D01*
X7535536Y3650833D01*
Y3625442D01*
X7510144Y3600050D01*
X7459361D01*
X7433969Y3625442D01*
X7586320Y3600050D02*
Y3625442D01*
X7611711D01*
Y3600050D01*
X7586320D01*
X7713278Y3727009D02*
X7738670Y3752401D01*
X7789454D01*
X7814846Y3727009D01*
Y3701617D01*
X7789454Y3676225D01*
X7814846Y3650833D01*
Y3625442D01*
X7789454Y3600050D01*
X7738670D01*
X7713278Y3625442D01*
Y3650833D01*
X7738670Y3676225D01*
X7713278Y3701617D01*
Y3727009D01*
X7738670Y3676225D02*
X7789454D01*
X7510144Y4209650D02*
Y4362001D01*
X7433969Y4285825D01*
X7535536D01*
X7586320Y4209650D02*
Y4235042D01*
X7611711D01*
Y4209650D01*
X7586320D01*
X7814846Y4362001D02*
X7764062Y4336609D01*
X7713278Y4285825D01*
Y4235042D01*
X7738670Y4209650D01*
X7789454D01*
X7814846Y4235042D01*
Y4260433D01*
X7789454Y4285825D01*
X7713278D01*
X7510144Y4819250D02*
Y4971601D01*
X7433969Y4895425D01*
X7535536D01*
X7586320Y4819250D02*
Y4844642D01*
X7611711D01*
Y4819250D01*
X7586320D01*
X7814846Y4971601D02*
X7713278D01*
Y4895425D01*
X7764062Y4920817D01*
X7789454D01*
X7814846Y4895425D01*
Y4844642D01*
X7789454Y4819250D01*
X7738670D01*
X7713278Y4844642D01*
X7510144Y5428850D02*
Y5581201D01*
X7433969Y5505025D01*
X7535536D01*
X7586320Y5428850D02*
Y5454242D01*
X7611711D01*
Y5428850D01*
X7586320D01*
X7814846Y5581201D02*
X7764062Y5555809D01*
X7713278Y5505025D01*
Y5454242D01*
X7738670Y5428850D01*
X7789454D01*
X7814846Y5454242D01*
Y5479633D01*
X7789454Y5505025D01*
X7713278D01*
X7433969Y6165409D02*
X7459361Y6190801D01*
X7510144D01*
X7535536Y6165409D01*
Y6140017D01*
X7510144Y6114625D01*
X7484752D01*
X7510144D01*
X7535536Y6089233D01*
Y6063842D01*
X7510144Y6038450D01*
X7459361D01*
X7433969Y6063842D01*
X7586320Y6038450D02*
Y6063842D01*
X7611711D01*
Y6038450D01*
X7586320D01*
X7713278Y6165409D02*
X7738670Y6190801D01*
X7789454D01*
X7814846Y6165409D01*
Y6140017D01*
X7789454Y6114625D01*
X7814846Y6089233D01*
Y6063842D01*
X7789454Y6038450D01*
X7738670D01*
X7713278Y6063842D01*
Y6089233D01*
X7738670Y6114625D01*
X7713278Y6140017D01*
Y6165409D01*
X7738670Y6114625D02*
X7789454D01*
X8881416Y6800401D02*
Y6648050D01*
X8957591D01*
X8982983Y6673442D01*
Y6698833D01*
X8957591Y6724225D01*
X8881416D01*
X8957591D01*
X8982983Y6749617D01*
Y6775009D01*
X8957591Y6800401D01*
X8881416D01*
X9059158Y6648050D02*
X9109942D01*
X9135334Y6673442D01*
Y6724225D01*
X9109942Y6749617D01*
X9059158D01*
X9033766Y6724225D01*
Y6673442D01*
X9059158Y6648050D01*
X9211509Y6749617D02*
X9262292D01*
X9287684Y6724225D01*
Y6648050D01*
X9211509D01*
X9186117Y6673442D01*
X9211509Y6698833D01*
X9287684D01*
X9338468Y6749617D02*
Y6648050D01*
Y6698833D01*
X9363860Y6724225D01*
X9389251Y6749617D01*
X9414643D01*
X9592386Y6800401D02*
Y6648050D01*
X9516210D01*
X9490818Y6673442D01*
Y6724225D01*
X9516210Y6749617D01*
X9592386D01*
X9795520Y6800401D02*
Y6648050D01*
X9897087D01*
X9973263Y6749617D02*
X10024046D01*
X10049438Y6724225D01*
Y6648050D01*
X9973263D01*
X9947871Y6673442D01*
X9973263Y6698833D01*
X10049438D01*
X10100221Y6749617D02*
Y6673442D01*
X10125613Y6648050D01*
X10201789D01*
Y6622658D01*
X10176397Y6597266D01*
X10151005D01*
X10201789Y6648050D02*
Y6749617D01*
X10328747Y6648050D02*
X10277964D01*
X10252572Y6673442D01*
Y6724225D01*
X10277964Y6749617D01*
X10328747D01*
X10354139Y6724225D01*
Y6698833D01*
X10252572D01*
X10404923Y6749617D02*
Y6648050D01*
Y6698833D01*
X10430315Y6724225D01*
X10455706Y6749617D01*
X10481098D01*
X10811191Y6775009D02*
X10785800Y6800401D01*
X10735016D01*
X10709624Y6775009D01*
Y6749617D01*
X10735016Y6724225D01*
X10785800D01*
X10811191Y6698833D01*
Y6673442D01*
X10785800Y6648050D01*
X10735016D01*
X10709624Y6673442D01*
X10887367Y6775009D02*
Y6749617D01*
X10861975D01*
X10912758D01*
X10887367D01*
Y6673442D01*
X10912758Y6648050D01*
X11014326Y6749617D02*
X11065109D01*
X11090501Y6724225D01*
Y6648050D01*
X11014326D01*
X10988934Y6673442D01*
X11014326Y6698833D01*
X11090501D01*
X11242852Y6749617D02*
X11166676D01*
X11141285Y6724225D01*
Y6673442D01*
X11166676Y6648050D01*
X11242852D01*
X11293635D02*
Y6800401D01*
Y6698833D02*
X11369811Y6749617D01*
X11293635Y6698833D02*
X11369811Y6648050D01*
%TF.MD5,dc5688af9f4155232e37be9d5b6117d2*%
M02*
