<svg width="179.00000776mm" height="38.00002814mm" viewBox="0 0 70472444 14960641"  version="1.1" xmlns="http://www.w3.org/2000/svg" xmlns:xlink="http://www.w3.org/1999/xlink">
<desc>
Origin 43700788 9842526 Bound 8464567 9842515 70472444 14960641
</desc>
<g fill-rule="evenodd" fill="rgb(128, 0, 128)" stroke="black" stroke-width="1" transform="translate(0, 14960641) scale(1, -1) translate(-8464567, -9842515)">
<path id="N" d="M 77667503.00 24803150.00 A 1382227.88 1382227.88 0 0 0 77667503.00 22047244.00 L 77559056.00 22047243.00 L 77481808.00 22044714.00 A 1181135.09 1181135.09 0 0 1 76377955.00 20866142.00 L 76377955.00 13779528.00 L 76380483.00 13702280.00 A 1181135.09 1181135.09 0 0 1 77559056.00 12598425.00 L 77667503.00 12598425.00 A 1382205.90 1382205.90 0 0 0 77667503.00 9842515.00 L 9734072.00 9842520.00 A 1382187.39 1382187.39 0 0 0 9734072.00 12598426.00 L 9842520.00 12598427.00 L 9919767.00 12600955.00 A 1181135.09 1181135.09 0 0 1 11023621.00 13779528.00 L 11023621.00 20866142.00 L 11021092.00 20943389.00 A 1181135.09 1181135.09 0 0 1 9842520.00 22047244.00 L 9734072.00 22047244.00 A 1382187.39 1382187.39 0 0 0 9734072.00 24803150.00 L 77667503.00 24803150.00  zM 9842517.22 11220484.24 m -1182951.76 0 a 1182951.76 1182951.76 0 1 1 2365903.51 0a 1182951.76 1182951.76 0 1 1 -2365903.51 0M 9842517.22 23425208.24 m -1182951.76 0 a 1182951.76 1182951.76 0 1 1 2365903.51 0a 1182951.76 1182951.76 0 1 1 -2365903.51 0M 12007876.35 22637781.43 m -237377.57 0 a 237377.57 237377.57 0 1 1 474755.15 0a 237377.57 237377.57 0 1 1 -474755.15 0M 29362208.75 22188952.81 m -493671.19 0 a 493671.19 493671.19 0 1 1 987342.38 0a 493671.19 493671.19 0 1 1 -987342.38 0M 29362208.75 13842496.81 m -493671.19 0 a 493671.19 493671.19 0 1 1 987342.38 0a 493671.19 493671.19 0 1 1 -987342.38 0M 33661415.12 16322843.96 m -334278.04 0 a 334278.04 334278.04 0 1 1 668556.08 0a 334278.04 334278.04 0 1 1 -668556.08 0M 33661415.12 17322843.96 m -334278.04 0 a 334278.04 334278.04 0 1 1 668556.08 0a 334278.04 334278.04 0 1 1 -668556.08 0M 33661415.12 18322843.96 m -334278.04 0 a 334278.04 334278.04 0 1 1 668556.08 0a 334278.04 334278.04 0 1 1 -668556.08 0M 38015084.49 11637099.12 m -396937.88 0 a 396937.88 396937.88 0 1 1 793875.75 0a 396937.88 396937.88 0 1 1 -793875.75 0M 38015084.49 14347099.12 m -396937.88 0 a 396937.88 396937.88 0 1 1 793875.75 0a 396937.88 396937.88 0 1 1 -793875.75 0M 35661415.12 16322843.96 m -334278.04 0 a 334278.04 334278.04 0 1 1 668556.08 0a 334278.04 334278.04 0 1 1 -668556.08 0M 35661415.12 17322843.96 m -334278.04 0 a 334278.04 334278.04 0 1 1 668556.08 0a 334278.04 334278.04 0 1 1 -668556.08 0M 35661415.12 18322843.96 m -334278.04 0 a 334278.04 334278.04 0 1 1 668556.08 0a 334278.04 334278.04 0 1 1 -668556.08 0M 38690945.00 18809055.00 L 38080709.00 18809055.00 L 38080709.00 18198819.00 L 38690945.00 18198819.00 L 38690945.00 18809055.00  zM 36730379.00 21870078.00 L 36730379.00 21043308.00 A 395576.57 395576.57 0 0 1 37521591.00 21043308.00 L 37521591.00 21870078.00 A 395576.57 395576.57 0 1 1 36730379.00 21870078.00  zM 39370082.13 12992106.82 m -296446.18 0 a 296446.18 296446.18 0 1 1 592892.36 0a 296446.18 296446.18 0 1 1 -592892.36 0M 40725084.49 11637099.12 m -396937.88 0 a 396937.88 396937.88 0 1 1 793875.75 0a 396937.88 396937.88 0 1 1 -793875.75 0M 43700783.53 11220500.91 m -1163219.09 0 a 1163219.09 1163219.09 0 1 1 2326438.17 0a 1163219.09 1163219.09 0 1 1 -2326438.17 0M 40725084.49 14347099.12 m -396937.88 0 a 396937.88 396937.88 0 1 1 793875.75 0a 396937.88 396937.88 0 1 1 -793875.75 0M 43603406.00 15730740.00 L 43225960.00 15730740.00 L 43225960.00 15371634.00 L 43603406.00 15371634.00 L 43603406.00 15730740.00  zM 44175616.00 15730740.00 L 43798170.00 15730740.00 L 43798170.00 15371634.00 L 44175616.00 15371634.00 L 44175616.00 15730740.00  zM 42440945.00 16692919.00 L 41830709.00 16692919.00 L 41830709.00 16181109.00 L 42440945.00 16181109.00 L 42440945.00 16692919.00  zM 42440945.00 18464573.00 L 41830709.00 18464573.00 L 41830709.00 17952763.00 L 42440945.00 17952763.00 L 42440945.00 18464573.00  zM 39370076.63 18503950.19 m -306580.81 0 a 306580.81 306580.81 0 1 1 613161.63 0a 306580.81 306580.81 0 1 1 -613161.63 0M 40354328.63 18503950.19 m -306580.81 0 a 306580.81 306580.81 0 1 1 613161.63 0a 306580.81 306580.81 0 1 1 -613161.63 0M 38385824.63 24212612.19 m -306580.81 0 a 306580.81 306580.81 0 1 1 613161.63 0a 306580.81 306580.81 0 1 1 -613161.63 0M 40354328.63 24212612.19 m -306580.81 0 a 306580.81 306580.81 0 1 1 613161.63 0a 306580.81 306580.81 0 1 1 -613161.63 0M 41218567.00 21870078.00 L 41218567.00 21043308.00 A 395576.57 395576.57 0 0 1 42009779.00 21043308.00 L 42009779.00 21870078.00 A 395576.57 395576.57 0 1 1 41218567.00 21870078.00  zM 45570867.00 18464573.00 L 44960631.00 18464573.00 L 44960631.00 17952763.00 L 45570867.00 17952763.00 L 45570867.00 18464573.00  zM 43700785.22 23425208.24 m -1182951.76 0 a 1182951.76 1182951.76 0 1 1 2365903.51 0a 1182951.76 1182951.76 0 1 1 -2365903.51 0M 45570867.00 16692919.00 L 44960631.00 16692919.00 L 44960631.00 16181109.00 L 45570867.00 16181109.00 L 45570867.00 16692919.00  zM 48014199.00 19264205.00 L 47655093.00 19264205.00 L 47655093.00 18886985.00 L 48014199.00 18886985.00 L 48014199.00 19264205.00  zM 48014199.00 18711453.00 L 47655093.00 18711453.00 L 47655093.00 18334233.00 L 48014199.00 18334233.00 L 48014199.00 18711453.00  zM 48998451.00 18711453.00 L 48639345.00 18711453.00 L 48639345.00 18334233.00 L 48998451.00 18334233.00 L 48998451.00 18711453.00  zM 48998451.00 19264205.00 L 48639345.00 19264205.00 L 48639345.00 18886985.00 L 48998451.00 18886985.00 L 48998451.00 19264205.00  zM 50966955.00 18711453.00 L 50607849.00 18711453.00 L 50607849.00 18334233.00 L 50966955.00 18334233.00 L 50966955.00 18711453.00  zM 50966955.00 19264205.00 L 50607849.00 19264205.00 L 50607849.00 18886985.00 L 50966955.00 18886985.00 L 50966955.00 19264205.00  zM 63220476.75 13842496.81 m -493671.19 0 a 493671.19 493671.19 0 1 1 987342.38 0a 493671.19 493671.19 0 1 1 -987342.38 0M 67519684.12 16322843.96 m -334278.04 0 a 334278.04 334278.04 0 1 1 668556.08 0a 334278.04 334278.04 0 1 1 -668556.08 0M 67519684.12 17322843.96 m -334278.04 0 a 334278.04 334278.04 0 1 1 668556.08 0a 334278.04 334278.04 0 1 1 -668556.08 0M 63220476.75 22188952.81 m -493671.19 0 a 493671.19 493671.19 0 1 1 987342.38 0a 493671.19 493671.19 0 1 1 -987342.38 0M 67519684.12 18322843.96 m -334278.04 0 a 334278.04 334278.04 0 1 1 668556.08 0a 334278.04 334278.04 0 1 1 -668556.08 0M 69519684.12 16322843.96 m -334278.04 0 a 334278.04 334278.04 0 1 1 668556.08 0a 334278.04 334278.04 0 1 1 -668556.08 0M 69519684.12 17322843.96 m -334278.04 0 a 334278.04 334278.04 0 1 1 668556.08 0a 334278.04 334278.04 0 1 1 -668556.08 0M 69519684.12 18322843.96 m -334278.04 0 a 334278.04 334278.04 0 1 1 668556.08 0a 334278.04 334278.04 0 1 1 -668556.08 0M 71873353.49 11637099.12 m -396937.88 0 a 396937.88 396937.88 0 1 1 793875.75 0a 396937.88 396937.88 0 1 1 -793875.75 0M 74583353.49 11637099.12 m -396937.88 0 a 396937.88 396937.88 0 1 1 793875.75 0a 396937.88 396937.88 0 1 1 -793875.75 0M 75393703.35 10629907.43 m -237377.57 0 a 237377.57 237377.57 0 1 1 474755.15 0a 237377.57 237377.57 0 1 1 -474755.15 0M 77559053.22 11220484.24 m -1182951.76 0 a 1182951.76 1182951.76 0 1 1 2365903.51 0a 1182951.76 1182951.76 0 1 1 -2365903.51 0M 71873353.49 14347099.12 m -396937.88 0 a 396937.88 396937.88 0 1 1 793875.75 0a 396937.88 396937.88 0 1 1 -793875.75 0M 73228351.13 12992106.82 m -296446.18 0 a 296446.18 296446.18 0 1 1 592892.36 0a 296446.18 296446.18 0 1 1 -592892.36 0M 74583353.49 14347099.12 m -396937.88 0 a 396937.88 396937.88 0 1 1 793875.75 0a 396937.88 396937.88 0 1 1 -793875.75 0M 74212597.63 18503950.19 m -306580.81 0 a 306580.81 306580.81 0 1 1 613161.63 0a 306580.81 306580.81 0 1 1 -613161.63 0M 72549214.00 18809055.00 L 71938978.00 18809055.00 L 71938978.00 18198819.00 L 72549214.00 18198819.00 L 72549214.00 18809055.00  zM 73228345.63 18503950.19 m -306580.81 0 a 306580.81 306580.81 0 1 1 613161.63 0a 306580.81 306580.81 0 1 1 -613161.63 0M 70588648.00 21870078.00 L 70588648.00 21043308.00 A 395576.57 395576.57 0 1 1 71379860.00 21043308.00 L 71379860.00 21870078.00 A 395576.57 395576.57 0 1 1 70588648.00 21870078.00  zM 72244093.63 24212612.19 m -306580.81 0 a 306580.81 306580.81 0 1 1 613161.63 0a 306580.81 306580.81 0 1 1 -613161.63 0M 75076836.00 21870078.00 L 75076836.00 21043308.00 A 395576.57 395576.57 0 1 1 75868048.00 21043308.00 L 75868048.00 21870078.00 A 395576.57 395576.57 0 1 1 75076836.00 21870078.00  zM 74212597.63 24212612.19 m -306580.81 0 a 306580.81 306580.81 0 1 1 613161.63 0a 306580.81 306580.81 0 1 1 -613161.63 0M 77559053.22 23425208.24 m -1182951.76 0 a 1182951.76 1182951.76 0 1 1 2365903.51 0a 1182951.76 1182951.76 0 1 1 -2365903.51 0"/>
</g>
</svg>
