<svg width="179.00000776mm" height="38.00002814mm" viewBox="0 0 70472444 14960641"  version="1.1" xmlns="http://www.w3.org/2000/svg" xmlns:xlink="http://www.w3.org/1999/xlink">
<desc>
Origin 43700788 9842526 Bound 8464567 9842515 70472444 14960641
</desc>
<g fill-rule="evenodd" fill="rgb(188, 142, 0)" stroke="black" stroke-width="1" transform="translate(0, 14960641) scale(1, -1) translate(-8464567, -9842515)">
<path id="N" d="M 59744095.00 24722873.53 L 59744095.00 22047244.00 L 42053432.90 22047244.00 L 42027881.00 22108932.00 A 477716.66 477716.66 0 0 1 41200465.00 22108932.00 L 41174913.10 22047244.00 L 37565244.90 22047244.00 L 37539693.00 22108932.00 A 477716.66 477716.66 0 0 1 36712277.00 22108932.00 L 36686725.10 22047244.00 L 29975541.32 22047244.00 L 29943821.29 22085895.13 L 29952756.00 22130812.00 A 593394.73 593394.73 0 1 1 28771654.00 22130812.00 L 28780588.71 22085895.13 L 28748868.68 22047244.00 L 20374016.00 22047244.00 L 20374016.00 17814967.00 L 15157481.00 17814967.00 L 15157481.00 17322841.00 L 13681103.00 17322841.00 L 13681103.00 24722877.76 L 59744095.00 24722873.53  zM 17055511.00 18282880.00 L 16975590.00 18282880.00 L 16975590.00 17975597.00 L 17282875.00 17975597.00 L 17282875.00 18055518.00 L 17055511.00 18055518.00 L 17055511.00 18282880.00  zM 17282875.00 18670085.00 L 16975590.00 18670085.00 L 16975590.00 18362800.00 L 17055511.00 18362800.00 L 17055511.00 18590164.00 L 17282875.00 18590164.00 L 17282875.00 18670085.00  zM 17322837.53 18322826.54 m -168781.46 0 a 168781.46 168781.46 0 1 1 337562.93 0a 168781.46 168781.46 0 1 1 -337562.93 0M 17670078.00 18670085.00 L 17362795.00 18670085.00 L 17362795.00 18590164.00 L 17590157.00 18590164.00 L 17590157.00 18362800.00 L 17670078.00 18362800.00 L 17670078.00 18670085.00  zM 17670078.00 18282880.00 L 17590157.00 18282880.00 L 17590157.00 18055518.00 L 17362795.00 18055518.00 L 17362795.00 17975597.00 L 17670078.00 17975597.00 L 17670078.00 18282880.00  zM 38385827.00 24212592.12 m -297829.77 0 a 297829.77 297829.77 0 1 1 595659.55 0a 297829.77 297829.77 0 1 1 -595659.55 0M 40354331.00 24212592.12 m -297829.77 0 a 297829.77 297829.77 0 1 1 595659.55 0a 297829.77 297829.77 0 1 1 -595659.55 0M 43700788.00 23425184.23 m -712102.62 0 a 712102.62 712102.62 0 1 1 1424205.24 0a 712102.62 712102.62 0 1 1 -1424205.24 0"/>
<path id="N" d="M 29254569.00 16459299.00 L 31420824.97 14293044.00 L 32634295.94 14293044.00 L 33500544.00 15159293.00 A 198561.45 198561.45 0 0 0 33640940.00 15217447.00 L 41985047.00 15217447.00 A 198550.47 198550.47 0 0 0 42125442.00 15159293.00 L 43689327.88 13595407.98 L 43769514.00 13524846.00 L 43783058.00 13515644.00 L 43804207.00 13505186.00 L 43814962.00 13505467.00 A 316472.09 316472.09 0 1 0 43498478.00 13188983.00 L 43499246.81 13196789.04 L 43494854.00 13209322.00 L 43479099.00 13234431.00 L 43435609.00 13286941.00 L 41902805.97 14820349.00 L 33723181.94 14820349.00 L 32856932.00 13954100.00 A 198526.53 198526.53 0 0 0 32716537.00 13895946.00 L 31338583.00 13895946.00 A 198537.76 198537.76 0 0 0 31198187.00 13954100.00 L 29031932.97 16120355.00 L 19757344.00 16120355.00 L 19276806.18 15639817.18 L 19471104.00 15445520.00 A 198551.08 198551.08 0 0 0 19190313.00 15164729.00 L 18885101.00 15469942.00 A 198526.53 198526.53 0 0 0 18826947.00 15610337.00 L 18826947.00 15669297.00 A 198550.47 198550.47 0 0 0 18885101.00 15809692.00 L 19534708.00 16459299.00 A 198526.53 198526.53 0 0 0 19675103.00 16517453.00 L 29114174.00 16517453.00 A 198526.53 198526.53 0 0 0 29254569.00 16459299.00  zM 43814960.30 13188994.13 m -206479.87 0 a 206479.87 206479.87 0 1 1 412959.74 0a 206479.87 206479.87 0 1 1 -412959.74 0"/>
<path id="N" d="M 25039371.00 12716542.00 L 32453812.16 12716542.00 L 32463775.36 12696465.26 L 32469140.60 12666541.60 L 32431180.00 12628581.00 A 160563.45 160563.45 0 1 1 32653890.00 12672881.00 L 32633798.64 12681203.22 L 32622066.98 12740182.98 L 33977762.45 14095878.45 L 33981477.00 14104846.00 L 34000409.00 14129519.00 L 34025082.00 14148451.00 L 34034049.55 14152165.55 L 34055119.00 14173235.00 L 34330708.00 14173235.00 L 36259843.00 12244101.00 L 47616413.00 12244101.00 L 47616413.00 12812758.60 L 47609608.00 12919356.00 L 47606537.00 12935439.00 L 47598978.00 12957789.00 L 47591174.00 12965195.00 A 316475.93 316475.93 0 1 0 48038750.00 12965195.00 L 48032685.44 12960217.93 L 48026930.00 12948250.00 L 48020316.00 12919356.00 L 48013938.00 12851473.00 L 48013511.00 12244101.00 L 66247872.00 12244101.00 L 68053863.00 14645676.00 L 68346457.00 14645676.00 L 68346457.00 10826778.00 L 44343062.11 10826778.00 L 44319491.99 10870874.54 L 44328794.00 10884796.00 A 712061.43 712061.43 0 1 1 43072780.00 10884796.00 L 43082082.01 10870874.54 L 43058511.89 10826778.00 L 21377953.00 10826778.00 L 21377953.00 15905518.00 L 21850395.00 15905518.00 L 25039371.00 12716542.00  zM 32667323.00 12027566.86 m -160563.45 0 a 160563.45 160563.45 0 1 1 321126.90 0a 160563.45 160563.45 0 1 1 -321126.90 0M 38015079.00 11637123.82 m -396821.96 0 a 396821.96 396821.96 0 1 1 793643.93 0a 396821.96 396821.96 0 1 1 -793643.93 0M 40725079.00 11637123.82 m -396821.96 0 a 396821.96 396821.96 0 1 1 793643.93 0a 396821.96 396821.96 0 1 1 -793643.93 0M 47814960.30 13188994.13 m -206479.87 0 a 206479.87 206479.87 0 1 1 412959.74 0a 206479.87 206479.87 0 1 1 -412959.74 0M 65644950.00 11848610.86 m -160563.45 0 a 160563.45 160563.45 0 1 1 321126.90 0a 160563.45 160563.45 0 1 1 -321126.90 0"/>
<path id="N" d="M 73179134.00 19861192.00 L 73172831.18 19862021.73 L 73159742.00 19860642.00 L 73132766.00 19851690.00 L 73106200.00 19834828.00 L 72834289.00 19563380.00 L 72834289.00 17468354.00 L 72830408.00 17448845.00 L 72819358.00 17432306.00 L 72162033.00 16774982.00 L 72145494.00 16763931.00 L 72125985.00 16760050.00 L 68028997.00 16760050.00 L 67913773.00 16643625.00 L 67900425.00 16622519.00 L 67888709.00 16597871.00 L 67878623.00 16569681.00 L 67870167.00 16537950.00 L 67863342.00 16502676.00 L 67858147.00 16463860.00 L 67852649.00 16375603.00 L 67852422.12 16338581.92 L 67853973.00 16322835.00 A 334278.04 334278.04 0 0 0 67745715.00 16076598.00 L 67734188.00 16049707.00 L 67725542.00 16010048.00 L 67719779.00 15957621.00 L 67718235.00 15922694.03 L 67718235.00 15669298.00 A 198537.76 198537.76 0 0 0 67660081.00 15528902.00 L 67006531.00 14875353.00 A 198526.53 198526.53 0 0 0 66866136.00 14817199.00 L 66313232.40 14817199.00 L 66206635.00 14810394.00 L 66190552.00 14807323.00 L 66168202.00 14799764.00 L 66160796.00 14791960.00 A 316475.93 316475.93 0 0 0 65713220.00 14791960.00 L 65708242.93 14798024.56 L 65696275.00 14803780.00 L 65667381.00 14810394.00 L 65599498.00 14816772.00 L 47013511.00 14817199.00 L 47013511.00 13565207.40 L 47020316.00 13458610.00 L 47023387.00 13442527.00 L 47030946.00 13420177.00 L 47038750.00 13412771.00 A 316475.93 316475.93 0 1 0 46591174.00 13412771.00 L 46597238.56 13417748.07 L 46602994.00 13429716.00 L 46609608.00 13458610.00 L 46615986.00 13526493.00 L 46616413.00 14817199.00 L 42976386.00 14817199.00 A 198550.47 198550.47 0 0 0 42835991.00 14875352.00 L 42279964.91 15431379.00 L 35000000.00 15431379.00 A 198537.76 198537.76 0 0 0 34859604.00 15489533.00 L 34224851.92 16124286.00 L 34073620.62 16124286.00 L 33974204.00 16116979.00 L 33934545.00 16108333.00 L 33907654.00 16096806.00 L 33897794.00 16086458.00 A 334320.40 334320.40 0 0 0 33415180.00 16096806.00 L 33388289.00 16108333.00 L 33348630.00 16116979.00 L 33296203.00 16122742.00 L 33261276.03 16124286.00 L 33108143.00 16124286.00 L 32993826.00 16009969.00 L 32993826.00 15253645.00 A 198550.47 198550.47 0 0 0 32935672.00 15113250.00 L 32705047.00 14882625.00 A 198526.53 198526.53 0 0 0 32564652.00 14824471.00 L 32442982.04 14824471.00 L 32327089.89 14821888.69 L 32302528.00 14791960.00 A 316475.93 316475.93 0 1 0 32302528.00 15239536.00 L 32317273.16 15221569.00 L 32482411.00 15221569.00 L 32596728.00 15335886.00 L 32596728.00 16092210.00 A 198550.47 198550.47 0 0 0 32654882.00 16232605.00 L 32885507.00 16463230.00 A 198526.53 198526.53 0 0 0 33025902.00 16521384.00 L 33249213.38 16521384.00 L 33348630.00 16528691.00 L 33388289.00 16537337.00 L 33415180.00 16548864.00 L 33425040.00 16559212.00 A 334320.40 334320.40 0 0 0 33907654.00 16548864.00 L 33934545.00 16537337.00 L 33974204.00 16528691.00 L 34026631.00 16522928.00 L 34061557.97 16521384.00 L 34307093.00 16521384.00 A 198550.47 198550.47 0 0 0 34447488.00 16463230.00 L 35082241.92 15828477.00 L 38823497.61 15828477.00 L 38831292.00 15846629.00 L 38842899.00 15883142.00 L 38852720.00 15924979.00 L 38860755.00 15972140.00 L 38871469.00 16082434.00 L 38874060.00 16143516.00 L 38874060.00 19486069.00 L 38877941.00 19505578.00 L 38888992.00 19522117.00 L 39271334.01 19904459.01 L 39280298.00 19916197.00 L 39294524.00 19942900.00 L 39300840.00 19970012.00 L 39300163.00 19980321.00 A 119128.81 119128.81 0 1 0 39419292.00 19861192.00 L 39412989.18 19862021.73 L 39399900.00 19860642.00 L 39372924.00 19851690.00 L 39346358.00 19834828.00 L 38976020.00 19464953.00 L 38976020.00 16144440.35 L 38989325.00 15972140.00 L 38997360.00 15924979.00 L 39007181.00 15883142.00 L 39018788.00 15846629.00 L 39026582.39 15828477.00 L 42362206.00 15828477.00 A 198550.47 198550.47 0 0 0 42502601.00 15770323.00 L 43058627.91 15214297.00 L 48285635.00 15214297.00 L 48285635.00 18383934.08 L 48284117.00 18399244.00 L 48279677.00 18419548.00 L 48268854.00 18446093.00 L 48248360.00 18474850.00 A 119128.81 119128.81 0 1 0 48435766.00 18450178.00 L 48409833.00 18427919.00 L 48395685.00 18404165.00 L 48388066.00 18374199.00 L 48387595.00 15214297.00 L 65560783.60 15214297.00 L 65667381.00 15221102.00 L 65683464.00 15224173.00 L 65705814.00 15231732.00 L 65713220.00 15239536.00 A 316475.93 316475.93 0 0 0 66160796.00 15239536.00 L 66165773.07 15233471.44 L 66177741.00 15227716.00 L 66206635.00 15221102.00 L 66274518.00 15214724.00 L 66783894.91 15214297.00 L 67321137.00 15751539.91 L 67321137.00 15910631.38 L 67313830.00 16010048.00 L 67305184.00 16049707.00 L 67293657.00 16076598.00 L 67283309.00 16086458.00 A 334320.40 334320.40 0 0 0 67519686.00 16657122.00 L 67535432.92 16655571.12 L 67572454.00 16655798.00 L 67660711.00 16661296.00 L 67699527.00 16666491.00 L 67734801.00 16673316.00 L 67766532.00 16681772.00 L 67794722.00 16691858.00 L 67819370.00 16703574.00 L 67840476.00 16716922.00 L 67971833.00 16847078.00 L 67988372.00 16858129.00 L 68007881.00 16862010.00 L 72104868.98 16862010.00 L 72732329.00 17489470.98 L 72732329.00 19584496.00 L 72736210.00 19604005.00 L 72747261.00 19620544.00 L 73031176.01 19904459.01 L 73040140.00 19916197.00 L 73054366.00 19942900.00 L 73060682.00 19970012.00 L 73060005.00 19980321.00 A 119128.81 119128.81 0 1 0 73179134.00 19861192.00  zM 32078736.35 15015766.58 m -198530.42 0 a 198530.42 198530.42 0 1 1 397060.85 0a 198530.42 198530.42 0 1 1 -397060.85 0M 33661414.44 16322847.68 m -216405.32 0 a 216405.32 216405.32 0 1 1 432810.64 0a 216405.32 216405.32 0 1 1 -432810.64 0M 46814960.30 13188994.13 m -206479.87 0 a 206479.87 206479.87 0 1 1 412959.74 0a 206479.87 206479.87 0 1 1 -412959.74 0M 65937004.35 15015766.58 m -198530.42 0 a 198530.42 198530.42 0 1 1 397060.85 0a 198530.42 198530.42 0 1 1 -397060.85 0M 67519683.44 16322847.68 m -216405.32 0 a 216405.32 216405.32 0 1 1 432810.64 0a 216405.32 216405.32 0 1 1 -432810.64 0"/>
<path id="N" d="M 13599616.00 24722877.76 L 13599616.00 17322841.00 A 81487.55 81487.55 0 0 1 13681103.00 17241354.00 L 15157481.00 17241354.00 A 81487.55 81487.55 0 0 1 15238968.00 17322841.00 L 15238968.00 17733480.00 L 20374016.00 17733480.00 A 81487.55 81487.55 0 0 1 20455503.00 17814967.00 L 20455503.00 21965757.00 L 28756856.00 21966149.00 L 28780052.41 21971959.73 L 28811043.52 21953967.41 L 28824850.36 21941527.64 L 28868804.00 21859296.00 A 593412.37 593412.37 0 0 1 29855606.00 21859296.00 L 29899559.93 21941528.17 L 29913363.02 21953964.83 L 29930356.20 21963830.77 L 29964286.32 21967140.31 L 29967554.00 21966149.00 L 36622955.75 21965757.00 L 36655923.45 21928164.40 L 36648276.00 21870078.00 L 36648276.00 21496653.00 L 36730379.00 21496653.00 L 36730379.00 21870078.00 A 395576.57 395576.57 0 1 0 37521591.00 21870078.00 L 37521591.00 21496653.00 L 37603694.00 21496653.00 L 37603694.00 21870078.00 L 37596046.55 21928164.40 L 37629014.25 21965757.00 L 41111143.75 21965757.00 L 41144111.45 21928164.40 L 41136464.00 21870078.00 L 41136464.00 21496653.00 L 41218567.00 21496653.00 L 41218567.00 21870078.00 A 395576.57 395576.57 0 1 0 42009779.00 21870078.00 L 42009779.00 21496653.00 L 42091882.00 21496653.00 L 42091882.00 21870078.00 L 42084234.55 21928164.40 L 42117202.25 21965757.00 L 59744095.00 21965757.00 A 81487.55 81487.55 0 0 1 59825582.00 22047244.00 L 59825582.00 24722873.52 L 77661181.97 24722872.00 A 1301702.88 1301702.88 0 0 0 77661181.79 22127521.94 L 77559055.00 22127521.00 L 77479181.00 22124949.00 L 77318156.00 22104139.00 L 77158626.00 22062104.00 A 1261105.83 1261105.83 0 0 1 76297720.00 20868768.00 L 76297676.00 13779528.00 L 76300248.00 13699653.00 L 76321058.00 13538628.00 L 76363093.00 13379098.00 A 1261105.83 1261105.83 0 0 1 77556430.00 12518192.00 L 77661181.23 12518147.12 A 1301696.29 1301696.29 0 0 0 77661182.15 9922793.00 L 9740392.85 9922798.00 A 1301664.13 1301664.13 0 0 0 9740393.40 12518148.06 L 9842521.00 12518149.00 L 9922393.00 12520720.00 L 10083419.00 12541530.00 L 10242949.00 12583565.00 A 1261105.83 1261105.83 0 0 1 11103856.00 13776901.00 L 11103900.00 20866142.00 L 11101327.00 20946017.00 L 11080517.00 21107041.00 L 11038482.00 21266571.00 A 1261105.83 1261105.83 0 0 1 9845148.00 22127479.00 L 9740392.85 22127522.00 A 1301664.13 1301664.13 0 0 0 9740393.03 24722872.00 L 11023622.00 24722878.00 L 13599616.00 24722877.76  zM 9842522.69 11220464.28 m -712098.72 0 a 712098.72 712098.72 0 1 1 1424197.44 0a 712098.72 712098.72 0 1 1 -1424197.44 0M 17058153.55 17282880.00 L 16977854.89 17282880.00 L 16984528.00 17232192.00 A 350234.70 350234.70 0 0 1 17232185.00 16984535.00 L 17282875.00 16977861.63 L 17282875.00 17058160.36 L 17270430.00 17059386.00 A 268611.75 268611.75 0 0 0 17059379.00 17270437.00 L 17058153.55 17282880.00  zM 17322831.20 16322855.37 m -268026.63 0 a 268026.63 268026.63 0 1 1 536053.26 0a 268026.63 268026.63 0 1 1 -536053.26 0M 9842522.69 23425188.28 m -712098.72 0 a 712098.72 712098.72 0 1 1 1424197.44 0a 712098.72 712098.72 0 1 1 -1424197.44 0M 17282875.00 17667820.37 L 17232185.00 17661147.00 A 350234.70 350234.70 0 0 1 16984528.00 17413490.00 L 16977854.63 17362800.00 L 17058153.36 17362800.00 L 17059379.00 17375245.00 A 268611.75 268611.75 0 0 0 17270430.00 17586296.00 L 17282875.00 17587521.64 L 17282875.00 17667820.37  zM 17322837.53 17322826.54 m -168781.46 0 a 168781.46 168781.46 0 1 1 337562.93 0a 168781.46 168781.46 0 1 1 -337562.93 0M 17667813.11 17282880.00 L 17587514.45 17282880.00 L 17586289.00 17270437.00 A 268611.75 268611.75 0 0 0 17375238.00 17059386.00 L 17362795.00 17058160.55 L 17362795.00 16977861.89 L 17413483.00 16984535.00 A 350234.70 350234.70 0 0 1 17661140.00 17232192.00 L 17667813.11 17282880.00  zM 17362795.00 17667820.11 L 17362795.00 17587521.45 L 17375238.00 17586296.00 A 268611.75 268611.75 0 0 0 17586289.00 17375245.00 L 17587514.64 17362800.00 L 17667813.37 17362800.00 L 17661140.00 17413490.00 A 350234.70 350234.70 0 0 1 17413483.00 17661147.00 L 17362795.00 17667820.11  zM 29362204.40 13842519.06 m -593408.94 0 a 593408.94 593408.94 0 1 1 1186817.89 0a 593408.94 593408.94 0 1 1 -1186817.89 0M 29114174.00 16598063.00 L 19675103.00 16598063.00 A 279152.53 279152.53 0 0 1 19477708.00 16516299.00 L 18828101.00 15866692.00 A 279144.91 279144.91 0 0 1 18746337.00 15669297.00 L 18746337.00 15610337.00 A 279159.87 279159.87 0 0 1 18828101.00 15412942.00 L 19133314.00 15107729.00 A 279144.91 279144.91 0 0 1 19528104.00 15502519.00 L 19390806.00 15639817.00 L 19790734.00 16039745.00 L 28998543.00 16039745.00 L 31141188.00 13897100.00 A 279144.91 279144.91 0 0 1 31338583.00 13815336.00 L 32716537.00 13815336.00 A 279152.53 279152.53 0 0 1 32913932.00 13897100.00 L 33756571.00 14739739.00 L 37668822.72 14739739.00 L 37684894.71 14692392.08 L 37676361.00 14685844.00 L 37600236.00 14586636.00 L 37552382.00 14471105.00 L 37541320.79 14387086.00 L 37622103.98 14387086.00 L 37625795.00 14424559.00 A 396890.84 396890.84 0 0 0 38404363.00 14424559.00 L 38408054.02 14387086.00 L 38488837.21 14387086.00 L 38477776.00 14471105.00 L 38429922.00 14586636.00 L 38353797.00 14685844.00 L 38345263.29 14692392.08 L 38361335.28 14739739.00 L 40378822.72 14739739.00 L 40394894.71 14692392.08 L 40386361.00 14685844.00 L 40310236.00 14586636.00 L 40262382.00 14471105.00 L 40251320.79 14387086.00 L 40332103.98 14387086.00 L 40335795.00 14424559.00 A 396890.84 396890.84 0 0 0 41114363.00 14424559.00 L 41118054.02 14387086.00 L 41198837.21 14387086.00 L 41187776.00 14471105.00 L 41139922.00 14586636.00 L 41063797.00 14685844.00 L 41055263.29 14692392.08 L 41071335.28 14739739.00 L 41869416.00 14739739.00 L 43336052.30 13273102.70 L 43375164.19 13232244.40 L 43403859.00 13198701.36 L 43417926.66 13179467.86 L 43430245.00 13085898.00 A 398279.91 398279.91 0 1 1 43918047.00 13573700.00 L 43824477.14 13586018.34 L 43734771.00 13663964.00 L 42182442.00 15216293.00 A 279159.08 279159.08 0 0 1 41985047.00 15298057.00 L 33640940.00 15298057.00 A 279159.87 279159.87 0 0 1 33443545.00 15216293.00 L 32600906.00 14373654.00 L 31454214.00 14373654.00 L 29311569.00 16516299.00 A 279144.91 279144.91 0 0 1 29114174.00 16598063.00  zM 32038779.98 21408775.32 L 31975655.00 21400465.00 A 398279.91 398279.91 0 0 1 31694023.00 21118833.00 L 31685712.68 21055707.98 L 31766191.61 21055707.99 L 31768337.00 21077491.00 A 316498.27 316498.27 0 0 0 32016997.00 21326151.00 L 32038779.99 21328296.38 L 32038779.98 21408775.32  zM 31766191.62 20975787.99 L 31685712.68 20975787.98 L 31694023.00 20912663.00 A 398279.91 398279.91 0 0 1 31975655.00 20631031.00 L 32038780.02 20622720.68 L 32038780.01 20703199.61 L 32016997.00 20705345.00 A 316498.27 316498.27 0 0 0 31768337.00 20954005.00 L 31766191.62 20975787.99  zM 32078740.00 16015747.99 m -297823.01 0 a 297823.01 297823.01 0 1 1 595646.03 0a 297823.01 297823.01 0 1 1 -595646.03 0M 32078740.00 17015747.99 m -297823.01 0 a 297823.01 297823.01 0 1 1 595646.03 0a 297823.01 297823.01 0 1 1 -595646.03 0M 33661418.09 17322830.09 m -315697.91 0 a 315697.91 315697.91 0 1 1 631395.82 0a 315697.91 315697.91 0 1 1 -631395.82 0M 32078740.00 18015747.99 m -297823.01 0 a 297823.01 297823.01 0 1 1 595646.03 0a 297823.01 297823.01 0 1 1 -595646.03 0M 33331065.58 18282875.00 L 33250519.73 18282875.00 L 33259439.00 18215125.00 A 416169.69 416169.69 0 0 1 33553707.00 17920857.00 L 33621457.00 17911937.73 L 33621457.00 17992483.58 L 33596201.00 17994971.00 A 334280.99 334280.99 0 0 0 33333553.00 18257619.00 L 33331065.58 18282875.00  zM 33661414.44 18322847.68 m -216405.32 0 a 216405.32 216405.32 0 1 1 432810.64 0a 216405.32 216405.32 0 1 1 -432810.64 0M 32078740.00 19015747.99 m -297823.01 0 a 297823.01 297823.01 0 1 1 595646.03 0a 297823.01 297823.01 0 1 1 -595646.03 0M 33621457.00 18733732.27 L 33553707.00 18724813.00 A 416169.69 416169.69 0 0 1 33259439.00 18430545.00 L 33250519.73 18362795.00 L 33331065.58 18362795.00 L 33333553.00 18388051.00 A 334280.99 334280.99 0 0 0 33596201.00 18650699.00 L 33621457.00 18653186.42 L 33621457.00 18733732.27  zM 32078740.00 20015747.99 m -297823.01 0 a 297823.01 297823.01 0 1 1 595646.03 0a 297823.01 297823.01 0 1 1 -595646.03 0M 32078736.35 21015766.58 m -198530.42 0 a 198530.42 198530.42 0 1 1 397060.85 0a 198530.42 198530.42 0 1 1 -397060.85 0M 32471767.32 20975788.02 L 32391288.39 20975788.01 L 32389143.00 20954005.00 A 316498.27 316498.27 0 0 0 32140483.00 20705345.00 L 32118700.01 20703199.62 L 32118700.02 20622720.68 L 32181825.00 20631031.00 A 398279.91 398279.91 0 0 1 32463457.00 20912663.00 L 32471767.32 20975788.02  zM 32118699.98 21408775.32 L 32118699.99 21328296.39 L 32140483.00 21326151.00 A 316498.27 316498.27 0 0 0 32389143.00 21077491.00 L 32391288.38 21055708.01 L 32471767.32 21055708.02 L 32463457.00 21118833.00 A 398279.91 398279.91 0 0 1 32181825.00 21400465.00 L 32118699.98 21408775.32  zM 37622103.98 14307166.00 L 37541320.79 14307166.00 L 37552382.00 14223147.00 A 479012.90 479012.90 0 0 1 37891100.00 13884429.00 L 37975119.00 13873367.79 L 37975119.00 13954150.98 L 37937646.00 13957842.00 A 396890.84 396890.84 0 0 0 37625795.00 14269693.00 L 37622103.98 14307166.00  zM 35661418.09 16322830.09 m -315697.91 0 a 315697.91 315697.91 0 1 1 631395.82 0a 315697.91 315697.91 0 1 1 -631395.82 0M 38015082.13 14347106.82 m -296446.18 0 a 296446.18 296446.18 0 1 1 592892.36 0a 296446.18 296446.18 0 1 1 -592892.36 0M 34072314.27 18282875.00 L 33991768.42 18282875.00 L 33989281.00 18257619.00 A 334280.99 334280.99 0 0 0 33726633.00 17994971.00 L 33701377.00 17992483.58 L 33701377.00 17911937.73 L 33769127.00 17920857.00 A 416169.69 416169.69 0 0 1 34063395.00 18215125.00 L 34072314.27 18282875.00  zM 35661418.09 17322830.09 m -315697.91 0 a 315697.91 315697.91 0 1 1 631395.82 0a 315697.91 315697.91 0 1 1 -631395.82 0M 35661418.09 18322830.09 m -315697.91 0 a 315697.91 315697.91 0 1 1 631395.82 0a 315697.91 315697.91 0 1 1 -631395.82 0M 38488837.21 14307166.00 L 38408054.02 14307166.00 L 38404363.00 14269693.00 A 396890.84 396890.84 0 0 0 38092512.00 13957842.00 L 38055039.00 13954150.98 L 38055039.00 13873367.79 L 38139058.00 13884429.00 A 479027.07 479027.07 0 0 1 38477776.00 14223147.00 L 38488837.21 14307166.00  zM 39370076.02 12992137.06 m -295945.94 0 a 295945.94 295945.94 0 1 1 591891.89 0a 295945.94 295945.94 0 1 1 -591891.89 0M 40332103.98 14307166.00 L 40251320.79 14307166.00 L 40262382.00 14223147.00 A 479012.90 479012.90 0 0 1 40601100.00 13884429.00 L 40685119.00 13873367.79 L 40685119.00 13954150.98 L 40647646.00 13957842.00 A 396890.84 396890.84 0 0 0 40335795.00 14269693.00 L 40332103.98 14307166.00  zM 40725082.13 14347106.82 m -296446.18 0 a 296446.18 296446.18 0 1 1 592892.36 0a 296446.18 296446.18 0 1 1 -592892.36 0M 41198837.21 14307166.00 L 41118054.02 14307166.00 L 41114363.00 14269693.00 A 396890.84 396890.84 0 0 0 40802512.00 13957842.00 L 40765039.00 13954150.98 L 40765039.00 13873367.79 L 40849058.00 13884429.00 A 479027.07 479027.07 0 0 1 41187776.00 14223147.00 L 41198837.21 14307166.00  zM 39753179.19 18463977.00 L 39672737.39 18463977.00 L 39670782.00 18444123.00 A 306620.41 306620.41 0 0 0 39429893.00 18203234.00 L 39410039.00 18201278.61 L 39410039.00 18120836.81 L 39470594.00 18128809.00 A 388372.57 388372.57 0 0 1 39745207.00 18403422.00 L 39753179.19 18463977.00  zM 33701377.00 18733732.27 L 33701377.00 18653186.42 L 33726633.00 18650699.00 A 334280.99 334280.99 0 0 0 33989281.00 18388051.00 L 33991768.42 18362795.00 L 34072314.27 18362795.00 L 34063395.00 18430545.00 A 416169.69 416169.69 0 0 1 33769127.00 18724813.00 L 33701377.00 18733732.27  zM 36730379.00 21416733.00 L 36648276.00 21416733.00 L 36648276.00 21043308.00 A 477717.67 477717.67 0 0 1 37002345.00 20581877.00 L 37086025.00 20570859.99 L 37086025.00 20651637.47 L 37048806.00 20655303.00 A 395622.24 395622.24 0 0 0 36730379.00 21043308.00 L 36730379.00 21416733.00  zM 36849062.00 21870079.00 L 36849062.00 21043307.00 A 276912.81 276912.81 0 1 1 37402908.00 21043307.00 L 37402908.00 21870079.00 A 276912.81 276912.81 0 1 1 36849062.00 21870079.00  zM 38385826.03 18503944.32 m -297815.68 0 a 297815.68 297815.68 0 1 1 595631.35 0a 297815.68 297815.68 0 1 1 -595631.35 0M 39370076.32 18503948.24 m -198537.76 0 a 198537.76 198537.76 0 1 1 397075.52 0a 198537.76 198537.76 0 1 1 -397075.52 0M 37603694.00 21416733.00 L 37521591.00 21416733.00 L 37521591.00 21043308.00 A 395576.57 395576.57 0 0 0 37203164.00 20655303.00 L 37165945.00 20651637.47 L 37165945.00 20570859.99 L 37249625.00 20581877.00 A 477692.18 477692.18 0 0 1 37603694.00 21043308.00 L 37603694.00 21416733.00  zM 39410039.00 18887037.19 L 39410039.00 18806595.39 L 39429893.00 18804640.00 A 306620.41 306620.41 0 0 0 39670782.00 18563751.00 L 39672737.39 18543897.00 L 39753179.19 18543897.00 L 39745207.00 18604452.00 A 388372.57 388372.57 0 0 1 39470594.00 18879065.00 L 39410039.00 18887037.19  zM 40354330.03 18503944.32 m -297815.68 0 a 297815.68 297815.68 0 1 1 595631.35 0a 297815.68 297815.68 0 1 1 -595631.35 0M 41218567.00 21416733.00 L 41136464.00 21416733.00 L 41136464.00 21043308.00 A 477717.67 477717.67 0 0 1 41490533.00 20581877.00 L 41574213.00 20570859.99 L 41574213.00 20651637.47 L 41536994.00 20655303.00 A 395622.24 395622.24 0 0 0 41218567.00 21043308.00 L 41218567.00 21416733.00  zM 42091882.00 21416733.00 L 42009779.00 21416733.00 L 42009779.00 21043308.00 A 395576.57 395576.57 0 0 0 41691352.00 20655303.00 L 41654133.00 20651637.47 L 41654133.00 20570859.99 L 41737813.00 20581877.00 A 477692.18 477692.18 0 0 1 42091882.00 21043308.00 L 42091882.00 21416733.00  zM 41337250.00 21870079.00 L 41337250.00 21043307.00 A 276912.81 276912.81 0 0 1 41891096.00 21043307.00 L 41891096.00 21870079.00 A 276912.81 276912.81 0 0 1 41337250.00 21870079.00  zM 42814962.98 13188982.87 m -305765.13 0 a 305765.13 305765.13 0 1 1 611530.25 0a 305765.13 305765.13 0 1 1 -611530.25 0M 44774997.97 13582009.79 L 44711877.00 13573700.00 A 398279.91 398279.91 0 0 1 44430245.00 13292068.00 L 44421934.68 13228942.97 L 44502413.61 13228942.97 L 44504559.00 13250726.00 A 316498.27 316498.27 0 0 0 44753219.00 13499386.00 L 44774997.97 13501530.99 L 44774997.97 13582009.79  zM 44502413.62 13149022.97 L 44421934.68 13149022.97 L 44430245.00 13085898.00 A 398279.91 398279.91 0 0 1 44711877.00 12804266.00 L 44774998.03 12795956.20 L 44774998.03 12876435.01 L 44753219.00 12878580.00 A 316498.27 316498.27 0 0 0 44504559.00 13127240.00 L 44502413.62 13149022.97  zM 43414681.59 16436343.48 m -160563.52 0 a 160563.52 160563.52 0 1 1 321127.04 0a 160563.52 160563.52 0 1 1 -321127.04 0M 42814962.98 20188982.87 m -305765.13 0 a 305765.13 305765.13 0 1 1 611530.25 0a 305765.13 305765.13 0 1 1 -611530.25 0M 43814962.98 20188982.87 m -305765.13 0 a 305765.13 305765.13 0 1 1 611530.25 0a 305765.13 305765.13 0 1 1 -611530.25 0M 44502413.62 20149023.00 L 44421934.68 20149023.00 L 44430245.00 20085898.00 A 398279.91 398279.91 0 0 1 44711877.00 19804266.00 L 44775002.00 19795955.68 L 44775002.00 19876434.62 L 44753219.00 19878580.00 A 316498.27 316498.27 0 0 0 44504559.00 20127240.00 L 44502413.62 20149023.00  zM 44814960.30 20188994.13 m -206479.87 0 a 206479.87 206479.87 0 1 1 412959.74 0a 206479.87 206479.87 0 1 1 -412959.74 0M 44775002.00 20582010.32 L 44711877.00 20573700.00 A 398279.91 398279.91 0 0 1 44430245.00 20292068.00 L 44421934.68 20228943.00 L 44502413.62 20228943.00 L 44504559.00 20250726.00 A 316498.27 316498.27 0 0 0 44753219.00 20499386.00 L 44775002.00 20501531.38 L 44775002.00 20582010.32  zM 44814960.30 13188994.13 m -206479.87 0 a 206479.87 206479.87 0 1 1 412959.74 0a 206479.87 206479.87 0 1 1 -412959.74 0M 21850395.00 15987005.00 L 21377953.00 15987005.00 A 81487.55 81487.55 0 0 1 21296466.00 15905518.00 L 21296466.00 10826778.00 A 81487.55 81487.55 0 0 1 21377953.00 10745291.00 L 43058512.00 10745291.00 L 43082167.00 10748800.00 L 43089696.00 10751494.00 L 43110206.21 10763787.58 L 43138480.21 10763141.80 L 43161855.09 10756849.85 L 43166856.38 10753999.92 L 43197263.00 10716949.00 A 712101.26 712101.26 0 0 1 44204311.00 10716949.00 L 44234717.62 10753999.92 L 44239718.91 10756849.85 L 44263093.79 10763141.80 L 44291367.79 10763787.58 L 44311878.00 10751494.00 L 44319407.00 10748800.00 L 44343062.00 10745291.00 L 68346457.00 10745291.00 A 81487.55 81487.55 0 0 1 68427944.00 10826778.00 L 68427944.00 14645676.00 A 81487.55 81487.55 0 0 1 68346457.00 14727163.00 L 68042442.00 14726359.00 L 68022679.00 14720960.00 L 68012436.00 14715847.00 L 67996243.00 14703296.00 L 67988736.00 14694652.00 L 66207193.36 12325588.00 L 65853629.49 12325588.00 L 65814843.93 12375588.54 L 65820014.00 12401581.00 A 160563.52 160563.52 0 0 1 65498884.00 12401581.00 L 65504054.07 12375588.54 L 65465268.51 12325588.00 L 48094121.00 12325588.00 L 48094121.00 12790864.45 L 48095356.38 12847422.12 L 48098782.36 12891404.39 L 48102437.15 12914965.85 L 48159890.00 12989839.00 A 398281.34 398281.34 0 1 1 47470034.00 12989839.00 L 47527487.02 12914965.63 L 47535803.00 12796430.09 L 47535803.00 12325588.00 L 36293595.99 12325588.00 L 34388328.00 14230855.00 L 34361892.00 14248519.00 L 34330708.00 14254722.00 L 34055119.00 14254722.00 L 34023936.00 14248520.00 L 33997499.00 14230855.00 L 33980524.48 14213880.48 L 33941873.00 14188055.00 L 33916047.52 14149403.52 L 32564447.00 12797803.00 L 32559989.43 12791131.53 L 32537844.56 12783392.78 L 32510710.97 12779994.21 L 32498880.93 12782823.65 L 32484996.00 12791826.00 L 32453812.00 12798029.00 L 25073124.00 12798029.00 L 21908015.00 15963138.00 L 21881579.00 15980802.00 L 21850395.00 15987005.00  zM 44854917.97 13582010.85 L 44854917.97 13501531.78 L 44876705.00 13499386.00 A 316498.27 316498.27 0 0 0 45125365.00 13250726.00 L 45127510.38 13228943.03 L 45207989.32 13228943.03 L 45199679.00 13292068.00 A 398279.91 398279.91 0 0 1 44918047.00 13573700.00 L 44854917.97 13582010.85  zM 45207989.32 13149023.03 L 45127510.39 13149023.03 L 45125365.00 13127240.00 A 316498.27 316498.27 0 0 0 44876705.00 12878580.00 L 44854918.03 12876434.23 L 44854918.03 12795955.16 L 44918047.00 12804266.00 A 398279.91 398279.91 0 0 1 45199679.00 13085898.00 L 45207989.32 13149023.03  zM 45814962.98 13188982.87 m -305765.13 0 a 305765.13 305765.13 0 1 1 611530.25 0a 305765.13 305765.13 0 1 1 -611530.25 0M 49502413.62 13149022.97 L 49421934.68 13149022.97 L 49430245.00 13085898.00 A 398279.91 398279.91 0 0 1 49711877.00 12804266.00 L 49774998.03 12795956.20 L 49774998.03 12876435.01 L 49753219.00 12878580.00 A 316498.27 316498.27 0 0 0 49504559.00 13127240.00 L 49502413.62 13149022.97  zM 48814962.98 13188982.87 m -305765.13 0 a 305765.13 305765.13 0 1 1 611530.25 0a 305765.13 305765.13 0 1 1 -611530.25 0M 49774997.97 13582009.79 L 49711877.00 13573700.00 A 398279.91 398279.91 0 0 1 49430245.00 13292068.00 L 49421934.68 13228942.97 L 49502413.61 13228942.97 L 49504559.00 13250726.00 A 316498.27 316498.27 0 0 0 49753219.00 13499386.00 L 49774997.97 13501530.99 L 49774997.97 13582009.79  zM 45207989.32 20149023.00 L 45127510.38 20149023.00 L 45125365.00 20127240.00 A 316498.27 316498.27 0 0 0 44876705.00 19878580.00 L 44854922.00 19876434.62 L 44854922.00 19795955.68 L 44918047.00 19804266.00 A 398279.91 398279.91 0 0 1 45199679.00 20085898.00 L 45207989.32 20149023.00  zM 44854922.00 20582010.32 L 44854922.00 20501531.38 L 44876705.00 20499386.00 A 316498.27 316498.27 0 0 0 45125365.00 20250726.00 L 45127510.38 20228943.00 L 45207989.32 20228943.00 L 45199679.00 20292068.00 A 398279.91 398279.91 0 0 1 44918047.00 20573700.00 L 44854922.00 20582010.32  zM 45814962.98 20188982.87 m -305765.13 0 a 305765.13 305765.13 0 1 1 611530.25 0a 305765.13 305765.13 0 1 1 -611530.25 0M 46814962.98 20188982.87 m -305765.13 0 a 305765.13 305765.13 0 1 1 611530.25 0a 305765.13 305765.13 0 1 1 -611530.25 0M 47814962.98 20188982.87 m -305765.13 0 a 305765.13 305765.13 0 1 1 611530.25 0a 305765.13 305765.13 0 1 1 -611530.25 0M 48814962.98 20188982.87 m -305765.13 0 a 305765.13 305765.13 0 1 1 611530.25 0a 305765.13 305765.13 0 1 1 -611530.25 0M 50207989.32 13149023.03 L 50127510.39 13149023.03 L 50125365.00 13127240.00 A 316498.27 316498.27 0 0 0 49876705.00 12878580.00 L 49854918.03 12876434.23 L 49854918.03 12795955.16 L 49918047.00 12804266.00 A 398279.91 398279.91 0 0 1 50199679.00 13085898.00 L 50207989.32 13149023.03  zM 49814960.30 13188994.13 m -206479.87 0 a 206479.87 206479.87 0 1 1 412959.74 0a 206479.87 206479.87 0 1 1 -412959.74 0M 50814962.98 13188982.87 m -305765.13 0 a 305765.13 305765.13 0 1 1 611530.25 0a 305765.13 305765.13 0 1 1 -611530.25 0M 49854917.97 13582010.85 L 49854917.97 13501531.78 L 49876705.00 13499386.00 A 316498.27 316498.27 0 0 0 50125365.00 13250726.00 L 50127510.38 13228943.03 L 50207989.32 13228943.03 L 50199679.00 13292068.00 A 398279.91 398279.91 0 0 1 49918047.00 13573700.00 L 49854917.97 13582010.85  zM 51814962.98 13188982.87 m -305765.13 0 a 305765.13 305765.13 0 1 1 611530.25 0a 305765.13 305765.13 0 1 1 -611530.25 0M 49502413.62 20149023.00 L 49421934.68 20149023.00 L 49430245.00 20085898.00 A 398279.91 398279.91 0 0 1 49711877.00 19804266.00 L 49775002.00 19795955.68 L 49775002.00 19876434.62 L 49753219.00 19878580.00 A 316498.27 316498.27 0 0 0 49504559.00 20127240.00 L 49502413.62 20149023.00  zM 49775002.00 20582010.32 L 49711877.00 20573700.00 A 398279.91 398279.91 0 0 1 49430245.00 20292068.00 L 49421934.68 20228943.00 L 49502413.62 20228943.00 L 49504559.00 20250726.00 A 316498.27 316498.27 0 0 0 49753219.00 20499386.00 L 49775002.00 20501531.38 L 49775002.00 20582010.32  zM 49814960.30 20188994.13 m -206479.87 0 a 206479.87 206479.87 0 1 1 412959.74 0a 206479.87 206479.87 0 1 1 -412959.74 0M 50207989.32 20149023.00 L 50127510.38 20149023.00 L 50125365.00 20127240.00 A 316498.27 316498.27 0 0 0 49876705.00 19878580.00 L 49854922.00 19876434.62 L 49854922.00 19795955.68 L 49918047.00 19804266.00 A 398279.91 398279.91 0 0 1 50199679.00 20085898.00 L 50207989.32 20149023.00  zM 49854922.00 20582010.32 L 49854922.00 20501531.38 L 49876705.00 20499386.00 A 316498.27 316498.27 0 0 0 50125365.00 20250726.00 L 50127510.38 20228943.00 L 50207989.32 20228943.00 L 50199679.00 20292068.00 A 398279.91 398279.91 0 0 1 49918047.00 20573700.00 L 49854922.00 20582010.32  zM 50814962.98 20188982.87 m -305765.13 0 a 305765.13 305765.13 0 1 1 611530.25 0a 305765.13 305765.13 0 1 1 -611530.25 0M 51814962.98 20188982.87 m -305765.13 0 a 305765.13 305765.13 0 1 1 611530.25 0a 305765.13 305765.13 0 1 1 -611530.25 0M 72977223.00 19980321.00 L 72978611.25 19973342.00 L 72972868.73 19962271.55 L 72689641.00 19678164.00 L 72660926.00 19635189.00 L 72650843.00 19584490.97 L 72650843.00 17523223.06 L 72071115.06 16943496.00 L 68007881.00 16943497.00 L 67957188.00 16933413.00 L 67914213.00 16904698.00 L 67792019.58 16782692.21 L 67763424.56 16767205.80 L 67742274.78 16759638.69 L 67716546.75 16752782.21 L 67652755.80 16742445.08 L 67569667.09 16737268.98 L 67534422.22 16737052.98 L 67519686.00 16738993.00 A 416143.53 416143.53 0 0 1 67226488.09 16027745.90 L 67232889.47 15999619.53 L 67240527.00 15895705.85 L 67240527.00 15784929.00 L 66750505.00 15294907.00 L 66335126.55 15294907.00 L 66278568.88 15296142.38 L 66234586.61 15299568.36 L 66211025.15 15303223.15 L 66136152.00 15360676.00 A 398281.34 398281.34 0 0 1 65737864.00 15360676.00 L 65662990.63 15303222.98 L 65544455.09 15294907.00 L 48469081.00 15294907.00 L 48469081.00 18364550.27 L 48472189.23 18375263.75 L 48494302.00 18391642.00 A 201919.28 201919.28 0 1 1 48164988.00 18457147.00 L 48197428.38 18406733.53 L 48203372.83 18387726.20 L 48204149.00 15294907.00 L 43092017.00 15294907.00 L 42559601.00 15827323.00 A 279144.91 279144.91 0 0 1 42362206.00 15909087.00 L 39084792.34 15909087.00 L 39077267.24 15941146.04 L 39070282.45 15982137.82 L 39057506.00 16147593.39 L 39057506.00 18202684.12 L 39107506.45 18220085.13 L 39175898.00 18167607.00 L 39269564.00 18128809.00 L 39330119.00 18120836.81 L 39330119.00 18201278.61 L 39310265.00 18203234.00 A 306620.41 306620.41 0 0 0 39310265.00 18804640.00 L 39330119.00 18806595.39 L 39330119.00 18887037.19 L 39269564.00 18879065.00 L 39175898.00 18840267.00 L 39107506.45 18787788.87 L 39057506.00 18805189.88 L 39057506.00 19431199.00 L 39397888.50 19771581.50 L 39410907.15 19779331.72 L 39419292.00 19778410.00 A 201919.28 201919.28 0 1 1 39217381.00 19980321.00 L 39218769.25 19973342.00 L 39213026.73 19962271.55 L 38831372.00 19579737.00 L 38802657.00 19536762.00 L 38792574.00 19486063.97 L 38792574.00 16145272.57 L 38790148.67 16088095.37 L 38779933.02 15982932.47 L 38772816.33 15941161.46 L 38765287.03 15909087.00 L 35115631.88 15909087.00 L 34504488.00 16520230.00 A 279159.08 279159.08 0 0 1 34307093.00 16601994.00 L 34083185.99 16601994.00 L 34032895.16 16604217.18 L 33986085.78 16609362.67 L 33958500.29 16615316.57 L 33869496.00 16683238.00 L 33769127.00 16724813.00 A 416167.72 416167.72 0 0 1 33366327.90 16616032.91 L 33338201.53 16609631.53 L 33234287.85 16601994.00 L 33025902.00 16601994.00 A 279159.87 279159.87 0 0 1 32828507.00 16520230.00 L 32597882.00 16289605.00 A 279144.91 279144.91 0 0 1 32516118.00 16092210.00 L 32516118.00 15369276.00 L 32449021.00 15302179.00 L 32354117.89 15302179.00 L 32277884.00 15360676.00 A 398281.34 398281.34 0 1 1 32360372.00 14734116.00 L 32365842.13 14741244.73 L 32483258.61 14743861.00 L 32564652.00 14743861.00 A 279159.87 279159.87 0 0 1 32762047.00 14825625.00 L 32992672.00 15056250.00 A 279159.08 279159.08 0 0 1 33074436.00 15253645.00 L 33074436.00 15976579.00 L 33141533.00 16043676.00 L 33239648.01 16043676.00 L 33289938.84 16041452.82 L 33336748.22 16036307.33 L 33364333.71 16030353.43 L 33453338.00 15962432.00 L 33553707.00 15920857.00 A 416167.72 416167.72 0 0 1 33956506.10 16029637.09 L 33984632.47 16036038.47 L 34088546.15 16043676.00 L 34191461.88 16043676.00 L 34802604.00 15432533.00 A 279155.28 279155.28 0 0 1 35000000.00 15350769.00 L 42246575.00 15350769.00 L 42778991.00 14818353.00 A 279155.28 279155.28 0 0 1 42976386.00 14736589.00 L 46535803.00 14736589.00 L 46535803.00 13587101.55 L 46534567.62 13530543.88 L 46531141.64 13486561.61 L 46527486.85 13463000.15 L 46470034.00 13388127.00 A 398281.34 398281.34 0 1 1 47159890.00 13388127.00 L 47102436.98 13463000.37 L 47094121.00 13581535.91 L 47094121.00 14736589.00 L 65538889.45 14736589.00 L 65595447.12 14735353.62 L 65639429.39 14731927.64 L 65662990.85 14728272.85 L 65737864.00 14670820.00 A 398281.34 398281.34 0 0 1 66136152.00 14670820.00 L 66211025.37 14728273.02 L 66329560.91 14736589.00 L 66866136.00 14736589.00 A 279159.87 279159.87 0 0 1 67063531.00 14818353.00 L 67717081.00 15471903.00 A 279144.91 279144.91 0 0 1 67798845.00 15669298.00 L 67798845.00 15901066.01 L 67801068.18 15951356.84 L 67806213.67 15998166.22 L 67812167.57 16025751.71 L 67880089.00 16114756.00 L 67921664.00 16215125.00 L 67935844.00 16322835.00 L 67933903.98 16337571.22 L 67934119.98 16372816.12 L 67939296.07 16455905.69 L 67943796.23 16489529.14 L 67956488.76 16545421.17 L 67964056.58 16566572.95 L 67979541.95 16595166.35 L 68062751.00 16678564.00 L 69440724.52 16678564.00 L 69444001.71 16628563.91 L 69437979.00 16627771.00 A 315709.31 315709.31 0 1 1 69601393.00 16627771.00 L 69595370.29 16628563.91 L 69598647.48 16678564.00 L 72125985.00 16678563.00 L 72176678.00 16688647.00 L 72219653.00 16717362.00 L 72876977.00 17374686.00 L 72905693.00 17417662.00 L 72915775.00 17468359.03 L 72915775.00 18202684.17 L 72965775.45 18220085.25 L 73034168.00 18167607.00 L 73127833.00 18128809.00 L 73188388.00 18120836.81 L 73188388.00 18201278.61 L 73168534.00 18203234.00 A 306620.41 306620.41 0 0 0 73168534.00 18804640.00 L 73188388.00 18806595.39 L 73188388.00 18887037.19 L 73127833.00 18879065.00 L 73034168.00 18840267.00 L 72965775.45 18787788.75 L 72915775.00 18805189.83 L 72915775.00 19529626.00 L 73157730.50 19771581.50 L 73170749.15 19779331.72 L 73179134.00 19778410.00 A 201919.28 201919.28 0 1 1 72977223.00 19980321.00  zM 52814962.98 20188982.87 m -305765.13 0 a 305765.13 305765.13 0 1 1 611530.25 0a 305765.13 305765.13 0 1 1 -611530.25 0M 52814962.98 13188982.87 m -305765.13 0 a 305765.13 305765.13 0 1 1 611530.25 0a 305765.13 305765.13 0 1 1 -611530.25 0M 53814962.98 13188982.87 m -305765.13 0 a 305765.13 305765.13 0 1 1 611530.25 0a 305765.13 305765.13 0 1 1 -611530.25 0M 54774997.97 13582009.79 L 54711877.00 13573700.00 A 398279.91 398279.91 0 0 1 54430245.00 13292068.00 L 54421934.68 13228942.97 L 54502413.61 13228942.97 L 54504559.00 13250726.00 A 316498.27 316498.27 0 0 0 54753219.00 13499386.00 L 54774997.97 13501530.99 L 54774997.97 13582009.79  zM 53814962.98 20188982.87 m -305765.13 0 a 305765.13 305765.13 0 1 1 611530.25 0a 305765.13 305765.13 0 1 1 -611530.25 0M 54502413.62 13149022.97 L 54421934.68 13149022.97 L 54430245.00 13085898.00 A 398279.91 398279.91 0 0 1 54711877.00 12804266.00 L 54774998.03 12795956.20 L 54774998.03 12876435.01 L 54753219.00 12878580.00 A 316498.27 316498.27 0 0 0 54504559.00 13127240.00 L 54502413.62 13149022.97  zM 54814960.30 13188994.13 m -206479.87 0 a 206479.87 206479.87 0 1 1 412959.74 0a 206479.87 206479.87 0 1 1 -412959.74 0M 54502413.62 20149023.00 L 54421934.68 20149023.00 L 54430245.00 20085898.00 A 398279.91 398279.91 0 0 1 54711877.00 19804266.00 L 54775002.00 19795955.68 L 54775002.00 19876434.62 L 54753219.00 19878580.00 A 316498.27 316498.27 0 0 0 54504559.00 20127240.00 L 54502413.62 20149023.00  zM 54775002.00 20582010.32 L 54711877.00 20573700.00 A 398279.91 398279.91 0 0 1 54430245.00 20292068.00 L 54421934.68 20228943.00 L 54502413.62 20228943.00 L 54504559.00 20250726.00 A 316498.27 316498.27 0 0 0 54753219.00 20499386.00 L 54775002.00 20501531.38 L 54775002.00 20582010.32  zM 54814960.30 20188994.13 m -206479.87 0 a 206479.87 206479.87 0 1 1 412959.74 0a 206479.87 206479.87 0 1 1 -412959.74 0M 55207989.32 13149023.03 L 55127510.39 13149023.03 L 55125365.00 13127240.00 A 316498.27 316498.27 0 0 0 54876705.00 12878580.00 L 54854918.03 12876434.23 L 54854918.03 12795955.16 L 54918047.00 12804266.00 A 398279.91 398279.91 0 0 1 55199679.00 13085898.00 L 55207989.32 13149023.03  zM 55814962.98 13188982.87 m -305765.13 0 a 305765.13 305765.13 0 1 1 611530.25 0a 305765.13 305765.13 0 1 1 -611530.25 0M 58814962.98 13188982.87 m -305765.13 0 a 305765.13 305765.13 0 1 1 611530.25 0a 305765.13 305765.13 0 1 1 -611530.25 0M 59502413.62 13149022.97 L 59421934.68 13149022.97 L 59430245.00 13085898.00 A 398279.91 398279.91 0 0 1 59711877.00 12804266.00 L 59774998.03 12795956.20 L 59774998.03 12876435.01 L 59753219.00 12878580.00 A 316498.27 316498.27 0 0 0 59504559.00 13127240.00 L 59502413.62 13149022.97  zM 59814960.30 13188994.13 m -206479.87 0 a 206479.87 206479.87 0 1 1 412959.74 0a 206479.87 206479.87 0 1 1 -412959.74 0M 60207989.32 13149023.03 L 60127510.39 13149023.03 L 60125365.00 13127240.00 A 316498.27 316498.27 0 0 0 59876705.00 12878580.00 L 59854918.03 12876434.23 L 59854918.03 12795955.16 L 59918047.00 12804266.00 A 398279.91 398279.91 0 0 1 60199679.00 13085898.00 L 60207989.32 13149023.03  zM 56814962.98 13188982.87 m -305765.13 0 a 305765.13 305765.13 0 1 1 611530.25 0a 305765.13 305765.13 0 1 1 -611530.25 0M 57814962.98 13188982.87 m -305765.13 0 a 305765.13 305765.13 0 1 1 611530.25 0a 305765.13 305765.13 0 1 1 -611530.25 0M 59774997.97 13582009.79 L 59711877.00 13573700.00 A 398279.91 398279.91 0 0 1 59430245.00 13292068.00 L 59421934.68 13228942.97 L 59502413.61 13228942.97 L 59504559.00 13250726.00 A 316498.27 316498.27 0 0 0 59753219.00 13499386.00 L 59774997.97 13501530.99 L 59774997.97 13582009.79  zM 54854917.97 13582010.85 L 54854917.97 13501531.78 L 54876705.00 13499386.00 A 316498.27 316498.27 0 0 0 55125365.00 13250726.00 L 55127510.38 13228943.03 L 55207989.32 13228943.03 L 55199679.00 13292068.00 A 398279.91 398279.91 0 0 1 54918047.00 13573700.00 L 54854917.97 13582010.85  zM 59854917.97 13582010.85 L 59854917.97 13501531.78 L 59876705.00 13499386.00 A 316498.27 316498.27 0 0 0 60125365.00 13250726.00 L 60127510.38 13228943.03 L 60207989.32 13228943.03 L 60199679.00 13292068.00 A 398279.91 398279.91 0 0 1 59918047.00 13573700.00 L 59854917.97 13582010.85  zM 60207989.32 20149023.00 L 60127510.38 20149023.00 L 60125365.00 20127240.00 A 316498.27 316498.27 0 0 0 59876705.00 19878580.00 L 59854922.00 19876434.62 L 59854922.00 19795955.68 L 59918047.00 19804266.00 A 398279.91 398279.91 0 0 1 60199679.00 20085898.00 L 60207989.32 20149023.00  zM 55207989.32 20149023.00 L 55127510.38 20149023.00 L 55125365.00 20127240.00 A 316498.27 316498.27 0 0 0 54876705.00 19878580.00 L 54854922.00 19876434.62 L 54854922.00 19795955.68 L 54918047.00 19804266.00 A 398279.91 398279.91 0 0 1 55199679.00 20085898.00 L 55207989.32 20149023.00  zM 54854922.00 20582010.32 L 54854922.00 20501531.38 L 54876705.00 20499386.00 A 316498.27 316498.27 0 0 0 55125365.00 20250726.00 L 55127510.38 20228943.00 L 55207989.32 20228943.00 L 55199679.00 20292068.00 A 398279.91 398279.91 0 0 1 54918047.00 20573700.00 L 54854922.00 20582010.32  zM 55814962.98 20188982.87 m -305765.13 0 a 305765.13 305765.13 0 1 1 611530.25 0a 305765.13 305765.13 0 1 1 -611530.25 0M 56814962.98 20188982.87 m -305765.13 0 a 305765.13 305765.13 0 1 1 611530.25 0a 305765.13 305765.13 0 1 1 -611530.25 0M 57814962.98 20188982.87 m -305765.13 0 a 305765.13 305765.13 0 1 1 611530.25 0a 305765.13 305765.13 0 1 1 -611530.25 0M 58814962.98 20188982.87 m -305765.13 0 a 305765.13 305765.13 0 1 1 611530.25 0a 305765.13 305765.13 0 1 1 -611530.25 0M 59502413.62 20149023.00 L 59421934.68 20149023.00 L 59430245.00 20085898.00 A 398279.91 398279.91 0 0 1 59711877.00 19804266.00 L 59775002.00 19795955.68 L 59775002.00 19876434.62 L 59753219.00 19878580.00 A 316498.27 316498.27 0 0 0 59504559.00 20127240.00 L 59502413.62 20149023.00  zM 59814960.30 20188994.13 m -206479.87 0 a 206479.87 206479.87 0 1 1 412959.74 0a 206479.87 206479.87 0 1 1 -412959.74 0M 59775002.00 20582010.32 L 59711877.00 20573700.00 A 398279.91 398279.91 0 0 1 59430245.00 20292068.00 L 59421934.68 20228943.00 L 59502413.62 20228943.00 L 59504559.00 20250726.00 A 316498.27 316498.27 0 0 0 59753219.00 20499386.00 L 59775002.00 20501531.38 L 59775002.00 20582010.32  zM 59854922.00 20582010.32 L 59854922.00 20501531.38 L 59876705.00 20499386.00 A 316498.27 316498.27 0 0 0 60125365.00 20250726.00 L 60127510.38 20228943.00 L 60207989.32 20228943.00 L 60199679.00 20292068.00 A 398279.91 398279.91 0 0 1 59918047.00 20573700.00 L 59854922.00 20582010.32  zM 60814962.98 20188982.87 m -305765.13 0 a 305765.13 305765.13 0 1 1 611530.25 0a 305765.13 305765.13 0 1 1 -611530.25 0M 60814962.98 13188982.87 m -305765.13 0 a 305765.13 305765.13 0 1 1 611530.25 0a 305765.13 305765.13 0 1 1 -611530.25 0M 61814962.98 13188982.87 m -305765.13 0 a 305765.13 305765.13 0 1 1 611530.25 0a 305765.13 305765.13 0 1 1 -611530.25 0M 63220472.40 13842519.06 m -593408.94 0 a 593408.94 593408.94 0 1 1 1186817.89 0a 593408.94 593408.94 0 1 1 -1186817.89 0M 65937008.00 16015747.99 m -297823.01 0 a 297823.01 297823.01 0 1 1 595646.03 0a 297823.01 297823.01 0 1 1 -595646.03 0M 65937008.00 17015747.99 m -297823.01 0 a 297823.01 297823.01 0 1 1 595646.03 0a 297823.01 297823.01 0 1 1 -595646.03 0M 65937008.00 18015747.99 m -297823.01 0 a 297823.01 297823.01 0 1 1 595646.03 0a 297823.01 297823.01 0 1 1 -595646.03 0M 67519686.12 17322837.43 m -315690.57 0 a 315690.57 315690.57 0 1 1 631381.15 0a 315690.57 315690.57 0 1 1 -631381.15 0M 67189334.58 18282875.00 L 67108788.73 18282875.00 L 67117708.00 18215125.00 A 416169.69 416169.69 0 0 1 67411976.00 17920857.00 L 67479726.00 17911937.73 L 67479726.00 17992483.58 L 67454470.00 17994971.00 A 334280.99 334280.99 0 0 0 67191822.00 18257619.00 L 67189334.58 18282875.00  zM 67519683.44 18322847.68 m -216405.32 0 a 216405.32 216405.32 0 1 1 432810.64 0a 216405.32 216405.32 0 1 1 -432810.64 0M 67930583.27 18282875.00 L 67850037.42 18282875.00 L 67847550.00 18257619.00 A 334280.99 334280.99 0 0 0 67584902.00 17994971.00 L 67559646.00 17992483.58 L 67559646.00 17911937.73 L 67627396.00 17920857.00 A 416169.69 416169.69 0 0 1 67921664.00 18215125.00 L 67930583.27 18282875.00  zM 69519686.12 17322837.43 m -315690.57 0 a 315690.57 315690.57 0 1 1 631381.15 0a 315690.57 315690.57 0 1 1 -631381.15 0M 69519686.12 18322837.43 m -315690.57 0 a 315690.57 315690.57 0 1 1 631381.15 0a 315690.57 315690.57 0 1 1 -631381.15 0M 61814962.98 20188982.87 m -305765.13 0 a 305765.13 305765.13 0 1 1 611530.25 0a 305765.13 305765.13 0 1 1 -611530.25 0M 63220472.40 22188975.06 m -593408.94 0 a 593408.94 593408.94 0 1 1 1186817.89 0a 593408.94 593408.94 0 1 1 -1186817.89 0M 65897047.98 21408775.32 L 65833923.00 21400465.00 A 398279.91 398279.91 0 0 1 65552291.00 21118833.00 L 65543980.68 21055707.98 L 65624459.61 21055707.99 L 65626605.00 21077491.00 A 316498.27 316498.27 0 0 0 65875265.00 21326151.00 L 65897047.99 21328296.38 L 65897047.98 21408775.32  zM 65937008.00 20015747.99 m -297823.01 0 a 297823.01 297823.01 0 1 1 595646.03 0a 297823.01 297823.01 0 1 1 -595646.03 0M 65624459.62 20975787.99 L 65543980.68 20975787.98 L 65552291.00 20912663.00 A 398279.91 398279.91 0 0 1 65833923.00 20631031.00 L 65897048.02 20622720.68 L 65897048.01 20703199.61 L 65875265.00 20705345.00 A 316498.27 316498.27 0 0 0 65626605.00 20954005.00 L 65624459.62 20975787.99  zM 65937004.35 21015766.58 m -198530.42 0 a 198530.42 198530.42 0 1 1 397060.85 0a 198530.42 198530.42 0 1 1 -397060.85 0M 65937008.00 19015747.99 m -297823.01 0 a 297823.01 297823.01 0 1 1 595646.03 0a 297823.01 297823.01 0 1 1 -595646.03 0M 67479726.00 18733732.27 L 67411976.00 18724813.00 A 416169.69 416169.69 0 0 1 67117708.00 18430545.00 L 67108788.73 18362795.00 L 67189334.58 18362795.00 L 67191822.00 18388051.00 A 334280.99 334280.99 0 0 0 67454470.00 18650699.00 L 67479726.00 18653186.42 L 67479726.00 18733732.27  zM 67559646.00 18733732.27 L 67559646.00 18653186.42 L 67584902.00 18650699.00 A 334280.99 334280.99 0 0 0 67847550.00 18388051.00 L 67850037.42 18362795.00 L 67930583.27 18362795.00 L 67921664.00 18430545.00 A 416169.69 416169.69 0 0 1 67627396.00 18724813.00 L 67559646.00 18733732.27  zM 66330035.32 20975788.02 L 66249556.39 20975788.01 L 66247411.00 20954005.00 A 316498.27 316498.27 0 0 0 65998751.00 20705345.00 L 65976968.01 20703199.62 L 65976968.02 20622720.68 L 66040093.00 20631031.00 A 398279.91 398279.91 0 0 1 66321725.00 20912663.00 L 66330035.32 20975788.02  zM 65976967.98 21408775.32 L 65976967.99 21328296.39 L 65998751.00 21326151.00 A 316498.27 316498.27 0 0 0 66247411.00 21077491.00 L 66249556.38 21055708.01 L 66330035.32 21055708.02 L 66321725.00 21118833.00 A 398279.91 398279.91 0 0 1 66040093.00 21400465.00 L 65976967.98 21408775.32  zM 71480372.98 11597166.00 L 71399589.79 11597166.00 L 71410651.00 11513147.00 A 479012.90 479012.90 0 0 1 71749369.00 11174429.00 L 71833388.00 11163367.79 L 71833388.00 11244150.98 L 71795915.00 11247842.00 A 396890.84 396890.84 0 0 0 71484064.00 11559693.00 L 71480372.98 11597166.00  zM 71873351.13 11637106.82 m -296446.18 0 a 296446.18 296446.18 0 1 1 592892.36 0a 296446.18 296446.18 0 1 1 -592892.36 0M 72347106.21 11597166.00 L 72266323.02 11597166.00 L 72262632.00 11559693.00 A 396890.84 396890.84 0 0 0 71950781.00 11247842.00 L 71913308.00 11244150.98 L 71913308.00 11163367.79 L 71997327.00 11174429.00 A 479012.90 479012.90 0 0 1 72336045.00 11513147.00 L 72347106.21 11597166.00  zM 71833388.00 12110884.21 L 71749369.00 12099823.00 A 479012.90 479012.90 0 0 1 71410651.00 11761105.00 L 71399589.79 11677086.00 L 71480372.98 11677086.00 L 71484064.00 11714559.00 A 396890.84 396890.84 0 0 0 71795915.00 12026410.00 L 71833388.00 12030101.02 L 71833388.00 12110884.21  zM 71913308.00 12110884.21 L 71913308.00 12030101.02 L 71950781.00 12026410.00 A 396890.84 396890.84 0 0 0 72262632.00 11714559.00 L 72266323.02 11677086.00 L 72347106.21 11677086.00 L 72336045.00 11761105.00 A 479012.90 479012.90 0 0 1 71997327.00 12099823.00 L 71913308.00 12110884.21  zM 73228344.06 12992144.39 m -295938.61 0 a 295938.61 295938.61 0 1 1 591877.21 0a 295938.61 295938.61 0 1 1 -591877.21 0M 74190372.98 11597166.00 L 74109589.79 11597166.00 L 74120651.00 11513147.00 A 479012.90 479012.90 0 0 1 74459369.00 11174429.00 L 74543388.00 11163367.79 L 74543388.00 11244150.98 L 74505915.00 11247842.00 A 396890.84 396890.84 0 0 0 74194064.00 11559693.00 L 74190372.98 11597166.00  zM 74583351.13 11637106.82 m -296446.18 0 a 296446.18 296446.18 0 1 1 592892.36 0a 296446.18 296446.18 0 1 1 -592892.36 0M 74543388.00 12110884.21 L 74459369.00 12099823.00 A 479012.90 479012.90 0 0 1 74120651.00 11761105.00 L 74109589.79 11677086.00 L 74190372.98 11677086.00 L 74194064.00 11714559.00 A 396890.84 396890.84 0 0 0 74505915.00 12026410.00 L 74543388.00 12030101.02 L 74543388.00 12110884.21  zM 75057106.21 11597166.00 L 74976323.02 11597166.00 L 74972632.00 11559693.00 A 396890.84 396890.84 0 0 0 74660781.00 11247842.00 L 74623308.00 11244150.98 L 74623308.00 11163367.79 L 74707327.00 11174429.00 A 479012.90 479012.90 0 0 1 75046045.00 11513147.00 L 75057106.21 11597166.00  zM 74623308.00 12110884.21 L 74623308.00 12030101.02 L 74660781.00 12026410.00 A 396890.84 396890.84 0 0 0 74972632.00 11714559.00 L 74976323.02 11677086.00 L 75057106.21 11677086.00 L 75046045.00 11761105.00 A 479012.90 479012.90 0 0 1 74707327.00 12099823.00 L 74623308.00 12110884.21  zM 77559058.69 11220464.28 m -712098.72 0 a 712098.72 712098.72 0 1 1 1424197.44 0a 712098.72 712098.72 0 1 1 -1424197.44 0M 71480372.98 14307166.00 L 71399589.79 14307166.00 L 71410651.00 14223147.00 A 479012.90 479012.90 0 0 1 71749369.00 13884429.00 L 71833388.00 13873367.79 L 71833388.00 13954150.98 L 71795915.00 13957842.00 A 396890.84 396890.84 0 0 0 71484064.00 14269693.00 L 71480372.98 14307166.00  zM 71873351.13 14347106.82 m -296446.18 0 a 296446.18 296446.18 0 1 1 592892.36 0a 296446.18 296446.18 0 1 1 -592892.36 0M 72347106.21 14307166.00 L 72266323.02 14307166.00 L 72262632.00 14269693.00 A 396890.84 396890.84 0 0 0 71950781.00 13957842.00 L 71913308.00 13954150.98 L 71913308.00 13873367.79 L 71997327.00 13884429.00 A 479012.90 479012.90 0 0 1 72336045.00 14223147.00 L 72347106.21 14307166.00  zM 74190372.98 14307166.00 L 74109589.79 14307166.00 L 74120651.00 14223147.00 A 479012.90 479012.90 0 0 1 74459369.00 13884429.00 L 74543388.00 13873367.79 L 74543388.00 13954150.98 L 74505915.00 13957842.00 A 396890.84 396890.84 0 0 0 74194064.00 14269693.00 L 74190372.98 14307166.00  zM 74583351.13 14347106.82 m -296446.18 0 a 296446.18 296446.18 0 1 1 592892.36 0a 296446.18 296446.18 0 1 1 -592892.36 0M 75057106.21 14307166.00 L 74976323.02 14307166.00 L 74972632.00 14269693.00 A 396890.84 396890.84 0 0 0 74660781.00 13957842.00 L 74623308.00 13954150.98 L 74623308.00 13873367.79 L 74707327.00 13884429.00 A 479012.90 479012.90 0 0 1 75046045.00 14223147.00 L 75057106.21 14307166.00  zM 71913308.00 14820884.21 L 71913308.00 14740101.02 L 71950781.00 14736410.00 A 396890.84 396890.84 0 0 0 72262632.00 14424559.00 L 72266323.02 14387086.00 L 72347106.21 14387086.00 L 72336045.00 14471105.00 A 479012.90 479012.90 0 0 1 71997327.00 14809823.00 L 71913308.00 14820884.21  zM 74543388.00 14820884.21 L 74459369.00 14809823.00 A 479012.90 479012.90 0 0 1 74120651.00 14471105.00 L 74109589.79 14387086.00 L 74190372.98 14387086.00 L 74194064.00 14424559.00 A 396890.84 396890.84 0 0 0 74505915.00 14736410.00 L 74543388.00 14740101.02 L 74543388.00 14820884.21  zM 74623308.00 14820884.21 L 74623308.00 14740101.02 L 74660781.00 14736410.00 A 396890.84 396890.84 0 0 0 74972632.00 14424559.00 L 74976323.02 14387086.00 L 75057106.21 14387086.00 L 75046045.00 14471105.00 A 479012.90 479012.90 0 0 1 74707327.00 14809823.00 L 74623308.00 14820884.21  zM 71833388.00 14820884.21 L 71749369.00 14809823.00 A 479012.90 479012.90 0 0 1 71410651.00 14471105.00 L 71399589.79 14387086.00 L 71480372.98 14387086.00 L 71484064.00 14424559.00 A 396890.84 396890.84 0 0 0 71795915.00 14736410.00 L 71833388.00 14740101.02 L 71833388.00 14820884.21  zM 73611448.19 18463977.00 L 73531006.39 18463977.00 L 73529051.00 18444123.00 A 306620.41 306620.41 0 0 0 73288162.00 18203234.00 L 73268308.00 18201278.61 L 73268308.00 18120836.81 L 73328863.00 18128809.00 A 388386.75 388386.75 0 0 1 73603476.00 18403422.00 L 73611448.19 18463977.00  zM 71328739.59 19409456.48 m -160563.52 0 a 160563.52 160563.52 0 1 1 321127.04 0a 160563.52 160563.52 0 1 1 -321127.04 0M 72244096.00 18503936.99 m -297823.01 0 a 297823.01 297823.01 0 1 1 595646.03 0a 297823.01 297823.01 0 1 1 -595646.03 0M 71461963.00 21416733.00 L 71379860.00 21416733.00 L 71379860.00 21043308.00 A 395576.57 395576.57 0 0 0 71061433.00 20655303.00 L 71024214.00 20651637.47 L 71024214.00 20570859.99 L 71107894.00 20581877.00 A 477706.36 477706.36 0 0 1 71461963.00 21043308.00 L 71461963.00 21416733.00  zM 70588648.00 21416733.00 L 70506545.00 21416733.00 L 70506545.00 21043308.00 A 477717.67 477717.67 0 0 1 70860614.00 20581877.00 L 70944294.00 20570859.99 L 70944294.00 20651637.47 L 70907075.00 20655303.00 A 395622.24 395622.24 0 0 0 70588648.00 21043308.00 L 70588648.00 21416733.00  zM 70707331.00 21870079.00 L 70707331.00 21043307.00 A 276912.81 276912.81 0 1 1 71261177.00 21043307.00 L 71261177.00 21870079.00 A 276912.81 276912.81 0 1 1 70707331.00 21870079.00  zM 70944294.00 22342526.01 L 70860614.00 22331509.00 A 477706.36 477706.36 0 0 1 70506545.00 21870078.00 L 70506545.00 21496653.00 L 70588648.00 21496653.00 L 70588648.00 21870078.00 A 395576.57 395576.57 0 0 0 70907075.00 22258083.00 L 70944294.00 22261748.53 L 70944294.00 22342526.01  zM 71024214.00 22342526.01 L 71024214.00 22261748.53 L 71061433.00 22258083.00 A 395622.24 395622.24 0 0 0 71379860.00 21870078.00 L 71379860.00 21496653.00 L 71461963.00 21496653.00 L 71461963.00 21870078.00 A 477717.67 477717.67 0 0 1 71107894.00 22331509.00 L 71024214.00 22342526.01  zM 71941437.61 24172639.00 L 71860995.81 24172639.00 L 71868968.00 24112084.00 A 388372.57 388372.57 0 0 1 72143581.00 23837471.00 L 72204136.00 23829498.81 L 72204136.00 23909940.61 L 72184282.00 23911896.00 A 306620.41 306620.41 0 0 0 71943393.00 24152785.00 L 71941437.61 24172639.00  zM 72627196.19 24172639.00 L 72546754.39 24172639.00 L 72544799.00 24152785.00 A 306620.41 306620.41 0 0 0 72303910.00 23911896.00 L 72284056.00 23909940.61 L 72284056.00 23829498.81 L 72344611.00 23837471.00 A 388386.75 388386.75 0 0 1 72619224.00 24112084.00 L 72627196.19 24172639.00  zM 72244093.32 24212610.24 m -198537.76 0 a 198537.76 198537.76 0 1 1 397075.52 0a 198537.76 198537.76 0 1 1 -397075.52 0M 72204136.00 24595699.19 L 72143581.00 24587727.00 A 388386.75 388386.75 0 0 1 71868968.00 24313114.00 L 71860995.81 24252559.00 L 71941437.61 24252559.00 L 71943393.00 24272413.00 A 306620.41 306620.41 0 0 0 72184282.00 24513302.00 L 72204136.00 24515257.39 L 72204136.00 24595699.19  zM 72284056.00 24595699.19 L 72284056.00 24515257.39 L 72303910.00 24513302.00 A 306620.41 306620.41 0 0 0 72544799.00 24272413.00 L 72546754.39 24252559.00 L 72627196.19 24252559.00 L 72619224.00 24313114.00 A 388372.57 388372.57 0 0 1 72344611.00 24587727.00 L 72284056.00 24595699.19  zM 73228345.32 18503948.24 m -198537.76 0 a 198537.76 198537.76 0 1 1 397075.52 0a 198537.76 198537.76 0 1 1 -397075.52 0M 73268308.00 18887037.19 L 73268308.00 18806595.39 L 73288162.00 18804640.00 A 306620.41 306620.41 0 0 0 73529051.00 18563751.00 L 73531006.39 18543897.00 L 73611448.19 18543897.00 L 73603476.00 18604452.00 A 388372.57 388372.57 0 0 1 73328863.00 18879065.00 L 73268308.00 18887037.19  zM 74212600.00 18503936.99 m -297823.01 0 a 297823.01 297823.01 0 1 1 595646.03 0a 297823.01 297823.01 0 1 1 -595646.03 0M 75088581.59 19291346.48 m -160563.52 0 a 160563.52 160563.52 0 1 1 321127.04 0a 160563.52 160563.52 0 1 1 -321127.04 0M 75950151.00 21416733.00 L 75868048.00 21416733.00 L 75868048.00 21043308.00 A 395576.57 395576.57 0 0 0 75549621.00 20655303.00 L 75512402.00 20651637.47 L 75512402.00 20570859.99 L 75596082.00 20581877.00 A 477706.36 477706.36 0 0 1 75950151.00 21043308.00 L 75950151.00 21416733.00  zM 75076836.00 21416733.00 L 74994733.00 21416733.00 L 74994733.00 21043308.00 A 477717.67 477717.67 0 0 1 75348802.00 20581877.00 L 75432482.00 20570859.99 L 75432482.00 20651637.47 L 75395263.00 20655303.00 A 395622.24 395622.24 0 0 0 75076836.00 21043308.00 L 75076836.00 21416733.00  zM 75195519.00 21870079.00 L 75195519.00 21043307.00 A 276912.81 276912.81 0 1 1 75749365.00 21043307.00 L 75749365.00 21870079.00 A 276912.81 276912.81 0 1 1 75195519.00 21870079.00  zM 75432482.00 22342526.01 L 75348802.00 22331509.00 A 477706.36 477706.36 0 0 1 74994733.00 21870078.00 L 74994733.00 21496653.00 L 75076836.00 21496653.00 L 75076836.00 21870078.00 A 395576.57 395576.57 0 0 0 75395263.00 22258083.00 L 75432482.00 22261748.53 L 75432482.00 22342526.01  zM 74212600.00 24212598.99 m -297823.01 0 a 297823.01 297823.01 0 1 1 595646.03 0a 297823.01 297823.01 0 1 1 -595646.03 0M 75512402.00 22342526.01 L 75512402.00 22261748.53 L 75549621.00 22258083.00 A 395622.24 395622.24 0 0 0 75868048.00 21870078.00 L 75868048.00 21496653.00 L 75950151.00 21496653.00 L 75950151.00 21870078.00 A 477717.67 477717.67 0 0 1 75596082.00 22331509.00 L 75512402.00 22342526.01  zM 77559058.69 23425188.28 m -712098.72 0 a 712098.72 712098.72 0 1 1 1424197.44 0a 712098.72 712098.72 0 1 1 -1424197.44 0"/>
</g>
</svg>
