<svg width="179.00000776mm" height="38.00002814mm" viewBox="0 0 70472444 14960641"  version="1.1" xmlns="http://www.w3.org/2000/svg" xmlns:xlink="http://www.w3.org/1999/xlink">
<desc>
Origin 43700788 9842526 Bound 8464567 9842515 70472444 14960641
</desc>
<g fill-rule="evenodd" fill="rgb(112, 219, 250)" stroke="black" stroke-width="1" transform="translate(0, 14960641) scale(1, -1) translate(-8464567, -9842515)">
<path id="N" d="M 77661181.97 24722872.00 A 1301702.88 1301702.88 0 0 0 77661181.79 22127521.94 L 77559055.00 22127521.00 L 77479181.00 22124949.00 L 77318156.00 22104139.00 L 77158626.00 22062104.00 A 1261105.83 1261105.83 0 0 1 76297720.00 20868768.00 L 76297676.00 13779528.00 L 76300248.00 13699653.00 L 76321058.00 13538628.00 L 76363093.00 13379098.00 A 1261105.83 1261105.83 0 0 1 77556430.00 12518192.00 L 77661181.23 12518147.12 A 1301696.29 1301696.29 0 0 0 77661182.15 9922793.00 L 9740392.85 9922798.00 A 1301664.13 1301664.13 0 0 0 9740393.40 12518148.06 L 9842521.00 12518149.00 L 9922393.00 12520720.00 L 10083419.00 12541530.00 L 10242949.00 12583565.00 A 1261105.83 1261105.83 0 0 1 11103856.00 13776901.00 L 11103900.00 20866142.00 L 11101327.00 20946017.00 L 11080517.00 21107041.00 L 11038482.00 21266571.00 A 1261105.83 1261105.83 0 0 1 9845148.00 22127479.00 L 9740392.85 22127522.00 A 1301664.13 1301664.13 0 0 0 9740393.03 24722872.00 L 77661181.97 24722872.00  zM 9842522.69 11220464.28 m -712098.72 0 a 712098.72 712098.72 0 1 1 1424197.44 0a 712098.72 712098.72 0 1 1 -1424197.44 0M 17282875.00 17667820.37 L 17232185.00 17661147.00 A 350234.70 350234.70 0 0 1 16984528.00 17413490.00 L 16977854.63 17362800.00 L 17058153.36 17362800.00 L 17059379.00 17375245.00 A 268611.75 268611.75 0 0 0 17270430.00 17586296.00 L 17282875.00 17587521.64 L 17282875.00 17667820.37  zM 17322831.20 16322855.37 m -268026.63 0 a 268026.63 268026.63 0 1 1 536053.26 0a 268026.63 268026.63 0 1 1 -536053.26 0M 17058153.55 17282880.00 L 16977854.89 17282880.00 L 16984528.00 17232192.00 A 350234.70 350234.70 0 0 1 17232185.00 16984535.00 L 17282875.00 16977861.63 L 17282875.00 17058160.36 L 17270430.00 17059386.00 A 268611.75 268611.75 0 0 0 17059379.00 17270437.00 L 17058153.55 17282880.00  zM 14695319.00 18179369.00 L 14690844.90 18156876.17 L 14639865.10 18156876.17 L 14635391.00 18179369.00 A 180634.12 180634.12 0 0 1 14301619.00 18179369.00 L 14297144.40 18156873.66 L 14246164.60 18156873.66 L 14241690.00 18179369.00 A 180634.12 180634.12 0 1 1 14241690.00 18041117.00 L 14246164.60 18063612.34 L 14297144.40 18063612.34 L 14301619.00 18041117.00 A 180634.12 180634.12 0 0 1 14635391.00 18041117.00 L 14639865.10 18063609.83 L 14690844.90 18063609.83 L 14695319.00 18041117.00 A 180634.12 180634.12 0 1 1 14695319.00 18179369.00  zM 9842522.69 23425188.28 m -712098.72 0 a 712098.72 712098.72 0 1 1 1424197.44 0a 712098.72 712098.72 0 1 1 -1424197.44 0M 14862205.44 17618115.65 m -180637.35 0 a 180637.35 180637.35 0 1 1 361274.69 0a 180637.35 180637.35 0 1 1 -361274.69 0M 17322831.20 18322855.37 m -268026.63 0 a 268026.63 268026.63 0 1 1 536053.26 0a 268026.63 268026.63 0 1 1 -536053.26 0M 17667813.11 17282880.00 L 17587514.45 17282880.00 L 17586289.00 17270437.00 A 268611.75 268611.75 0 0 0 17375238.00 17059386.00 L 17362795.00 17058160.55 L 17362795.00 16977861.89 L 17413483.00 16984535.00 A 350234.70 350234.70 0 0 1 17661140.00 17232192.00 L 17667813.11 17282880.00  zM 19025494.59 15669298.48 m -160563.52 0 a 160563.52 160563.52 0 1 1 321127.04 0a 160563.52 160563.52 0 1 1 -321127.04 0M 17322837.53 17322826.54 m -168781.46 0 a 168781.46 168781.46 0 1 1 337562.93 0a 168781.46 168781.46 0 1 1 -337562.93 0M 17362795.00 17667820.11 L 17362795.00 17587521.45 L 17375238.00 17586296.00 A 268611.75 268611.75 0 0 0 17586289.00 17375245.00 L 17587514.64 17362800.00 L 17667813.37 17362800.00 L 17661140.00 17413490.00 A 350234.70 350234.70 0 0 1 17413483.00 17661147.00 L 17362795.00 17667820.11  zM 19330707.59 15305125.48 m -160563.52 0 a 160563.52 160563.52 0 1 1 321127.04 0a 160563.52 160563.52 0 1 1 -321127.04 0M 21658118.71 15861576.47 L 21648971.29 15861576.47 A 160562.43 160562.43 0 1 1 21648971.29 15634501.53 L 21658118.71 15634501.53 A 160562.43 160562.43 0 1 1 21658118.71 15861576.47  zM 24428350.44 23100398.65 m -180637.35 0 a 180637.35 180637.35 0 1 1 361274.69 0a 180637.35 180637.35 0 1 1 -361274.69 0M 25334644.59 22751976.48 m -160563.52 0 a 160563.52 160563.52 0 1 1 321127.04 0a 160563.52 160563.52 0 1 1 -321127.04 0M 29362204.40 13842519.06 m -593408.94 0 a 593408.94 593408.94 0 1 1 1186817.89 0a 593408.94 593408.94 0 1 1 -1186817.89 0M 32078740.00 15015747.99 m -297823.01 0 a 297823.01 297823.01 0 1 1 595646.03 0a 297823.01 297823.01 0 1 1 -595646.03 0M 32667321.59 12027566.48 m -160563.52 0 a 160563.52 160563.52 0 1 1 321127.04 0a 160563.52 160563.52 0 1 1 -321127.04 0M 32564683.59 12539377.48 m -160563.52 0 a 160563.52 160563.52 0 1 1 321127.04 0a 160563.52 160563.52 0 1 1 -321127.04 0M 32078740.00 16015747.99 m -297823.01 0 a 297823.01 297823.01 0 1 1 595646.03 0a 297823.01 297823.01 0 1 1 -595646.03 0M 32078740.00 17015747.99 m -297823.01 0 a 297823.01 297823.01 0 1 1 595646.03 0a 297823.01 297823.01 0 1 1 -595646.03 0M 32078740.00 18015747.99 m -297823.01 0 a 297823.01 297823.01 0 1 1 595646.03 0a 297823.01 297823.01 0 1 1 -595646.03 0M 32078740.00 19015747.99 m -297823.01 0 a 297823.01 297823.01 0 1 1 595646.03 0a 297823.01 297823.01 0 1 1 -595646.03 0M 29362204.40 22188975.06 m -593408.94 0 a 593408.94 593408.94 0 1 1 1186817.89 0a 593408.94 593408.94 0 1 1 -1186817.89 0M 32038779.98 21408775.32 L 31975655.00 21400465.00 A 398279.91 398279.91 0 0 1 31694023.00 21118833.00 L 31685712.68 21055707.98 L 31766191.61 21055707.99 L 31768337.00 21077491.00 A 316498.27 316498.27 0 0 0 32016997.00 21326151.00 L 32038779.99 21328296.38 L 32038779.98 21408775.32  zM 31766191.62 20975787.99 L 31685712.68 20975787.98 L 31694023.00 20912663.00 A 398279.91 398279.91 0 0 1 31975655.00 20631031.00 L 32038780.02 20622720.68 L 32038780.01 20703199.61 L 32016997.00 20705345.00 A 316498.27 316498.27 0 0 0 31768337.00 20954005.00 L 31766191.62 20975787.99  zM 32078736.35 21015766.58 m -198530.42 0 a 198530.42 198530.42 0 1 1 397060.85 0a 198530.42 198530.42 0 1 1 -397060.85 0M 32078740.00 20015747.99 m -297823.01 0 a 297823.01 297823.01 0 1 1 595646.03 0a 297823.01 297823.01 0 1 1 -595646.03 0M 32471767.32 20975788.02 L 32391288.39 20975788.01 L 32389143.00 20954005.00 A 316498.27 316498.27 0 0 0 32140483.00 20705345.00 L 32118700.01 20703199.62 L 32118700.02 20622720.68 L 32181825.00 20631031.00 A 398279.91 398279.91 0 0 1 32463457.00 20912663.00 L 32471767.32 20975788.02  zM 32118699.98 21408775.32 L 32118699.99 21328296.39 L 32140483.00 21326151.00 A 316498.27 316498.27 0 0 0 32389143.00 21077491.00 L 32391288.38 21055708.01 L 32471767.32 21055708.02 L 32463457.00 21118833.00 A 398279.91 398279.91 0 0 1 32181825.00 21400465.00 L 32118699.98 21408775.32  zM 33228345.59 11805774.48 m -160563.52 0 a 160563.52 160563.52 0 1 1 321127.04 0a 160563.52 160563.52 0 1 1 -321127.04 0M 34084644.59 14045283.48 m -160563.52 0 a 160563.52 160563.52 0 1 1 321127.04 0a 160563.52 160563.52 0 1 1 -321127.04 0M 37622103.98 11597166.00 L 37541320.79 11597166.00 L 37552382.00 11513147.00 A 479012.90 479012.90 0 0 1 37891100.00 11174429.00 L 37975119.00 11163367.79 L 37975119.00 11244150.98 L 37937646.00 11247842.00 A 396890.84 396890.84 0 0 0 37625795.00 11559693.00 L 37622103.98 11597166.00  zM 37975119.00 12110884.21 L 37891100.00 12099823.00 A 479027.07 479027.07 0 0 1 37552382.00 11761105.00 L 37541320.79 11677086.00 L 37622103.98 11677086.00 L 37625795.00 11714559.00 A 396890.84 396890.84 0 0 0 37937646.00 12026410.00 L 37975119.00 12030101.02 L 37975119.00 12110884.21  zM 38015082.13 11637106.82 m -296446.18 0 a 296446.18 296446.18 0 1 1 592892.36 0a 296446.18 296446.18 0 1 1 -592892.36 0M 38488837.21 11597166.00 L 38408054.02 11597166.00 L 38404363.00 11559693.00 A 396890.84 396890.84 0 0 0 38092512.00 11247842.00 L 38055039.00 11244150.98 L 38055039.00 11163367.79 L 38139058.00 11174429.00 A 479027.07 479027.07 0 0 1 38477776.00 11513147.00 L 38488837.21 11597166.00  zM 38055039.00 12110884.21 L 38055039.00 12030101.02 L 38092512.00 12026410.00 A 396890.84 396890.84 0 0 0 38404363.00 11714559.00 L 38408054.02 11677086.00 L 38488837.21 11677086.00 L 38477776.00 11761105.00 A 479012.90 479012.90 0 0 1 38139058.00 12099823.00 L 38055039.00 12110884.21  zM 37622103.98 14307166.00 L 37541320.79 14307166.00 L 37552382.00 14223147.00 A 479012.90 479012.90 0 0 1 37891100.00 13884429.00 L 37975119.00 13873367.79 L 37975119.00 13954150.98 L 37937646.00 13957842.00 A 396890.84 396890.84 0 0 0 37625795.00 14269693.00 L 37622103.98 14307166.00  zM 33661418.09 16322830.09 m -315697.91 0 a 315697.91 315697.91 0 1 1 631395.82 0a 315697.91 315697.91 0 1 1 -631395.82 0M 33661418.09 17322830.09 m -315697.91 0 a 315697.91 315697.91 0 1 1 631395.82 0a 315697.91 315697.91 0 1 1 -631395.82 0M 35661418.09 16322830.09 m -315697.91 0 a 315697.91 315697.91 0 1 1 631395.82 0a 315697.91 315697.91 0 1 1 -631395.82 0M 37975119.00 14820884.21 L 37891100.00 14809823.00 A 479027.07 479027.07 0 0 1 37552382.00 14471105.00 L 37541320.79 14387086.00 L 37622103.98 14387086.00 L 37625795.00 14424559.00 A 396890.84 396890.84 0 0 0 37937646.00 14736410.00 L 37975119.00 14740101.02 L 37975119.00 14820884.21  zM 38015082.13 14347106.82 m -296446.18 0 a 296446.18 296446.18 0 1 1 592892.36 0a 296446.18 296446.18 0 1 1 -592892.36 0M 38488837.21 14307166.00 L 38408054.02 14307166.00 L 38404363.00 14269693.00 A 396890.84 396890.84 0 0 0 38092512.00 13957842.00 L 38055039.00 13954150.98 L 38055039.00 13873367.79 L 38139058.00 13884429.00 A 479027.07 479027.07 0 0 1 38477776.00 14223147.00 L 38488837.21 14307166.00  zM 38055039.00 14820884.21 L 38055039.00 14740101.02 L 38092512.00 14736410.00 A 396890.84 396890.84 0 0 0 38404363.00 14424559.00 L 38408054.02 14387086.00 L 38488837.21 14387086.00 L 38477776.00 14471105.00 A 479012.90 479012.90 0 0 1 38139058.00 14809823.00 L 38055039.00 14820884.21  zM 33331065.58 18282875.00 L 33250519.73 18282875.00 L 33259439.00 18215125.00 A 416169.69 416169.69 0 0 1 33553707.00 17920857.00 L 33621457.00 17911937.73 L 33621457.00 17992483.58 L 33596201.00 17994971.00 A 334280.99 334280.99 0 0 0 33333553.00 18257619.00 L 33331065.58 18282875.00  zM 34072314.27 18282875.00 L 33991768.42 18282875.00 L 33989281.00 18257619.00 A 334280.99 334280.99 0 0 0 33726633.00 17994971.00 L 33701377.00 17992483.58 L 33701377.00 17911937.73 L 33769127.00 17920857.00 A 416169.69 416169.69 0 0 1 34063395.00 18215125.00 L 34072314.27 18282875.00  zM 33621457.00 18733732.27 L 33553707.00 18724813.00 A 416169.69 416169.69 0 0 1 33259439.00 18430545.00 L 33250519.73 18362795.00 L 33331065.58 18362795.00 L 33333553.00 18388051.00 A 334280.99 334280.99 0 0 0 33596201.00 18650699.00 L 33621457.00 18653186.42 L 33621457.00 18733732.27  zM 33661414.44 18322847.68 m -216405.32 0 a 216405.32 216405.32 0 1 1 432810.64 0a 216405.32 216405.32 0 1 1 -432810.64 0M 33701377.00 18733732.27 L 33701377.00 18653186.42 L 33726633.00 18650699.00 A 334280.99 334280.99 0 0 0 33989281.00 18388051.00 L 33991768.42 18362795.00 L 34072314.27 18362795.00 L 34063395.00 18430545.00 A 416169.69 416169.69 0 0 1 33769127.00 18724813.00 L 33701377.00 18733732.27  zM 35661418.09 17322830.09 m -315697.91 0 a 315697.91 315697.91 0 1 1 631395.82 0a 315697.91 315697.91 0 1 1 -631395.82 0M 35661418.09 18322830.09 m -315697.91 0 a 315697.91 315697.91 0 1 1 631395.82 0a 315697.91 315697.91 0 1 1 -631395.82 0M 38385826.03 18503944.32 m -297815.68 0 a 297815.68 297815.68 0 1 1 595631.35 0a 297815.68 297815.68 0 1 1 -595631.35 0M 36730379.00 21416733.00 L 36648276.00 21416733.00 L 36648276.00 21043308.00 A 477717.67 477717.67 0 0 1 37002345.00 20581877.00 L 37086025.00 20570859.99 L 37086025.00 20651637.47 L 37048806.00 20655303.00 A 395622.24 395622.24 0 0 0 36730379.00 21043308.00 L 36730379.00 21416733.00  zM 37603694.00 21416733.00 L 37521591.00 21416733.00 L 37521591.00 21043308.00 A 395576.57 395576.57 0 0 0 37203164.00 20655303.00 L 37165945.00 20651637.47 L 37165945.00 20570859.99 L 37249625.00 20581877.00 A 477692.18 477692.18 0 0 1 37603694.00 21043308.00 L 37603694.00 21416733.00  zM 36849062.00 21870079.00 L 36849062.00 21043307.00 A 276912.81 276912.81 0 1 1 37402908.00 21043307.00 L 37402908.00 21870079.00 A 276912.81 276912.81 0 1 1 36849062.00 21870079.00  zM 37165945.00 22342526.01 L 37165945.00 22261748.53 L 37203164.00 22258083.00 A 395622.24 395622.24 0 0 0 37521591.00 21870078.00 L 37521591.00 21496653.00 L 37603694.00 21496653.00 L 37603694.00 21870078.00 A 477717.67 477717.67 0 0 1 37249625.00 22331509.00 L 37165945.00 22342526.01  zM 37086025.00 22342526.01 L 37002345.00 22331509.00 A 477692.18 477692.18 0 0 1 36648276.00 21870078.00 L 36648276.00 21496653.00 L 36730379.00 21496653.00 L 36730379.00 21870078.00 A 395576.57 395576.57 0 0 0 37048806.00 22258083.00 L 37086025.00 22261748.53 L 37086025.00 22342526.01  zM 38083168.61 24172639.00 L 38002726.81 24172639.00 L 38010699.00 24112084.00 A 388372.57 388372.57 0 0 1 38285312.00 23837471.00 L 38345867.00 23829498.81 L 38345867.00 23909940.61 L 38326013.00 23911896.00 A 306620.41 306620.41 0 0 0 38085124.00 24152785.00 L 38083168.61 24172639.00  zM 38345867.00 24595699.19 L 38285312.00 24587727.00 A 388372.57 388372.57 0 0 1 38010699.00 24313114.00 L 38002726.81 24252559.00 L 38083168.61 24252559.00 L 38085124.00 24272413.00 A 306620.41 306620.41 0 0 0 38326013.00 24513302.00 L 38345867.00 24515257.39 L 38345867.00 24595699.19  zM 40332103.98 11597166.00 L 40251320.79 11597166.00 L 40262382.00 11513147.00 A 479012.90 479012.90 0 0 1 40601100.00 11174429.00 L 40685119.00 11163367.79 L 40685119.00 11244150.98 L 40647646.00 11247842.00 A 396890.84 396890.84 0 0 0 40335795.00 11559693.00 L 40332103.98 11597166.00  zM 40685119.00 12110884.21 L 40601100.00 12099823.00 A 479027.07 479027.07 0 0 1 40262382.00 11761105.00 L 40251320.79 11677086.00 L 40332103.98 11677086.00 L 40335795.00 11714559.00 A 396890.84 396890.84 0 0 0 40647646.00 12026410.00 L 40685119.00 12030101.02 L 40685119.00 12110884.21  zM 39370076.02 12992137.06 m -295945.94 0 a 295945.94 295945.94 0 1 1 591891.89 0a 295945.94 295945.94 0 1 1 -591891.89 0M 40332103.98 14307166.00 L 40251320.79 14307166.00 L 40262382.00 14223147.00 A 479012.90 479012.90 0 0 1 40601100.00 13884429.00 L 40685119.00 13873367.79 L 40685119.00 13954150.98 L 40647646.00 13957842.00 A 396890.84 396890.84 0 0 0 40335795.00 14269693.00 L 40332103.98 14307166.00  zM 40725082.13 11637106.82 m -296446.18 0 a 296446.18 296446.18 0 1 1 592892.36 0a 296446.18 296446.18 0 1 1 -592892.36 0M 41198837.21 11597166.00 L 41118054.02 11597166.00 L 41114363.00 11559693.00 A 396890.84 396890.84 0 0 0 40802512.00 11247842.00 L 40765039.00 11244150.98 L 40765039.00 11163367.79 L 40849058.00 11174429.00 A 479027.07 479027.07 0 0 1 41187776.00 11513147.00 L 41198837.21 11597166.00  zM 40765039.00 12110884.21 L 40765039.00 12030101.02 L 40802512.00 12026410.00 A 396890.84 396890.84 0 0 0 41114363.00 11714559.00 L 41118054.02 11677086.00 L 41198837.21 11677086.00 L 41187776.00 11761105.00 A 479012.90 479012.90 0 0 1 40849058.00 12099823.00 L 40765039.00 12110884.21  zM 42814962.98 13188982.87 m -305765.13 0 a 305765.13 305765.13 0 1 1 611530.25 0a 305765.13 305765.13 0 1 1 -611530.25 0M 40685119.00 14820884.21 L 40601100.00 14809823.00 A 479027.07 479027.07 0 0 1 40262382.00 14471105.00 L 40251320.79 14387086.00 L 40332103.98 14387086.00 L 40335795.00 14424559.00 A 396890.84 396890.84 0 0 0 40647646.00 14736410.00 L 40685119.00 14740101.02 L 40685119.00 14820884.21  zM 40725082.13 14347106.82 m -296446.18 0 a 296446.18 296446.18 0 1 1 592892.36 0a 296446.18 296446.18 0 1 1 -592892.36 0M 41198837.21 14307166.00 L 41118054.02 14307166.00 L 41114363.00 14269693.00 A 396890.84 396890.84 0 0 0 40802512.00 13957842.00 L 40765039.00 13954150.98 L 40765039.00 13873367.79 L 40849058.00 13884429.00 A 479027.07 479027.07 0 0 1 41187776.00 14223147.00 L 41198837.21 14307166.00  zM 40765039.00 14820884.21 L 40765039.00 14740101.02 L 40802512.00 14736410.00 A 396890.84 396890.84 0 0 0 41114363.00 14424559.00 L 41118054.02 14387086.00 L 41198837.21 14387086.00 L 41187776.00 14471105.00 A 479012.90 479012.90 0 0 1 40849058.00 14809823.00 L 40765039.00 14820884.21  zM 39067420.61 18463977.00 L 38986978.81 18463977.00 L 38994951.00 18403422.00 A 388372.57 388372.57 0 0 1 39269564.00 18128809.00 L 39330119.00 18120836.81 L 39330119.00 18201278.61 L 39310265.00 18203234.00 A 306620.41 306620.41 0 0 0 39069376.00 18444123.00 L 39067420.61 18463977.00  zM 39753179.19 18463977.00 L 39672737.39 18463977.00 L 39670782.00 18444123.00 A 306620.41 306620.41 0 0 0 39429893.00 18203234.00 L 39410039.00 18201278.61 L 39410039.00 18120836.81 L 39470594.00 18128809.00 A 388372.57 388372.57 0 0 1 39745207.00 18403422.00 L 39753179.19 18463977.00  zM 43414681.59 16436343.48 m -160563.52 0 a 160563.52 160563.52 0 1 1 321127.04 0a 160563.52 160563.52 0 1 1 -321127.04 0M 43700789.69 11220464.28 m -712098.72 0 a 712098.72 712098.72 0 1 1 1424197.44 0a 712098.72 712098.72 0 1 1 -1424197.44 0M 44502413.62 13149022.97 L 44421934.68 13149022.97 L 44430245.00 13085898.00 A 398279.91 398279.91 0 0 1 44711877.00 12804266.00 L 44774998.03 12795956.20 L 44774998.03 12876435.01 L 44753219.00 12878580.00 A 316498.27 316498.27 0 0 0 44504559.00 13127240.00 L 44502413.62 13149022.97  zM 43814962.98 13188982.87 m -305765.13 0 a 305765.13 305765.13 0 1 1 611530.25 0a 305765.13 305765.13 0 1 1 -611530.25 0M 44774997.97 13582009.79 L 44711877.00 13573700.00 A 398279.91 398279.91 0 0 1 44430245.00 13292068.00 L 44421934.68 13228942.97 L 44502413.61 13228942.97 L 44504559.00 13250726.00 A 316498.27 316498.27 0 0 0 44753219.00 13499386.00 L 44774997.97 13501530.99 L 44774997.97 13582009.79  zM 44814960.30 13188994.13 m -206479.87 0 a 206479.87 206479.87 0 1 1 412959.74 0a 206479.87 206479.87 0 1 1 -412959.74 0M 44854917.97 13582010.85 L 44854917.97 13501531.78 L 44876705.00 13499386.00 A 316498.27 316498.27 0 0 0 45125365.00 13250726.00 L 45127510.38 13228943.03 L 45207989.32 13228943.03 L 45199679.00 13292068.00 A 398279.91 398279.91 0 0 1 44918047.00 13573700.00 L 44854917.97 13582010.85  zM 45207989.32 13149023.03 L 45127510.39 13149023.03 L 45125365.00 13127240.00 A 316498.27 316498.27 0 0 0 44876705.00 12878580.00 L 44854918.03 12876434.23 L 44854918.03 12795955.16 L 44918047.00 12804266.00 A 398279.91 398279.91 0 0 1 45199679.00 13085898.00 L 45207989.32 13149023.03  zM 45814962.98 13188982.87 m -305765.13 0 a 305765.13 305765.13 0 1 1 611530.25 0a 305765.13 305765.13 0 1 1 -611530.25 0M 46814962.98 13188982.87 m -305765.13 0 a 305765.13 305765.13 0 1 1 611530.25 0a 305765.13 305765.13 0 1 1 -611530.25 0M 47814962.98 13188982.87 m -305765.13 0 a 305765.13 305765.13 0 1 1 611530.25 0a 305765.13 305765.13 0 1 1 -611530.25 0M 48814962.98 13188982.87 m -305765.13 0 a 305765.13 305765.13 0 1 1 611530.25 0a 305765.13 305765.13 0 1 1 -611530.25 0M 49774997.97 13582009.79 L 49711877.00 13573700.00 A 398279.91 398279.91 0 0 1 49430245.00 13292068.00 L 49421934.68 13228942.97 L 49502413.61 13228942.97 L 49504559.00 13250726.00 A 316498.27 316498.27 0 0 0 49753219.00 13499386.00 L 49774997.97 13501530.99 L 49774997.97 13582009.79  zM 49502413.62 13149022.97 L 49421934.68 13149022.97 L 49430245.00 13085898.00 A 398279.91 398279.91 0 0 1 49711877.00 12804266.00 L 49774998.03 12795956.20 L 49774998.03 12876435.01 L 49753219.00 12878580.00 A 316498.27 316498.27 0 0 0 49504559.00 13127240.00 L 49502413.62 13149022.97  zM 49814960.30 13188994.13 m -206479.87 0 a 206479.87 206479.87 0 1 1 412959.74 0a 206479.87 206479.87 0 1 1 -412959.74 0M 49854917.97 13582010.85 L 49854917.97 13501531.78 L 49876705.00 13499386.00 A 316498.27 316498.27 0 0 0 50125365.00 13250726.00 L 50127510.38 13228943.03 L 50207989.32 13228943.03 L 50199679.00 13292068.00 A 398279.91 398279.91 0 0 1 49918047.00 13573700.00 L 49854917.97 13582010.85  zM 39330119.00 18887037.19 L 39269564.00 18879065.00 A 388372.57 388372.57 0 0 1 38994951.00 18604452.00 L 38986978.81 18543897.00 L 39067420.61 18543897.00 L 39069376.00 18563751.00 A 306620.41 306620.41 0 0 0 39310265.00 18804640.00 L 39330119.00 18806595.39 L 39330119.00 18887037.19  zM 39370076.32 18503948.24 m -198537.76 0 a 198537.76 198537.76 0 1 1 397075.52 0a 198537.76 198537.76 0 1 1 -397075.52 0M 39410039.00 18887037.19 L 39410039.00 18806595.39 L 39429893.00 18804640.00 A 306620.41 306620.41 0 0 0 39670782.00 18563751.00 L 39672737.39 18543897.00 L 39753179.19 18543897.00 L 39745207.00 18604452.00 A 388372.57 388372.57 0 0 1 39470594.00 18879065.00 L 39410039.00 18887037.19  zM 39419290.59 19980322.48 m -160563.52 0 a 160563.52 160563.52 0 1 1 321127.04 0a 160563.52 160563.52 0 1 1 -321127.04 0M 40354330.03 18503944.32 m -297815.68 0 a 297815.68 297815.68 0 1 1 595631.35 0a 297815.68 297815.68 0 1 1 -595631.35 0M 42814962.98 20188982.87 m -305765.13 0 a 305765.13 305765.13 0 1 1 611530.25 0a 305765.13 305765.13 0 1 1 -611530.25 0M 41218567.00 21416733.00 L 41136464.00 21416733.00 L 41136464.00 21043308.00 A 477717.67 477717.67 0 0 1 41490533.00 20581877.00 L 41574213.00 20570859.99 L 41574213.00 20651637.47 L 41536994.00 20655303.00 A 395622.24 395622.24 0 0 0 41218567.00 21043308.00 L 41218567.00 21416733.00  zM 42091882.00 21416733.00 L 42009779.00 21416733.00 L 42009779.00 21043308.00 A 395576.57 395576.57 0 0 0 41691352.00 20655303.00 L 41654133.00 20651637.47 L 41654133.00 20570859.99 L 41737813.00 20581877.00 A 477692.18 477692.18 0 0 1 42091882.00 21043308.00 L 42091882.00 21416733.00  zM 38385824.32 24212610.24 m -198537.76 0 a 198537.76 198537.76 0 1 1 397075.52 0a 198537.76 198537.76 0 1 1 -397075.52 0M 38768927.19 24172639.00 L 38688485.39 24172639.00 L 38686530.00 24152785.00 A 306620.41 306620.41 0 0 0 38445641.00 23911896.00 L 38425787.00 23909940.61 L 38425787.00 23829498.81 L 38486342.00 23837471.00 A 388372.57 388372.57 0 0 1 38760955.00 24112084.00 L 38768927.19 24172639.00  zM 38425787.00 24595699.19 L 38425787.00 24515257.39 L 38445641.00 24513302.00 A 306620.41 306620.41 0 0 0 38686530.00 24272413.00 L 38688485.39 24252559.00 L 38768927.19 24252559.00 L 38760955.00 24313114.00 A 388372.57 388372.57 0 0 1 38486342.00 24587727.00 L 38425787.00 24595699.19  zM 40354330.03 24212606.32 m -297815.68 0 a 297815.68 297815.68 0 1 1 595631.35 0a 297815.68 297815.68 0 1 1 -595631.35 0M 41337250.00 21870079.00 L 41337250.00 21043307.00 A 276912.81 276912.81 0 0 1 41891096.00 21043307.00 L 41891096.00 21870079.00 A 276912.81 276912.81 0 0 1 41337250.00 21870079.00  zM 41654133.00 22342526.01 L 41654133.00 22261748.53 L 41691352.00 22258083.00 A 395622.24 395622.24 0 0 0 42009779.00 21870078.00 L 42009779.00 21496653.00 L 42091882.00 21496653.00 L 42091882.00 21870078.00 A 477717.67 477717.67 0 0 1 41737813.00 22331509.00 L 41654133.00 22342526.01  zM 41574213.00 22342526.01 L 41490533.00 22331509.00 A 477692.18 477692.18 0 0 1 41136464.00 21870078.00 L 41136464.00 21496653.00 L 41218567.00 21496653.00 L 41218567.00 21870078.00 A 395576.57 395576.57 0 0 0 41536994.00 22258083.00 L 41574213.00 22261748.53 L 41574213.00 22342526.01  zM 43814962.98 20188982.87 m -305765.13 0 a 305765.13 305765.13 0 1 1 611530.25 0a 305765.13 305765.13 0 1 1 -611530.25 0M 44502413.62 20149023.00 L 44421934.68 20149023.00 L 44430245.00 20085898.00 A 398279.91 398279.91 0 0 1 44711877.00 19804266.00 L 44775002.00 19795955.68 L 44775002.00 19876434.62 L 44753219.00 19878580.00 A 316498.27 316498.27 0 0 0 44504559.00 20127240.00 L 44502413.62 20149023.00  zM 45207989.32 20149023.00 L 45127510.38 20149023.00 L 45125365.00 20127240.00 A 316498.27 316498.27 0 0 0 44876705.00 19878580.00 L 44854922.00 19876434.62 L 44854922.00 19795955.68 L 44918047.00 19804266.00 A 398279.91 398279.91 0 0 1 45199679.00 20085898.00 L 45207989.32 20149023.00  zM 45814962.98 20188982.87 m -305765.13 0 a 305765.13 305765.13 0 1 1 611530.25 0a 305765.13 305765.13 0 1 1 -611530.25 0M 44814960.30 20188994.13 m -206479.87 0 a 206479.87 206479.87 0 1 1 412959.74 0a 206479.87 206479.87 0 1 1 -412959.74 0M 44854922.00 20582010.32 L 44854922.00 20501531.38 L 44876705.00 20499386.00 A 316498.27 316498.27 0 0 0 45125365.00 20250726.00 L 45127510.38 20228943.00 L 45207989.32 20228943.00 L 45199679.00 20292068.00 A 398279.91 398279.91 0 0 1 44918047.00 20573700.00 L 44854922.00 20582010.32  zM 44775002.00 20582010.32 L 44711877.00 20573700.00 A 398279.91 398279.91 0 0 1 44430245.00 20292068.00 L 44421934.68 20228943.00 L 44502413.62 20228943.00 L 44504559.00 20250726.00 A 316498.27 316498.27 0 0 0 44753219.00 20499386.00 L 44775002.00 20501531.38 L 44775002.00 20582010.32  zM 43700790.69 23425188.28 m -712098.72 0 a 712098.72 712098.72 0 1 1 1424197.44 0a 712098.72 712098.72 0 1 1 -1424197.44 0M 46814962.98 20188982.87 m -305765.13 0 a 305765.13 305765.13 0 1 1 611530.25 0a 305765.13 305765.13 0 1 1 -611530.25 0M 47814962.98 20188982.87 m -305765.13 0 a 305765.13 305765.13 0 1 1 611530.25 0a 305765.13 305765.13 0 1 1 -611530.25 0M 48351527.59 18534416.48 m -160563.52 0 a 160563.52 160563.52 0 1 1 321127.04 0a 160563.52 160563.52 0 1 1 -321127.04 0M 48814962.98 20188982.87 m -305765.13 0 a 305765.13 305765.13 0 1 1 611530.25 0a 305765.13 305765.13 0 1 1 -611530.25 0M 49502413.62 20149023.00 L 49421934.68 20149023.00 L 49430245.00 20085898.00 A 398279.91 398279.91 0 0 1 49711877.00 19804266.00 L 49775002.00 19795955.68 L 49775002.00 19876434.62 L 49753219.00 19878580.00 A 316498.27 316498.27 0 0 0 49504559.00 20127240.00 L 49502413.62 20149023.00  zM 49814960.30 20188994.13 m -206479.87 0 a 206479.87 206479.87 0 1 1 412959.74 0a 206479.87 206479.87 0 1 1 -412959.74 0M 49775002.00 20582010.32 L 49711877.00 20573700.00 A 398279.91 398279.91 0 0 1 49430245.00 20292068.00 L 49421934.68 20228943.00 L 49502413.62 20228943.00 L 49504559.00 20250726.00 A 316498.27 316498.27 0 0 0 49753219.00 20499386.00 L 49775002.00 20501531.38 L 49775002.00 20582010.32  zM 50207989.32 13149023.03 L 50127510.39 13149023.03 L 50125365.00 13127240.00 A 316498.27 316498.27 0 0 0 49876705.00 12878580.00 L 49854918.03 12876434.23 L 49854918.03 12795955.16 L 49918047.00 12804266.00 A 398279.91 398279.91 0 0 1 50199679.00 13085898.00 L 50207989.32 13149023.03  zM 52814962.98 13188982.87 m -305765.13 0 a 305765.13 305765.13 0 1 1 611530.25 0a 305765.13 305765.13 0 1 1 -611530.25 0M 53814962.98 13188982.87 m -305765.13 0 a 305765.13 305765.13 0 1 1 611530.25 0a 305765.13 305765.13 0 1 1 -611530.25 0M 54502413.62 13149022.97 L 54421934.68 13149022.97 L 54430245.00 13085898.00 A 398279.91 398279.91 0 0 1 54711877.00 12804266.00 L 54774998.03 12795956.20 L 54774998.03 12876435.01 L 54753219.00 12878580.00 A 316498.27 316498.27 0 0 0 54504559.00 13127240.00 L 54502413.62 13149022.97  zM 50814962.98 13188982.87 m -305765.13 0 a 305765.13 305765.13 0 1 1 611530.25 0a 305765.13 305765.13 0 1 1 -611530.25 0M 51814962.98 13188982.87 m -305765.13 0 a 305765.13 305765.13 0 1 1 611530.25 0a 305765.13 305765.13 0 1 1 -611530.25 0M 54774997.97 13582009.79 L 54711877.00 13573700.00 A 398279.91 398279.91 0 0 1 54430245.00 13292068.00 L 54421934.68 13228942.97 L 54502413.61 13228942.97 L 54504559.00 13250726.00 A 316498.27 316498.27 0 0 0 54753219.00 13499386.00 L 54774997.97 13501530.99 L 54774997.97 13582009.79  zM 54502413.62 20149023.00 L 54421934.68 20149023.00 L 54430245.00 20085898.00 A 398279.91 398279.91 0 0 1 54711877.00 19804266.00 L 54775002.00 19795955.68 L 54775002.00 19876434.62 L 54753219.00 19878580.00 A 316498.27 316498.27 0 0 0 54504559.00 20127240.00 L 54502413.62 20149023.00  zM 55207989.32 13149023.03 L 55127510.39 13149023.03 L 55125365.00 13127240.00 A 316498.27 316498.27 0 0 0 54876705.00 12878580.00 L 54854918.03 12876434.23 L 54854918.03 12795955.16 L 54918047.00 12804266.00 A 398279.91 398279.91 0 0 1 55199679.00 13085898.00 L 55207989.32 13149023.03  zM 54814960.30 13188994.13 m -206479.87 0 a 206479.87 206479.87 0 1 1 412959.74 0a 206479.87 206479.87 0 1 1 -412959.74 0M 55814962.98 13188982.87 m -305765.13 0 a 305765.13 305765.13 0 1 1 611530.25 0a 305765.13 305765.13 0 1 1 -611530.25 0M 57814962.98 13188982.87 m -305765.13 0 a 305765.13 305765.13 0 1 1 611530.25 0a 305765.13 305765.13 0 1 1 -611530.25 0M 56814962.98 13188982.87 m -305765.13 0 a 305765.13 305765.13 0 1 1 611530.25 0a 305765.13 305765.13 0 1 1 -611530.25 0M 58814962.98 13188982.87 m -305765.13 0 a 305765.13 305765.13 0 1 1 611530.25 0a 305765.13 305765.13 0 1 1 -611530.25 0M 54854917.97 13582010.85 L 54854917.97 13501531.78 L 54876705.00 13499386.00 A 316498.27 316498.27 0 0 0 55125365.00 13250726.00 L 55127510.38 13228943.03 L 55207989.32 13228943.03 L 55199679.00 13292068.00 A 398279.91 398279.91 0 0 1 54918047.00 13573700.00 L 54854917.97 13582010.85  zM 55207989.32 20149023.00 L 55127510.38 20149023.00 L 55125365.00 20127240.00 A 316498.27 316498.27 0 0 0 54876705.00 19878580.00 L 54854922.00 19876434.62 L 54854922.00 19795955.68 L 54918047.00 19804266.00 A 398279.91 398279.91 0 0 1 55199679.00 20085898.00 L 55207989.32 20149023.00  zM 50207989.32 20149023.00 L 50127510.38 20149023.00 L 50125365.00 20127240.00 A 316498.27 316498.27 0 0 0 49876705.00 19878580.00 L 49854922.00 19876434.62 L 49854922.00 19795955.68 L 49918047.00 19804266.00 A 398279.91 398279.91 0 0 1 50199679.00 20085898.00 L 50207989.32 20149023.00  zM 49854922.00 20582010.32 L 49854922.00 20501531.38 L 49876705.00 20499386.00 A 316498.27 316498.27 0 0 0 50125365.00 20250726.00 L 50127510.38 20228943.00 L 50207989.32 20228943.00 L 50199679.00 20292068.00 A 398279.91 398279.91 0 0 1 49918047.00 20573700.00 L 49854922.00 20582010.32  zM 50814962.98 20188982.87 m -305765.13 0 a 305765.13 305765.13 0 1 1 611530.25 0a 305765.13 305765.13 0 1 1 -611530.25 0M 51814962.98 20188982.87 m -305765.13 0 a 305765.13 305765.13 0 1 1 611530.25 0a 305765.13 305765.13 0 1 1 -611530.25 0M 52814962.98 20188982.87 m -305765.13 0 a 305765.13 305765.13 0 1 1 611530.25 0a 305765.13 305765.13 0 1 1 -611530.25 0M 53814962.98 20188982.87 m -305765.13 0 a 305765.13 305765.13 0 1 1 611530.25 0a 305765.13 305765.13 0 1 1 -611530.25 0M 54775002.00 20582010.32 L 54711877.00 20573700.00 A 398279.91 398279.91 0 0 1 54430245.00 20292068.00 L 54421934.68 20228943.00 L 54502413.62 20228943.00 L 54504559.00 20250726.00 A 316498.27 316498.27 0 0 0 54753219.00 20499386.00 L 54775002.00 20501531.38 L 54775002.00 20582010.32  zM 54814960.30 20188994.13 m -206479.87 0 a 206479.87 206479.87 0 1 1 412959.74 0a 206479.87 206479.87 0 1 1 -412959.74 0M 54854922.00 20582010.32 L 54854922.00 20501531.38 L 54876705.00 20499386.00 A 316498.27 316498.27 0 0 0 55125365.00 20250726.00 L 55127510.38 20228943.00 L 55207989.32 20228943.00 L 55199679.00 20292068.00 A 398279.91 398279.91 0 0 1 54918047.00 20573700.00 L 54854922.00 20582010.32  zM 55814962.98 20188982.87 m -305765.13 0 a 305765.13 305765.13 0 1 1 611530.25 0a 305765.13 305765.13 0 1 1 -611530.25 0M 56814962.98 20188982.87 m -305765.13 0 a 305765.13 305765.13 0 1 1 611530.25 0a 305765.13 305765.13 0 1 1 -611530.25 0M 57814962.98 20188982.87 m -305765.13 0 a 305765.13 305765.13 0 1 1 611530.25 0a 305765.13 305765.13 0 1 1 -611530.25 0M 58814962.98 20188982.87 m -305765.13 0 a 305765.13 305765.13 0 1 1 611530.25 0a 305765.13 305765.13 0 1 1 -611530.25 0M 59192911.59 22751976.48 m -160563.52 0 a 160563.52 160563.52 0 1 1 321127.04 0a 160563.52 160563.52 0 1 1 -321127.04 0M 58286617.44 23100398.65 m -180637.35 0 a 180637.35 180637.35 0 1 1 361274.69 0a 180637.35 180637.35 0 1 1 -361274.69 0M 59502413.62 13149022.97 L 59421934.68 13149022.97 L 59430245.00 13085898.00 A 398279.91 398279.91 0 0 1 59711877.00 12804266.00 L 59774998.03 12795956.20 L 59774998.03 12876435.01 L 59753219.00 12878580.00 A 316498.27 316498.27 0 0 0 59504559.00 13127240.00 L 59502413.62 13149022.97  zM 59814960.30 13188994.13 m -206479.87 0 a 206479.87 206479.87 0 1 1 412959.74 0a 206479.87 206479.87 0 1 1 -412959.74 0M 59774997.97 13582009.79 L 59711877.00 13573700.00 A 398279.91 398279.91 0 0 1 59430245.00 13292068.00 L 59421934.68 13228942.97 L 59502413.61 13228942.97 L 59504559.00 13250726.00 A 316498.27 316498.27 0 0 0 59753219.00 13499386.00 L 59774997.97 13501530.99 L 59774997.97 13582009.79  zM 59854917.97 13582010.85 L 59854917.97 13501531.78 L 59876705.00 13499386.00 A 316498.27 316498.27 0 0 0 60125365.00 13250726.00 L 60127510.38 13228943.03 L 60207989.32 13228943.03 L 60199679.00 13292068.00 A 398279.91 398279.91 0 0 1 59918047.00 13573700.00 L 59854917.97 13582010.85  zM 60207989.32 13149023.03 L 60127510.39 13149023.03 L 60125365.00 13127240.00 A 316498.27 316498.27 0 0 0 59876705.00 12878580.00 L 59854918.03 12876434.23 L 59854918.03 12795955.16 L 59918047.00 12804266.00 A 398279.91 398279.91 0 0 1 60199679.00 13085898.00 L 60207989.32 13149023.03  zM 60814962.98 13188982.87 m -305765.13 0 a 305765.13 305765.13 0 1 1 611530.25 0a 305765.13 305765.13 0 1 1 -611530.25 0M 61814962.98 13188982.87 m -305765.13 0 a 305765.13 305765.13 0 1 1 611530.25 0a 305765.13 305765.13 0 1 1 -611530.25 0M 63220472.40 13842519.06 m -593408.94 0 a 593408.94 593408.94 0 1 1 1186817.89 0a 593408.94 593408.94 0 1 1 -1186817.89 0M 65644948.59 11848610.48 m -160563.52 0 a 160563.52 160563.52 0 1 1 321127.04 0a 160563.52 160563.52 0 1 1 -321127.04 0M 67086613.59 11805774.48 m -160563.52 0 a 160563.52 160563.52 0 1 1 321127.04 0a 160563.52 160563.52 0 1 1 -321127.04 0M 65659447.59 12401582.48 m -160563.52 0 a 160563.52 160563.52 0 1 1 321127.04 0a 160563.52 160563.52 0 1 1 -321127.04 0M 65937008.00 15015747.99 m -297823.01 0 a 297823.01 297823.01 0 1 1 595646.03 0a 297823.01 297823.01 0 1 1 -595646.03 0M 65937008.00 16015747.99 m -297823.01 0 a 297823.01 297823.01 0 1 1 595646.03 0a 297823.01 297823.01 0 1 1 -595646.03 0M 65937008.00 17015747.99 m -297823.01 0 a 297823.01 297823.01 0 1 1 595646.03 0a 297823.01 297823.01 0 1 1 -595646.03 0M 65937008.00 18015747.99 m -297823.01 0 a 297823.01 297823.01 0 1 1 595646.03 0a 297823.01 297823.01 0 1 1 -595646.03 0M 59502413.62 20149023.00 L 59421934.68 20149023.00 L 59430245.00 20085898.00 A 398279.91 398279.91 0 0 1 59711877.00 19804266.00 L 59775002.00 19795955.68 L 59775002.00 19876434.62 L 59753219.00 19878580.00 A 316498.27 316498.27 0 0 0 59504559.00 20127240.00 L 59502413.62 20149023.00  zM 59775002.00 20582010.32 L 59711877.00 20573700.00 A 398279.91 398279.91 0 0 1 59430245.00 20292068.00 L 59421934.68 20228943.00 L 59502413.62 20228943.00 L 59504559.00 20250726.00 A 316498.27 316498.27 0 0 0 59753219.00 20499386.00 L 59775002.00 20501531.38 L 59775002.00 20582010.32  zM 59814960.30 20188994.13 m -206479.87 0 a 206479.87 206479.87 0 1 1 412959.74 0a 206479.87 206479.87 0 1 1 -412959.74 0M 59854922.00 20582010.32 L 59854922.00 20501531.38 L 59876705.00 20499386.00 A 316498.27 316498.27 0 0 0 60125365.00 20250726.00 L 60127510.38 20228943.00 L 60207989.32 20228943.00 L 60199679.00 20292068.00 A 398279.91 398279.91 0 0 1 59918047.00 20573700.00 L 59854922.00 20582010.32  zM 60207989.32 20149023.00 L 60127510.38 20149023.00 L 60125365.00 20127240.00 A 316498.27 316498.27 0 0 0 59876705.00 19878580.00 L 59854922.00 19876434.62 L 59854922.00 19795955.68 L 59918047.00 19804266.00 A 398279.91 398279.91 0 0 1 60199679.00 20085898.00 L 60207989.32 20149023.00  zM 60814962.98 20188982.87 m -305765.13 0 a 305765.13 305765.13 0 1 1 611530.25 0a 305765.13 305765.13 0 1 1 -611530.25 0M 61814962.98 20188982.87 m -305765.13 0 a 305765.13 305765.13 0 1 1 611530.25 0a 305765.13 305765.13 0 1 1 -611530.25 0M 63220472.40 22188975.06 m -593408.94 0 a 593408.94 593408.94 0 1 1 1186817.89 0a 593408.94 593408.94 0 1 1 -1186817.89 0M 65937008.00 19015747.99 m -297823.01 0 a 297823.01 297823.01 0 1 1 595646.03 0a 297823.01 297823.01 0 1 1 -595646.03 0M 65937008.00 20015747.99 m -297823.01 0 a 297823.01 297823.01 0 1 1 595646.03 0a 297823.01 297823.01 0 1 1 -595646.03 0M 65624459.62 20975787.99 L 65543980.68 20975787.98 L 65552291.00 20912663.00 A 398279.91 398279.91 0 0 1 65833923.00 20631031.00 L 65897048.02 20622720.68 L 65897048.01 20703199.61 L 65875265.00 20705345.00 A 316498.27 316498.27 0 0 0 65626605.00 20954005.00 L 65624459.62 20975787.99  zM 66330035.32 20975788.02 L 66249556.39 20975788.01 L 66247411.00 20954005.00 A 316498.27 316498.27 0 0 0 65998751.00 20705345.00 L 65976968.01 20703199.62 L 65976968.02 20622720.68 L 66040093.00 20631031.00 A 398279.91 398279.91 0 0 1 66321725.00 20912663.00 L 66330035.32 20975788.02  zM 65897047.98 21408775.32 L 65833923.00 21400465.00 A 398279.91 398279.91 0 0 1 65552291.00 21118833.00 L 65543980.68 21055707.98 L 65624459.61 21055707.99 L 65626605.00 21077491.00 A 316498.27 316498.27 0 0 0 65875265.00 21326151.00 L 65897047.99 21328296.38 L 65897047.98 21408775.32  zM 65937004.35 21015766.58 m -198530.42 0 a 198530.42 198530.42 0 1 1 397060.85 0a 198530.42 198530.42 0 1 1 -397060.85 0M 65976967.98 21408775.32 L 65976967.99 21328296.39 L 65998751.00 21326151.00 A 316498.27 316498.27 0 0 0 66247411.00 21077491.00 L 66249556.38 21055708.01 L 66330035.32 21055708.02 L 66321725.00 21118833.00 A 398279.91 398279.91 0 0 1 66040093.00 21400465.00 L 65976967.98 21408775.32  zM 67948415.59 14002245.48 m -160563.52 0 a 160563.52 160563.52 0 1 1 321127.04 0a 160563.52 160563.52 0 1 1 -321127.04 0M 71480372.98 11597166.00 L 71399589.79 11597166.00 L 71410651.00 11513147.00 A 479012.90 479012.90 0 0 1 71749369.00 11174429.00 L 71833388.00 11163367.79 L 71833388.00 11244150.98 L 71795915.00 11247842.00 A 396890.84 396890.84 0 0 0 71484064.00 11559693.00 L 71480372.98 11597166.00  zM 71480372.98 14307166.00 L 71399589.79 14307166.00 L 71410651.00 14223147.00 A 479012.90 479012.90 0 0 1 71749369.00 13884429.00 L 71833388.00 13873367.79 L 71833388.00 13954150.98 L 71795915.00 13957842.00 A 396890.84 396890.84 0 0 0 71484064.00 14269693.00 L 71480372.98 14307166.00  zM 71833388.00 14820884.21 L 71749369.00 14809823.00 A 479012.90 479012.90 0 0 1 71410651.00 14471105.00 L 71399589.79 14387086.00 L 71480372.98 14387086.00 L 71484064.00 14424559.00 A 396890.84 396890.84 0 0 0 71795915.00 14736410.00 L 71833388.00 14740101.02 L 71833388.00 14820884.21  zM 72347106.21 11597166.00 L 72266323.02 11597166.00 L 72262632.00 11559693.00 A 396890.84 396890.84 0 0 0 71950781.00 11247842.00 L 71913308.00 11244150.98 L 71913308.00 11163367.79 L 71997327.00 11174429.00 A 479012.90 479012.90 0 0 1 72336045.00 11513147.00 L 72347106.21 11597166.00  zM 71873351.13 11637106.82 m -296446.18 0 a 296446.18 296446.18 0 1 1 592892.36 0a 296446.18 296446.18 0 1 1 -592892.36 0M 71833388.00 12110884.21 L 71749369.00 12099823.00 A 479012.90 479012.90 0 0 1 71410651.00 11761105.00 L 71399589.79 11677086.00 L 71480372.98 11677086.00 L 71484064.00 11714559.00 A 396890.84 396890.84 0 0 0 71795915.00 12026410.00 L 71833388.00 12030101.02 L 71833388.00 12110884.21  zM 71873351.13 14347106.82 m -296446.18 0 a 296446.18 296446.18 0 1 1 592892.36 0a 296446.18 296446.18 0 1 1 -592892.36 0M 67519686.12 16322837.43 m -315690.57 0 a 315690.57 315690.57 0 1 1 631381.15 0a 315690.57 315690.57 0 1 1 -631381.15 0M 67519686.12 17322837.43 m -315690.57 0 a 315690.57 315690.57 0 1 1 631381.15 0a 315690.57 315690.57 0 1 1 -631381.15 0M 67189334.58 18282875.00 L 67108788.73 18282875.00 L 67117708.00 18215125.00 A 416169.69 416169.69 0 0 1 67411976.00 17920857.00 L 67479726.00 17911937.73 L 67479726.00 17992483.58 L 67454470.00 17994971.00 A 334280.99 334280.99 0 0 0 67191822.00 18257619.00 L 67189334.58 18282875.00  zM 67930583.27 18282875.00 L 67850037.42 18282875.00 L 67847550.00 18257619.00 A 334280.99 334280.99 0 0 0 67584902.00 17994971.00 L 67559646.00 17992483.58 L 67559646.00 17911937.73 L 67627396.00 17920857.00 A 416169.69 416169.69 0 0 1 67921664.00 18215125.00 L 67930583.27 18282875.00  zM 69519686.12 16322837.43 m -315690.57 0 a 315690.57 315690.57 0 1 1 631381.15 0a 315690.57 315690.57 0 1 1 -631381.15 0M 71913308.00 14820884.21 L 71913308.00 14740101.02 L 71950781.00 14736410.00 A 396890.84 396890.84 0 0 0 72262632.00 14424559.00 L 72266323.02 14387086.00 L 72347106.21 14387086.00 L 72336045.00 14471105.00 A 479012.90 479012.90 0 0 1 71997327.00 14809823.00 L 71913308.00 14820884.21  zM 69519686.12 17322837.43 m -315690.57 0 a 315690.57 315690.57 0 1 1 631381.15 0a 315690.57 315690.57 0 1 1 -631381.15 0M 71913308.00 12110884.21 L 71913308.00 12030101.02 L 71950781.00 12026410.00 A 396890.84 396890.84 0 0 0 72262632.00 11714559.00 L 72266323.02 11677086.00 L 72347106.21 11677086.00 L 72336045.00 11761105.00 A 479012.90 479012.90 0 0 1 71997327.00 12099823.00 L 71913308.00 12110884.21  zM 73228344.06 12992144.39 m -295938.61 0 a 295938.61 295938.61 0 1 1 591877.21 0a 295938.61 295938.61 0 1 1 -591877.21 0M 74190372.98 11597166.00 L 74109589.79 11597166.00 L 74120651.00 11513147.00 A 479012.90 479012.90 0 0 1 74459369.00 11174429.00 L 74543388.00 11163367.79 L 74543388.00 11244150.98 L 74505915.00 11247842.00 A 396890.84 396890.84 0 0 0 74194064.00 11559693.00 L 74190372.98 11597166.00  zM 74543388.00 12110884.21 L 74459369.00 12099823.00 A 479012.90 479012.90 0 0 1 74120651.00 11761105.00 L 74109589.79 11677086.00 L 74190372.98 11677086.00 L 74194064.00 11714559.00 A 396890.84 396890.84 0 0 0 74505915.00 12026410.00 L 74543388.00 12030101.02 L 74543388.00 12110884.21  zM 75057106.21 11597166.00 L 74976323.02 11597166.00 L 74972632.00 11559693.00 A 396890.84 396890.84 0 0 0 74660781.00 11247842.00 L 74623308.00 11244150.98 L 74623308.00 11163367.79 L 74707327.00 11174429.00 A 479012.90 479012.90 0 0 1 75046045.00 11513147.00 L 75057106.21 11597166.00  zM 74583351.13 11637106.82 m -296446.18 0 a 296446.18 296446.18 0 1 1 592892.36 0a 296446.18 296446.18 0 1 1 -592892.36 0M 74623308.00 12110884.21 L 74623308.00 12030101.02 L 74660781.00 12026410.00 A 396890.84 396890.84 0 0 0 74972632.00 11714559.00 L 74976323.02 11677086.00 L 75057106.21 11677086.00 L 75046045.00 11761105.00 A 479012.90 479012.90 0 0 1 74707327.00 12099823.00 L 74623308.00 12110884.21  zM 77559058.69 11220464.28 m -712098.72 0 a 712098.72 712098.72 0 1 1 1424197.44 0a 712098.72 712098.72 0 1 1 -1424197.44 0M 72347106.21 14307166.00 L 72266323.02 14307166.00 L 72262632.00 14269693.00 A 396890.84 396890.84 0 0 0 71950781.00 13957842.00 L 71913308.00 13954150.98 L 71913308.00 13873367.79 L 71997327.00 13884429.00 A 479012.90 479012.90 0 0 1 72336045.00 14223147.00 L 72347106.21 14307166.00  zM 74190372.98 14307166.00 L 74109589.79 14307166.00 L 74120651.00 14223147.00 A 479012.90 479012.90 0 0 1 74459369.00 13884429.00 L 74543388.00 13873367.79 L 74543388.00 13954150.98 L 74505915.00 13957842.00 A 396890.84 396890.84 0 0 0 74194064.00 14269693.00 L 74190372.98 14307166.00  zM 75057106.21 14307166.00 L 74976323.02 14307166.00 L 74972632.00 14269693.00 A 396890.84 396890.84 0 0 0 74660781.00 13957842.00 L 74623308.00 13954150.98 L 74623308.00 13873367.79 L 74707327.00 13884429.00 A 479012.90 479012.90 0 0 1 75046045.00 14223147.00 L 75057106.21 14307166.00  zM 74583351.13 14347106.82 m -296446.18 0 a 296446.18 296446.18 0 1 1 592892.36 0a 296446.18 296446.18 0 1 1 -592892.36 0M 74543388.00 14820884.21 L 74459369.00 14809823.00 A 479012.90 479012.90 0 0 1 74120651.00 14471105.00 L 74109589.79 14387086.00 L 74190372.98 14387086.00 L 74194064.00 14424559.00 A 396890.84 396890.84 0 0 0 74505915.00 14736410.00 L 74543388.00 14740101.02 L 74543388.00 14820884.21  zM 74623308.00 14820884.21 L 74623308.00 14740101.02 L 74660781.00 14736410.00 A 396890.84 396890.84 0 0 0 74972632.00 14424559.00 L 74976323.02 14387086.00 L 75057106.21 14387086.00 L 75046045.00 14471105.00 A 479012.90 479012.90 0 0 1 74707327.00 14809823.00 L 74623308.00 14820884.21  zM 73611448.19 18463977.00 L 73531006.39 18463977.00 L 73529051.00 18444123.00 A 306620.41 306620.41 0 0 0 73288162.00 18203234.00 L 73268308.00 18201278.61 L 73268308.00 18120836.81 L 73328863.00 18128809.00 A 388386.75 388386.75 0 0 1 73603476.00 18403422.00 L 73611448.19 18463977.00  zM 67519683.44 18322847.68 m -216405.32 0 a 216405.32 216405.32 0 1 1 432810.64 0a 216405.32 216405.32 0 1 1 -432810.64 0M 67479726.00 18733732.27 L 67411976.00 18724813.00 A 416169.69 416169.69 0 0 1 67117708.00 18430545.00 L 67108788.73 18362795.00 L 67189334.58 18362795.00 L 67191822.00 18388051.00 A 334280.99 334280.99 0 0 0 67454470.00 18650699.00 L 67479726.00 18653186.42 L 67479726.00 18733732.27  zM 67559646.00 18733732.27 L 67559646.00 18653186.42 L 67584902.00 18650699.00 A 334280.99 334280.99 0 0 0 67847550.00 18388051.00 L 67850037.42 18362795.00 L 67930583.27 18362795.00 L 67921664.00 18430545.00 A 416169.69 416169.69 0 0 1 67627396.00 18724813.00 L 67559646.00 18733732.27  zM 69519686.12 18322837.43 m -315690.57 0 a 315690.57 315690.57 0 1 1 631381.15 0a 315690.57 315690.57 0 1 1 -631381.15 0M 71328739.59 19409456.48 m -160563.52 0 a 160563.52 160563.52 0 1 1 321127.04 0a 160563.52 160563.52 0 1 1 -321127.04 0M 72244096.00 18503936.99 m -297823.01 0 a 297823.01 297823.01 0 1 1 595646.03 0a 297823.01 297823.01 0 1 1 -595646.03 0M 70588648.00 21416733.00 L 70506545.00 21416733.00 L 70506545.00 21043308.00 A 477717.67 477717.67 0 0 1 70860614.00 20581877.00 L 70944294.00 20570859.99 L 70944294.00 20651637.47 L 70907075.00 20655303.00 A 395622.24 395622.24 0 0 0 70588648.00 21043308.00 L 70588648.00 21416733.00  zM 71461963.00 21416733.00 L 71379860.00 21416733.00 L 71379860.00 21043308.00 A 395576.57 395576.57 0 0 0 71061433.00 20655303.00 L 71024214.00 20651637.47 L 71024214.00 20570859.99 L 71107894.00 20581877.00 A 477706.36 477706.36 0 0 1 71461963.00 21043308.00 L 71461963.00 21416733.00  zM 70707331.00 21870079.00 L 70707331.00 21043307.00 A 276912.81 276912.81 0 1 1 71261177.00 21043307.00 L 71261177.00 21870079.00 A 276912.81 276912.81 0 1 1 70707331.00 21870079.00  zM 70944294.00 22342526.01 L 70860614.00 22331509.00 A 477706.36 477706.36 0 0 1 70506545.00 21870078.00 L 70506545.00 21496653.00 L 70588648.00 21496653.00 L 70588648.00 21870078.00 A 395576.57 395576.57 0 0 0 70907075.00 22258083.00 L 70944294.00 22261748.53 L 70944294.00 22342526.01  zM 71024214.00 22342526.01 L 71024214.00 22261748.53 L 71061433.00 22258083.00 A 395622.24 395622.24 0 0 0 71379860.00 21870078.00 L 71379860.00 21496653.00 L 71461963.00 21496653.00 L 71461963.00 21870078.00 A 477717.67 477717.67 0 0 1 71107894.00 22331509.00 L 71024214.00 22342526.01  zM 71941437.61 24172639.00 L 71860995.81 24172639.00 L 71868968.00 24112084.00 A 388372.57 388372.57 0 0 1 72143581.00 23837471.00 L 72204136.00 23829498.81 L 72204136.00 23909940.61 L 72184282.00 23911896.00 A 306620.41 306620.41 0 0 0 71943393.00 24152785.00 L 71941437.61 24172639.00  zM 72627196.19 24172639.00 L 72546754.39 24172639.00 L 72544799.00 24152785.00 A 306620.41 306620.41 0 0 0 72303910.00 23911896.00 L 72284056.00 23909940.61 L 72284056.00 23829498.81 L 72344611.00 23837471.00 A 388386.75 388386.75 0 0 1 72619224.00 24112084.00 L 72627196.19 24172639.00  zM 72244093.32 24212610.24 m -198537.76 0 a 198537.76 198537.76 0 1 1 397075.52 0a 198537.76 198537.76 0 1 1 -397075.52 0M 72204136.00 24595699.19 L 72143581.00 24587727.00 A 388386.75 388386.75 0 0 1 71868968.00 24313114.00 L 71860995.81 24252559.00 L 71941437.61 24252559.00 L 71943393.00 24272413.00 A 306620.41 306620.41 0 0 0 72184282.00 24513302.00 L 72204136.00 24515257.39 L 72204136.00 24595699.19  zM 72925689.61 18463977.00 L 72845247.81 18463977.00 L 72853220.00 18403422.00 A 388372.57 388372.57 0 0 1 73127833.00 18128809.00 L 73188388.00 18120836.81 L 73188388.00 18201278.61 L 73168534.00 18203234.00 A 306620.41 306620.41 0 0 0 72927645.00 18444123.00 L 72925689.61 18463977.00  zM 73188388.00 18887037.19 L 73127833.00 18879065.00 A 388386.75 388386.75 0 0 1 72853220.00 18604452.00 L 72845247.81 18543897.00 L 72925689.61 18543897.00 L 72927645.00 18563751.00 A 306620.41 306620.41 0 0 0 73168534.00 18804640.00 L 73188388.00 18806595.39 L 73188388.00 18887037.19  zM 73228345.32 18503948.24 m -198537.76 0 a 198537.76 198537.76 0 1 1 397075.52 0a 198537.76 198537.76 0 1 1 -397075.52 0M 74212600.00 18503936.99 m -297823.01 0 a 297823.01 297823.01 0 1 1 595646.03 0a 297823.01 297823.01 0 1 1 -595646.03 0M 73268308.00 18887037.19 L 73268308.00 18806595.39 L 73288162.00 18804640.00 A 306620.41 306620.41 0 0 0 73529051.00 18563751.00 L 73531006.39 18543897.00 L 73611448.19 18543897.00 L 73603476.00 18604452.00 A 388372.57 388372.57 0 0 1 73328863.00 18879065.00 L 73268308.00 18887037.19  zM 75088581.59 19291346.48 m -160563.52 0 a 160563.52 160563.52 0 1 1 321127.04 0a 160563.52 160563.52 0 1 1 -321127.04 0M 73179132.59 19980322.48 m -160563.52 0 a 160563.52 160563.52 0 1 1 321127.04 0a 160563.52 160563.52 0 1 1 -321127.04 0M 75076836.00 21416733.00 L 74994733.00 21416733.00 L 74994733.00 21043308.00 A 477717.67 477717.67 0 0 1 75348802.00 20581877.00 L 75432482.00 20570859.99 L 75432482.00 20651637.47 L 75395263.00 20655303.00 A 395622.24 395622.24 0 0 0 75076836.00 21043308.00 L 75076836.00 21416733.00  zM 75195519.00 21870079.00 L 75195519.00 21043307.00 A 276912.81 276912.81 0 1 1 75749365.00 21043307.00 L 75749365.00 21870079.00 A 276912.81 276912.81 0 1 1 75195519.00 21870079.00  zM 75432482.00 22342526.01 L 75348802.00 22331509.00 A 477706.36 477706.36 0 0 1 74994733.00 21870078.00 L 74994733.00 21496653.00 L 75076836.00 21496653.00 L 75076836.00 21870078.00 A 395576.57 395576.57 0 0 0 75395263.00 22258083.00 L 75432482.00 22261748.53 L 75432482.00 22342526.01  zM 72284056.00 24595699.19 L 72284056.00 24515257.39 L 72303910.00 24513302.00 A 306620.41 306620.41 0 0 0 72544799.00 24272413.00 L 72546754.39 24252559.00 L 72627196.19 24252559.00 L 72619224.00 24313114.00 A 388372.57 388372.57 0 0 1 72344611.00 24587727.00 L 72284056.00 24595699.19  zM 74212600.00 24212598.99 m -297823.01 0 a 297823.01 297823.01 0 1 1 595646.03 0a 297823.01 297823.01 0 1 1 -595646.03 0M 75950151.00 21416733.00 L 75868048.00 21416733.00 L 75868048.00 21043308.00 A 395576.57 395576.57 0 0 0 75549621.00 20655303.00 L 75512402.00 20651637.47 L 75512402.00 20570859.99 L 75596082.00 20581877.00 A 477706.36 477706.36 0 0 1 75950151.00 21043308.00 L 75950151.00 21416733.00  zM 75512402.00 22342526.01 L 75512402.00 22261748.53 L 75549621.00 22258083.00 A 395622.24 395622.24 0 0 0 75868048.00 21870078.00 L 75868048.00 21496653.00 L 75950151.00 21496653.00 L 75950151.00 21870078.00 A 477717.67 477717.67 0 0 1 75596082.00 22331509.00 L 75512402.00 22342526.01  zM 77559058.69 23425188.28 m -712098.72 0 a 712098.72 712098.72 0 1 1 1424197.44 0a 712098.72 712098.72 0 1 1 -1424197.44 0"/>
</g>
</svg>
