<svg width="179.00000776mm" height="38.00002814mm" viewBox="0 0 70472444 14960641"  version="1.1" xmlns="http://www.w3.org/2000/svg" xmlns:xlink="http://www.w3.org/1999/xlink">
<desc>
Origin 43700788 9842526 Bound 8464567 9842515 70472444 14960641
</desc>
<g fill-rule="evenodd" fill="rgb(255, 0, 0)" stroke="black" stroke-width="1" transform="translate(0, 14960641) scale(1, -1) translate(-8464567, -9842515)">
<path id="N" d="M 52814965.74 13188991.88 m -275973.44 0 a 275973.44 275973.44 0 1 1 551946.87 0a 275973.44 275973.44 0 1 1 -551946.87 0M 52814962.92 13188980.47 m -208737.53 0 a 208737.53 208737.53 0 1 1 417475.06 0a 208737.53 208737.53 0 1 1 -417475.06 0"/>
<path id="N" d="M 44842520.00 18582684.00 L 44330710.00 18582684.00 L 44330710.00 19192920.00 L 44842520.00 19192920.00 L 44842520.00 18582684.00  z"/>
<path id="N" d="M 44175616.00 14781083.00 L 43798170.00 14781083.00 L 43798170.00 15140189.00 L 44175616.00 15140189.00 L 44175616.00 14781083.00  z"/>
<path id="N" d="M 44842520.00 15452762.00 L 44330710.00 15452762.00 L 44330710.00 16062998.00 L 44842520.00 16062998.00 L 44842520.00 15452762.00  z"/>
<path id="N" d="M 38690945.00 18198819.00 L 38080709.00 18198819.00 L 38080709.00 18809055.00 L 38690945.00 18809055.00 L 38690945.00 18198819.00  zM 38385827.36 18503937.47 m -200706.53 0 a 200706.53 200706.53 0 1 1 401413.05 0a 200706.53 200706.53 0 1 1 -401413.05 0"/>
<path id="N" d="M 43088584.00 19915361.00 L 42541340.00 19915361.00 L 42541340.00 20462605.00 L 43088584.00 20462605.00 L 43088584.00 19915361.00  zM 42814962.92 20188980.47 m -208737.53 0 a 208737.53 208737.53 0 1 1 417475.06 0a 208737.53 208737.53 0 1 1 -417475.06 0"/>
<path id="N" d="M 65937010.99 16015753.10 m -317671.90 0 a 317671.90 317671.90 0 1 1 635343.80 0a 317671.90 317671.90 0 1 1 -635343.80 0M 65937008.36 16015748.47 m -200706.53 0 a 200706.53 200706.53 0 1 1 401413.05 0a 200706.53 200706.53 0 1 1 -401413.05 0"/>
<path id="N" d="M 58814965.74 20188991.88 m -275973.44 0 a 275973.44 275973.44 0 1 1 551946.87 0a 275973.44 275973.44 0 1 1 -551946.87 0M 58814962.92 20188980.47 m -208737.53 0 a 208737.53 208737.53 0 1 1 417475.06 0a 208737.53 208737.53 0 1 1 -417475.06 0"/>
<path id="N" d="M 35661422.63 16322844.20 m -335537.14 0 a 335537.14 335537.14 0 1 1 671074.28 0a 335537.14 335537.14 0 1 1 -671074.28 0M 35661416.45 16322838.53 m -218767.47 0 a 218767.47 218767.47 0 1 1 437534.95 0a 218767.47 218767.47 0 1 1 -437534.95 0"/>
<path id="N" d="M 74212596.32 18503931.16 m -307757.99 0 a 307757.99 307757.99 0 1 1 615515.98 0a 307757.99 307757.99 0 1 1 -615515.98 0M 74212600.36 18503937.47 m -200706.53 0 a 200706.53 200706.53 0 1 1 401413.05 0a 200706.53 200706.53 0 1 1 -401413.05 0"/>
<path id="N" d="M 65937010.99 20015753.10 m -317671.90 0 a 317671.90 317671.90 0 1 1 635343.80 0a 317671.90 317671.90 0 1 1 -635343.80 0M 65937008.36 20015748.47 m -200706.53 0 a 200706.53 200706.53 0 1 1 401413.05 0a 200706.53 200706.53 0 1 1 -401413.05 0"/>
<path id="N" d="M 57814965.74 20188991.88 m -275973.44 0 a 275973.44 275973.44 0 1 1 551946.87 0a 275973.44 275973.44 0 1 1 -551946.87 0M 57814962.92 20188980.47 m -208737.53 0 a 208737.53 208737.53 0 1 1 417475.06 0a 208737.53 208737.53 0 1 1 -417475.06 0"/>
<path id="N" d="M 48814965.74 20188991.88 m -275973.44 0 a 275973.44 275973.44 0 1 1 551946.87 0a 275973.44 275973.44 0 1 1 -551946.87 0M 48814962.92 20188980.47 m -208737.53 0 a 208737.53 208737.53 0 1 1 417475.06 0a 208737.53 208737.53 0 1 1 -417475.06 0"/>
<path id="N" d="M 48998451.00 18886985.00 L 48639345.00 18886985.00 L 48639345.00 19264205.00 L 48998451.00 19264205.00 L 48998451.00 18886985.00  z"/>
<path id="N" d="M 47814965.74 20188991.88 m -275973.44 0 a 275973.44 275973.44 0 1 1 551946.87 0a 275973.44 275973.44 0 1 1 -551946.87 0M 47814962.92 20188980.47 m -208737.53 0 a 208737.53 208737.53 0 1 1 417475.06 0a 208737.53 208737.53 0 1 1 -417475.06 0"/>
<path id="N" d="M 48014199.00 18886985.00 L 47655093.00 18886985.00 L 47655093.00 19264205.00 L 48014199.00 19264205.00 L 48014199.00 18886985.00  z"/>
<path id="N" d="M 53814965.74 13188991.88 m -275973.44 0 a 275973.44 275973.44 0 1 1 551946.87 0a 275973.44 275973.44 0 1 1 -551946.87 0M 53814962.92 13188980.47 m -208737.53 0 a 208737.53 208737.53 0 1 1 417475.06 0a 208737.53 208737.53 0 1 1 -417475.06 0"/>
<path id="N" d="M 75869540.00 21870078.00 L 75869540.00 21043308.00 A 397100.93 397100.93 0 0 0 75075344.00 21043308.00 L 75075344.00 21870078.00 A 397100.93 397100.93 0 0 0 75869540.00 21870078.00  zM 75194474.00 21870079.00 L 75194474.00 21043307.00 A 277979.46 277979.46 0 0 1 75750410.00 21043307.00 L 75750410.00 21870079.00 A 277979.46 277979.46 0 1 1 75194474.00 21870079.00  z"/>
<path id="N" d="M 37523083.00 21870078.00 L 37523083.00 21043308.00 A 397100.93 397100.93 0 0 0 36728887.00 21043308.00 L 36728887.00 21870078.00 A 397100.93 397100.93 0 0 0 37523083.00 21870078.00  zM 36848017.00 21870079.00 L 36848017.00 21043307.00 A 277979.46 277979.46 0 0 1 37403953.00 21043307.00 L 37403953.00 21870079.00 A 277979.46 277979.46 0 0 1 36848017.00 21870079.00  z"/>
<path id="N" d="M 42011271.00 21870078.00 L 42011271.00 21043308.00 A 397100.93 397100.93 0 0 0 41217075.00 21043308.00 L 41217075.00 21870078.00 A 397100.93 397100.93 0 0 0 42011271.00 21870078.00  zM 41336205.00 21870079.00 L 41336205.00 21043307.00 A 277979.46 277979.46 0 0 1 41892141.00 21043307.00 L 41892141.00 21870079.00 A 277979.46 277979.46 0 0 1 41336205.00 21870079.00  z"/>
<path id="N" d="M 71381352.00 21870078.00 L 71381352.00 21043308.00 A 397100.93 397100.93 0 0 0 70587156.00 21043308.00 L 70587156.00 21870078.00 A 397100.93 397100.93 0 0 0 71381352.00 21870078.00  zM 70706286.00 21870079.00 L 70706286.00 21043307.00 A 277979.46 277979.46 0 1 1 71262222.00 21043307.00 L 71262222.00 21870079.00 A 277979.46 277979.46 0 1 1 70706286.00 21870079.00  z"/>
<path id="N" d="M 38015068.61 11637110.00 m -398426.66 0 a 398426.66 398426.66 0 1 1 796853.32 0a 398426.66 398426.66 0 1 1 -796853.32 0M 38015080.18 11637124.14 m -297547.86 0 a 297547.86 297547.86 0 1 1 595095.72 0a 297547.86 297547.86 0 1 1 -595095.72 0"/>
<path id="N" d="M 40725068.61 11637110.00 m -398426.66 0 a 398426.66 398426.66 0 1 1 796853.32 0a 398426.66 398426.66 0 1 1 -796853.32 0M 40725080.18 11637124.14 m -297547.86 0 a 297547.86 297547.86 0 1 1 595095.72 0a 297547.86 297547.86 0 1 1 -595095.72 0"/>
<path id="N" d="M 71873337.61 14347110.00 m -398426.66 0 a 398426.66 398426.66 0 1 1 796853.32 0a 398426.66 398426.66 0 1 1 -796853.32 0M 71873349.18 14347124.14 m -297547.86 0 a 297547.86 297547.86 0 1 1 595095.72 0a 297547.86 297547.86 0 1 1 -595095.72 0"/>
<path id="N" d="M 74583337.61 11637110.00 m -398426.66 0 a 398426.66 398426.66 0 1 1 796853.32 0a 398426.66 398426.66 0 1 1 -796853.32 0M 74583349.18 11637124.14 m -297547.86 0 a 297547.86 297547.86 0 1 1 595095.72 0a 297547.86 297547.86 0 1 1 -595095.72 0"/>
<path id="N" d="M 71873337.61 11637110.00 m -398426.66 0 a 398426.66 398426.66 0 1 1 796853.32 0a 398426.66 398426.66 0 1 1 -796853.32 0M 71873349.18 11637124.14 m -297547.86 0 a 297547.86 297547.86 0 1 1 595095.72 0a 297547.86 297547.86 0 1 1 -595095.72 0"/>
<path id="N" d="M 74583337.61 14347110.00 m -398426.66 0 a 398426.66 398426.66 0 1 1 796853.32 0a 398426.66 398426.66 0 1 1 -796853.32 0M 74583349.18 14347124.14 m -297547.86 0 a 297547.86 297547.86 0 1 1 595095.72 0a 297547.86 297547.86 0 1 1 -595095.72 0"/>
<path id="N" d="M 40725068.61 14347110.00 m -398426.66 0 a 398426.66 398426.66 0 1 1 796853.32 0a 398426.66 398426.66 0 1 1 -796853.32 0M 40725080.18 14347124.14 m -297547.86 0 a 297547.86 297547.86 0 1 1 595095.72 0a 297547.86 297547.86 0 1 1 -595095.72 0"/>
<path id="N" d="M 38015068.61 14347110.00 m -398426.66 0 a 398426.66 398426.66 0 1 1 796853.32 0a 398426.66 398426.66 0 1 1 -796853.32 0M 38015080.18 14347124.14 m -297547.86 0 a 297547.86 297547.86 0 1 1 595095.72 0a 297547.86 297547.86 0 1 1 -595095.72 0"/>
<path id="N" d="M 59814965.74 13188991.88 m -275973.44 0 a 275973.44 275973.44 0 1 1 551946.87 0a 275973.44 275973.44 0 1 1 -551946.87 0M 59814962.92 13188980.47 m -208737.53 0 a 208737.53 208737.53 0 1 1 417475.06 0a 208737.53 208737.53 0 1 1 -417475.06 0"/>
<path id="N" d="M 54814965.74 20188991.88 m -275973.44 0 a 275973.44 275973.44 0 1 1 551946.87 0a 275973.44 275973.44 0 1 1 -551946.87 0M 54814962.92 20188980.47 m -208737.53 0 a 208737.53 208737.53 0 1 1 417475.06 0a 208737.53 208737.53 0 1 1 -417475.06 0"/>
<path id="N" d="M 59814965.74 20188991.88 m -275973.44 0 a 275973.44 275973.44 0 1 1 551946.87 0a 275973.44 275973.44 0 1 1 -551946.87 0M 59814962.92 20188980.47 m -208737.53 0 a 208737.53 208737.53 0 1 1 417475.06 0a 208737.53 208737.53 0 1 1 -417475.06 0"/>
<path id="N" d="M 17322827.39 17322831.83 m -269640.87 0 a 269640.87 269640.87 0 1 1 539281.75 0a 269640.87 269640.87 0 1 1 -539281.75 0M 17322833.05 17322843.89 m -170598.11 0 a 170598.11 170598.11 0 1 1 341196.22 0a 170598.11 170598.11 0 1 1 -341196.22 0"/>
<path id="N" d="M 49814965.74 13188991.88 m -275973.44 0 a 275973.44 275973.44 0 1 1 551946.87 0a 275973.44 275973.44 0 1 1 -551946.87 0M 49814962.92 13188980.47 m -208737.53 0 a 208737.53 208737.53 0 1 1 417475.06 0a 208737.53 208737.53 0 1 1 -417475.06 0"/>
<path id="N" d="M 54814965.74 13188991.88 m -275973.44 0 a 275973.44 275973.44 0 1 1 551946.87 0a 275973.44 275973.44 0 1 1 -551946.87 0M 54814962.92 13188980.47 m -208737.53 0 a 208737.53 208737.53 0 1 1 417475.06 0a 208737.53 208737.53 0 1 1 -417475.06 0"/>
<path id="N" d="M 44814965.74 13188991.88 m -275973.44 0 a 275973.44 275973.44 0 1 1 551946.87 0a 275973.44 275973.44 0 1 1 -551946.87 0M 44814962.92 13188980.47 m -208737.53 0 a 208737.53 208737.53 0 1 1 417475.06 0a 208737.53 208737.53 0 1 1 -417475.06 0"/>
<path id="N" d="M 44814965.74 20188991.88 m -275973.44 0 a 275973.44 275973.44 0 1 1 551946.87 0a 275973.44 275973.44 0 1 1 -551946.87 0M 44814962.92 20188980.47 m -208737.53 0 a 208737.53 208737.53 0 1 1 417475.06 0a 208737.53 208737.53 0 1 1 -417475.06 0"/>
<path id="N" d="M 49814965.74 20188991.88 m -275973.44 0 a 275973.44 275973.44 0 1 1 551946.87 0a 275973.44 275973.44 0 1 1 -551946.87 0M 49814962.92 20188980.47 m -208737.53 0 a 208737.53 208737.53 0 1 1 417475.06 0a 208737.53 208737.53 0 1 1 -417475.06 0"/>
<path id="N" d="M 38385815.98 24212580.45 m -307772.16 0 a 307772.16 307772.16 0 1 1 615544.33 0a 307772.16 307772.16 0 1 1 -615544.33 0M 38385827.36 24212599.47 m -200706.53 0 a 200706.53 200706.53 0 1 1 401413.05 0a 200706.53 200706.53 0 1 1 -401413.05 0"/>
<path id="N" d="M 67519691.63 18322844.20 m -335537.14 0 a 335537.14 335537.14 0 1 1 671074.28 0a 335537.14 335537.14 0 1 1 -671074.28 0M 67519685.45 18322838.53 m -218767.47 0 a 218767.47 218767.47 0 1 1 437534.95 0a 218767.47 218767.47 0 1 1 -437534.95 0"/>
<path id="N" d="M 33661422.63 18322844.20 m -335537.14 0 a 335537.14 335537.14 0 1 1 671074.28 0a 335537.14 335537.14 0 1 1 -671074.28 0M 33661416.45 18322838.53 m -218767.47 0 a 218767.47 218767.47 0 1 1 437534.95 0a 218767.47 218767.47 0 1 1 -437534.95 0"/>
<path id="N" d="M 65937010.99 21015753.10 m -317671.90 0 a 317671.90 317671.90 0 1 1 635343.80 0a 317671.90 317671.90 0 1 1 -635343.80 0M 65937008.36 21015748.47 m -200706.53 0 a 200706.53 200706.53 0 1 1 401413.05 0a 200706.53 200706.53 0 1 1 -401413.05 0"/>
<path id="N" d="M 39370067.98 18503918.45 m -307772.16 0 a 307772.16 307772.16 0 1 1 615544.33 0a 307772.16 307772.16 0 1 1 -615544.33 0M 39370079.36 18503937.47 m -200706.53 0 a 200706.53 200706.53 0 1 1 401413.05 0a 200706.53 200706.53 0 1 1 -401413.05 0"/>
<path id="N" d="M 73228344.32 18503931.16 m -307757.99 0 a 307757.99 307757.99 0 1 1 615515.98 0a 307757.99 307757.99 0 1 1 -615515.98 0M 73228348.36 18503937.47 m -200706.53 0 a 200706.53 200706.53 0 1 1 401413.05 0a 200706.53 200706.53 0 1 1 -401413.05 0"/>
<path id="N" d="M 72244092.32 24212593.16 m -307757.99 0 a 307757.99 307757.99 0 1 1 615515.98 0a 307757.99 307757.99 0 1 1 -615515.98 0M 72244096.36 24212599.47 m -200706.53 0 a 200706.53 200706.53 0 1 1 401413.05 0a 200706.53 200706.53 0 1 1 -401413.05 0"/>
<path id="N" d="M 32078742.99 21015753.10 m -317671.90 0 a 317671.90 317671.90 0 1 1 635343.80 0a 317671.90 317671.90 0 1 1 -635343.80 0M 32078740.36 21015748.47 m -200706.53 0 a 200706.53 200706.53 0 1 1 401413.05 0a 200706.53 200706.53 0 1 1 -401413.05 0"/>
<path id="N" d="M 43603406.00 14781083.00 L 43225960.00 14781083.00 L 43225960.00 15140189.00 L 43603406.00 15140189.00 L 43603406.00 14781083.00  z"/>
<path id="N" d="M 43070866.00 18582684.00 L 42559056.00 18582684.00 L 42559056.00 19192920.00 L 43070866.00 19192920.00 L 43070866.00 18582684.00  z"/>
<path id="N" d="M 43070866.00 15452762.00 L 42559056.00 15452762.00 L 42559056.00 16062998.00 L 43070866.00 16062998.00 L 43070866.00 15452762.00  z"/>
<path id="N" d="M 42814965.74 13188991.88 m -275973.44 0 a 275973.44 275973.44 0 1 1 551946.87 0a 275973.44 275973.44 0 1 1 -551946.87 0M 42814962.92 13188980.47 m -208737.53 0 a 208737.53 208737.53 0 1 1 417475.06 0a 208737.53 208737.53 0 1 1 -417475.06 0"/>
<path id="N" d="M 50814965.74 20188991.88 m -275973.44 0 a 275973.44 275973.44 0 1 1 551946.87 0a 275973.44 275973.44 0 1 1 -551946.87 0M 50814962.92 20188980.47 m -208737.53 0 a 208737.53 208737.53 0 1 1 417475.06 0a 208737.53 208737.53 0 1 1 -417475.06 0"/>
<path id="N" d="M 45814965.74 20188991.88 m -275973.44 0 a 275973.44 275973.44 0 1 1 551946.87 0a 275973.44 275973.44 0 1 1 -551946.87 0M 45814962.92 20188980.47 m -208737.53 0 a 208737.53 208737.53 0 1 1 417475.06 0a 208737.53 208737.53 0 1 1 -417475.06 0"/>
<path id="N" d="M 55814965.74 20188991.88 m -275973.44 0 a 275973.44 275973.44 0 1 1 551946.87 0a 275973.44 275973.44 0 1 1 -551946.87 0M 55814962.92 20188980.47 m -208737.53 0 a 208737.53 208737.53 0 1 1 417475.06 0a 208737.53 208737.53 0 1 1 -417475.06 0"/>
<path id="N" d="M 32078742.99 19015753.10 m -317671.90 0 a 317671.90 317671.90 0 1 1 635343.80 0a 317671.90 317671.90 0 1 1 -635343.80 0M 32078740.36 19015748.47 m -200706.53 0 a 200706.53 200706.53 0 1 1 401413.05 0a 200706.53 200706.53 0 1 1 -401413.05 0"/>
<path id="N" d="M 62088584.00 12915361.00 L 61541340.00 12915361.00 L 61541340.00 13462605.00 L 62088584.00 13462605.00 L 62088584.00 12915361.00  zM 61814962.92 13188980.47 m -208737.53 0 a 208737.53 208737.53 0 1 1 417475.06 0a 208737.53 208737.53 0 1 1 -417475.06 0"/>
<path id="N" d="M 50814965.74 13188991.88 m -275973.44 0 a 275973.44 275973.44 0 1 1 551946.87 0a 275973.44 275973.44 0 1 1 -551946.87 0M 50814962.92 13188980.47 m -208737.53 0 a 208737.53 208737.53 0 1 1 417475.06 0a 208737.53 208737.53 0 1 1 -417475.06 0"/>
<path id="N" d="M 69519691.63 16322844.20 m -335537.14 0 a 335537.14 335537.14 0 1 1 671074.28 0a 335537.14 335537.14 0 1 1 -671074.28 0M 69519685.45 16322838.53 m -218767.47 0 a 218767.47 218767.47 0 1 1 437534.95 0a 218767.47 218767.47 0 1 1 -437534.95 0"/>
<path id="N" d="M 39370074.52 12992116.18 m -297556.40 0 a 297556.40 297556.40 0 1 1 595112.80 0a 297556.40 297556.40 0 1 1 -595112.80 0M 39370078.03 12992128.21 m -198817.79 0 a 198817.79 198817.79 0 1 1 397635.58 0a 198817.79 198817.79 0 1 1 -397635.58 0"/>
<path id="N" d="M 58814965.74 13188991.88 m -275973.44 0 a 275973.44 275973.44 0 1 1 551946.87 0a 275973.44 275973.44 0 1 1 -551946.87 0M 58814962.92 13188980.47 m -208737.53 0 a 208737.53 208737.53 0 1 1 417475.06 0a 208737.53 208737.53 0 1 1 -417475.06 0"/>
<path id="N" d="M 32078742.99 17015753.10 m -317671.90 0 a 317671.90 317671.90 0 1 1 635343.80 0a 317671.90 317671.90 0 1 1 -635343.80 0M 32078740.36 17015748.47 m -200706.53 0 a 200706.53 200706.53 0 1 1 401413.05 0a 200706.53 200706.53 0 1 1 -401413.05 0"/>
<path id="N" d="M 33661422.63 17322844.20 m -335537.14 0 a 335537.14 335537.14 0 1 1 671074.28 0a 335537.14 335537.14 0 1 1 -671074.28 0M 33661416.45 17322838.53 m -218767.47 0 a 218767.47 218767.47 0 1 1 437534.95 0a 218767.47 218767.47 0 1 1 -437534.95 0"/>
<path id="N" d="M 65937010.99 17015753.10 m -317671.90 0 a 317671.90 317671.90 0 1 1 635343.80 0a 317671.90 317671.90 0 1 1 -635343.80 0M 65937008.36 17015748.47 m -200706.53 0 a 200706.53 200706.53 0 1 1 401413.05 0a 200706.53 200706.53 0 1 1 -401413.05 0"/>
<path id="N" d="M 60814965.74 20188991.88 m -275973.44 0 a 275973.44 275973.44 0 1 1 551946.87 0a 275973.44 275973.44 0 1 1 -551946.87 0M 60814962.92 20188980.47 m -208737.53 0 a 208737.53 208737.53 0 1 1 417475.06 0a 208737.53 208737.53 0 1 1 -417475.06 0"/>
<path id="N" d="M 51814965.74 20188991.88 m -275973.44 0 a 275973.44 275973.44 0 1 1 551946.87 0a 275973.44 275973.44 0 1 1 -551946.87 0M 51814962.92 20188980.47 m -208737.53 0 a 208737.53 208737.53 0 1 1 417475.06 0a 208737.53 208737.53 0 1 1 -417475.06 0"/>
<path id="N" d="M 40354319.98 24212580.45 m -307772.16 0 a 307772.16 307772.16 0 1 1 615544.33 0a 307772.16 307772.16 0 1 1 -615544.33 0M 40354331.36 24212599.47 m -200706.53 0 a 200706.53 200706.53 0 1 1 401413.05 0a 200706.53 200706.53 0 1 1 -401413.05 0"/>
<path id="N" d="M 69519691.63 18322844.20 m -335537.14 0 a 335537.14 335537.14 0 1 1 671074.28 0a 335537.14 335537.14 0 1 1 -671074.28 0M 69519685.45 18322838.53 m -218767.47 0 a 218767.47 218767.47 0 1 1 437534.95 0a 218767.47 218767.47 0 1 1 -437534.95 0"/>
<path id="N" d="M 69519691.63 17322844.20 m -335537.14 0 a 335537.14 335537.14 0 1 1 671074.28 0a 335537.14 335537.14 0 1 1 -671074.28 0M 69519685.45 17322838.53 m -218767.47 0 a 218767.47 218767.47 0 1 1 437534.95 0a 218767.47 218767.47 0 1 1 -437534.95 0"/>
<path id="N" d="M 51814965.74 13188991.88 m -275973.44 0 a 275973.44 275973.44 0 1 1 551946.87 0a 275973.44 275973.44 0 1 1 -551946.87 0M 51814962.92 13188980.47 m -208737.53 0 a 208737.53 208737.53 0 1 1 417475.06 0a 208737.53 208737.53 0 1 1 -417475.06 0"/>
<path id="N" d="M 48814965.74 13188991.88 m -275973.44 0 a 275973.44 275973.44 0 1 1 551946.87 0a 275973.44 275973.44 0 1 1 -551946.87 0M 48814962.92 13188980.47 m -208737.53 0 a 208737.53 208737.53 0 1 1 417475.06 0a 208737.53 208737.53 0 1 1 -417475.06 0"/>
<path id="N" d="M 52814965.74 20188991.88 m -275973.44 0 a 275973.44 275973.44 0 1 1 551946.87 0a 275973.44 275973.44 0 1 1 -551946.87 0M 52814962.92 20188980.47 m -208737.53 0 a 208737.53 208737.53 0 1 1 417475.06 0a 208737.53 208737.53 0 1 1 -417475.06 0"/>
<path id="N" d="M 35661422.63 17322844.20 m -335537.14 0 a 335537.14 335537.14 0 1 1 671074.28 0a 335537.14 335537.14 0 1 1 -671074.28 0M 35661416.45 17322838.53 m -218767.47 0 a 218767.47 218767.47 0 1 1 437534.95 0a 218767.47 218767.47 0 1 1 -437534.95 0"/>
<path id="N" d="M 57814965.74 13188991.88 m -275973.44 0 a 275973.44 275973.44 0 1 1 551946.87 0a 275973.44 275973.44 0 1 1 -551946.87 0M 57814962.92 13188980.47 m -208737.53 0 a 208737.53 208737.53 0 1 1 417475.06 0a 208737.53 208737.53 0 1 1 -417475.06 0"/>
<path id="N" d="M 32078742.99 18015753.10 m -317671.90 0 a 317671.90 317671.90 0 1 1 635343.80 0a 317671.90 317671.90 0 1 1 -635343.80 0M 32078740.36 18015748.47 m -200706.53 0 a 200706.53 200706.53 0 1 1 401413.05 0a 200706.53 200706.53 0 1 1 -401413.05 0"/>
<path id="N" d="M 35661422.63 18322844.20 m -335537.14 0 a 335537.14 335537.14 0 1 1 671074.28 0a 335537.14 335537.14 0 1 1 -671074.28 0M 35661416.45 18322838.53 m -218767.47 0 a 218767.47 218767.47 0 1 1 437534.95 0a 218767.47 218767.47 0 1 1 -437534.95 0"/>
<path id="N" d="M 65937010.99 15015753.10 m -317671.90 0 a 317671.90 317671.90 0 1 1 635343.80 0a 317671.90 317671.90 0 1 1 -635343.80 0M 65937008.36 15015748.47 m -200706.53 0 a 200706.53 200706.53 0 1 1 401413.05 0a 200706.53 200706.53 0 1 1 -401413.05 0"/>
<path id="N" d="M 32078742.99 15015753.10 m -317671.90 0 a 317671.90 317671.90 0 1 1 635343.80 0a 317671.90 317671.90 0 1 1 -635343.80 0M 32078740.36 15015748.47 m -200706.53 0 a 200706.53 200706.53 0 1 1 401413.05 0a 200706.53 200706.53 0 1 1 -401413.05 0"/>
<path id="N" d="M 67519691.63 16322844.20 m -335537.14 0 a 335537.14 335537.14 0 1 1 671074.28 0a 335537.14 335537.14 0 1 1 -671074.28 0M 67519685.45 16322838.53 m -218767.47 0 a 218767.47 218767.47 0 1 1 437534.95 0a 218767.47 218767.47 0 1 1 -437534.95 0"/>
<path id="N" d="M 46814965.74 13188991.88 m -275973.44 0 a 275973.44 275973.44 0 1 1 551946.87 0a 275973.44 275973.44 0 1 1 -551946.87 0M 46814962.92 13188980.47 m -208737.53 0 a 208737.53 208737.53 0 1 1 417475.06 0a 208737.53 208737.53 0 1 1 -417475.06 0"/>
<path id="N" d="M 33661422.63 16322844.20 m -335537.14 0 a 335537.14 335537.14 0 1 1 671074.28 0a 335537.14 335537.14 0 1 1 -671074.28 0M 33661416.45 16322838.53 m -218767.47 0 a 218767.47 218767.47 0 1 1 437534.95 0a 218767.47 218767.47 0 1 1 -437534.95 0"/>
<path id="N" d="M 48014199.00 18334233.00 L 47655093.00 18334233.00 L 47655093.00 18711453.00 L 48014199.00 18711453.00 L 48014199.00 18334233.00  z"/>
<path id="N" d="M 48998451.00 18334233.00 L 48639345.00 18334233.00 L 48639345.00 18711453.00 L 48998451.00 18711453.00 L 48998451.00 18334233.00  z"/>
<path id="N" d="M 74212596.32 24212593.16 m -307757.99 0 a 307757.99 307757.99 0 1 1 615515.98 0a 307757.99 307757.99 0 1 1 -615515.98 0M 74212600.36 24212599.47 m -200706.53 0 a 200706.53 200706.53 0 1 1 401413.05 0a 200706.53 200706.53 0 1 1 -401413.05 0"/>
<path id="N" d="M 43814965.74 20188991.88 m -275973.44 0 a 275973.44 275973.44 0 1 1 551946.87 0a 275973.44 275973.44 0 1 1 -551946.87 0M 43814962.92 20188980.47 m -208737.53 0 a 208737.53 208737.53 0 1 1 417475.06 0a 208737.53 208737.53 0 1 1 -417475.06 0"/>
<path id="N" d="M 9842511.62 11220445.65 m -1184782.55 0 a 1184782.55 1184782.55 0 1 1 2369565.11 0a 1184782.55 1184782.55 0 1 1 -2369565.11 0M 9842518.22 11220480.46 m -613181.54 0 a 613181.54 613181.54 0 1 1 1226363.09 0a 613181.54 613181.54 0 1 1 -1226363.09 0"/>
<path id="N" d="M 43700778.62 11220445.65 m -1184782.55 0 a 1184782.55 1184782.55 0 1 1 2369565.11 0a 1184782.55 1184782.55 0 1 1 -2369565.11 0M 43700785.22 11220480.46 m -613181.54 0 a 613181.54 613181.54 0 1 1 1226363.09 0a 613181.54 613181.54 0 1 1 -1226363.09 0"/>
<path id="N" d="M 9842511.62 23425169.65 m -1184782.55 0 a 1184782.55 1184782.55 0 1 1 2369565.11 0a 1184782.55 1184782.55 0 1 1 -2369565.11 0M 9842518.22 23425204.46 m -613181.54 0 a 613181.54 613181.54 0 1 1 1226363.09 0a 613181.54 613181.54 0 1 1 -1226363.09 0"/>
<path id="N" d="M 77559047.62 23425169.65 m -1184782.55 0 a 1184782.55 1184782.55 0 1 1 2369565.11 0a 1184782.55 1184782.55 0 1 1 -2369565.11 0M 77559054.22 23425204.46 m -613181.54 0 a 613181.54 613181.54 0 1 1 1226363.09 0a 613181.54 613181.54 0 1 1 -1226363.09 0"/>
<path id="N" d="M 43700779.62 23425169.65 m -1184782.55 0 a 1184782.55 1184782.55 0 1 1 2369565.11 0a 1184782.55 1184782.55 0 1 1 -2369565.11 0M 43700786.22 23425204.46 m -613181.54 0 a 613181.54 613181.54 0 1 1 1226363.09 0a 613181.54 613181.54 0 1 1 -1226363.09 0"/>
<path id="N" d="M 77559047.62 11220445.65 m -1184782.55 0 a 1184782.55 1184782.55 0 1 1 2369565.11 0a 1184782.55 1184782.55 0 1 1 -2369565.11 0M 77559054.22 11220480.46 m -613181.54 0 a 613181.54 613181.54 0 1 1 1226363.09 0a 613181.54 613181.54 0 1 1 -1226363.09 0"/>
<path id="N" d="M 47814965.74 13188991.88 m -275973.44 0 a 275973.44 275973.44 0 1 1 551946.87 0a 275973.44 275973.44 0 1 1 -551946.87 0M 47814962.92 13188980.47 m -208737.53 0 a 208737.53 208737.53 0 1 1 417475.06 0a 208737.53 208737.53 0 1 1 -417475.06 0"/>
<path id="N" d="M 45814965.74 13188991.88 m -275973.44 0 a 275973.44 275973.44 0 1 1 551946.87 0a 275973.44 275973.44 0 1 1 -551946.87 0M 45814962.92 13188980.47 m -208737.53 0 a 208737.53 208737.53 0 1 1 417475.06 0a 208737.53 208737.53 0 1 1 -417475.06 0"/>
<path id="N" d="M 75393698.94 10629919.94 m -200709.51 0 a 200709.51 200709.51 0 1 1 401419.02 0a 200709.51 200709.51 0 1 1 -401419.02 0"/>
<path id="N" d="M 12007871.94 22637793.94 m -200709.51 0 a 200709.51 200709.51 0 1 1 401419.02 0a 200709.51 200709.51 0 1 1 -401419.02 0"/>
<path id="N" d="M 17322827.39 16322831.83 m -269640.87 0 a 269640.87 269640.87 0 1 1 539281.75 0a 269640.87 269640.87 0 1 1 -539281.75 0M 17322833.05 16322843.89 m -170598.11 0 a 170598.11 170598.11 0 1 1 341196.22 0a 170598.11 170598.11 0 1 1 -341196.22 0"/>
<path id="N" d="M 43814965.74 13188991.88 m -275973.44 0 a 275973.44 275973.44 0 1 1 551946.87 0a 275973.44 275973.44 0 1 1 -551946.87 0M 43814962.92 13188980.47 m -208737.53 0 a 208737.53 208737.53 0 1 1 417475.06 0a 208737.53 208737.53 0 1 1 -417475.06 0"/>
<path id="N" d="M 55814965.74 13188991.88 m -275973.44 0 a 275973.44 275973.44 0 1 1 551946.87 0a 275973.44 275973.44 0 1 1 -551946.87 0M 55814962.92 13188980.47 m -208737.53 0 a 208737.53 208737.53 0 1 1 417475.06 0a 208737.53 208737.53 0 1 1 -417475.06 0"/>
<path id="N" d="M 46814965.74 20188991.88 m -275973.44 0 a 275973.44 275973.44 0 1 1 551946.87 0a 275973.44 275973.44 0 1 1 -551946.87 0M 46814962.92 20188980.47 m -208737.53 0 a 208737.53 208737.53 0 1 1 417475.06 0a 208737.53 208737.53 0 1 1 -417475.06 0"/>
<path id="N" d="M 56814965.74 13188991.88 m -275973.44 0 a 275973.44 275973.44 0 1 1 551946.87 0a 275973.44 275973.44 0 1 1 -551946.87 0M 56814962.92 13188980.47 m -208737.53 0 a 208737.53 208737.53 0 1 1 417475.06 0a 208737.53 208737.53 0 1 1 -417475.06 0"/>
<path id="N" d="M 32078742.99 20015753.10 m -317671.90 0 a 317671.90 317671.90 0 1 1 635343.80 0a 317671.90 317671.90 0 1 1 -635343.80 0M 32078740.36 20015748.47 m -200706.53 0 a 200706.53 200706.53 0 1 1 401413.05 0a 200706.53 200706.53 0 1 1 -401413.05 0"/>
<path id="N" d="M 65937010.99 18015753.10 m -317671.90 0 a 317671.90 317671.90 0 1 1 635343.80 0a 317671.90 317671.90 0 1 1 -635343.80 0M 65937008.36 18015748.47 m -200706.53 0 a 200706.53 200706.53 0 1 1 401413.05 0a 200706.53 200706.53 0 1 1 -401413.05 0"/>
<path id="N" d="M 61814965.74 20188991.88 m -275973.44 0 a 275973.44 275973.44 0 1 1 551946.87 0a 275973.44 275973.44 0 1 1 -551946.87 0M 61814962.92 20188980.47 m -208737.53 0 a 208737.53 208737.53 0 1 1 417475.06 0a 208737.53 208737.53 0 1 1 -417475.06 0"/>
<path id="N" d="M 56814965.74 20188991.88 m -275973.44 0 a 275973.44 275973.44 0 1 1 551946.87 0a 275973.44 275973.44 0 1 1 -551946.87 0M 56814962.92 20188980.47 m -208737.53 0 a 208737.53 208737.53 0 1 1 417475.06 0a 208737.53 208737.53 0 1 1 -417475.06 0"/>
<path id="N" d="M 65937010.99 19015753.10 m -317671.90 0 a 317671.90 317671.90 0 1 1 635343.80 0a 317671.90 317671.90 0 1 1 -635343.80 0M 65937008.36 19015748.47 m -200706.53 0 a 200706.53 200706.53 0 1 1 401413.05 0a 200706.53 200706.53 0 1 1 -401413.05 0"/>
<path id="N" d="M 67519691.63 17322844.20 m -335537.14 0 a 335537.14 335537.14 0 1 1 671074.28 0a 335537.14 335537.14 0 1 1 -671074.28 0M 67519685.45 17322838.53 m -218767.47 0 a 218767.47 218767.47 0 1 1 437534.95 0a 218767.47 218767.47 0 1 1 -437534.95 0"/>
<path id="N" d="M 60814965.74 13188991.88 m -275973.44 0 a 275973.44 275973.44 0 1 1 551946.87 0a 275973.44 275973.44 0 1 1 -551946.87 0M 60814962.92 13188980.47 m -208737.53 0 a 208737.53 208737.53 0 1 1 417475.06 0a 208737.53 208737.53 0 1 1 -417475.06 0"/>
<path id="N" d="M 32078742.99 16015753.10 m -317671.90 0 a 317671.90 317671.90 0 1 1 635343.80 0a 317671.90 317671.90 0 1 1 -635343.80 0M 32078740.36 16015748.47 m -200706.53 0 a 200706.53 200706.53 0 1 1 401413.05 0a 200706.53 200706.53 0 1 1 -401413.05 0"/>
<path id="N" d="M 73228343.52 12992116.18 m -297556.40 0 a 297556.40 297556.40 0 1 1 595112.80 0a 297556.40 297556.40 0 1 1 -595112.80 0M 73228347.03 12992128.21 m -198817.79 0 a 198817.79 198817.79 0 1 1 397635.58 0a 198817.79 198817.79 0 1 1 -397635.58 0"/>
<path id="N" d="M 40354319.98 18503918.45 m -307772.16 0 a 307772.16 307772.16 0 1 1 615544.33 0a 307772.16 307772.16 0 1 1 -615544.33 0M 40354331.36 18503937.47 m -200706.53 0 a 200706.53 200706.53 0 1 1 401413.05 0a 200706.53 200706.53 0 1 1 -401413.05 0"/>
<path id="N" d="M 72549214.00 18198819.00 L 71938978.00 18198819.00 L 71938978.00 18809055.00 L 72549214.00 18809055.00 L 72549214.00 18198819.00  zM 72244096.36 18503937.47 m -200706.53 0 a 200706.53 200706.53 0 1 1 401413.05 0a 200706.53 200706.53 0 1 1 -401413.05 0"/>
<path id="N" d="M 53814965.74 20188991.88 m -275973.44 0 a 275973.44 275973.44 0 1 1 551946.87 0a 275973.44 275973.44 0 1 1 -551946.87 0M 53814962.92 20188980.47 m -208737.53 0 a 208737.53 208737.53 0 1 1 417475.06 0a 208737.53 208737.53 0 1 1 -417475.06 0"/>
<path id="N" d="M 17590157.00 18055518.00 L 17055511.00 18055518.00 L 17055511.00 18590164.00 L 17590157.00 18590164.00 L 17590157.00 18055518.00  zM 17322833.05 18322843.89 m -170598.11 0 a 170598.11 170598.11 0 1 1 341196.22 0a 170598.11 170598.11 0 1 1 -341196.22 0"/>
</g>
</svg>
