<svg width="179.00000776mm" height="38.00002814mm" viewBox="0 0 70472444 14960641"  version="1.1" xmlns="http://www.w3.org/2000/svg" xmlns:xlink="http://www.w3.org/1999/xlink">
<desc>
Origin 43700788 9842526 Bound 8464567 9842515 70472444 14960641
</desc>
<g fill-rule="evenodd" fill="rgb(255, 255, 0)" stroke="black" stroke-width="1" transform="translate(0, 14960641) scale(1, -1) translate(-8464567, -9842515)">
<path id="N" d="M 72443891.00 11577620.00 L 72453252.00 11555021.00 L 72453252.00 11456628.00 L 72443891.00 11434029.00 L 72059679.00 11049816.02 L 72059679.00 11030304.22 L 72085665.00 11012941.00 L 72118758.61 10996621.00 L 72421292.00 10996621.00 L 72443891.00 10987260.00 L 72453252.00 10964661.00 L 72443891.00 10942062.00 L 72421292.00 10932701.00 L 72248375.27 10932701.00 L 72353776.00 10880723.00 A 2285368.81 2285368.81 0 0 1 74371031.00 11012941.00 L 74536685.00 11123627.00 L 74538830.00 11120563.00 L 74556177.00 11127749.00 L 74578776.00 11118388.00 L 74588137.00 11095789.00 L 74578776.00 11073190.00 L 74573140.00 11071564.00 L 74477677.00 11003830.00 A 2348271.65 2348271.65 0 0 0 73750876.00 10702780.00 L 73647418.43 10685201.73 L 73654009.00 10669291.00 L 73654009.00 10433071.00 L 73644648.00 10410472.00 L 73622049.00 10401111.00 L 72834647.00 10401111.00 L 72812048.00 10410472.00 L 72802687.00 10433071.00 L 72802687.00 10669291.00 L 72809277.57 10685201.73 L 72705820.00 10702780.00 L 72452780.00 10775679.00 L 72209493.00 10876452.00 L 72107717.72 10932701.00 L 72027719.00 10932701.00 L 72005120.00 10942062.00 L 71995759.00 10964661.00 L 71995759.00 10994578.16 L 71979019.00 11003830.00 L 71883172.00 11071015.00 L 71877920.00 11073190.00 L 71868559.00 11095789.00 L 71877920.00 11118388.00 L 71900519.00 11127749.00 L 71917866.00 11120563.00 L 71920011.00 11123627.00 L 71998990.32 11070854.93 L 72005120.00 11085653.00 L 72389332.00 11469865.98 L 72389332.00 11555021.00 L 72398693.00 11577620.00 L 72421292.00 11586981.00 L 72443891.00 11577620.00  zM 73592838.24 10675928.11 L 73491265.00 10658670.00 L 73228348.00 10643905.00 L 72965431.00 10658670.00 L 72863857.76 10675928.11 L 72866607.00 10669291.00 L 72866607.00 10465031.00 L 73590089.00 10465031.00 L 73590089.00 10669291.00 L 73592838.24 10675928.11  z"/>
<path id="N" d="M 48977849.00 20318075.00 L 48984692.01 20301554.99 L 49068140.00 20218107.00 L 49083991.00 20179838.00 L 49083992.00 19979903.00 L 49068140.00 19941634.00 L 48993700.00 19867194.00 L 48993700.00 19792708.00 L 49061296.72 19725111.28 L 49077816.00 19718269.00 A 54121.84 54121.84 0 0 0 49039547.00 19625880.00 L 48839612.00 19625880.00 A 54118.70 54118.70 0 0 0 48839612.00 19734120.00 L 48885460.00 19734120.00 L 48885460.00 19747872.94 L 48807517.16 19825815.00 L 48684120.00 19825815.00 L 48684120.00 19703363.14 L 48693797.00 19680000.00 L 48677946.00 19641731.00 L 48639677.00 19625880.00 L 48239806.00 19625879.00 A 54122.11 54122.11 0 0 0 48201537.00 19718269.00 L 48575880.00 20092612.00 L 48575880.00 20167097.00 L 48517291.00 20225686.00 L 48362192.00 20225686.00 L 48278075.00 20141569.00 A 54121.84 54121.84 0 0 0 48201537.00 20218107.00 L 48301505.00 20318075.00 L 48339776.41 20333926.00 L 48539709.00 20333926.00 L 48577978.00 20318075.00 L 48587702.94 20308350.06 L 48591731.00 20318075.00 L 48630000.00 20333926.00 L 48929903.00 20333927.00 L 48934741.50 20331922.77 L 48939580.00 20333927.00 L 48977849.00 20318075.00  zM 48575880.00 19939536.00 L 48370464.00 19734120.00 L 48575880.00 19734120.00 L 48575880.00 19939536.00  zM 48808922.00 20225686.00 L 48684120.00 20225686.00 L 48684120.00 20203202.08 L 48693797.00 20179835.59 L 48693798.00 20079871.00 L 48684120.00 20056506.92 L 48684120.00 19934055.00 L 48885460.00 19934055.00 L 48885460.00 20149148.00 L 48877881.00 20141569.00 A 54121.84 54121.84 0 1 0 48808922.00 20225686.00  z"/>
<path id="N" d="M 73644648.00 15573780.00 L 73654009.00 15551181.00 L 73654009.00 15314961.00 L 73647418.43 15299050.27 L 73750876.00 15281472.00 A 2348162.85 2348162.85 0 0 0 74477677.00 14980422.00 L 74573524.00 14913237.00 L 74578776.00 14911062.00 L 74588137.00 14888463.00 L 74578776.00 14865864.00 L 74556177.00 14856503.00 L 74538830.00 14863689.00 L 74536685.00 14860625.00 L 74371031.00 14971311.00 A 2285332.44 2285332.44 0 0 1 72085665.00 14971311.00 L 71920011.00 14860625.00 L 71917866.00 14863689.00 L 71900519.00 14856503.00 L 71877920.00 14865864.00 L 71868559.00 14888463.00 L 71877920.00 14911062.00 L 71883556.00 14912688.00 L 71979019.00 14980422.00 A 2348271.65 2348271.65 0 0 0 72705820.00 15281472.00 L 72809277.57 15299050.27 L 72802687.00 15314961.00 L 72802687.00 15551181.00 L 72812048.00 15573780.00 L 72834647.00 15583141.00 L 73622049.00 15583141.00 L 73644648.00 15573780.00  zM 73590089.00 15519221.00 L 72866607.00 15519221.00 L 72866607.00 15314961.00 L 72863857.76 15308323.89 L 72965431.00 15325582.00 L 73228348.00 15340347.00 L 73491265.00 15325582.00 L 73592838.24 15308323.89 L 73590089.00 15314961.00 L 73590089.00 15519221.00  z"/>
<path id="N" d="M 39786379.00 15573780.00 L 39795740.00 15551181.00 L 39795740.00 15314961.00 L 39789149.43 15299050.27 L 39892607.00 15281472.00 A 2348162.85 2348162.85 0 0 0 40619408.00 14980422.00 L 40715255.00 14913237.00 L 40720507.00 14911062.00 L 40729868.00 14888463.00 L 40720507.00 14865864.00 L 40697908.00 14856503.00 L 40680561.00 14863689.00 L 40678416.00 14860625.00 L 40512762.00 14971311.00 A 2285332.44 2285332.44 0 0 1 38227396.00 14971311.00 L 38061742.00 14860625.00 L 38059597.00 14863689.00 L 38042250.00 14856503.00 L 38019651.00 14865864.00 L 38010290.00 14888463.00 L 38019651.00 14911062.00 L 38025287.00 14912688.00 L 38120750.00 14980422.00 A 2348271.65 2348271.65 0 0 0 38847551.00 15281472.00 L 38951008.57 15299050.27 L 38944418.00 15314961.00 L 38944418.00 15551181.00 L 38953779.00 15573780.00 L 38976378.00 15583141.00 L 39763780.00 15583141.00 L 39786379.00 15573780.00  zM 39731820.00 15519221.00 L 39008338.00 15519221.00 L 39008338.00 15314961.00 L 39005588.76 15308323.89 L 39107162.00 15325582.00 L 39370079.00 15340347.00 L 39632996.00 15325582.00 L 39734569.24 15308323.89 L 39731820.00 15314961.00 L 39731820.00 15519221.00  z"/>
<path id="N" d="M 40720507.00 11118388.00 L 40729868.00 11095789.00 L 40720507.00 11073190.00 L 40714871.00 11071564.00 L 40619408.00 11003830.00 A 2348271.65 2348271.65 0 0 0 39892607.00 10702780.00 L 39789149.43 10685201.73 L 39795740.00 10669291.00 L 39795740.00 10433071.00 L 39786379.00 10410472.00 L 39763780.00 10401111.00 L 38976378.00 10401111.00 L 38953779.00 10410472.00 L 38944418.00 10433071.00 L 38944418.00 10669291.00 L 38951008.57 10685201.73 L 38847551.00 10702780.00 A 2348162.85 2348162.85 0 0 0 38120750.00 11003830.00 L 38024903.00 11071015.00 L 38019651.00 11073190.00 L 38010290.00 11095789.00 L 38019651.00 11118388.00 L 38042250.00 11127749.00 L 38059597.00 11120563.00 L 38061742.00 11123627.00 L 38227396.00 11012941.00 A 2285332.44 2285332.44 0 0 1 40512762.00 11012941.00 L 40678416.00 11123627.00 L 40680561.00 11120563.00 L 40697908.00 11127749.00 L 40720507.00 11118388.00  zM 39734569.24 10675928.11 L 39632996.00 10658670.00 L 39370079.00 10643905.00 L 39107162.00 10658670.00 L 39005588.76 10675928.11 L 39008338.00 10669291.00 L 39008338.00 10465031.00 L 39731820.00 10465031.00 L 39731820.00 10669291.00 L 39734569.24 10675928.11  z"/>
<path id="N" d="M 71663797.00 25499806.00 L 71663797.00 24900000.00 L 71661664.66 24894851.90 L 71662746.00 24889386.00 L 71653977.87 24876293.72 L 71647946.00 24861731.00 L 71642796.51 24859598.08 L 71639697.00 24854970.00 L 71624240.05 24851912.01 L 71609677.00 24845880.00 L 71604528.85 24848012.36 L 71599063.00 24846931.00 L 71585969.73 24855699.54 L 71571408.00 24861731.00 L 71569275.42 24866879.69 L 71564646.00 24869980.00 L 71263926.00 25321059.62 L 71263926.00 24900000.00 A 54118.70 54118.70 0 0 0 71155686.00 24900000.00 L 71155686.00 25499806.00 L 71157817.68 25504952.51 L 71156736.00 25510420.00 L 71165506.54 25523515.70 L 71171537.00 25538075.00 L 71176685.50 25540207.51 L 71179786.00 25544837.00 L 71195247.57 25547895.90 L 71209806.00 25553926.00 L 71214952.51 25551794.32 L 71220420.00 25552876.00 L 71233515.70 25544105.46 L 71248075.00 25538075.00 L 71250207.51 25532926.50 L 71254837.00 25529826.00 L 71555557.00 25078746.00 L 71555557.00 25499806.00 A 54118.70 54118.70 0 1 0 71663797.00 25499806.00  z"/>
<path id="N" d="M 37620897.00 16380771.00 L 37719290.00 16282378.00 L 37728651.00 16259779.00 L 37728651.00 16161385.00 L 37719290.00 16138786.00 L 37643496.00 16062992.00 L 37719290.00 15987198.00 L 37728651.00 15964599.00 L 37728651.00 15866205.00 L 37719290.00 15843606.00 L 37620897.00 15745213.00 L 37598298.00 15735852.00 L 37401511.00 15735852.00 L 37378912.00 15745213.00 L 37280519.00 15843606.00 L 37271158.00 15866205.00 L 37280519.00 15888804.00 L 37303118.00 15898165.00 L 37325717.00 15888804.00 L 37414749.00 15799772.00 L 37585060.00 15799772.00 L 37664731.00 15879443.00 L 37664731.00 15951361.00 L 37585060.00 16031032.00 L 37499905.00 16031032.00 L 37477306.00 16040393.00 L 37467945.00 16062992.00 L 37477306.00 16085591.00 L 37499905.00 16094952.00 L 37585060.00 16094952.00 L 37664731.00 16174623.00 L 37664731.00 16246541.00 L 37585060.00 16326212.00 L 37414749.00 16326212.00 L 37325717.00 16237180.00 L 37303118.00 16227819.00 L 37280519.00 16237180.00 L 37271158.00 16259779.00 L 37280519.00 16282378.00 L 37378912.00 16380771.00 L 37401511.00 16390132.00 L 37598298.00 16390132.00 L 37620897.00 16380771.00  z"/>
<path id="N" d="M 66389970.41 19993926.00 L 66589903.00 19993926.00 L 66628172.00 19978075.00 L 66728140.00 19878107.00 A 54119.43 54119.43 0 0 0 66651602.00 19801569.00 L 66567485.00 19885686.00 L 66412386.00 19885686.00 L 66344120.00 19817420.00 L 66344120.00 19762289.00 L 66412386.00 19694023.00 L 66589903.00 19694024.00 L 66628172.00 19678172.00 L 66728140.00 19578204.00 L 66743991.00 19539935.00 L 66743992.00 19439968.00 L 66728140.00 19401699.00 L 66628172.00 19301731.00 L 66589903.00 19285880.00 L 66389968.00 19285879.00 L 66351699.00 19301731.00 L 66251731.00 19401699.00 A 54121.84 54121.84 0 1 0 66328269.00 19478237.00 L 66412386.00 19394120.00 L 66567485.00 19394120.00 L 66635751.00 19462386.00 L 66635751.00 19517517.00 L 66567485.00 19585783.00 L 66389968.00 19585783.00 L 66351699.00 19601634.00 L 66251731.00 19701602.00 L 66235880.00 19739873.41 L 66235880.00 19839838.00 L 66251731.00 19878107.00 L 66351699.00 19978075.00 L 66389970.41 19993926.00  z"/>
<path id="N" d="M 42211512.00 16715518.00 L 42309905.00 16617125.00 L 42319266.00 16594526.00 L 42319266.00 16397739.00 L 42309905.00 16375140.00 L 42211512.00 16276747.00 L 42188913.00 16267386.00 L 42166314.00 16276747.00 L 42156953.00 16299346.00 L 42166314.00 16321945.00 L 42255346.00 16410977.00 L 42255346.00 16581288.00 L 42175675.00 16660959.00 L 42103757.00 16660959.00 L 42024086.00 16581288.00 L 42024086.00 16397739.00 L 42014725.00 16375140.00 L 41916332.00 16276747.00 L 41893733.00 16267386.00 L 41795339.00 16267386.00 L 41772740.00 16276747.00 L 41674347.00 16375140.00 L 41664986.00 16397739.00 L 41664986.00 16594526.00 L 41674347.00 16617125.00 L 41772740.00 16715518.00 L 41795339.00 16724879.00 L 41817938.00 16715518.00 L 41827299.00 16692919.00 L 41817938.00 16670320.00 L 41728906.00 16581288.00 L 41728906.00 16410977.00 L 41808577.00 16331306.00 L 41880495.00 16331306.00 L 41960166.00 16410977.00 L 41960166.00 16594526.00 L 41969527.00 16617125.00 L 42067920.00 16715518.00 L 42090519.00 16724879.00 L 42188913.00 16724879.00 L 42211512.00 16715518.00  z"/>
<path id="N" d="M 37030537.00 16380771.00 L 37128930.00 16282378.00 L 37138291.00 16259779.00 L 37128930.00 16237180.00 L 37106331.00 16227819.00 L 37083732.00 16237180.00 L 36994700.00 16326212.00 L 36824389.00 16326212.00 L 36744718.00 16246541.00 L 36744718.00 16174623.00 L 36824389.00 16094952.00 L 37007938.00 16094952.00 L 37030537.00 16085591.00 L 37128930.00 15987198.00 L 37138291.00 15964599.00 L 37138291.00 15866205.00 L 37128930.00 15843606.00 L 37030537.00 15745213.00 L 37007938.00 15735852.00 L 36811151.00 15735852.00 L 36788552.00 15745213.00 L 36690159.00 15843606.00 L 36680798.00 15866205.00 L 36690159.00 15888804.00 L 36712758.00 15898165.00 L 36735357.00 15888804.00 L 36824389.00 15799772.00 L 36994700.00 15799772.00 L 37074371.00 15879443.00 L 37074371.00 15951361.00 L 36994700.00 16031032.00 L 36811151.00 16031032.00 L 36788552.00 16040393.00 L 36690159.00 16138786.00 L 36680798.00 16161385.00 L 36680798.00 16259779.00 L 36690159.00 16282378.00 L 36788552.00 16380771.00 L 36811151.00 16390132.00 L 37007938.00 16390132.00 L 37030537.00 16380771.00  z"/>
<path id="N" d="M 37496341.00 14342554.00 L 37505702.00 14319955.00 L 37498516.00 14302608.00 L 37501580.00 14300463.00 L 37390894.00 14134809.00 A 2285332.44 2285332.44 0 0 1 37390894.00 11849443.00 L 37501580.00 11683789.00 L 37498516.00 11681644.00 L 37505702.00 11664297.00 L 37496341.00 11641698.00 L 37473742.00 11632337.00 L 37451143.00 11641698.00 L 37449517.00 11647334.00 L 37381783.00 11742797.00 A 2348271.65 2348271.65 0 0 0 37381783.00 14241455.00 L 37448968.00 14337302.00 L 37451143.00 14342554.00 L 37473742.00 14351915.00 L 37496341.00 14342554.00  z"/>
<path id="N" d="M 75147284.00 14342554.00 L 75148910.00 14336918.00 L 75216644.00 14241455.00 A 2348271.65 2348271.65 0 0 0 75216644.00 11742797.00 L 75149459.00 11646950.00 L 75147284.00 11641698.00 L 75124685.00 11632337.00 L 75102086.00 11641698.00 L 75092725.00 11664297.00 L 75099911.00 11681644.00 L 75096847.00 11683789.00 L 75207533.00 11849443.00 A 2285332.44 2285332.44 0 0 1 75207533.00 14134809.00 L 75096847.00 14300463.00 L 75099911.00 14302608.00 L 75092725.00 14319955.00 L 75102086.00 14342554.00 L 75124685.00 14351915.00 L 75147284.00 14342554.00  z"/>
<path id="N" d="M 42030346.00 15593370.00 L 42128739.00 15494977.00 L 42138100.00 15472378.00 L 42138100.00 15078804.00 L 42128739.00 15056205.00 L 42030346.00 14957812.00 L 42007747.00 14948451.00 L 41810960.00 14948451.00 L 41788361.00 14957812.00 L 41689968.00 15056205.00 L 41680607.00 15078804.00 L 41689968.00 15101403.00 L 41712567.00 15110764.00 L 41735166.00 15101403.00 L 41824198.00 15012371.00 L 41994509.00 15012371.00 L 42074180.00 15092042.00 L 42074180.00 15243631.00 L 41810960.00 15243631.00 L 41788361.00 15252992.00 L 41689968.00 15351385.00 L 41680607.00 15373984.00 L 41680607.00 15472378.00 L 41689968.00 15494977.00 L 41788361.00 15593370.00 L 41810960.00 15602731.00 L 42007747.00 15602731.00 L 42030346.00 15593370.00  zM 41994509.00 15538811.00 L 41824198.00 15538811.00 L 41744527.00 15459140.00 L 41744527.00 15387222.00 L 41824198.00 15307551.00 L 42074180.00 15307551.00 L 42074180.00 15459140.00 L 41994509.00 15538811.00  z"/>
<path id="N" d="M 71354610.00 14342554.00 L 71363971.00 14319955.00 L 71356785.00 14302608.00 L 71359849.00 14300463.00 L 71249163.00 14134809.00 A 2285332.44 2285332.44 0 0 1 71249163.00 11849443.00 L 71359849.00 11683789.00 L 71356785.00 11681644.00 L 71363971.00 11664297.00 L 71354610.00 11641698.00 L 71332011.00 11632337.00 L 71309412.00 11641698.00 L 71307786.00 11647334.00 L 71240052.00 11742797.00 A 2348271.65 2348271.65 0 0 0 71240052.00 14241455.00 L 71307237.00 14337302.00 L 71309412.00 14342554.00 L 71332011.00 14351915.00 L 71354610.00 14342554.00  z"/>
<path id="N" d="M 41289015.00 14342554.00 L 41290641.00 14336918.00 L 41358375.00 14241455.00 A 2348271.65 2348271.65 0 0 0 41358375.00 11742797.00 L 41291190.00 11646950.00 L 41289015.00 11641698.00 L 41266416.00 11632337.00 L 41243817.00 11641698.00 L 41234456.00 11664297.00 L 41241642.00 11681644.00 L 41238578.00 11683789.00 L 41349264.00 11849443.00 A 2285332.44 2285332.44 0 0 1 41349264.00 14134809.00 L 41238578.00 14300463.00 L 41241642.00 14302608.00 L 41234456.00 14319955.00 L 41243817.00 14342554.00 L 41266416.00 14351915.00 L 41289015.00 14342554.00  z"/>
<path id="N" d="M 47978172.00 20318075.00 L 48078140.00 20218107.00 L 48093991.00 20179838.00 L 48093992.00 19979903.00 L 48078140.00 19941634.00 L 47978172.00 19841666.00 L 47961604.32 19834803.68 L 48078139.00 19718269.00 A 54118.22 54118.22 0 0 0 48001602.00 19641732.00 L 47817517.16 19825815.00 L 47694120.00 19825815.00 L 47694120.00 19680000.00 A 54118.70 54118.70 0 0 0 47585880.00 19680000.00 L 47585880.00 20279806.00 L 47601731.00 20318075.00 L 47640000.00 20333926.00 L 47939903.00 20333927.00 L 47978172.00 20318075.00  zM 47917485.00 20225686.00 L 47694120.00 20225686.00 L 47694120.00 19934055.00 L 47917485.00 19934055.00 L 47985751.00 20002321.00 L 47985751.00 20157420.00 L 47917485.00 20225686.00  z"/>
<path id="N" d="M 43418380.00 16026447.00 L 43516773.00 15928054.00 L 43526134.00 15905455.00 L 43516773.00 15882856.00 L 43494174.00 15873495.00 L 43471575.00 15882856.00 L 43382543.00 15971888.00 L 43212232.00 15971888.00 L 43132561.00 15892217.00 L 43132561.00 15525119.00 L 43212232.00 15445448.00 L 43382543.00 15445448.00 L 43471575.00 15534480.00 L 43494174.00 15543841.00 L 43516773.00 15534480.00 L 43526134.00 15511881.00 L 43516773.00 15489282.00 L 43418380.00 15390889.00 L 43395781.00 15381528.00 L 43198994.00 15381528.00 L 43176395.00 15390889.00 L 43078002.00 15489282.00 L 43068641.00 15511881.00 L 43068641.00 15905455.00 L 43078002.00 15928054.00 L 43176395.00 16026447.00 L 43198994.00 16035808.00 L 43395781.00 16035808.00 L 43418380.00 16026447.00  z"/>
<path id="N" d="M 71909582.41 25553926.00 L 72109515.00 25553926.00 L 72147784.00 25538075.00 L 72247752.00 25438107.00 A 54119.43 54119.43 0 1 0 72171214.00 25361569.00 L 72087097.00 25445686.00 L 71931998.00 25445686.00 L 71863732.00 25377420.00 L 71863732.00 25022386.00 L 71931998.00 24954120.00 L 72087097.00 24954120.00 L 72171214.00 25038237.00 A 54121.84 54121.84 0 1 0 72247752.00 24961699.00 L 72147784.00 24861731.00 L 72109512.59 24845880.00 L 71909580.00 24845880.00 L 71871311.00 24861731.00 L 71771343.00 24961699.00 L 71755492.00 24999970.41 L 71755492.00 25399838.00 L 71771343.00 25438107.00 L 71871311.00 25538075.00 L 71909582.41 25553926.00  z"/>
<path id="N" d="M 51089776.41 24223926.00 L 51289709.00 24223926.00 L 51327978.00 24208075.00 L 51427946.00 24108107.00 A 54119.43 54119.43 0 0 0 51351408.00 24031569.00 L 51267291.00 24115686.00 L 51112192.00 24115686.00 L 51043926.00 24047420.00 L 51043926.00 23692386.00 L 51112192.00 23624120.00 L 51267291.00 23624120.00 L 51351408.00 23708237.00 A 54121.84 54121.84 0 1 0 51427946.00 23631699.00 L 51327978.00 23531731.00 L 51289706.59 23515880.00 L 51089774.00 23515880.00 L 51051505.00 23531731.00 L 50951537.00 23631699.00 L 50935686.00 23669970.41 L 50935686.00 24069838.00 L 50951537.00 24108107.00 L 51051505.00 24208075.00 L 51089776.41 24223926.00  z"/>
<path id="N" d="M 24529241.00 18332959.00 L 24627634.00 18234566.00 L 24636995.00 18211967.00 L 24627634.00 18189368.00 L 24605035.00 18180007.00 L 24582436.00 18189368.00 L 24493404.00 18278400.00 L 24323093.00 18278400.00 L 24243422.00 18198729.00 L 24243422.00 17831631.00 L 24323093.00 17751960.00 L 24493404.00 17751960.00 L 24582436.00 17840992.00 L 24605035.00 17850353.00 L 24627634.00 17840992.00 L 24636995.00 17818393.00 L 24627634.00 17795794.00 L 24529241.00 17697401.00 L 24506642.00 17688040.00 L 24309855.00 17688040.00 L 24287256.00 17697401.00 L 24188863.00 17795794.00 L 24179502.00 17818393.00 L 24179502.00 18211967.00 L 24188863.00 18234566.00 L 24287256.00 18332959.00 L 24309855.00 18342320.00 L 24506642.00 18342320.00 L 24529241.00 18332959.00  z"/>
<path id="N" d="M 36243007.00 23447604.00 L 36341400.00 23349211.00 L 36350761.00 23326612.00 L 36350761.00 23129825.00 L 36341400.00 23107226.00 L 36243007.00 23008833.00 L 36220408.00 22999472.00 L 35826834.00 22999472.00 L 35804235.00 23008833.00 L 35705842.00 23107226.00 L 35696481.00 23129825.00 L 35696481.00 23326612.00 L 35705842.00 23349211.00 L 35804235.00 23447604.00 L 35826834.00 23456965.00 L 35849433.00 23447604.00 L 35858794.00 23425005.00 L 35849433.00 23402406.00 L 35760401.00 23313374.00 L 35760401.00 23143063.00 L 35840072.00 23063392.00 L 36207170.00 23063392.00 L 36286841.00 23143063.00 L 36286841.00 23313374.00 L 36197809.00 23402406.00 L 36188448.00 23425005.00 L 36197809.00 23447604.00 L 36220408.00 23456965.00 L 36243007.00 23447604.00  z"/>
<path id="N" d="M 49329776.41 20333926.00 L 49529709.00 20333926.00 L 49567978.00 20318075.00 L 49667946.00 20218107.00 L 49683797.00 20179835.59 L 49683798.00 20079871.00 L 49667946.00 20041602.00 L 49360464.00 19734120.00 L 49629677.00 19734120.00 A 54118.70 54118.70 0 0 0 49629677.00 19625880.00 L 49229806.00 19625879.00 A 54122.11 54122.11 0 0 0 49191537.00 19718269.00 L 49575557.00 20102289.00 L 49575557.00 20157420.00 L 49507291.00 20225686.00 L 49352192.00 20225686.00 L 49268075.00 20141569.00 A 54121.84 54121.84 0 0 0 49191537.00 20218107.00 L 49291505.00 20318075.00 L 49329776.41 20333926.00  z"/>
<path id="N" d="M 49929582.41 20333926.00 L 50129515.00 20333926.00 L 50167784.00 20318075.00 L 50267752.00 20218107.00 L 50283603.00 20179835.59 L 50283604.00 20079871.00 L 50267752.00 20041602.00 L 49960270.00 19734120.00 L 50229483.00 19734120.00 A 54118.70 54118.70 0 1 0 50229483.00 19625880.00 L 49829612.00 19625879.00 A 54122.11 54122.11 0 0 0 49791343.00 19718269.00 L 50175363.00 20102289.00 L 50175363.00 20157420.00 L 50107097.00 20225686.00 L 49951998.00 20225686.00 L 49867881.00 20141569.00 A 54121.84 54121.84 0 0 0 49791343.00 20218107.00 L 49891311.00 20318075.00 L 49929582.41 20333926.00  z"/>
<path id="N" d="M 72509388.41 25553926.00 L 72709321.00 25553926.00 L 72747590.00 25538075.00 L 72847558.00 25438107.00 L 72863409.00 25399835.59 L 72863410.00 25299871.00 L 72847558.00 25261602.00 L 72540076.00 24954120.00 L 72809289.00 24954120.00 A 54118.70 54118.70 0 1 0 72809289.00 24845880.00 L 72409418.00 24845879.00 A 54122.11 54122.11 0 0 0 72371149.00 24938269.00 L 72755169.00 25322289.00 L 72755169.00 25377420.00 L 72686903.00 25445686.00 L 72531804.00 25445686.00 L 72447687.00 25361569.00 A 54121.84 54121.84 0 0 0 72371149.00 25438107.00 L 72471117.00 25538075.00 L 72509388.41 25553926.00  z"/>
<path id="N" d="M 52289388.41 24223926.00 L 52489321.00 24223926.00 L 52527590.00 24208075.00 L 52627558.00 24108107.00 L 52643409.00 24069835.59 L 52643410.00 23969871.00 L 52627558.00 23931602.00 L 52320076.00 23624120.00 L 52589289.00 23624120.00 A 54118.70 54118.70 0 0 0 52589289.00 23515880.00 L 52189418.00 23515879.00 A 54122.11 54122.11 0 0 0 52151149.00 23608269.00 L 52535169.00 23992289.00 L 52535169.00 24047420.00 L 52466903.00 24115686.00 L 52311804.00 24115686.00 L 52227687.00 24031569.00 A 54121.84 54121.84 0 0 0 52151149.00 24108107.00 L 52251117.00 24208075.00 L 52289388.41 24223926.00  z"/>
<path id="N" d="M 66989776.41 19993926.00 L 67189709.00 19993926.00 L 67227978.00 19978075.00 L 67327946.00 19878107.00 L 67343797.00 19839835.59 L 67343798.00 19739871.00 L 67327946.00 19701602.00 L 67020464.00 19394120.00 L 67289677.00 19394120.00 A 54118.70 54118.70 0 0 0 67289677.00 19285880.00 L 66889806.00 19285879.00 A 54122.11 54122.11 0 0 0 66851537.00 19378269.00 L 67235557.00 19762289.00 L 67235557.00 19817420.00 L 67167291.00 19885686.00 L 67012192.00 19885686.00 L 66928075.00 19801569.00 A 54121.84 54121.84 0 0 0 66851537.00 19878107.00 L 66951505.00 19978075.00 L 66989776.41 19993926.00  z"/>
<path id="N" d="M 72935858.00 11577620.00 L 73034251.00 11479227.00 L 73043612.00 11456628.00 L 73034251.00 11434029.00 L 73011652.00 11424668.00 L 72989053.00 11434029.00 L 72900021.00 11523061.00 L 72828103.00 11523061.00 L 72748432.00 11443390.00 L 72748432.00 10996621.00 L 72814865.00 10996621.00 L 72837464.00 10987260.00 L 72846825.00 10964661.00 L 72837464.00 10942062.00 L 72814865.00 10932701.00 L 72618079.00 10932701.00 L 72595480.00 10942062.00 L 72586119.00 10964661.00 L 72595480.00 10987260.00 L 72618079.00 10996621.00 L 72684512.00 10996621.00 L 72684512.00 11456628.00 L 72693873.00 11479227.00 L 72792266.00 11577620.00 L 72814865.00 11586981.00 L 72913259.00 11586981.00 L 72935858.00 11577620.00  z"/>
<path id="N" d="M 36325069.00 22865984.00 L 36341400.00 22857244.00 L 36345393.00 22852373.00 L 36350761.00 22834645.00 L 36350140.00 22828377.00 L 36341400.00 22812046.00 L 36336529.00 22808053.00 L 35833997.07 22473032.00 L 36318801.00 22473032.00 L 36341400.00 22463671.00 L 36350761.00 22441072.00 L 36341400.00 22418473.00 L 36318801.00 22409112.00 L 35722173.00 22409733.00 L 35705842.00 22418473.00 L 35701849.00 22423344.00 L 35696481.00 22441072.00 L 35697102.00 22447340.00 L 35705842.00 22463671.00 L 35710713.00 22467664.00 L 36213244.93 22802685.00 L 35728441.00 22802685.00 L 35705842.00 22812046.00 L 35696481.00 22834645.00 L 35705842.00 22857244.00 L 35728441.00 22866605.00 L 36325069.00 22865984.00  z"/>
<path id="N" d="M 41538379.00 15593370.00 L 41547740.00 15570771.00 L 41538379.00 15548172.00 L 41515780.00 15538811.00 L 41449347.00 15538811.00 L 41449347.00 15078804.00 L 41439986.00 15056205.00 L 41341593.00 14957812.00 L 41318994.00 14948451.00 L 41220600.00 14948451.00 L 41198001.00 14957812.00 L 41099608.00 15056205.00 L 41090247.00 15078804.00 L 41099608.00 15101403.00 L 41122207.00 15110764.00 L 41144806.00 15101403.00 L 41233838.00 15012371.00 L 41305756.00 15012371.00 L 41385427.00 15092042.00 L 41385427.00 15538811.00 L 41318994.00 15538811.00 L 41296395.00 15548172.00 L 41287034.00 15570771.00 L 41296395.00 15593370.00 L 41318994.00 15602731.00 L 41515780.00 15602731.00 L 41538379.00 15593370.00  z"/>
<path id="N" d="M 71009871.00 25445686.00 L 70664120.00 25445686.00 L 70664120.00 25254023.00 L 70809935.00 25254023.00 A 54118.70 54118.70 0 0 0 70809935.00 25145783.00 L 70664120.00 25145783.00 L 70664120.00 24954120.00 L 71009871.00 24954120.00 A 54118.70 54118.70 0 0 0 71009871.00 24845880.00 L 70610000.00 24845880.00 L 70571731.00 24861731.00 L 70555880.00 24900000.00 L 70555880.00 25499806.00 L 70571731.00 25538075.00 L 70610000.00 25553926.00 L 71009871.00 25553926.00 A 54121.84 54121.84 0 0 0 71009871.00 25445686.00  z"/>
<path id="N" d="M 36341400.00 22266884.00 L 36350761.00 22244285.00 L 36350761.00 21850712.00 L 36341400.00 21828113.00 L 36318801.00 21818752.00 L 35728441.00 21818752.00 L 35705842.00 21828113.00 L 35696481.00 21850712.00 L 35696481.00 22244285.00 L 35705842.00 22266884.00 L 35728441.00 22276245.00 L 35751040.00 22266884.00 L 35760401.00 22244285.00 L 35760401.00 21882672.00 L 35991661.00 21882672.00 L 35991661.00 22047499.00 L 36001022.00 22070098.00 L 36023621.00 22079459.00 L 36046220.00 22070098.00 L 36055581.00 22047499.00 L 36055581.00 21882672.00 L 36286841.00 21882672.00 L 36286841.00 22244285.00 L 36296202.00 22266884.00 L 36318801.00 22276245.00 L 36341400.00 22266884.00  z"/>
<path id="N" d="M 32411424.44 16322842.44 m -81557.07 0 a 81557.07 81557.07 0 1 1 163114.14 0a 81557.07 81557.07 0 1 1 -163114.14 0M 32411417.00 16339071.00 L 32399936.00 16334316.00 L 32395181.00 16322835.00 L 32399936.00 16311354.00 L 32411417.00 16306599.00 L 32422898.00 16311354.00 L 32427653.00 16322835.00 L 32422898.00 16334316.00 L 32411417.00 16339071.00  z"/>
<path id="N" d="M 66269693.44 16322842.44 m -81557.07 0 a 81557.07 81557.07 0 1 1 163114.14 0a 81557.07 81557.07 0 1 1 -163114.14 0M 66269686.00 16339071.00 L 66258205.00 16334316.00 L 66253450.00 16322835.00 L 66258205.00 16311354.00 L 66269686.00 16306599.00 L 66281167.00 16311354.00 L 66285922.00 16322835.00 L 66281167.00 16334316.00 L 66269686.00 16339071.00  z"/>
<path id="N" d="M 44303920.00 16026447.00 L 44313281.00 16003848.00 L 44313281.00 15445448.00 L 44379715.00 15445448.00 L 44402314.00 15436087.00 L 44411675.00 15413488.00 L 44402314.00 15390889.00 L 44379715.00 15381528.00 L 44182928.00 15381528.00 L 44160329.00 15390889.00 L 44150968.00 15413488.00 L 44160329.00 15436087.00 L 44182928.00 15445448.00 L 44249361.00 15445448.00 L 44249361.00 15926690.00 L 44205527.00 15882856.00 L 44182928.00 15873495.00 L 44160329.00 15882856.00 L 44150968.00 15905455.00 L 44160329.00 15928054.00 L 44258722.00 16026447.00 L 44281321.00 16035808.00 L 44303920.00 16026447.00  z"/>
<path id="N" d="M 25513174.00 18332959.00 L 25522535.00 18310360.00 L 25522535.00 17751960.00 L 25588969.00 17751960.00 L 25611568.00 17742599.00 L 25620929.00 17720000.00 L 25611568.00 17697401.00 L 25588969.00 17688040.00 L 25392182.00 17688040.00 L 25369583.00 17697401.00 L 25360222.00 17720000.00 L 25369583.00 17742599.00 L 25392182.00 17751960.00 L 25458615.00 17751960.00 L 25458615.00 18233202.00 L 25414781.00 18189368.00 L 25392182.00 18180007.00 L 25369583.00 18189368.00 L 25360222.00 18211967.00 L 25369583.00 18234566.00 L 25467976.00 18332959.00 L 25490575.00 18342320.00 L 25513174.00 18332959.00  z"/>
<path id="N" d="M 43811953.00 16026447.00 L 43821314.00 16003848.00 L 43821314.00 15445448.00 L 43887748.00 15445448.00 L 43910347.00 15436087.00 L 43919708.00 15413488.00 L 43910347.00 15390889.00 L 43887748.00 15381528.00 L 43690961.00 15381528.00 L 43668362.00 15390889.00 L 43659001.00 15413488.00 L 43668362.00 15436087.00 L 43690961.00 15445448.00 L 43757394.00 15445448.00 L 43757394.00 15926690.00 L 43713560.00 15882856.00 L 43690961.00 15873495.00 L 43668362.00 15882856.00 L 43659001.00 15905455.00 L 43668362.00 15928054.00 L 43766755.00 16026447.00 L 43789354.00 16035808.00 L 43811953.00 16026447.00  z"/>
<path id="N" d="M 42309905.00 17109092.00 L 42319266.00 17086493.00 L 42319266.00 16889706.00 L 42309905.00 16867107.00 L 42287306.00 16857746.00 L 42264707.00 16867107.00 L 42255346.00 16889706.00 L 42255346.00 16956139.00 L 41774104.00 16956139.00 L 41817938.00 16912305.00 L 41827299.00 16889706.00 L 41817938.00 16867107.00 L 41795339.00 16857746.00 L 41772740.00 16867107.00 L 41674347.00 16965500.00 L 41664986.00 16988099.00 L 41674347.00 17010698.00 L 41696946.00 17020059.00 L 42255346.00 17020059.00 L 42255346.00 17086493.00 L 42264707.00 17109092.00 L 42287306.00 17118453.00 L 42309905.00 17109092.00  z"/>
<path id="N" d="M 36341400.00 23841178.00 L 36350761.00 23818579.00 L 36350761.00 23621792.00 L 36341400.00 23599193.00 L 36318801.00 23589832.00 L 36296202.00 23599193.00 L 36286841.00 23621792.00 L 36286841.00 23688225.00 L 35805599.00 23688225.00 L 35849433.00 23644391.00 L 35858794.00 23621792.00 L 35849433.00 23599193.00 L 35826834.00 23589832.00 L 35804235.00 23599193.00 L 35705842.00 23697586.00 L 35696481.00 23720185.00 L 35705842.00 23742784.00 L 35728441.00 23752145.00 L 36286841.00 23752145.00 L 36286841.00 23818579.00 L 36296202.00 23841178.00 L 36318801.00 23850539.00 L 36341400.00 23841178.00  z"/>
<path id="N" d="M 32382860.00 13965826.00 L 32382860.00 13799213.00 A 54118.70 54118.70 0 0 0 32274620.00 13799213.00 L 32274620.00 13828399.00 L 31954238.41 13828399.00 L 31966328.00 13799213.00 A 54122.11 54122.11 0 0 0 31873939.00 13760945.00 L 31790633.00 13844250.00 A 54119.43 54119.43 0 0 0 31828904.41 13936639.00 L 32274620.00 13936639.00 L 32274620.00 13965826.00 A 54118.70 54118.70 0 0 0 32382860.00 13965826.00  z"/>
<path id="N" d="M 66241128.00 13965826.00 L 66241128.00 13799213.00 A 54118.70 54118.70 0 1 0 66132888.00 13799213.00 L 66132888.00 13828399.00 L 65812506.41 13828399.00 L 65824596.00 13799213.00 A 54122.11 54122.11 0 0 0 65732207.00 13760945.00 L 65648901.00 13844250.00 A 54119.43 54119.43 0 0 0 65687172.41 13936639.00 L 66132888.00 13936639.00 L 66132888.00 13965826.00 A 54118.70 54118.70 0 1 0 66241128.00 13965826.00  z"/>
<path id="N" d="M 25119601.00 18332959.00 L 25217994.00 18234566.00 L 25227355.00 18211967.00 L 25227355.00 17818393.00 L 25217994.00 17795794.00 L 25119601.00 17697401.00 L 25097002.00 17688040.00 L 24801822.00 17688040.00 L 24779223.00 17697401.00 L 24769862.00 17720000.00 L 24769862.00 18310360.00 L 24779223.00 18332959.00 L 24801822.00 18342320.00 L 25097002.00 18342320.00 L 25119601.00 18332959.00  zM 25083764.00 18278400.00 L 24833782.00 18278400.00 L 24833782.00 17751960.00 L 25083764.00 17751960.00 L 25163435.00 17831631.00 L 25163435.00 18198729.00 L 25083764.00 18278400.00  z"/>
<path id="N" d="M 51927784.00 24208075.00 L 52027752.00 24108107.00 L 52043603.00 24069835.59 L 52043603.00 23669968.00 L 52027752.00 23631699.00 L 51927784.00 23531731.00 L 51889512.59 23515880.00 L 51589612.00 23515880.00 L 51551343.00 23531731.00 L 51535492.00 23570000.00 L 51535492.00 24169806.00 L 51551343.00 24208075.00 L 51589612.00 24223926.00 L 51889515.00 24223926.00 L 51927784.00 24208075.00  zM 51867097.00 24115686.00 L 51643732.00 24115686.00 L 51643732.00 23624120.00 L 51867097.00 23624120.00 L 51935363.00 23692386.00 L 51935363.00 24047420.00 L 51867097.00 24115686.00  z"/>
<path id="N" d="M 75679741.00 20532102.00 L 75692222.00 20501969.00 L 75692222.00 18976378.00 L 75679741.00 18946245.00 L 75649608.00 18933764.00 L 70807088.00 18933764.00 L 70776955.00 18946245.00 L 70764474.00 18976378.00 L 70764474.00 20501969.00 L 70776955.00 20532102.00 L 70807088.00 20544583.00 L 70837221.00 20532102.00 L 70849702.00 20501969.00 L 70849702.00 19018992.00 L 75606994.00 19018992.00 L 75606994.00 20501969.00 L 75619475.00 20532102.00 L 75649608.00 20544583.00 L 75679741.00 20532102.00  z"/>
<path id="N" d="M 41821472.00 20532102.00 L 41833953.00 20501969.00 L 41833953.00 18976378.00 L 41821472.00 18946245.00 L 41791339.00 18933764.00 L 36948819.00 18933764.00 L 36918686.00 18946245.00 L 36906205.00 18976378.00 L 36906205.00 20501969.00 L 36918686.00 20532102.00 L 36948819.00 20544583.00 L 36978952.00 20532102.00 L 36991433.00 20501969.00 L 36991433.00 19018992.00 L 41748725.00 19018992.00 L 41748725.00 20501969.00 L 41761206.00 20532102.00 L 41791339.00 20544583.00 L 41821472.00 20532102.00  z"/>
<path id="N" d="M 72244094.47 17952754.47 m -100354.75 0 a 100354.75 100354.75 0 1 1 200709.51 0a 100354.75 100354.75 0 1 1 -200709.51 0"/>
<path id="N" d="M 38385825.47 17952754.47 m -100354.75 0 a 100354.75 100354.75 0 1 1 200709.51 0a 100354.75 100354.75 0 1 1 -200709.51 0"/>
<path id="N" d="M 42814959.47 15196855.47 m -100354.75 0 a 100354.75 100354.75 0 1 1 200709.51 0a 100354.75 100354.75 0 1 1 -200709.51 0"/>
<path id="N" d="M 70392647.00 18995796.00 L 70402158.00 18972835.00 L 70402158.00 15672835.00 L 70392647.00 15649874.00 L 70369686.00 15640363.00 L 66669686.00 15640363.00 L 66646725.00 15649874.00 L 66637214.00 15672835.00 L 66637214.00 18972835.00 L 66646725.00 18995796.00 L 66669686.00 19005307.00 L 70369686.00 19005307.00 L 70392647.00 18995796.00  zM 70337214.00 18940363.00 L 66702158.00 18940363.00 L 66702158.00 15705307.00 L 70337214.00 15705307.00 L 70337214.00 18940363.00  z"/>
<path id="N" d="M 36534378.00 18995796.00 L 36543889.00 18972835.00 L 36543889.00 15672835.00 L 36534378.00 15649874.00 L 36511417.00 15640363.00 L 32811417.00 15640363.00 L 32788456.00 15649874.00 L 32778945.00 15672835.00 L 32778945.00 18972835.00 L 32788456.00 18995796.00 L 32811417.00 19005307.00 L 36511417.00 19005307.00 L 36534378.00 18995796.00  zM 36478945.00 18940363.00 L 32843889.00 18940363.00 L 32843889.00 15705307.00 L 36478945.00 15705307.00 L 36478945.00 18940363.00  z"/>
<path id="N" d="M 50444120.00 24169806.00 L 50444120.00 23624120.00 L 50789871.00 23624120.00 A 54118.70 54118.70 0 0 0 50789871.00 23515880.00 L 50390000.00 23515880.00 L 50351731.00 23531731.00 L 50335880.00 23570000.00 L 50335880.00 24169806.00 A 54118.70 54118.70 0 0 0 50444120.00 24169806.00  z"/>
<path id="N" d="M 75679741.00 23967141.00 L 75692222.00 23937008.00 L 75692222.00 22411417.00 L 75679741.00 22381284.00 L 75649608.00 22368803.00 L 75619475.00 22381284.00 L 75606994.00 22411417.00 L 75606994.00 23894394.00 L 74665356.00 23894394.00 L 74635223.00 23906875.00 L 74622742.00 23937008.00 L 74635223.00 23967141.00 L 74665356.00 23979622.00 L 75649608.00 23979622.00 L 75679741.00 23967141.00  z"/>
<path id="N" d="M 23643701.00 18332959.00 L 23653062.00 18310360.00 L 23653062.00 17751960.00 L 24014675.00 17751960.00 L 24037274.00 17742599.00 L 24046635.00 17720000.00 L 24037274.00 17697401.00 L 24014675.00 17688040.00 L 23621102.00 17688040.00 L 23598503.00 17697401.00 L 23589142.00 17720000.00 L 23589142.00 18310360.00 L 23598503.00 18332959.00 L 23621102.00 18342320.00 L 23643701.00 18332959.00  z"/>
<path id="N" d="M 41821472.00 23967141.00 L 41833953.00 23937008.00 L 41833953.00 22411417.00 L 41821472.00 22381284.00 L 41791339.00 22368803.00 L 41761206.00 22381284.00 L 41748725.00 22411417.00 L 41748725.00 23894394.00 L 40807087.00 23894394.00 L 40776954.00 23906875.00 L 40764473.00 23937008.00 L 40776954.00 23967141.00 L 40807087.00 23979622.00 L 41791339.00 23979622.00 L 41821472.00 23967141.00  z"/>
<path id="N" d="M 71821473.00 23967141.00 L 71833954.00 23937008.00 L 71821473.00 23906875.00 L 71791340.00 23894394.00 L 70849702.00 23894394.00 L 70849702.00 22411417.00 L 70837221.00 22381284.00 L 70807088.00 22368803.00 L 70776955.00 22381284.00 L 70764474.00 22411417.00 L 70764474.00 23937008.00 L 70776955.00 23967141.00 L 70807088.00 23979622.00 L 71791340.00 23979622.00 L 71821473.00 23967141.00  z"/>
<path id="N" d="M 37963204.00 23967141.00 L 37975685.00 23937008.00 L 37963204.00 23906875.00 L 37933071.00 23894394.00 L 36991433.00 23894394.00 L 36991433.00 22411417.00 L 36978952.00 22381284.00 L 36948819.00 22368803.00 L 36918686.00 22381284.00 L 36906205.00 22411417.00 L 36906205.00 23937008.00 L 36918686.00 23967141.00 L 36948819.00 23979622.00 L 37933071.00 23979622.00 L 37963204.00 23967141.00  z"/>
<path id="N" d="M 44213204.00 16171872.00 L 44225685.00 16141739.00 L 44213204.00 16111606.00 L 44183071.00 16099125.00 L 43218505.00 16099125.00 L 43188372.00 16111606.00 L 43175891.00 16141739.00 L 43188372.00 16171872.00 L 43218505.00 16184353.00 L 44183071.00 16184353.00 L 44213204.00 16171872.00  z"/>
<path id="N" d="M 39931708.00 23967141.00 L 39944189.00 23937008.00 L 39931708.00 23906875.00 L 39901575.00 23894394.00 L 38838583.00 23894394.00 L 38808450.00 23906875.00 L 38795969.00 23937008.00 L 38808450.00 23967141.00 L 38838583.00 23979622.00 L 39901575.00 23979622.00 L 39931708.00 23967141.00  z"/>
<path id="N" d="M 73789977.00 23967141.00 L 73802458.00 23937008.00 L 73789977.00 23906875.00 L 73759844.00 23894394.00 L 72696852.00 23894394.00 L 72666719.00 23906875.00 L 72654238.00 23937008.00 L 72666719.00 23967141.00 L 72696852.00 23979622.00 L 73759844.00 23979622.00 L 73789977.00 23967141.00  z"/>
<path id="N" d="M 42549819.00 18465179.00 L 42562300.00 18435046.00 L 42562300.00 16210636.00 L 42549819.00 16180503.00 L 42519686.00 16168022.00 L 42489553.00 16180503.00 L 42477072.00 16210636.00 L 42477072.00 18435046.00 L 42489553.00 18465179.00 L 42519686.00 18477660.00 L 42549819.00 18465179.00  z"/>
<path id="N" d="M 44912023.00 18465179.00 L 44924504.00 18435046.00 L 44924504.00 16210636.00 L 44912023.00 16180503.00 L 44881890.00 16168022.00 L 44851757.00 16180503.00 L 44839276.00 16210636.00 L 44839276.00 18435046.00 L 44851757.00 18465179.00 L 44881890.00 18477660.00 L 44912023.00 18465179.00  z"/>
<path id="N" d="M 44213204.00 18534076.00 L 44225685.00 18503943.00 L 44213204.00 18473810.00 L 44183071.00 18461329.00 L 43218505.00 18461329.00 L 43188372.00 18473810.00 L 43175891.00 18503943.00 L 43188372.00 18534076.00 L 43218505.00 18546557.00 L 44183071.00 18546557.00 L 44213204.00 18534076.00  z"/>
</g>
</svg>
