<svg width="179.00000776mm" height="38.00002814mm" viewBox="0 0 70472444 14960641"  version="1.1" xmlns="http://www.w3.org/2000/svg" xmlns:xlink="http://www.w3.org/1999/xlink">
<desc>
Origin 43700788 9842526 Bound 8464567 9842515 70472444 14960641
</desc>
<g fill-rule="evenodd" fill="rgb(128, 0, 128)" stroke="black" stroke-width="1" transform="translate(0, 14960641) scale(1, -1) translate(-8464567, -9842515)">
<path id="N" d="M 77667503.00 24803150.00 A 1382227.88 1382227.88 0 0 0 77667503.00 22047244.00 L 77559056.00 22047243.00 L 77481808.00 22044714.00 A 1181135.09 1181135.09 0 0 1 76377955.00 20866142.00 L 76377955.00 13779528.00 L 76380483.00 13702280.00 A 1181135.09 1181135.09 0 0 1 77559056.00 12598425.00 L 77667503.00 12598425.00 A 1382205.90 1382205.90 0 0 0 77667503.00 9842515.00 L 9734072.00 9842520.00 A 1382187.39 1382187.39 0 0 0 9734072.00 12598426.00 L 9842520.00 12598427.00 L 9919767.00 12600955.00 A 1181135.09 1181135.09 0 0 1 11023621.00 13779528.00 L 11023621.00 20866142.00 L 11021092.00 20943389.00 A 1181135.09 1181135.09 0 0 1 9842520.00 22047244.00 L 9734072.00 22047244.00 A 1382187.39 1382187.39 0 0 0 9734072.00 24803150.00 L 77667503.00 24803150.00  zM 9842516.95 11220493.27 m -1184733.73 0 a 1184733.73 1184733.73 0 1 1 2369467.46 0a 1184733.73 1184733.73 0 1 1 -2369467.46 0M 17322836.56 17322830.94 m -299819.06 0 a 299819.06 299819.06 0 1 1 599638.11 0a 299819.06 299819.06 0 1 1 -599638.11 0M 9842516.95 23425217.27 m -1184733.73 0 a 1184733.73 1184733.73 0 1 1 2369467.46 0a 1184733.73 1184733.73 0 1 1 -2369467.46 0M 12007870.50 22637805.68 m -240838.32 0 a 240838.32 240838.32 0 1 1 481676.63 0a 240838.32 240838.32 0 1 1 -481676.63 0M 17322836.56 16322830.94 m -299819.06 0 a 299819.06 299819.06 0 1 1 599638.11 0a 299819.06 299819.06 0 1 1 -599638.11 0M 17620078.00 18620085.00 L 17025590.00 18620085.00 L 17025590.00 18025597.00 L 17620078.00 18025597.00 L 17620078.00 18620085.00  zM 29362201.05 13842534.19 m -496358.81 0 a 496358.81 496358.81 0 1 1 992717.61 0a 496358.81 496358.81 0 1 1 -992717.61 0M 29362201.05 22188990.19 m -496358.81 0 a 496358.81 496358.81 0 1 1 992717.61 0a 496358.81 496358.81 0 1 1 -992717.61 0M 32078739.99 15015749.89 m -347855.11 0 a 347855.11 347855.11 0 1 1 695710.23 0a 347855.11 347855.11 0 1 1 -695710.23 0M 32078739.99 16015749.89 m -347855.11 0 a 347855.11 347855.11 0 1 1 695710.23 0a 347855.11 347855.11 0 1 1 -695710.23 0M 32078739.99 17015749.89 m -347855.11 0 a 347855.11 347855.11 0 1 1 695710.23 0a 347855.11 347855.11 0 1 1 -695710.23 0M 32078739.99 18015749.89 m -347855.11 0 a 347855.11 347855.11 0 1 1 695710.23 0a 347855.11 347855.11 0 1 1 -695710.23 0M 32078739.99 19015749.89 m -347855.11 0 a 347855.11 347855.11 0 1 1 695710.23 0a 347855.11 347855.11 0 1 1 -695710.23 0M 32078739.99 20015749.89 m -347855.11 0 a 347855.11 347855.11 0 1 1 695710.23 0a 347855.11 347855.11 0 1 1 -695710.23 0M 32078739.99 21015749.89 m -347855.11 0 a 347855.11 347855.11 0 1 1 695710.23 0a 347855.11 347855.11 0 1 1 -695710.23 0M 33661420.78 16322821.49 m -335561.51 0 a 335561.51 335561.51 0 1 1 671123.02 0a 335561.51 335561.51 0 1 1 -671123.02 0M 38015074.31 14347146.39 m -398387.61 0 a 398387.61 398387.61 0 1 1 796775.21 0a 398387.61 398387.61 0 1 1 -796775.21 0M 38015074.31 11637146.39 m -398387.61 0 a 398387.61 398387.61 0 1 1 796775.21 0a 398387.61 398387.61 0 1 1 -796775.21 0M 39370080.18 12992124.14 m -297547.86 0 a 297547.86 297547.86 0 1 1 595095.72 0a 297547.86 297547.86 0 1 1 -595095.72 0M 33661420.78 17322821.49 m -335561.51 0 a 335561.51 335561.51 0 1 1 671123.02 0a 335561.51 335561.51 0 1 1 -671123.02 0M 35661420.78 17322821.49 m -335561.51 0 a 335561.51 335561.51 0 1 1 671123.02 0a 335561.51 335561.51 0 1 1 -671123.02 0M 35661420.78 16322821.49 m -335561.51 0 a 335561.51 335561.51 0 1 1 671123.02 0a 335561.51 335561.51 0 1 1 -671123.02 0M 33661420.78 18322821.49 m -335561.51 0 a 335561.51 335561.51 0 1 1 671123.02 0a 335561.51 335561.51 0 1 1 -671123.02 0M 35661420.78 18322821.49 m -335561.51 0 a 335561.51 335561.51 0 1 1 671123.02 0a 335561.51 335561.51 0 1 1 -671123.02 0M 38690945.00 18809055.00 L 38080709.00 18809055.00 L 38080709.00 18198819.00 L 38690945.00 18198819.00 L 38690945.00 18809055.00  zM 36728887.00 21870078.00 L 36728887.00 21043308.00 A 397100.93 397100.93 0 0 1 37523083.00 21043308.00 L 37523083.00 21870078.00 A 397100.93 397100.93 0 0 1 36728887.00 21870078.00  zM 39370075.21 18503954.21 m -307733.79 0 a 307733.79 307733.79 0 1 1 615467.57 0a 307733.79 307733.79 0 1 1 -615467.57 0M 38385823.21 24212616.21 m -307733.79 0 a 307733.79 307733.79 0 1 1 615467.57 0a 307733.79 307733.79 0 1 1 -615467.57 0M 40354327.21 24212616.21 m -307733.79 0 a 307733.79 307733.79 0 1 1 615467.57 0a 307733.79 307733.79 0 1 1 -615467.57 0M 40725074.31 11637146.39 m -398387.61 0 a 398387.61 398387.61 0 1 1 796775.21 0a 398387.61 398387.61 0 1 1 -796775.21 0M 42814959.42 13188993.09 m -306151.91 0 a 306151.91 306151.91 0 1 1 612303.83 0a 306151.91 306151.91 0 1 1 -612303.83 0M 43700783.95 11220493.27 m -1184733.73 0 a 1184733.73 1184733.73 0 1 1 2369467.46 0a 1184733.73 1184733.73 0 1 1 -2369467.46 0M 43814959.42 13188993.09 m -306151.91 0 a 306151.91 306151.91 0 1 1 612303.83 0a 306151.91 306151.91 0 1 1 -612303.83 0M 40725074.31 14347146.39 m -398387.61 0 a 398387.61 398387.61 0 1 1 796775.21 0a 398387.61 398387.61 0 1 1 -796775.21 0M 43603406.00 15140189.00 L 43225960.00 15140189.00 L 43225960.00 14781083.00 L 43603406.00 14781083.00 L 43603406.00 15140189.00  zM 43070866.00 16062998.00 L 42559056.00 16062998.00 L 42559056.00 15452762.00 L 43070866.00 15452762.00 L 43070866.00 16062998.00  zM 40354327.21 18503954.21 m -307733.79 0 a 307733.79 307733.79 0 1 1 615467.57 0a 307733.79 307733.79 0 1 1 -615467.57 0M 44814959.42 13188993.09 m -306151.91 0 a 306151.91 306151.91 0 1 1 612303.83 0a 306151.91 306151.91 0 1 1 -612303.83 0M 45814959.42 13188993.09 m -306151.91 0 a 306151.91 306151.91 0 1 1 612303.83 0a 306151.91 306151.91 0 1 1 -612303.83 0M 44175616.00 15140189.00 L 43798170.00 15140189.00 L 43798170.00 14781083.00 L 44175616.00 14781083.00 L 44175616.00 15140189.00  zM 44842520.00 16062998.00 L 44330710.00 16062998.00 L 44330710.00 15452762.00 L 44842520.00 15452762.00 L 44842520.00 16062998.00  zM 46814959.42 13188993.09 m -306151.91 0 a 306151.91 306151.91 0 1 1 612303.83 0a 306151.91 306151.91 0 1 1 -612303.83 0M 47814959.42 13188993.09 m -306151.91 0 a 306151.91 306151.91 0 1 1 612303.83 0a 306151.91 306151.91 0 1 1 -612303.83 0M 48814959.42 13188993.09 m -306151.91 0 a 306151.91 306151.91 0 1 1 612303.83 0a 306151.91 306151.91 0 1 1 -612303.83 0M 43070866.00 19192920.00 L 42559056.00 19192920.00 L 42559056.00 18582684.00 L 43070866.00 18582684.00 L 43070866.00 19192920.00  zM 43118505.00 20492526.00 L 42511419.00 20492526.00 L 42511419.00 19885440.00 L 43118505.00 19885440.00 L 43118505.00 20492526.00  zM 44842520.00 19192920.00 L 44330710.00 19192920.00 L 44330710.00 18582684.00 L 44842520.00 18582684.00 L 44842520.00 19192920.00  zM 44814959.42 20188993.09 m -306151.91 0 a 306151.91 306151.91 0 1 1 612303.83 0a 306151.91 306151.91 0 1 1 -612303.83 0M 41217075.00 21870078.00 L 41217075.00 21043308.00 A 397100.93 397100.93 0 0 1 42011271.00 21043308.00 L 42011271.00 21870078.00 A 397100.93 397100.93 0 0 1 41217075.00 21870078.00  zM 43814959.42 20188993.09 m -306151.91 0 a 306151.91 306151.91 0 1 1 612303.83 0a 306151.91 306151.91 0 1 1 -612303.83 0M 43700784.95 23425217.27 m -1184733.73 0 a 1184733.73 1184733.73 0 1 1 2369467.46 0a 1184733.73 1184733.73 0 1 1 -2369467.46 0M 45814959.42 20188993.09 m -306151.91 0 a 306151.91 306151.91 0 1 1 612303.83 0a 306151.91 306151.91 0 1 1 -612303.83 0M 46814959.42 20188993.09 m -306151.91 0 a 306151.91 306151.91 0 1 1 612303.83 0a 306151.91 306151.91 0 1 1 -612303.83 0M 48014199.00 19264205.00 L 47655093.00 19264205.00 L 47655093.00 18886985.00 L 48014199.00 18886985.00 L 48014199.00 19264205.00  zM 47814959.42 20188993.09 m -306151.91 0 a 306151.91 306151.91 0 1 1 612303.83 0a 306151.91 306151.91 0 1 1 -612303.83 0M 48014199.00 18711453.00 L 47655093.00 18711453.00 L 47655093.00 18334233.00 L 48014199.00 18334233.00 L 48014199.00 18711453.00  zM 48998451.00 19264205.00 L 48639345.00 19264205.00 L 48639345.00 18886985.00 L 48998451.00 18886985.00 L 48998451.00 19264205.00  zM 48814959.42 20188993.09 m -306151.91 0 a 306151.91 306151.91 0 1 1 612303.83 0a 306151.91 306151.91 0 1 1 -612303.83 0M 49814959.42 13188993.09 m -306151.91 0 a 306151.91 306151.91 0 1 1 612303.83 0a 306151.91 306151.91 0 1 1 -612303.83 0M 50814959.42 13188993.09 m -306151.91 0 a 306151.91 306151.91 0 1 1 612303.83 0a 306151.91 306151.91 0 1 1 -612303.83 0M 51814959.42 13188993.09 m -306151.91 0 a 306151.91 306151.91 0 1 1 612303.83 0a 306151.91 306151.91 0 1 1 -612303.83 0M 48998451.00 18711453.00 L 48639345.00 18711453.00 L 48639345.00 18334233.00 L 48998451.00 18334233.00 L 48998451.00 18711453.00  zM 52814959.42 13188993.09 m -306151.91 0 a 306151.91 306151.91 0 1 1 612303.83 0a 306151.91 306151.91 0 1 1 -612303.83 0M 53814959.42 13188993.09 m -306151.91 0 a 306151.91 306151.91 0 1 1 612303.83 0a 306151.91 306151.91 0 1 1 -612303.83 0M 54814959.42 13188993.09 m -306151.91 0 a 306151.91 306151.91 0 1 1 612303.83 0a 306151.91 306151.91 0 1 1 -612303.83 0M 55814959.42 13188993.09 m -306151.91 0 a 306151.91 306151.91 0 1 1 612303.83 0a 306151.91 306151.91 0 1 1 -612303.83 0M 49814959.42 20188993.09 m -306151.91 0 a 306151.91 306151.91 0 1 1 612303.83 0a 306151.91 306151.91 0 1 1 -612303.83 0M 50814959.42 20188993.09 m -306151.91 0 a 306151.91 306151.91 0 1 1 612303.83 0a 306151.91 306151.91 0 1 1 -612303.83 0M 51814959.42 20188993.09 m -306151.91 0 a 306151.91 306151.91 0 1 1 612303.83 0a 306151.91 306151.91 0 1 1 -612303.83 0M 52814959.42 20188993.09 m -306151.91 0 a 306151.91 306151.91 0 1 1 612303.83 0a 306151.91 306151.91 0 1 1 -612303.83 0M 53814959.42 20188993.09 m -306151.91 0 a 306151.91 306151.91 0 1 1 612303.83 0a 306151.91 306151.91 0 1 1 -612303.83 0M 54814959.42 20188993.09 m -306151.91 0 a 306151.91 306151.91 0 1 1 612303.83 0a 306151.91 306151.91 0 1 1 -612303.83 0M 55814959.42 20188993.09 m -306151.91 0 a 306151.91 306151.91 0 1 1 612303.83 0a 306151.91 306151.91 0 1 1 -612303.83 0M 56814959.42 13188993.09 m -306151.91 0 a 306151.91 306151.91 0 1 1 612303.83 0a 306151.91 306151.91 0 1 1 -612303.83 0M 57814959.42 13188993.09 m -306151.91 0 a 306151.91 306151.91 0 1 1 612303.83 0a 306151.91 306151.91 0 1 1 -612303.83 0M 58814959.42 13188993.09 m -306151.91 0 a 306151.91 306151.91 0 1 1 612303.83 0a 306151.91 306151.91 0 1 1 -612303.83 0M 59814959.42 13188993.09 m -306151.91 0 a 306151.91 306151.91 0 1 1 612303.83 0a 306151.91 306151.91 0 1 1 -612303.83 0M 60814959.42 13188993.09 m -306151.91 0 a 306151.91 306151.91 0 1 1 612303.83 0a 306151.91 306151.91 0 1 1 -612303.83 0M 62118505.00 13492526.00 L 61511419.00 13492526.00 L 61511419.00 12885440.00 L 62118505.00 12885440.00 L 62118505.00 13492526.00  zM 63220469.05 13842534.19 m -496358.81 0 a 496358.81 496358.81 0 1 1 992717.61 0a 496358.81 496358.81 0 1 1 -992717.61 0M 56814959.42 20188993.09 m -306151.91 0 a 306151.91 306151.91 0 1 1 612303.83 0a 306151.91 306151.91 0 1 1 -612303.83 0M 57814959.42 20188993.09 m -306151.91 0 a 306151.91 306151.91 0 1 1 612303.83 0a 306151.91 306151.91 0 1 1 -612303.83 0M 58814959.42 20188993.09 m -306151.91 0 a 306151.91 306151.91 0 1 1 612303.83 0a 306151.91 306151.91 0 1 1 -612303.83 0M 59814959.42 20188993.09 m -306151.91 0 a 306151.91 306151.91 0 1 1 612303.83 0a 306151.91 306151.91 0 1 1 -612303.83 0M 60814959.42 20188993.09 m -306151.91 0 a 306151.91 306151.91 0 1 1 612303.83 0a 306151.91 306151.91 0 1 1 -612303.83 0M 61814959.42 20188993.09 m -306151.91 0 a 306151.91 306151.91 0 1 1 612303.83 0a 306151.91 306151.91 0 1 1 -612303.83 0M 63220469.05 22188990.19 m -496358.81 0 a 496358.81 496358.81 0 1 1 992717.61 0a 496358.81 496358.81 0 1 1 -992717.61 0M 65937007.99 15015749.89 m -347855.11 0 a 347855.11 347855.11 0 1 1 695710.23 0a 347855.11 347855.11 0 1 1 -695710.23 0M 65937007.99 16015749.89 m -347855.11 0 a 347855.11 347855.11 0 1 1 695710.23 0a 347855.11 347855.11 0 1 1 -695710.23 0M 65937007.99 17015749.89 m -347855.11 0 a 347855.11 347855.11 0 1 1 695710.23 0a 347855.11 347855.11 0 1 1 -695710.23 0M 67519689.78 17322821.49 m -335561.51 0 a 335561.51 335561.51 0 1 1 671123.02 0a 335561.51 335561.51 0 1 1 -671123.02 0M 67519689.78 16322821.49 m -335561.51 0 a 335561.51 335561.51 0 1 1 671123.02 0a 335561.51 335561.51 0 1 1 -671123.02 0M 69519689.78 16322821.49 m -335561.51 0 a 335561.51 335561.51 0 1 1 671123.02 0a 335561.51 335561.51 0 1 1 -671123.02 0M 69519689.78 17322821.49 m -335561.51 0 a 335561.51 335561.51 0 1 1 671123.02 0a 335561.51 335561.51 0 1 1 -671123.02 0M 71873343.31 11637146.39 m -398387.61 0 a 398387.61 398387.61 0 1 1 796775.21 0a 398387.61 398387.61 0 1 1 -796775.21 0M 71873343.31 14347146.39 m -398387.61 0 a 398387.61 398387.61 0 1 1 796775.21 0a 398387.61 398387.61 0 1 1 -796775.21 0M 73228349.18 12992124.14 m -297547.86 0 a 297547.86 297547.86 0 1 1 595095.72 0a 297547.86 297547.86 0 1 1 -595095.72 0M 74583343.31 11637146.39 m -398387.61 0 a 398387.61 398387.61 0 1 1 796775.21 0a 398387.61 398387.61 0 1 1 -796775.21 0M 75393697.50 10629931.68 m -240838.32 0 a 240838.32 240838.32 0 1 1 481676.63 0a 240838.32 240838.32 0 1 1 -481676.63 0M 77559052.95 11220493.27 m -1184733.73 0 a 1184733.73 1184733.73 0 1 1 2369467.46 0a 1184733.73 1184733.73 0 1 1 -2369467.46 0M 74583343.31 14347146.39 m -398387.61 0 a 398387.61 398387.61 0 1 1 796775.21 0a 398387.61 398387.61 0 1 1 -796775.21 0M 65937007.99 18015749.89 m -347855.11 0 a 347855.11 347855.11 0 1 1 695710.23 0a 347855.11 347855.11 0 1 1 -695710.23 0M 65937007.99 19015749.89 m -347855.11 0 a 347855.11 347855.11 0 1 1 695710.23 0a 347855.11 347855.11 0 1 1 -695710.23 0M 65937007.99 20015749.89 m -347855.11 0 a 347855.11 347855.11 0 1 1 695710.23 0a 347855.11 347855.11 0 1 1 -695710.23 0M 65937007.99 21015749.89 m -347855.11 0 a 347855.11 347855.11 0 1 1 695710.23 0a 347855.11 347855.11 0 1 1 -695710.23 0M 67519689.78 18322821.49 m -335561.51 0 a 335561.51 335561.51 0 1 1 671123.02 0a 335561.51 335561.51 0 1 1 -671123.02 0M 69519689.78 18322821.49 m -335561.51 0 a 335561.51 335561.51 0 1 1 671123.02 0a 335561.51 335561.51 0 1 1 -671123.02 0M 70587156.00 21870078.00 L 70587156.00 21043308.00 A 397100.93 397100.93 0 0 1 71381352.00 21043308.00 L 71381352.00 21870078.00 A 397100.93 397100.93 0 0 1 70587156.00 21870078.00  zM 72549214.00 18809055.00 L 71938978.00 18809055.00 L 71938978.00 18198819.00 L 72549214.00 18198819.00 L 72549214.00 18809055.00  zM 73228345.17 18503946.88 m -307741.12 0 a 307741.12 307741.12 0 1 1 615482.25 0a 307741.12 307741.12 0 1 1 -615482.25 0M 74212597.17 18503946.88 m -307741.12 0 a 307741.12 307741.12 0 1 1 615482.25 0a 307741.12 307741.12 0 1 1 -615482.25 0M 72244093.17 24212608.88 m -307741.12 0 a 307741.12 307741.12 0 1 1 615482.25 0a 307741.12 307741.12 0 1 1 -615482.25 0M 75075344.00 21870078.00 L 75075344.00 21043308.00 A 397100.93 397100.93 0 0 1 75869540.00 21043308.00 L 75869540.00 21870078.00 A 397100.93 397100.93 0 0 1 75075344.00 21870078.00  zM 74212597.17 24212608.88 m -307741.12 0 a 307741.12 307741.12 0 1 1 615482.25 0a 307741.12 307741.12 0 1 1 -615482.25 0M 77559052.95 23425217.27 m -1184733.73 0 a 1184733.73 1184733.73 0 1 1 2369467.46 0a 1184733.73 1184733.73 0 1 1 -2369467.46 0"/>
</g>
</svg>
