<svg width="179.00000776mm" height="38.00002814mm" viewBox="0 0 70472444 14960641"  version="1.1" xmlns="http://www.w3.org/2000/svg" xmlns:xlink="http://www.w3.org/1999/xlink">
<desc>
Origin 43700788 9842526 Bound 8464567 9842515 70472444 14960641
</desc>
<g fill-rule="evenodd" fill="rgb(0, 0, 255)" stroke="black" stroke-width="1" transform="translate(0, 14960641) scale(1, -1) translate(-8464567, -9842515)">
<path id="N" d="M 74212596.32 18503931.16 m -307757.99 0 a 307757.99 307757.99 0 1 1 615515.98 0a 307757.99 307757.99 0 1 1 -615515.98 0M 74212600.36 18503937.47 m -200706.53 0 a 200706.53 200706.53 0 1 1 401413.05 0a 200706.53 200706.53 0 1 1 -401413.05 0"/>
<path id="N" d="M 74321683.00 19111792.00 L 73944463.00 19111792.00 L 73944463.00 19470898.00 L 74321683.00 19470898.00 L 74321683.00 19111792.00  z"/>
<path id="N" d="M 74283884.00 19800768.00 L 73906664.00 19800768.00 L 73906664.00 20159874.00 L 74283884.00 20159874.00 L 74283884.00 19800768.00  z"/>
<path id="N" d="M 37523083.00 21870078.00 L 37523083.00 21043308.00 A 397100.93 397100.93 0 0 0 36728887.00 21043308.00 L 36728887.00 21870078.00 A 397100.93 397100.93 0 0 0 37523083.00 21870078.00  zM 36848017.00 21870079.00 L 36848017.00 21043307.00 A 277979.46 277979.46 0 0 1 37403953.00 21043307.00 L 37403953.00 21870079.00 A 277979.46 277979.46 0 0 1 36848017.00 21870079.00  z"/>
<path id="N" d="M 71381352.00 21870078.00 L 71381352.00 21043308.00 A 397100.93 397100.93 0 0 0 70587156.00 21043308.00 L 70587156.00 21870078.00 A 397100.93 397100.93 0 0 0 71381352.00 21870078.00  zM 70706286.00 21870079.00 L 70706286.00 21043307.00 A 277979.46 277979.46 0 1 1 71262222.00 21043307.00 L 71262222.00 21870079.00 A 277979.46 277979.46 0 1 1 70706286.00 21870079.00  z"/>
<path id="N" d="M 75869540.00 21870078.00 L 75869540.00 21043308.00 A 397100.93 397100.93 0 0 0 75075344.00 21043308.00 L 75075344.00 21870078.00 A 397100.93 397100.93 0 0 0 75869540.00 21870078.00  zM 75194474.00 21870079.00 L 75194474.00 21043307.00 A 277979.46 277979.46 0 0 1 75750410.00 21043307.00 L 75750410.00 21870079.00 A 277979.46 277979.46 0 1 1 75194474.00 21870079.00  z"/>
<path id="N" d="M 42011271.00 21870078.00 L 42011271.00 21043308.00 A 397100.93 397100.93 0 0 0 41217075.00 21043308.00 L 41217075.00 21870078.00 A 397100.93 397100.93 0 0 0 42011271.00 21870078.00  zM 41336205.00 21870079.00 L 41336205.00 21043307.00 A 277979.46 277979.46 0 0 1 41892141.00 21043307.00 L 41892141.00 21870079.00 A 277979.46 277979.46 0 0 1 41336205.00 21870079.00  z"/>
<path id="N" d="M 74583337.61 11637110.00 m -398426.66 0 a 398426.66 398426.66 0 1 1 796853.32 0a 398426.66 398426.66 0 1 1 -796853.32 0M 74583349.18 11637124.14 m -297547.86 0 a 297547.86 297547.86 0 1 1 595095.72 0a 297547.86 297547.86 0 1 1 -595095.72 0"/>
<path id="N" d="M 71873337.61 11637110.00 m -398426.66 0 a 398426.66 398426.66 0 1 1 796853.32 0a 398426.66 398426.66 0 1 1 -796853.32 0M 71873349.18 11637124.14 m -297547.86 0 a 297547.86 297547.86 0 1 1 595095.72 0a 297547.86 297547.86 0 1 1 -595095.72 0"/>
<path id="N" d="M 40725068.61 11637110.00 m -398426.66 0 a 398426.66 398426.66 0 1 1 796853.32 0a 398426.66 398426.66 0 1 1 -796853.32 0M 40725080.18 11637124.14 m -297547.86 0 a 297547.86 297547.86 0 1 1 595095.72 0a 297547.86 297547.86 0 1 1 -595095.72 0"/>
<path id="N" d="M 38015068.61 11637110.00 m -398426.66 0 a 398426.66 398426.66 0 1 1 796853.32 0a 398426.66 398426.66 0 1 1 -796853.32 0M 38015080.18 11637124.14 m -297547.86 0 a 297547.86 297547.86 0 1 1 595095.72 0a 297547.86 297547.86 0 1 1 -595095.72 0"/>
<path id="N" d="M 40725068.61 14347110.00 m -398426.66 0 a 398426.66 398426.66 0 1 1 796853.32 0a 398426.66 398426.66 0 1 1 -796853.32 0M 40725080.18 14347124.14 m -297547.86 0 a 297547.86 297547.86 0 1 1 595095.72 0a 297547.86 297547.86 0 1 1 -595095.72 0"/>
<path id="N" d="M 38015068.61 14347110.00 m -398426.66 0 a 398426.66 398426.66 0 1 1 796853.32 0a 398426.66 398426.66 0 1 1 -796853.32 0M 38015080.18 14347124.14 m -297547.86 0 a 297547.86 297547.86 0 1 1 595095.72 0a 297547.86 297547.86 0 1 1 -595095.72 0"/>
<path id="N" d="M 74583337.61 14347110.00 m -398426.66 0 a 398426.66 398426.66 0 1 1 796853.32 0a 398426.66 398426.66 0 1 1 -796853.32 0M 74583349.18 14347124.14 m -297547.86 0 a 297547.86 297547.86 0 1 1 595095.72 0a 297547.86 297547.86 0 1 1 -595095.72 0"/>
<path id="N" d="M 71873337.61 14347110.00 m -398426.66 0 a 398426.66 398426.66 0 1 1 796853.32 0a 398426.66 398426.66 0 1 1 -796853.32 0M 71873349.18 14347124.14 m -297547.86 0 a 297547.86 297547.86 0 1 1 595095.72 0a 297547.86 297547.86 0 1 1 -595095.72 0"/>
<path id="N" d="M 73228344.32 18503931.16 m -307757.99 0 a 307757.99 307757.99 0 1 1 615515.98 0a 307757.99 307757.99 0 1 1 -615515.98 0M 73228348.36 18503937.47 m -200706.53 0 a 200706.53 200706.53 0 1 1 401413.05 0a 200706.53 200706.53 0 1 1 -401413.05 0"/>
<path id="N" d="M 72244092.32 24212593.16 m -307757.99 0 a 307757.99 307757.99 0 1 1 615515.98 0a 307757.99 307757.99 0 1 1 -615515.98 0M 72244096.36 24212599.47 m -200706.53 0 a 200706.53 200706.53 0 1 1 401413.05 0a 200706.53 200706.53 0 1 1 -401413.05 0"/>
<path id="N" d="M 38385815.98 24212580.45 m -307772.16 0 a 307772.16 307772.16 0 1 1 615544.33 0a 307772.16 307772.16 0 1 1 -615544.33 0M 38385827.36 24212599.47 m -200706.53 0 a 200706.53 200706.53 0 1 1 401413.05 0a 200706.53 200706.53 0 1 1 -401413.05 0"/>
<path id="N" d="M 39370067.98 18503918.45 m -307772.16 0 a 307772.16 307772.16 0 1 1 615544.33 0a 307772.16 307772.16 0 1 1 -615544.33 0M 39370079.36 18503937.47 m -200706.53 0 a 200706.53 200706.53 0 1 1 401413.05 0a 200706.53 200706.53 0 1 1 -401413.05 0"/>
<path id="N" d="M 33661422.63 18322844.20 m -335537.14 0 a 335537.14 335537.14 0 1 1 671074.28 0a 335537.14 335537.14 0 1 1 -671074.28 0M 33661416.45 18322838.53 m -218767.47 0 a 218767.47 218767.47 0 1 1 437534.95 0a 218767.47 218767.47 0 1 1 -437534.95 0"/>
<path id="N" d="M 67519691.63 18322844.20 m -335537.14 0 a 335537.14 335537.14 0 1 1 671074.28 0a 335537.14 335537.14 0 1 1 -671074.28 0M 67519685.45 18322838.53 m -218767.47 0 a 218767.47 218767.47 0 1 1 437534.95 0a 218767.47 218767.47 0 1 1 -437534.95 0"/>
<path id="N" d="M 32078742.99 21015753.10 m -317671.90 0 a 317671.90 317671.90 0 1 1 635343.80 0a 317671.90 317671.90 0 1 1 -635343.80 0M 32078740.36 21015748.47 m -200706.53 0 a 200706.53 200706.53 0 1 1 401413.05 0a 200706.53 200706.53 0 1 1 -401413.05 0"/>
<path id="N" d="M 65937010.99 21015753.10 m -317671.90 0 a 317671.90 317671.90 0 1 1 635343.80 0a 317671.90 317671.90 0 1 1 -635343.80 0M 65937008.36 21015748.47 m -200706.53 0 a 200706.53 200706.53 0 1 1 401413.05 0a 200706.53 200706.53 0 1 1 -401413.05 0"/>
<path id="N" d="M 49814965.74 20188991.88 m -275973.44 0 a 275973.44 275973.44 0 1 1 551946.87 0a 275973.44 275973.44 0 1 1 -551946.87 0M 49814962.92 20188980.47 m -208737.53 0 a 208737.53 208737.53 0 1 1 417475.06 0a 208737.53 208737.53 0 1 1 -417475.06 0"/>
<path id="N" d="M 44814965.74 13188991.88 m -275973.44 0 a 275973.44 275973.44 0 1 1 551946.87 0a 275973.44 275973.44 0 1 1 -551946.87 0M 44814962.92 13188980.47 m -208737.53 0 a 208737.53 208737.53 0 1 1 417475.06 0a 208737.53 208737.53 0 1 1 -417475.06 0"/>
<path id="N" d="M 44814965.74 20188991.88 m -275973.44 0 a 275973.44 275973.44 0 1 1 551946.87 0a 275973.44 275973.44 0 1 1 -551946.87 0M 44814962.92 20188980.47 m -208737.53 0 a 208737.53 208737.53 0 1 1 417475.06 0a 208737.53 208737.53 0 1 1 -417475.06 0"/>
<path id="N" d="M 17322827.39 17322831.83 m -269640.87 0 a 269640.87 269640.87 0 1 1 539281.75 0a 269640.87 269640.87 0 1 1 -539281.75 0M 17322833.05 17322843.89 m -170598.11 0 a 170598.11 170598.11 0 1 1 341196.22 0a 170598.11 170598.11 0 1 1 -341196.22 0"/>
<path id="N" d="M 49814965.74 13188991.88 m -275973.44 0 a 275973.44 275973.44 0 1 1 551946.87 0a 275973.44 275973.44 0 1 1 -551946.87 0M 49814962.92 13188980.47 m -208737.53 0 a 208737.53 208737.53 0 1 1 417475.06 0a 208737.53 208737.53 0 1 1 -417475.06 0"/>
<path id="N" d="M 59814965.74 20188991.88 m -275973.44 0 a 275973.44 275973.44 0 1 1 551946.87 0a 275973.44 275973.44 0 1 1 -551946.87 0M 59814962.92 20188980.47 m -208737.53 0 a 208737.53 208737.53 0 1 1 417475.06 0a 208737.53 208737.53 0 1 1 -417475.06 0"/>
<path id="N" d="M 54814965.74 20188991.88 m -275973.44 0 a 275973.44 275973.44 0 1 1 551946.87 0a 275973.44 275973.44 0 1 1 -551946.87 0M 54814962.92 20188980.47 m -208737.53 0 a 208737.53 208737.53 0 1 1 417475.06 0a 208737.53 208737.53 0 1 1 -417475.06 0"/>
<path id="N" d="M 59814965.74 13188991.88 m -275973.44 0 a 275973.44 275973.44 0 1 1 551946.87 0a 275973.44 275973.44 0 1 1 -551946.87 0M 59814962.92 13188980.47 m -208737.53 0 a 208737.53 208737.53 0 1 1 417475.06 0a 208737.53 208737.53 0 1 1 -417475.06 0"/>
<path id="N" d="M 54814965.74 13188991.88 m -275973.44 0 a 275973.44 275973.44 0 1 1 551946.87 0a 275973.44 275973.44 0 1 1 -551946.87 0M 54814962.92 13188980.47 m -208737.53 0 a 208737.53 208737.53 0 1 1 417475.06 0a 208737.53 208737.53 0 1 1 -417475.06 0"/>
<path id="N" d="M 19730737.00 15928483.00 L 19363373.00 15928483.00 A 114828.16 114828.16 0 1 0 19363373.00 16158143.00 L 19730737.00 16158143.00 A 114832.50 114832.50 0 1 0 19730737.00 15928483.00  z"/>
<path id="N" d="M 69837948.00 13085984.00 L 69844126.00 13071068.00 L 69844126.00 12932880.00 L 69837948.00 12917964.00 L 69823032.00 12911786.00 L 69330512.00 12911786.00 L 69315596.00 12917964.00 L 69309418.00 12932880.00 L 69309418.00 13071068.00 L 69315596.00 13085984.00 L 69330512.00 13092162.00 L 69823032.00 13092162.00 L 69837948.00 13085984.00  z"/>
<path id="N" d="M 35979680.00 13085984.00 L 35985858.00 13071068.00 L 35985858.00 12932880.00 L 35979680.00 12917964.00 L 35964764.00 12911786.00 L 35472244.00 12911786.00 L 35457328.00 12917964.00 L 35451150.00 12932880.00 L 35451150.00 13071068.00 L 35457328.00 13085984.00 L 35472244.00 13092162.00 L 35964764.00 13092162.00 L 35979680.00 13085984.00  z"/>
<path id="N" d="M 37384278.00 14851552.00 L 37025172.00 14851552.00 L 37025172.00 15228772.00 L 37384278.00 15228772.00 L 37384278.00 14851552.00  z"/>
<path id="N" d="M 23801602.00 21582264.00 L 23442496.00 21582264.00 L 23442496.00 21959484.00 L 23801602.00 21959484.00 L 23801602.00 21582264.00  z"/>
<path id="N" d="M 38466955.00 13001389.00 L 38107849.00 13001389.00 L 38107849.00 13378609.00 L 38466955.00 13378609.00 L 38466955.00 13001389.00  z"/>
<path id="N" d="M 57659869.00 21582264.00 L 57300763.00 21582264.00 L 57300763.00 21959484.00 L 57659869.00 21959484.00 L 57659869.00 21582264.00  z"/>
<path id="N" d="M 72423648.00 13079898.00 L 72064542.00 13079898.00 L 72064542.00 13457118.00 L 72423648.00 13457118.00 L 72423648.00 13079898.00  z"/>
<path id="N" d="M 71242546.00 14851552.00 L 70883440.00 14851552.00 L 70883440.00 15228772.00 L 71242546.00 15228772.00 L 71242546.00 14851552.00  z"/>
<path id="N" d="M 18781915.00 16140696.00 L 18422809.00 16140696.00 L 18422809.00 16518142.00 L 18781915.00 16518142.00 L 18781915.00 16140696.00  z"/>
<path id="N" d="M 20159868.00 17340139.00 L 19800762.00 17340139.00 L 19800762.00 17717585.00 L 20159868.00 17717585.00 L 20159868.00 17340139.00  z"/>
<path id="N" d="M 70861384.00 12223196.00 L 70674050.00 12223196.00 L 70674050.00 12756752.00 L 70861384.00 12756752.00 L 70861384.00 12223196.00  z"/>
<path id="N" d="M 69175616.00 14288957.00 L 68798170.00 14288957.00 L 68798170.00 14648063.00 L 69175616.00 14648063.00 L 69175616.00 14288957.00  z"/>
<path id="N" d="M 21340970.00 16140696.00 L 20981864.00 16140696.00 L 20981864.00 16518142.00 L 21340970.00 16518142.00 L 21340970.00 16140696.00  z"/>
<path id="N" d="M 32579784.00 11139351.00 L 32202338.00 11139351.00 L 32202338.00 11498457.00 L 32579784.00 11498457.00 L 32579784.00 11139351.00  z"/>
<path id="N" d="M 33444882.00 12283471.00 L 33011812.00 12283471.00 L 33011812.00 12519691.00 L 33444882.00 12519691.00 L 33444882.00 12283471.00  z"/>
<path id="N" d="M 32342520.00 12657487.00 L 31909450.00 12657487.00 L 31909450.00 12893707.00 L 32342520.00 12893707.00 L 32342520.00 12657487.00  z"/>
<path id="N" d="M 36904691.00 12144687.00 L 36717357.00 12144687.00 L 36717357.00 12678243.00 L 36904691.00 12678243.00 L 36904691.00 12144687.00  z"/>
<path id="N" d="M 28061841.00 17635414.00 L 27684621.00 17635414.00 L 27684621.00 17994520.00 L 28061841.00 17994520.00 L 28061841.00 17635414.00  z"/>
<path id="N" d="M 67303150.00 12283471.00 L 66870080.00 12283471.00 L 66870080.00 12519691.00 L 67303150.00 12519691.00 L 67303150.00 12283471.00  z"/>
<path id="N" d="M 26194883.00 21633865.00 L 25419293.00 21633865.00 L 25419293.00 21870085.00 L 26194883.00 21870085.00 L 26194883.00 21633865.00  z"/>
<path id="N" d="M 60053150.00 21633865.00 L 59277560.00 21633865.00 L 59277560.00 21870085.00 L 60053150.00 21870085.00 L 60053150.00 21633865.00  z"/>
<path id="N" d="M 59094489.00 21338589.00 L 58031497.00 21338589.00 L 58031497.00 21850399.00 L 59094489.00 21850399.00 L 59094489.00 21338589.00  z"/>
<path id="N" d="M 19527559.00 17007881.00 L 18464567.00 17007881.00 L 18464567.00 17519691.00 L 19527559.00 17519691.00 L 19527559.00 17007881.00  z"/>
<path id="N" d="M 25236222.00 21338590.00 L 24173230.00 21338590.00 L 24173230.00 21850400.00 L 25236222.00 21850400.00 L 25236222.00 21338590.00  z"/>
<path id="N" d="M 35590551.00 20807093.00 L 35078741.00 20807093.00 L 35078741.00 21122053.00 L 35590551.00 21122053.00 L 35590551.00 20807093.00  z"/>
<path id="N" d="M 69350394.00 21643707.00 L 68838584.00 21643707.00 L 68838584.00 21958667.00 L 69350394.00 21958667.00 L 69350394.00 21643707.00  z"/>
<path id="N" d="M 25994094.00 17608273.00 L 25482284.00 17608273.00 L 25482284.00 17923233.00 L 25994094.00 17923233.00 L 25994094.00 17608273.00  z"/>
<path id="N" d="M 41713384.00 19773623.00 L 41319684.00 19773623.00 L 41319684.00 20187009.00 L 41713384.00 20187009.00 L 41713384.00 19773623.00  z"/>
<path id="N" d="M 35590551.00 21791345.00 L 35078741.00 21791345.00 L 35078741.00 22106305.00 L 35590551.00 22106305.00 L 35590551.00 21791345.00  z"/>
<path id="N" d="M 69350394.00 20659455.00 L 68838584.00 20659455.00 L 68838584.00 20974415.00 L 69350394.00 20974415.00 L 69350394.00 20659455.00  z"/>
<path id="N" d="M 23385826.00 17657487.00 L 22874016.00 17657487.00 L 22874016.00 17972447.00 L 23385826.00 17972447.00 L 23385826.00 17657487.00  z"/>
<path id="N" d="M 66438052.00 11139351.00 L 66060606.00 11139351.00 L 66060606.00 11498457.00 L 66438052.00 11498457.00 L 66438052.00 11139351.00  z"/>
<path id="N" d="M 35317348.00 14288957.00 L 34939902.00 14288957.00 L 34939902.00 14648063.00 L 35317348.00 14648063.00 L 35317348.00 14288957.00  z"/>
<path id="N" d="M 14478347.00 16919299.00 L 13966537.00 16919299.00 L 13966537.00 17234259.00 L 14478347.00 17234259.00 L 14478347.00 16919299.00  z"/>
<path id="N" d="M 71161418.00 19970479.00 L 70767718.00 19970479.00 L 70767718.00 20383865.00 L 71161418.00 20383865.00 L 71161418.00 19970479.00  z"/>
<path id="N" d="M 39459447.00 22834646.00 L 39046061.00 22834646.00 L 39046061.00 23228346.00 L 39459447.00 23228346.00 L 39459447.00 22834646.00  z"/>
<path id="N" d="M 37382676.00 19773623.00 L 36988976.00 19773623.00 L 36988976.00 20187009.00 L 37382676.00 20187009.00 L 37382676.00 19773623.00  z"/>
<path id="N" d="M 75688977.00 19872054.00 L 75295277.00 19872054.00 L 75295277.00 20285440.00 L 75688977.00 20285440.00 L 75688977.00 19872054.00  z"/>
<path id="N" d="M 73238189.00 23326778.00 L 72824803.00 23326778.00 L 72824803.00 23720478.00 L 73238189.00 23720478.00 L 73238189.00 23326778.00  z"/>
<path id="N" d="M 23385826.00 17165361.00 L 22874016.00 17165361.00 L 22874016.00 17480321.00 L 23385826.00 17480321.00 L 23385826.00 17165361.00  z"/>
<path id="N" d="M 25994094.00 17116147.00 L 25482284.00 17116147.00 L 25482284.00 17431107.00 L 25994094.00 17431107.00 L 25994094.00 17116147.00  z"/>
<path id="N" d="M 28061841.00 16946438.00 L 27684621.00 16946438.00 L 27684621.00 17305544.00 L 28061841.00 17305544.00 L 28061841.00 16946438.00  z"/>
<path id="N" d="M 62001968.00 23133865.00 L 61226378.00 23133865.00 L 61226378.00 23370085.00 L 62001968.00 23370085.00 L 62001968.00 23133865.00  z"/>
<path id="N" d="M 62001968.00 22633865.00 L 61226378.00 22633865.00 L 61226378.00 22870085.00 L 62001968.00 22870085.00 L 62001968.00 22633865.00  z"/>
<path id="N" d="M 35590551.00 22283471.00 L 35078741.00 22283471.00 L 35078741.00 22598431.00 L 35590551.00 22598431.00 L 35590551.00 22283471.00  z"/>
<path id="N" d="M 55814965.74 20188991.88 m -275973.44 0 a 275973.44 275973.44 0 1 1 551946.87 0a 275973.44 275973.44 0 1 1 -551946.87 0M 55814962.92 20188980.47 m -208737.53 0 a 208737.53 208737.53 0 1 1 417475.06 0a 208737.53 208737.53 0 1 1 -417475.06 0"/>
<path id="N" d="M 55986640.00 18690135.00 L 55627534.00 18690135.00 L 55627534.00 19067355.00 L 55986640.00 19067355.00 L 55986640.00 18690135.00  z"/>
<path id="N" d="M 70863219.00 13470551.00 L 70863219.00 13124329.00 A 95504.96 95504.96 0 0 0 70672215.00 13124329.00 L 70672215.00 13470551.00 A 95504.96 95504.96 0 0 0 70863219.00 13470551.00  z"/>
<path id="N" d="M 69837948.00 13341890.00 L 69844126.00 13326974.00 L 69844126.00 13188786.00 L 69837948.00 13173870.00 L 69823032.00 13167692.00 L 69330512.00 13167692.00 L 69315596.00 13173870.00 L 69309418.00 13188786.00 L 69309418.00 13326974.00 L 69315596.00 13341890.00 L 69330512.00 13348068.00 L 69823032.00 13348068.00 L 69837948.00 13341890.00  z"/>
<path id="N" d="M 71734672.00 13079898.00 L 71375566.00 13079898.00 L 71375566.00 13457118.00 L 71734672.00 13457118.00 L 71734672.00 13079898.00  z"/>
<path id="N" d="M 69519691.63 16322844.20 m -335537.14 0 a 335537.14 335537.14 0 1 1 671074.28 0a 335537.14 335537.14 0 1 1 -671074.28 0M 69519685.45 16322838.53 m -218767.47 0 a 218767.47 218767.47 0 1 1 437534.95 0a 218767.47 218767.47 0 1 1 -437534.95 0"/>
<path id="N" d="M 67305538.00 13867300.00 L 66946432.00 13867300.00 L 66946432.00 14244520.00 L 67305538.00 14244520.00 L 67305538.00 13867300.00  z"/>
<path id="N" d="M 69519691.63 17322844.20 m -335537.14 0 a 335537.14 335537.14 0 1 1 671074.28 0a 335537.14 335537.14 0 1 1 -671074.28 0M 69519685.45 17322838.53 m -218767.47 0 a 218767.47 218767.47 0 1 1 437534.95 0a 218767.47 218767.47 0 1 1 -437534.95 0"/>
<path id="N" d="M 69350394.00 21151581.00 L 68838584.00 21151581.00 L 68838584.00 21466541.00 L 69350394.00 21466541.00 L 69350394.00 21151581.00  z"/>
<path id="N" d="M 65937010.99 17015753.10 m -317671.90 0 a 317671.90 317671.90 0 1 1 635343.80 0a 317671.90 317671.90 0 1 1 -635343.80 0M 65937008.36 17015748.47 m -200706.53 0 a 200706.53 200706.53 0 1 1 401413.05 0a 200706.53 200706.53 0 1 1 -401413.05 0"/>
<path id="N" d="M 60814965.74 20188991.88 m -275973.44 0 a 275973.44 275973.44 0 1 1 551946.87 0a 275973.44 275973.44 0 1 1 -551946.87 0M 60814962.92 20188980.47 m -208737.53 0 a 208737.53 208737.53 0 1 1 417475.06 0a 208737.53 208737.53 0 1 1 -417475.06 0"/>
<path id="N" d="M 68085979.00 13085984.00 L 68092157.00 13071068.00 L 68092157.00 12932880.00 L 68085979.00 12917964.00 L 68071063.00 12911786.00 L 67578543.00 12911786.00 L 67563627.00 12917964.00 L 67557449.00 12932880.00 L 67557449.00 13071068.00 L 67563627.00 13085984.00 L 67578543.00 13092162.00 L 68071063.00 13092162.00 L 68085979.00 13085984.00  z"/>
<path id="N" d="M 67303150.00 12657487.00 L 66870080.00 12657487.00 L 66870080.00 12893707.00 L 67303150.00 12893707.00 L 67303150.00 12657487.00  z"/>
<path id="N" d="M 40354319.98 24212580.45 m -307772.16 0 a 307772.16 307772.16 0 1 1 615544.33 0a 307772.16 307772.16 0 1 1 -615544.33 0M 40354331.36 24212599.47 m -200706.53 0 a 200706.53 200706.53 0 1 1 401413.05 0a 200706.53 200706.53 0 1 1 -401413.05 0"/>
<path id="N" d="M 51814965.74 20188991.88 m -275973.44 0 a 275973.44 275973.44 0 1 1 551946.87 0a 275973.44 275973.44 0 1 1 -551946.87 0M 51814962.92 20188980.47 m -208737.53 0 a 208737.53 208737.53 0 1 1 417475.06 0a 208737.53 208737.53 0 1 1 -417475.06 0"/>
<path id="N" d="M 40013016.00 22261392.00 L 39635796.00 22261392.00 L 39635796.00 22620498.00 L 40013016.00 22620498.00 L 40013016.00 22261392.00  z"/>
<path id="N" d="M 40049998.00 22834646.00 L 39636612.00 22834646.00 L 39636612.00 23228346.00 L 40049998.00 23228346.00 L 40049998.00 22834646.00  z"/>
<path id="N" d="M 48814965.74 13188991.88 m -275973.44 0 a 275973.44 275973.44 0 1 1 551946.87 0a 275973.44 275973.44 0 1 1 -551946.87 0M 48814962.92 13188980.47 m -208737.53 0 a 208737.53 208737.53 0 1 1 417475.06 0a 208737.53 208737.53 0 1 1 -417475.06 0"/>
<path id="N" d="M 71242546.00 14298800.00 L 70883440.00 14298800.00 L 70883440.00 14676020.00 L 71242546.00 14676020.00 L 71242546.00 14298800.00  z"/>
<path id="N" d="M 70553569.00 14298800.00 L 70194463.00 14298800.00 L 70194463.00 14676020.00 L 70553569.00 14676020.00 L 70553569.00 14298800.00  z"/>
<path id="N" d="M 32078742.99 18015753.10 m -317671.90 0 a 317671.90 317671.90 0 1 1 635343.80 0a 317671.90 317671.90 0 1 1 -635343.80 0M 32078740.36 18015748.47 m -200706.53 0 a 200706.53 200706.53 0 1 1 401413.05 0a 200706.53 200706.53 0 1 1 -401413.05 0"/>
<path id="N" d="M 57814965.74 13188991.88 m -275973.44 0 a 275973.44 275973.44 0 1 1 551946.87 0a 275973.44 275973.44 0 1 1 -551946.87 0M 57814962.92 13188980.47 m -208737.53 0 a 208737.53 208737.53 0 1 1 417475.06 0a 208737.53 208737.53 0 1 1 -417475.06 0"/>
<path id="N" d="M 35661422.63 18322844.20 m -335537.14 0 a 335537.14 335537.14 0 1 1 671074.28 0a 335537.14 335537.14 0 1 1 -671074.28 0M 35661416.45 18322838.53 m -218767.47 0 a 218767.47 218767.47 0 1 1 437534.95 0a 218767.47 218767.47 0 1 1 -437534.95 0"/>
<path id="N" d="M 36006325.00 14851552.00 L 35647219.00 14851552.00 L 35647219.00 15228772.00 L 36006325.00 15228772.00 L 36006325.00 14851552.00  z"/>
<path id="N" d="M 36695302.00 14851552.00 L 36336196.00 14851552.00 L 36336196.00 15228772.00 L 36695302.00 15228772.00 L 36695302.00 14851552.00  z"/>
<path id="N" d="M 60053150.00 23133865.00 L 59277560.00 23133865.00 L 59277560.00 23370085.00 L 60053150.00 23370085.00 L 60053150.00 23133865.00  z"/>
<path id="N" d="M 59951605.00 23836201.00 L 59574385.00 23836201.00 L 59574385.00 24195307.00 L 59951605.00 24195307.00 L 59951605.00 23836201.00  z"/>
<path id="N" d="M 59027979.00 23245650.00 L 58650759.00 23245650.00 L 58650759.00 23604756.00 L 59027979.00 23604756.00 L 59027979.00 23245650.00  z"/>
<path id="N" d="M 59271654.00 24025597.00 L 58956694.00 24025597.00 L 58956694.00 24202761.00 L 59271654.00 24202761.00 L 59271654.00 24025597.00  z"/>
<path id="N" d="M 26646090.00 23836201.00 L 26268870.00 23836201.00 L 26268870.00 24195307.00 L 26646090.00 24195307.00 L 26646090.00 23836201.00  z"/>
<path id="N" d="M 28143701.00 22133865.00 L 27368111.00 22133865.00 L 27368111.00 22370085.00 L 28143701.00 22370085.00 L 28143701.00 22133865.00  z"/>
<path id="N" d="M 28143701.00 21633865.00 L 27368111.00 21633865.00 L 27368111.00 21870085.00 L 28143701.00 21870085.00 L 28143701.00 21633865.00  z"/>
<path id="N" d="M 43700778.62 11220445.65 m -1184782.55 0 a 1184782.55 1184782.55 0 1 1 2369565.11 0a 1184782.55 1184782.55 0 1 1 -2369565.11 0M 43700785.22 11220480.46 m -613181.54 0 a 613181.54 613181.54 0 1 1 1226363.09 0a 613181.54 613181.54 0 1 1 -1226363.09 0"/>
<path id="N" d="M 77559047.62 11220445.65 m -1184782.55 0 a 1184782.55 1184782.55 0 1 1 2369565.11 0a 1184782.55 1184782.55 0 1 1 -2369565.11 0M 77559054.22 11220480.46 m -613181.54 0 a 613181.54 613181.54 0 1 1 1226363.09 0a 613181.54 613181.54 0 1 1 -1226363.09 0"/>
<path id="N" d="M 9842511.62 11220445.65 m -1184782.55 0 a 1184782.55 1184782.55 0 1 1 2369565.11 0a 1184782.55 1184782.55 0 1 1 -2369565.11 0M 9842518.22 11220480.46 m -613181.54 0 a 613181.54 613181.54 0 1 1 1226363.09 0a 613181.54 613181.54 0 1 1 -1226363.09 0"/>
<path id="N" d="M 77559047.62 23425169.65 m -1184782.55 0 a 1184782.55 1184782.55 0 1 1 2369565.11 0a 1184782.55 1184782.55 0 1 1 -2369565.11 0M 77559054.22 23425204.46 m -613181.54 0 a 613181.54 613181.54 0 1 1 1226363.09 0a 613181.54 613181.54 0 1 1 -1226363.09 0"/>
<path id="N" d="M 43700779.62 23425169.65 m -1184782.55 0 a 1184782.55 1184782.55 0 1 1 2369565.11 0a 1184782.55 1184782.55 0 1 1 -2369565.11 0M 43700786.22 23425204.46 m -613181.54 0 a 613181.54 613181.54 0 1 1 1226363.09 0a 613181.54 613181.54 0 1 1 -1226363.09 0"/>
<path id="N" d="M 9842511.62 23425169.65 m -1184782.55 0 a 1184782.55 1184782.55 0 1 1 2369565.11 0a 1184782.55 1184782.55 0 1 1 -2369565.11 0M 9842518.22 23425204.46 m -613181.54 0 a 613181.54 613181.54 0 1 1 1226363.09 0a 613181.54 613181.54 0 1 1 -1226363.09 0"/>
<path id="N" d="M 47814965.74 13188991.88 m -275973.44 0 a 275973.44 275973.44 0 1 1 551946.87 0a 275973.44 275973.44 0 1 1 -551946.87 0M 47814962.92 13188980.47 m -208737.53 0 a 208737.53 208737.53 0 1 1 417475.06 0a 208737.53 208737.53 0 1 1 -417475.06 0"/>
<path id="N" d="M 45814965.74 13188991.88 m -275973.44 0 a 275973.44 275973.44 0 1 1 551946.87 0a 275973.44 275973.44 0 1 1 -551946.87 0M 45814962.92 13188980.47 m -208737.53 0 a 208737.53 208737.53 0 1 1 417475.06 0a 208737.53 208737.53 0 1 1 -417475.06 0"/>
<path id="N" d="M 20597259.00 16302499.00 L 20229895.00 16302499.00 A 114828.16 114828.16 0 0 0 20229895.00 16532159.00 L 20597259.00 16532159.00 A 114832.50 114832.50 0 0 0 20597259.00 16302499.00  z"/>
<path id="N" d="M 75393698.94 10629919.94 m -200709.51 0 a 200709.51 200709.51 0 1 1 401419.02 0a 200709.51 200709.51 0 1 1 -401419.02 0"/>
<path id="N" d="M 12007871.94 22637793.94 m -200709.51 0 a 200709.51 200709.51 0 1 1 401419.02 0a 200709.51 200709.51 0 1 1 -401419.02 0"/>
<path id="N" d="M 24803150.00 15413392.00 L 23622048.00 15413392.00 L 23622048.00 16240164.00 L 24803150.00 16240164.00 L 24803150.00 15413392.00  z"/>
<path id="N" d="M 27411418.00 15856304.00 L 26230316.00 15856304.00 L 26230316.00 16683076.00 L 27411418.00 16683076.00 L 27411418.00 15856304.00  z"/>
<path id="N" d="M 13730315.00 15659456.00 L 12549213.00 15659456.00 L 12549213.00 16486228.00 L 13730315.00 16486228.00 L 13730315.00 15659456.00  z"/>
<path id="N" d="M 34842519.00 23031502.00 L 33661417.00 23031502.00 L 33661417.00 23858274.00 L 34842519.00 23858274.00 L 34842519.00 23031502.00  z"/>
<path id="N" d="M 27411418.00 18356304.00 L 26230316.00 18356304.00 L 26230316.00 19183076.00 L 27411418.00 19183076.00 L 27411418.00 18356304.00  z"/>
<path id="N" d="M 13730315.00 18159456.00 L 12549213.00 18159456.00 L 12549213.00 18986228.00 L 13730315.00 18986228.00 L 13730315.00 18159456.00  z"/>
<path id="N" d="M 34842519.00 19547250.00 L 33661417.00 19547250.00 L 33661417.00 20374022.00 L 34842519.00 20374022.00 L 34842519.00 19547250.00  z"/>
<path id="N" d="M 68602362.00 22883864.00 L 67421260.00 22883864.00 L 67421260.00 23710636.00 L 68602362.00 23710636.00 L 68602362.00 22883864.00  z"/>
<path id="N" d="M 24803150.00 18405518.00 L 23622048.00 18405518.00 L 23622048.00 19232290.00 L 24803150.00 19232290.00 L 24803150.00 18405518.00  z"/>
<path id="N" d="M 68602362.00 19399612.00 L 67421260.00 19399612.00 L 67421260.00 20226384.00 L 68602362.00 20226384.00 L 68602362.00 19399612.00  z"/>
<path id="N" d="M 17322827.39 16322831.83 m -269640.87 0 a 269640.87 269640.87 0 1 1 539281.75 0a 269640.87 269640.87 0 1 1 -539281.75 0M 17322833.05 16322843.89 m -170598.11 0 a 170598.11 170598.11 0 1 1 341196.22 0a 170598.11 170598.11 0 1 1 -341196.22 0"/>
<path id="N" d="M 43814965.74 13188991.88 m -275973.44 0 a 275973.44 275973.44 0 1 1 551946.87 0a 275973.44 275973.44 0 1 1 -551946.87 0M 43814962.92 13188980.47 m -208737.53 0 a 208737.53 208737.53 0 1 1 417475.06 0a 208737.53 208737.53 0 1 1 -417475.06 0"/>
<path id="N" d="M 19730737.00 16302499.00 L 19363373.00 16302499.00 A 114828.16 114828.16 0 1 0 19363373.00 16532159.00 L 19730737.00 16532159.00 A 114832.50 114832.50 0 1 0 19730737.00 16302499.00  z"/>
<path id="N" d="M 18781915.00 15568486.00 L 18422809.00 15568486.00 L 18422809.00 15945932.00 L 18781915.00 15945932.00 L 18781915.00 15568486.00  z"/>
<path id="N" d="M 19843361.00 15556673.00 L 19250749.00 15556673.00 L 19250749.00 15781921.00 L 19843361.00 15781921.00 L 19843361.00 15556673.00  z"/>
<path id="N" d="M 55814965.74 13188991.88 m -275973.44 0 a 275973.44 275973.44 0 1 1 551946.87 0a 275973.44 275973.44 0 1 1 -551946.87 0M 55814962.92 13188980.47 m -208737.53 0 a 208737.53 208737.53 0 1 1 417475.06 0a 208737.53 208737.53 0 1 1 -417475.06 0"/>
<path id="N" d="M 57069317.00 21582264.00 L 56710211.00 21582264.00 L 56710211.00 21959484.00 L 57069317.00 21959484.00 L 57069317.00 21582264.00  z"/>
<path id="N" d="M 72549214.00 18198819.00 L 71938978.00 18198819.00 L 71938978.00 18809055.00 L 72549214.00 18809055.00 L 72549214.00 18198819.00  zM 72244096.36 18503937.47 m -200706.53 0 a 200706.53 200706.53 0 1 1 401413.05 0a 200706.53 200706.53 0 1 1 -401413.05 0"/>
<path id="N" d="M 72413805.00 19111792.00 L 72036585.00 19111792.00 L 72036585.00 19470898.00 L 72413805.00 19470898.00 L 72413805.00 19111792.00  z"/>
<path id="N" d="M 72451605.00 19800768.00 L 72074385.00 19800768.00 L 72074385.00 20159874.00 L 72451605.00 20159874.00 L 72451605.00 19800768.00  z"/>
<path id="N" d="M 32078742.99 20015753.10 m -317671.90 0 a 317671.90 317671.90 0 1 1 635343.80 0a 317671.90 317671.90 0 1 1 -635343.80 0M 32078740.36 20015748.47 m -200706.53 0 a 200706.53 200706.53 0 1 1 401413.05 0a 200706.53 200706.53 0 1 1 -401413.05 0"/>
<path id="N" d="M 56814965.74 13188991.88 m -275973.44 0 a 275973.44 275973.44 0 1 1 551946.87 0a 275973.44 275973.44 0 1 1 -551946.87 0M 56814962.92 13188980.47 m -208737.53 0 a 208737.53 208737.53 0 1 1 417475.06 0a 208737.53 208737.53 0 1 1 -417475.06 0"/>
<path id="N" d="M 61814965.74 20188991.88 m -275973.44 0 a 275973.44 275973.44 0 1 1 551946.87 0a 275973.44 275973.44 0 1 1 -551946.87 0M 61814962.92 20188980.47 m -208737.53 0 a 208737.53 208737.53 0 1 1 417475.06 0a 208737.53 208737.53 0 1 1 -417475.06 0"/>
<path id="N" d="M 65937010.99 18015753.10 m -317671.90 0 a 317671.90 317671.90 0 1 1 635343.80 0a 317671.90 317671.90 0 1 1 -635343.80 0M 65937008.36 18015748.47 m -200706.53 0 a 200706.53 200706.53 0 1 1 401413.05 0a 200706.53 200706.53 0 1 1 -401413.05 0"/>
<path id="N" d="M 65937010.99 19015753.10 m -317671.90 0 a 317671.90 317671.90 0 1 1 635343.80 0a 317671.90 317671.90 0 1 1 -635343.80 0M 65937008.36 19015748.47 m -200706.53 0 a 200706.53 200706.53 0 1 1 401413.05 0a 200706.53 200706.53 0 1 1 -401413.05 0"/>
<path id="N" d="M 56814965.74 20188991.88 m -275973.44 0 a 275973.44 275973.44 0 1 1 551946.87 0a 275973.44 275973.44 0 1 1 -551946.87 0M 56814962.92 20188980.47 m -208737.53 0 a 208737.53 208737.53 0 1 1 417475.06 0a 208737.53 208737.53 0 1 1 -417475.06 0"/>
<path id="N" d="M 34227711.00 13341890.00 L 34233889.00 13326974.00 L 34233889.00 13188786.00 L 34227711.00 13173870.00 L 34212795.00 13167692.00 L 33720275.00 13167692.00 L 33705359.00 13173870.00 L 33699181.00 13188786.00 L 33699181.00 13326974.00 L 33705359.00 13341890.00 L 33720275.00 13348068.00 L 34212795.00 13348068.00 L 34227711.00 13341890.00  z"/>
<path id="N" d="M 34227711.00 13597795.00 L 34233889.00 13582879.00 L 34233889.00 13444691.00 L 34227711.00 13429775.00 L 34212795.00 13423597.00 L 33720275.00 13423597.00 L 33705359.00 13429775.00 L 33699181.00 13444691.00 L 33699181.00 13582879.00 L 33705359.00 13597795.00 L 33720275.00 13603973.00 L 34212795.00 13603973.00 L 34227711.00 13597795.00  z"/>
<path id="N" d="M 33447270.00 13314548.00 L 33088164.00 13314548.00 L 33088164.00 13691768.00 L 33447270.00 13691768.00 L 33447270.00 13314548.00  z"/>
<path id="N" d="M 32078742.99 16015753.10 m -317671.90 0 a 317671.90 317671.90 0 1 1 635343.80 0a 317671.90 317671.90 0 1 1 -635343.80 0M 32078740.36 16015748.47 m -200706.53 0 a 200706.53 200706.53 0 1 1 401413.05 0a 200706.53 200706.53 0 1 1 -401413.05 0"/>
<path id="N" d="M 60814965.74 13188991.88 m -275973.44 0 a 275973.44 275973.44 0 1 1 551946.87 0a 275973.44 275973.44 0 1 1 -551946.87 0M 60814962.92 13188980.47 m -208737.53 0 a 208737.53 208737.53 0 1 1 417475.06 0a 208737.53 208737.53 0 1 1 -417475.06 0"/>
<path id="N" d="M 60053150.00 22133865.00 L 59277560.00 22133865.00 L 59277560.00 22370085.00 L 60053150.00 22370085.00 L 60053150.00 22133865.00  z"/>
<path id="N" d="M 57659869.00 22135016.00 L 57300763.00 22135016.00 L 57300763.00 22512236.00 L 57659869.00 22512236.00 L 57659869.00 22135016.00  z"/>
<path id="N" d="M 57069317.00 22135016.00 L 56710211.00 22135016.00 L 56710211.00 22512236.00 L 57069317.00 22512236.00 L 57069317.00 22135016.00  z"/>
<path id="N" d="M 40354319.98 18503918.45 m -307772.16 0 a 307772.16 307772.16 0 1 1 615544.33 0a 307772.16 307772.16 0 1 1 -615544.33 0M 40354331.36 18503937.47 m -200706.53 0 a 200706.53 200706.53 0 1 1 401413.05 0a 200706.53 200706.53 0 1 1 -401413.05 0"/>
<path id="N" d="M 40444516.00 19111786.00 L 40067296.00 19111786.00 L 40067296.00 19470892.00 L 40444516.00 19470892.00 L 40444516.00 19111786.00  z"/>
<path id="N" d="M 40406717.00 19702337.00 L 40029497.00 19702337.00 L 40029497.00 20061443.00 L 40406717.00 20061443.00 L 40406717.00 19702337.00  z"/>
<path id="N" d="M 38690945.00 18198819.00 L 38080709.00 18198819.00 L 38080709.00 18809055.00 L 38690945.00 18809055.00 L 38690945.00 18198819.00  zM 38385827.36 18503937.47 m -200706.53 0 a 200706.53 200706.53 0 1 1 401413.05 0a 200706.53 200706.53 0 1 1 -401413.05 0"/>
<path id="N" d="M 38672863.00 19702337.00 L 38295643.00 19702337.00 L 38295643.00 20061443.00 L 38672863.00 20061443.00 L 38672863.00 19702337.00  z"/>
<path id="N" d="M 38635064.00 19111786.00 L 38257844.00 19111786.00 L 38257844.00 19470892.00 L 38635064.00 19470892.00 L 38635064.00 19111786.00  z"/>
<path id="N" d="M 17590157.00 18055518.00 L 17055511.00 18055518.00 L 17055511.00 18590164.00 L 17590157.00 18590164.00 L 17590157.00 18055518.00  zM 17322833.05 18322843.89 m -170598.11 0 a 170598.11 170598.11 0 1 1 341196.22 0a 170598.11 170598.11 0 1 1 -341196.22 0"/>
<path id="N" d="M 19527559.00 18110243.00 L 18464567.00 18110243.00 L 18464567.00 18622053.00 L 19527559.00 18622053.00 L 19527559.00 18110243.00  z"/>
<path id="N" d="M 59094489.00 22440951.00 L 58031497.00 22440951.00 L 58031497.00 22952761.00 L 59094489.00 22952761.00 L 59094489.00 22440951.00  z"/>
<path id="N" d="M 14478347.00 17411425.00 L 13966537.00 17411425.00 L 13966537.00 17726385.00 L 14478347.00 17726385.00 L 14478347.00 17411425.00  z"/>
<path id="N" d="M 20159868.00 17912349.00 L 19800762.00 17912349.00 L 19800762.00 18289795.00 L 20159868.00 18289795.00 L 20159868.00 17912349.00  z"/>
<path id="N" d="M 26194883.00 22633865.00 L 25419293.00 22633865.00 L 25419293.00 22870085.00 L 26194883.00 22870085.00 L 26194883.00 22633865.00  z"/>
<path id="N" d="M 25236222.00 22440952.00 L 24173230.00 22440952.00 L 24173230.00 22952762.00 L 25236222.00 22952762.00 L 25236222.00 22440952.00  z"/>
<path id="N" d="M 60053150.00 22633865.00 L 59277560.00 22633865.00 L 59277560.00 22870085.00 L 60053150.00 22870085.00 L 60053150.00 22633865.00  z"/>
<path id="N" d="M 58475227.00 23245650.00 L 58098007.00 23245650.00 L 58098007.00 23604756.00 L 58475227.00 23604756.00 L 58475227.00 23245650.00  z"/>
<path id="N" d="M 58366142.00 24025597.00 L 58051182.00 24025597.00 L 58051182.00 24202761.00 L 58366142.00 24202761.00 L 58366142.00 24025597.00  z"/>
<path id="N" d="M 24616960.00 23245650.00 L 24239740.00 23245650.00 L 24239740.00 23604756.00 L 24616960.00 23604756.00 L 24616960.00 23245650.00  z"/>
<path id="N" d="M 24507875.00 24025598.00 L 24192915.00 24025598.00 L 24192915.00 24202762.00 L 24507875.00 24202762.00 L 24507875.00 24025598.00  z"/>
<path id="N" d="M 52814965.74 13188991.88 m -275973.44 0 a 275973.44 275973.44 0 1 1 551946.87 0a 275973.44 275973.44 0 1 1 -551946.87 0M 52814962.92 13188980.47 m -208737.53 0 a 208737.53 208737.53 0 1 1 417475.06 0a 208737.53 208737.53 0 1 1 -417475.06 0"/>
<path id="N" d="M 58814965.74 20188991.88 m -275973.44 0 a 275973.44 275973.44 0 1 1 551946.87 0a 275973.44 275973.44 0 1 1 -551946.87 0M 58814962.92 20188980.47 m -208737.53 0 a 208737.53 208737.53 0 1 1 417475.06 0a 208737.53 208737.53 0 1 1 -417475.06 0"/>
<path id="N" d="M 65937010.99 16015753.10 m -317671.90 0 a 317671.90 317671.90 0 1 1 635343.80 0a 317671.90 317671.90 0 1 1 -635343.80 0M 65937008.36 16015748.47 m -200706.53 0 a 200706.53 200706.53 0 1 1 401413.05 0a 200706.53 200706.53 0 1 1 -401413.05 0"/>
<path id="N" d="M 35661422.63 16322844.20 m -335537.14 0 a 335537.14 335537.14 0 1 1 671074.28 0a 335537.14 335537.14 0 1 1 -671074.28 0M 35661416.45 16322838.53 m -218767.47 0 a 218767.47 218767.47 0 1 1 437534.95 0a 218767.47 218767.47 0 1 1 -437534.95 0"/>
<path id="N" d="M 33447270.00 13867300.00 L 33088164.00 13867300.00 L 33088164.00 14244520.00 L 33447270.00 14244520.00 L 33447270.00 13867300.00  z"/>
<path id="N" d="M 57814965.74 20188991.88 m -275973.44 0 a 275973.44 275973.44 0 1 1 551946.87 0a 275973.44 275973.44 0 1 1 -551946.87 0M 57814962.92 20188980.47 m -208737.53 0 a 208737.53 208737.53 0 1 1 417475.06 0a 208737.53 208737.53 0 1 1 -417475.06 0"/>
<path id="N" d="M 65937010.99 20015753.10 m -317671.90 0 a 317671.90 317671.90 0 1 1 635343.80 0a 317671.90 317671.90 0 1 1 -635343.80 0M 65937008.36 20015748.47 m -200706.53 0 a 200706.53 200706.53 0 1 1 401413.05 0a 200706.53 200706.53 0 1 1 -401413.05 0"/>
<path id="N" d="M 48814965.74 20188991.88 m -275973.44 0 a 275973.44 275973.44 0 1 1 551946.87 0a 275973.44 275973.44 0 1 1 -551946.87 0M 48814962.92 20188980.47 m -208737.53 0 a 208737.53 208737.53 0 1 1 417475.06 0a 208737.53 208737.53 0 1 1 -417475.06 0"/>
<path id="N" d="M 66200788.00 12283471.00 L 65767718.00 12283471.00 L 65767718.00 12519691.00 L 66200788.00 12519691.00 L 66200788.00 12283471.00  z"/>
<path id="N" d="M 32342520.00 12283471.00 L 31909450.00 12283471.00 L 31909450.00 12519691.00 L 32342520.00 12519691.00 L 32342520.00 12283471.00  z"/>
<path id="N" d="M 69350394.00 22135833.00 L 68838584.00 22135833.00 L 68838584.00 22450793.00 L 69350394.00 22450793.00 L 69350394.00 22135833.00  z"/>
<path id="N" d="M 28143701.00 22633865.00 L 27368111.00 22633865.00 L 27368111.00 22870085.00 L 28143701.00 22870085.00 L 28143701.00 22633865.00  z"/>
<path id="N" d="M 28143701.00 23133865.00 L 27368111.00 23133865.00 L 27368111.00 23370085.00 L 28143701.00 23370085.00 L 28143701.00 23133865.00  z"/>
<path id="N" d="M 47814965.74 20188991.88 m -275973.44 0 a 275973.44 275973.44 0 1 1 551946.87 0a 275973.44 275973.44 0 1 1 -551946.87 0M 47814962.92 20188980.47 m -208737.53 0 a 208737.53 208737.53 0 1 1 417475.06 0a 208737.53 208737.53 0 1 1 -417475.06 0"/>
<path id="N" d="M 66200788.00 11909455.00 L 65767718.00 11909455.00 L 65767718.00 12145675.00 L 66200788.00 12145675.00 L 66200788.00 11909455.00  z"/>
<path id="N" d="M 32342520.00 11909455.00 L 31909450.00 11909455.00 L 31909450.00 12145675.00 L 32342520.00 12145675.00 L 32342520.00 11909455.00  z"/>
<path id="N" d="M 53814965.74 13188991.88 m -275973.44 0 a 275973.44 275973.44 0 1 1 551946.87 0a 275973.44 275973.44 0 1 1 -551946.87 0M 53814962.92 13188980.47 m -208737.53 0 a 208737.53 208737.53 0 1 1 417475.06 0a 208737.53 208737.53 0 1 1 -417475.06 0"/>
<path id="N" d="M 23211050.00 21582264.00 L 22851944.00 21582264.00 L 22851944.00 21959484.00 L 23211050.00 21959484.00 L 23211050.00 21582264.00  z"/>
<path id="N" d="M 42814965.74 13188991.88 m -275973.44 0 a 275973.44 275973.44 0 1 1 551946.87 0a 275973.44 275973.44 0 1 1 -551946.87 0M 42814962.92 13188980.47 m -208737.53 0 a 208737.53 208737.53 0 1 1 417475.06 0a 208737.53 208737.53 0 1 1 -417475.06 0"/>
<path id="N" d="M 36906526.00 13392042.00 L 36906526.00 13045820.00 A 95504.96 95504.96 0 1 0 36715522.00 13045820.00 L 36715522.00 13392042.00 A 95504.96 95504.96 0 1 0 36906526.00 13392042.00  z"/>
<path id="N" d="M 35979680.00 13341890.00 L 35985858.00 13326974.00 L 35985858.00 13188786.00 L 35979680.00 13173870.00 L 35964764.00 13167692.00 L 35472244.00 13167692.00 L 35457328.00 13173870.00 L 35451150.00 13188786.00 L 35451150.00 13326974.00 L 35457328.00 13341890.00 L 35472244.00 13348068.00 L 35964764.00 13348068.00 L 35979680.00 13341890.00  z"/>
<path id="N" d="M 37777979.00 13001389.00 L 37418873.00 13001389.00 L 37418873.00 13378609.00 L 37777979.00 13378609.00 L 37777979.00 13001389.00  z"/>
<path id="N" d="M 50814965.74 20188991.88 m -275973.44 0 a 275973.44 275973.44 0 1 1 551946.87 0a 275973.44 275973.44 0 1 1 -551946.87 0M 50814962.92 20188980.47 m -208737.53 0 a 208737.53 208737.53 0 1 1 417475.06 0a 208737.53 208737.53 0 1 1 -417475.06 0"/>
<path id="N" d="M 50966955.00 18788560.00 L 50607849.00 18788560.00 L 50607849.00 19165780.00 L 50966955.00 19165780.00 L 50966955.00 18788560.00  z"/>
<path id="N" d="M 45814965.74 20188991.88 m -275973.44 0 a 275973.44 275973.44 0 1 1 551946.87 0a 275973.44 275973.44 0 1 1 -551946.87 0M 45814962.92 20188980.47 m -208737.53 0 a 208737.53 208737.53 0 1 1 417475.06 0a 208737.53 208737.53 0 1 1 -417475.06 0"/>
<path id="N" d="M 71161418.00 19379928.00 L 70767718.00 19379928.00 L 70767718.00 19793314.00 L 71161418.00 19793314.00 L 71161418.00 19379928.00  z"/>
<path id="N" d="M 71861053.00 19111792.00 L 71483833.00 19111792.00 L 71483833.00 19470898.00 L 71861053.00 19470898.00 L 71861053.00 19111792.00  z"/>
<path id="N" d="M 32078742.99 19015753.10 m -317671.90 0 a 317671.90 317671.90 0 1 1 635343.80 0a 317671.90 317671.90 0 1 1 -635343.80 0M 32078740.36 19015748.47 m -200706.53 0 a 200706.53 200706.53 0 1 1 401413.05 0a 200706.53 200706.53 0 1 1 -401413.05 0"/>
<path id="N" d="M 62088584.00 12915361.00 L 61541340.00 12915361.00 L 61541340.00 13462605.00 L 62088584.00 13462605.00 L 62088584.00 12915361.00  zM 61814962.92 13188980.47 m -208737.53 0 a 208737.53 208737.53 0 1 1 417475.06 0a 208737.53 208737.53 0 1 1 -417475.06 0"/>
<path id="N" d="M 50814965.74 13188991.88 m -275973.44 0 a 275973.44 275973.44 0 1 1 551946.87 0a 275973.44 275973.44 0 1 1 -551946.87 0M 50814962.92 13188980.47 m -208737.53 0 a 208737.53 208737.53 0 1 1 417475.06 0a 208737.53 208737.53 0 1 1 -417475.06 0"/>
<path id="N" d="M 28614593.00 17635414.00 L 28237373.00 17635414.00 L 28237373.00 17994520.00 L 28614593.00 17994520.00 L 28614593.00 17635414.00  z"/>
<path id="N" d="M 28614593.00 16946438.00 L 28237373.00 16946438.00 L 28237373.00 17305544.00 L 28614593.00 17305544.00 L 28614593.00 16946438.00  z"/>
<path id="N" d="M 62001968.00 22133865.00 L 61226378.00 22133865.00 L 61226378.00 22370085.00 L 62001968.00 22370085.00 L 62001968.00 22133865.00  z"/>
<path id="N" d="M 62001968.00 21633865.00 L 61226378.00 21633865.00 L 61226378.00 21870085.00 L 62001968.00 21870085.00 L 62001968.00 21633865.00  z"/>
<path id="N" d="M 60504357.00 23836201.00 L 60127137.00 23836201.00 L 60127137.00 24195307.00 L 60504357.00 24195307.00 L 60504357.00 23836201.00  z"/>
<path id="N" d="M 39370074.52 12992116.18 m -297556.40 0 a 297556.40 297556.40 0 1 1 595112.80 0a 297556.40 297556.40 0 1 1 -595112.80 0M 39370078.03 12992128.21 m -198817.79 0 a 198817.79 198817.79 0 1 1 397635.58 0a 198817.79 198817.79 0 1 1 -397635.58 0"/>
<path id="N" d="M 37777979.00 12448637.00 L 37418873.00 12448637.00 L 37418873.00 12825857.00 L 37777979.00 12825857.00 L 37777979.00 12448637.00  z"/>
<path id="N" d="M 38466955.00 12448637.00 L 38107849.00 12448637.00 L 38107849.00 12825857.00 L 38466955.00 12825857.00 L 38466955.00 12448637.00  z"/>
<path id="N" d="M 58814965.74 13188991.88 m -275973.44 0 a 275973.44 275973.44 0 1 1 551946.87 0a 275973.44 275973.44 0 1 1 -551946.87 0M 58814962.92 13188980.47 m -208737.53 0 a 208737.53 208737.53 0 1 1 417475.06 0a 208737.53 208737.53 0 1 1 -417475.06 0"/>
<path id="N" d="M 32078742.99 17015753.10 m -317671.90 0 a 317671.90 317671.90 0 1 1 635343.80 0a 317671.90 317671.90 0 1 1 -635343.80 0M 32078740.36 17015748.47 m -200706.53 0 a 200706.53 200706.53 0 1 1 401413.05 0a 200706.53 200706.53 0 1 1 -401413.05 0"/>
<path id="N" d="M 33661422.63 17322844.20 m -335537.14 0 a 335537.14 335537.14 0 1 1 671074.28 0a 335537.14 335537.14 0 1 1 -671074.28 0M 33661416.45 17322838.53 m -218767.47 0 a 218767.47 218767.47 0 1 1 437534.95 0a 218767.47 218767.47 0 1 1 -437534.95 0"/>
<path id="N" d="M 55986640.00 18137383.00 L 55627534.00 18137383.00 L 55627534.00 18514603.00 L 55986640.00 18514603.00 L 55986640.00 18137383.00  z"/>
<path id="N" d="M 69519691.63 18322844.20 m -335537.14 0 a 335537.14 335537.14 0 1 1 671074.28 0a 335537.14 335537.14 0 1 1 -671074.28 0M 69519685.45 18322838.53 m -218767.47 0 a 218767.47 218767.47 0 1 1 437534.95 0a 218767.47 218767.47 0 1 1 -437534.95 0"/>
<path id="N" d="M 70553569.00 14851552.00 L 70194463.00 14851552.00 L 70194463.00 15228772.00 L 70553569.00 15228772.00 L 70553569.00 14851552.00  z"/>
<path id="N" d="M 69864593.00 14851552.00 L 69505487.00 14851552.00 L 69505487.00 15228772.00 L 69864593.00 15228772.00 L 69864593.00 14851552.00  z"/>
<path id="N" d="M 34227711.00 13085984.00 L 34233889.00 13071068.00 L 34233889.00 12932880.00 L 34227711.00 12917964.00 L 34212795.00 12911786.00 L 33720275.00 12911786.00 L 33705359.00 12917964.00 L 33699181.00 12932880.00 L 33699181.00 13071068.00 L 33705359.00 13085984.00 L 33720275.00 13092162.00 L 34212795.00 13092162.00 L 34227711.00 13085984.00  z"/>
<path id="N" d="M 33444882.00 12657487.00 L 33011812.00 12657487.00 L 33011812.00 12893707.00 L 33444882.00 12893707.00 L 33444882.00 12657487.00  z"/>
<path id="N" d="M 51814965.74 13188991.88 m -275973.44 0 a 275973.44 275973.44 0 1 1 551946.87 0a 275973.44 275973.44 0 1 1 -551946.87 0M 51814962.92 13188980.47 m -208737.53 0 a 208737.53 208737.53 0 1 1 417475.06 0a 208737.53 208737.53 0 1 1 -417475.06 0"/>
<path id="N" d="M 36695302.00 14298800.00 L 36336196.00 14298800.00 L 36336196.00 14676020.00 L 36695302.00 14676020.00 L 36695302.00 14298800.00  z"/>
<path id="N" d="M 37384278.00 14298800.00 L 37025172.00 14298800.00 L 37025172.00 14676020.00 L 37384278.00 14676020.00 L 37384278.00 14298800.00  z"/>
<path id="N" d="M 52814965.74 20188991.88 m -275973.44 0 a 275973.44 275973.44 0 1 1 551946.87 0a 275973.44 275973.44 0 1 1 -551946.87 0M 52814962.92 20188980.47 m -208737.53 0 a 208737.53 208737.53 0 1 1 417475.06 0a 208737.53 208737.53 0 1 1 -417475.06 0"/>
<path id="N" d="M 37382676.00 19183072.00 L 36988976.00 19183072.00 L 36988976.00 19596458.00 L 37382676.00 19596458.00 L 37382676.00 19183072.00  z"/>
<path id="N" d="M 38082312.00 19111786.00 L 37705092.00 19111786.00 L 37705092.00 19470892.00 L 38082312.00 19470892.00 L 38082312.00 19111786.00  z"/>
<path id="N" d="M 35661422.63 17322844.20 m -335537.14 0 a 335537.14 335537.14 0 1 1 671074.28 0a 335537.14 335537.14 0 1 1 -671074.28 0M 35661416.45 17322838.53 m -218767.47 0 a 218767.47 218767.47 0 1 1 437534.95 0a 218767.47 218767.47 0 1 1 -437534.95 0"/>
<path id="N" d="M 35590551.00 21299219.00 L 35078741.00 21299219.00 L 35078741.00 21614179.00 L 35590551.00 21614179.00 L 35590551.00 21299219.00  z"/>
<path id="N" d="M 26194883.00 23133865.00 L 25419293.00 23133865.00 L 25419293.00 23370085.00 L 26194883.00 23370085.00 L 26194883.00 23133865.00  z"/>
<path id="N" d="M 25413387.00 24025598.00 L 25098427.00 24025598.00 L 25098427.00 24202762.00 L 25413387.00 24202762.00 L 25413387.00 24025598.00  z"/>
<path id="N" d="M 26093338.00 23836201.00 L 25716118.00 23836201.00 L 25716118.00 24195307.00 L 26093338.00 24195307.00 L 26093338.00 23836201.00  z"/>
<path id="N" d="M 25169712.00 23245650.00 L 24792492.00 23245650.00 L 24792492.00 23604756.00 L 25169712.00 23604756.00 L 25169712.00 23245650.00  z"/>
<path id="N" d="M 35979680.00 13597795.00 L 35985858.00 13582879.00 L 35985858.00 13444691.00 L 35979680.00 13429775.00 L 35964764.00 13423597.00 L 35472244.00 13423597.00 L 35457328.00 13429775.00 L 35451150.00 13444691.00 L 35451150.00 13582879.00 L 35457328.00 13597795.00 L 35472244.00 13603973.00 L 35964764.00 13603973.00 L 35979680.00 13597795.00  z"/>
<path id="N" d="M 35979680.00 13853701.00 L 35985858.00 13838785.00 L 35985858.00 13700597.00 L 35979680.00 13685681.00 L 35964764.00 13679503.00 L 35472244.00 13679503.00 L 35457328.00 13685681.00 L 35451150.00 13700597.00 L 35451150.00 13838785.00 L 35457328.00 13853701.00 L 35472244.00 13859879.00 L 35964764.00 13859879.00 L 35979680.00 13853701.00  z"/>
<path id="N" d="M 36006325.00 14298800.00 L 35647219.00 14298800.00 L 35647219.00 14676020.00 L 36006325.00 14676020.00 L 36006325.00 14298800.00  z"/>
<path id="N" d="M 46814965.74 13188991.88 m -275973.44 0 a 275973.44 275973.44 0 1 1 551946.87 0a 275973.44 275973.44 0 1 1 -551946.87 0M 46814962.92 13188980.47 m -208737.53 0 a 208737.53 208737.53 0 1 1 417475.06 0a 208737.53 208737.53 0 1 1 -417475.06 0"/>
<path id="N" d="M 65937010.99 15015753.10 m -317671.90 0 a 317671.90 317671.90 0 1 1 635343.80 0a 317671.90 317671.90 0 1 1 -635343.80 0M 65937008.36 15015748.47 m -200706.53 0 a 200706.53 200706.53 0 1 1 401413.05 0a 200706.53 200706.53 0 1 1 -401413.05 0"/>
<path id="N" d="M 67519691.63 16322844.20 m -335537.14 0 a 335537.14 335537.14 0 1 1 671074.28 0a 335537.14 335537.14 0 1 1 -671074.28 0M 67519685.45 16322838.53 m -218767.47 0 a 218767.47 218767.47 0 1 1 437534.95 0a 218767.47 218767.47 0 1 1 -437534.95 0"/>
<path id="N" d="M 32078742.99 15015753.10 m -317671.90 0 a 317671.90 317671.90 0 1 1 635343.80 0a 317671.90 317671.90 0 1 1 -635343.80 0M 32078740.36 15015748.47 m -200706.53 0 a 200706.53 200706.53 0 1 1 401413.05 0a 200706.53 200706.53 0 1 1 -401413.05 0"/>
<path id="N" d="M 33661422.63 16322844.20 m -335537.14 0 a 335537.14 335537.14 0 1 1 671074.28 0a 335537.14 335537.14 0 1 1 -671074.28 0M 33661416.45 16322838.53 m -218767.47 0 a 218767.47 218767.47 0 1 1 437534.95 0a 218767.47 218767.47 0 1 1 -437534.95 0"/>
<path id="N" d="M 20597259.00 15554467.00 L 20229895.00 15554467.00 A 114828.16 114828.16 0 0 0 20229895.00 15784127.00 L 20597259.00 15784127.00 A 114832.50 114832.50 0 0 0 20597259.00 15554467.00  z"/>
<path id="N" d="M 34227711.00 13853701.00 L 34233889.00 13838785.00 L 34233889.00 13700597.00 L 34227711.00 13685681.00 L 34212795.00 13679503.00 L 33720275.00 13679503.00 L 33705359.00 13685681.00 L 33699181.00 13700597.00 L 33699181.00 13838785.00 L 33705359.00 13853701.00 L 33720275.00 13859879.00 L 34212795.00 13859879.00 L 34227711.00 13853701.00  z"/>
<path id="N" d="M 68085979.00 13853701.00 L 68092157.00 13838785.00 L 68092157.00 13700597.00 L 68085979.00 13685681.00 L 68071063.00 13679503.00 L 67578543.00 13679503.00 L 67563627.00 13685681.00 L 67557449.00 13700597.00 L 67557449.00 13838785.00 L 67563627.00 13853701.00 L 67578543.00 13859879.00 L 68071063.00 13859879.00 L 68085979.00 13853701.00  z"/>
<path id="N" d="M 39225615.00 19702337.00 L 38848395.00 19702337.00 L 38848395.00 20061443.00 L 39225615.00 20061443.00 L 39225615.00 19702337.00  z"/>
<path id="N" d="M 39853965.00 19702337.00 L 39476745.00 19702337.00 L 39476745.00 20061443.00 L 39853965.00 20061443.00 L 39853965.00 19702337.00  z"/>
<path id="N" d="M 73731132.00 19800768.00 L 73353912.00 19800768.00 L 73353912.00 20159874.00 L 73731132.00 20159874.00 L 73731132.00 19800768.00  z"/>
<path id="N" d="M 39460264.00 22261392.00 L 39083044.00 22261392.00 L 39083044.00 22620498.00 L 39460264.00 22620498.00 L 39460264.00 22261392.00  z"/>
<path id="N" d="M 73791758.00 22655099.00 L 73414538.00 22655099.00 L 73414538.00 23014205.00 L 73791758.00 23014205.00 L 73791758.00 22655099.00  z"/>
<path id="N" d="M 73004357.00 19800768.00 L 72627137.00 19800768.00 L 72627137.00 20159874.00 L 73004357.00 20159874.00 L 73004357.00 19800768.00  z"/>
<path id="N" d="M 33151994.00 11139351.00 L 32774548.00 11139351.00 L 32774548.00 11498457.00 L 33151994.00 11498457.00 L 33151994.00 11139351.00  z"/>
<path id="N" d="M 68603406.00 14288957.00 L 68225960.00 14288957.00 L 68225960.00 14648063.00 L 68603406.00 14648063.00 L 68603406.00 14288957.00  z"/>
<path id="N" d="M 34745138.00 14288957.00 L 34367692.00 14288957.00 L 34367692.00 14648063.00 L 34745138.00 14648063.00 L 34745138.00 14288957.00  z"/>
<path id="N" d="M 67010262.00 11139351.00 L 66632816.00 11139351.00 L 66632816.00 11498457.00 L 67010262.00 11498457.00 L 67010262.00 11139351.00  z"/>
<path id="N" d="M 23385826.00 16673235.00 L 22874016.00 16673235.00 L 22874016.00 16988195.00 L 23385826.00 16988195.00 L 23385826.00 16673235.00  z"/>
<path id="N" d="M 21340970.00 15568486.00 L 20981864.00 15568486.00 L 20981864.00 15945932.00 L 21340970.00 15945932.00 L 21340970.00 15568486.00  z"/>
<path id="N" d="M 33444882.00 11909455.00 L 33011812.00 11909455.00 L 33011812.00 12145675.00 L 33444882.00 12145675.00 L 33444882.00 11909455.00  z"/>
<path id="N" d="M 67303150.00 11909455.00 L 66870080.00 11909455.00 L 66870080.00 12145675.00 L 67303150.00 12145675.00 L 67303150.00 11909455.00  z"/>
<path id="N" d="M 66200788.00 12657487.00 L 65767718.00 12657487.00 L 65767718.00 12893707.00 L 66200788.00 12893707.00 L 66200788.00 12657487.00  z"/>
<path id="N" d="M 74212596.32 24212593.16 m -307757.99 0 a 307757.99 307757.99 0 1 1 615515.98 0a 307757.99 307757.99 0 1 1 -615515.98 0M 74212600.36 24212599.47 m -200706.53 0 a 200706.53 200706.53 0 1 1 401413.05 0a 200706.53 200706.53 0 1 1 -401413.05 0"/>
<path id="N" d="M 43814965.74 20188991.88 m -275973.44 0 a 275973.44 275973.44 0 1 1 551946.87 0a 275973.44 275973.44 0 1 1 -551946.87 0M 43814962.92 20188980.47 m -208737.53 0 a 208737.53 208737.53 0 1 1 417475.06 0a 208737.53 208737.53 0 1 1 -417475.06 0"/>
<path id="N" d="M 73828740.00 23326778.00 L 73415354.00 23326778.00 L 73415354.00 23720478.00 L 73828740.00 23720478.00 L 73828740.00 23326778.00  z"/>
<path id="N" d="M 73239006.00 22655099.00 L 72861786.00 22655099.00 L 72861786.00 23014205.00 L 73239006.00 23014205.00 L 73239006.00 22655099.00  z"/>
<path id="N" d="M 73228343.52 12992116.18 m -297556.40 0 a 297556.40 297556.40 0 1 1 595112.80 0a 297556.40 297556.40 0 1 1 -595112.80 0M 73228347.03 12992128.21 m -198817.79 0 a 198817.79 198817.79 0 1 1 397635.58 0a 198817.79 198817.79 0 1 1 -397635.58 0"/>
<path id="N" d="M 72423648.00 12527146.00 L 72064542.00 12527146.00 L 72064542.00 12904366.00 L 72423648.00 12904366.00 L 72423648.00 12527146.00  z"/>
<path id="N" d="M 71734672.00 12527146.00 L 71375566.00 12527146.00 L 71375566.00 12904366.00 L 71734672.00 12904366.00 L 71734672.00 12527146.00  z"/>
<path id="N" d="M 43088584.00 19915361.00 L 42541340.00 19915361.00 L 42541340.00 20462605.00 L 43088584.00 20462605.00 L 43088584.00 19915361.00  zM 42814962.92 20188980.47 m -208737.53 0 a 208737.53 208737.53 0 1 1 417475.06 0a 208737.53 208737.53 0 1 1 -417475.06 0"/>
<path id="N" d="M 23211050.00 22135016.00 L 22851944.00 22135016.00 L 22851944.00 22512236.00 L 23211050.00 22512236.00 L 23211050.00 22135016.00  z"/>
<path id="N" d="M 23801602.00 22135016.00 L 23442496.00 22135016.00 L 23442496.00 22512236.00 L 23801602.00 22512236.00 L 23801602.00 22135016.00  z"/>
<path id="N" d="M 26194883.00 22133865.00 L 25419293.00 22133865.00 L 25419293.00 22370085.00 L 26194883.00 22370085.00 L 26194883.00 22133865.00  z"/>
<path id="N" d="M 46814965.74 20188991.88 m -275973.44 0 a 275973.44 275973.44 0 1 1 551946.87 0a 275973.44 275973.44 0 1 1 -551946.87 0M 46814962.92 20188980.47 m -208737.53 0 a 208737.53 208737.53 0 1 1 417475.06 0a 208737.53 208737.53 0 1 1 -417475.06 0"/>
<path id="N" d="M 75688977.00 19281503.00 L 75295277.00 19281503.00 L 75295277.00 19694889.00 L 75688977.00 19694889.00 L 75688977.00 19281503.00  z"/>
<path id="N" d="M 74874435.00 19111792.00 L 74497215.00 19111792.00 L 74497215.00 19470898.00 L 74874435.00 19470898.00 L 74874435.00 19111792.00  z"/>
<path id="N" d="M 67519691.63 17322844.20 m -335537.14 0 a 335537.14 335537.14 0 1 1 671074.28 0a 335537.14 335537.14 0 1 1 -671074.28 0M 67519685.45 17322838.53 m -218767.47 0 a 218767.47 218767.47 0 1 1 437534.95 0a 218767.47 218767.47 0 1 1 -437534.95 0"/>
<path id="N" d="M 50966955.00 18235808.00 L 50607849.00 18235808.00 L 50607849.00 18613028.00 L 50966955.00 18613028.00 L 50966955.00 18235808.00  z"/>
<path id="N" d="M 68085979.00 13597795.00 L 68092157.00 13582879.00 L 68092157.00 13444691.00 L 68085979.00 13429775.00 L 68071063.00 13423597.00 L 67578543.00 13423597.00 L 67563627.00 13429775.00 L 67557449.00 13444691.00 L 67557449.00 13582879.00 L 67563627.00 13597795.00 L 67578543.00 13603973.00 L 68071063.00 13603973.00 L 68085979.00 13597795.00  z"/>
<path id="N" d="M 68085979.00 13341890.00 L 68092157.00 13326974.00 L 68092157.00 13188786.00 L 68085979.00 13173870.00 L 68071063.00 13167692.00 L 67578543.00 13167692.00 L 67563627.00 13173870.00 L 67557449.00 13188786.00 L 67557449.00 13326974.00 L 67563627.00 13341890.00 L 67578543.00 13348068.00 L 68071063.00 13348068.00 L 68085979.00 13341890.00  z"/>
<path id="N" d="M 67305538.00 13314548.00 L 66946432.00 13314548.00 L 66946432.00 13691768.00 L 67305538.00 13691768.00 L 67305538.00 13314548.00  z"/>
<path id="N" d="M 69837948.00 13853701.00 L 69844126.00 13838785.00 L 69844126.00 13700597.00 L 69837948.00 13685681.00 L 69823032.00 13679503.00 L 69330512.00 13679503.00 L 69315596.00 13685681.00 L 69309418.00 13700597.00 L 69309418.00 13838785.00 L 69315596.00 13853701.00 L 69330512.00 13859879.00 L 69823032.00 13859879.00 L 69837948.00 13853701.00  z"/>
<path id="N" d="M 69837948.00 13597795.00 L 69844126.00 13582879.00 L 69844126.00 13444691.00 L 69837948.00 13429775.00 L 69823032.00 13423597.00 L 69330512.00 13423597.00 L 69315596.00 13429775.00 L 69309418.00 13444691.00 L 69309418.00 13582879.00 L 69315596.00 13597795.00 L 69330512.00 13603973.00 L 69823032.00 13603973.00 L 69837948.00 13597795.00  z"/>
<path id="N" d="M 69864593.00 14298800.00 L 69505487.00 14298800.00 L 69505487.00 14676020.00 L 69864593.00 14676020.00 L 69864593.00 14298800.00  z"/>
<path id="N" d="M 53814965.74 20188991.88 m -275973.44 0 a 275973.44 275973.44 0 1 1 551946.87 0a 275973.44 275973.44 0 1 1 -551946.87 0M 53814962.92 20188980.47 m -208737.53 0 a 208737.53 208737.53 0 1 1 417475.06 0a 208737.53 208737.53 0 1 1 -417475.06 0"/>
<path id="N" d="M 40997268.00 19111786.00 L 40620048.00 19111786.00 L 40620048.00 19470892.00 L 40997268.00 19470892.00 L 40997268.00 19111786.00  z"/>
<path id="N" d="M 41713384.00 19183072.00 L 41319684.00 19183072.00 L 41319684.00 19596458.00 L 41713384.00 19596458.00 L 41713384.00 19183072.00  z"/>
</g>
</svg>
