<svg width="179.00000776mm" height="38.00002814mm" viewBox="0 0 70472444 14960641"  version="1.1" xmlns="http://www.w3.org/2000/svg" xmlns:xlink="http://www.w3.org/1999/xlink">
<desc>
Origin 43700788 9842526 Bound 8464567 9842515 70472444 14960641
</desc>
<g fill-rule="evenodd" fill="rgb(255, 0, 255)" stroke="black" stroke-width="1" transform="translate(0, 14960641) scale(1, -1) translate(-8464567, -9842515)">
<path id="N" d="M 77667503.00 24803150.00 A 1382227.88 1382227.88 0 0 0 77667503.00 22047244.00 L 77559056.00 22047243.00 L 77481808.00 22044714.00 A 1181135.09 1181135.09 0 0 1 76377955.00 20866142.00 L 76377955.00 13779528.00 L 76380483.00 13702280.00 A 1181135.09 1181135.09 0 0 1 77559056.00 12598425.00 L 77667503.00 12598425.00 A 1382205.90 1382205.90 0 0 0 77667503.00 9842515.00 L 9734072.00 9842520.00 A 1382187.39 1382187.39 0 0 0 9734072.00 12598426.00 L 9842520.00 12598427.00 L 9919767.00 12600955.00 A 1181135.09 1181135.09 0 0 1 11023621.00 13779528.00 L 11023621.00 20866142.00 L 11021092.00 20943389.00 A 1181135.09 1181135.09 0 0 1 9842520.00 22047244.00 L 9734072.00 22047244.00 A 1382187.39 1382187.39 0 0 0 9734072.00 24803150.00 L 77667503.00 24803150.00  zM 9842517.22 11220484.24 m -1182951.76 0 a 1182951.76 1182951.76 0 1 1 2365903.51 0a 1182951.76 1182951.76 0 1 1 -2365903.51 0M 18582677.00 15177171.00 L 18346457.00 15177171.00 L 18346457.00 14940951.00 L 18582677.00 14940951.00 L 18582677.00 15177171.00  zM 18781915.00 15934120.00 L 18422809.00 15934120.00 L 18422809.00 15556674.00 L 18781915.00 15556674.00 L 18781915.00 15934120.00  zM 19448819.00 15177171.00 L 19212599.00 15177171.00 L 19212599.00 14940951.00 L 19448819.00 14940951.00 L 19448819.00 15177171.00  zM 19744935.00 15781921.00 L 19152323.00 15781921.00 L 19152323.00 15556673.00 L 19744935.00 15556673.00 L 19744935.00 15781921.00  zM 19632311.00 16156909.00 L 19264947.00 16156909.00 A 113602.81 113602.81 0 0 1 19264947.00 15929717.00 L 19632311.00 15929717.00 A 113602.81 113602.81 0 1 1 19632311.00 16156909.00  zM 9842517.22 23425208.24 m -1182951.76 0 a 1182951.76 1182951.76 0 1 1 2365903.51 0a 1182951.76 1182951.76 0 1 1 -2365903.51 0M 12007876.35 22637781.43 m -237377.57 0 a 237377.57 237377.57 0 1 1 474755.15 0a 237377.57 237377.57 0 1 1 -474755.15 0M 18781915.00 16506330.00 L 18422809.00 16506330.00 L 18422809.00 16128884.00 L 18781915.00 16128884.00 L 18781915.00 16506330.00  zM 19632311.00 16530925.00 L 19264947.00 16530925.00 A 113602.81 113602.81 0 0 1 19264947.00 16303733.00 L 19632311.00 16303733.00 A 113602.81 113602.81 0 1 1 19632311.00 16530925.00  zM 20159868.00 18289795.00 L 19800762.00 18289795.00 L 19800762.00 17912349.00 L 20159868.00 17912349.00 L 20159868.00 18289795.00  zM 20498833.00 15782893.00 L 20131469.00 15782893.00 A 113602.81 113602.81 0 0 1 20131469.00 15555701.00 L 20498833.00 15555701.00 A 113602.81 113602.81 0 0 1 20498833.00 15782893.00  zM 21340970.00 15934120.00 L 20981864.00 15934120.00 L 20981864.00 15556674.00 L 21340970.00 15556674.00 L 21340970.00 15934120.00  zM 21340970.00 16506330.00 L 20981864.00 16506330.00 L 20981864.00 16128884.00 L 21340970.00 16128884.00 L 21340970.00 16506330.00  zM 20498833.00 16530925.00 L 20131469.00 16530925.00 A 113602.81 113602.81 0 0 1 20131469.00 16303733.00 L 20498833.00 16303733.00 A 113602.81 113602.81 0 0 1 20498833.00 16530925.00  zM 20159868.00 17717585.00 L 19800762.00 17717585.00 L 19800762.00 17340139.00 L 20159868.00 17340139.00 L 20159868.00 17717585.00  zM 23211050.00 21959484.00 L 22851944.00 21959484.00 L 22851944.00 21582264.00 L 23211050.00 21582264.00 L 23211050.00 21959484.00  zM 23211050.00 22512236.00 L 22851944.00 22512236.00 L 22851944.00 22135016.00 L 23211050.00 22135016.00 L 23211050.00 22512236.00  zM 23801602.00 21959484.00 L 23442496.00 21959484.00 L 23442496.00 21582264.00 L 23801602.00 21582264.00 L 23801602.00 21959484.00  zM 23801602.00 22512236.00 L 23442496.00 22512236.00 L 23442496.00 22135016.00 L 23801602.00 22135016.00 L 23801602.00 22512236.00  zM 24616960.00 23604756.00 L 24239740.00 23604756.00 L 24239740.00 23245650.00 L 24616960.00 23245650.00 L 24616960.00 23604756.00  zM 29362208.75 13842496.81 m -493671.19 0 a 493671.19 493671.19 0 1 1 987342.38 0a 493671.19 493671.19 0 1 1 -987342.38 0M 32342520.00 12145675.00 L 31909450.00 12145675.00 L 31909450.00 11909455.00 L 32342520.00 11909455.00 L 32342520.00 12145675.00  zM 32342520.00 12519691.00 L 31909450.00 12519691.00 L 31909450.00 12283471.00 L 32342520.00 12283471.00 L 32342520.00 12519691.00  zM 32579784.00 11498457.00 L 32202338.00 11498457.00 L 32202338.00 11139351.00 L 32579784.00 11139351.00 L 32579784.00 11498457.00  zM 32342520.00 12893707.00 L 31909450.00 12893707.00 L 31909450.00 12657487.00 L 32342520.00 12657487.00 L 32342520.00 12893707.00  zM 33151994.00 11498457.00 L 32774548.00 11498457.00 L 32774548.00 11139351.00 L 33151994.00 11139351.00 L 33151994.00 11498457.00  zM 33444882.00 12145675.00 L 33011812.00 12145675.00 L 33011812.00 11909455.00 L 33444882.00 11909455.00 L 33444882.00 12145675.00  zM 33444882.00 12519691.00 L 33011812.00 12519691.00 L 33011812.00 12283471.00 L 33444882.00 12283471.00 L 33444882.00 12519691.00  zM 33444882.00 12893707.00 L 33011812.00 12893707.00 L 33011812.00 12657487.00 L 33444882.00 12657487.00 L 33444882.00 12893707.00  zM 33447270.00 13691768.00 L 33088164.00 13691768.00 L 33088164.00 13314548.00 L 33447270.00 13314548.00 L 33447270.00 13691768.00  zM 28061841.00 17305544.00 L 27684621.00 17305544.00 L 27684621.00 16946438.00 L 28061841.00 16946438.00 L 28061841.00 17305544.00  zM 28614593.00 17305544.00 L 28237373.00 17305544.00 L 28237373.00 16946438.00 L 28614593.00 16946438.00 L 28614593.00 17305544.00  zM 28614593.00 17994520.00 L 28237373.00 17994520.00 L 28237373.00 17635414.00 L 28614593.00 17635414.00 L 28614593.00 17994520.00  zM 33447270.00 14244520.00 L 33088164.00 14244520.00 L 33088164.00 13867300.00 L 33447270.00 13867300.00 L 33447270.00 14244520.00  zM 33661415.12 17322843.96 m -334278.04 0 a 334278.04 334278.04 0 1 1 668556.08 0a 334278.04 334278.04 0 1 1 -668556.08 0M 28061841.00 17994520.00 L 27684621.00 17994520.00 L 27684621.00 17635414.00 L 28061841.00 17635414.00 L 28061841.00 17994520.00  zM 29362208.75 22188952.81 m -493671.19 0 a 493671.19 493671.19 0 1 1 987342.38 0a 493671.19 493671.19 0 1 1 -987342.38 0M 25169712.00 23604756.00 L 24792492.00 23604756.00 L 24792492.00 23245650.00 L 25169712.00 23245650.00 L 25169712.00 23604756.00  zM 26093338.00 24195307.00 L 25716118.00 24195307.00 L 25716118.00 23836201.00 L 26093338.00 23836201.00 L 26093338.00 24195307.00  zM 26646090.00 24195307.00 L 26268870.00 24195307.00 L 26268870.00 23836201.00 L 26646090.00 23836201.00 L 26646090.00 24195307.00  zM 34745138.00 14648063.00 L 34367692.00 14648063.00 L 34367692.00 14288957.00 L 34745138.00 14288957.00 L 34745138.00 14648063.00  zM 35317348.00 14648063.00 L 34939902.00 14648063.00 L 34939902.00 14288957.00 L 35317348.00 14288957.00 L 35317348.00 14648063.00  zM 36715522.00 13392042.00 L 36715522.00 13045820.00 A 95504.96 95504.96 0 1 1 36906526.00 13045820.00 L 36906526.00 13392042.00 A 95504.96 95504.96 0 1 1 36715522.00 13392042.00  zM 36904691.00 12678243.00 L 36717357.00 12678243.00 L 36717357.00 12144687.00 L 36904691.00 12144687.00 L 36904691.00 12678243.00  zM 37777979.00 12825857.00 L 37418873.00 12825857.00 L 37418873.00 12448637.00 L 37777979.00 12448637.00 L 37777979.00 12825857.00  zM 37777979.00 13378609.00 L 37418873.00 13378609.00 L 37418873.00 13001389.00 L 37777979.00 13001389.00 L 37777979.00 13378609.00  zM 38015084.49 11637099.12 m -396937.88 0 a 396937.88 396937.88 0 1 1 793875.75 0a 396937.88 396937.88 0 1 1 -793875.75 0M 38466955.00 12825857.00 L 38107849.00 12825857.00 L 38107849.00 12448637.00 L 38466955.00 12448637.00 L 38466955.00 12825857.00  zM 39370082.13 12992106.82 m -296446.18 0 a 296446.18 296446.18 0 1 1 592892.36 0a 296446.18 296446.18 0 1 1 -592892.36 0M 38466955.00 13378609.00 L 38107849.00 13378609.00 L 38107849.00 13001389.00 L 38466955.00 13001389.00 L 38466955.00 13378609.00  zM 38015084.49 14347099.12 m -396937.88 0 a 396937.88 396937.88 0 1 1 793875.75 0a 396937.88 396937.88 0 1 1 -793875.75 0M 36006325.00 14676020.00 L 35647219.00 14676020.00 L 35647219.00 14298800.00 L 36006325.00 14298800.00 L 36006325.00 14676020.00  zM 36006325.00 15228772.00 L 35647219.00 15228772.00 L 35647219.00 14851552.00 L 36006325.00 14851552.00 L 36006325.00 15228772.00  zM 36695302.00 14676020.00 L 36336196.00 14676020.00 L 36336196.00 14298800.00 L 36695302.00 14298800.00 L 36695302.00 14676020.00  zM 36695302.00 15228772.00 L 36336196.00 15228772.00 L 36336196.00 14851552.00 L 36695302.00 14851552.00 L 36695302.00 15228772.00  zM 37384278.00 14676020.00 L 37025172.00 14676020.00 L 37025172.00 14298800.00 L 37384278.00 14298800.00 L 37384278.00 14676020.00  zM 33661415.12 16322843.96 m -334278.04 0 a 334278.04 334278.04 0 1 1 668556.08 0a 334278.04 334278.04 0 1 1 -668556.08 0M 35661415.12 16322843.96 m -334278.04 0 a 334278.04 334278.04 0 1 1 668556.08 0a 334278.04 334278.04 0 1 1 -668556.08 0M 35661415.12 18322843.96 m -334278.04 0 a 334278.04 334278.04 0 1 1 668556.08 0a 334278.04 334278.04 0 1 1 -668556.08 0M 37384278.00 15228772.00 L 37025172.00 15228772.00 L 37025172.00 14851552.00 L 37384278.00 14851552.00 L 37384278.00 15228772.00  zM 35661415.12 17322843.96 m -334278.04 0 a 334278.04 334278.04 0 1 1 668556.08 0a 334278.04 334278.04 0 1 1 -668556.08 0M 33661415.12 18322843.96 m -334278.04 0 a 334278.04 334278.04 0 1 1 668556.08 0a 334278.04 334278.04 0 1 1 -668556.08 0M 34744094.00 20226384.00 L 33562992.00 20226384.00 L 33562992.00 19399612.00 L 34744094.00 19399612.00 L 34744094.00 20226384.00  zM 35492126.00 20974415.00 L 34980316.00 20974415.00 L 34980316.00 20659455.00 L 35492126.00 20659455.00 L 35492126.00 20974415.00  zM 38690945.00 18809055.00 L 38080709.00 18809055.00 L 38080709.00 18198819.00 L 38690945.00 18198819.00 L 38690945.00 18809055.00  zM 38082312.00 19470892.00 L 37705092.00 19470892.00 L 37705092.00 19111786.00 L 38082312.00 19111786.00 L 38082312.00 19470892.00  zM 35492126.00 21958667.00 L 34980316.00 21958667.00 L 34980316.00 21643707.00 L 35492126.00 21643707.00 L 35492126.00 21958667.00  zM 35492126.00 22450793.00 L 34980316.00 22450793.00 L 34980316.00 22135833.00 L 35492126.00 22135833.00 L 35492126.00 22450793.00  zM 34744094.00 23710636.00 L 33562992.00 23710636.00 L 33562992.00 22883864.00 L 34744094.00 22883864.00 L 34744094.00 23710636.00  zM 35492126.00 21466541.00 L 34980316.00 21466541.00 L 34980316.00 21151581.00 L 35492126.00 21151581.00 L 35492126.00 21466541.00  zM 36730379.00 21870078.00 L 36730379.00 21043308.00 A 395576.57 395576.57 0 0 1 37521591.00 21043308.00 L 37521591.00 21870078.00 A 395576.57 395576.57 0 1 1 36730379.00 21870078.00  zM 38635064.00 19470892.00 L 38257844.00 19470892.00 L 38257844.00 19111786.00 L 38635064.00 19111786.00 L 38635064.00 19470892.00  zM 39370076.63 18503950.19 m -306580.81 0 a 306580.81 306580.81 0 1 1 613161.63 0a 306580.81 306580.81 0 1 1 -613161.63 0M 38691762.00 20159874.00 L 38314542.00 20159874.00 L 38314542.00 19800768.00 L 38691762.00 19800768.00 L 38691762.00 20159874.00  zM 40354328.63 18503950.19 m -306580.81 0 a 306580.81 306580.81 0 1 1 613161.63 0a 306580.81 306580.81 0 1 1 -613161.63 0M 39971290.00 20159874.00 L 39594070.00 20159874.00 L 39594070.00 19800768.00 L 39971290.00 19800768.00 L 39971290.00 20159874.00  zM 39244514.00 20159874.00 L 38867294.00 20159874.00 L 38867294.00 19800768.00 L 39244514.00 19800768.00 L 39244514.00 20159874.00  zM 40524042.00 20159874.00 L 40146822.00 20159874.00 L 40146822.00 19800768.00 L 40524042.00 19800768.00 L 40524042.00 20159874.00  zM 39835065.00 22718929.00 L 39457845.00 22718929.00 L 39457845.00 22359823.00 L 39835065.00 22359823.00 L 39835065.00 22718929.00  zM 39282313.00 22718929.00 L 38905093.00 22718929.00 L 38905093.00 22359823.00 L 39282313.00 22359823.00 L 39282313.00 22718929.00  zM 38385824.63 24212612.19 m -306580.81 0 a 306580.81 306580.81 0 1 1 613161.63 0a 306580.81 306580.81 0 1 1 -613161.63 0M 40725084.49 11637099.12 m -396937.88 0 a 396937.88 396937.88 0 1 1 793875.75 0a 396937.88 396937.88 0 1 1 -793875.75 0M 40725084.49 14347099.12 m -396937.88 0 a 396937.88 396937.88 0 1 1 793875.75 0a 396937.88 396937.88 0 1 1 -793875.75 0M 41114593.00 19470898.00 L 40737373.00 19470898.00 L 40737373.00 19111792.00 L 41114593.00 19111792.00 L 41114593.00 19470898.00  zM 40561841.00 19470898.00 L 40184621.00 19470898.00 L 40184621.00 19111792.00 L 40561841.00 19111792.00 L 40561841.00 19470898.00  zM 41218567.00 21870078.00 L 41218567.00 21043308.00 A 395576.57 395576.57 0 0 1 42009779.00 21043308.00 L 42009779.00 21870078.00 A 395576.57 395576.57 0 1 1 41218567.00 21870078.00  zM 40354328.63 24212612.19 m -306580.81 0 a 306580.81 306580.81 0 1 1 613161.63 0a 306580.81 306580.81 0 1 1 -613161.63 0M 43700783.53 11220500.91 m -1163219.09 0 a 1163219.09 1163219.09 0 1 1 2326438.17 0a 1163219.09 1163219.09 0 1 1 -2326438.17 0M 56014597.00 21242551.00 L 55637377.00 21242551.00 L 55637377.00 20883445.00 L 56014597.00 20883445.00 L 56014597.00 21242551.00  zM 43700785.22 23425208.24 m -1182951.76 0 a 1182951.76 1182951.76 0 1 1 2365903.51 0a 1182951.76 1182951.76 0 1 1 -2365903.51 0M 56567349.00 21242551.00 L 56190129.00 21242551.00 L 56190129.00 20883445.00 L 56567349.00 20883445.00 L 56567349.00 21242551.00  zM 57069317.00 22512236.00 L 56710211.00 22512236.00 L 56710211.00 22135016.00 L 57069317.00 22135016.00 L 57069317.00 22512236.00  zM 63220476.75 13842496.81 m -493671.19 0 a 493671.19 493671.19 0 1 1 987342.38 0a 493671.19 493671.19 0 1 1 -987342.38 0M 66200788.00 12145675.00 L 65767718.00 12145675.00 L 65767718.00 11909455.00 L 66200788.00 11909455.00 L 66200788.00 12145675.00  zM 57069317.00 21959484.00 L 56710211.00 21959484.00 L 56710211.00 21582264.00 L 57069317.00 21582264.00 L 57069317.00 21959484.00  zM 57659869.00 21959484.00 L 57300763.00 21959484.00 L 57300763.00 21582264.00 L 57659869.00 21582264.00 L 57659869.00 21959484.00  zM 63220476.75 22188952.81 m -493671.19 0 a 493671.19 493671.19 0 1 1 987342.38 0a 493671.19 493671.19 0 1 1 -987342.38 0M 57659869.00 22512236.00 L 57300763.00 22512236.00 L 57300763.00 22135016.00 L 57659869.00 22135016.00 L 57659869.00 22512236.00  zM 58475227.00 23604756.00 L 58098007.00 23604756.00 L 58098007.00 23245650.00 L 58475227.00 23245650.00 L 58475227.00 23604756.00  zM 59027979.00 23604756.00 L 58650759.00 23604756.00 L 58650759.00 23245650.00 L 59027979.00 23245650.00 L 59027979.00 23604756.00  zM 59951605.00 24195307.00 L 59574385.00 24195307.00 L 59574385.00 23836201.00 L 59951605.00 23836201.00 L 59951605.00 24195307.00  zM 60504357.00 24195307.00 L 60127137.00 24195307.00 L 60127137.00 23836201.00 L 60504357.00 23836201.00 L 60504357.00 24195307.00  zM 66438052.00 11498457.00 L 66060606.00 11498457.00 L 66060606.00 11139351.00 L 66438052.00 11139351.00 L 66438052.00 11498457.00  zM 67010262.00 11498457.00 L 66632816.00 11498457.00 L 66632816.00 11139351.00 L 67010262.00 11139351.00 L 67010262.00 11498457.00  zM 66200788.00 12519691.00 L 65767718.00 12519691.00 L 65767718.00 12283471.00 L 66200788.00 12283471.00 L 66200788.00 12519691.00  zM 67303150.00 12145675.00 L 66870080.00 12145675.00 L 66870080.00 11909455.00 L 67303150.00 11909455.00 L 67303150.00 12145675.00  zM 67303150.00 12519691.00 L 66870080.00 12519691.00 L 66870080.00 12283471.00 L 67303150.00 12283471.00 L 67303150.00 12519691.00  zM 66200788.00 12893707.00 L 65767718.00 12893707.00 L 65767718.00 12657487.00 L 66200788.00 12657487.00 L 66200788.00 12893707.00  zM 67303150.00 12893707.00 L 66870080.00 12893707.00 L 66870080.00 12657487.00 L 67303150.00 12657487.00 L 67303150.00 12893707.00  zM 67305538.00 14244520.00 L 66946432.00 14244520.00 L 66946432.00 13867300.00 L 67305538.00 13867300.00 L 67305538.00 14244520.00  zM 67305538.00 13691768.00 L 66946432.00 13691768.00 L 66946432.00 13314548.00 L 67305538.00 13314548.00 L 67305538.00 13691768.00  zM 69175616.00 14648063.00 L 68798170.00 14648063.00 L 68798170.00 14288957.00 L 69175616.00 14288957.00 L 69175616.00 14648063.00  zM 68603406.00 14648063.00 L 68225960.00 14648063.00 L 68225960.00 14288957.00 L 68603406.00 14288957.00 L 68603406.00 14648063.00  zM 67519684.12 16322843.96 m -334278.04 0 a 334278.04 334278.04 0 1 1 668556.08 0a 334278.04 334278.04 0 1 1 -668556.08 0M 67519684.12 17322843.96 m -334278.04 0 a 334278.04 334278.04 0 1 1 668556.08 0a 334278.04 334278.04 0 1 1 -668556.08 0M 67519684.12 18322843.96 m -334278.04 0 a 334278.04 334278.04 0 1 1 668556.08 0a 334278.04 334278.04 0 1 1 -668556.08 0M 68602362.00 20226384.00 L 67421260.00 20226384.00 L 67421260.00 19399612.00 L 68602362.00 19399612.00 L 68602362.00 20226384.00  zM 69350394.00 20974415.00 L 68838584.00 20974415.00 L 68838584.00 20659455.00 L 69350394.00 20659455.00 L 69350394.00 20974415.00  zM 69350394.00 21466541.00 L 68838584.00 21466541.00 L 68838584.00 21151581.00 L 69350394.00 21151581.00 L 69350394.00 21466541.00  zM 69350394.00 21958667.00 L 68838584.00 21958667.00 L 68838584.00 21643707.00 L 69350394.00 21643707.00 L 69350394.00 21958667.00  zM 68602362.00 23710636.00 L 67421260.00 23710636.00 L 67421260.00 22883864.00 L 68602362.00 22883864.00 L 68602362.00 23710636.00  zM 69350394.00 22450793.00 L 68838584.00 22450793.00 L 68838584.00 22135833.00 L 69350394.00 22135833.00 L 69350394.00 22450793.00  zM 70861384.00 12756752.00 L 70674050.00 12756752.00 L 70674050.00 12223196.00 L 70861384.00 12223196.00 L 70861384.00 12756752.00  zM 71734672.00 12904366.00 L 71375566.00 12904366.00 L 71375566.00 12527146.00 L 71734672.00 12527146.00 L 71734672.00 12904366.00  zM 70672215.00 13470551.00 L 70672215.00 13124329.00 A 95504.96 95504.96 0 0 1 70863219.00 13124329.00 L 70863219.00 13470551.00 A 95504.96 95504.96 0 0 1 70672215.00 13470551.00  zM 69864593.00 14676020.00 L 69505487.00 14676020.00 L 69505487.00 14298800.00 L 69864593.00 14298800.00 L 69864593.00 14676020.00  zM 70553569.00 14676020.00 L 70194463.00 14676020.00 L 70194463.00 14298800.00 L 70553569.00 14298800.00 L 70553569.00 14676020.00  zM 69864593.00 15228772.00 L 69505487.00 15228772.00 L 69505487.00 14851552.00 L 69864593.00 14851552.00 L 69864593.00 15228772.00  zM 70553569.00 15228772.00 L 70194463.00 15228772.00 L 70194463.00 14851552.00 L 70553569.00 14851552.00 L 70553569.00 15228772.00  zM 71242546.00 14676020.00 L 70883440.00 14676020.00 L 70883440.00 14298800.00 L 71242546.00 14298800.00 L 71242546.00 14676020.00  zM 69519684.12 16322843.96 m -334278.04 0 a 334278.04 334278.04 0 1 1 668556.08 0a 334278.04 334278.04 0 1 1 -668556.08 0M 71242546.00 15228772.00 L 70883440.00 15228772.00 L 70883440.00 14851552.00 L 71242546.00 14851552.00 L 71242546.00 15228772.00  zM 71873353.49 11637099.12 m -396937.88 0 a 396937.88 396937.88 0 1 1 793875.75 0a 396937.88 396937.88 0 1 1 -793875.75 0M 72423648.00 12904366.00 L 72064542.00 12904366.00 L 72064542.00 12527146.00 L 72423648.00 12527146.00 L 72423648.00 12904366.00  zM 71734672.00 13457118.00 L 71375566.00 13457118.00 L 71375566.00 13079898.00 L 71734672.00 13079898.00 L 71734672.00 13457118.00  zM 72423648.00 13457118.00 L 72064542.00 13457118.00 L 72064542.00 13079898.00 L 72423648.00 13079898.00 L 72423648.00 13457118.00  zM 71873353.49 14347099.12 m -396937.88 0 a 396937.88 396937.88 0 1 1 793875.75 0a 396937.88 396937.88 0 1 1 -793875.75 0M 73228351.13 12992106.82 m -296446.18 0 a 296446.18 296446.18 0 1 1 592892.36 0a 296446.18 296446.18 0 1 1 -592892.36 0M 74583353.49 11637099.12 m -396937.88 0 a 396937.88 396937.88 0 1 1 793875.75 0a 396937.88 396937.88 0 1 1 -793875.75 0M 74583353.49 14347099.12 m -396937.88 0 a 396937.88 396937.88 0 1 1 793875.75 0a 396937.88 396937.88 0 1 1 -793875.75 0M 75393703.35 10629907.43 m -237377.57 0 a 237377.57 237377.57 0 1 1 474755.15 0a 237377.57 237377.57 0 1 1 -474755.15 0M 77559053.22 11220484.24 m -1182951.76 0 a 1182951.76 1182951.76 0 1 1 2365903.51 0a 1182951.76 1182951.76 0 1 1 -2365903.51 0M 69519684.12 17322843.96 m -334278.04 0 a 334278.04 334278.04 0 1 1 668556.08 0a 334278.04 334278.04 0 1 1 -668556.08 0M 69519684.12 18322843.96 m -334278.04 0 a 334278.04 334278.04 0 1 1 668556.08 0a 334278.04 334278.04 0 1 1 -668556.08 0M 71861053.00 19470898.00 L 71483833.00 19470898.00 L 71483833.00 19111792.00 L 71861053.00 19111792.00 L 71861053.00 19470898.00  zM 72549214.00 18809055.00 L 71938978.00 18809055.00 L 71938978.00 18198819.00 L 72549214.00 18198819.00 L 72549214.00 18809055.00  zM 72413805.00 19470898.00 L 72036585.00 19470898.00 L 72036585.00 19111792.00 L 72413805.00 19111792.00 L 72413805.00 19470898.00  zM 72451605.00 20159874.00 L 72074385.00 20159874.00 L 72074385.00 19800768.00 L 72451605.00 19800768.00 L 72451605.00 20159874.00  zM 73004357.00 20159874.00 L 72627137.00 20159874.00 L 72627137.00 19800768.00 L 73004357.00 19800768.00 L 73004357.00 20159874.00  zM 70588648.00 21870078.00 L 70588648.00 21043308.00 A 395576.57 395576.57 0 1 1 71379860.00 21043308.00 L 71379860.00 21870078.00 A 395576.57 395576.57 0 1 1 70588648.00 21870078.00  zM 73140581.00 22718929.00 L 72763361.00 22718929.00 L 72763361.00 22359823.00 L 73140581.00 22359823.00 L 73140581.00 22718929.00  zM 72244093.63 24212612.19 m -306580.81 0 a 306580.81 306580.81 0 1 1 613161.63 0a 306580.81 306580.81 0 1 1 -613161.63 0M 73228345.63 18503950.19 m -306580.81 0 a 306580.81 306580.81 0 1 1 613161.63 0a 306580.81 306580.81 0 1 1 -613161.63 0M 74321683.00 19470898.00 L 73944463.00 19470898.00 L 73944463.00 19111792.00 L 74321683.00 19111792.00 L 74321683.00 19470898.00  zM 74212597.63 18503950.19 m -306580.81 0 a 306580.81 306580.81 0 1 1 613161.63 0a 306580.81 306580.81 0 1 1 -613161.63 0M 74874435.00 19470898.00 L 74497215.00 19470898.00 L 74497215.00 19111792.00 L 74874435.00 19111792.00 L 74874435.00 19470898.00  zM 74283884.00 20159874.00 L 73906664.00 20159874.00 L 73906664.00 19800768.00 L 74283884.00 19800768.00 L 74283884.00 20159874.00  zM 73731132.00 20159874.00 L 73353912.00 20159874.00 L 73353912.00 19800768.00 L 73731132.00 19800768.00 L 73731132.00 20159874.00  zM 73693333.00 22718929.00 L 73316113.00 22718929.00 L 73316113.00 22359823.00 L 73693333.00 22359823.00 L 73693333.00 22718929.00  zM 74212597.63 24212612.19 m -306580.81 0 a 306580.81 306580.81 0 1 1 613161.63 0a 306580.81 306580.81 0 1 1 -613161.63 0M 75076836.00 21870078.00 L 75076836.00 21043308.00 A 395576.57 395576.57 0 1 1 75868048.00 21043308.00 L 75868048.00 21870078.00 A 395576.57 395576.57 0 1 1 75076836.00 21870078.00  zM 77559053.22 23425208.24 m -1182951.76 0 a 1182951.76 1182951.76 0 1 1 2365903.51 0a 1182951.76 1182951.76 0 1 1 -2365903.51 0"/>
</g>
</svg>
