<svg width="179.00000776mm" height="38.00002814mm" viewBox="0 0 70472444 14960641"  version="1.1" xmlns="http://www.w3.org/2000/svg" xmlns:xlink="http://www.w3.org/1999/xlink">
<desc>
Origin 43700788 9842526 Bound 8464567 9842515 70472444 14960641
</desc>
<g fill-rule="evenodd" fill="rgb(255, 0, 255)" stroke="black" stroke-width="1" transform="translate(0, 14960641) scale(1, -1) translate(-8464567, -9842515)">
<path id="N" d="M 77667503.00 24803150.00 A 1382227.88 1382227.88 0 0 0 77667503.00 22047244.00 L 77559056.00 22047243.00 L 77481808.00 22044714.00 A 1181135.09 1181135.09 0 0 1 76377955.00 20866142.00 L 76377955.00 13779528.00 L 76380483.00 13702280.00 A 1181135.09 1181135.09 0 0 1 77559056.00 12598425.00 L 77667503.00 12598425.00 A 1382205.90 1382205.90 0 0 0 77667503.00 9842515.00 L 9734072.00 9842520.00 A 1382187.39 1382187.39 0 0 0 9734072.00 12598426.00 L 9842520.00 12598427.00 L 9919767.00 12600955.00 A 1181135.09 1181135.09 0 0 1 11023621.00 13779528.00 L 11023621.00 20866142.00 L 11021092.00 20943389.00 A 1181135.09 1181135.09 0 0 1 9842520.00 22047244.00 L 9734072.00 22047244.00 A 1382187.39 1382187.39 0 0 0 9734072.00 24803150.00 L 77667503.00 24803150.00  zM 9842516.95 11220493.27 m -1184733.73 0 a 1184733.73 1184733.73 0 1 1 2369467.46 0a 1184733.73 1184733.73 0 1 1 -2369467.46 0M 13760236.00 16516149.00 L 12519292.00 16516149.00 L 12519292.00 15629535.00 L 13760236.00 15629535.00 L 13760236.00 16516149.00  zM 14508268.00 17264180.00 L 13936616.00 17264180.00 L 13936616.00 16889378.00 L 14508268.00 16889378.00 L 14508268.00 17264180.00  zM 17322836.56 16322830.94 m -299819.06 0 a 299819.06 299819.06 0 1 1 599638.11 0a 299819.06 299819.06 0 1 1 -599638.11 0M 18781915.00 15945932.00 L 18422809.00 15945932.00 L 18422809.00 15568486.00 L 18781915.00 15568486.00 L 18781915.00 15945932.00  zM 18781915.00 16518142.00 L 18422809.00 16518142.00 L 18422809.00 16140696.00 L 18781915.00 16140696.00 L 18781915.00 16518142.00  zM 19730737.00 16158143.00 L 19363373.00 16158143.00 A 114828.16 114828.16 0 1 1 19363373.00 15928483.00 L 19730737.00 15928483.00 A 114828.16 114828.16 0 1 1 19730737.00 16158143.00  zM 19843361.00 15781921.00 L 19250749.00 15781921.00 L 19250749.00 15556673.00 L 19843361.00 15556673.00 L 19843361.00 15781921.00  zM 19730737.00 16532159.00 L 19363373.00 16532159.00 A 114828.16 114828.16 0 1 1 19363373.00 16302499.00 L 19730737.00 16302499.00 A 114828.16 114828.16 0 1 1 19730737.00 16532159.00  zM 13760236.00 19016149.00 L 12519292.00 19016149.00 L 12519292.00 18129535.00 L 13760236.00 18129535.00 L 13760236.00 19016149.00  zM 12007870.50 22637805.68 m -240838.32 0 a 240838.32 240838.32 0 1 1 481676.63 0a 240838.32 240838.32 0 1 1 -481676.63 0M 9842516.95 23425217.27 m -1184733.73 0 a 1184733.73 1184733.73 0 1 1 2369467.46 0a 1184733.73 1184733.73 0 1 1 -2369467.46 0M 14508268.00 17756306.00 L 13936616.00 17756306.00 L 13936616.00 17381504.00 L 14508268.00 17381504.00 L 14508268.00 17756306.00  zM 17620078.00 18620085.00 L 17025590.00 18620085.00 L 17025590.00 18025597.00 L 17620078.00 18025597.00 L 17620078.00 18620085.00  zM 17322836.56 17322830.94 m -299819.06 0 a 299819.06 299819.06 0 1 1 599638.11 0a 299819.06 299819.06 0 1 1 -599638.11 0M 19557480.00 18651974.00 L 18434646.00 18651974.00 L 18434646.00 18080322.00 L 19557480.00 18080322.00 L 19557480.00 18651974.00  zM 19557480.00 17549612.00 L 18434646.00 17549612.00 L 18434646.00 16977960.00 L 19557480.00 16977960.00 L 19557480.00 17549612.00  zM 20159868.00 18289795.00 L 19800762.00 18289795.00 L 19800762.00 17912349.00 L 20159868.00 17912349.00 L 20159868.00 18289795.00  zM 20597259.00 15784127.00 L 20229895.00 15784127.00 A 114828.16 114828.16 0 0 1 20229895.00 15554467.00 L 20597259.00 15554467.00 A 114828.16 114828.16 0 0 1 20597259.00 15784127.00  zM 21340970.00 15945932.00 L 20981864.00 15945932.00 L 20981864.00 15568486.00 L 21340970.00 15568486.00 L 21340970.00 15945932.00  zM 21340970.00 16518142.00 L 20981864.00 16518142.00 L 20981864.00 16140696.00 L 21340970.00 16140696.00 L 21340970.00 16518142.00  zM 20597259.00 16532159.00 L 20229895.00 16532159.00 A 114828.16 114828.16 0 0 1 20229895.00 16302499.00 L 20597259.00 16302499.00 A 114828.16 114828.16 0 0 1 20597259.00 16532159.00  zM 20159868.00 17717585.00 L 19800762.00 17717585.00 L 19800762.00 17340139.00 L 20159868.00 17340139.00 L 20159868.00 17717585.00  zM 23415747.00 17018116.00 L 22844095.00 17018116.00 L 22844095.00 16643314.00 L 23415747.00 16643314.00 L 23415747.00 17018116.00  zM 24833071.00 16270085.00 L 23592127.00 16270085.00 L 23592127.00 15383471.00 L 24833071.00 15383471.00 L 24833071.00 16270085.00  zM 23415747.00 17510242.00 L 22844095.00 17510242.00 L 22844095.00 17135440.00 L 23415747.00 17135440.00 L 23415747.00 17510242.00  zM 23415747.00 18002368.00 L 22844095.00 18002368.00 L 22844095.00 17627566.00 L 23415747.00 17627566.00 L 23415747.00 18002368.00  zM 24833071.00 19262211.00 L 23592127.00 19262211.00 L 23592127.00 18375597.00 L 24833071.00 18375597.00 L 24833071.00 19262211.00  zM 25266143.00 21880321.00 L 24143309.00 21880321.00 L 24143309.00 21308669.00 L 25266143.00 21308669.00 L 25266143.00 21880321.00  zM 23211050.00 21959484.00 L 22851944.00 21959484.00 L 22851944.00 21582264.00 L 23211050.00 21582264.00 L 23211050.00 21959484.00  zM 23211050.00 22512236.00 L 22851944.00 22512236.00 L 22851944.00 22135016.00 L 23211050.00 22135016.00 L 23211050.00 22512236.00  zM 23801602.00 21959484.00 L 23442496.00 21959484.00 L 23442496.00 21582264.00 L 23801602.00 21582264.00 L 23801602.00 21959484.00  zM 23801602.00 22512236.00 L 23442496.00 22512236.00 L 23442496.00 22135016.00 L 23801602.00 22135016.00 L 23801602.00 22512236.00  zM 25266143.00 22982683.00 L 24143309.00 22982683.00 L 24143309.00 22411031.00 L 25266143.00 22411031.00 L 25266143.00 22982683.00  zM 24616960.00 23604756.00 L 24239740.00 23604756.00 L 24239740.00 23245650.00 L 24616960.00 23245650.00 L 24616960.00 23604756.00  zM 24537796.00 24232683.00 L 24162994.00 24232683.00 L 24162994.00 23995677.00 L 24537796.00 23995677.00 L 24537796.00 24232683.00  zM 26024015.00 17461028.00 L 25452363.00 17461028.00 L 25452363.00 17086226.00 L 26024015.00 17086226.00 L 26024015.00 17461028.00  zM 27441339.00 16712997.00 L 26200395.00 16712997.00 L 26200395.00 15826383.00 L 27441339.00 15826383.00 L 27441339.00 16712997.00  zM 26024015.00 17953154.00 L 25452363.00 17953154.00 L 25452363.00 17578352.00 L 26024015.00 17578352.00 L 26024015.00 17953154.00  zM 28061841.00 17305544.00 L 27684621.00 17305544.00 L 27684621.00 16946438.00 L 28061841.00 16946438.00 L 28061841.00 17305544.00  zM 28061841.00 17994520.00 L 27684621.00 17994520.00 L 27684621.00 17635414.00 L 28061841.00 17635414.00 L 28061841.00 17994520.00  zM 29362201.05 13842534.19 m -496358.81 0 a 496358.81 496358.81 0 1 1 992717.61 0a 496358.81 496358.81 0 1 1 -992717.61 0M 32078739.99 15015749.89 m -347855.11 0 a 347855.11 347855.11 0 1 1 695710.23 0a 347855.11 347855.11 0 1 1 -695710.23 0M 28614593.00 17305544.00 L 28237373.00 17305544.00 L 28237373.00 16946438.00 L 28614593.00 16946438.00 L 28614593.00 17305544.00  zM 28614593.00 17994520.00 L 28237373.00 17994520.00 L 28237373.00 17635414.00 L 28614593.00 17635414.00 L 28614593.00 17994520.00  zM 32579784.00 11498457.00 L 32202338.00 11498457.00 L 32202338.00 11139351.00 L 32579784.00 11139351.00 L 32579784.00 11498457.00  zM 32342520.00 12145675.00 L 31909450.00 12145675.00 L 31909450.00 11909455.00 L 32342520.00 11909455.00 L 32342520.00 12145675.00  zM 32342520.00 12519691.00 L 31909450.00 12519691.00 L 31909450.00 12283471.00 L 32342520.00 12283471.00 L 32342520.00 12519691.00  zM 33151994.00 11498457.00 L 32774548.00 11498457.00 L 32774548.00 11139351.00 L 33151994.00 11139351.00 L 33151994.00 11498457.00  zM 33444882.00 12145675.00 L 33011812.00 12145675.00 L 33011812.00 11909455.00 L 33444882.00 11909455.00 L 33444882.00 12145675.00  zM 32342520.00 12893707.00 L 31909450.00 12893707.00 L 31909450.00 12657487.00 L 32342520.00 12657487.00 L 32342520.00 12893707.00  zM 33444882.00 12893707.00 L 33011812.00 12893707.00 L 33011812.00 12657487.00 L 33444882.00 12657487.00 L 33444882.00 12893707.00  zM 32078739.99 16015749.89 m -347855.11 0 a 347855.11 347855.11 0 1 1 695710.23 0a 347855.11 347855.11 0 1 1 -695710.23 0M 32078739.99 17015749.89 m -347855.11 0 a 347855.11 347855.11 0 1 1 695710.23 0a 347855.11 347855.11 0 1 1 -695710.23 0M 27441339.00 19212997.00 L 26200395.00 19212997.00 L 26200395.00 18326383.00 L 27441339.00 18326383.00 L 27441339.00 19212997.00  zM 26224804.00 21900006.00 L 25389372.00 21900006.00 L 25389372.00 21603944.00 L 26224804.00 21603944.00 L 26224804.00 21900006.00  zM 26224804.00 22400006.00 L 25389372.00 22400006.00 L 25389372.00 22103944.00 L 26224804.00 22103944.00 L 26224804.00 22400006.00  zM 26224804.00 22900006.00 L 25389372.00 22900006.00 L 25389372.00 22603944.00 L 26224804.00 22603944.00 L 26224804.00 22900006.00  zM 26224804.00 23400006.00 L 25389372.00 23400006.00 L 25389372.00 23103944.00 L 26224804.00 23103944.00 L 26224804.00 23400006.00  zM 25169712.00 23604756.00 L 24792492.00 23604756.00 L 24792492.00 23245650.00 L 25169712.00 23245650.00 L 25169712.00 23604756.00  zM 25443308.00 24232683.00 L 25068506.00 24232683.00 L 25068506.00 23995677.00 L 25443308.00 23995677.00 L 25443308.00 24232683.00  zM 26093338.00 24195307.00 L 25716118.00 24195307.00 L 25716118.00 23836201.00 L 26093338.00 23836201.00 L 26093338.00 24195307.00  zM 26646090.00 24195307.00 L 26268870.00 24195307.00 L 26268870.00 23836201.00 L 26646090.00 23836201.00 L 26646090.00 24195307.00  zM 28173622.00 21900006.00 L 27338190.00 21900006.00 L 27338190.00 21603944.00 L 28173622.00 21603944.00 L 28173622.00 21900006.00  zM 32078739.99 18015749.89 m -347855.11 0 a 347855.11 347855.11 0 1 1 695710.23 0a 347855.11 347855.11 0 1 1 -695710.23 0M 32078739.99 21015749.89 m -347855.11 0 a 347855.11 347855.11 0 1 1 695710.23 0a 347855.11 347855.11 0 1 1 -695710.23 0M 32078739.99 19015749.89 m -347855.11 0 a 347855.11 347855.11 0 1 1 695710.23 0a 347855.11 347855.11 0 1 1 -695710.23 0M 32078739.99 20015749.89 m -347855.11 0 a 347855.11 347855.11 0 1 1 695710.23 0a 347855.11 347855.11 0 1 1 -695710.23 0M 28173622.00 22900006.00 L 27338190.00 22900006.00 L 27338190.00 22603944.00 L 28173622.00 22603944.00 L 28173622.00 22900006.00  zM 28173622.00 22400006.00 L 27338190.00 22400006.00 L 27338190.00 22103944.00 L 28173622.00 22103944.00 L 28173622.00 22400006.00  zM 28173622.00 23400006.00 L 27338190.00 23400006.00 L 27338190.00 23103944.00 L 28173622.00 23103944.00 L 28173622.00 23400006.00  zM 29362201.05 22188990.19 m -496358.81 0 a 496358.81 496358.81 0 1 1 992717.61 0a 496358.81 496358.81 0 1 1 -992717.61 0M 33444882.00 12519691.00 L 33011812.00 12519691.00 L 33011812.00 12283471.00 L 33444882.00 12283471.00 L 33444882.00 12519691.00  zM 34212795.00 13124548.00 L 33720275.00 13124548.00 L 33682459.00 13108884.00 L 33666795.00 13071068.00 L 33666795.00 12932880.00 L 33682459.00 12895064.00 L 33720275.00 12879400.00 L 34212795.00 12879400.00 L 34250611.00 12895064.00 L 34266275.00 12932880.00 L 34266275.00 13071068.00 L 34250611.00 13108884.00 L 34212795.00 13124548.00  zM 34212795.00 13380454.00 L 33720275.00 13380454.00 L 33682459.00 13364790.00 L 33666795.00 13326974.00 L 33666795.00 13188786.00 L 33682459.00 13150970.00 L 33720275.00 13135306.00 L 34212795.00 13135306.00 L 34250611.00 13150970.00 L 34266275.00 13188786.00 L 34266275.00 13326974.00 L 34250611.00 13364790.00 L 34212795.00 13380454.00  zM 33447270.00 13691768.00 L 33088164.00 13691768.00 L 33088164.00 13314548.00 L 33447270.00 13314548.00 L 33447270.00 13691768.00  zM 34212795.00 13892265.00 L 33720275.00 13892265.00 L 33682459.00 13876601.00 L 33666795.00 13838785.00 L 33666795.00 13700597.00 L 33682459.00 13662781.00 L 33720275.00 13647117.00 L 34212795.00 13647117.00 L 34250611.00 13662781.00 L 34266275.00 13700597.00 L 34266275.00 13838785.00 L 34250611.00 13876601.00 L 34212795.00 13892265.00  zM 34212795.00 13636359.00 L 33720275.00 13636359.00 L 33682459.00 13620695.00 L 33666795.00 13582879.00 L 33666795.00 13444691.00 L 33682459.00 13406875.00 L 33720275.00 13391211.00 L 34212795.00 13391211.00 L 34250611.00 13406875.00 L 34266275.00 13444691.00 L 34266275.00 13582879.00 L 34250611.00 13620695.00 L 34212795.00 13636359.00  zM 35964764.00 13380454.00 L 35472244.00 13380454.00 L 35434428.00 13364790.00 L 35418764.00 13326974.00 L 35418764.00 13188786.00 L 35434428.00 13150970.00 L 35472244.00 13135306.00 L 35964764.00 13135306.00 L 36002580.00 13150970.00 L 36018244.00 13188786.00 L 36018244.00 13326974.00 L 36002580.00 13364790.00 L 35964764.00 13380454.00  zM 35964764.00 13124548.00 L 35472244.00 13124548.00 L 35434428.00 13108884.00 L 35418764.00 13071068.00 L 35418764.00 12932880.00 L 35434428.00 12895064.00 L 35472244.00 12879400.00 L 35964764.00 12879400.00 L 36002580.00 12895064.00 L 36018244.00 12932880.00 L 36018244.00 13071068.00 L 36002580.00 13108884.00 L 35964764.00 13124548.00  zM 35964764.00 13636359.00 L 35472244.00 13636359.00 L 35434428.00 13620695.00 L 35418764.00 13582879.00 L 35418764.00 13444691.00 L 35434428.00 13406875.00 L 35472244.00 13391211.00 L 35964764.00 13391211.00 L 36002580.00 13406875.00 L 36018244.00 13444691.00 L 36018244.00 13582879.00 L 36002580.00 13620695.00 L 35964764.00 13636359.00  zM 33447270.00 14244520.00 L 33088164.00 14244520.00 L 33088164.00 13867300.00 L 33447270.00 13867300.00 L 33447270.00 14244520.00  zM 34745138.00 14648063.00 L 34367692.00 14648063.00 L 34367692.00 14288957.00 L 34745138.00 14288957.00 L 34745138.00 14648063.00  zM 35317348.00 14648063.00 L 34939902.00 14648063.00 L 34939902.00 14288957.00 L 35317348.00 14288957.00 L 35317348.00 14648063.00  zM 35964764.00 13892265.00 L 35472244.00 13892265.00 L 35434428.00 13876601.00 L 35418764.00 13838785.00 L 35418764.00 13700597.00 L 35434428.00 13662781.00 L 35472244.00 13647117.00 L 35964764.00 13647117.00 L 36002580.00 13662781.00 L 36018244.00 13700597.00 L 36018244.00 13838785.00 L 36002580.00 13876601.00 L 35964764.00 13892265.00  zM 36006325.00 14676020.00 L 35647219.00 14676020.00 L 35647219.00 14298800.00 L 36006325.00 14298800.00 L 36006325.00 14676020.00  zM 36006325.00 15228772.00 L 35647219.00 15228772.00 L 35647219.00 14851552.00 L 36006325.00 14851552.00 L 36006325.00 15228772.00  zM 35661420.78 16322821.49 m -335561.51 0 a 335561.51 335561.51 0 1 1 671123.02 0a 335561.51 335561.51 0 1 1 -671123.02 0M 33661420.78 16322821.49 m -335561.51 0 a 335561.51 335561.51 0 1 1 671123.02 0a 335561.51 335561.51 0 1 1 -671123.02 0M 33661420.78 17322821.49 m -335561.51 0 a 335561.51 335561.51 0 1 1 671123.02 0a 335561.51 335561.51 0 1 1 -671123.02 0M 36904691.00 12678243.00 L 36717357.00 12678243.00 L 36717357.00 12144687.00 L 36904691.00 12144687.00 L 36904691.00 12678243.00  zM 37777979.00 12825857.00 L 37418873.00 12825857.00 L 37418873.00 12448637.00 L 37777979.00 12448637.00 L 37777979.00 12825857.00  zM 37777979.00 13378609.00 L 37418873.00 13378609.00 L 37418873.00 13001389.00 L 37777979.00 13001389.00 L 37777979.00 13378609.00  zM 36715522.00 13392042.00 L 36715522.00 13045820.00 A 95504.96 95504.96 0 1 1 36906526.00 13045820.00 L 36906526.00 13392042.00 A 95504.96 95504.96 0 1 1 36715522.00 13392042.00  zM 38015074.31 14347146.39 m -398387.61 0 a 398387.61 398387.61 0 1 1 796775.21 0a 398387.61 398387.61 0 1 1 -796775.21 0M 36695302.00 14676020.00 L 36336196.00 14676020.00 L 36336196.00 14298800.00 L 36695302.00 14298800.00 L 36695302.00 14676020.00  zM 36695302.00 15228772.00 L 36336196.00 15228772.00 L 36336196.00 14851552.00 L 36695302.00 14851552.00 L 36695302.00 15228772.00  zM 37384278.00 14676020.00 L 37025172.00 14676020.00 L 37025172.00 14298800.00 L 37384278.00 14298800.00 L 37384278.00 14676020.00  zM 37384278.00 15228772.00 L 37025172.00 15228772.00 L 37025172.00 14851552.00 L 37384278.00 14851552.00 L 37384278.00 15228772.00  zM 38015074.31 11637146.39 m -398387.61 0 a 398387.61 398387.61 0 1 1 796775.21 0a 398387.61 398387.61 0 1 1 -796775.21 0M 38466955.00 12825857.00 L 38107849.00 12825857.00 L 38107849.00 12448637.00 L 38466955.00 12448637.00 L 38466955.00 12825857.00  zM 38466955.00 13378609.00 L 38107849.00 13378609.00 L 38107849.00 13001389.00 L 38466955.00 13001389.00 L 38466955.00 13378609.00  zM 39370080.18 12992124.14 m -297547.86 0 a 297547.86 297547.86 0 1 1 595095.72 0a 297547.86 297547.86 0 1 1 -595095.72 0M 40725074.31 14347146.39 m -398387.61 0 a 398387.61 398387.61 0 1 1 796775.21 0a 398387.61 398387.61 0 1 1 -796775.21 0M 40725074.31 11637146.39 m -398387.61 0 a 398387.61 398387.61 0 1 1 796775.21 0a 398387.61 398387.61 0 1 1 -796775.21 0M 42814959.42 13188993.09 m -306151.91 0 a 306151.91 306151.91 0 1 1 612303.83 0a 306151.91 306151.91 0 1 1 -612303.83 0M 43700783.95 11220493.27 m -1184733.73 0 a 1184733.73 1184733.73 0 1 1 2369467.46 0a 1184733.73 1184733.73 0 1 1 -2369467.46 0M 43814959.42 13188993.09 m -306151.91 0 a 306151.91 306151.91 0 1 1 612303.83 0a 306151.91 306151.91 0 1 1 -612303.83 0M 33661420.78 18322821.49 m -335561.51 0 a 335561.51 335561.51 0 1 1 671123.02 0a 335561.51 335561.51 0 1 1 -671123.02 0M 35661420.78 18322821.49 m -335561.51 0 a 335561.51 335561.51 0 1 1 671123.02 0a 335561.51 335561.51 0 1 1 -671123.02 0M 35661420.78 17322821.49 m -335561.51 0 a 335561.51 335561.51 0 1 1 671123.02 0a 335561.51 335561.51 0 1 1 -671123.02 0M 37412597.00 19626379.00 L 36959055.00 19626379.00 L 36959055.00 19153151.00 L 37412597.00 19153151.00 L 37412597.00 19626379.00  zM 38082312.00 19470892.00 L 37705092.00 19470892.00 L 37705092.00 19111786.00 L 38082312.00 19111786.00 L 38082312.00 19470892.00  zM 38690945.00 18809055.00 L 38080709.00 18809055.00 L 38080709.00 18198819.00 L 38690945.00 18198819.00 L 38690945.00 18809055.00  zM 38635064.00 19470892.00 L 38257844.00 19470892.00 L 38257844.00 19111786.00 L 38635064.00 19111786.00 L 38635064.00 19470892.00  zM 38672863.00 20061443.00 L 38295643.00 20061443.00 L 38295643.00 19702337.00 L 38672863.00 19702337.00 L 38672863.00 20061443.00  zM 39225615.00 20061443.00 L 38848395.00 20061443.00 L 38848395.00 19702337.00 L 39225615.00 19702337.00 L 39225615.00 20061443.00  zM 34842519.00 20374022.00 L 33661417.00 20374022.00 L 33661417.00 19547250.00 L 34842519.00 19547250.00 L 34842519.00 20374022.00  zM 35590551.00 21614179.00 L 35078741.00 21614179.00 L 35078741.00 21299219.00 L 35590551.00 21299219.00 L 35590551.00 21614179.00  zM 35590551.00 22106305.00 L 35078741.00 22106305.00 L 35078741.00 21791345.00 L 35590551.00 21791345.00 L 35590551.00 22106305.00  zM 34842519.00 23858274.00 L 33661417.00 23858274.00 L 33661417.00 23031502.00 L 34842519.00 23031502.00 L 34842519.00 23858274.00  zM 35590551.00 22598431.00 L 35078741.00 22598431.00 L 35078741.00 22283471.00 L 35590551.00 22283471.00 L 35590551.00 22598431.00  zM 35590551.00 21122053.00 L 35078741.00 21122053.00 L 35078741.00 20807093.00 L 35590551.00 20807093.00 L 35590551.00 21122053.00  zM 37412597.00 20216930.00 L 36959055.00 20216930.00 L 36959055.00 19743702.00 L 37412597.00 19743702.00 L 37412597.00 20216930.00  zM 36728887.00 21870078.00 L 36728887.00 21043308.00 A 397100.93 397100.93 0 0 1 37523083.00 21043308.00 L 37523083.00 21870078.00 A 397100.93 397100.93 0 0 1 36728887.00 21870078.00  zM 38385823.21 24212616.21 m -307733.79 0 a 307733.79 307733.79 0 1 1 615467.57 0a 307733.79 307733.79 0 1 1 -615467.57 0M 39370075.21 18503954.21 m -307733.79 0 a 307733.79 307733.79 0 1 1 615467.57 0a 307733.79 307733.79 0 1 1 -615467.57 0M 40444516.00 19470892.00 L 40067296.00 19470892.00 L 40067296.00 19111786.00 L 40444516.00 19111786.00 L 40444516.00 19470892.00  zM 40354327.21 18503954.21 m -307733.79 0 a 307733.79 307733.79 0 1 1 615467.57 0a 307733.79 307733.79 0 1 1 -615467.57 0M 39853965.00 20061443.00 L 39476745.00 20061443.00 L 39476745.00 19702337.00 L 39853965.00 19702337.00 L 39853965.00 20061443.00  zM 40406717.00 20061443.00 L 40029497.00 20061443.00 L 40029497.00 19702337.00 L 40406717.00 19702337.00 L 40406717.00 20061443.00  zM 40997268.00 19470892.00 L 40620048.00 19470892.00 L 40620048.00 19111786.00 L 40997268.00 19111786.00 L 40997268.00 19470892.00  zM 41743305.00 19626379.00 L 41289763.00 19626379.00 L 41289763.00 19153151.00 L 41743305.00 19153151.00 L 41743305.00 19626379.00  zM 41743305.00 20216930.00 L 41289763.00 20216930.00 L 41289763.00 19743702.00 L 41743305.00 19743702.00 L 41743305.00 20216930.00  zM 44814959.42 20188993.09 m -306151.91 0 a 306151.91 306151.91 0 1 1 612303.83 0a 306151.91 306151.91 0 1 1 -612303.83 0M 39460264.00 22620498.00 L 39083044.00 22620498.00 L 39083044.00 22261392.00 L 39460264.00 22261392.00 L 39460264.00 22620498.00  zM 39489368.00 23258267.00 L 39016140.00 23258267.00 L 39016140.00 22804725.00 L 39489368.00 22804725.00 L 39489368.00 23258267.00  zM 40013016.00 22620498.00 L 39635796.00 22620498.00 L 39635796.00 22261392.00 L 40013016.00 22261392.00 L 40013016.00 22620498.00  zM 40079919.00 23258267.00 L 39606691.00 23258267.00 L 39606691.00 22804725.00 L 40079919.00 22804725.00 L 40079919.00 23258267.00  zM 40354327.21 24212616.21 m -307733.79 0 a 307733.79 307733.79 0 1 1 615467.57 0a 307733.79 307733.79 0 1 1 -615467.57 0M 43118505.00 20492526.00 L 42511419.00 20492526.00 L 42511419.00 19885440.00 L 43118505.00 19885440.00 L 43118505.00 20492526.00  zM 43814959.42 20188993.09 m -306151.91 0 a 306151.91 306151.91 0 1 1 612303.83 0a 306151.91 306151.91 0 1 1 -612303.83 0M 41217075.00 21870078.00 L 41217075.00 21043308.00 A 397100.93 397100.93 0 0 1 42011271.00 21043308.00 L 42011271.00 21870078.00 A 397100.93 397100.93 0 0 1 41217075.00 21870078.00  zM 43700784.95 23425217.27 m -1184733.73 0 a 1184733.73 1184733.73 0 1 1 2369467.46 0a 1184733.73 1184733.73 0 1 1 -2369467.46 0M 44814959.42 13188993.09 m -306151.91 0 a 306151.91 306151.91 0 1 1 612303.83 0a 306151.91 306151.91 0 1 1 -612303.83 0M 45814959.42 13188993.09 m -306151.91 0 a 306151.91 306151.91 0 1 1 612303.83 0a 306151.91 306151.91 0 1 1 -612303.83 0M 46814959.42 13188993.09 m -306151.91 0 a 306151.91 306151.91 0 1 1 612303.83 0a 306151.91 306151.91 0 1 1 -612303.83 0M 47814959.42 13188993.09 m -306151.91 0 a 306151.91 306151.91 0 1 1 612303.83 0a 306151.91 306151.91 0 1 1 -612303.83 0M 48814959.42 13188993.09 m -306151.91 0 a 306151.91 306151.91 0 1 1 612303.83 0a 306151.91 306151.91 0 1 1 -612303.83 0M 45814959.42 20188993.09 m -306151.91 0 a 306151.91 306151.91 0 1 1 612303.83 0a 306151.91 306151.91 0 1 1 -612303.83 0M 46814959.42 20188993.09 m -306151.91 0 a 306151.91 306151.91 0 1 1 612303.83 0a 306151.91 306151.91 0 1 1 -612303.83 0M 47814959.42 20188993.09 m -306151.91 0 a 306151.91 306151.91 0 1 1 612303.83 0a 306151.91 306151.91 0 1 1 -612303.83 0M 48814959.42 20188993.09 m -306151.91 0 a 306151.91 306151.91 0 1 1 612303.83 0a 306151.91 306151.91 0 1 1 -612303.83 0M 49814959.42 13188993.09 m -306151.91 0 a 306151.91 306151.91 0 1 1 612303.83 0a 306151.91 306151.91 0 1 1 -612303.83 0M 50814959.42 13188993.09 m -306151.91 0 a 306151.91 306151.91 0 1 1 612303.83 0a 306151.91 306151.91 0 1 1 -612303.83 0M 51814959.42 13188993.09 m -306151.91 0 a 306151.91 306151.91 0 1 1 612303.83 0a 306151.91 306151.91 0 1 1 -612303.83 0M 50966955.00 18613028.00 L 50607849.00 18613028.00 L 50607849.00 18235808.00 L 50966955.00 18235808.00 L 50966955.00 18613028.00  zM 50966955.00 19165780.00 L 50607849.00 19165780.00 L 50607849.00 18788560.00 L 50966955.00 18788560.00 L 50966955.00 19165780.00  zM 49814959.42 20188993.09 m -306151.91 0 a 306151.91 306151.91 0 1 1 612303.83 0a 306151.91 306151.91 0 1 1 -612303.83 0M 50814959.42 20188993.09 m -306151.91 0 a 306151.91 306151.91 0 1 1 612303.83 0a 306151.91 306151.91 0 1 1 -612303.83 0M 51814959.42 20188993.09 m -306151.91 0 a 306151.91 306151.91 0 1 1 612303.83 0a 306151.91 306151.91 0 1 1 -612303.83 0M 52814959.42 20188993.09 m -306151.91 0 a 306151.91 306151.91 0 1 1 612303.83 0a 306151.91 306151.91 0 1 1 -612303.83 0M 52814959.42 13188993.09 m -306151.91 0 a 306151.91 306151.91 0 1 1 612303.83 0a 306151.91 306151.91 0 1 1 -612303.83 0M 53814959.42 13188993.09 m -306151.91 0 a 306151.91 306151.91 0 1 1 612303.83 0a 306151.91 306151.91 0 1 1 -612303.83 0M 54814959.42 13188993.09 m -306151.91 0 a 306151.91 306151.91 0 1 1 612303.83 0a 306151.91 306151.91 0 1 1 -612303.83 0M 55814959.42 13188993.09 m -306151.91 0 a 306151.91 306151.91 0 1 1 612303.83 0a 306151.91 306151.91 0 1 1 -612303.83 0M 56814959.42 13188993.09 m -306151.91 0 a 306151.91 306151.91 0 1 1 612303.83 0a 306151.91 306151.91 0 1 1 -612303.83 0M 57814959.42 13188993.09 m -306151.91 0 a 306151.91 306151.91 0 1 1 612303.83 0a 306151.91 306151.91 0 1 1 -612303.83 0M 55986640.00 18514603.00 L 55627534.00 18514603.00 L 55627534.00 18137383.00 L 55986640.00 18137383.00 L 55986640.00 18514603.00  zM 55986640.00 19067355.00 L 55627534.00 19067355.00 L 55627534.00 18690135.00 L 55986640.00 18690135.00 L 55986640.00 19067355.00  zM 57814959.42 20188993.09 m -306151.91 0 a 306151.91 306151.91 0 1 1 612303.83 0a 306151.91 306151.91 0 1 1 -612303.83 0M 53814959.42 20188993.09 m -306151.91 0 a 306151.91 306151.91 0 1 1 612303.83 0a 306151.91 306151.91 0 1 1 -612303.83 0M 54814959.42 20188993.09 m -306151.91 0 a 306151.91 306151.91 0 1 1 612303.83 0a 306151.91 306151.91 0 1 1 -612303.83 0M 55814959.42 20188993.09 m -306151.91 0 a 306151.91 306151.91 0 1 1 612303.83 0a 306151.91 306151.91 0 1 1 -612303.83 0M 56814959.42 20188993.09 m -306151.91 0 a 306151.91 306151.91 0 1 1 612303.83 0a 306151.91 306151.91 0 1 1 -612303.83 0M 57069317.00 22512236.00 L 56710211.00 22512236.00 L 56710211.00 22135016.00 L 57069317.00 22135016.00 L 57069317.00 22512236.00  zM 57069317.00 21959484.00 L 56710211.00 21959484.00 L 56710211.00 21582264.00 L 57069317.00 21582264.00 L 57069317.00 21959484.00  zM 57659869.00 21959484.00 L 57300763.00 21959484.00 L 57300763.00 21582264.00 L 57659869.00 21582264.00 L 57659869.00 21959484.00  zM 57659869.00 22512236.00 L 57300763.00 22512236.00 L 57300763.00 22135016.00 L 57659869.00 22135016.00 L 57659869.00 22512236.00  zM 58396063.00 24232682.00 L 58021261.00 24232682.00 L 58021261.00 23995676.00 L 58396063.00 23995676.00 L 58396063.00 24232682.00  zM 58814959.42 13188993.09 m -306151.91 0 a 306151.91 306151.91 0 1 1 612303.83 0a 306151.91 306151.91 0 1 1 -612303.83 0M 59814959.42 13188993.09 m -306151.91 0 a 306151.91 306151.91 0 1 1 612303.83 0a 306151.91 306151.91 0 1 1 -612303.83 0M 60814959.42 13188993.09 m -306151.91 0 a 306151.91 306151.91 0 1 1 612303.83 0a 306151.91 306151.91 0 1 1 -612303.83 0M 62118505.00 13492526.00 L 61511419.00 13492526.00 L 61511419.00 12885440.00 L 62118505.00 12885440.00 L 62118505.00 13492526.00  zM 63220469.05 13842534.19 m -496358.81 0 a 496358.81 496358.81 0 1 1 992717.61 0a 496358.81 496358.81 0 1 1 -992717.61 0M 66438052.00 11498457.00 L 66060606.00 11498457.00 L 66060606.00 11139351.00 L 66438052.00 11139351.00 L 66438052.00 11498457.00  zM 66200788.00 12145675.00 L 65767718.00 12145675.00 L 65767718.00 11909455.00 L 66200788.00 11909455.00 L 66200788.00 12145675.00  zM 66200788.00 12519691.00 L 65767718.00 12519691.00 L 65767718.00 12283471.00 L 66200788.00 12283471.00 L 66200788.00 12519691.00  zM 66200788.00 12893707.00 L 65767718.00 12893707.00 L 65767718.00 12657487.00 L 66200788.00 12657487.00 L 66200788.00 12893707.00  zM 58814959.42 20188993.09 m -306151.91 0 a 306151.91 306151.91 0 1 1 612303.83 0a 306151.91 306151.91 0 1 1 -612303.83 0M 59814959.42 20188993.09 m -306151.91 0 a 306151.91 306151.91 0 1 1 612303.83 0a 306151.91 306151.91 0 1 1 -612303.83 0M 60814959.42 20188993.09 m -306151.91 0 a 306151.91 306151.91 0 1 1 612303.83 0a 306151.91 306151.91 0 1 1 -612303.83 0M 65937007.99 15015749.89 m -347855.11 0 a 347855.11 347855.11 0 1 1 695710.23 0a 347855.11 347855.11 0 1 1 -695710.23 0M 65937007.99 20015749.89 m -347855.11 0 a 347855.11 347855.11 0 1 1 695710.23 0a 347855.11 347855.11 0 1 1 -695710.23 0M 65937007.99 16015749.89 m -347855.11 0 a 347855.11 347855.11 0 1 1 695710.23 0a 347855.11 347855.11 0 1 1 -695710.23 0M 65937007.99 17015749.89 m -347855.11 0 a 347855.11 347855.11 0 1 1 695710.23 0a 347855.11 347855.11 0 1 1 -695710.23 0M 65937007.99 18015749.89 m -347855.11 0 a 347855.11 347855.11 0 1 1 695710.23 0a 347855.11 347855.11 0 1 1 -695710.23 0M 65937007.99 19015749.89 m -347855.11 0 a 347855.11 347855.11 0 1 1 695710.23 0a 347855.11 347855.11 0 1 1 -695710.23 0M 59124410.00 21880320.00 L 58001576.00 21880320.00 L 58001576.00 21308668.00 L 59124410.00 21308668.00 L 59124410.00 21880320.00  zM 59124410.00 22982682.00 L 58001576.00 22982682.00 L 58001576.00 22411030.00 L 59124410.00 22411030.00 L 59124410.00 22982682.00  zM 60083071.00 22400006.00 L 59247639.00 22400006.00 L 59247639.00 22103944.00 L 60083071.00 22103944.00 L 60083071.00 22400006.00  zM 60083071.00 21900006.00 L 59247639.00 21900006.00 L 59247639.00 21603944.00 L 60083071.00 21603944.00 L 60083071.00 21900006.00  zM 60083071.00 22900006.00 L 59247639.00 22900006.00 L 59247639.00 22603944.00 L 60083071.00 22603944.00 L 60083071.00 22900006.00  zM 58475227.00 23604756.00 L 58098007.00 23604756.00 L 58098007.00 23245650.00 L 58475227.00 23245650.00 L 58475227.00 23604756.00  zM 59027979.00 23604756.00 L 58650759.00 23604756.00 L 58650759.00 23245650.00 L 59027979.00 23245650.00 L 59027979.00 23604756.00  zM 59301575.00 24232682.00 L 58926773.00 24232682.00 L 58926773.00 23995676.00 L 59301575.00 23995676.00 L 59301575.00 24232682.00  zM 60083071.00 23400006.00 L 59247639.00 23400006.00 L 59247639.00 23103944.00 L 60083071.00 23103944.00 L 60083071.00 23400006.00  zM 62031889.00 21900006.00 L 61196457.00 21900006.00 L 61196457.00 21603944.00 L 62031889.00 21603944.00 L 62031889.00 21900006.00  zM 62031889.00 22400006.00 L 61196457.00 22400006.00 L 61196457.00 22103944.00 L 62031889.00 22103944.00 L 62031889.00 22400006.00  zM 62031889.00 23400006.00 L 61196457.00 23400006.00 L 61196457.00 23103944.00 L 62031889.00 23103944.00 L 62031889.00 23400006.00  zM 59951605.00 24195307.00 L 59574385.00 24195307.00 L 59574385.00 23836201.00 L 59951605.00 23836201.00 L 59951605.00 24195307.00  zM 60504357.00 24195307.00 L 60127137.00 24195307.00 L 60127137.00 23836201.00 L 60504357.00 23836201.00 L 60504357.00 24195307.00  zM 61814959.42 20188993.09 m -306151.91 0 a 306151.91 306151.91 0 1 1 612303.83 0a 306151.91 306151.91 0 1 1 -612303.83 0M 62031889.00 22900006.00 L 61196457.00 22900006.00 L 61196457.00 22603944.00 L 62031889.00 22603944.00 L 62031889.00 22900006.00  zM 63220469.05 22188990.19 m -496358.81 0 a 496358.81 496358.81 0 1 1 992717.61 0a 496358.81 496358.81 0 1 1 -992717.61 0M 65937007.99 21015749.89 m -347855.11 0 a 347855.11 347855.11 0 1 1 695710.23 0a 347855.11 347855.11 0 1 1 -695710.23 0M 67010262.00 11498457.00 L 66632816.00 11498457.00 L 66632816.00 11139351.00 L 67010262.00 11139351.00 L 67010262.00 11498457.00  zM 67303150.00 12145675.00 L 66870080.00 12145675.00 L 66870080.00 11909455.00 L 67303150.00 11909455.00 L 67303150.00 12145675.00  zM 67303150.00 12519691.00 L 66870080.00 12519691.00 L 66870080.00 12283471.00 L 67303150.00 12283471.00 L 67303150.00 12519691.00  zM 67303150.00 12893707.00 L 66870080.00 12893707.00 L 66870080.00 12657487.00 L 67303150.00 12657487.00 L 67303150.00 12893707.00  zM 67305538.00 13691768.00 L 66946432.00 13691768.00 L 66946432.00 13314548.00 L 67305538.00 13314548.00 L 67305538.00 13691768.00  zM 68071063.00 13380454.00 L 67578543.00 13380454.00 L 67540727.00 13364790.00 L 67525063.00 13326974.00 L 67525063.00 13188786.00 L 67540727.00 13150970.00 L 67578543.00 13135306.00 L 68071063.00 13135306.00 L 68108879.00 13150970.00 L 68124543.00 13188786.00 L 68124543.00 13326974.00 L 68108879.00 13364790.00 L 68071063.00 13380454.00  zM 68071063.00 13124548.00 L 67578543.00 13124548.00 L 67540727.00 13108884.00 L 67525063.00 13071068.00 L 67525063.00 12932880.00 L 67540727.00 12895064.00 L 67578543.00 12879400.00 L 68071063.00 12879400.00 L 68108879.00 12895064.00 L 68124543.00 12932880.00 L 68124543.00 13071068.00 L 68108879.00 13108884.00 L 68071063.00 13124548.00  zM 69823032.00 13124548.00 L 69330512.00 13124548.00 L 69292696.00 13108884.00 L 69277032.00 13071068.00 L 69277032.00 12932880.00 L 69292696.00 12895064.00 L 69330512.00 12879400.00 L 69823032.00 12879400.00 L 69860848.00 12895064.00 L 69876512.00 12932880.00 L 69876512.00 13071068.00 L 69860848.00 13108884.00 L 69823032.00 13124548.00  zM 69823032.00 13380454.00 L 69330512.00 13380454.00 L 69292696.00 13364790.00 L 69277032.00 13326974.00 L 69277032.00 13188786.00 L 69292696.00 13150970.00 L 69330512.00 13135306.00 L 69823032.00 13135306.00 L 69860848.00 13150970.00 L 69876512.00 13188786.00 L 69876512.00 13326974.00 L 69860848.00 13364790.00 L 69823032.00 13380454.00  zM 67305538.00 14244520.00 L 66946432.00 14244520.00 L 66946432.00 13867300.00 L 67305538.00 13867300.00 L 67305538.00 14244520.00  zM 68071063.00 13892265.00 L 67578543.00 13892265.00 L 67540727.00 13876601.00 L 67525063.00 13838785.00 L 67525063.00 13700597.00 L 67540727.00 13662781.00 L 67578543.00 13647117.00 L 68071063.00 13647117.00 L 68108879.00 13662781.00 L 68124543.00 13700597.00 L 68124543.00 13838785.00 L 68108879.00 13876601.00 L 68071063.00 13892265.00  zM 68071063.00 13636359.00 L 67578543.00 13636359.00 L 67540727.00 13620695.00 L 67525063.00 13582879.00 L 67525063.00 13444691.00 L 67540727.00 13406875.00 L 67578543.00 13391211.00 L 68071063.00 13391211.00 L 68108879.00 13406875.00 L 68124543.00 13444691.00 L 68124543.00 13582879.00 L 68108879.00 13620695.00 L 68071063.00 13636359.00  zM 69823032.00 13892265.00 L 69330512.00 13892265.00 L 69292696.00 13876601.00 L 69277032.00 13838785.00 L 69277032.00 13700597.00 L 69292696.00 13662781.00 L 69330512.00 13647117.00 L 69823032.00 13647117.00 L 69860848.00 13662781.00 L 69876512.00 13700597.00 L 69876512.00 13838785.00 L 69860848.00 13876601.00 L 69823032.00 13892265.00  zM 69823032.00 13636359.00 L 69330512.00 13636359.00 L 69292696.00 13620695.00 L 69277032.00 13582879.00 L 69277032.00 13444691.00 L 69292696.00 13406875.00 L 69330512.00 13391211.00 L 69823032.00 13391211.00 L 69860848.00 13406875.00 L 69876512.00 13444691.00 L 69876512.00 13582879.00 L 69860848.00 13620695.00 L 69823032.00 13636359.00  zM 68603406.00 14648063.00 L 68225960.00 14648063.00 L 68225960.00 14288957.00 L 68603406.00 14288957.00 L 68603406.00 14648063.00  zM 69175616.00 14648063.00 L 68798170.00 14648063.00 L 68798170.00 14288957.00 L 69175616.00 14288957.00 L 69175616.00 14648063.00  zM 69864593.00 15228772.00 L 69505487.00 15228772.00 L 69505487.00 14851552.00 L 69864593.00 14851552.00 L 69864593.00 15228772.00  zM 69519689.78 16322821.49 m -335561.51 0 a 335561.51 335561.51 0 1 1 671123.02 0a 335561.51 335561.51 0 1 1 -671123.02 0M 70861384.00 12756752.00 L 70674050.00 12756752.00 L 70674050.00 12223196.00 L 70861384.00 12223196.00 L 70861384.00 12756752.00  zM 71734672.00 12904366.00 L 71375566.00 12904366.00 L 71375566.00 12527146.00 L 71734672.00 12527146.00 L 71734672.00 12904366.00  zM 71734672.00 13457118.00 L 71375566.00 13457118.00 L 71375566.00 13079898.00 L 71734672.00 13079898.00 L 71734672.00 13457118.00  zM 70672215.00 13470551.00 L 70672215.00 13124329.00 A 95504.96 95504.96 0 0 1 70863219.00 13124329.00 L 70863219.00 13470551.00 A 95504.96 95504.96 0 0 1 70672215.00 13470551.00  zM 70553569.00 14676020.00 L 70194463.00 14676020.00 L 70194463.00 14298800.00 L 70553569.00 14298800.00 L 70553569.00 14676020.00  zM 69864593.00 14676020.00 L 69505487.00 14676020.00 L 69505487.00 14298800.00 L 69864593.00 14298800.00 L 69864593.00 14676020.00  zM 70553569.00 15228772.00 L 70194463.00 15228772.00 L 70194463.00 14851552.00 L 70553569.00 14851552.00 L 70553569.00 15228772.00  zM 71242546.00 14676020.00 L 70883440.00 14676020.00 L 70883440.00 14298800.00 L 71242546.00 14298800.00 L 71242546.00 14676020.00  zM 71242546.00 15228772.00 L 70883440.00 15228772.00 L 70883440.00 14851552.00 L 71242546.00 14851552.00 L 71242546.00 15228772.00  zM 71873343.31 11637146.39 m -398387.61 0 a 398387.61 398387.61 0 1 1 796775.21 0a 398387.61 398387.61 0 1 1 -796775.21 0M 72423648.00 12904366.00 L 72064542.00 12904366.00 L 72064542.00 12527146.00 L 72423648.00 12527146.00 L 72423648.00 12904366.00  zM 73228349.18 12992124.14 m -297547.86 0 a 297547.86 297547.86 0 1 1 595095.72 0a 297547.86 297547.86 0 1 1 -595095.72 0M 72423648.00 13457118.00 L 72064542.00 13457118.00 L 72064542.00 13079898.00 L 72423648.00 13079898.00 L 72423648.00 13457118.00  zM 71873343.31 14347146.39 m -398387.61 0 a 398387.61 398387.61 0 1 1 796775.21 0a 398387.61 398387.61 0 1 1 -796775.21 0M 75393697.50 10629931.68 m -240838.32 0 a 240838.32 240838.32 0 1 1 481676.63 0a 240838.32 240838.32 0 1 1 -481676.63 0M 77559052.95 11220493.27 m -1184733.73 0 a 1184733.73 1184733.73 0 1 1 2369467.46 0a 1184733.73 1184733.73 0 1 1 -2369467.46 0M 74583343.31 11637146.39 m -398387.61 0 a 398387.61 398387.61 0 1 1 796775.21 0a 398387.61 398387.61 0 1 1 -796775.21 0M 74583343.31 14347146.39 m -398387.61 0 a 398387.61 398387.61 0 1 1 796775.21 0a 398387.61 398387.61 0 1 1 -796775.21 0M 67519689.78 16322821.49 m -335561.51 0 a 335561.51 335561.51 0 1 1 671123.02 0a 335561.51 335561.51 0 1 1 -671123.02 0M 67519689.78 17322821.49 m -335561.51 0 a 335561.51 335561.51 0 1 1 671123.02 0a 335561.51 335561.51 0 1 1 -671123.02 0M 67519689.78 18322821.49 m -335561.51 0 a 335561.51 335561.51 0 1 1 671123.02 0a 335561.51 335561.51 0 1 1 -671123.02 0M 69519689.78 17322821.49 m -335561.51 0 a 335561.51 335561.51 0 1 1 671123.02 0a 335561.51 335561.51 0 1 1 -671123.02 0M 69519689.78 18322821.49 m -335561.51 0 a 335561.51 335561.51 0 1 1 671123.02 0a 335561.51 335561.51 0 1 1 -671123.02 0M 71191339.00 19823235.00 L 70737797.00 19823235.00 L 70737797.00 19350007.00 L 71191339.00 19350007.00 L 71191339.00 19823235.00  zM 71861053.00 19470898.00 L 71483833.00 19470898.00 L 71483833.00 19111792.00 L 71861053.00 19111792.00 L 71861053.00 19470898.00  zM 72549214.00 18809055.00 L 71938978.00 18809055.00 L 71938978.00 18198819.00 L 72549214.00 18198819.00 L 72549214.00 18809055.00  zM 72413805.00 19470898.00 L 72036585.00 19470898.00 L 72036585.00 19111792.00 L 72413805.00 19111792.00 L 72413805.00 19470898.00  zM 68602362.00 20226384.00 L 67421260.00 20226384.00 L 67421260.00 19399612.00 L 68602362.00 19399612.00 L 68602362.00 20226384.00  zM 69350394.00 20974415.00 L 68838584.00 20974415.00 L 68838584.00 20659455.00 L 69350394.00 20659455.00 L 69350394.00 20974415.00  zM 69350394.00 21958667.00 L 68838584.00 21958667.00 L 68838584.00 21643707.00 L 69350394.00 21643707.00 L 69350394.00 21958667.00  zM 68602362.00 23710636.00 L 67421260.00 23710636.00 L 67421260.00 22883864.00 L 68602362.00 22883864.00 L 68602362.00 23710636.00  zM 69350394.00 22450793.00 L 68838584.00 22450793.00 L 68838584.00 22135833.00 L 69350394.00 22135833.00 L 69350394.00 22450793.00  zM 69350394.00 21466541.00 L 68838584.00 21466541.00 L 68838584.00 21151581.00 L 69350394.00 21151581.00 L 69350394.00 21466541.00  zM 71191339.00 20413786.00 L 70737797.00 20413786.00 L 70737797.00 19940558.00 L 71191339.00 19940558.00 L 71191339.00 20413786.00  zM 70587156.00 21870078.00 L 70587156.00 21043308.00 A 397100.93 397100.93 0 0 1 71381352.00 21043308.00 L 71381352.00 21870078.00 A 397100.93 397100.93 0 0 1 70587156.00 21870078.00  zM 72244093.17 24212608.88 m -307741.12 0 a 307741.12 307741.12 0 1 1 615482.25 0a 307741.12 307741.12 0 1 1 -615482.25 0M 73228345.17 18503946.88 m -307741.12 0 a 307741.12 307741.12 0 1 1 615482.25 0a 307741.12 307741.12 0 1 1 -615482.25 0M 73004357.00 20159874.00 L 72627137.00 20159874.00 L 72627137.00 19800768.00 L 73004357.00 19800768.00 L 73004357.00 20159874.00  zM 72451605.00 20159874.00 L 72074385.00 20159874.00 L 72074385.00 19800768.00 L 72451605.00 19800768.00 L 72451605.00 20159874.00  zM 73731132.00 20159874.00 L 73353912.00 20159874.00 L 73353912.00 19800768.00 L 73731132.00 19800768.00 L 73731132.00 20159874.00  zM 74283884.00 20159874.00 L 73906664.00 20159874.00 L 73906664.00 19800768.00 L 74283884.00 19800768.00 L 74283884.00 20159874.00  zM 73239006.00 23014205.00 L 72861786.00 23014205.00 L 72861786.00 22655099.00 L 73239006.00 22655099.00 L 73239006.00 23014205.00  zM 73791758.00 23014205.00 L 73414538.00 23014205.00 L 73414538.00 22655099.00 L 73791758.00 22655099.00 L 73791758.00 23014205.00  zM 73268110.00 23750399.00 L 72794882.00 23750399.00 L 72794882.00 23296857.00 L 73268110.00 23296857.00 L 73268110.00 23750399.00  zM 73858661.00 23750399.00 L 73385433.00 23750399.00 L 73385433.00 23296857.00 L 73858661.00 23296857.00 L 73858661.00 23750399.00  zM 74212597.17 18503946.88 m -307741.12 0 a 307741.12 307741.12 0 1 1 615482.25 0a 307741.12 307741.12 0 1 1 -615482.25 0M 74321683.00 19470898.00 L 73944463.00 19470898.00 L 73944463.00 19111792.00 L 74321683.00 19111792.00 L 74321683.00 19470898.00  zM 74874435.00 19470898.00 L 74497215.00 19470898.00 L 74497215.00 19111792.00 L 74874435.00 19111792.00 L 74874435.00 19470898.00  zM 75718898.00 19724810.00 L 75265356.00 19724810.00 L 75265356.00 19251582.00 L 75718898.00 19251582.00 L 75718898.00 19724810.00  zM 75075344.00 21870078.00 L 75075344.00 21043308.00 A 397100.93 397100.93 0 0 1 75869540.00 21043308.00 L 75869540.00 21870078.00 A 397100.93 397100.93 0 0 1 75075344.00 21870078.00  zM 74212597.17 24212608.88 m -307741.12 0 a 307741.12 307741.12 0 1 1 615482.25 0a 307741.12 307741.12 0 1 1 -615482.25 0M 75718898.00 20315361.00 L 75265356.00 20315361.00 L 75265356.00 19842133.00 L 75718898.00 19842133.00 L 75718898.00 20315361.00  zM 77559052.95 23425217.27 m -1184733.73 0 a 1184733.73 1184733.73 0 1 1 2369467.46 0a 1184733.73 1184733.73 0 1 1 -2369467.46 0"/>
</g>
</svg>
