M48
;Layer_Color=9474304
;FILE_FORMAT=4:4
METRIC,LZ
;TYPE=PLATED
T01F00S00C0.3000
T02F00S00C1.0400
%
T01
X-00055Y0005135
X-000425Y0007635
X-000175
X-0003Y0010135
X-00055
X-000425Y0012635
X-000675
Y0007635
X000325
X0002Y0010135
X000325Y0012635
X000575
X0007Y0010135
X00045
X0007Y0015135
X000575Y0017635
X0007Y0020135
X00045
Y0025135
X000575Y0027635
X0007Y0030135
X00045
X000575Y0032635
X0007Y0035135
Y0040135
X00045
X000575Y0042635
X0007Y0050135
X0002
X-00005
X-0003Y0045135
X-000175Y0042635
X000075
X000325
X0002Y0040135
X-00005
X-0003
X-00055
X-000425Y0037635
X-000175
X000075
X000325
X0002Y0035135
X-00005
X-0003
X-00055
X-000425Y0032635
X-000175
X-0003Y0030135
X-00055
X-000425Y0027635
X-000675
X-00055Y0025135
X-0003
X-000425Y0022635
X-000675
X-00055Y0020135
X-0003
X-000425Y0017635
X-000675
X-00055Y0015135
X000325Y0017635
Y0022635
X000075
X0002Y0025135
X000325Y0027635
X000075
X0002Y0030135
X-000675Y0032635
Y0037635
Y0042635
T02
X-000889Y0001505
Y0004045
Y0006585
Y0009125
Y0011665
Y0014205
X000889
Y0011665
Y0009125
Y0006585
Y0004045
Y0001505
Y0016745
Y0019285
Y0021825
Y0024365
Y0026905
Y0029445
Y0031985
Y0034525
Y0037065
Y0039605
Y0042145
Y0044685
Y0047225
Y0049765
X-000889
Y0047225
Y0044685
Y0042145
Y0039605
Y0037065
Y0034525
Y0031985
Y0029445
Y0026905
Y0024365
Y0021825
Y0019285
Y0016745
M30
