M48
;Layer_Color=9474304
;FILE_FORMAT=4:4
METRIC,LZ
;TYPE=PLATED
T01F00S00C0.3000
T02F00S00C0.4000
T03F00S00C0.8500
T04F00S00C0.9906
T05F00S00C1.0000
T06F00S00C1.0400
T07F00S00C1.0900
T09F00S00C1.4986
%
T01
X-00619Y0013875
X-00282857Y000685
X-0028025Y000555
X-00266Y00049866
X-0024425Y0010675
X0055775Y00065
X00557382Y00050954
X00594Y00049866
X0061589Y00105657
X0070175Y00243
X0074875Y002575
X0079725Y0024
X003935Y003279
X00118129Y00220774
X-00007267Y00167483
X-0010875Y002575
X-004665Y003279
X-00557Y0015
X-00563
X-00626752Y00148
T02
X0037048Y0033675
X-0048952
X-007325Y0021
X-007425
X-007525
X-007325Y001975
T03
X-0067Y001646
Y0019
Y002154
T04
X-0011Y0008
X0075
T05
X-002952Y001314
X005648
Y001568
Y001822
Y002076
Y00233
Y002584
Y002838
X00725Y0022
X0075
X00775
Y00365
X00725
X-00085
X-00135
Y0022
X-0011
X-00085
X-002952Y002076
Y001822
Y001568
Y00233
Y002584
Y002838
T06
X-000225Y00085
X000029
X000283
X000537
X000791
X001045
X001299
X001553
X001807
X002061
X002315
X002569
X002823
X003077
X003331
X003585
X003839
X004093
X004347
X004601
Y002628
X004347
X004093
X003839
X003585
X003331
X003077
X002823
X002569
X002315
X002061
X001807
X001553
X001299
X001045
X000791
X000537
X000283
X000029
X-000225
T07
X00605Y001646
Y0019
Y002154
X006558
Y0019
Y001646
X-002042
Y0019
Y002154
X-00255
Y0019
Y001646
T09
X-00144417Y00045583
Y00114417
X-00075583
Y00045583
X00715583
Y00114417
X00784417
Y00045583
M30
