%TF.GenerationSoftware,Altium Limited,Altium Designer,23.7.1 (13)*%
G04 Layer_Color=128*
%FSLAX45Y45*%
%MOMM*%
%TF.SameCoordinates,F0F8C17F-0DA8-4E41-987A-5915CA82B15D*%
%TF.FilePolarity,Positive*%
%TF.FileFunction,Drillmap*%
%TF.Part,Single*%
G01*
G75*
%TA.AperFunction,NonConductor*%
%ADD61C,0.12700*%
D61*
X-277000Y2628000D02*
X-173000D01*
X-225000Y2576000D02*
Y2680000D01*
X-23000Y2628000D02*
X81000D01*
X29000Y2576000D02*
Y2680000D01*
X231000Y2628000D02*
X335000D01*
X283000Y2576000D02*
Y2680000D01*
X485000Y2628000D02*
X589000D01*
X537000Y2576000D02*
Y2680000D01*
X739000Y2628000D02*
X843000D01*
X791000Y2576000D02*
Y2680000D01*
X993000Y2628000D02*
X1097000D01*
X1045000Y2576000D02*
Y2680000D01*
X1247000Y2628000D02*
X1351000D01*
X1299000Y2576000D02*
Y2680000D01*
X1501000Y2628000D02*
X1605000D01*
X1553000Y2576000D02*
Y2680000D01*
X1755000Y2628000D02*
X1859000D01*
X1807000Y2576000D02*
Y2680000D01*
X2009000Y2628000D02*
X2113000D01*
X2061000Y2576000D02*
Y2680000D01*
X2263000Y2628000D02*
X2367000D01*
X2315000Y2576000D02*
Y2680000D01*
X2517000Y2628000D02*
X2621000D01*
X2569000Y2576000D02*
Y2680000D01*
X2771000Y2628000D02*
X2875000D01*
X2823000Y2576000D02*
Y2680000D01*
X3025000Y2628000D02*
X3129000D01*
X3077000Y2576000D02*
Y2680000D01*
X3279000Y2628000D02*
X3383000D01*
X3331000Y2576000D02*
Y2680000D01*
X3533000Y2628000D02*
X3637000D01*
X3585000Y2576000D02*
Y2680000D01*
X3787000Y2628000D02*
X3891000D01*
X3839000Y2576000D02*
Y2680000D01*
X4041000Y2628000D02*
X4145000D01*
X4093000Y2576000D02*
Y2680000D01*
X4295000Y2628000D02*
X4399000D01*
X4347000Y2576000D02*
Y2680000D01*
X4549000Y2628000D02*
X4653000D01*
X4601000Y2576000D02*
Y2680000D01*
X7200000Y3649999D02*
X7300000D01*
X7250000Y3599999D02*
Y3699998D01*
X7700000Y3649999D02*
X7800000D01*
X7750000Y3599999D02*
Y3699998D01*
X7200000Y2199998D02*
X7300000D01*
X7250000Y2149998D02*
Y2249998D01*
X7450000Y2199998D02*
X7550000D01*
X7500000Y2149998D02*
Y2249998D01*
X7700000Y2199998D02*
X7800000D01*
X7750000Y2149998D02*
Y2249998D01*
X6755000Y2949998D02*
X7105000D01*
X6930000Y2774999D02*
Y3124998D01*
X7895000Y2949998D02*
X8245000D01*
X8070000Y2774999D02*
Y3124998D01*
X6503500Y1899998D02*
X6612500D01*
X6558000Y1845498D02*
Y1954499D01*
X6503500Y2153998D02*
X6612500D01*
X6558000Y2099498D02*
Y2208499D01*
X5995500Y1645998D02*
X6104500D01*
X6050000Y1591498D02*
Y1700499D01*
X5995500Y1899998D02*
X6104500D01*
X6050000Y1845498D02*
Y1954499D01*
X5995500Y2153998D02*
X6104500D01*
X6050000Y2099498D02*
Y2208499D01*
X6503500Y1645998D02*
X6612500D01*
X6558000Y1591498D02*
Y1700499D01*
X-3767000Y1015998D02*
X-3517000D01*
X-3642000Y890998D02*
Y1140998D01*
X-3767000Y3135998D02*
X-3517000D01*
X-3642000Y3010998D02*
Y3260998D01*
X-3002000Y1313998D02*
X-2902000D01*
X-2952000Y1263998D02*
Y1363998D01*
X-3002000Y1567998D02*
X-2902000D01*
X-2952000Y1517998D02*
Y1617998D01*
X-3002000Y1821998D02*
X-2902000D01*
X-2952000Y1771998D02*
Y1871998D01*
X-3002000Y2075998D02*
X-2902000D01*
X-2952000Y2025998D02*
Y2125998D01*
X-3002000Y2329998D02*
X-2902000D01*
X-2952000Y2279998D02*
Y2379998D01*
X-3002000Y2583998D02*
X-2902000D01*
X-2952000Y2533998D02*
Y2633998D01*
X-3002000Y2837998D02*
X-2902000D01*
X-2952000Y2787998D02*
Y2887998D01*
X-6742500Y1646000D02*
X-6657500D01*
X-6700000Y1603500D02*
Y1688500D01*
X-6742500Y1900000D02*
X-6657500D01*
X-6700000Y1857500D02*
Y1942500D01*
X-6742500Y2154000D02*
X-6657500D01*
X-6700000Y2111500D02*
Y2196500D01*
X-277000Y850000D02*
X-173000D01*
X-225000Y798000D02*
Y902000D01*
X-23000Y850000D02*
X81000D01*
X29000Y798000D02*
Y902000D01*
X231000Y850000D02*
X335000D01*
X283000Y798000D02*
Y902000D01*
X485000Y850000D02*
X589000D01*
X537000Y798000D02*
Y902000D01*
X739000Y850000D02*
X843000D01*
X791000Y798000D02*
Y902000D01*
X993000Y850000D02*
X1097000D01*
X1045000Y798000D02*
Y902000D01*
X1247000Y850000D02*
X1351000D01*
X1299000Y798000D02*
Y902000D01*
X1501000Y850000D02*
X1605000D01*
X1553000Y798000D02*
Y902000D01*
X1755000Y850000D02*
X1859000D01*
X1807000Y798000D02*
Y902000D01*
X2009000Y850000D02*
X2113000D01*
X2061000Y798000D02*
Y902000D01*
X2263000Y850000D02*
X2367000D01*
X2315000Y798000D02*
Y902000D01*
X2517000Y850000D02*
X2621000D01*
X2569000Y798000D02*
Y902000D01*
X2771000Y850000D02*
X2875000D01*
X2823000Y798000D02*
Y902000D01*
X3025000Y850000D02*
X3129000D01*
X3077000Y798000D02*
Y902000D01*
X3279000Y850000D02*
X3383000D01*
X3331000Y798000D02*
Y902000D01*
X3533000Y850000D02*
X3637000D01*
X3585000Y798000D02*
Y902000D01*
X3787000Y850000D02*
X3891000D01*
X3839000Y798000D02*
Y902000D01*
X4041000Y850000D02*
X4145000D01*
X4093000Y798000D02*
Y902000D01*
X4295000Y850000D02*
X4399000D01*
X4347000Y798000D02*
Y902000D01*
X4549000Y850000D02*
X4653000D01*
X4601000Y798000D02*
Y902000D01*
X5598000Y2837998D02*
X5698000D01*
X5648000Y2787998D02*
Y2887998D01*
X5598000Y2583998D02*
X5698000D01*
X5648000Y2533998D02*
Y2633998D01*
X5598000Y2329998D02*
X5698000D01*
X5648000Y2279998D02*
Y2379998D01*
X5598000Y2075998D02*
X5698000D01*
X5648000Y2025998D02*
Y2125998D01*
X5598000Y1821998D02*
X5698000D01*
X5648000Y1771998D02*
Y1871998D01*
X5598000Y1567998D02*
X5698000D01*
X5648000Y1517998D02*
Y1617998D01*
X5598000Y1313998D02*
X5698000D01*
X5648000Y1263998D02*
Y1363998D01*
X4833000Y3135998D02*
X5083000D01*
X4958000Y3010998D02*
Y3260998D01*
X4833000Y1015998D02*
X5083000D01*
X4958000Y890998D02*
Y1140998D01*
X-1149530Y799998D02*
X-1050470D01*
X-1100000Y750468D02*
Y849528D01*
X-1519100Y1144168D02*
X-1369240D01*
X-1444170Y1069238D02*
Y1219098D01*
X-830760Y1144168D02*
X-680900D01*
X-755830Y1069238D02*
Y1219098D01*
X-1519100Y455828D02*
X-1369240D01*
X-1444170Y380898D02*
Y530758D01*
X-830760Y455828D02*
X-680900D01*
X-755830Y380898D02*
Y530758D01*
X7450470Y799998D02*
X7549530D01*
X7500000Y750468D02*
Y849528D01*
X7080900Y1144168D02*
X7230760D01*
X7155830Y1069238D02*
Y1219098D01*
X7769240Y1144168D02*
X7919100D01*
X7844170Y1069238D02*
Y1219098D01*
X7080900Y455828D02*
X7230760D01*
X7155830Y380898D02*
Y530758D01*
X7769240Y455828D02*
X7919100D01*
X7844170Y380898D02*
Y530758D01*
X-2604500Y1645998D02*
X-2495500D01*
X-2550000Y1591498D02*
Y1700499D01*
X-2604500Y1899998D02*
X-2495500D01*
X-2550000Y1845498D02*
Y1954499D01*
X-2604500Y2153998D02*
X-2495500D01*
X-2550000Y2099498D02*
Y2208499D01*
X-2096500Y1645998D02*
X-1987500D01*
X-2042000Y1591498D02*
Y1700499D01*
X-2096500Y1899998D02*
X-1987500D01*
X-2042000Y1845498D02*
Y1954499D01*
X-2096500Y2153998D02*
X-1987500D01*
X-2042000Y2099498D02*
Y2208499D01*
X-705000Y2949998D02*
X-355000D01*
X-530000Y2774999D02*
Y3124998D01*
X-1845000Y2949998D02*
X-1495000D01*
X-1670000Y2774999D02*
Y3124998D01*
X-900000Y2199998D02*
X-800000D01*
X-850000Y2149998D02*
Y2249998D01*
X-1150000Y2199998D02*
X-1050000D01*
X-1100000Y2149998D02*
Y2249998D01*
X-1400000Y2199998D02*
X-1300000D01*
X-1350000Y2149998D02*
Y2249998D01*
X-900000Y3649999D02*
X-800000D01*
X-850000Y3599999D02*
Y3699998D01*
X-1400000Y3649999D02*
X-1300000D01*
X-1350000Y3599999D02*
Y3699998D01*
X-8755000Y3449998D02*
X-8445000D01*
X-8600000Y3294998D02*
Y3604998D01*
X-8755000Y349999D02*
X-8445000D01*
X-8600000Y194999D02*
Y504998D01*
X-155000Y349999D02*
X155000D01*
X-0Y194999D02*
Y504998D01*
X-155000Y3449998D02*
X155000D01*
X0Y3294998D02*
Y3604998D01*
X8445000Y349999D02*
X8755000D01*
X8600000Y194999D02*
Y504998D01*
X8445000Y3449998D02*
X8755000D01*
X8600000Y3294998D02*
Y3604998D01*
X7002500Y2430000D02*
X7032500D01*
X7017500Y2415000D02*
Y2445000D01*
X-1102500Y2575000D02*
X-1072500D01*
X-1087500Y2560000D02*
Y2590000D01*
X-2457500Y1067500D02*
X-2427500D01*
X-2442500Y1052500D02*
Y1082500D01*
X-87671Y1674829D02*
X-57671D01*
X-72671Y1659829D02*
Y1689829D01*
X-2843570Y685000D02*
X-2813570D01*
X-2828570Y670000D02*
Y700000D01*
X5558817Y509545D02*
X5588817D01*
X5573817Y494545D02*
Y524545D01*
X1166288Y2207740D02*
X1196288D01*
X1181288Y2192740D02*
Y2222740D01*
X7957500Y2400000D02*
X7987500D01*
X7972500Y2385000D02*
Y2415000D01*
X5562500Y650000D02*
X5592500D01*
X5577500Y635000D02*
Y665000D01*
X-2675000Y498665D02*
X-2645000D01*
X-2660000Y483665D02*
Y513665D01*
X-2817500Y555000D02*
X-2787500D01*
X-2802500Y540000D02*
Y570000D01*
X7472500Y2575000D02*
X7502500D01*
X7487500Y2560000D02*
Y2590000D01*
X5925000Y498665D02*
X5955000D01*
X5940000Y483665D02*
Y513665D01*
X6143898Y1056568D02*
X6173898D01*
X6158898Y1041568D02*
Y1071568D01*
X-5585000Y1500000D02*
X-5555000D01*
X-5570000Y1485000D02*
Y1515000D01*
X-5645000Y1500000D02*
X-5615000D01*
X-5630000Y1485000D02*
Y1515000D01*
X-6282524Y1480000D02*
X-6252524D01*
X-6267524Y1465000D02*
Y1495000D01*
X-6205000Y1387500D02*
X-6175000D01*
X-6190000Y1372500D02*
Y1402500D01*
X-4680000Y3279000D02*
X-4650000D01*
X-4665000Y3264000D02*
Y3294000D01*
X-4915199Y3367500D02*
X-4875199D01*
X-4895199Y3347500D02*
Y3387500D01*
X3920000Y3279000D02*
X3950000D01*
X3935000Y3264000D02*
Y3294000D01*
X3684801Y3367500D02*
X3724801D01*
X3704801Y3347500D02*
Y3387500D01*
X-7545000Y2100000D02*
X-7505000D01*
X-7525000Y2080000D02*
Y2120000D01*
X-7445000Y2100000D02*
X-7405000D01*
X-7425000Y2080000D02*
Y2120000D01*
X-7345000Y2100000D02*
X-7305000D01*
X-7325000Y2080000D02*
Y2120000D01*
X-7345000Y1975000D02*
X-7305000D01*
X-7325000Y1955000D02*
Y1995000D01*
%TF.MD5,44ed5e2c4b7f422ffb40a1c941e45b53*%
M02*
