%TF.GenerationSoftware,Altium Limited,Altium Designer,23.7.1 (13)*%
G04 Layer_Physical_Order=2*
G04 Layer_Color=36540*
%FSLAX45Y45*%
%MOMM*%
%TF.SameCoordinates,F0F8C17F-0DA8-4E41-987A-5915CA82B15D*%
%TF.FilePolarity,Positive*%
%TF.FileFunction,Copper,L2,Inr,Signal*%
%TF.Part,Single*%
G01*
G75*
%TA.AperFunction,Conductor*%
%ADD14C,0.25400*%
%TA.AperFunction,ComponentPad*%
%ADD16C,1.60000*%
%ADD17C,1.55000*%
G04:AMPARAMS|DCode=19|XSize=2mm|YSize=4.1mm|CornerRadius=1mm|HoleSize=0mm|Usage=FLASHONLY|Rotation=0.000|XOffset=0mm|YOffset=0mm|HoleType=Round|Shape=RoundedRectangle|*
%AMROUNDEDRECTD19*
21,1,2.00000,2.10000,0,0,0.0*
21,1,0.00000,4.10000,0,0,0.0*
1,1,2.00000,0.00000,-1.05000*
1,1,2.00000,0.00000,-1.05000*
1,1,2.00000,0.00000,1.05000*
1,1,2.00000,0.00000,1.05000*
%
%ADD19ROUNDEDRECTD19*%
%ADD20C,1.69000*%
%ADD22C,1.35800*%
%ADD23R,1.35800X1.35800*%
%ADD25C,2.00660*%
%TA.AperFunction,ViaPad*%
%ADD28C,0.60000*%
%ADD29C,0.80000*%
%TA.AperFunction,Conductor*%
%ADD30C,1.00000*%
G36*
X-7645698Y3779609D02*
Y1900000D01*
X-7644122Y1892079D01*
X-7639635Y1885365D01*
X-7632921Y1880878D01*
X-7625000Y1879302D01*
X-7250000D01*
X-7242079Y1880878D01*
X-7235364Y1885365D01*
X-7230878Y1892079D01*
X-7229302Y1900000D01*
Y2004302D01*
X-5925000D01*
X-5917079Y2005878D01*
X-5910365Y2010365D01*
X-5905878Y2017079D01*
X-5904302Y2025000D01*
Y3079301D01*
X-3797787D01*
X-3796781Y3079501D01*
X-3795759Y3079400D01*
X-3792848Y3080283D01*
X-3789867Y3080876D01*
X-3781995Y3076306D01*
X-3778488Y3073147D01*
X-3767324Y3052260D01*
X-3748579Y3029419D01*
X-3725739Y3010674D01*
X-3699680Y2996746D01*
X-3671405Y2988169D01*
X-3642000Y2985273D01*
X-3612595Y2988169D01*
X-3584320Y2996746D01*
X-3558261Y3010674D01*
X-3535421Y3029419D01*
X-3516676Y3052260D01*
X-3505512Y3073147D01*
X-3502006Y3076306D01*
X-3497690Y3078811D01*
X-3489072Y3079652D01*
X-3488241Y3079400D01*
X-3487219Y3079501D01*
X-3486213Y3079301D01*
X-1797769D01*
X-1789396Y3069752D01*
X-1791338Y3054998D01*
Y2960148D01*
X-1548662D01*
Y3054998D01*
X-1550604Y3069752D01*
X-1542231Y3079301D01*
X-657770D01*
X-649396Y3069752D01*
X-651338Y3054998D01*
Y2960148D01*
X-408662D01*
Y3054998D01*
X-410604Y3069752D01*
X-402231Y3079301D01*
X4075000D01*
X4082921Y3080876D01*
X4089635Y3085363D01*
X4094122Y3092078D01*
X4095698Y3099998D01*
Y3779608D01*
X8300000Y3779608D01*
X8625940D01*
X8677184Y3771492D01*
X8726526Y3755460D01*
X8772753Y3731906D01*
X8814725Y3701411D01*
X8851412Y3664724D01*
X8881908Y3622751D01*
X8905461Y3576524D01*
X8921493Y3527182D01*
X8929610Y3475938D01*
Y3424058D01*
X8921493Y3372814D01*
X8905461Y3323472D01*
X8881907Y3277245D01*
X8851413Y3235273D01*
X8814726Y3198586D01*
X8772753Y3168091D01*
X8726526Y3144537D01*
X8677184Y3128505D01*
X8625940Y3120389D01*
X8600000Y3120389D01*
X8599667Y3120323D01*
X8599333Y3120378D01*
X8579712Y3119735D01*
X8578727Y3119506D01*
X8577717Y3119572D01*
X8538811Y3114450D01*
X8537537Y3114017D01*
X8536195Y3113929D01*
X8498291Y3103773D01*
X8497085Y3103178D01*
X8495765Y3102916D01*
X8459510Y3087899D01*
X8458392Y3087151D01*
X8457118Y3086719D01*
X8423134Y3067098D01*
X8422123Y3066211D01*
X8420916Y3065616D01*
X8389783Y3041727D01*
X8388897Y3040716D01*
X8387778Y3039968D01*
X8360030Y3012221D01*
X8359282Y3011102D01*
X8358271Y3010215D01*
X8334382Y2979082D01*
X8333787Y2977876D01*
X8332901Y2976865D01*
X8313280Y2942880D01*
X8312847Y2941607D01*
X8312100Y2940488D01*
X8297083Y2904233D01*
X8296820Y2902913D01*
X8296225Y2901707D01*
X8286069Y2863803D01*
X8285981Y2862461D01*
X8285549Y2861187D01*
X8280426Y2822281D01*
X8280492Y2821271D01*
X8280263Y2820286D01*
X8279621Y2800665D01*
X8279676Y2800331D01*
X8279610Y2799998D01*
X8279610Y999999D01*
X8279676Y999666D01*
X8279620Y999331D01*
X8280263Y979710D01*
X8280492Y978725D01*
X8280426Y977716D01*
X8285549Y938810D01*
X8285981Y937536D01*
X8286069Y936194D01*
X8296225Y898289D01*
X8296820Y897083D01*
X8297083Y895764D01*
X8312100Y859509D01*
X8312847Y858390D01*
X8313280Y857116D01*
X8332901Y823132D01*
X8333787Y822121D01*
X8334382Y820915D01*
X8358271Y789782D01*
X8359282Y788895D01*
X8360030Y787776D01*
X8387778Y760028D01*
X8388897Y759281D01*
X8389783Y758270D01*
X8420916Y734381D01*
X8422123Y733786D01*
X8423134Y732899D01*
X8457118Y713278D01*
X8458392Y712846D01*
X8459510Y712098D01*
X8495765Y697081D01*
X8497085Y696819D01*
X8498291Y696224D01*
X8536195Y686067D01*
X8537537Y685980D01*
X8538811Y685547D01*
X8577717Y680425D01*
X8578727Y680491D01*
X8579712Y680261D01*
X8599333Y679619D01*
X8599667Y679674D01*
X8600000Y679608D01*
X8625940Y679608D01*
X8677184Y671491D01*
X8726526Y655459D01*
X8772754Y631905D01*
X8814726Y601410D01*
X8851412Y564724D01*
X8881908Y522751D01*
X8905461Y476524D01*
X8921494Y427181D01*
X8929610Y375938D01*
Y324058D01*
X8921494Y272814D01*
X8905461Y223471D01*
X8881907Y177243D01*
X8851413Y135271D01*
X8814726Y98585D01*
X8772753Y68090D01*
X8726526Y44536D01*
X8677184Y28504D01*
X8625940Y20388D01*
X8600000D01*
X8300000Y20391D01*
X-8300000Y20389D01*
X-8625940D01*
X-8677185Y28505D01*
X-8726526Y44537D01*
X-8772753Y68091D01*
X-8814725Y98586D01*
X-8851412Y135273D01*
X-8881908Y177246D01*
X-8905461Y223472D01*
X-8921493Y272815D01*
X-8929610Y324058D01*
Y375939D01*
X-8921493Y427183D01*
X-8905461Y476525D01*
X-8881908Y522751D01*
X-8851413Y564724D01*
X-8814726Y601411D01*
X-8772753Y631906D01*
X-8726526Y655460D01*
X-8677184Y671492D01*
X-8625940Y679608D01*
X-8600000Y679608D01*
X-8599667Y679674D01*
X-8599333Y679619D01*
X-8579712Y680261D01*
X-8578727Y680491D01*
X-8577718Y680425D01*
X-8538812Y685547D01*
X-8537538Y685980D01*
X-8536196Y686067D01*
X-8498291Y696224D01*
X-8497085Y696819D01*
X-8495765Y697081D01*
X-8459511Y712098D01*
X-8458392Y712846D01*
X-8457118Y713278D01*
X-8423134Y732899D01*
X-8422123Y733786D01*
X-8420916Y734381D01*
X-8389784Y758270D01*
X-8388897Y759281D01*
X-8387778Y760028D01*
X-8360030Y787776D01*
X-8359283Y788895D01*
X-8358272Y789782D01*
X-8334383Y820915D01*
X-8333788Y822121D01*
X-8332901Y823132D01*
X-8313280Y857116D01*
X-8312847Y858390D01*
X-8312100Y859509D01*
X-8297083Y895764D01*
X-8296821Y897083D01*
X-8296226Y898289D01*
X-8286069Y936194D01*
X-8285981Y937536D01*
X-8285549Y938810D01*
X-8280427Y977716D01*
X-8280493Y978725D01*
X-8280263Y979710D01*
X-8279621Y999331D01*
X-8279676Y999666D01*
X-8279610Y999999D01*
X-8279610Y2799998D01*
X-8279676Y2800331D01*
X-8279620Y2800666D01*
X-8280263Y2820287D01*
X-8280493Y2821272D01*
X-8280427Y2822281D01*
X-8285549Y2861187D01*
X-8285981Y2862461D01*
X-8286069Y2863803D01*
X-8296226Y2901707D01*
X-8296821Y2902913D01*
X-8297083Y2904233D01*
X-8312100Y2940488D01*
X-8312847Y2941607D01*
X-8313280Y2942880D01*
X-8332901Y2976865D01*
X-8333788Y2977876D01*
X-8334383Y2979082D01*
X-8358272Y3010215D01*
X-8359283Y3011102D01*
X-8360030Y3012221D01*
X-8387778Y3039968D01*
X-8388897Y3040716D01*
X-8389784Y3041727D01*
X-8420916Y3065616D01*
X-8422123Y3066211D01*
X-8423134Y3067098D01*
X-8457118Y3086719D01*
X-8458392Y3087151D01*
X-8459511Y3087899D01*
X-8495765Y3102916D01*
X-8497085Y3103178D01*
X-8498291Y3103773D01*
X-8536196Y3113929D01*
X-8537538Y3114017D01*
X-8538812Y3114450D01*
X-8577718Y3119572D01*
X-8578727Y3119506D01*
X-8579712Y3119735D01*
X-8599333Y3120378D01*
X-8599667Y3120323D01*
X-8600000Y3120389D01*
X-8625940D01*
X-8677185Y3128505D01*
X-8726526Y3144537D01*
X-8772753Y3168091D01*
X-8814725Y3198585D01*
X-8851412Y3235272D01*
X-8881908Y3277245D01*
X-8905461Y3323472D01*
X-8921493Y3372814D01*
X-8929610Y3424058D01*
Y3475938D01*
X-8921493Y3527183D01*
X-8905461Y3576524D01*
X-8881908Y3622751D01*
X-8851413Y3664723D01*
X-8814726Y3701410D01*
X-8772753Y3731906D01*
X-8726526Y3755460D01*
X-8677184Y3771492D01*
X-8625940Y3779608D01*
X-8600000D01*
X-8300000Y3779609D01*
X-7645698D01*
D02*
G37*
G36*
X4075000Y3779608D02*
Y3099998D01*
X-418428D01*
X-424918Y3115667D01*
X-444201Y3140797D01*
X-469331Y3160080D01*
X-498596Y3172202D01*
X-530000Y3176336D01*
X-561405Y3172202D01*
X-590669Y3160080D01*
X-615799Y3140797D01*
X-635082Y3115667D01*
X-641572Y3099998D01*
X-1558428D01*
X-1564918Y3115667D01*
X-1584201Y3140797D01*
X-1609331Y3160080D01*
X-1638595Y3172202D01*
X-1670000Y3176336D01*
X-1701405Y3172202D01*
X-1730669Y3160080D01*
X-1755799Y3140797D01*
X-1775082Y3115667D01*
X-1781572Y3099998D01*
X-3486213D01*
X-3494270Y3109816D01*
X-3492000Y3121225D01*
Y3150772D01*
X-3497765Y3179752D01*
X-3509072Y3207050D01*
X-3525487Y3231618D01*
X-3546381Y3252511D01*
X-3570948Y3268926D01*
X-3598247Y3280234D01*
X-3627226Y3285998D01*
X-3656774D01*
X-3685753Y3280234D01*
X-3713052Y3268926D01*
X-3737619Y3252511D01*
X-3758513Y3231618D01*
X-3774928Y3207050D01*
X-3786236Y3179752D01*
X-3792000Y3150772D01*
Y3121225D01*
X-3789731Y3109816D01*
X-3797787Y3099998D01*
X-5925000D01*
Y2025000D01*
X-7250000D01*
Y1900000D01*
X-7625000D01*
Y3779609D01*
X4075000Y3779608D01*
D02*
G37*
%LPC*%
G36*
X7260150Y3747306D02*
Y3660148D01*
X7347308D01*
X7345283Y3675529D01*
X7335428Y3699321D01*
X7319752Y3719750D01*
X7299322Y3735426D01*
X7275531Y3745281D01*
X7260150Y3747306D01*
D02*
G37*
G36*
X7239850D02*
X7224469Y3745281D01*
X7200679Y3735426D01*
X7180249Y3719750D01*
X7164572Y3699321D01*
X7154718Y3675529D01*
X7152693Y3660148D01*
X7239850D01*
Y3747306D01*
D02*
G37*
G36*
X7750000Y3725646D02*
X7730421Y3723068D01*
X7712177Y3715511D01*
X7696510Y3703489D01*
X7684488Y3687822D01*
X7676931Y3669577D01*
X7674353Y3649999D01*
X7676931Y3630420D01*
X7684488Y3612175D01*
X7696510Y3596508D01*
X7712177Y3584486D01*
X7730421Y3576929D01*
X7750000Y3574351D01*
X7769579Y3576929D01*
X7787824Y3584486D01*
X7803491Y3596508D01*
X7815512Y3612175D01*
X7823070Y3630420D01*
X7825647Y3649999D01*
X7823070Y3669577D01*
X7815512Y3687822D01*
X7803491Y3703489D01*
X7787824Y3715511D01*
X7769579Y3723068D01*
X7750000Y3725646D01*
D02*
G37*
G36*
X7347308Y3639849D02*
X7260150D01*
Y3552691D01*
X7275531Y3554716D01*
X7299322Y3564571D01*
X7319752Y3580247D01*
X7335428Y3600677D01*
X7345283Y3624468D01*
X7347308Y3639849D01*
D02*
G37*
G36*
X7239850D02*
X7152693D01*
X7154718Y3624468D01*
X7164572Y3600677D01*
X7180249Y3580247D01*
X7200679Y3564571D01*
X7224469Y3554716D01*
X7239850Y3552691D01*
Y3639849D01*
D02*
G37*
G36*
X8600000Y3630869D02*
X8564714Y3627394D01*
X8530784Y3617101D01*
X8499514Y3600387D01*
X8472105Y3577894D01*
X8449611Y3550485D01*
X8432897Y3519215D01*
X8422605Y3485285D01*
X8419129Y3449998D01*
X8422605Y3414712D01*
X8432897Y3380782D01*
X8449611Y3349512D01*
X8472105Y3322103D01*
X8499514Y3299610D01*
X8530784Y3282896D01*
X8564714Y3272603D01*
X8600000Y3269128D01*
X8635286Y3272603D01*
X8669216Y3282896D01*
X8700487Y3299610D01*
X8727895Y3322103D01*
X8750389Y3349512D01*
X8767103Y3380782D01*
X8777395Y3414712D01*
X8780871Y3449998D01*
X8777395Y3485285D01*
X8767103Y3519215D01*
X8750389Y3550485D01*
X8727895Y3577894D01*
X8700487Y3600387D01*
X8669216Y3617101D01*
X8635286Y3627394D01*
X8600000Y3630869D01*
D02*
G37*
G36*
X-8600000D02*
X-8635286Y3627394D01*
X-8669216Y3617101D01*
X-8700487Y3600387D01*
X-8727895Y3577894D01*
X-8750389Y3550485D01*
X-8767103Y3519215D01*
X-8777395Y3485285D01*
X-8780871Y3449998D01*
X-8777395Y3414712D01*
X-8767103Y3380782D01*
X-8750389Y3349512D01*
X-8727895Y3322103D01*
X-8700487Y3299610D01*
X-8669216Y3282896D01*
X-8635286Y3272603D01*
X-8600000Y3269128D01*
X-8564714Y3272603D01*
X-8530784Y3282896D01*
X-8499514Y3299610D01*
X-8472105Y3322103D01*
X-8449611Y3349512D01*
X-8432897Y3380782D01*
X-8422605Y3414712D01*
X-8419129Y3449998D01*
X-8422605Y3485285D01*
X-8432897Y3519215D01*
X-8449611Y3550485D01*
X-8472105Y3577894D01*
X-8499514Y3600387D01*
X-8530784Y3617101D01*
X-8564714Y3627394D01*
X-8600000Y3630869D01*
D02*
G37*
G36*
X4958000Y3286724D02*
X4928595Y3283828D01*
X4900320Y3275251D01*
X4874261Y3261322D01*
X4851421Y3242577D01*
X4832676Y3219737D01*
X4818748Y3193678D01*
X4810170Y3165403D01*
X4807274Y3135998D01*
X4810170Y3106593D01*
X4818748Y3078318D01*
X4832676Y3052260D01*
X4851421Y3029419D01*
X4874261Y3010674D01*
X4900320Y2996746D01*
X4928595Y2988169D01*
X4958000Y2985273D01*
X4987405Y2988169D01*
X5015680Y2996746D01*
X5041739Y3010674D01*
X5064579Y3029419D01*
X5083324Y3052260D01*
X5097252Y3078318D01*
X5105830Y3106593D01*
X5108726Y3135998D01*
X5105830Y3165403D01*
X5097252Y3193678D01*
X5083324Y3219737D01*
X5064579Y3242577D01*
X5041739Y3261322D01*
X5015680Y3275251D01*
X4987405Y3283828D01*
X4958000Y3286724D01*
D02*
G37*
G36*
X8080150Y3175000D02*
Y2960148D01*
X8191338D01*
Y3054998D01*
X8187204Y3086403D01*
X8175082Y3115667D01*
X8155799Y3140797D01*
X8130669Y3160080D01*
X8101405Y3172202D01*
X8080150Y3175000D01*
D02*
G37*
G36*
X8059850D02*
X8038596Y3172202D01*
X8009331Y3160080D01*
X7984201Y3140797D01*
X7964918Y3115667D01*
X7952797Y3086403D01*
X7948662Y3054998D01*
Y2960148D01*
X8059850D01*
Y3175000D01*
D02*
G37*
G36*
X6940150D02*
Y2960148D01*
X7051338D01*
Y3054998D01*
X7047204Y3086403D01*
X7035082Y3115667D01*
X7015799Y3140797D01*
X6990669Y3160080D01*
X6961405Y3172202D01*
X6940150Y3175000D01*
D02*
G37*
G36*
X6919851D02*
X6898596Y3172202D01*
X6869331Y3160080D01*
X6844201Y3140797D01*
X6824919Y3115667D01*
X6812797Y3086403D01*
X6808662Y3054998D01*
Y2960148D01*
X6919851D01*
Y3175000D01*
D02*
G37*
G36*
X5658150Y2937827D02*
Y2848148D01*
X5747829D01*
X5745718Y2864182D01*
X5735612Y2888581D01*
X5719534Y2909533D01*
X5698582Y2925610D01*
X5674183Y2935717D01*
X5658150Y2937827D01*
D02*
G37*
G36*
X-2941850D02*
Y2848148D01*
X-2852171D01*
X-2854282Y2864182D01*
X-2864388Y2888581D01*
X-2880466Y2909533D01*
X-2901418Y2925610D01*
X-2925817Y2935717D01*
X-2941850Y2937827D01*
D02*
G37*
G36*
X5637850D02*
X5621816Y2935717D01*
X5597417Y2925610D01*
X5576465Y2909533D01*
X5560388Y2888581D01*
X5550282Y2864182D01*
X5548171Y2848148D01*
X5637850D01*
Y2937827D01*
D02*
G37*
G36*
X-2962150D02*
X-2978184Y2935717D01*
X-3002583Y2925610D01*
X-3023535Y2909533D01*
X-3039612Y2888581D01*
X-3049718Y2864182D01*
X-3051829Y2848148D01*
X-2962150D01*
Y2937827D01*
D02*
G37*
G36*
X5747829Y2827849D02*
X5658150D01*
Y2738170D01*
X5674183Y2740280D01*
X5698582Y2750387D01*
X5719534Y2766464D01*
X5735612Y2787416D01*
X5745718Y2811815D01*
X5747829Y2827849D01*
D02*
G37*
G36*
X-2852171D02*
X-2941850D01*
Y2738170D01*
X-2925817Y2740280D01*
X-2901418Y2750387D01*
X-2880466Y2766464D01*
X-2864388Y2787416D01*
X-2854282Y2811815D01*
X-2852171Y2827849D01*
D02*
G37*
G36*
X-2962150D02*
X-3051829D01*
X-3049718Y2811815D01*
X-3039612Y2787416D01*
X-3023535Y2766464D01*
X-3002583Y2750387D01*
X-2978184Y2740280D01*
X-2962150Y2738170D01*
Y2827849D01*
D02*
G37*
G36*
X5637850D02*
X5548171D01*
X5550282Y2811815D01*
X5560388Y2787416D01*
X5576465Y2766464D01*
X5597417Y2750387D01*
X5621816Y2740280D01*
X5637850Y2738170D01*
Y2827849D01*
D02*
G37*
G36*
X8191338Y2939849D02*
X8080150D01*
Y2724997D01*
X8101405Y2727795D01*
X8130669Y2739917D01*
X8155799Y2759200D01*
X8175082Y2784330D01*
X8187204Y2813594D01*
X8191338Y2844999D01*
Y2939849D01*
D02*
G37*
G36*
X8059850D02*
X7948662D01*
Y2844999D01*
X7952797Y2813594D01*
X7964918Y2784330D01*
X7984201Y2759200D01*
X8009331Y2739917D01*
X8038596Y2727795D01*
X8059850Y2724997D01*
Y2939849D01*
D02*
G37*
G36*
X7051338D02*
X6940150D01*
Y2724997D01*
X6961405Y2727795D01*
X6990669Y2739917D01*
X7015799Y2759200D01*
X7035082Y2784330D01*
X7047204Y2813594D01*
X7051338Y2844999D01*
Y2939849D01*
D02*
G37*
G36*
X6919851D02*
X6808662D01*
Y2844999D01*
X6812797Y2813594D01*
X6824919Y2784330D01*
X6844201Y2759200D01*
X6869331Y2739917D01*
X6898596Y2727795D01*
X6919851Y2724997D01*
Y2939849D01*
D02*
G37*
G36*
X-408662D02*
X-519850D01*
Y2724997D01*
X-498596Y2727795D01*
X-469331Y2739917D01*
X-444201Y2759200D01*
X-424918Y2784330D01*
X-412797Y2813594D01*
X-408662Y2844999D01*
Y2939849D01*
D02*
G37*
G36*
X-540150D02*
X-651338D01*
Y2844999D01*
X-647204Y2813594D01*
X-635082Y2784330D01*
X-615799Y2759200D01*
X-590669Y2739917D01*
X-561405Y2727795D01*
X-540150Y2724997D01*
Y2939849D01*
D02*
G37*
G36*
X-1548662D02*
X-1659850D01*
Y2724997D01*
X-1638595Y2727795D01*
X-1609331Y2739917D01*
X-1584201Y2759200D01*
X-1564918Y2784330D01*
X-1552796Y2813594D01*
X-1548662Y2844999D01*
Y2939849D01*
D02*
G37*
G36*
X-1680150D02*
X-1791338D01*
Y2844999D01*
X-1787203Y2813594D01*
X-1775082Y2784330D01*
X-1755799Y2759200D01*
X-1730669Y2739917D01*
X-1701405Y2727795D01*
X-1680150Y2724997D01*
Y2939849D01*
D02*
G37*
G36*
X4103150Y2727829D02*
Y2638150D01*
X4192829D01*
X4190718Y2654184D01*
X4180612Y2678583D01*
X4164535Y2699535D01*
X4143583Y2715612D01*
X4119184Y2725718D01*
X4103150Y2727829D01*
D02*
G37*
G36*
X4082850D02*
X4066817Y2725718D01*
X4042418Y2715612D01*
X4021466Y2699535D01*
X4005388Y2678583D01*
X3995282Y2654184D01*
X3993171Y2638150D01*
X4082850D01*
Y2727829D01*
D02*
G37*
G36*
X2833150D02*
Y2638150D01*
X2922829D01*
X2920718Y2654184D01*
X2910612Y2678583D01*
X2894535Y2699535D01*
X2873583Y2715612D01*
X2849184Y2725718D01*
X2833150Y2727829D01*
D02*
G37*
G36*
X2812850D02*
X2796817Y2725718D01*
X2772418Y2715612D01*
X2751466Y2699535D01*
X2735388Y2678583D01*
X2725282Y2654184D01*
X2723171Y2638150D01*
X2812850D01*
Y2727829D01*
D02*
G37*
G36*
X1563150D02*
Y2638150D01*
X1652829D01*
X1650718Y2654184D01*
X1640612Y2678583D01*
X1624535Y2699535D01*
X1603583Y2715612D01*
X1579184Y2725718D01*
X1563150Y2727829D01*
D02*
G37*
G36*
X1542850D02*
X1526817Y2725718D01*
X1502418Y2715612D01*
X1481466Y2699535D01*
X1465388Y2678583D01*
X1455282Y2654184D01*
X1453171Y2638150D01*
X1542850D01*
Y2727829D01*
D02*
G37*
G36*
X293150D02*
Y2638150D01*
X382829D01*
X380718Y2654184D01*
X370612Y2678583D01*
X354535Y2699535D01*
X333583Y2715612D01*
X309184Y2725718D01*
X293150Y2727829D01*
D02*
G37*
G36*
X272850D02*
X256817Y2725718D01*
X232418Y2715612D01*
X211466Y2699535D01*
X195388Y2678583D01*
X185282Y2654184D01*
X183171Y2638150D01*
X272850D01*
Y2727829D01*
D02*
G37*
G36*
X4601000Y2705664D02*
X4580899Y2703018D01*
X4562168Y2695259D01*
X4546083Y2682917D01*
X4533741Y2666832D01*
X4525982Y2648101D01*
X4523336Y2628000D01*
X4525982Y2607899D01*
X4533741Y2589168D01*
X4546083Y2573083D01*
X4562168Y2560741D01*
X4580899Y2552982D01*
X4601000Y2550336D01*
X4621101Y2552982D01*
X4639832Y2560741D01*
X4655917Y2573083D01*
X4668259Y2589168D01*
X4676018Y2607899D01*
X4678665Y2628000D01*
X4676018Y2648101D01*
X4668259Y2666832D01*
X4655917Y2682917D01*
X4639832Y2695259D01*
X4621101Y2703018D01*
X4601000Y2705664D01*
D02*
G37*
G36*
X4347000D02*
X4326899Y2703018D01*
X4308168Y2695259D01*
X4292083Y2682917D01*
X4279741Y2666832D01*
X4271982Y2648101D01*
X4269336Y2628000D01*
X4271982Y2607899D01*
X4279741Y2589168D01*
X4292083Y2573083D01*
X4308168Y2560741D01*
X4326899Y2552982D01*
X4347000Y2550336D01*
X4367101Y2552982D01*
X4385832Y2560741D01*
X4401917Y2573083D01*
X4414259Y2589168D01*
X4422018Y2607899D01*
X4424665Y2628000D01*
X4422018Y2648101D01*
X4414259Y2666832D01*
X4401917Y2682917D01*
X4385832Y2695259D01*
X4367101Y2703018D01*
X4347000Y2705664D01*
D02*
G37*
G36*
X3839000D02*
X3818899Y2703018D01*
X3800168Y2695259D01*
X3784083Y2682917D01*
X3771741Y2666832D01*
X3763982Y2648101D01*
X3761336Y2628000D01*
X3763982Y2607899D01*
X3771741Y2589168D01*
X3784083Y2573083D01*
X3800168Y2560741D01*
X3818899Y2552982D01*
X3839000Y2550336D01*
X3859101Y2552982D01*
X3877832Y2560741D01*
X3893917Y2573083D01*
X3906259Y2589168D01*
X3914018Y2607899D01*
X3916665Y2628000D01*
X3914018Y2648101D01*
X3906259Y2666832D01*
X3893917Y2682917D01*
X3877832Y2695259D01*
X3859101Y2703018D01*
X3839000Y2705664D01*
D02*
G37*
G36*
X3585000D02*
X3564899Y2703018D01*
X3546168Y2695259D01*
X3530083Y2682917D01*
X3517741Y2666832D01*
X3509982Y2648101D01*
X3507336Y2628000D01*
X3509982Y2607899D01*
X3517741Y2589168D01*
X3530083Y2573083D01*
X3546168Y2560741D01*
X3564899Y2552982D01*
X3585000Y2550336D01*
X3605101Y2552982D01*
X3623832Y2560741D01*
X3639917Y2573083D01*
X3652259Y2589168D01*
X3660018Y2607899D01*
X3662665Y2628000D01*
X3660018Y2648101D01*
X3652259Y2666832D01*
X3639917Y2682917D01*
X3623832Y2695259D01*
X3605101Y2703018D01*
X3585000Y2705664D01*
D02*
G37*
G36*
X3331000D02*
X3310899Y2703018D01*
X3292168Y2695259D01*
X3276083Y2682917D01*
X3263741Y2666832D01*
X3255982Y2648101D01*
X3253336Y2628000D01*
X3255982Y2607899D01*
X3263741Y2589168D01*
X3276083Y2573083D01*
X3292168Y2560741D01*
X3310899Y2552982D01*
X3331000Y2550336D01*
X3351101Y2552982D01*
X3369832Y2560741D01*
X3385917Y2573083D01*
X3398259Y2589168D01*
X3406018Y2607899D01*
X3408665Y2628000D01*
X3406018Y2648101D01*
X3398259Y2666832D01*
X3385917Y2682917D01*
X3369832Y2695259D01*
X3351101Y2703018D01*
X3331000Y2705664D01*
D02*
G37*
G36*
X3077000D02*
X3056899Y2703018D01*
X3038168Y2695259D01*
X3022083Y2682917D01*
X3009741Y2666832D01*
X3001982Y2648101D01*
X2999336Y2628000D01*
X3001982Y2607899D01*
X3009741Y2589168D01*
X3022083Y2573083D01*
X3038168Y2560741D01*
X3056899Y2552982D01*
X3077000Y2550336D01*
X3097101Y2552982D01*
X3115832Y2560741D01*
X3131917Y2573083D01*
X3144259Y2589168D01*
X3152018Y2607899D01*
X3154665Y2628000D01*
X3152018Y2648101D01*
X3144259Y2666832D01*
X3131917Y2682917D01*
X3115832Y2695259D01*
X3097101Y2703018D01*
X3077000Y2705664D01*
D02*
G37*
G36*
X2569000D02*
X2548899Y2703018D01*
X2530168Y2695259D01*
X2514083Y2682917D01*
X2501741Y2666832D01*
X2493982Y2648101D01*
X2491336Y2628000D01*
X2493982Y2607899D01*
X2501741Y2589168D01*
X2514083Y2573083D01*
X2530168Y2560741D01*
X2548899Y2552982D01*
X2569000Y2550336D01*
X2589101Y2552982D01*
X2607832Y2560741D01*
X2623917Y2573083D01*
X2636259Y2589168D01*
X2644018Y2607899D01*
X2646665Y2628000D01*
X2644018Y2648101D01*
X2636259Y2666832D01*
X2623917Y2682917D01*
X2607832Y2695259D01*
X2589101Y2703018D01*
X2569000Y2705664D01*
D02*
G37*
G36*
X2315000D02*
X2294899Y2703018D01*
X2276168Y2695259D01*
X2260083Y2682917D01*
X2247741Y2666832D01*
X2239982Y2648101D01*
X2237336Y2628000D01*
X2239982Y2607899D01*
X2247741Y2589168D01*
X2260083Y2573083D01*
X2276168Y2560741D01*
X2294899Y2552982D01*
X2315000Y2550336D01*
X2335101Y2552982D01*
X2353832Y2560741D01*
X2369917Y2573083D01*
X2382259Y2589168D01*
X2390018Y2607899D01*
X2392665Y2628000D01*
X2390018Y2648101D01*
X2382259Y2666832D01*
X2369917Y2682917D01*
X2353832Y2695259D01*
X2335101Y2703018D01*
X2315000Y2705664D01*
D02*
G37*
G36*
X2061000D02*
X2040899Y2703018D01*
X2022168Y2695259D01*
X2006083Y2682917D01*
X1993741Y2666832D01*
X1985982Y2648101D01*
X1983336Y2628000D01*
X1985982Y2607899D01*
X1993741Y2589168D01*
X2006083Y2573083D01*
X2022168Y2560741D01*
X2040899Y2552982D01*
X2061000Y2550336D01*
X2081101Y2552982D01*
X2099832Y2560741D01*
X2115917Y2573083D01*
X2128259Y2589168D01*
X2136018Y2607899D01*
X2138665Y2628000D01*
X2136018Y2648101D01*
X2128259Y2666832D01*
X2115917Y2682917D01*
X2099832Y2695259D01*
X2081101Y2703018D01*
X2061000Y2705664D01*
D02*
G37*
G36*
X1807000D02*
X1786899Y2703018D01*
X1768168Y2695259D01*
X1752083Y2682917D01*
X1739741Y2666832D01*
X1731982Y2648101D01*
X1729336Y2628000D01*
X1731982Y2607899D01*
X1739741Y2589168D01*
X1752083Y2573083D01*
X1768168Y2560741D01*
X1786899Y2552982D01*
X1807000Y2550336D01*
X1827101Y2552982D01*
X1845832Y2560741D01*
X1861917Y2573083D01*
X1874259Y2589168D01*
X1882018Y2607899D01*
X1884665Y2628000D01*
X1882018Y2648101D01*
X1874259Y2666832D01*
X1861917Y2682917D01*
X1845832Y2695259D01*
X1827101Y2703018D01*
X1807000Y2705664D01*
D02*
G37*
G36*
X1299000D02*
X1278899Y2703018D01*
X1260168Y2695259D01*
X1244083Y2682917D01*
X1231741Y2666832D01*
X1223982Y2648101D01*
X1221336Y2628000D01*
X1223982Y2607899D01*
X1231741Y2589168D01*
X1244083Y2573083D01*
X1260168Y2560741D01*
X1278899Y2552982D01*
X1299000Y2550336D01*
X1319101Y2552982D01*
X1337832Y2560741D01*
X1353917Y2573083D01*
X1366259Y2589168D01*
X1374018Y2607899D01*
X1376665Y2628000D01*
X1374018Y2648101D01*
X1366259Y2666832D01*
X1353917Y2682917D01*
X1337832Y2695259D01*
X1319101Y2703018D01*
X1299000Y2705664D01*
D02*
G37*
G36*
X1045000D02*
X1024899Y2703018D01*
X1006168Y2695259D01*
X990083Y2682917D01*
X977741Y2666832D01*
X969982Y2648101D01*
X967336Y2628000D01*
X969982Y2607899D01*
X977741Y2589168D01*
X990083Y2573083D01*
X1006168Y2560741D01*
X1024899Y2552982D01*
X1045000Y2550336D01*
X1065101Y2552982D01*
X1083832Y2560741D01*
X1099917Y2573083D01*
X1112259Y2589168D01*
X1120018Y2607899D01*
X1122665Y2628000D01*
X1120018Y2648101D01*
X1112259Y2666832D01*
X1099917Y2682917D01*
X1083832Y2695259D01*
X1065101Y2703018D01*
X1045000Y2705664D01*
D02*
G37*
G36*
X791000D02*
X770899Y2703018D01*
X752168Y2695259D01*
X736083Y2682917D01*
X723741Y2666832D01*
X715982Y2648101D01*
X713336Y2628000D01*
X715982Y2607899D01*
X723741Y2589168D01*
X736083Y2573083D01*
X752168Y2560741D01*
X770899Y2552982D01*
X791000Y2550336D01*
X811101Y2552982D01*
X829832Y2560741D01*
X845917Y2573083D01*
X858259Y2589168D01*
X866018Y2607899D01*
X868665Y2628000D01*
X866018Y2648101D01*
X858259Y2666832D01*
X845917Y2682917D01*
X829832Y2695259D01*
X811101Y2703018D01*
X791000Y2705664D01*
D02*
G37*
G36*
X537000D02*
X516899Y2703018D01*
X498168Y2695259D01*
X482083Y2682917D01*
X469741Y2666832D01*
X461982Y2648101D01*
X459336Y2628000D01*
X461982Y2607899D01*
X469741Y2589168D01*
X482083Y2573083D01*
X498168Y2560741D01*
X516899Y2552982D01*
X537000Y2550336D01*
X557101Y2552982D01*
X575832Y2560741D01*
X591917Y2573083D01*
X604259Y2589168D01*
X612018Y2607899D01*
X614665Y2628000D01*
X612018Y2648101D01*
X604259Y2666832D01*
X591917Y2682917D01*
X575832Y2695259D01*
X557101Y2703018D01*
X537000Y2705664D01*
D02*
G37*
G36*
X29000D02*
X8899Y2703018D01*
X-9832Y2695259D01*
X-25917Y2682917D01*
X-38259Y2666832D01*
X-46018Y2648101D01*
X-48664Y2628000D01*
X-46018Y2607899D01*
X-38259Y2589168D01*
X-25917Y2573083D01*
X-9832Y2560741D01*
X8899Y2552982D01*
X29000Y2550336D01*
X49101Y2552982D01*
X67832Y2560741D01*
X83917Y2573083D01*
X96259Y2589168D01*
X104018Y2607899D01*
X106665Y2628000D01*
X104018Y2648101D01*
X96259Y2666832D01*
X83917Y2682917D01*
X67832Y2695259D01*
X49101Y2703018D01*
X29000Y2705664D01*
D02*
G37*
G36*
X-225000D02*
X-245101Y2703018D01*
X-263832Y2695259D01*
X-279917Y2682917D01*
X-292259Y2666832D01*
X-300018Y2648101D01*
X-302664Y2628000D01*
X-300018Y2607899D01*
X-292259Y2589168D01*
X-279917Y2573083D01*
X-263832Y2560741D01*
X-245101Y2552982D01*
X-225000Y2550336D01*
X-204899Y2552982D01*
X-186168Y2560741D01*
X-170083Y2573083D01*
X-157741Y2589168D01*
X-149982Y2607899D01*
X-147335Y2628000D01*
X-149982Y2648101D01*
X-157741Y2666832D01*
X-170083Y2682917D01*
X-186168Y2695259D01*
X-204899Y2703018D01*
X-225000Y2705664D01*
D02*
G37*
G36*
X4192829Y2617850D02*
X4103150D01*
Y2528171D01*
X4119184Y2530282D01*
X4143583Y2540388D01*
X4164535Y2556466D01*
X4180612Y2577418D01*
X4190718Y2601816D01*
X4192829Y2617850D01*
D02*
G37*
G36*
X4082850D02*
X3993171D01*
X3995282Y2601816D01*
X4005388Y2577418D01*
X4021466Y2556466D01*
X4042418Y2540388D01*
X4066817Y2530282D01*
X4082850Y2528171D01*
Y2617850D01*
D02*
G37*
G36*
X2922829D02*
X2833150D01*
Y2528171D01*
X2849184Y2530282D01*
X2873583Y2540388D01*
X2894535Y2556466D01*
X2910612Y2577418D01*
X2920718Y2601816D01*
X2922829Y2617850D01*
D02*
G37*
G36*
X2812850D02*
X2723171D01*
X2725282Y2601816D01*
X2735388Y2577418D01*
X2751466Y2556466D01*
X2772418Y2540388D01*
X2796817Y2530282D01*
X2812850Y2528171D01*
Y2617850D01*
D02*
G37*
G36*
X1652829D02*
X1563150D01*
Y2528171D01*
X1579184Y2530282D01*
X1603583Y2540388D01*
X1624535Y2556466D01*
X1640612Y2577418D01*
X1650718Y2601816D01*
X1652829Y2617850D01*
D02*
G37*
G36*
X1542850D02*
X1453171D01*
X1455282Y2601816D01*
X1465388Y2577418D01*
X1481466Y2556466D01*
X1502418Y2540388D01*
X1526817Y2530282D01*
X1542850Y2528171D01*
Y2617850D01*
D02*
G37*
G36*
X382829D02*
X293150D01*
Y2528171D01*
X309184Y2530282D01*
X333583Y2540388D01*
X354535Y2556466D01*
X370612Y2577418D01*
X380718Y2601816D01*
X382829Y2617850D01*
D02*
G37*
G36*
X272850D02*
X183171D01*
X185282Y2601816D01*
X195388Y2577418D01*
X211466Y2556466D01*
X232418Y2540388D01*
X256817Y2530282D01*
X272850Y2528171D01*
Y2617850D01*
D02*
G37*
G36*
X7487500Y2626285D02*
X7467874Y2622381D01*
X7451236Y2611264D01*
X7440118Y2594626D01*
X7436214Y2575000D01*
X7436567Y2573227D01*
X7436449Y2572871D01*
X7436161Y2572205D01*
X7435727Y2571389D01*
X7435109Y2570415D01*
X7434480Y2569564D01*
X7363169Y2498252D01*
X7355875Y2487336D01*
X7353314Y2474460D01*
X7353314Y2474459D01*
Y1950897D01*
X7206063Y1803646D01*
X6174003D01*
X6174002Y1803647D01*
X6161126Y1801085D01*
X6150210Y1793792D01*
X6119496Y1763078D01*
X6119173Y1762802D01*
X6116109Y1760865D01*
X6111910Y1758869D01*
X6106538Y1756947D01*
X6100003Y1755205D01*
X6092340Y1753722D01*
X6083800Y1752579D01*
X6062695Y1751265D01*
X6053743Y1751210D01*
X6050000Y1751703D01*
X6022642Y1748101D01*
X5997148Y1737541D01*
X5975256Y1720743D01*
X5958458Y1698851D01*
X5947898Y1673357D01*
X5944296Y1645998D01*
X5947898Y1618640D01*
X5958458Y1593146D01*
X5975256Y1571254D01*
X5975528Y1571046D01*
X5975710Y1570539D01*
X5976483Y1567531D01*
X5977154Y1563902D01*
X5979094Y1537508D01*
Y1509370D01*
X5854628Y1384905D01*
X5749122D01*
X5734756Y1385218D01*
X5723585Y1386089D01*
X5719805Y1386596D01*
X5717600Y1387017D01*
X5698582Y1401610D01*
X5674183Y1411717D01*
X5648000Y1415164D01*
X5621816Y1411717D01*
X5597417Y1401610D01*
X5578400Y1387017D01*
X5576903Y1386731D01*
X5548291Y1384905D01*
X1211146D01*
Y2164594D01*
X1211295Y2165466D01*
X1211508Y2166305D01*
X1211702Y2166857D01*
X1211847Y2167170D01*
X1211924Y2167300D01*
X1211936Y2167315D01*
X1212805Y2168052D01*
X1213228Y2168586D01*
X1217553Y2171475D01*
X1228670Y2188114D01*
X1232574Y2207740D01*
X1228670Y2227366D01*
X1217553Y2244004D01*
X1200914Y2255121D01*
X1181288Y2259025D01*
X1161662Y2255121D01*
X1145024Y2244004D01*
X1133907Y2227366D01*
X1130003Y2207740D01*
X1133907Y2188114D01*
X1140226Y2178656D01*
X1140985Y2177002D01*
X1141821Y2175847D01*
X1142147Y2175309D01*
X1142479Y2174644D01*
X1142815Y2173821D01*
X1143142Y2172816D01*
X1143445Y2171617D01*
X1143657Y2170481D01*
X1143854Y2168492D01*
Y1384905D01*
X-154628D01*
X-319861Y1550138D01*
X-334546Y1561407D01*
X-351648Y1568490D01*
X-370000Y1570906D01*
X-1115814D01*
X-1118330Y1570940D01*
X-1161350Y1574583D01*
X-1170153Y1576412D01*
X-1174038Y1577618D01*
X-1174374Y1579049D01*
X-1176149Y1589461D01*
X-1179394Y1631487D01*
Y2123480D01*
X-1166694Y2127900D01*
X-1149322Y2114571D01*
X-1125531Y2104716D01*
X-1110150Y2102691D01*
Y2199998D01*
Y2297306D01*
X-1125531Y2295281D01*
X-1149322Y2285426D01*
X-1166694Y2272097D01*
X-1179394Y2276517D01*
Y2435523D01*
X-1092936Y2521980D01*
X-1092083Y2522610D01*
X-1091111Y2523226D01*
X-1090293Y2523662D01*
X-1089630Y2523949D01*
X-1089273Y2524067D01*
X-1087500Y2523715D01*
X-1067874Y2527619D01*
X-1051236Y2538736D01*
X-1040119Y2555374D01*
X-1036215Y2575000D01*
X-1040119Y2594626D01*
X-1051236Y2611264D01*
X-1067874Y2622381D01*
X-1087500Y2626285D01*
X-1107126Y2622381D01*
X-1123764Y2611264D01*
X-1134881Y2594626D01*
X-1138785Y2575000D01*
X-1138433Y2573227D01*
X-1138551Y2572871D01*
X-1138838Y2572205D01*
X-1139273Y2571389D01*
X-1139891Y2570415D01*
X-1140520Y2569564D01*
X-1236832Y2473252D01*
X-1244125Y2462336D01*
X-1246687Y2449460D01*
X-1246686Y2449459D01*
Y1630898D01*
X-1247302Y1616374D01*
X-1249897Y1589663D01*
X-1251705Y1579053D01*
X-1252042Y1577618D01*
X-1255926Y1576412D01*
X-1265252Y1574474D01*
X-1276800Y1572894D01*
X-1307532Y1570943D01*
X-1310266Y1570906D01*
X-1988407D01*
X-1992718Y1583606D01*
X-1985300Y1589298D01*
X-1972557Y1605905D01*
X-1964546Y1625245D01*
X-1961814Y1645998D01*
X-1964546Y1666752D01*
X-1972557Y1686092D01*
X-1985300Y1702699D01*
X-2001907Y1715442D01*
X-2021247Y1723452D01*
X-2042000Y1726185D01*
X-2062754Y1723452D01*
X-2082093Y1715442D01*
X-2098700Y1702699D01*
X-2111443Y1686092D01*
X-2119454Y1666752D01*
X-2122186Y1645998D01*
X-2119454Y1625245D01*
X-2111443Y1605905D01*
X-2098700Y1589298D01*
X-2091283Y1583606D01*
X-2095594Y1570906D01*
X-2210630D01*
X-2335860Y1696137D01*
X-2350545Y1707405D01*
X-2367647Y1714489D01*
X-2385999Y1716905D01*
X-2472311D01*
X-2475256Y1720743D01*
X-2497148Y1737541D01*
X-2522642Y1748101D01*
X-2550000Y1751703D01*
X-2577359Y1748101D01*
X-2602852Y1737541D01*
X-2624744Y1720743D01*
X-2624953Y1720471D01*
X-2625460Y1720289D01*
X-2628468Y1719516D01*
X-2632097Y1718845D01*
X-2658491Y1716905D01*
X-2711421D01*
X-2729773Y1714489D01*
X-2746874Y1707405D01*
X-2761559Y1696137D01*
X-2820138Y1637558D01*
X-2831407Y1622873D01*
X-2838490Y1605772D01*
X-2840906Y1587420D01*
Y1403794D01*
X-2857949Y1386752D01*
X-2882054D01*
X-2901418Y1401610D01*
X-2925817Y1411717D01*
X-2952000Y1415164D01*
X-2978184Y1411717D01*
X-3002583Y1401610D01*
X-3023535Y1385533D01*
X-3039612Y1364581D01*
X-3049718Y1340182D01*
X-3053165Y1313998D01*
X-3049718Y1287815D01*
X-3039612Y1263416D01*
X-3023535Y1242464D01*
X-3002583Y1226387D01*
X-2978184Y1216280D01*
X-2952000Y1212833D01*
X-2925817Y1216280D01*
X-2901418Y1226387D01*
X-2880466Y1242464D01*
X-2879076Y1244275D01*
X-2849252Y1244939D01*
X-2828579D01*
X-2810227Y1247355D01*
X-2793125Y1254439D01*
X-2778440Y1265707D01*
X-2719861Y1324286D01*
X-2708593Y1338971D01*
X-2701509Y1356072D01*
X-2699093Y1374424D01*
Y1558049D01*
X-2682051Y1575092D01*
X-2657130D01*
X-2644356Y1574527D01*
X-2632466Y1573220D01*
X-2628469Y1572481D01*
X-2625459Y1571708D01*
X-2624953Y1571526D01*
X-2624744Y1571254D01*
X-2602852Y1554456D01*
X-2577359Y1543896D01*
X-2550000Y1540294D01*
X-2522642Y1543896D01*
X-2497148Y1554456D01*
X-2475256Y1571254D01*
X-2472311Y1575092D01*
X-2415369D01*
X-2290138Y1449862D01*
X-2275453Y1438593D01*
X-2258352Y1431510D01*
X-2240000Y1429094D01*
X-399370D01*
X-234137Y1263860D01*
X-219451Y1252592D01*
X-202350Y1245508D01*
X-183998Y1243092D01*
X720094D01*
Y951122D01*
X719780Y936757D01*
X718910Y925585D01*
X718402Y921805D01*
X717982Y919600D01*
X703388Y900583D01*
X693282Y876184D01*
X689835Y850000D01*
X693282Y823816D01*
X703388Y799418D01*
X719466Y778466D01*
X740418Y762388D01*
X764817Y752282D01*
X791000Y748835D01*
X817184Y752282D01*
X841583Y762388D01*
X862535Y778466D01*
X878612Y799418D01*
X888718Y823816D01*
X892165Y850000D01*
X888718Y876184D01*
X878612Y900583D01*
X864019Y919600D01*
X863733Y921097D01*
X861907Y949709D01*
Y1243092D01*
X5546878D01*
X5561243Y1242778D01*
X5572415Y1241908D01*
X5576195Y1241401D01*
X5578400Y1240980D01*
X5597417Y1226387D01*
X5621816Y1216280D01*
X5648000Y1212833D01*
X5674183Y1216280D01*
X5698582Y1226387D01*
X5717600Y1240980D01*
X5719097Y1241265D01*
X5747708Y1243092D01*
X5883998D01*
X5902350Y1245508D01*
X5919452Y1252592D01*
X5934137Y1263860D01*
X6100138Y1429862D01*
X6111407Y1444547D01*
X6118490Y1461648D01*
X6120906Y1480000D01*
Y1538869D01*
X6121471Y1551643D01*
X6122778Y1563533D01*
X6123517Y1567529D01*
X6124291Y1570539D01*
X6124472Y1571046D01*
X6124744Y1571254D01*
X6141542Y1593146D01*
X6152103Y1618640D01*
X6155704Y1645998D01*
X6155211Y1649741D01*
X6155266Y1658694D01*
X6156581Y1679799D01*
X6157724Y1688339D01*
X6159207Y1696001D01*
X6160948Y1702535D01*
X6162870Y1707908D01*
X6164867Y1712108D01*
X6166804Y1715171D01*
X6167081Y1715496D01*
X6187939Y1736354D01*
X6537944D01*
X6538776Y1723654D01*
X6537247Y1723452D01*
X6517907Y1715442D01*
X6501300Y1702699D01*
X6488557Y1686092D01*
X6480546Y1666752D01*
X6477814Y1645998D01*
X6480546Y1625245D01*
X6488557Y1605905D01*
X6501300Y1589298D01*
X6517907Y1576555D01*
X6537247Y1568545D01*
X6558000Y1565812D01*
X6578754Y1568545D01*
X6598093Y1576555D01*
X6614700Y1589298D01*
X6627443Y1605905D01*
X6635454Y1625245D01*
X6638186Y1645998D01*
X6635454Y1666752D01*
X6627443Y1686092D01*
X6614700Y1702699D01*
X6598093Y1715442D01*
X6578754Y1723452D01*
X6577224Y1723654D01*
X6578056Y1736354D01*
X7219999D01*
X7220000Y1736353D01*
X7232876Y1738915D01*
X7243792Y1746208D01*
X7410751Y1913168D01*
X7410752Y1913169D01*
X7418046Y1924085D01*
X7420607Y1936960D01*
X7420607Y1936962D01*
Y2123480D01*
X7433307Y2127900D01*
X7450679Y2114571D01*
X7474469Y2104716D01*
X7489850Y2102691D01*
Y2199998D01*
Y2297306D01*
X7474469Y2295281D01*
X7450679Y2285426D01*
X7433307Y2272097D01*
X7420607Y2276517D01*
Y2460523D01*
X7482064Y2521980D01*
X7482917Y2522610D01*
X7483889Y2523226D01*
X7484707Y2523662D01*
X7485370Y2523949D01*
X7485727Y2524067D01*
X7487500Y2523715D01*
X7507126Y2527619D01*
X7523764Y2538736D01*
X7534881Y2555374D01*
X7538785Y2575000D01*
X7534881Y2594626D01*
X7523764Y2611264D01*
X7507126Y2622381D01*
X7487500Y2626285D01*
D02*
G37*
G36*
X5648000Y2659645D02*
X5628421Y2657068D01*
X5610176Y2649511D01*
X5594509Y2637489D01*
X5582488Y2621822D01*
X5574930Y2603577D01*
X5572353Y2583998D01*
X5574930Y2564420D01*
X5582488Y2546175D01*
X5594509Y2530508D01*
X5610176Y2518486D01*
X5628421Y2510929D01*
X5648000Y2508351D01*
X5667579Y2510929D01*
X5685824Y2518486D01*
X5701491Y2530508D01*
X5713512Y2546175D01*
X5721069Y2564420D01*
X5723647Y2583998D01*
X5721069Y2603577D01*
X5713512Y2621822D01*
X5701491Y2637489D01*
X5685824Y2649511D01*
X5667579Y2657068D01*
X5648000Y2659645D01*
D02*
G37*
G36*
X-2952000D02*
X-2971579Y2657068D01*
X-2989824Y2649511D01*
X-3005491Y2637489D01*
X-3017512Y2621822D01*
X-3025070Y2603577D01*
X-3027647Y2583998D01*
X-3025070Y2564420D01*
X-3017512Y2546175D01*
X-3005491Y2530508D01*
X-2989824Y2518486D01*
X-2971579Y2510929D01*
X-2952000Y2508351D01*
X-2932421Y2510929D01*
X-2914177Y2518486D01*
X-2898510Y2530508D01*
X-2886488Y2546175D01*
X-2878931Y2564420D01*
X-2876353Y2583998D01*
X-2878931Y2603577D01*
X-2886488Y2621822D01*
X-2898510Y2637489D01*
X-2914177Y2649511D01*
X-2932421Y2657068D01*
X-2952000Y2659645D01*
D02*
G37*
G36*
X7017500Y2470783D02*
X7001893Y2467679D01*
X6988662Y2458838D01*
X6979821Y2445607D01*
X6976717Y2430000D01*
X6979821Y2414393D01*
X6988662Y2401162D01*
X7001893Y2392321D01*
X7017500Y2389216D01*
X7033107Y2392321D01*
X7046338Y2401162D01*
X7055179Y2414393D01*
X7058284Y2430000D01*
X7055179Y2445607D01*
X7046338Y2458838D01*
X7033107Y2467679D01*
X7017500Y2470783D01*
D02*
G37*
G36*
X7972500Y2440784D02*
X7956893Y2437679D01*
X7943662Y2428838D01*
X7934821Y2415607D01*
X7931716Y2400000D01*
X7934821Y2384393D01*
X7943662Y2371162D01*
X7956893Y2362321D01*
X7972500Y2359217D01*
X7988107Y2362321D01*
X8001338Y2371162D01*
X8010179Y2384393D01*
X8013283Y2400000D01*
X8010179Y2415607D01*
X8001338Y2428838D01*
X7988107Y2437679D01*
X7972500Y2440784D01*
D02*
G37*
G36*
X5648000Y2405645D02*
X5628421Y2403068D01*
X5610176Y2395511D01*
X5594509Y2383489D01*
X5582488Y2367822D01*
X5574930Y2349577D01*
X5572353Y2329998D01*
X5574930Y2310420D01*
X5582488Y2292175D01*
X5594509Y2276508D01*
X5610176Y2264486D01*
X5628421Y2256929D01*
X5648000Y2254351D01*
X5667579Y2256929D01*
X5685824Y2264486D01*
X5701491Y2276508D01*
X5713512Y2292175D01*
X5721069Y2310420D01*
X5723647Y2329998D01*
X5721069Y2349577D01*
X5713512Y2367822D01*
X5701491Y2383489D01*
X5685824Y2395511D01*
X5667579Y2403068D01*
X5648000Y2405645D01*
D02*
G37*
G36*
X-2952000D02*
X-2971579Y2403068D01*
X-2989824Y2395511D01*
X-3005491Y2383489D01*
X-3017512Y2367822D01*
X-3025070Y2349577D01*
X-3027647Y2329998D01*
X-3025070Y2310420D01*
X-3017512Y2292175D01*
X-3005491Y2276508D01*
X-2989824Y2264486D01*
X-2971579Y2256929D01*
X-2952000Y2254351D01*
X-2932421Y2256929D01*
X-2914177Y2264486D01*
X-2898510Y2276508D01*
X-2886488Y2292175D01*
X-2878931Y2310420D01*
X-2876353Y2329998D01*
X-2878931Y2349577D01*
X-2886488Y2367822D01*
X-2898510Y2383489D01*
X-2914177Y2395511D01*
X-2932421Y2403068D01*
X-2952000Y2405645D01*
D02*
G37*
G36*
X7510150Y2297306D02*
Y2210148D01*
X7597308D01*
X7595283Y2225529D01*
X7585428Y2249320D01*
X7569752Y2269750D01*
X7549322Y2285426D01*
X7525531Y2295281D01*
X7510150Y2297306D01*
D02*
G37*
G36*
X-1089850D02*
Y2210148D01*
X-1002693D01*
X-1004718Y2225529D01*
X-1014572Y2249320D01*
X-1030248Y2269750D01*
X-1050678Y2285426D01*
X-1074469Y2295281D01*
X-1089850Y2297306D01*
D02*
G37*
G36*
X6060150Y2258366D02*
Y2164148D01*
X6154368D01*
X6152103Y2181357D01*
X6141542Y2206851D01*
X6124744Y2228743D01*
X6102852Y2245541D01*
X6077358Y2256101D01*
X6060150Y2258366D01*
D02*
G37*
G36*
X6039850D02*
X6022642Y2256101D01*
X5997148Y2245541D01*
X5975256Y2228743D01*
X5958458Y2206851D01*
X5947898Y2181357D01*
X5945632Y2164148D01*
X6039850D01*
Y2258366D01*
D02*
G37*
G36*
X-2539850D02*
Y2164148D01*
X-2445632D01*
X-2447898Y2181357D01*
X-2458458Y2206851D01*
X-2475256Y2228743D01*
X-2497148Y2245541D01*
X-2522642Y2256101D01*
X-2539850Y2258366D01*
D02*
G37*
G36*
X-2560150D02*
X-2577359Y2256101D01*
X-2602852Y2245541D01*
X-2624744Y2228743D01*
X-2641543Y2206851D01*
X-2652103Y2181357D01*
X-2654368Y2164148D01*
X-2560150D01*
Y2258366D01*
D02*
G37*
G36*
X7750000Y2275645D02*
X7730421Y2273068D01*
X7712177Y2265511D01*
X7696510Y2253489D01*
X7684488Y2237822D01*
X7676931Y2219577D01*
X7674353Y2199998D01*
X7676931Y2180420D01*
X7684488Y2162175D01*
X7696510Y2146508D01*
X7712177Y2134486D01*
X7730421Y2126929D01*
X7750000Y2124351D01*
X7769579Y2126929D01*
X7787824Y2134486D01*
X7803491Y2146508D01*
X7815512Y2162175D01*
X7823070Y2180420D01*
X7825647Y2199998D01*
X7823070Y2219577D01*
X7815512Y2237822D01*
X7803491Y2253489D01*
X7787824Y2265511D01*
X7769579Y2273068D01*
X7750000Y2275645D01*
D02*
G37*
G36*
X7250000D02*
X7230421Y2273068D01*
X7212177Y2265511D01*
X7196510Y2253489D01*
X7184488Y2237822D01*
X7176931Y2219577D01*
X7174353Y2199998D01*
X7176931Y2180420D01*
X7184488Y2162175D01*
X7196510Y2146508D01*
X7212177Y2134486D01*
X7230421Y2126929D01*
X7250000Y2124351D01*
X7269579Y2126929D01*
X7287824Y2134486D01*
X7303491Y2146508D01*
X7315512Y2162175D01*
X7323070Y2180420D01*
X7325647Y2199998D01*
X7323070Y2219577D01*
X7315512Y2237822D01*
X7303491Y2253489D01*
X7287824Y2265511D01*
X7269579Y2273068D01*
X7250000Y2275645D01*
D02*
G37*
G36*
X-850000D02*
X-869579Y2273068D01*
X-887823Y2265511D01*
X-903491Y2253489D01*
X-915512Y2237822D01*
X-923070Y2219577D01*
X-925647Y2199998D01*
X-923070Y2180420D01*
X-915512Y2162175D01*
X-903491Y2146508D01*
X-887823Y2134486D01*
X-869579Y2126929D01*
X-850000Y2124351D01*
X-830421Y2126929D01*
X-812177Y2134486D01*
X-796509Y2146508D01*
X-784488Y2162175D01*
X-776931Y2180420D01*
X-774353Y2199998D01*
X-776931Y2219577D01*
X-784488Y2237822D01*
X-796509Y2253489D01*
X-812177Y2265511D01*
X-830421Y2273068D01*
X-850000Y2275645D01*
D02*
G37*
G36*
X-1350000D02*
X-1369579Y2273068D01*
X-1387823Y2265511D01*
X-1403491Y2253489D01*
X-1415512Y2237822D01*
X-1423070Y2219577D01*
X-1425647Y2199998D01*
X-1423070Y2180420D01*
X-1415512Y2162175D01*
X-1403491Y2146508D01*
X-1387823Y2134486D01*
X-1369579Y2126929D01*
X-1350000Y2124351D01*
X-1330421Y2126929D01*
X-1312177Y2134486D01*
X-1296509Y2146508D01*
X-1284488Y2162175D01*
X-1276931Y2180420D01*
X-1274353Y2199998D01*
X-1276931Y2219577D01*
X-1284488Y2237822D01*
X-1296509Y2253489D01*
X-1312177Y2265511D01*
X-1330421Y2273068D01*
X-1350000Y2275645D01*
D02*
G37*
G36*
X7597308Y2189849D02*
X7510150D01*
Y2102691D01*
X7525531Y2104716D01*
X7549322Y2114571D01*
X7569752Y2130247D01*
X7585428Y2150676D01*
X7595283Y2174468D01*
X7597308Y2189849D01*
D02*
G37*
G36*
X-1002693D02*
X-1089850D01*
Y2102691D01*
X-1074469Y2104716D01*
X-1050678Y2114571D01*
X-1030248Y2130247D01*
X-1014572Y2150676D01*
X-1004718Y2174468D01*
X-1002693Y2189849D01*
D02*
G37*
G36*
X6558000Y2234185D02*
X6537247Y2231452D01*
X6517907Y2223442D01*
X6501300Y2210699D01*
X6488557Y2194092D01*
X6480546Y2174752D01*
X6477814Y2153998D01*
X6480546Y2133245D01*
X6488557Y2113905D01*
X6501300Y2097298D01*
X6517907Y2084555D01*
X6537247Y2076545D01*
X6558000Y2073812D01*
X6578754Y2076545D01*
X6598093Y2084555D01*
X6614700Y2097298D01*
X6627443Y2113905D01*
X6635454Y2133245D01*
X6638186Y2153998D01*
X6635454Y2174752D01*
X6627443Y2194092D01*
X6614700Y2210699D01*
X6598093Y2223442D01*
X6578754Y2231452D01*
X6558000Y2234185D01*
D02*
G37*
G36*
X-2042000D02*
X-2062754Y2231452D01*
X-2082093Y2223442D01*
X-2098700Y2210699D01*
X-2111443Y2194092D01*
X-2119454Y2174752D01*
X-2122186Y2153998D01*
X-2119454Y2133245D01*
X-2111443Y2113905D01*
X-2098700Y2097298D01*
X-2082093Y2084555D01*
X-2062754Y2076545D01*
X-2042000Y2073812D01*
X-2021247Y2076545D01*
X-2001907Y2084555D01*
X-1985300Y2097298D01*
X-1972557Y2113905D01*
X-1964546Y2133245D01*
X-1961814Y2153998D01*
X-1964546Y2174752D01*
X-1972557Y2194092D01*
X-1985300Y2210699D01*
X-2001907Y2223442D01*
X-2021247Y2231452D01*
X-2042000Y2234185D01*
D02*
G37*
G36*
X6154368Y2143849D02*
X6060150D01*
Y2049631D01*
X6077358Y2051896D01*
X6102852Y2062456D01*
X6124744Y2079254D01*
X6141542Y2101146D01*
X6152103Y2126640D01*
X6154368Y2143849D01*
D02*
G37*
G36*
X6039850D02*
X5945632D01*
X5947898Y2126640D01*
X5958458Y2101146D01*
X5975256Y2079254D01*
X5997148Y2062456D01*
X6022642Y2051896D01*
X6039850Y2049631D01*
Y2143849D01*
D02*
G37*
G36*
X-2445632D02*
X-2539850D01*
Y2049631D01*
X-2522642Y2051896D01*
X-2497148Y2062456D01*
X-2475256Y2079254D01*
X-2458458Y2101146D01*
X-2447898Y2126640D01*
X-2445632Y2143849D01*
D02*
G37*
G36*
X-2560150D02*
X-2654368D01*
X-2652103Y2126640D01*
X-2641543Y2101146D01*
X-2624744Y2079254D01*
X-2602852Y2062456D01*
X-2577359Y2051896D01*
X-2560150Y2049631D01*
Y2143849D01*
D02*
G37*
G36*
X5648000Y2151645D02*
X5628421Y2149068D01*
X5610176Y2141511D01*
X5594509Y2129489D01*
X5582488Y2113822D01*
X5574930Y2095577D01*
X5572353Y2075998D01*
X5574930Y2056420D01*
X5582488Y2038175D01*
X5594509Y2022508D01*
X5610176Y2010486D01*
X5628421Y2002929D01*
X5648000Y2000351D01*
X5667579Y2002929D01*
X5685824Y2010486D01*
X5701491Y2022508D01*
X5713512Y2038175D01*
X5721069Y2056420D01*
X5723647Y2075998D01*
X5721069Y2095577D01*
X5713512Y2113822D01*
X5701491Y2129489D01*
X5685824Y2141511D01*
X5667579Y2149068D01*
X5648000Y2151645D01*
D02*
G37*
G36*
X-2952000D02*
X-2971579Y2149068D01*
X-2989824Y2141511D01*
X-3005491Y2129489D01*
X-3017512Y2113822D01*
X-3025070Y2095577D01*
X-3027647Y2075998D01*
X-3025070Y2056420D01*
X-3017512Y2038175D01*
X-3005491Y2022508D01*
X-2989824Y2010486D01*
X-2971579Y2002929D01*
X-2952000Y2000351D01*
X-2932421Y2002929D01*
X-2914177Y2010486D01*
X-2898510Y2022508D01*
X-2886488Y2038175D01*
X-2878931Y2056420D01*
X-2876353Y2075998D01*
X-2878931Y2095577D01*
X-2886488Y2113822D01*
X-2898510Y2129489D01*
X-2914177Y2141511D01*
X-2932421Y2149068D01*
X-2952000Y2151645D01*
D02*
G37*
G36*
X-6689850Y1987625D02*
Y1910150D01*
X-6612376D01*
X-6614071Y1923025D01*
X-6622958Y1944480D01*
X-6637095Y1962905D01*
X-6655520Y1977043D01*
X-6676975Y1985930D01*
X-6689850Y1987625D01*
D02*
G37*
G36*
X-6710150D02*
X-6723025Y1985930D01*
X-6744481Y1977043D01*
X-6762905Y1962905D01*
X-6777043Y1944480D01*
X-6785930Y1923025D01*
X-6787625Y1910150D01*
X-6710150D01*
Y1987625D01*
D02*
G37*
G36*
X6558000Y1980185D02*
X6537247Y1977452D01*
X6517907Y1969442D01*
X6501300Y1956699D01*
X6488557Y1940092D01*
X6480546Y1920752D01*
X6477814Y1899998D01*
X6480546Y1879245D01*
X6488557Y1859905D01*
X6501300Y1843298D01*
X6517907Y1830555D01*
X6537247Y1822545D01*
X6558000Y1819812D01*
X6578754Y1822545D01*
X6598093Y1830555D01*
X6614700Y1843298D01*
X6627443Y1859905D01*
X6635454Y1879245D01*
X6638186Y1899998D01*
X6635454Y1920752D01*
X6627443Y1940092D01*
X6614700Y1956699D01*
X6598093Y1969442D01*
X6578754Y1977452D01*
X6558000Y1980185D01*
D02*
G37*
G36*
X6050000D02*
X6029247Y1977452D01*
X6009907Y1969442D01*
X5993300Y1956699D01*
X5980557Y1940092D01*
X5972546Y1920752D01*
X5969814Y1899998D01*
X5972546Y1879245D01*
X5980557Y1859905D01*
X5993300Y1843298D01*
X6009907Y1830555D01*
X6029247Y1822545D01*
X6050000Y1819812D01*
X6070754Y1822545D01*
X6090093Y1830555D01*
X6106700Y1843298D01*
X6119443Y1859905D01*
X6127454Y1879245D01*
X6130186Y1899998D01*
X6127454Y1920752D01*
X6119443Y1940092D01*
X6106700Y1956699D01*
X6090093Y1969442D01*
X6070754Y1977452D01*
X6050000Y1980185D01*
D02*
G37*
G36*
X-2042000D02*
X-2062754Y1977452D01*
X-2082093Y1969442D01*
X-2098700Y1956699D01*
X-2111443Y1940092D01*
X-2119454Y1920752D01*
X-2122186Y1899998D01*
X-2119454Y1879245D01*
X-2111443Y1859905D01*
X-2098700Y1843298D01*
X-2082093Y1830555D01*
X-2062754Y1822545D01*
X-2042000Y1819812D01*
X-2021247Y1822545D01*
X-2001907Y1830555D01*
X-1985300Y1843298D01*
X-1972557Y1859905D01*
X-1964546Y1879245D01*
X-1961814Y1899998D01*
X-1964546Y1920752D01*
X-1972557Y1940092D01*
X-1985300Y1956699D01*
X-2001907Y1969442D01*
X-2021247Y1977452D01*
X-2042000Y1980185D01*
D02*
G37*
G36*
X-2550000D02*
X-2570754Y1977452D01*
X-2590093Y1969442D01*
X-2606700Y1956699D01*
X-2619443Y1940092D01*
X-2627454Y1920752D01*
X-2630186Y1899998D01*
X-2627454Y1879245D01*
X-2619443Y1859905D01*
X-2606700Y1843298D01*
X-2590093Y1830555D01*
X-2570754Y1822545D01*
X-2550000Y1819812D01*
X-2529247Y1822545D01*
X-2509907Y1830555D01*
X-2493300Y1843298D01*
X-2480557Y1859905D01*
X-2472546Y1879245D01*
X-2469814Y1899998D01*
X-2472546Y1920752D01*
X-2480557Y1940092D01*
X-2493300Y1956699D01*
X-2509907Y1969442D01*
X-2529247Y1977452D01*
X-2550000Y1980185D01*
D02*
G37*
G36*
X-6612376Y1889850D02*
X-6689850D01*
Y1812375D01*
X-6676975Y1814070D01*
X-6655520Y1822957D01*
X-6637095Y1837095D01*
X-6622958Y1855520D01*
X-6614071Y1876975D01*
X-6612376Y1889850D01*
D02*
G37*
G36*
X-6710150D02*
X-6787625D01*
X-6785930Y1876975D01*
X-6777043Y1855520D01*
X-6762905Y1837095D01*
X-6744481Y1822957D01*
X-6723025Y1814070D01*
X-6710150Y1812375D01*
Y1889850D01*
D02*
G37*
G36*
X5648000Y1897645D02*
X5628421Y1895068D01*
X5610176Y1887511D01*
X5594509Y1875489D01*
X5582488Y1859822D01*
X5574930Y1841577D01*
X5572353Y1821998D01*
X5574930Y1802420D01*
X5582488Y1784175D01*
X5594509Y1768508D01*
X5610176Y1756486D01*
X5628421Y1748929D01*
X5648000Y1746351D01*
X5667579Y1748929D01*
X5685824Y1756486D01*
X5701491Y1768508D01*
X5713512Y1784175D01*
X5721069Y1802420D01*
X5723647Y1821998D01*
X5721069Y1841577D01*
X5713512Y1859822D01*
X5701491Y1875489D01*
X5685824Y1887511D01*
X5667579Y1895068D01*
X5648000Y1897645D01*
D02*
G37*
G36*
X-2952000D02*
X-2971579Y1895068D01*
X-2989824Y1887511D01*
X-3005491Y1875489D01*
X-3017512Y1859822D01*
X-3025070Y1841577D01*
X-3027647Y1821998D01*
X-3025070Y1802420D01*
X-3017512Y1784175D01*
X-3005491Y1768508D01*
X-2989824Y1756486D01*
X-2971579Y1748929D01*
X-2952000Y1746351D01*
X-2932421Y1748929D01*
X-2914177Y1756486D01*
X-2898510Y1768508D01*
X-2886488Y1784175D01*
X-2878931Y1802420D01*
X-2876353Y1821998D01*
X-2878931Y1841577D01*
X-2886488Y1859822D01*
X-2898510Y1875489D01*
X-2914177Y1887511D01*
X-2932421Y1895068D01*
X-2952000Y1897645D01*
D02*
G37*
G36*
X-72671Y1715613D02*
X-88278Y1712508D01*
X-101509Y1703668D01*
X-110350Y1690437D01*
X-113454Y1674829D01*
X-110350Y1659222D01*
X-101509Y1645991D01*
X-88278Y1637150D01*
X-72671Y1634046D01*
X-57063Y1637150D01*
X-43832Y1645991D01*
X-34992Y1659222D01*
X-31887Y1674829D01*
X-34992Y1690437D01*
X-43832Y1703668D01*
X-57063Y1712508D01*
X-72671Y1715613D01*
D02*
G37*
G36*
X-6700000Y1714082D02*
X-6717621Y1711763D01*
X-6734041Y1704961D01*
X-6748142Y1694142D01*
X-6758961Y1680041D01*
X-6765763Y1663621D01*
X-6768083Y1646000D01*
X-6765763Y1628379D01*
X-6758961Y1611959D01*
X-6748142Y1597858D01*
X-6734041Y1587039D01*
X-6717621Y1580237D01*
X-6700000Y1577918D01*
X-6682379Y1580237D01*
X-6665959Y1587039D01*
X-6651859Y1597858D01*
X-6641039Y1611959D01*
X-6634238Y1628379D01*
X-6631918Y1646000D01*
X-6634238Y1663621D01*
X-6641039Y1680041D01*
X-6651859Y1694142D01*
X-6665959Y1704961D01*
X-6682379Y1711763D01*
X-6700000Y1714082D01*
D02*
G37*
G36*
X5648000Y1643645D02*
X5628421Y1641068D01*
X5610176Y1633511D01*
X5594509Y1621489D01*
X5582488Y1605822D01*
X5574930Y1587577D01*
X5572353Y1567998D01*
X5574930Y1548420D01*
X5582488Y1530175D01*
X5594509Y1514508D01*
X5610176Y1502486D01*
X5628421Y1494929D01*
X5648000Y1492351D01*
X5667579Y1494929D01*
X5685824Y1502486D01*
X5701491Y1514508D01*
X5713512Y1530175D01*
X5721069Y1548420D01*
X5723647Y1567998D01*
X5721069Y1587577D01*
X5713512Y1605822D01*
X5701491Y1621489D01*
X5685824Y1633511D01*
X5667579Y1641068D01*
X5648000Y1643645D01*
D02*
G37*
G36*
X-2952000D02*
X-2971579Y1641068D01*
X-2989824Y1633511D01*
X-3005491Y1621489D01*
X-3017512Y1605822D01*
X-3025070Y1587577D01*
X-3027647Y1567998D01*
X-3025070Y1548420D01*
X-3017512Y1530175D01*
X-3005491Y1514508D01*
X-2989824Y1502486D01*
X-2971579Y1494929D01*
X-2952000Y1492351D01*
X-2932421Y1494929D01*
X-2914177Y1502486D01*
X-2898510Y1514508D01*
X-2886488Y1530175D01*
X-2878931Y1548420D01*
X-2876353Y1567998D01*
X-2878931Y1587577D01*
X-2886488Y1605822D01*
X-2898510Y1621489D01*
X-2914177Y1633511D01*
X-2932421Y1641068D01*
X-2952000Y1643645D01*
D02*
G37*
G36*
X7854320Y1264503D02*
Y1154318D01*
X7964505D01*
X7961695Y1175659D01*
X7949540Y1205004D01*
X7930205Y1230203D01*
X7905006Y1249539D01*
X7875661Y1261693D01*
X7854320Y1264503D01*
D02*
G37*
G36*
X7834020D02*
X7812680Y1261693D01*
X7783335Y1249539D01*
X7758136Y1230203D01*
X7738800Y1205004D01*
X7726645Y1175659D01*
X7723836Y1154318D01*
X7834020D01*
Y1264503D01*
D02*
G37*
G36*
X7165980D02*
Y1154318D01*
X7276165D01*
X7273355Y1175659D01*
X7261200Y1205004D01*
X7241865Y1230203D01*
X7216666Y1249539D01*
X7187321Y1261693D01*
X7165980Y1264503D01*
D02*
G37*
G36*
X7145680D02*
X7124340Y1261693D01*
X7094995Y1249539D01*
X7069796Y1230203D01*
X7050460Y1205004D01*
X7038305Y1175659D01*
X7035496Y1154318D01*
X7145680D01*
Y1264503D01*
D02*
G37*
G36*
X7964505Y1134019D02*
X7854320D01*
Y1023834D01*
X7875661Y1026643D01*
X7905006Y1038798D01*
X7930205Y1058134D01*
X7949540Y1083333D01*
X7961695Y1112678D01*
X7964505Y1134019D01*
D02*
G37*
G36*
X7834020D02*
X7723836D01*
X7726645Y1112678D01*
X7738800Y1083333D01*
X7758136Y1058134D01*
X7783335Y1038798D01*
X7812680Y1026643D01*
X7834020Y1023834D01*
Y1134019D01*
D02*
G37*
G36*
X7276165D02*
X7165980D01*
Y1023834D01*
X7187321Y1026643D01*
X7216666Y1038798D01*
X7241865Y1058134D01*
X7261200Y1083333D01*
X7273355Y1112678D01*
X7276165Y1134019D01*
D02*
G37*
G36*
X7145680D02*
X7035496D01*
X7038305Y1112678D01*
X7050460Y1083333D01*
X7069796Y1058134D01*
X7094995Y1038798D01*
X7124340Y1026643D01*
X7145680Y1023834D01*
Y1134019D01*
D02*
G37*
G36*
X-635496D02*
X-745680D01*
Y1023834D01*
X-724339Y1026643D01*
X-694995Y1038798D01*
X-669796Y1058134D01*
X-650460Y1083333D01*
X-638305Y1112678D01*
X-635496Y1134019D01*
D02*
G37*
G36*
X-765980D02*
X-876165D01*
X-873355Y1112678D01*
X-861200Y1083333D01*
X-841864Y1058134D01*
X-816665Y1038798D01*
X-787321Y1026643D01*
X-765980Y1023834D01*
Y1134019D01*
D02*
G37*
G36*
X-1323836D02*
X-1434020D01*
Y1023834D01*
X-1412679Y1026643D01*
X-1383335Y1038798D01*
X-1358136Y1058134D01*
X-1338800Y1083333D01*
X-1326645Y1112678D01*
X-1323836Y1134019D01*
D02*
G37*
G36*
X-1454320D02*
X-1564505D01*
X-1561695Y1112678D01*
X-1549540Y1083333D01*
X-1530204Y1058134D01*
X-1505005Y1038798D01*
X-1475661Y1026643D01*
X-1454320Y1023834D01*
Y1134019D01*
D02*
G37*
G36*
X4958000Y1166724D02*
X4928595Y1163828D01*
X4900320Y1155251D01*
X4874261Y1141322D01*
X4851421Y1122578D01*
X4832676Y1099737D01*
X4818748Y1073679D01*
X4810170Y1045404D01*
X4807274Y1015998D01*
X4810170Y986593D01*
X4818748Y958318D01*
X4832676Y932260D01*
X4851421Y909419D01*
X4874261Y890675D01*
X4900320Y876746D01*
X4928595Y868169D01*
X4958000Y865273D01*
X4987405Y868169D01*
X5015680Y876746D01*
X5041739Y890675D01*
X5064579Y909419D01*
X5083324Y932260D01*
X5097252Y958318D01*
X5105830Y986593D01*
X5108726Y1015998D01*
X5105830Y1045404D01*
X5097252Y1073679D01*
X5083324Y1099737D01*
X5064579Y1122578D01*
X5041739Y1141322D01*
X5015680Y1155251D01*
X4987405Y1163828D01*
X4958000Y1166724D01*
D02*
G37*
G36*
X-3642000D02*
X-3671405Y1163828D01*
X-3699680Y1155251D01*
X-3725739Y1141322D01*
X-3748579Y1122578D01*
X-3767324Y1099737D01*
X-3781253Y1073679D01*
X-3789830Y1045404D01*
X-3792726Y1015998D01*
X-3789830Y986593D01*
X-3781253Y958318D01*
X-3767324Y932260D01*
X-3748579Y909419D01*
X-3725739Y890675D01*
X-3699680Y876746D01*
X-3671405Y868169D01*
X-3642000Y865273D01*
X-3612595Y868169D01*
X-3584320Y876746D01*
X-3558261Y890675D01*
X-3535421Y909419D01*
X-3516676Y932260D01*
X-3502748Y958318D01*
X-3494171Y986593D01*
X-3491274Y1015998D01*
X-3494171Y1045404D01*
X-3502748Y1073679D01*
X-3516676Y1099737D01*
X-3535421Y1122578D01*
X-3558261Y1141322D01*
X-3584320Y1155251D01*
X-3612595Y1163828D01*
X-3642000Y1166724D01*
D02*
G37*
G36*
X293149Y949829D02*
Y860150D01*
X382829D01*
X380718Y876184D01*
X370612Y900583D01*
X354535Y921535D01*
X333583Y937612D01*
X309184Y947718D01*
X293149Y949829D01*
D02*
G37*
G36*
X4103149D02*
Y860150D01*
X4192829D01*
X4190718Y876184D01*
X4180612Y900583D01*
X4164535Y921535D01*
X4143583Y937612D01*
X4119184Y947718D01*
X4103149Y949829D01*
D02*
G37*
G36*
X1563149D02*
Y860150D01*
X1652829D01*
X1650718Y876184D01*
X1640612Y900583D01*
X1624535Y921535D01*
X1603583Y937612D01*
X1579184Y947718D01*
X1563149Y949829D01*
D02*
G37*
G36*
X2833149D02*
Y860150D01*
X2922829D01*
X2920718Y876184D01*
X2910612Y900583D01*
X2894535Y921535D01*
X2873583Y937612D01*
X2849184Y947718D01*
X2833149Y949829D01*
D02*
G37*
G36*
X4082849Y949829D02*
X4066817Y947718D01*
X4042418Y937612D01*
X4021466Y921535D01*
X4005388Y900583D01*
X3995282Y876184D01*
X3993171Y860150D01*
X4082849D01*
Y949829D01*
D02*
G37*
G36*
X272849D02*
X256817Y947718D01*
X232418Y937612D01*
X211466Y921535D01*
X195388Y900583D01*
X185282Y876184D01*
X183171Y860150D01*
X272849D01*
Y949829D01*
D02*
G37*
G36*
X2812849D02*
X2796817Y947718D01*
X2772418Y937612D01*
X2751466Y921535D01*
X2735388Y900583D01*
X2725282Y876184D01*
X2723171Y860150D01*
X2812849D01*
Y949829D01*
D02*
G37*
G36*
X1542849D02*
X1526817Y947718D01*
X1502418Y937612D01*
X1481466Y921535D01*
X1465388Y900583D01*
X1455282Y876184D01*
X1453171Y860150D01*
X1542849D01*
Y949829D01*
D02*
G37*
G36*
X4601000Y927664D02*
X4580899Y925018D01*
X4562168Y917259D01*
X4546083Y904917D01*
X4533741Y888832D01*
X4525982Y870101D01*
X4523336Y850000D01*
X4525982Y829899D01*
X4533741Y811168D01*
X4546083Y795083D01*
X4562168Y782741D01*
X4580899Y774982D01*
X4601000Y772336D01*
X4621101Y774982D01*
X4639832Y782741D01*
X4655917Y795083D01*
X4668259Y811168D01*
X4676018Y829899D01*
X4678665Y850000D01*
X4676018Y870101D01*
X4668259Y888832D01*
X4655917Y904917D01*
X4639832Y917259D01*
X4621101Y925018D01*
X4601000Y927664D01*
D02*
G37*
G36*
X4347000D02*
X4326899Y925018D01*
X4308168Y917259D01*
X4292083Y904917D01*
X4279741Y888832D01*
X4271982Y870101D01*
X4269336Y850000D01*
X4271982Y829899D01*
X4279741Y811168D01*
X4292083Y795083D01*
X4308168Y782741D01*
X4326899Y774982D01*
X4347000Y772336D01*
X4367101Y774982D01*
X4385832Y782741D01*
X4401917Y795083D01*
X4414259Y811168D01*
X4422018Y829899D01*
X4424665Y850000D01*
X4422018Y870101D01*
X4414259Y888832D01*
X4401917Y904917D01*
X4385832Y917259D01*
X4367101Y925018D01*
X4347000Y927664D01*
D02*
G37*
G36*
X3839000D02*
X3818899Y925018D01*
X3800168Y917259D01*
X3784083Y904917D01*
X3771741Y888832D01*
X3763982Y870101D01*
X3761336Y850000D01*
X3763982Y829899D01*
X3771741Y811168D01*
X3784083Y795083D01*
X3800168Y782741D01*
X3818899Y774982D01*
X3839000Y772336D01*
X3859101Y774982D01*
X3877832Y782741D01*
X3893917Y795083D01*
X3906259Y811168D01*
X3914018Y829899D01*
X3916665Y850000D01*
X3914018Y870101D01*
X3906259Y888832D01*
X3893917Y904917D01*
X3877832Y917259D01*
X3859101Y925018D01*
X3839000Y927664D01*
D02*
G37*
G36*
X3585000D02*
X3564899Y925018D01*
X3546168Y917259D01*
X3530083Y904917D01*
X3517741Y888832D01*
X3509982Y870101D01*
X3507336Y850000D01*
X3509982Y829899D01*
X3517741Y811168D01*
X3530083Y795083D01*
X3546168Y782741D01*
X3564899Y774982D01*
X3585000Y772336D01*
X3605101Y774982D01*
X3623832Y782741D01*
X3639917Y795083D01*
X3652259Y811168D01*
X3660018Y829899D01*
X3662665Y850000D01*
X3660018Y870101D01*
X3652259Y888832D01*
X3639917Y904917D01*
X3623832Y917259D01*
X3605101Y925018D01*
X3585000Y927664D01*
D02*
G37*
G36*
X3331000D02*
X3310899Y925018D01*
X3292168Y917259D01*
X3276083Y904917D01*
X3263741Y888832D01*
X3255982Y870101D01*
X3253336Y850000D01*
X3255982Y829899D01*
X3263741Y811168D01*
X3276083Y795083D01*
X3292168Y782741D01*
X3310899Y774982D01*
X3331000Y772336D01*
X3351101Y774982D01*
X3369832Y782741D01*
X3385917Y795083D01*
X3398259Y811168D01*
X3406018Y829899D01*
X3408665Y850000D01*
X3406018Y870101D01*
X3398259Y888832D01*
X3385917Y904917D01*
X3369832Y917259D01*
X3351101Y925018D01*
X3331000Y927664D01*
D02*
G37*
G36*
X3077000D02*
X3056899Y925018D01*
X3038168Y917259D01*
X3022083Y904917D01*
X3009741Y888832D01*
X3001982Y870101D01*
X2999336Y850000D01*
X3001982Y829899D01*
X3009741Y811168D01*
X3022083Y795083D01*
X3038168Y782741D01*
X3056899Y774982D01*
X3077000Y772336D01*
X3097101Y774982D01*
X3115832Y782741D01*
X3131917Y795083D01*
X3144259Y811168D01*
X3152018Y829899D01*
X3154665Y850000D01*
X3152018Y870101D01*
X3144259Y888832D01*
X3131917Y904917D01*
X3115832Y917259D01*
X3097101Y925018D01*
X3077000Y927664D01*
D02*
G37*
G36*
X2569000D02*
X2548899Y925018D01*
X2530168Y917259D01*
X2514083Y904917D01*
X2501741Y888832D01*
X2493982Y870101D01*
X2491336Y850000D01*
X2493982Y829899D01*
X2501741Y811168D01*
X2514083Y795083D01*
X2530168Y782741D01*
X2548899Y774982D01*
X2569000Y772336D01*
X2589101Y774982D01*
X2607832Y782741D01*
X2623917Y795083D01*
X2636259Y811168D01*
X2644018Y829899D01*
X2646665Y850000D01*
X2644018Y870101D01*
X2636259Y888832D01*
X2623917Y904917D01*
X2607832Y917259D01*
X2589101Y925018D01*
X2569000Y927664D01*
D02*
G37*
G36*
X2315000D02*
X2294899Y925018D01*
X2276168Y917259D01*
X2260083Y904917D01*
X2247741Y888832D01*
X2239982Y870101D01*
X2237336Y850000D01*
X2239982Y829899D01*
X2247741Y811168D01*
X2260083Y795083D01*
X2276168Y782741D01*
X2294899Y774982D01*
X2315000Y772336D01*
X2335101Y774982D01*
X2353832Y782741D01*
X2369917Y795083D01*
X2382259Y811168D01*
X2390018Y829899D01*
X2392665Y850000D01*
X2390018Y870101D01*
X2382259Y888832D01*
X2369917Y904917D01*
X2353832Y917259D01*
X2335101Y925018D01*
X2315000Y927664D01*
D02*
G37*
G36*
X2061000D02*
X2040899Y925018D01*
X2022168Y917259D01*
X2006083Y904917D01*
X1993741Y888832D01*
X1985982Y870101D01*
X1983336Y850000D01*
X1985982Y829899D01*
X1993741Y811168D01*
X2006083Y795083D01*
X2022168Y782741D01*
X2040899Y774982D01*
X2061000Y772336D01*
X2081101Y774982D01*
X2099832Y782741D01*
X2115917Y795083D01*
X2128259Y811168D01*
X2136018Y829899D01*
X2138665Y850000D01*
X2136018Y870101D01*
X2128259Y888832D01*
X2115917Y904917D01*
X2099832Y917259D01*
X2081101Y925018D01*
X2061000Y927664D01*
D02*
G37*
G36*
X1807000D02*
X1786899Y925018D01*
X1768168Y917259D01*
X1752083Y904917D01*
X1739741Y888832D01*
X1731982Y870101D01*
X1729336Y850000D01*
X1731982Y829899D01*
X1739741Y811168D01*
X1752083Y795083D01*
X1768168Y782741D01*
X1786899Y774982D01*
X1807000Y772336D01*
X1827101Y774982D01*
X1845832Y782741D01*
X1861917Y795083D01*
X1874259Y811168D01*
X1882018Y829899D01*
X1884665Y850000D01*
X1882018Y870101D01*
X1874259Y888832D01*
X1861917Y904917D01*
X1845832Y917259D01*
X1827101Y925018D01*
X1807000Y927664D01*
D02*
G37*
G36*
X1299000D02*
X1278899Y925018D01*
X1260168Y917259D01*
X1244083Y904917D01*
X1231741Y888832D01*
X1223982Y870101D01*
X1221336Y850000D01*
X1223982Y829899D01*
X1231741Y811168D01*
X1244083Y795083D01*
X1260168Y782741D01*
X1278899Y774982D01*
X1299000Y772336D01*
X1319101Y774982D01*
X1337832Y782741D01*
X1353917Y795083D01*
X1366259Y811168D01*
X1374018Y829899D01*
X1376665Y850000D01*
X1374018Y870101D01*
X1366259Y888832D01*
X1353917Y904917D01*
X1337832Y917259D01*
X1319101Y925018D01*
X1299000Y927664D01*
D02*
G37*
G36*
X537000D02*
X516899Y925018D01*
X498168Y917259D01*
X482083Y904917D01*
X469741Y888832D01*
X461982Y870101D01*
X459336Y850000D01*
X461982Y829899D01*
X469741Y811168D01*
X482083Y795083D01*
X498168Y782741D01*
X516899Y774982D01*
X537000Y772336D01*
X557101Y774982D01*
X575832Y782741D01*
X591917Y795083D01*
X604259Y811168D01*
X612018Y829899D01*
X614665Y850000D01*
X612018Y870101D01*
X604259Y888832D01*
X591917Y904917D01*
X575832Y917259D01*
X557101Y925018D01*
X537000Y927664D01*
D02*
G37*
G36*
X-225000D02*
X-245101Y925018D01*
X-263832Y917259D01*
X-279917Y904917D01*
X-292259Y888832D01*
X-300018Y870101D01*
X-302664Y850000D01*
X-300018Y829899D01*
X-292259Y811168D01*
X-279917Y795083D01*
X-263832Y782741D01*
X-245101Y774982D01*
X-225000Y772336D01*
X-204899Y774982D01*
X-186168Y782741D01*
X-170083Y795083D01*
X-157741Y811168D01*
X-149982Y829899D01*
X-147335Y850000D01*
X-149982Y870101D01*
X-157741Y888832D01*
X-170083Y904917D01*
X-186168Y917259D01*
X-204899Y925018D01*
X-225000Y927664D01*
D02*
G37*
G36*
X4082849Y839850D02*
X3993171D01*
X3995282Y823816D01*
X4005388Y799418D01*
X4021466Y778466D01*
X4042418Y762388D01*
X4066817Y752282D01*
X4082849Y750171D01*
Y839850D01*
D02*
G37*
G36*
X2812849D02*
X2723171D01*
X2725282Y823816D01*
X2735388Y799418D01*
X2751466Y778466D01*
X2772418Y762388D01*
X2796817Y752282D01*
X2812849Y750171D01*
Y839850D01*
D02*
G37*
G36*
X1542849D02*
X1453171D01*
X1455282Y823816D01*
X1465388Y799418D01*
X1481466Y778466D01*
X1502418Y762388D01*
X1526817Y752282D01*
X1542849Y750171D01*
Y839850D01*
D02*
G37*
G36*
X272849D02*
X183171D01*
X185282Y823816D01*
X195388Y799418D01*
X211466Y778466D01*
X232418Y762388D01*
X256817Y752282D01*
X272849Y750171D01*
Y839850D01*
D02*
G37*
G36*
X4192829D02*
X4103149D01*
Y750171D01*
X4119184Y752282D01*
X4143583Y762388D01*
X4164535Y778466D01*
X4180612Y799418D01*
X4190718Y823816D01*
X4192829Y839850D01*
D02*
G37*
G36*
X2922829D02*
X2833149D01*
Y750171D01*
X2849184Y752282D01*
X2873583Y762388D01*
X2894535Y778466D01*
X2910612Y799418D01*
X2920718Y823816D01*
X2922829Y839850D01*
D02*
G37*
G36*
X1652829D02*
X1563149D01*
Y750171D01*
X1579184Y752282D01*
X1603583Y762388D01*
X1624535Y778466D01*
X1640612Y799418D01*
X1650718Y823816D01*
X1652829Y839850D01*
D02*
G37*
G36*
X382829D02*
X293149D01*
Y750171D01*
X309184Y752282D01*
X333583Y762388D01*
X354535Y778466D01*
X370612Y799418D01*
X380718Y823816D01*
X382829Y839850D01*
D02*
G37*
G36*
X-3705000Y1715906D02*
X-6102524D01*
X-6120876Y1713490D01*
X-6137977Y1706407D01*
X-6152662Y1695138D01*
X-6317662Y1530138D01*
X-6328931Y1515453D01*
X-6336015Y1498352D01*
X-6338431Y1480000D01*
Y1465024D01*
X-6336015Y1446672D01*
X-6328931Y1429571D01*
X-6317662Y1414886D01*
X-6240138Y1337362D01*
X-6225453Y1326093D01*
X-6208352Y1319010D01*
X-6190000Y1316594D01*
X-6171648Y1319010D01*
X-6154547Y1326093D01*
X-6139862Y1337362D01*
X-6128593Y1352047D01*
X-6121510Y1369148D01*
X-6119094Y1387500D01*
X-6121510Y1405852D01*
X-6128593Y1422953D01*
X-6139862Y1437638D01*
X-6174735Y1472512D01*
X-6073154Y1574094D01*
X-3734370D01*
X-3190138Y1029862D01*
X-3175453Y1018593D01*
X-3158352Y1011510D01*
X-3140000Y1009094D01*
X-2790000D01*
X-2771648Y1011510D01*
X-2754547Y1018593D01*
X-2739861Y1029862D01*
X-2525831Y1243892D01*
X-1532119D01*
X-1528037Y1231866D01*
X-1530204Y1230203D01*
X-1549540Y1205004D01*
X-1561695Y1175659D01*
X-1564505Y1154318D01*
X-1323836D01*
X-1326645Y1175659D01*
X-1338800Y1205004D01*
X-1358136Y1230203D01*
X-1360303Y1231866D01*
X-1356221Y1243892D01*
X-843779D01*
X-839697Y1231866D01*
X-841864Y1230203D01*
X-861200Y1205004D01*
X-873355Y1175659D01*
X-876165Y1154318D01*
X-635496D01*
X-638305Y1175659D01*
X-650460Y1205004D01*
X-669796Y1230203D01*
X-671963Y1231866D01*
X-667881Y1243892D01*
X-465168D01*
X-92643Y871367D01*
X-82708Y860988D01*
X-75420Y852468D01*
X-73108Y849439D01*
X-71847Y847583D01*
X-68718Y823816D01*
X-58612Y799418D01*
X-42534Y778466D01*
X-21582Y762388D01*
X2817Y752282D01*
X29000Y748835D01*
X55184Y752282D01*
X79583Y762388D01*
X100535Y778466D01*
X116612Y799418D01*
X126718Y823816D01*
X130165Y850000D01*
X126718Y876184D01*
X116612Y900583D01*
X100535Y921535D01*
X79583Y937612D01*
X55184Y947718D01*
X31417Y950847D01*
X30158Y951702D01*
X8632Y970645D01*
X-385660Y1364937D01*
X-400345Y1376205D01*
X-417446Y1383289D01*
X-435798Y1385705D01*
X-2555201D01*
X-2573553Y1383289D01*
X-2590655Y1376205D01*
X-2605340Y1364937D01*
X-2819370Y1150907D01*
X-3110630D01*
X-3654862Y1695138D01*
X-3669547Y1706407D01*
X-3686648Y1713490D01*
X-3705000Y1715906D01*
D02*
G37*
G36*
X7500000Y875171D02*
X7480544Y872610D01*
X7462414Y865100D01*
X7446845Y853154D01*
X7434899Y837585D01*
X7427388Y819455D01*
X7424827Y799998D01*
X7427388Y780542D01*
X7434899Y762412D01*
X7446845Y746843D01*
X7462414Y734897D01*
X7480544Y727387D01*
X7500000Y724825D01*
X7519456Y727387D01*
X7537587Y734897D01*
X7553156Y746843D01*
X7565102Y762412D01*
X7572612Y780542D01*
X7575173Y799998D01*
X7572612Y819455D01*
X7565102Y837585D01*
X7553156Y853154D01*
X7537587Y865100D01*
X7519456Y872610D01*
X7500000Y875171D01*
D02*
G37*
G36*
X-1100000D02*
X-1119456Y872610D01*
X-1137587Y865100D01*
X-1153155Y853154D01*
X-1165102Y837585D01*
X-1172612Y819455D01*
X-1175173Y799998D01*
X-1172612Y780542D01*
X-1165102Y762412D01*
X-1153155Y746843D01*
X-1137587Y734897D01*
X-1119456Y727387D01*
X-1100000Y724825D01*
X-1080544Y727387D01*
X-1062413Y734897D01*
X-1046845Y746843D01*
X-1034898Y762412D01*
X-1027388Y780542D01*
X-1024827Y799998D01*
X-1027388Y819455D01*
X-1034898Y837585D01*
X-1046845Y853154D01*
X-1062413Y865100D01*
X-1080544Y872610D01*
X-1100000Y875171D01*
D02*
G37*
G36*
X7854320Y576163D02*
Y465978D01*
X7964505D01*
X7961695Y487319D01*
X7949540Y516664D01*
X7930205Y541863D01*
X7905006Y561199D01*
X7875661Y573353D01*
X7854320Y576163D01*
D02*
G37*
G36*
X7834020D02*
X7812680Y573353D01*
X7783335Y561199D01*
X7758136Y541863D01*
X7738800Y516664D01*
X7726645Y487319D01*
X7723836Y465978D01*
X7834020D01*
Y576163D01*
D02*
G37*
G36*
X7165980D02*
Y465978D01*
X7276165D01*
X7273355Y487319D01*
X7261200Y516664D01*
X7241865Y541863D01*
X7216666Y561199D01*
X7187321Y573353D01*
X7165980Y576163D01*
D02*
G37*
G36*
X7145680D02*
X7124340Y573353D01*
X7094995Y561199D01*
X7069796Y541863D01*
X7050460Y516664D01*
X7038305Y487319D01*
X7035496Y465978D01*
X7145680D01*
Y576163D01*
D02*
G37*
G36*
X7964505Y445679D02*
X7854320D01*
Y335494D01*
X7875661Y338303D01*
X7905006Y350458D01*
X7930205Y369794D01*
X7949540Y394993D01*
X7961695Y424338D01*
X7964505Y445679D01*
D02*
G37*
G36*
X7834020D02*
X7723836D01*
X7726645Y424338D01*
X7738800Y394993D01*
X7758136Y369794D01*
X7783335Y350458D01*
X7812680Y338303D01*
X7834020Y335494D01*
Y445679D01*
D02*
G37*
G36*
X7276165D02*
X7165980D01*
Y335494D01*
X7187321Y338303D01*
X7216666Y350458D01*
X7241865Y369794D01*
X7261200Y394993D01*
X7273355Y424338D01*
X7276165Y445679D01*
D02*
G37*
G36*
X7145680D02*
X7035496D01*
X7038305Y424338D01*
X7050460Y394993D01*
X7069796Y369794D01*
X7094995Y350458D01*
X7124340Y338303D01*
X7145680Y335494D01*
Y445679D01*
D02*
G37*
G36*
X-5550000Y1560698D02*
X-5670000D01*
X-5677921Y1559122D01*
X-5684636Y1554635D01*
X-5689122Y1547921D01*
X-5690698Y1540000D01*
Y250000D01*
X-5689122Y242079D01*
X-5684636Y235365D01*
X-5677921Y230878D01*
X-5670000Y229302D01*
X-163138D01*
X-160156Y229895D01*
X-157130Y230194D01*
X-156224Y230677D01*
X-155217Y230878D01*
X-152689Y232567D01*
X-150008Y234001D01*
X-142826Y233836D01*
X-136889Y232238D01*
X-135619Y231514D01*
X-127895Y222103D01*
X-100487Y199610D01*
X-69217Y182896D01*
X-35286Y172603D01*
X-0Y169128D01*
X35286Y172603D01*
X69216Y182896D01*
X100486Y199610D01*
X127895Y222103D01*
X135618Y231514D01*
X136888Y232238D01*
X142826Y233836D01*
X150007Y234001D01*
X152689Y232567D01*
X155217Y230878D01*
X156224Y230677D01*
X157129Y230194D01*
X160156Y229895D01*
X163138Y229302D01*
X6260000D01*
X6267921Y230878D01*
X6274635Y235365D01*
X6279122Y242079D01*
X6280698Y250000D01*
Y1220000D01*
X6279122Y1227921D01*
X6274635Y1234636D01*
X6267921Y1239122D01*
X6260000Y1240698D01*
X6185681D01*
X6184244Y1240412D01*
X6182780Y1240494D01*
X6180318Y1239631D01*
X6177760Y1239122D01*
X6176542Y1238308D01*
X6175159Y1237824D01*
X6173214Y1236084D01*
X6171046Y1234636D01*
X6170232Y1233417D01*
X6169139Y1232440D01*
X5716627Y630698D01*
X5626822D01*
X5616970Y643398D01*
X5618283Y650000D01*
X5615179Y665607D01*
X5606338Y678838D01*
X5593107Y687679D01*
X5577500Y690783D01*
X5561893Y687679D01*
X5548661Y678838D01*
X5539821Y665607D01*
X5536716Y650000D01*
X5538030Y643398D01*
X5528178Y630698D01*
X1115907D01*
Y748878D01*
X1116220Y763244D01*
X1117090Y774415D01*
X1117598Y778195D01*
X1118019Y780400D01*
X1132612Y799418D01*
X1142718Y823816D01*
X1146165Y850000D01*
X1142718Y876184D01*
X1132612Y900583D01*
X1116535Y921535D01*
X1095583Y937612D01*
X1071184Y947718D01*
X1045000Y951165D01*
X1018817Y947718D01*
X994418Y937612D01*
X973466Y921535D01*
X957388Y900583D01*
X947282Y876184D01*
X943835Y850000D01*
X947282Y823816D01*
X957388Y799418D01*
X971982Y780400D01*
X972267Y778903D01*
X974094Y750292D01*
Y630698D01*
X-1881427D01*
X-2365365Y1114636D01*
X-2372080Y1119122D01*
X-2380000Y1120698D01*
X-2450000D01*
X-2457920Y1119122D01*
X-2464635Y1114636D01*
X-2468947Y1110324D01*
X-2478764Y1103764D01*
X-2485324Y1093947D01*
X-2828631Y750640D01*
X-2829763Y748946D01*
X-2835388Y746980D01*
X-2842280Y746117D01*
X-2845284Y746836D01*
X-2846027Y747262D01*
X-2848811Y749122D01*
X-2849510Y749261D01*
X-2850128Y749616D01*
X-2853447Y750044D01*
X-2856732Y750698D01*
X-4731427D01*
X-5535364Y1554635D01*
X-5542079Y1559122D01*
X-5550000Y1560698D01*
D02*
G37*
G36*
X8600000Y530869D02*
X8564714Y527394D01*
X8530784Y517101D01*
X8499514Y500387D01*
X8472105Y477894D01*
X8449611Y450485D01*
X8432897Y419215D01*
X8422605Y385285D01*
X8419129Y349999D01*
X8422605Y314712D01*
X8432897Y280782D01*
X8449611Y249512D01*
X8472105Y222103D01*
X8499514Y199610D01*
X8530784Y182896D01*
X8564714Y172603D01*
X8600000Y169128D01*
X8635286Y172603D01*
X8669216Y182896D01*
X8700487Y199610D01*
X8727895Y222103D01*
X8750389Y249512D01*
X8767103Y280782D01*
X8777395Y314712D01*
X8780871Y349999D01*
X8777395Y385285D01*
X8767103Y419215D01*
X8750389Y450485D01*
X8727895Y477894D01*
X8700487Y500387D01*
X8669216Y517101D01*
X8635286Y527394D01*
X8600000Y530869D01*
D02*
G37*
G36*
X-8600000D02*
X-8635286Y527394D01*
X-8669216Y517101D01*
X-8700487Y500387D01*
X-8727895Y477894D01*
X-8750389Y450485D01*
X-8767103Y419215D01*
X-8777395Y385285D01*
X-8780871Y349999D01*
X-8777395Y314712D01*
X-8767103Y280782D01*
X-8750389Y249512D01*
X-8727895Y222103D01*
X-8700487Y199610D01*
X-8669216Y182896D01*
X-8635286Y172603D01*
X-8600000Y169128D01*
X-8564714Y172603D01*
X-8530784Y182896D01*
X-8499514Y199610D01*
X-8472105Y222103D01*
X-8449611Y249512D01*
X-8432897Y280782D01*
X-8422605Y314712D01*
X-8419129Y349999D01*
X-8422605Y385285D01*
X-8432897Y419215D01*
X-8449611Y450485D01*
X-8472105Y477894D01*
X-8499514Y500387D01*
X-8530784Y517101D01*
X-8564714Y527394D01*
X-8600000Y530869D01*
D02*
G37*
%LPD*%
G36*
X7487200Y2545002D02*
X7484881Y2544913D01*
X7482574Y2544601D01*
X7480279Y2544067D01*
X7477995Y2543309D01*
X7475722Y2542328D01*
X7473462Y2541123D01*
X7471212Y2539695D01*
X7468975Y2538045D01*
X7466748Y2536170D01*
X7464534Y2534073D01*
X7446573Y2552034D01*
X7448670Y2554248D01*
X7450545Y2556475D01*
X7452195Y2558712D01*
X7453623Y2560962D01*
X7454828Y2563222D01*
X7455809Y2565495D01*
X7456567Y2567779D01*
X7457101Y2570074D01*
X7457413Y2572381D01*
X7457501Y2574700D01*
X7487200Y2545002D01*
D02*
G37*
G36*
X-1087800D02*
X-1090118Y2544913D01*
X-1092426Y2544601D01*
X-1094721Y2544067D01*
X-1097005Y2543309D01*
X-1099277Y2542328D01*
X-1101538Y2541123D01*
X-1103787Y2539695D01*
X-1106025Y2538045D01*
X-1108252Y2536170D01*
X-1110466Y2534073D01*
X-1128427Y2552034D01*
X-1126329Y2554248D01*
X-1124455Y2556475D01*
X-1122804Y2558712D01*
X-1121377Y2560962D01*
X-1120172Y2563222D01*
X-1119191Y2565495D01*
X-1118433Y2567779D01*
X-1117898Y2570074D01*
X-1117587Y2572381D01*
X-1117498Y2574700D01*
X-1087800Y2545002D01*
D02*
G37*
G36*
X1199415Y2183835D02*
X1197664Y2182350D01*
X1196097Y2180690D01*
X1194715Y2178854D01*
X1193517Y2176843D01*
X1192504Y2174656D01*
X1191675Y2172295D01*
X1191029Y2169757D01*
X1190569Y2167045D01*
X1190292Y2164157D01*
X1190200Y2161094D01*
X1164800Y2164677D01*
X1164729Y2167719D01*
X1164166Y2173406D01*
X1163672Y2176051D01*
X1163038Y2178564D01*
X1162262Y2180944D01*
X1161346Y2183191D01*
X1160289Y2185306D01*
X1159090Y2187289D01*
X1157751Y2189139D01*
X1199415Y2183835D01*
D02*
G37*
G36*
X6163887Y1741925D02*
X6152098Y1729825D01*
X6150098Y1727479D01*
X6146708Y1722118D01*
X6143732Y1715858D01*
X6141170Y1708697D01*
X6139022Y1700638D01*
X6137289Y1691678D01*
X6135969Y1681819D01*
X6134573Y1659402D01*
X6134496Y1646844D01*
X6108316Y1673023D01*
X6105758Y1668081D01*
X6102562Y1660075D01*
X6100643Y1652703D01*
X6100000Y1645967D01*
X6049969Y1695999D01*
X6056705Y1696641D01*
X6064076Y1698560D01*
X6072083Y1701757D01*
X6077025Y1704315D01*
X6050845Y1730494D01*
X6063403Y1730571D01*
X6085820Y1731968D01*
X6095680Y1733287D01*
X6104639Y1735021D01*
X6112699Y1737168D01*
X6119859Y1739730D01*
X6126120Y1742706D01*
X6131481Y1746097D01*
X6133826Y1748097D01*
X6145926Y1759885D01*
X6163887Y1741925D01*
D02*
G37*
G36*
X-2610345Y1586848D02*
X-2612544Y1588587D01*
X-2615554Y1590143D01*
X-2619375Y1591515D01*
X-2624006Y1592704D01*
X-2629448Y1593711D01*
X-2642765Y1595175D01*
X-2659324Y1595907D01*
X-2668819Y1595998D01*
Y1695999D01*
X-2659324Y1696090D01*
X-2629448Y1698286D01*
X-2624006Y1699293D01*
X-2619375Y1700482D01*
X-2615554Y1701854D01*
X-2612544Y1703410D01*
X-2610345Y1705148D01*
Y1586848D01*
D02*
G37*
G36*
X6107411Y1583454D02*
X6105856Y1580444D01*
X6104484Y1576624D01*
X6103294Y1571993D01*
X6102288Y1566551D01*
X6100824Y1553234D01*
X6100092Y1536675D01*
X6100000Y1527179D01*
X6000000D01*
X5999908Y1536675D01*
X5997713Y1566551D01*
X5996706Y1571993D01*
X5995517Y1576624D01*
X5994144Y1580444D01*
X5992589Y1583454D01*
X5990850Y1585653D01*
X6109150D01*
X6107411Y1583454D01*
D02*
G37*
G36*
X-1200113Y1630972D02*
X-1196712Y1586922D01*
X-1194671Y1574943D01*
X-1192176Y1564316D01*
X-1191659Y1562689D01*
X-1191340Y1562446D01*
X-1184340Y1559144D01*
X-1175340Y1556350D01*
X-1164340Y1554064D01*
X-1119340Y1550254D01*
X-1100340Y1550000D01*
X-1213040Y1450000D01*
X-1325740Y1550000D01*
X-1306740Y1550254D01*
X-1274740Y1552286D01*
X-1261740Y1554064D01*
X-1250740Y1556350D01*
X-1241740Y1559144D01*
X-1234740Y1562446D01*
X-1234421Y1562689D01*
X-1234153Y1563533D01*
X-1233904Y1564316D01*
X-1231409Y1574943D01*
X-1229368Y1586922D01*
X-1226647Y1614937D01*
X-1225967Y1630972D01*
X-1225740Y1648360D01*
X-1200340D01*
X-1200113Y1630972D01*
D02*
G37*
G36*
X-2890769Y1366050D02*
X-2889293Y1366007D01*
X-2843075Y1365845D01*
X-2840115Y1265846D01*
X-2888950Y1264757D01*
X-2891290Y1366098D01*
X-2890769Y1366050D01*
D02*
G37*
G36*
X5706723Y1368858D02*
X5709146Y1367838D01*
X5712400Y1366938D01*
X5716485Y1366158D01*
X5721402Y1365498D01*
X5733727Y1364538D01*
X5758450Y1363998D01*
Y1263998D01*
X5749378Y1263938D01*
X5716485Y1261838D01*
X5712400Y1261058D01*
X5709146Y1260159D01*
X5706723Y1259138D01*
X5705131Y1257998D01*
Y1369998D01*
X5706723Y1368858D01*
D02*
G37*
G36*
X5590868Y1257998D02*
X5589277Y1259138D01*
X5586854Y1260159D01*
X5583600Y1261058D01*
X5579515Y1261838D01*
X5574598Y1262498D01*
X5562272Y1263458D01*
X5537550Y1263998D01*
Y1363998D01*
X5546622Y1364058D01*
X5579515Y1366158D01*
X5583600Y1366938D01*
X5586854Y1367838D01*
X5589277Y1368858D01*
X5590868Y1369998D01*
Y1257998D01*
D02*
G37*
G36*
X841060Y951378D02*
X843160Y918485D01*
X843940Y914400D01*
X844840Y911146D01*
X845860Y908723D01*
X847000Y907132D01*
X735000D01*
X736140Y908723D01*
X737160Y911146D01*
X738060Y914400D01*
X738840Y918485D01*
X739500Y923402D01*
X740460Y935728D01*
X741000Y960450D01*
X841000D01*
X841060Y951378D01*
D02*
G37*
G36*
X-7287Y957083D02*
X17456Y935309D01*
X20897Y932972D01*
X23834Y931308D01*
X26268Y930316D01*
X28200Y929996D01*
X-50996Y850800D01*
X-51315Y852732D01*
X-52307Y855166D01*
X-53972Y858104D01*
X-56309Y861544D01*
X-59319Y865487D01*
X-67355Y874881D01*
X-84455Y892744D01*
X-13744Y963455D01*
X-7287Y957083D01*
D02*
G37*
G36*
X1099860Y791277D02*
X1098840Y788854D01*
X1097940Y785600D01*
X1097160Y781515D01*
X1096500Y776598D01*
X1095540Y764273D01*
X1095000Y739550D01*
X995000D01*
X994940Y748622D01*
X992840Y781515D01*
X992060Y785600D01*
X991160Y788854D01*
X990140Y791277D01*
X989000Y792869D01*
X1101000D01*
X1099860Y791277D01*
D02*
G37*
G36*
X-4740000Y730000D02*
X-2856732D01*
X-2854201Y724901D01*
X-2852838Y717300D01*
X-2862480Y707658D01*
X-2868570Y692956D01*
Y677043D01*
X-2862480Y662342D01*
X-2851228Y651090D01*
X-2836527Y645000D01*
X-2820614D01*
X-2805912Y651090D01*
X-2794660Y662342D01*
X-2788570Y677043D01*
Y692956D01*
X-2794660Y707658D01*
X-2805912Y718910D01*
X-2811015Y721024D01*
X-2813995Y736005D01*
X-2450000Y1100000D01*
X-2380000D01*
X-1890000Y610000D01*
X5726959D01*
X6185681Y1220000D01*
X6260000D01*
Y250000D01*
X163138D01*
X157151Y261201D01*
X159514Y264737D01*
X173082Y297494D01*
X180000Y332270D01*
Y367727D01*
X173082Y402503D01*
X159514Y435260D01*
X139815Y464742D01*
X114743Y489814D01*
X85262Y509512D01*
X52504Y523081D01*
X17728Y529998D01*
X-17729D01*
X-52504Y523081D01*
X-85262Y509512D01*
X-114743Y489814D01*
X-139815Y464742D01*
X-159514Y435260D01*
X-173083Y402503D01*
X-180000Y367727D01*
Y332270D01*
X-173083Y297494D01*
X-159514Y264737D01*
X-157151Y261201D01*
X-163138Y250000D01*
X-5670000D01*
Y1540000D01*
X-5550000D01*
X-4740000Y730000D01*
D02*
G37*
%LPC*%
G36*
X-2794544Y595000D02*
X-2810457D01*
X-2825158Y588910D01*
X-2836410Y577658D01*
X-2842500Y562956D01*
Y547043D01*
X-2836410Y532342D01*
X-2825158Y521090D01*
X-2810457Y515000D01*
X-2794544D01*
X-2779842Y521090D01*
X-2768590Y532342D01*
X-2762500Y547043D01*
Y562956D01*
X-2768590Y577658D01*
X-2779842Y588910D01*
X-2794544Y595000D01*
D02*
G37*
G36*
X5581774Y549545D02*
X5565861D01*
X5551159Y543455D01*
X5539907Y532203D01*
X5533817Y517502D01*
Y501589D01*
X5539907Y486887D01*
X5551159Y475635D01*
X5565861Y469545D01*
X5581774D01*
X5596475Y475635D01*
X5607727Y486887D01*
X5613817Y501589D01*
Y517502D01*
X5607727Y532203D01*
X5596475Y543455D01*
X5581774Y549545D01*
D02*
G37*
G36*
X-742674Y555758D02*
X-768986D01*
X-794402Y548948D01*
X-817189Y535792D01*
X-835794Y517187D01*
X-848950Y494400D01*
X-855760Y468984D01*
Y442672D01*
X-848950Y417257D01*
X-835794Y394470D01*
X-817189Y375865D01*
X-794402Y362708D01*
X-768986Y355898D01*
X-742674D01*
X-717259Y362708D01*
X-694472Y375865D01*
X-675866Y394470D01*
X-662710Y417257D01*
X-655900Y442672D01*
Y468984D01*
X-662710Y494400D01*
X-675866Y517187D01*
X-694472Y535792D01*
X-717259Y548948D01*
X-742674Y555758D01*
D02*
G37*
G36*
X-1431014D02*
X-1457326D01*
X-1482742Y548948D01*
X-1505529Y535792D01*
X-1524134Y517187D01*
X-1537290Y494400D01*
X-1544100Y468984D01*
Y442672D01*
X-1537290Y417257D01*
X-1524134Y394470D01*
X-1505529Y375865D01*
X-1482742Y362708D01*
X-1457326Y355898D01*
X-1431014D01*
X-1405599Y362708D01*
X-1382812Y375865D01*
X-1364206Y394470D01*
X-1351050Y417257D01*
X-1344240Y442672D01*
Y468984D01*
X-1351050Y494400D01*
X-1364206Y517187D01*
X-1382812Y535792D01*
X-1405599Y548948D01*
X-1431014Y555758D01*
D02*
G37*
G36*
X-840126Y3724998D02*
X-859874D01*
X-878949Y3719887D01*
X-896051Y3710013D01*
X-910015Y3696050D01*
X-919889Y3678947D01*
X-925000Y3659873D01*
Y3640125D01*
X-919889Y3621050D01*
X-910015Y3603948D01*
X-896051Y3589984D01*
X-878949Y3580110D01*
X-859874Y3574999D01*
X-840126D01*
X-821051Y3580110D01*
X-803949Y3589984D01*
X-789985Y3603948D01*
X-780111Y3621050D01*
X-775000Y3640125D01*
Y3659873D01*
X-780111Y3678947D01*
X-789985Y3696050D01*
X-803949Y3710013D01*
X-821051Y3719887D01*
X-840126Y3724998D01*
D02*
G37*
G36*
X-1340126D02*
X-1359874D01*
X-1378949Y3719887D01*
X-1396051Y3710013D01*
X-1410015Y3696050D01*
X-1419889Y3678947D01*
X-1425000Y3659873D01*
Y3640125D01*
X-1419889Y3621050D01*
X-1410015Y3603948D01*
X-1396051Y3589984D01*
X-1378949Y3580110D01*
X-1359874Y3574999D01*
X-1340126D01*
X-1321051Y3580110D01*
X-1303949Y3589984D01*
X-1289985Y3603948D01*
X-1280111Y3621050D01*
X-1275000Y3640125D01*
Y3659873D01*
X-1280111Y3678947D01*
X-1289985Y3696050D01*
X-1303949Y3710013D01*
X-1321051Y3719887D01*
X-1340126Y3724998D01*
D02*
G37*
G36*
X17728Y3629998D02*
X-17728D01*
X-52504Y3623081D01*
X-85262Y3609512D01*
X-114743Y3589813D01*
X-139815Y3564742D01*
X-159514Y3535260D01*
X-173083Y3502503D01*
X-180000Y3467727D01*
Y3432270D01*
X-173083Y3397494D01*
X-159514Y3364736D01*
X-139815Y3335255D01*
X-114743Y3310183D01*
X-85262Y3290485D01*
X-52504Y3276916D01*
X-17728Y3269999D01*
X17728D01*
X52504Y3276916D01*
X85262Y3290485D01*
X114743Y3310183D01*
X139815Y3335255D01*
X159514Y3364736D01*
X173083Y3397494D01*
X180000Y3432270D01*
Y3467727D01*
X173083Y3502503D01*
X159514Y3535260D01*
X139815Y3564742D01*
X114743Y3589813D01*
X85262Y3609512D01*
X52504Y3623081D01*
X17728Y3629998D01*
D02*
G37*
G36*
X-6611800Y2242200D02*
X-6689850D01*
Y2164150D01*
X-6611800D01*
Y2242200D01*
D02*
G37*
G36*
X-6710150D02*
X-6788200D01*
Y2164150D01*
X-6710150D01*
Y2242200D01*
D02*
G37*
G36*
X-6611800Y2143850D02*
X-6689850D01*
Y2065800D01*
X-6611800D01*
Y2143850D01*
D02*
G37*
G36*
X-6710150D02*
X-6788200D01*
Y2065800D01*
X-6710150D01*
Y2143850D01*
D02*
G37*
%LPD*%
D14*
X-1213040Y1500000D02*
Y2449460D01*
X-1087500Y2575000D01*
X1177500Y2203952D02*
X1181288Y2207740D01*
X1177500Y1316498D02*
Y2203952D01*
Y1316498D02*
X1180000Y1313998D01*
X7386960Y2474460D02*
X7487500Y2575000D01*
X7386960Y1936960D02*
Y2474460D01*
X7220000Y1770000D02*
X7386960Y1936960D01*
X6050000Y1645998D02*
X6174002Y1770000D01*
X7220000D01*
D16*
X283000Y2628000D02*
D03*
X1553000D02*
D03*
X2823000D02*
D03*
X4093000D02*
D03*
X-2952000Y1313998D02*
D03*
Y2837998D02*
D03*
X29000Y850000D02*
D03*
X283000D02*
D03*
X791000D02*
D03*
X1045000D02*
D03*
X1553000D02*
D03*
X2823000D02*
D03*
X4093000D02*
D03*
X5648000Y2837998D02*
D03*
Y1313998D02*
D03*
D17*
X7250000Y3649999D02*
D03*
X7500000Y2199998D02*
D03*
X-1100000D02*
D03*
D19*
X6930000Y2949998D02*
D03*
X8070000D02*
D03*
X-530000D02*
D03*
X-1670000D02*
D03*
D20*
X6050000Y1645998D02*
D03*
Y2153998D02*
D03*
X-2550000Y1645998D02*
D03*
Y2153998D02*
D03*
D22*
X-6700000Y1900000D02*
D03*
D23*
Y2154000D02*
D03*
D25*
X-1444170Y1144168D02*
D03*
X-755830D02*
D03*
X7155830D02*
D03*
X7844170D02*
D03*
X7155830Y455828D02*
D03*
X7844170D02*
D03*
D28*
X-1087500Y2575000D02*
D03*
X-2442500Y1067500D02*
D03*
X1181288Y2207740D02*
D03*
X-2660000Y498665D02*
D03*
X7487500Y2575000D02*
D03*
X5940000Y498665D02*
D03*
X6158898Y1056568D02*
D03*
X-5570000Y1500000D02*
D03*
X-5630000D02*
D03*
X-6267524Y1480000D02*
D03*
X-6190000Y1387500D02*
D03*
X-4665000Y3279000D02*
D03*
X3935000D02*
D03*
D29*
X-4895199Y3367500D02*
D03*
X3704801D02*
D03*
X-7525000Y2100000D02*
D03*
X-7425000D02*
D03*
X-7325000D02*
D03*
Y1975000D02*
D03*
D30*
X-2385999Y1645998D02*
X-2240000Y1500000D01*
X-370000D02*
X-183998Y1313998D01*
X-2240000Y1500000D02*
X-1213040D01*
X-370000D01*
X1180000Y1313998D02*
X5648000D01*
X790000D02*
X1180000D01*
X-2550000Y1645998D02*
X-2385999D01*
X1045000Y380000D02*
Y850000D01*
X5883998Y1313998D02*
X6050000Y1480000D01*
Y1645998D01*
X5648000Y1313998D02*
X5883998D01*
X-183998D02*
X790000D01*
X-2711421Y1645998D02*
X-2550000D01*
X-2828579Y1315845D02*
X-2770000Y1374424D01*
Y1587420D01*
X-2950153Y1315845D02*
X-2828579D01*
X-2770000Y1587420D02*
X-2711421Y1645998D01*
X-2952000Y1313998D02*
X-2950153Y1315845D01*
X791000Y850000D02*
Y1312998D01*
X790000Y1313998D02*
X791000Y1312998D01*
X-3140000Y1080000D02*
X-2790000D01*
X-2555201Y1314798D02*
X-435798D01*
X-2790000Y1080000D02*
X-2555201Y1314798D01*
X-6267524Y1465024D02*
Y1480000D01*
Y1465024D02*
X-6190000Y1387500D01*
X-6267524Y1480000D02*
X-6102524Y1645000D01*
X-3705000D01*
X-3140000Y1080000D01*
X-435798Y1314798D02*
X29000Y850000D01*
%TF.MD5,b5030c0842843930fd63f7fe3d3e80dc*%
M02*
