%TF.GenerationSoftware,Altium Limited,Altium Designer,23.7.1 (13)*%
G04 Layer_Physical_Order=4*
G04 Layer_Color=16711680*
%FSLAX45Y45*%
%MOMM*%
%TF.SameCoordinates,F0F8C17F-0DA8-4E41-987A-5915CA82B15D*%
%TF.FilePolarity,Positive*%
%TF.FileFunction,Copper,L4,Bot,Signal*%
%TF.Part,Single*%
G01*
G75*
%TA.AperFunction,SMDPad,CuDef*%
%ADD10R,0.91213X0.95814*%
%ADD11R,0.95872X0.91213*%
%TA.AperFunction,FiducialPad,Global*%
%ADD12C,1.00000*%
%TA.AperFunction,Conductor*%
%ADD14C,0.25400*%
%TA.AperFunction,ComponentPad*%
%ADD15R,1.60000X1.60000*%
%ADD16C,1.60000*%
%ADD17C,1.55000*%
%ADD18R,1.55000X1.55000*%
G04:AMPARAMS|DCode=19|XSize=2mm|YSize=4.1mm|CornerRadius=1mm|HoleSize=0mm|Usage=FLASHONLY|Rotation=0.000|XOffset=0mm|YOffset=0mm|HoleType=Round|Shape=RoundedRectangle|*
%AMROUNDEDRECTD19*
21,1,2.00000,2.10000,0,0,0.0*
21,1,0.00000,4.10000,0,0,0.0*
1,1,2.00000,0.00000,-1.05000*
1,1,2.00000,0.00000,-1.05000*
1,1,2.00000,0.00000,1.05000*
1,1,2.00000,0.00000,1.05000*
%
%ADD19ROUNDEDRECTD19*%
%ADD20C,1.69000*%
%ADD21C,2.50000*%
%ADD22C,1.35800*%
%ADD23R,1.35800X1.35800*%
%ADD24C,1.49860*%
%ADD25C,2.00660*%
%TA.AperFunction,WasherPad*%
%ADD26C,6.00000*%
%ADD27C,5.90000*%
%TA.AperFunction,ViaPad*%
%ADD28C,0.60000*%
%ADD29C,0.80000*%
%TA.AperFunction,SMDPad,CuDef*%
G04:AMPARAMS|DCode=31|XSize=1.50524mm|YSize=0.57213mm|CornerRadius=0.28606mm|HoleSize=0mm|Usage=FLASHONLY|Rotation=0.000|XOffset=0mm|YOffset=0mm|HoleType=Round|Shape=RoundedRectangle|*
%AMROUNDEDRECTD31*
21,1,1.50524,0.00000,0,0,0.0*
21,1,0.93311,0.57213,0,0,0.0*
1,1,0.57213,0.46655,0.00000*
1,1,0.57213,-0.46655,0.00000*
1,1,0.57213,-0.46655,0.00000*
1,1,0.57213,0.46655,0.00000*
%
%ADD31ROUNDEDRECTD31*%
%ADD32R,1.50524X0.57213*%
%ADD33R,0.60000X0.60000*%
%ADD34R,0.80000X0.45000*%
%ADD35R,1.97000X0.60000*%
%ADD36R,3.00000X2.10000*%
%ADD37R,1.30000X0.80000*%
%ADD38R,1.05000X1.00000*%
%ADD39R,0.47583X1.35523*%
G04:AMPARAMS|DCode=40|XSize=1.35523mm|YSize=0.47583mm|CornerRadius=0.23791mm|HoleSize=0mm|Usage=FLASHONLY|Rotation=90.000|XOffset=0mm|YOffset=0mm|HoleType=Round|Shape=RoundedRectangle|*
%AMROUNDEDRECTD40*
21,1,1.35523,0.00000,0,0,90.0*
21,1,0.87941,0.47583,0,0,90.0*
1,1,0.47583,0.00000,0.43970*
1,1,0.47583,0.00000,-0.43970*
1,1,0.47583,0.00000,-0.43970*
1,1,0.47583,0.00000,0.43970*
%
%ADD40ROUNDEDRECTD40*%
%ADD41R,0.95814X0.91213*%
G04:AMPARAMS|DCode=42|XSize=0.45mm|YSize=1.35mm|CornerRadius=0.0495mm|HoleSize=0mm|Usage=FLASHONLY|Rotation=90.000|XOffset=0mm|YOffset=0mm|HoleType=Round|Shape=RoundedRectangle|*
%AMROUNDEDRECTD42*
21,1,0.45000,1.25100,0,0,90.0*
21,1,0.35100,1.35000,0,0,90.0*
1,1,0.09900,0.62550,0.17550*
1,1,0.09900,0.62550,-0.17550*
1,1,0.09900,-0.62550,-0.17550*
1,1,0.09900,-0.62550,0.17550*
%
%ADD42ROUNDEDRECTD42*%
%ADD43R,1.10000X0.60000*%
%ADD44R,2.70000X1.30000*%
%ADD45R,0.91213X0.95872*%
%ADD46R,1.00000X1.05000*%
%TA.AperFunction,Conductor*%
%ADD47C,0.80000*%
%ADD48C,0.60000*%
%ADD49C,0.40000*%
%ADD50C,0.57200*%
%ADD51C,0.55000*%
%ADD52C,0.45000*%
G36*
X-53532Y3779609D02*
X-52029Y3766909D01*
X-99284Y3755563D01*
X-145863Y3736270D01*
X-188850Y3709928D01*
X-227186Y3677185D01*
X-259929Y3638848D01*
X-286272Y3595861D01*
X-305565Y3549282D01*
X-317335Y3500259D01*
X-321290Y3449998D01*
X-317335Y3399738D01*
X-305565Y3350714D01*
X-286272Y3304136D01*
X-259929Y3261149D01*
X-227186Y3222812D01*
X-188850Y3190069D01*
X-145863Y3163727D01*
X-99284Y3144433D01*
X-50261Y3132664D01*
X0Y3128708D01*
X50261Y3132664D01*
X99284Y3144433D01*
X145863Y3163727D01*
X188850Y3190069D01*
X227186Y3222812D01*
X259929Y3261149D01*
X286272Y3304136D01*
X305565Y3350714D01*
X317335Y3399738D01*
X321290Y3449998D01*
X317335Y3500259D01*
X305565Y3549282D01*
X286272Y3595861D01*
X259929Y3638848D01*
X227186Y3677185D01*
X188850Y3709928D01*
X145863Y3736270D01*
X99284Y3755563D01*
X52029Y3766909D01*
X53532Y3779609D01*
X8300000Y3779608D01*
X8546465D01*
X8547968Y3766908D01*
X8500716Y3755563D01*
X8454137Y3736270D01*
X8411151Y3709928D01*
X8372814Y3677185D01*
X8340071Y3638848D01*
X8313728Y3595861D01*
X8294435Y3549282D01*
X8282665Y3500259D01*
X8278710Y3449998D01*
X8282665Y3399738D01*
X8294435Y3350714D01*
X8313728Y3304136D01*
X8340071Y3261149D01*
X8372814Y3222812D01*
X8411151Y3190069D01*
X8454137Y3163727D01*
X8500716Y3144433D01*
X8549739Y3132664D01*
X8568592Y3131180D01*
X8568926Y3118414D01*
X8538811Y3114450D01*
X8537537Y3114017D01*
X8536195Y3113929D01*
X8498291Y3103773D01*
X8497085Y3103178D01*
X8495765Y3102916D01*
X8459510Y3087899D01*
X8458392Y3087151D01*
X8457118Y3086719D01*
X8423134Y3067098D01*
X8422123Y3066211D01*
X8420916Y3065616D01*
X8389783Y3041727D01*
X8388897Y3040716D01*
X8387778Y3039968D01*
X8360030Y3012221D01*
X8359282Y3011102D01*
X8358271Y3010215D01*
X8334382Y2979082D01*
X8333787Y2977876D01*
X8332901Y2976865D01*
X8313280Y2942880D01*
X8312847Y2941607D01*
X8312100Y2940488D01*
X8297083Y2904233D01*
X8296820Y2902913D01*
X8296225Y2901707D01*
X8286069Y2863803D01*
X8285981Y2862461D01*
X8285549Y2861187D01*
X8280426Y2822281D01*
X8280492Y2821271D01*
X8280263Y2820286D01*
X8279621Y2800665D01*
X8279676Y2800331D01*
X8279610Y2799998D01*
X8279610Y999999D01*
X8279676Y999666D01*
X8279620Y999331D01*
X8280263Y979710D01*
X8280492Y978725D01*
X8280426Y977716D01*
X8285549Y938810D01*
X8285981Y937536D01*
X8286069Y936194D01*
X8296225Y898289D01*
X8296820Y897083D01*
X8297083Y895764D01*
X8312100Y859509D01*
X8312847Y858390D01*
X8313280Y857116D01*
X8332901Y823132D01*
X8333787Y822121D01*
X8334382Y820915D01*
X8358271Y789782D01*
X8359282Y788895D01*
X8360030Y787776D01*
X8387778Y760028D01*
X8388897Y759281D01*
X8389783Y758270D01*
X8420916Y734381D01*
X8422123Y733786D01*
X8423134Y732899D01*
X8457118Y713278D01*
X8458392Y712846D01*
X8459510Y712098D01*
X8495765Y697081D01*
X8497085Y696819D01*
X8498291Y696224D01*
X8536195Y686067D01*
X8537537Y685980D01*
X8538811Y685547D01*
X8568925Y681582D01*
X8568591Y668817D01*
X8549739Y667333D01*
X8500716Y655564D01*
X8454137Y636270D01*
X8411151Y609928D01*
X8372814Y577185D01*
X8340071Y538848D01*
X8313728Y495861D01*
X8294435Y449283D01*
X8282665Y400259D01*
X8278710Y349999D01*
X8282665Y299738D01*
X8294435Y250715D01*
X8313728Y204136D01*
X8340071Y161149D01*
X8372814Y122812D01*
X8411151Y90069D01*
X8454137Y63727D01*
X8500716Y44433D01*
X8547971Y33088D01*
X8546468Y20388D01*
X8300000Y20391D01*
X-8300000Y20389D01*
X-8546465D01*
X-8547968Y33089D01*
X-8500716Y44433D01*
X-8454137Y63727D01*
X-8411151Y90069D01*
X-8372814Y122812D01*
X-8340071Y161149D01*
X-8313728Y204136D01*
X-8294435Y250715D01*
X-8282665Y299738D01*
X-8278710Y349999D01*
X-8282665Y400259D01*
X-8294435Y449283D01*
X-8313728Y495861D01*
X-8340071Y538848D01*
X-8372814Y577185D01*
X-8411151Y609928D01*
X-8454137Y636270D01*
X-8500716Y655564D01*
X-8549739Y667333D01*
X-8568591Y668817D01*
X-8568925Y681582D01*
X-8538812Y685547D01*
X-8537538Y685980D01*
X-8536196Y686067D01*
X-8498291Y696224D01*
X-8497085Y696819D01*
X-8495765Y697081D01*
X-8459511Y712098D01*
X-8458392Y712846D01*
X-8457118Y713278D01*
X-8423134Y732899D01*
X-8422123Y733786D01*
X-8420916Y734381D01*
X-8389784Y758270D01*
X-8388897Y759281D01*
X-8387778Y760028D01*
X-8360030Y787776D01*
X-8359283Y788895D01*
X-8358272Y789782D01*
X-8334383Y820915D01*
X-8333788Y822121D01*
X-8332901Y823132D01*
X-8313280Y857116D01*
X-8312847Y858390D01*
X-8312100Y859509D01*
X-8297083Y895764D01*
X-8296821Y897083D01*
X-8296226Y898289D01*
X-8286069Y936194D01*
X-8285981Y937536D01*
X-8285549Y938810D01*
X-8280427Y977716D01*
X-8280493Y978725D01*
X-8280263Y979710D01*
X-8279621Y999331D01*
X-8279676Y999666D01*
X-8279610Y999999D01*
X-8279610Y2799998D01*
X-8279676Y2800331D01*
X-8279620Y2800666D01*
X-8280263Y2820287D01*
X-8280493Y2821272D01*
X-8280427Y2822281D01*
X-8285549Y2861187D01*
X-8285981Y2862461D01*
X-8286069Y2863803D01*
X-8296226Y2901707D01*
X-8296821Y2902913D01*
X-8297083Y2904233D01*
X-8312100Y2940488D01*
X-8312847Y2941607D01*
X-8313280Y2942880D01*
X-8332901Y2976865D01*
X-8333788Y2977876D01*
X-8334383Y2979082D01*
X-8358272Y3010215D01*
X-8359283Y3011102D01*
X-8360030Y3012221D01*
X-8387778Y3039968D01*
X-8388897Y3040716D01*
X-8389784Y3041727D01*
X-8420916Y3065616D01*
X-8422123Y3066211D01*
X-8423134Y3067098D01*
X-8457118Y3086719D01*
X-8458392Y3087151D01*
X-8459511Y3087899D01*
X-8495765Y3102916D01*
X-8497085Y3103178D01*
X-8498291Y3103773D01*
X-8536196Y3113929D01*
X-8537538Y3114017D01*
X-8538812Y3114450D01*
X-8568926Y3118414D01*
X-8568592Y3131180D01*
X-8549739Y3132664D01*
X-8500716Y3144433D01*
X-8454137Y3163727D01*
X-8411151Y3190069D01*
X-8372814Y3222812D01*
X-8340071Y3261149D01*
X-8313728Y3304136D01*
X-8294435Y3350714D01*
X-8282665Y3399738D01*
X-8278710Y3449998D01*
X-8282665Y3500259D01*
X-8294435Y3549282D01*
X-8313728Y3595861D01*
X-8340071Y3638848D01*
X-8372814Y3677185D01*
X-8411151Y3709928D01*
X-8454137Y3736270D01*
X-8500716Y3755563D01*
X-8547969Y3766908D01*
X-8546466Y3779608D01*
X-8300000Y3779609D01*
X-53532Y3779609D01*
D02*
G37*
%LPC*%
G36*
X7260150Y3747306D02*
Y3660148D01*
X7347308D01*
X7345283Y3675529D01*
X7335428Y3699321D01*
X7319752Y3719750D01*
X7299322Y3735426D01*
X7275531Y3745281D01*
X7260150Y3747306D01*
D02*
G37*
G36*
X7239850D02*
X7224469Y3745281D01*
X7200679Y3735426D01*
X7180249Y3719750D01*
X7164572Y3699321D01*
X7154718Y3675529D01*
X7152693Y3660148D01*
X7239850D01*
Y3747306D01*
D02*
G37*
G36*
X-1339850D02*
Y3660148D01*
X-1252693D01*
X-1254718Y3675529D01*
X-1264572Y3699321D01*
X-1280248Y3719750D01*
X-1300678Y3735426D01*
X-1324469Y3745281D01*
X-1339850Y3747306D01*
D02*
G37*
G36*
X-1360150D02*
X-1375531Y3745281D01*
X-1399322Y3735426D01*
X-1419752Y3719750D01*
X-1435428Y3699321D01*
X-1445283Y3675529D01*
X-1447307Y3660148D01*
X-1360150D01*
Y3747306D01*
D02*
G37*
G36*
X7347308Y3639849D02*
X7260150D01*
Y3552691D01*
X7275531Y3554716D01*
X7299322Y3564571D01*
X7319752Y3580247D01*
X7335428Y3600677D01*
X7345283Y3624468D01*
X7347308Y3639849D01*
D02*
G37*
G36*
X7239850D02*
X7152693D01*
X7154718Y3624468D01*
X7164572Y3600677D01*
X7180249Y3580247D01*
X7200679Y3564571D01*
X7224469Y3554716D01*
X7239850Y3552691D01*
Y3639849D01*
D02*
G37*
G36*
X-1252693D02*
X-1339850D01*
Y3552691D01*
X-1324469Y3554716D01*
X-1300678Y3564571D01*
X-1280248Y3580247D01*
X-1264572Y3600677D01*
X-1254718Y3624468D01*
X-1252693Y3639849D01*
D02*
G37*
G36*
X-1360150D02*
X-1447307D01*
X-1445283Y3624468D01*
X-1435428Y3600677D01*
X-1419752Y3580247D01*
X-1399322Y3564571D01*
X-1375531Y3554716D01*
X-1360150Y3552691D01*
Y3639849D01*
D02*
G37*
G36*
X7750000Y3748642D02*
X7724469Y3745281D01*
X7700679Y3735426D01*
X7680249Y3719750D01*
X7664572Y3699321D01*
X7654718Y3675529D01*
X7651357Y3649999D01*
X7651788Y3646720D01*
X7651732Y3638738D01*
X7650488Y3619974D01*
X7649427Y3612454D01*
X7648051Y3605677D01*
X7646443Y3599897D01*
X7644678Y3595144D01*
X7642849Y3591410D01*
X7641067Y3588651D01*
X7641052Y3588633D01*
X7554075Y3501657D01*
X7546782Y3490741D01*
X7544220Y3477866D01*
X7535163Y3470300D01*
X7502200Y3470300D01*
X7489500Y3470300D01*
X7435150D01*
Y3400000D01*
Y3329700D01*
X7489500D01*
X7497800Y3329700D01*
X7510500Y3329700D01*
X7536553D01*
Y3299887D01*
X7527573Y3290906D01*
X7501993Y3290907D01*
X7489292Y3290906D01*
X7361594D01*
Y3159094D01*
X7396154D01*
Y2640906D01*
X7335708D01*
X7326993Y2640907D01*
X7314292Y2640906D01*
X7186594D01*
Y2509094D01*
X7221154D01*
Y2474887D01*
X7212174Y2465906D01*
X7176993Y2465907D01*
X7164292Y2465906D01*
X7054003D01*
X7053764Y2466264D01*
X7037126Y2477381D01*
X7017500Y2481285D01*
X7008000Y2479396D01*
X6995300Y2489773D01*
X6995300Y2497800D01*
X6995300Y2510500D01*
Y2564850D01*
X6925000D01*
X6854700D01*
Y2510500D01*
X6854700Y2502200D01*
X6854700Y2489500D01*
Y2352200D01*
X6995300D01*
Y2370227D01*
X7008000Y2380604D01*
X7017500Y2378715D01*
X7026776Y2380560D01*
X7036593Y2372503D01*
Y2334094D01*
X7164292D01*
X7173007Y2334093D01*
X7185707Y2334094D01*
X7216354D01*
Y2297798D01*
X7152200D01*
Y2102198D01*
X7347800D01*
Y2297798D01*
X7283647D01*
Y2334094D01*
X7313406D01*
Y2465906D01*
X7288447D01*
Y2500113D01*
X7297427Y2509094D01*
X7323007Y2509093D01*
X7335708Y2509094D01*
X7463406D01*
Y2516492D01*
X7476107Y2525981D01*
X7487500Y2523715D01*
X7498893Y2525981D01*
X7511594Y2516492D01*
Y2509094D01*
X7639292D01*
X7648007Y2509093D01*
X7660708Y2509094D01*
X7696154D01*
Y2465906D01*
X7661594D01*
Y2334094D01*
X7716354D01*
Y2320431D01*
X7716352Y2320405D01*
X7715661Y2317193D01*
X7714315Y2313262D01*
X7712201Y2308650D01*
X7709252Y2303428D01*
X7705430Y2297658D01*
X7700866Y2291595D01*
X7688476Y2277447D01*
X7682873Y2271764D01*
X7680249Y2269750D01*
X7664572Y2249320D01*
X7654718Y2225529D01*
X7651357Y2199998D01*
X7654718Y2174468D01*
X7664572Y2150676D01*
X7680249Y2130247D01*
X7700679Y2114571D01*
X7724469Y2104716D01*
X7750000Y2101355D01*
X7775531Y2104716D01*
X7799322Y2114571D01*
X7819752Y2130247D01*
X7835428Y2150676D01*
X7845283Y2174468D01*
X7848644Y2199998D01*
X7845283Y2225529D01*
X7835428Y2249320D01*
X7819752Y2269750D01*
X7817129Y2271763D01*
X7811524Y2277447D01*
X7799136Y2291593D01*
X7794571Y2297658D01*
X7790748Y2303429D01*
X7787800Y2308649D01*
X7785686Y2313260D01*
X7784340Y2317193D01*
X7783649Y2320405D01*
X7783647Y2320431D01*
Y2325113D01*
X7792627Y2334093D01*
X7798007D01*
X7810708Y2334094D01*
X7938406D01*
Y2348815D01*
X7949607Y2354801D01*
X7952874Y2352619D01*
X7972500Y2348715D01*
X7992126Y2352619D01*
X7997367Y2356120D01*
X8004701Y2352200D01*
Y2352200D01*
X8145300D01*
Y2489500D01*
X8145300Y2497800D01*
X8145300Y2510500D01*
Y2564850D01*
X8075001D01*
X8004700D01*
Y2510500D01*
X8004700Y2502200D01*
X8004700Y2489500D01*
Y2452451D01*
X7993500Y2446463D01*
X7992126Y2447381D01*
X7972500Y2451285D01*
X7952874Y2447381D01*
X7949607Y2445199D01*
X7938406Y2451185D01*
Y2465906D01*
X7810708D01*
X7801993Y2465907D01*
X7789292Y2465906D01*
X7763447D01*
Y2509094D01*
X7788406D01*
Y2640906D01*
X7660708D01*
X7651993Y2640907D01*
X7639292Y2640906D01*
X7511594D01*
Y2633508D01*
X7498893Y2624019D01*
X7487500Y2626285D01*
X7476147Y2624027D01*
X7463447Y2633535D01*
Y3150113D01*
X7472427Y3159094D01*
X7498007Y3159093D01*
X7510708Y3159094D01*
X7638406D01*
Y3290906D01*
X7603846D01*
Y3329700D01*
X7647800D01*
Y3470300D01*
X7634479D01*
X7629618Y3482033D01*
X7688634Y3541049D01*
X7688653Y3541066D01*
X7691411Y3542847D01*
X7695146Y3544677D01*
X7699901Y3546442D01*
X7705678Y3548050D01*
X7712460Y3549426D01*
X7719976Y3550487D01*
X7738740Y3551730D01*
X7746722Y3551786D01*
X7750000Y3551355D01*
X7775531Y3554716D01*
X7799322Y3564571D01*
X7819752Y3580247D01*
X7835428Y3600677D01*
X7845283Y3624468D01*
X7848644Y3649999D01*
X7845283Y3675529D01*
X7835428Y3699321D01*
X7819752Y3719750D01*
X7799322Y3735426D01*
X7775531Y3745281D01*
X7750000Y3748642D01*
D02*
G37*
G36*
X7414851Y3470300D02*
X7352200D01*
Y3410150D01*
X7414851D01*
Y3470300D01*
D02*
G37*
G36*
X-1185150D02*
X-1247800D01*
Y3410150D01*
X-1185150D01*
Y3470300D01*
D02*
G37*
G36*
X7414851Y3389850D02*
X7352200D01*
Y3329700D01*
X7414851D01*
Y3389850D01*
D02*
G37*
G36*
X-1185150D02*
X-1247800D01*
Y3329700D01*
X-1185150D01*
Y3389850D01*
D02*
G37*
G36*
X6345300Y3542800D02*
X6004700D01*
Y3292200D01*
X6345300D01*
Y3542800D01*
D02*
G37*
G36*
X-2254700D02*
X-2595300D01*
Y3292200D01*
X-2254700D01*
Y3542800D01*
D02*
G37*
G36*
X-8050000Y3320905D02*
X-8068352Y3318489D01*
X-8085453Y3311405D01*
X-8100138Y3300137D01*
X-8111407Y3285452D01*
X-8118490Y3268351D01*
X-8120907Y3249999D01*
X-8118490Y3231647D01*
X-8111407Y3214545D01*
X-8100138Y3199860D01*
X-8085453Y3188592D01*
X-8068352Y3181508D01*
X-8050000Y3179092D01*
X-8031648Y3181508D01*
X-8014547Y3188592D01*
X-7999862Y3199860D01*
X-7988593Y3214545D01*
X-7981510Y3231647D01*
X-7979094Y3249999D01*
X-7981510Y3268351D01*
X-7988593Y3285452D01*
X-7999862Y3300137D01*
X-8014547Y3311405D01*
X-8031648Y3318489D01*
X-8050000Y3320905D01*
D02*
G37*
G36*
X5024000Y3467482D02*
X5023999Y3467481D01*
X4684000D01*
X4660472Y3462801D01*
X4652217Y3457285D01*
X4550000D01*
X4545045Y3456300D01*
X4431200D01*
Y3355700D01*
X4498714D01*
Y3329300D01*
X4431200D01*
Y3228700D01*
X4545045D01*
X4550000Y3227715D01*
X4554954Y3228700D01*
X4668800D01*
Y3329300D01*
X4601285D01*
Y3354715D01*
X4652217D01*
X4660472Y3349199D01*
X4684000Y3344519D01*
X4998534D01*
X5224026Y3119027D01*
X5224026Y3119026D01*
X5243972Y3105699D01*
X5267500Y3101018D01*
X5267502Y3101019D01*
X6353333D01*
X6364700Y3097799D01*
X6364700Y3088318D01*
Y3047650D01*
X6450000D01*
X6535300D01*
Y3089500D01*
X6535300Y3097800D01*
X6535300Y3110500D01*
Y3222800D01*
X6455939D01*
X6450000Y3223981D01*
X5292967D01*
X5067474Y3449474D01*
X5047528Y3462801D01*
X5024000Y3467482D01*
D02*
G37*
G36*
X-3576000D02*
X-3576001Y3467481D01*
X-3876000D01*
X-3899528Y3462801D01*
X-3907783Y3457285D01*
X-4050000D01*
X-4054955Y3456300D01*
X-4168800D01*
Y3355700D01*
X-4101285D01*
Y3329300D01*
X-4168800D01*
Y3228700D01*
X-4054955D01*
X-4050000Y3227715D01*
X-4045046Y3228700D01*
X-3931200D01*
Y3329300D01*
X-3998715D01*
Y3354715D01*
X-3907783D01*
X-3899528Y3349199D01*
X-3876000Y3344519D01*
X-3601466D01*
X-3375974Y3119027D01*
X-3375973Y3119026D01*
X-3356027Y3105699D01*
X-3332500Y3101018D01*
X-3332498Y3101019D01*
X-2246667D01*
X-2235300Y3097799D01*
X-2235300Y3088318D01*
Y3047650D01*
X-2150001D01*
X-2064700D01*
Y3089500D01*
X-2064700Y3097800D01*
X-2064700Y3110500D01*
Y3222800D01*
X-2144061D01*
X-2150000Y3223981D01*
X-3307033D01*
X-3532526Y3449474D01*
X-3552472Y3462801D01*
X-3576000Y3467482D01*
D02*
G37*
G36*
X4065150Y3075300D02*
Y3035150D01*
X4173800D01*
Y3075300D01*
X4065150D01*
D02*
G37*
G36*
X-4534850D02*
Y3035150D01*
X-4426200D01*
Y3075300D01*
X-4534850D01*
D02*
G37*
G36*
X5700000Y3006147D02*
X5699999Y3006146D01*
X5590001D01*
X5590000Y3006147D01*
X5577124Y3003586D01*
X5566208Y2996292D01*
X5566208Y2996291D01*
X5453563Y2883646D01*
X3288406D01*
Y2915906D01*
X3160708D01*
X3151993Y2915907D01*
X3139292Y2915906D01*
X3011594D01*
Y2784093D01*
X3043354D01*
Y2752545D01*
X3043341Y2752375D01*
X3042612Y2749049D01*
X3041191Y2744955D01*
X3038960Y2740146D01*
X3035856Y2734701D01*
X3031839Y2728683D01*
X3027036Y2722338D01*
X3014072Y2707579D01*
X3008220Y2701648D01*
X3005466Y2699535D01*
X2989388Y2678583D01*
X2979282Y2654184D01*
X2975835Y2628000D01*
X2979282Y2601816D01*
X2989388Y2577418D01*
X3005466Y2556466D01*
X3026418Y2540388D01*
X3050817Y2530282D01*
X3077000Y2526835D01*
X3103184Y2530282D01*
X3127583Y2540388D01*
X3148535Y2556466D01*
X3164612Y2577418D01*
X3174718Y2601816D01*
X3178165Y2628000D01*
X3174718Y2654184D01*
X3164612Y2678583D01*
X3148535Y2699535D01*
X3145780Y2701648D01*
X3139928Y2707579D01*
X3126966Y2722336D01*
X3122164Y2728680D01*
X3118144Y2734701D01*
X3115039Y2740147D01*
X3112810Y2744955D01*
X3111388Y2749049D01*
X3110660Y2752375D01*
X3110647Y2752545D01*
Y2775113D01*
X3119627Y2784093D01*
X3148007Y2784093D01*
X3160708Y2784093D01*
X3288406D01*
Y2816354D01*
X5467499D01*
X5467500Y2816353D01*
X5480376Y2818915D01*
X5491292Y2826208D01*
X5541676Y2876593D01*
X5552443Y2869399D01*
X5550282Y2864182D01*
X5548171Y2848148D01*
X5648000D01*
X5747829D01*
X5746164Y2860792D01*
X5756540Y2867210D01*
X5757451Y2867465D01*
X5861354Y2763563D01*
Y2055000D01*
X5861353Y2054999D01*
X5863915Y2042123D01*
X5871208Y2031207D01*
X5932920Y1969495D01*
X5933196Y1969171D01*
X5935134Y1966108D01*
X5937130Y1961908D01*
X5939052Y1956536D01*
X5940794Y1950001D01*
X5942276Y1942339D01*
X5943419Y1933798D01*
X5944734Y1912694D01*
X5944789Y1903741D01*
X5944296Y1899998D01*
X5947898Y1872640D01*
X5958458Y1847146D01*
X5975256Y1825254D01*
X5997148Y1808456D01*
X6022642Y1797896D01*
X6050000Y1794294D01*
X6077358Y1797896D01*
X6102852Y1808456D01*
X6124744Y1825254D01*
X6141542Y1847146D01*
X6152103Y1872640D01*
X6155704Y1899998D01*
X6152103Y1927357D01*
X6141542Y1952851D01*
X6124744Y1974743D01*
X6102852Y1991541D01*
X6077358Y2002101D01*
X6050000Y2005703D01*
X6046257Y2005210D01*
X6037305Y2005265D01*
X6016200Y2006579D01*
X6007660Y2007722D01*
X5999998Y2009205D01*
X5993463Y2010946D01*
X5988091Y2012869D01*
X5983891Y2014865D01*
X5980828Y2016802D01*
X5980502Y2017080D01*
X5928646Y2068936D01*
Y2777500D01*
X5926085Y2790376D01*
X5918792Y2801292D01*
X5918791Y2801292D01*
X5723792Y2996292D01*
X5712876Y3003585D01*
X5710740Y3004010D01*
X5700000Y3006147D01*
D02*
G37*
G36*
X3764850Y3070300D02*
X3619700D01*
Y2995150D01*
X3764850D01*
Y3070300D01*
D02*
G37*
G36*
X-4835150Y3070300D02*
X-4980300D01*
Y2995150D01*
X-4835150D01*
Y3070300D01*
D02*
G37*
G36*
X4958000Y3286724D02*
X4928595Y3283828D01*
X4900320Y3275251D01*
X4874261Y3261322D01*
X4851421Y3242577D01*
X4832676Y3219737D01*
X4818748Y3193678D01*
X4810170Y3165403D01*
X4807274Y3135998D01*
X4810170Y3106593D01*
X4818748Y3078318D01*
X4832676Y3052260D01*
X4851421Y3029419D01*
X4874261Y3010674D01*
X4900320Y2996746D01*
X4928595Y2988169D01*
X4958000Y2985273D01*
X4987405Y2988169D01*
X5015680Y2996746D01*
X5041739Y3010674D01*
X5064579Y3029419D01*
X5083324Y3052260D01*
X5097252Y3078318D01*
X5105830Y3106593D01*
X5108726Y3135998D01*
X5105830Y3165403D01*
X5097252Y3193678D01*
X5083324Y3219737D01*
X5064579Y3242577D01*
X5041739Y3261322D01*
X5015680Y3275251D01*
X4987405Y3283828D01*
X4958000Y3286724D01*
D02*
G37*
G36*
X-3642000D02*
X-3671405Y3283828D01*
X-3699680Y3275251D01*
X-3725739Y3261322D01*
X-3748579Y3242577D01*
X-3767324Y3219737D01*
X-3781253Y3193678D01*
X-3789830Y3165403D01*
X-3792726Y3135998D01*
X-3789830Y3106593D01*
X-3781253Y3078318D01*
X-3767324Y3052260D01*
X-3748579Y3029419D01*
X-3725739Y3010674D01*
X-3699680Y2996746D01*
X-3671405Y2988169D01*
X-3642000Y2985273D01*
X-3612595Y2988169D01*
X-3584320Y2996746D01*
X-3558261Y3010674D01*
X-3535421Y3029419D01*
X-3516676Y3052260D01*
X-3502748Y3078318D01*
X-3494171Y3106593D01*
X-3491274Y3135998D01*
X-3494171Y3165403D01*
X-3502748Y3193678D01*
X-3516676Y3219737D01*
X-3535421Y3242577D01*
X-3558261Y3261322D01*
X-3584320Y3275251D01*
X-3612595Y3283828D01*
X-3642000Y3286724D01*
D02*
G37*
G36*
X-850000Y3748642D02*
X-875531Y3745281D01*
X-899322Y3735426D01*
X-919752Y3719750D01*
X-935428Y3699321D01*
X-945283Y3675529D01*
X-948644Y3649999D01*
X-948212Y3646720D01*
X-948269Y3638738D01*
X-949512Y3619974D01*
X-950573Y3612454D01*
X-951949Y3605677D01*
X-953557Y3599897D01*
X-955322Y3595144D01*
X-957152Y3591410D01*
X-958933Y3588651D01*
X-958948Y3588634D01*
X-1046364Y3501218D01*
X-1053658Y3490302D01*
X-1056219Y3477427D01*
X-1065569Y3470300D01*
X-1097800Y3470300D01*
X-1110500Y3470300D01*
X-1164850D01*
Y3400000D01*
Y3329700D01*
X-1110500D01*
X-1102200Y3329700D01*
X-1089500Y3329700D01*
X-1063447D01*
Y3299887D01*
X-1072427Y3290906D01*
X-1098007Y3290907D01*
X-1110708Y3290906D01*
X-1238406D01*
Y3159094D01*
X-1203846D01*
Y2649887D01*
X-1212827Y2640906D01*
X-1248007Y2640907D01*
X-1260708Y2640906D01*
X-1388406D01*
Y2509094D01*
X-1368247D01*
Y2465905D01*
X-1402807D01*
Y2465905D01*
X-1406793D01*
Y2465905D01*
X-1543207D01*
Y2433645D01*
X-1584501D01*
Y2489500D01*
X-1584500Y2497800D01*
X-1584501Y2510500D01*
Y2564850D01*
X-1654801D01*
X-1725100D01*
Y2510500D01*
X-1725100Y2502200D01*
X-1725100Y2489500D01*
Y2352200D01*
X-1584501D01*
Y2366352D01*
X-1543207D01*
Y2334092D01*
X-1508646D01*
Y2102502D01*
X-1508646Y2102500D01*
X-1506085Y2089624D01*
X-1498792Y2078709D01*
X-1406292Y1986209D01*
X-1406291Y1986208D01*
X-1395376Y1978915D01*
X-1382500Y1976353D01*
X-1382498Y1976354D01*
X52499D01*
X52500Y1976353D01*
X65376Y1978915D01*
X76292Y1986208D01*
X560791Y2470708D01*
X560792Y2470709D01*
X568086Y2481624D01*
X570647Y2494500D01*
X570647Y2494501D01*
Y2503455D01*
X570660Y2503625D01*
X571388Y2506952D01*
X572810Y2511045D01*
X575040Y2515854D01*
X578144Y2521299D01*
X582162Y2527317D01*
X586964Y2533662D01*
X599928Y2548421D01*
X605780Y2554352D01*
X608535Y2556466D01*
X624612Y2577418D01*
X634718Y2601816D01*
X638165Y2628000D01*
X634718Y2654184D01*
X624612Y2678583D01*
X608535Y2699535D01*
X587583Y2715612D01*
X563184Y2725718D01*
X559877Y2726154D01*
X560709Y2738854D01*
X632563D01*
X679144Y2692273D01*
X679253Y2692145D01*
X681091Y2689278D01*
X682980Y2685378D01*
X684802Y2680404D01*
X686457Y2674357D01*
X687873Y2667257D01*
X688963Y2659377D01*
X690233Y2639773D01*
X690288Y2631443D01*
X689835Y2628000D01*
X693282Y2601816D01*
X703388Y2577418D01*
X719466Y2556466D01*
X740418Y2540388D01*
X764817Y2530282D01*
X791000Y2526835D01*
X817184Y2530282D01*
X841583Y2540388D01*
X862535Y2556466D01*
X872504Y2569458D01*
X885034Y2566952D01*
X886083Y2566292D01*
X886415Y2564624D01*
X893708Y2553708D01*
X1176412Y2271004D01*
X1172232Y2257224D01*
X1161662Y2255121D01*
X1145024Y2244004D01*
X1133907Y2227366D01*
X1130003Y2207740D01*
X1133907Y2188114D01*
X1145024Y2171475D01*
X1161662Y2160358D01*
X1181288Y2156454D01*
X1200914Y2160358D01*
X1217553Y2171475D01*
X1228670Y2188114D01*
X1230772Y2198684D01*
X1244553Y2202864D01*
X2023708Y1423709D01*
X2023708Y1423708D01*
X2034624Y1416415D01*
X2047500Y1413854D01*
X2465563D01*
X2965143Y914275D01*
X2965253Y914145D01*
X2967091Y911278D01*
X2968980Y907378D01*
X2970802Y902404D01*
X2972457Y896357D01*
X2973873Y889257D01*
X2974963Y881377D01*
X2976233Y861773D01*
X2976288Y853443D01*
X2975835Y850000D01*
X2979282Y823816D01*
X2989388Y799418D01*
X3005466Y778466D01*
X3026418Y762388D01*
X3050817Y752282D01*
X3077000Y748835D01*
X3103184Y752282D01*
X3127583Y762388D01*
X3148535Y778466D01*
X3164612Y799418D01*
X3174718Y823816D01*
X3178165Y850000D01*
X3174718Y876184D01*
X3164612Y900583D01*
X3148535Y921535D01*
X3127583Y937612D01*
X3103184Y947718D01*
X3077000Y951165D01*
X3073557Y950712D01*
X3065228Y950768D01*
X3045623Y952037D01*
X3037743Y953127D01*
X3030644Y954543D01*
X3024598Y956198D01*
X3019622Y958020D01*
X3015722Y959910D01*
X3012855Y961747D01*
X3012726Y961858D01*
X2503292Y1471292D01*
X2492376Y1478585D01*
X2479500Y1481147D01*
X2479499Y1481146D01*
X2061437D01*
X1026066Y2516518D01*
X1031997Y2528547D01*
X1045000Y2526835D01*
X1048443Y2527288D01*
X1056773Y2527232D01*
X1076376Y2525963D01*
X1084259Y2524873D01*
X1091355Y2523458D01*
X1097404Y2521802D01*
X1102377Y2519980D01*
X1106279Y2518090D01*
X1109145Y2516254D01*
X1109275Y2516142D01*
X2046708Y1578709D01*
X2046709Y1578708D01*
X2057625Y1571415D01*
X2070501Y1568853D01*
X2070502Y1568854D01*
X4068563D01*
X4675384Y962033D01*
X4670524Y950300D01*
X4500700D01*
Y749700D01*
X4701300D01*
Y919523D01*
X4713033Y924383D01*
X5151663Y485754D01*
X5151663Y485753D01*
X5162579Y478460D01*
X5175455Y475899D01*
X5532482D01*
X5533530Y475740D01*
X5534654Y475489D01*
X5535538Y475220D01*
X5536213Y474952D01*
X5536548Y474784D01*
X5537553Y473281D01*
X5554191Y462164D01*
X5573817Y458260D01*
X5593443Y462164D01*
X5610081Y473281D01*
X5618790Y486314D01*
X5632675Y502012D01*
X5635363Y504700D01*
X5735300D01*
Y599700D01*
Y689156D01*
X5748000Y694417D01*
X5766354Y676063D01*
Y605001D01*
X5766353Y605000D01*
X5768915Y592124D01*
X5776208Y581208D01*
X5826208Y531209D01*
X5826209Y531208D01*
X5837124Y523915D01*
X5850000Y521354D01*
X5864700D01*
Y504700D01*
X5883761D01*
X5888715Y498664D01*
X5892619Y479039D01*
X5898656Y470003D01*
X5898911Y465173D01*
Y459349D01*
X5880468Y440906D01*
X5808265D01*
X5795565Y440907D01*
X5791735Y440906D01*
X5737479D01*
Y375000D01*
Y309094D01*
X5791735D01*
X5804435Y309093D01*
X5808265Y309094D01*
X5940906D01*
Y385126D01*
X5969055Y413275D01*
X5977962Y426605D01*
X5981089Y442329D01*
Y469622D01*
X5987381Y479039D01*
X5991285Y498664D01*
X5996239Y504700D01*
X6015300D01*
Y599700D01*
Y639850D01*
X5940001D01*
X5864700D01*
Y605844D01*
X5852000Y600583D01*
X5833646Y618937D01*
Y690000D01*
X5831085Y702876D01*
X5823792Y713792D01*
X5768792Y768792D01*
X5757876Y776085D01*
X5745000Y778647D01*
X5735300Y786278D01*
Y795300D01*
X5584700D01*
Y708685D01*
X5581461Y706034D01*
X5580535Y705391D01*
X5579646Y704907D01*
X5577568Y704130D01*
X5572390Y703086D01*
X5572000Y703083D01*
X4463791Y1811292D01*
X4452876Y1818585D01*
X4440000Y1821147D01*
X4439998Y1821146D01*
X2153437D01*
X1410856Y2563727D01*
X1410747Y2563855D01*
X1408910Y2566723D01*
X1407020Y2570622D01*
X1405199Y2575596D01*
X1403543Y2581644D01*
X1402127Y2588743D01*
X1401037Y2596623D01*
X1399768Y2616227D01*
X1399712Y2624557D01*
X1400165Y2628000D01*
X1396718Y2654184D01*
X1386612Y2678583D01*
X1370535Y2699535D01*
X1349583Y2715612D01*
X1325184Y2725718D01*
X1299000Y2729165D01*
X1272817Y2725718D01*
X1248418Y2715612D01*
X1227466Y2699535D01*
X1211388Y2678583D01*
X1201282Y2654184D01*
X1197835Y2628000D01*
X1201282Y2601816D01*
X1211388Y2577418D01*
X1227466Y2556466D01*
X1248418Y2540388D01*
X1272817Y2530282D01*
X1299000Y2526835D01*
X1302443Y2527288D01*
X1310773Y2527232D01*
X1330378Y2525963D01*
X1338257Y2524873D01*
X1345357Y2523457D01*
X1351402Y2521802D01*
X1356378Y2519980D01*
X1360279Y2518090D01*
X1363146Y2516253D01*
X1363273Y2516144D01*
X2115708Y1763709D01*
X2115708Y1763708D01*
X2126624Y1756415D01*
X2139500Y1753854D01*
X4426063D01*
X5009528Y1170389D01*
X5002797Y1159159D01*
X4987405Y1163828D01*
X4958000Y1166724D01*
X4928595Y1163828D01*
X4900320Y1155251D01*
X4874261Y1141322D01*
X4851421Y1122578D01*
X4832676Y1099737D01*
X4818748Y1073679D01*
X4810170Y1045404D01*
X4807274Y1015998D01*
X4810170Y986593D01*
X4818748Y958318D01*
X4832676Y932260D01*
X4851421Y909419D01*
X4874261Y890675D01*
X4900320Y876746D01*
X4928595Y868169D01*
X4958000Y865273D01*
X4987405Y868169D01*
X5015680Y876746D01*
X5041739Y890675D01*
X5064579Y909419D01*
X5083324Y932260D01*
X5097252Y958318D01*
X5105830Y986593D01*
X5108726Y1015998D01*
X5105830Y1045404D01*
X5101160Y1060795D01*
X5112390Y1067526D01*
X5524480Y655436D01*
X5525110Y654583D01*
X5525726Y653611D01*
X5526162Y652793D01*
X5526449Y652130D01*
X5526567Y651773D01*
X5526214Y650000D01*
X5530118Y630374D01*
X5541236Y613736D01*
X5557874Y602619D01*
X5577500Y598715D01*
X5584700Y587198D01*
Y568675D01*
X5574883Y560618D01*
X5573817Y560830D01*
X5554191Y556926D01*
X5537553Y545809D01*
X5536548Y544307D01*
X5536214Y544138D01*
X5535539Y543870D01*
X5534654Y543601D01*
X5533530Y543350D01*
X5532482Y543191D01*
X5189392D01*
X4106292Y1626292D01*
X4095376Y1633585D01*
X4082500Y1636147D01*
X4082499Y1636146D01*
X2084437D01*
X1156858Y2563726D01*
X1156747Y2563856D01*
X1154909Y2566723D01*
X1153020Y2570623D01*
X1151199Y2575594D01*
X1149543Y2581643D01*
X1148127Y2588744D01*
X1147038Y2596621D01*
X1145768Y2616228D01*
X1145712Y2624557D01*
X1146165Y2628000D01*
X1142718Y2654184D01*
X1132612Y2678583D01*
X1116535Y2699535D01*
X1095583Y2715612D01*
X1071184Y2725718D01*
X1045000Y2729165D01*
X1018817Y2725718D01*
X994418Y2715612D01*
X973466Y2699535D01*
X963846Y2686999D01*
X951146Y2691310D01*
Y2848563D01*
X1098737Y2996154D01*
X3284094D01*
Y2961594D01*
X3415906D01*
Y3089292D01*
X3415907Y3098007D01*
X3415906Y3109373D01*
X3416067Y3109533D01*
X3433933D01*
X3434093Y3109373D01*
Y3101993D01*
X3434094Y3089292D01*
Y3039950D01*
X3500000D01*
X3565907D01*
Y3089292D01*
X3565907Y3098007D01*
X3565907Y3109373D01*
X3574887Y3118354D01*
X3936200D01*
Y3101700D01*
X4173800D01*
Y3202300D01*
X3936200D01*
X3930300Y3212556D01*
Y3227715D01*
X4055000D01*
X4059955Y3228700D01*
X4173800D01*
Y3329300D01*
X4059955D01*
X4055000Y3330285D01*
X3939280D01*
X3930774Y3338792D01*
X3930455Y3342952D01*
X3931151Y3346923D01*
X3934274Y3352350D01*
X3939085Y3354834D01*
X3943828Y3355700D01*
X3947066Y3355700D01*
X4173800D01*
Y3456300D01*
X4113447D01*
Y3525113D01*
X4122427Y3534094D01*
X4148007Y3534093D01*
X4160708Y3534094D01*
X4238523D01*
X4276354Y3496263D01*
Y3230001D01*
X4276353Y3230000D01*
X4278915Y3217124D01*
X4286208Y3206208D01*
X4364208Y3128209D01*
X4364208Y3128208D01*
X4375124Y3120915D01*
X4388000Y3118354D01*
X4431200D01*
Y3101700D01*
X4516353D01*
Y3075300D01*
X4431200D01*
Y2974700D01*
X4668800D01*
Y3075300D01*
X4583646D01*
Y3101700D01*
X4668800D01*
Y3202300D01*
X4431200D01*
Y3185646D01*
X4401937D01*
X4343646Y3243937D01*
Y3510198D01*
X4343647Y3510200D01*
X4341085Y3523076D01*
X4333792Y3533991D01*
X4333791Y3533992D01*
X4288406Y3579377D01*
Y3665906D01*
X4160708D01*
X4151993Y3665907D01*
X4139292Y3665906D01*
X4011594D01*
Y3658646D01*
X3975300D01*
Y3667800D01*
X3854700D01*
Y3582200D01*
X3881354D01*
Y3533737D01*
X3863523Y3515906D01*
X3785708D01*
X3776993Y3515907D01*
X3764292Y3515906D01*
X3728638D01*
Y3582200D01*
X3745300D01*
Y3667800D01*
X3689215D01*
X3685000Y3668638D01*
X3680785Y3667800D01*
X3624700D01*
Y3582200D01*
X3641362D01*
Y3515906D01*
X3636594D01*
Y3384094D01*
X3643319D01*
Y3350300D01*
X3619700D01*
Y3185646D01*
X3565907D01*
Y3238406D01*
X3434094D01*
Y3185646D01*
X3415906D01*
Y3238406D01*
X3284094D01*
Y3110708D01*
X3284093Y3101993D01*
X3284094Y3089292D01*
Y3063447D01*
X1084800D01*
X1071924Y3060886D01*
X1061009Y3053592D01*
X893708Y2886292D01*
X886415Y2875376D01*
X883853Y2862500D01*
X883854Y2862499D01*
Y2692614D01*
X871154Y2688302D01*
X862535Y2699535D01*
X841583Y2715612D01*
X817184Y2725718D01*
X791000Y2729165D01*
X787557Y2728712D01*
X779228Y2728768D01*
X759623Y2730037D01*
X751743Y2731127D01*
X744644Y2732543D01*
X738598Y2734198D01*
X733622Y2736020D01*
X729722Y2737910D01*
X726855Y2739747D01*
X726727Y2739856D01*
X670292Y2796292D01*
X659376Y2803585D01*
X646500Y2806147D01*
X646499Y2806146D01*
X475001D01*
X475000Y2806147D01*
X462124Y2803585D01*
X451208Y2796292D01*
X451208Y2796291D01*
X388708Y2733792D01*
X381415Y2722876D01*
X378853Y2710000D01*
X378854Y2709999D01*
Y2688704D01*
X366154Y2684393D01*
X354535Y2699535D01*
X333583Y2715612D01*
X309184Y2725718D01*
X293150Y2727829D01*
Y2628000D01*
Y2528171D01*
X309184Y2530282D01*
X327201Y2537745D01*
X334395Y2526978D01*
X266063Y2458647D01*
X-445720D01*
X-454700Y2467627D01*
X-454700Y2497800D01*
X-454700Y2510500D01*
Y2564850D01*
X-524999D01*
X-595300D01*
Y2510500D01*
X-595300Y2502200D01*
X-595300Y2489500D01*
Y2433646D01*
X-636594D01*
Y2465906D01*
X-764292D01*
X-773007Y2465907D01*
X-785708Y2465906D01*
X-821154D01*
Y2509094D01*
X-786594D01*
Y2640906D01*
X-914292D01*
X-923007Y2640907D01*
X-935708Y2640906D01*
X-1063406D01*
Y2633508D01*
X-1076107Y2624019D01*
X-1087500Y2626285D01*
X-1098893Y2624019D01*
X-1111594Y2633508D01*
Y2640906D01*
X-1136553D01*
Y3150113D01*
X-1127573Y3159094D01*
X-1101993Y3159093D01*
X-1089292Y3159094D01*
X-961594D01*
Y3290906D01*
X-996154D01*
Y3329700D01*
X-952200D01*
Y3366354D01*
X-598937D01*
X-4646Y2772063D01*
Y2752545D01*
X-4659Y2752375D01*
X-5388Y2749049D01*
X-6809Y2744955D01*
X-9040Y2740146D01*
X-12144Y2734701D01*
X-16161Y2728683D01*
X-20964Y2722338D01*
X-33928Y2707579D01*
X-39780Y2701648D01*
X-42534Y2699535D01*
X-58612Y2678583D01*
X-68718Y2654184D01*
X-72165Y2628000D01*
X-68718Y2601816D01*
X-58612Y2577418D01*
X-42534Y2556466D01*
X-21582Y2540388D01*
X2817Y2530282D01*
X29000Y2526835D01*
X55184Y2530282D01*
X79583Y2540388D01*
X100535Y2556466D01*
X116612Y2577418D01*
X126718Y2601816D01*
X130165Y2628000D01*
X126718Y2654184D01*
X116612Y2678583D01*
X100535Y2699535D01*
X97780Y2701648D01*
X91928Y2707579D01*
X78966Y2722336D01*
X74164Y2728680D01*
X70144Y2734701D01*
X67039Y2740147D01*
X64810Y2744955D01*
X63388Y2749049D01*
X62660Y2752375D01*
X62647Y2752545D01*
Y2785999D01*
X62647Y2786000D01*
X60085Y2798876D01*
X52792Y2809792D01*
X-561208Y3423792D01*
X-572124Y3431085D01*
X-585000Y3433647D01*
X-585001Y3433646D01*
X-952200D01*
Y3470300D01*
X-965522D01*
X-970382Y3482033D01*
X-911365Y3541050D01*
X-911347Y3541066D01*
X-908589Y3542847D01*
X-904854Y3544677D01*
X-900100Y3546442D01*
X-894322Y3548050D01*
X-887541Y3549426D01*
X-880024Y3550487D01*
X-861260Y3551730D01*
X-853278Y3551786D01*
X-850000Y3551355D01*
X-824469Y3554716D01*
X-800678Y3564571D01*
X-780248Y3580247D01*
X-764572Y3600677D01*
X-754718Y3624468D01*
X-751356Y3649999D01*
X-754718Y3675529D01*
X-764572Y3699321D01*
X-780248Y3719750D01*
X-800678Y3735426D01*
X-824469Y3745281D01*
X-850000Y3748642D01*
D02*
G37*
G36*
X4173800Y3014850D02*
X4065150D01*
Y2974700D01*
X4173800D01*
Y3014850D01*
D02*
G37*
G36*
X-4915000Y3668638D02*
X-4919216Y3667800D01*
X-4975300D01*
Y3582200D01*
X-4958638D01*
Y3515906D01*
X-4963406D01*
Y3384094D01*
X-4956680D01*
Y3350300D01*
X-4980300D01*
Y3185646D01*
X-5034093D01*
Y3238406D01*
X-5165906D01*
Y3185646D01*
X-5184094D01*
Y3238406D01*
X-5315906D01*
Y3110708D01*
X-5315907Y3101993D01*
X-5315906Y3089292D01*
Y2961594D01*
X-5229376D01*
X-4911492Y2643709D01*
X-4911491Y2643708D01*
X-4900576Y2636415D01*
X-4887700Y2633854D01*
X-4887698Y2633854D01*
X-3636437D01*
X-3383646Y2381063D01*
Y642501D01*
X-3383647Y642500D01*
X-3381085Y629624D01*
X-3373792Y618708D01*
X-2978792Y223708D01*
X-2967876Y216415D01*
X-2955000Y213853D01*
X-2954999Y213854D01*
X-1305001D01*
X-1305000Y213853D01*
X-1292124Y216415D01*
X-1281208Y223708D01*
X-451063Y1053854D01*
X1738563D01*
X1831693Y960724D01*
X1825761Y948695D01*
X1807000Y951165D01*
X1803557Y950712D01*
X1795228Y950768D01*
X1775623Y952037D01*
X1767743Y953127D01*
X1760644Y954543D01*
X1754598Y956198D01*
X1749622Y958020D01*
X1745722Y959910D01*
X1742855Y961747D01*
X1742727Y961857D01*
X1680792Y1023792D01*
X1669876Y1031085D01*
X1657000Y1033647D01*
X1656999Y1033646D01*
X-420000D01*
X-432876Y1031085D01*
X-443792Y1023792D01*
X-443792Y1023791D01*
X-1273937Y193646D01*
X-2976063D01*
X-3403854Y621437D01*
Y1615000D01*
X-3406415Y1627876D01*
X-3413708Y1638792D01*
X-3648708Y1873792D01*
X-3659624Y1881085D01*
X-3672500Y1883647D01*
X-3672501Y1883646D01*
X-3811594D01*
Y1915907D01*
X-3846154D01*
Y1959094D01*
X-3811594D01*
Y2090906D01*
X-3939292D01*
X-3948007Y2090907D01*
X-3960708Y2090906D01*
X-4010050D01*
Y2025000D01*
Y1959094D01*
X-3960708D01*
X-3951993Y1959093D01*
X-3939292Y1959094D01*
X-3913447D01*
Y1924887D01*
X-3922427Y1915907D01*
X-3948007Y1915907D01*
X-3960708Y1915907D01*
X-4088406D01*
Y1883646D01*
X-4477200D01*
Y1952000D01*
X-4477200Y1960300D01*
X-4477200Y1973000D01*
Y2014850D01*
X-4562500D01*
X-4647800D01*
Y1973000D01*
X-4647800Y1964700D01*
X-4647800Y1952000D01*
Y1933646D01*
X-5130720D01*
X-5139700Y1942627D01*
X-5139700Y1960300D01*
X-5139700Y1973000D01*
Y2014850D01*
X-5225001D01*
X-5310300D01*
Y1973000D01*
X-5310300Y1964700D01*
X-5310300Y1952000D01*
Y1848000D01*
X-5310300Y1839700D01*
X-5310300Y1827000D01*
Y1714700D01*
X-5286481D01*
Y1640466D01*
X-5365467Y1561481D01*
X-5650113D01*
X-5659094Y1570462D01*
Y1576435D01*
X-5659094Y1580265D01*
Y1634520D01*
X-5725000D01*
X-5790907D01*
Y1580265D01*
X-5790907Y1567565D01*
X-5790907Y1563735D01*
Y1529858D01*
X-5825000D01*
X-5825001Y1529858D01*
X-5893263D01*
X-5893297Y1529864D01*
X-5986607D01*
X-6005689Y1526069D01*
X-6010691Y1522726D01*
X-6019848Y1531883D01*
X-6015852Y1537863D01*
X-6013290Y1550739D01*
Y1606936D01*
X-6013290Y1606937D01*
X-6014850Y1614778D01*
X-6007895Y1621728D01*
X-6004308Y1623656D01*
X-5986607Y1620135D01*
X-5893297D01*
X-5874214Y1623931D01*
X-5858037Y1634740D01*
X-5847228Y1650918D01*
X-5843432Y1670000D01*
X-5847228Y1689082D01*
X-5858037Y1705259D01*
X-5874214Y1716069D01*
X-5893297Y1719864D01*
X-5986607D01*
X-6005689Y1716069D01*
X-6021867Y1705259D01*
X-6032676Y1689082D01*
X-6036472Y1670000D01*
X-6034489Y1660033D01*
X-6046193Y1653777D01*
X-6063805Y1671388D01*
X-6067324Y1689082D01*
X-6078134Y1705259D01*
X-6094311Y1716069D01*
X-6113393Y1719864D01*
X-6206704D01*
X-6225786Y1716069D01*
X-6241963Y1705259D01*
X-6252772Y1689082D01*
X-6256568Y1670000D01*
X-6252772Y1650918D01*
X-6241963Y1634740D01*
X-6235074Y1630137D01*
Y1614863D01*
X-6241963Y1610259D01*
X-6252772Y1594082D01*
X-6254549Y1585150D01*
X-6160048D01*
Y1564850D01*
X-6254549D01*
X-6252772Y1555918D01*
X-6243846Y1542558D01*
X-6248292Y1529858D01*
X-6260348D01*
X-6267524Y1531285D01*
X-6274700Y1529858D01*
X-6300113D01*
X-6309094Y1538838D01*
X-6309094Y1576435D01*
X-6309094Y1580265D01*
Y1634521D01*
X-6375000D01*
X-6440907D01*
Y1580265D01*
X-6440907Y1567565D01*
X-6440907Y1563735D01*
Y1431094D01*
X-6379785D01*
X-6375000Y1430142D01*
X-6274700D01*
X-6267524Y1428714D01*
X-6260348Y1430142D01*
X-6237277D01*
X-6230489Y1417442D01*
X-6237381Y1407126D01*
X-6241285Y1387500D01*
Y1325000D01*
X-6240300Y1320045D01*
Y1274700D01*
X-6194955D01*
X-6190000Y1273714D01*
X-6185046Y1274700D01*
X-6139700D01*
Y1320045D01*
X-6138715Y1325000D01*
Y1387500D01*
X-6142619Y1407126D01*
X-6150147Y1418393D01*
X-6143585Y1431093D01*
X-6064487D01*
Y1485606D01*
X-6041787Y1508306D01*
X-6031922Y1500210D01*
X-6032676Y1499082D01*
X-6036472Y1480000D01*
X-6032676Y1460918D01*
X-6021867Y1444740D01*
X-6005689Y1433931D01*
X-5986607Y1430135D01*
X-5893297D01*
X-5893263Y1430142D01*
X-5825000D01*
X-5824999Y1430142D01*
X-5742007D01*
X-5737223Y1431094D01*
X-5659094D01*
Y1438519D01*
X-5340001D01*
X-5340000Y1438519D01*
X-5316472Y1443199D01*
X-5296526Y1456526D01*
X-5181527Y1571525D01*
X-5181526Y1571526D01*
X-5168199Y1591472D01*
X-5163519Y1615000D01*
Y1714700D01*
X-5139700D01*
Y1827000D01*
X-5139700Y1835300D01*
X-5139700Y1848000D01*
Y1866354D01*
X-4647800D01*
Y1839700D01*
X-4532168D01*
X-4518677Y1826208D01*
X-4507761Y1818915D01*
X-4494885Y1816354D01*
X-4088406D01*
Y1784094D01*
X-3960708D01*
X-3951993Y1784093D01*
X-3939292Y1784094D01*
X-3811594D01*
Y1816354D01*
X-3686437D01*
X-3471146Y1601063D01*
Y607501D01*
X-3471147Y607500D01*
X-3468585Y594624D01*
X-3461292Y583709D01*
X-3013792Y136209D01*
X-3013792Y136208D01*
X-3002876Y128915D01*
X-2990000Y126354D01*
X-1260001D01*
X-1260000Y126353D01*
X-1247124Y128915D01*
X-1236208Y136208D01*
X-886327Y486090D01*
X-874298Y480158D01*
X-876165Y465978D01*
X-765980D01*
Y576163D01*
X-780160Y574296D01*
X-786092Y586325D01*
X-406063Y966354D01*
X1643063D01*
X1695143Y914274D01*
X1695253Y914145D01*
X1697091Y911278D01*
X1698980Y907378D01*
X1700802Y902404D01*
X1702457Y896357D01*
X1703873Y889257D01*
X1704963Y881377D01*
X1706233Y861773D01*
X1706288Y853443D01*
X1705835Y850000D01*
X1709282Y823816D01*
X1719388Y799418D01*
X1735466Y778466D01*
X1756418Y762388D01*
X1780817Y752282D01*
X1807000Y748835D01*
X1833184Y752282D01*
X1857583Y762388D01*
X1878535Y778466D01*
X1888985Y792084D01*
X1902563Y788918D01*
X1903915Y782124D01*
X1911208Y771209D01*
X1983708Y698709D01*
X1983709Y698708D01*
X1994624Y691415D01*
X2007500Y688853D01*
X2007501Y688854D01*
X2441499D01*
X2441500Y688853D01*
X2454376Y691415D01*
X2465292Y698708D01*
X2504727Y738144D01*
X2504855Y738253D01*
X2507723Y740091D01*
X2511622Y741980D01*
X2516596Y743802D01*
X2522644Y745457D01*
X2529743Y746873D01*
X2537623Y747963D01*
X2557228Y749232D01*
X2565557Y749288D01*
X2569000Y748835D01*
X2595184Y752282D01*
X2619583Y762388D01*
X2640535Y778466D01*
X2656612Y799418D01*
X2666718Y823816D01*
X2670165Y850000D01*
X2666718Y876184D01*
X2656612Y900583D01*
X2640535Y921535D01*
X2619583Y937612D01*
X2595184Y947718D01*
X2569000Y951165D01*
X2542817Y947718D01*
X2518418Y937612D01*
X2497466Y921535D01*
X2481388Y900583D01*
X2471282Y876184D01*
X2467835Y850000D01*
X2468288Y846557D01*
X2468233Y838227D01*
X2466963Y818622D01*
X2465873Y810743D01*
X2464457Y803644D01*
X2462803Y797598D01*
X2460980Y792622D01*
X2459090Y788722D01*
X2457253Y785855D01*
X2457144Y785727D01*
X2427563Y756146D01*
X2378310D01*
X2373999Y768846D01*
X2386535Y778466D01*
X2402612Y799418D01*
X2412718Y823816D01*
X2416165Y850000D01*
X2412718Y876184D01*
X2402612Y900583D01*
X2386535Y921535D01*
X2382257Y924817D01*
X2382136Y924999D01*
X2381722Y925275D01*
X2381426Y925676D01*
X2374237Y932214D01*
X2368234Y938234D01*
X2363086Y944005D01*
X2358784Y949494D01*
X2355304Y954668D01*
X2352617Y959483D01*
X2350666Y963912D01*
X2349378Y967948D01*
X2348665Y971614D01*
X2348647Y971900D01*
Y974999D01*
X2348647Y975000D01*
X2346085Y987876D01*
X2338792Y998792D01*
X2338791Y998792D01*
X2051292Y1286292D01*
X2040376Y1293585D01*
X2027500Y1296147D01*
X2027499Y1296146D01*
X353596D01*
X-19651Y1669393D01*
X-20281Y1670247D01*
X-20897Y1671218D01*
X-21333Y1672036D01*
X-21619Y1672699D01*
X-21738Y1673057D01*
X-21385Y1674829D01*
X-25289Y1694455D01*
X-36406Y1711094D01*
X-53045Y1722211D01*
X-72671Y1726115D01*
X-92297Y1722211D01*
X-108935Y1711094D01*
X-120052Y1694455D01*
X-123956Y1674829D01*
X-120052Y1655203D01*
X-108935Y1638565D01*
X-92297Y1627448D01*
X-72671Y1623544D01*
X-70898Y1623896D01*
X-70542Y1623778D01*
X-69876Y1623491D01*
X-69060Y1623056D01*
X-68086Y1622438D01*
X-67234Y1621810D01*
X315867Y1238708D01*
X326783Y1231415D01*
X339659Y1228854D01*
X2013563D01*
X2279081Y963337D01*
X2277384Y959484D01*
X2274695Y954667D01*
X2271218Y949497D01*
X2267098Y944240D01*
X2255557Y932026D01*
X2248574Y925676D01*
X2248278Y925275D01*
X2247865Y924999D01*
X2247743Y924817D01*
X2243466Y921535D01*
X2227388Y900583D01*
X2217282Y876184D01*
X2213835Y850000D01*
X2217282Y823816D01*
X2227388Y799418D01*
X2243466Y778466D01*
X2256001Y768846D01*
X2251690Y756146D01*
X2124310D01*
X2119999Y768846D01*
X2132535Y778466D01*
X2148612Y799418D01*
X2158718Y823816D01*
X2162165Y850000D01*
X2158718Y876184D01*
X2148612Y900583D01*
X2132535Y921535D01*
X2127228Y925607D01*
X2126969Y925994D01*
X2126403Y926373D01*
X2125989Y926913D01*
X2119054Y933001D01*
X2113315Y938598D01*
X2108403Y943991D01*
X2104310Y949145D01*
X2101005Y954032D01*
X2098454Y958614D01*
X2096594Y962880D01*
X2095358Y966827D01*
X2094661Y970507D01*
X2094647Y970739D01*
Y974000D01*
X2092085Y986876D01*
X2084792Y997792D01*
X2084791Y997792D01*
X1883792Y1198792D01*
X1872876Y1206085D01*
X1860000Y1208647D01*
X1859999Y1208646D01*
X-502500D01*
X-515376Y1206085D01*
X-526292Y1198792D01*
X-526292Y1198791D01*
X-633152Y1091931D01*
X-643918Y1099125D01*
X-638305Y1112678D01*
X-635496Y1134019D01*
X-876165D01*
X-873355Y1112678D01*
X-861200Y1083333D01*
X-841864Y1058134D01*
X-826503Y1046346D01*
X-830814Y1033646D01*
X-1369186D01*
X-1373498Y1046346D01*
X-1358136Y1058134D01*
X-1338800Y1083333D01*
X-1326645Y1112678D01*
X-1323836Y1134019D01*
X-1564505D01*
X-1561695Y1112678D01*
X-1549540Y1083333D01*
X-1530204Y1058134D01*
X-1514843Y1046346D01*
X-1519154Y1033646D01*
X-1549890D01*
X-1615137Y1098894D01*
X-1613416Y1111594D01*
X-1584094D01*
Y1239292D01*
X-1584093Y1248007D01*
X-1584094Y1260708D01*
Y1310049D01*
X-1650000D01*
X-1715906D01*
Y1260708D01*
X-1715907Y1251993D01*
X-1715906Y1239292D01*
Y1213447D01*
X-1750113D01*
X-1759094Y1222427D01*
X-1759093Y1248007D01*
X-1759094Y1260708D01*
Y1388406D01*
X-1890906D01*
Y1353846D01*
X-1934094D01*
Y1388406D01*
X-1966354D01*
Y1403563D01*
X-1848709Y1521208D01*
X-1848708Y1521209D01*
X-1841415Y1532124D01*
X-1838854Y1545000D01*
Y1984498D01*
X-1841415Y1997374D01*
X-1848708Y2008290D01*
X-1848709Y2008291D01*
X-1924919Y2084501D01*
X-1925197Y2084826D01*
X-1927133Y2087888D01*
X-1929130Y2092089D01*
X-1931053Y2097463D01*
X-1932794Y2103996D01*
X-1934276Y2111658D01*
X-1935419Y2120199D01*
X-1936734Y2141303D01*
X-1936789Y2150256D01*
X-1936296Y2153998D01*
X-1939898Y2181357D01*
X-1950458Y2206851D01*
X-1967256Y2228743D01*
X-1989148Y2245541D01*
X-2014642Y2256101D01*
X-2042000Y2259703D01*
X-2069359Y2256101D01*
X-2094852Y2245541D01*
X-2116744Y2228743D01*
X-2133543Y2206851D01*
X-2144103Y2181357D01*
X-2147704Y2153998D01*
X-2144103Y2126640D01*
X-2133543Y2101146D01*
X-2116744Y2079254D01*
X-2094852Y2062456D01*
X-2069359Y2051896D01*
X-2042000Y2048294D01*
X-2038257Y2048787D01*
X-2029305Y2048732D01*
X-2008199Y2047418D01*
X-1999663Y2046275D01*
X-1991997Y2044792D01*
X-1985462Y2043051D01*
X-1980090Y2041128D01*
X-1975892Y2039133D01*
X-1972828Y2037195D01*
X-1972502Y2036917D01*
X-1906146Y1970562D01*
Y1558937D01*
X-2023792Y1441292D01*
X-2031085Y1430376D01*
X-2033647Y1417500D01*
X-2033646Y1417499D01*
Y1388406D01*
X-2065906D01*
Y1260708D01*
X-2065907Y1251993D01*
X-2065906Y1239292D01*
Y1111594D01*
X-2033646D01*
Y1040794D01*
X-2090050D01*
X-2099902Y1038835D01*
X-2108254Y1033254D01*
X-2113835Y1024902D01*
X-2115795Y1015050D01*
Y979950D01*
X-2113835Y970098D01*
X-2110429Y965000D01*
X-2113835Y959902D01*
X-2115795Y950050D01*
Y914950D01*
X-2113835Y905098D01*
X-2110429Y900000D01*
X-2113835Y894902D01*
X-2115795Y885050D01*
Y849950D01*
X-2113835Y840098D01*
X-2110429Y835000D01*
X-2113835Y829902D01*
X-2115795Y820050D01*
Y812650D01*
X-2027500D01*
X-1939205D01*
Y820050D01*
X-1939425Y821153D01*
X-1929694Y833854D01*
X-1794955D01*
Y813637D01*
X-1791533Y796433D01*
X-1781788Y781849D01*
X-1767204Y772103D01*
X-1750000Y768681D01*
X-1732796Y772103D01*
X-1718212Y781849D01*
X-1708467Y796433D01*
X-1705045Y813637D01*
Y816612D01*
X-1624887D01*
X-1615906Y807631D01*
X-1615907Y782051D01*
X-1615906Y769351D01*
Y641652D01*
X-1484094D01*
Y676213D01*
X-1440906D01*
Y641652D01*
X-1309094D01*
Y676213D01*
X-1190141D01*
X-1190139Y676213D01*
X-1177263Y678774D01*
X-1166348Y686067D01*
X-1158429Y693986D01*
X-1155817Y695687D01*
X-1152253Y697454D01*
X-1147725Y699161D01*
X-1142224Y700718D01*
X-1135771Y702054D01*
X-1128633Y703083D01*
X-1110731Y704299D01*
X-1103110Y704356D01*
X-1100000Y703947D01*
X-1075140Y707220D01*
X-1051974Y716815D01*
X-1032081Y732080D01*
X-1016817Y751973D01*
X-1007221Y775138D01*
X-1003948Y799998D01*
X-1007221Y824858D01*
X-1016817Y848024D01*
X-1032081Y867917D01*
X-1051974Y883182D01*
X-1075140Y892777D01*
X-1100000Y896050D01*
X-1124860Y892777D01*
X-1148026Y883182D01*
X-1167919Y867917D01*
X-1183183Y848024D01*
X-1192779Y824858D01*
X-1196052Y799998D01*
X-1195642Y796888D01*
X-1195699Y789268D01*
X-1196916Y771365D01*
X-1197944Y764228D01*
X-1199280Y757774D01*
X-1200838Y752273D01*
X-1202545Y747743D01*
X-1204312Y744181D01*
X-1204752Y743505D01*
X-1300113D01*
X-1309094Y752486D01*
X-1309093Y778066D01*
X-1309094Y790766D01*
Y840108D01*
X-1375001D01*
X-1440906D01*
Y790766D01*
X-1440907Y782051D01*
X-1440906Y769351D01*
Y743505D01*
X-1475113D01*
X-1484094Y752486D01*
X-1484093Y778066D01*
X-1484094Y790766D01*
Y918465D01*
X-1615906D01*
Y883905D01*
X-1705045D01*
Y901577D01*
X-1708467Y918781D01*
X-1718212Y933365D01*
X-1732796Y943110D01*
X-1750000Y946532D01*
X-1767204Y943110D01*
X-1781788Y933365D01*
X-1791533Y918781D01*
X-1794955Y901577D01*
Y901146D01*
X-1929694D01*
X-1939425Y913847D01*
X-1939205Y914950D01*
Y950050D01*
X-1941165Y959902D01*
X-1944572Y965000D01*
X-1941165Y970098D01*
X-1939205Y979950D01*
Y1015050D01*
X-1941165Y1024902D01*
X-1946746Y1033254D01*
X-1955098Y1038835D01*
X-1964950Y1040794D01*
X-1966354D01*
Y1111594D01*
X-1934094D01*
Y1239292D01*
X-1934093Y1248007D01*
X-1934094Y1260708D01*
Y1286553D01*
X-1899887D01*
X-1890906Y1277573D01*
X-1890907Y1251993D01*
X-1890906Y1239292D01*
Y1111594D01*
X-1759094D01*
Y1146154D01*
X-1715906D01*
Y1111594D01*
X-1683646D01*
Y1086175D01*
X-1683647Y1086173D01*
X-1681085Y1073297D01*
X-1673792Y1062382D01*
X-1587619Y976209D01*
X-1587618Y976208D01*
X-1576703Y968915D01*
X-1563827Y966354D01*
X-677501D01*
X-677500Y966353D01*
X-664624Y968915D01*
X-653708Y976208D01*
X-488563Y1141354D01*
X1846063D01*
X2025142Y962275D01*
X2023547Y958616D01*
X2020994Y954031D01*
X2017691Y949147D01*
X2013794Y944239D01*
X2002723Y932805D01*
X1996012Y926913D01*
X1995597Y926372D01*
X1995032Y925994D01*
X1994773Y925607D01*
X1989466Y921535D01*
X1980604Y909985D01*
X1967025Y913152D01*
X1966085Y917876D01*
X1958792Y928792D01*
X1958791Y928793D01*
X1776292Y1111292D01*
X1765376Y1118585D01*
X1752500Y1121147D01*
X1752499Y1121146D01*
X-465000D01*
X-477876Y1118585D01*
X-488792Y1111292D01*
X-488792Y1111291D01*
X-1318937Y281146D01*
X-2941063D01*
X-3316354Y656437D01*
Y2395000D01*
X-3318915Y2407876D01*
X-3326208Y2418791D01*
X-3326209Y2418792D01*
X-3598709Y2691292D01*
X-3609624Y2698585D01*
X-3622500Y2701147D01*
X-3622502Y2701146D01*
X-4873763D01*
X-5122476Y2949860D01*
X-5117616Y2961594D01*
X-5110150D01*
Y3029801D01*
X-5100000D01*
Y3039950D01*
X-5034093D01*
Y3089292D01*
X-5034093Y3098007D01*
X-5034093Y3109373D01*
X-5025113Y3118354D01*
X-4663800D01*
Y3101700D01*
X-4426200D01*
Y3202300D01*
X-4663799D01*
X-4669700Y3212556D01*
Y3227715D01*
X-4545000D01*
X-4540045Y3228700D01*
X-4426200D01*
Y3329300D01*
X-4540045D01*
X-4545000Y3330285D01*
X-4660719D01*
X-4669226Y3338792D01*
X-4669545Y3342952D01*
X-4668848Y3346923D01*
X-4665726Y3352350D01*
X-4660915Y3354834D01*
X-4656172Y3355700D01*
X-4652934Y3355700D01*
X-4426200D01*
Y3456300D01*
X-4486553D01*
Y3525113D01*
X-4477572Y3534094D01*
X-4451992Y3534093D01*
X-4439292Y3534094D01*
X-4361477D01*
X-4323646Y3496263D01*
Y3230001D01*
X-4323646Y3230000D01*
X-4321085Y3217124D01*
X-4313791Y3206208D01*
X-4235792Y3128209D01*
X-4235792Y3128208D01*
X-4224876Y3120915D01*
X-4212000Y3118354D01*
X-4168800D01*
Y3101700D01*
X-4083646D01*
Y3075300D01*
X-4168800D01*
Y2974700D01*
X-3931200D01*
Y3075300D01*
X-4016354D01*
Y3101700D01*
X-3931200D01*
Y3202300D01*
X-4168800D01*
Y3185646D01*
X-4198063D01*
X-4256353Y3243937D01*
Y3510198D01*
X-4256353Y3510200D01*
X-4258915Y3523076D01*
X-4266208Y3533991D01*
X-4266209Y3533992D01*
X-4311593Y3579377D01*
Y3665906D01*
X-4439292D01*
X-4448007Y3665907D01*
X-4460707Y3665906D01*
X-4588406D01*
Y3658646D01*
X-4624700D01*
Y3667800D01*
X-4745300D01*
Y3582200D01*
X-4718646D01*
Y3533737D01*
X-4736477Y3515906D01*
X-4814292D01*
X-4823007Y3515907D01*
X-4835707Y3515906D01*
X-4871362D01*
Y3582200D01*
X-4854700D01*
Y3667800D01*
X-4910783D01*
X-4915000Y3668638D01*
D02*
G37*
G36*
X-4426200Y3014850D02*
X-4534850D01*
Y2974700D01*
X-4426200D01*
Y3014850D01*
D02*
G37*
G36*
X3565907Y3019651D02*
X3510150D01*
Y2961594D01*
X3565907D01*
Y3019651D01*
D02*
G37*
G36*
X3489850D02*
X3434094D01*
Y2961594D01*
X3489850D01*
Y3019651D01*
D02*
G37*
G36*
X-5034093Y3019651D02*
X-5089850D01*
Y2961594D01*
X-5034093D01*
Y3019651D01*
D02*
G37*
G36*
X8080150Y3175000D02*
Y2960148D01*
X8191338D01*
Y3054998D01*
X8187204Y3086403D01*
X8175082Y3115667D01*
X8155799Y3140797D01*
X8130669Y3160080D01*
X8101405Y3172202D01*
X8080150Y3175000D01*
D02*
G37*
G36*
X8059850D02*
X8038596Y3172202D01*
X8009331Y3160080D01*
X7984201Y3140797D01*
X7964918Y3115667D01*
X7952797Y3086403D01*
X7948662Y3054998D01*
Y2960148D01*
X8059850D01*
Y3175000D01*
D02*
G37*
G36*
X6940150D02*
Y2960148D01*
X7051338D01*
Y3054998D01*
X7047204Y3086403D01*
X7035082Y3115667D01*
X7015799Y3140797D01*
X6990669Y3160080D01*
X6961405Y3172202D01*
X6940150Y3175000D01*
D02*
G37*
G36*
X6919851D02*
X6898596Y3172202D01*
X6869331Y3160080D01*
X6844201Y3140797D01*
X6824919Y3115667D01*
X6812797Y3086403D01*
X6808662Y3054998D01*
Y2960148D01*
X6919851D01*
Y3175000D01*
D02*
G37*
G36*
X-519850D02*
Y2960148D01*
X-408662D01*
Y3054998D01*
X-412797Y3086403D01*
X-424918Y3115667D01*
X-444201Y3140797D01*
X-469331Y3160080D01*
X-498596Y3172202D01*
X-519850Y3175000D01*
D02*
G37*
G36*
X-540150D02*
X-561405Y3172202D01*
X-590669Y3160080D01*
X-615799Y3140797D01*
X-635082Y3115667D01*
X-647204Y3086403D01*
X-651338Y3054998D01*
Y2960148D01*
X-540150D01*
Y3175000D01*
D02*
G37*
G36*
X-1659850D02*
Y2960148D01*
X-1548662D01*
Y3054998D01*
X-1552796Y3086403D01*
X-1564918Y3115667D01*
X-1584201Y3140797D01*
X-1609331Y3160080D01*
X-1638595Y3172202D01*
X-1659850Y3175000D01*
D02*
G37*
G36*
X-1680150D02*
X-1701405Y3172202D01*
X-1730669Y3160080D01*
X-1755799Y3140797D01*
X-1775082Y3115667D01*
X-1787203Y3086403D01*
X-1791338Y3054998D01*
Y2960148D01*
X-1680150D01*
Y3175000D01*
D02*
G37*
G36*
X3936200Y3075300D02*
X3925571Y3070300D01*
X3923500Y3070300D01*
X3785150D01*
Y2985000D01*
Y2899700D01*
X3930300D01*
Y2964444D01*
X3936200Y2974700D01*
X3943000Y2974700D01*
X4044850D01*
Y3025000D01*
Y3075300D01*
X3940929D01*
X3937107Y3075300D01*
X3936200D01*
D02*
G37*
G36*
X3764850Y2974850D02*
X3619700D01*
Y2899700D01*
X3764850D01*
Y2974850D01*
D02*
G37*
G36*
X-4663800Y3075300D02*
X-4674428Y3070300D01*
X-4676500Y3070300D01*
X-4814850D01*
Y2985000D01*
Y2899700D01*
X-4669700D01*
Y2964444D01*
X-4663799Y2974700D01*
X-4657000Y2974700D01*
X-4555150D01*
Y3025000D01*
Y3075300D01*
X-4659071D01*
X-4662893Y3075300D01*
X-4663800D01*
D02*
G37*
G36*
X-4835150Y2974850D02*
X-4980300D01*
Y2899700D01*
X-4835150D01*
Y2974850D01*
D02*
G37*
G36*
X-2941850Y2937827D02*
Y2848148D01*
X-2852171D01*
X-2854282Y2864182D01*
X-2864388Y2888581D01*
X-2880466Y2909533D01*
X-2901418Y2925610D01*
X-2925817Y2935717D01*
X-2941850Y2937827D01*
D02*
G37*
G36*
X-2962150D02*
X-2978184Y2935717D01*
X-3002583Y2925610D01*
X-3023535Y2909533D01*
X-3039612Y2888581D01*
X-3049718Y2864182D01*
X-3051829Y2848148D01*
X-2962150D01*
Y2937827D01*
D02*
G37*
G36*
X5747829Y2827849D02*
X5658150D01*
Y2738170D01*
X5674183Y2740280D01*
X5698582Y2750387D01*
X5719534Y2766464D01*
X5735612Y2787416D01*
X5745718Y2811815D01*
X5747829Y2827849D01*
D02*
G37*
G36*
X-2852171D02*
X-2941850D01*
Y2738170D01*
X-2925817Y2740280D01*
X-2901418Y2750387D01*
X-2880466Y2766464D01*
X-2864388Y2787416D01*
X-2854282Y2811815D01*
X-2852171Y2827849D01*
D02*
G37*
G36*
X-2962150D02*
X-3051829D01*
X-3049718Y2811815D01*
X-3039612Y2787416D01*
X-3023535Y2766464D01*
X-3002583Y2750387D01*
X-2978184Y2740280D01*
X-2962150Y2738170D01*
Y2827849D01*
D02*
G37*
G36*
X5637850D02*
X5548171D01*
X5550282Y2811815D01*
X5560388Y2787416D01*
X5576465Y2766464D01*
X5597417Y2750387D01*
X5621816Y2740280D01*
X5637850Y2738170D01*
Y2827849D01*
D02*
G37*
G36*
X5469498Y2796147D02*
X5469497Y2796146D01*
X3719500D01*
X3706624Y2793585D01*
X3695708Y2786292D01*
X3695708Y2786291D01*
X3649274Y2739857D01*
X3649145Y2739747D01*
X3646278Y2737909D01*
X3642378Y2736020D01*
X3637404Y2734198D01*
X3631357Y2732543D01*
X3624257Y2731127D01*
X3616378Y2730037D01*
X3596773Y2728768D01*
X3588443Y2728712D01*
X3585000Y2729165D01*
X3558817Y2725718D01*
X3534418Y2715612D01*
X3513466Y2699535D01*
X3497388Y2678583D01*
X3487282Y2654184D01*
X3483835Y2628000D01*
X3487282Y2601816D01*
X3497388Y2577418D01*
X3513466Y2556466D01*
X3534418Y2540388D01*
X3558817Y2530282D01*
X3585000Y2526835D01*
X3611184Y2530282D01*
X3635583Y2540388D01*
X3656535Y2556466D01*
X3672612Y2577418D01*
X3682718Y2601816D01*
X3686165Y2628000D01*
X3685712Y2631443D01*
X3685768Y2639773D01*
X3687037Y2659378D01*
X3688127Y2667257D01*
X3689543Y2674357D01*
X3691198Y2680402D01*
X3693021Y2685378D01*
X3694910Y2689279D01*
X3696747Y2692145D01*
X3696857Y2692274D01*
X3733437Y2728854D01*
X3787199D01*
X3789725Y2716154D01*
X3788418Y2715612D01*
X3767466Y2699535D01*
X3751388Y2678583D01*
X3741282Y2654184D01*
X3737835Y2628000D01*
X3741282Y2601816D01*
X3751388Y2577418D01*
X3767466Y2556466D01*
X3788418Y2540388D01*
X3812817Y2530282D01*
X3839000Y2526835D01*
X3842443Y2527288D01*
X3850773Y2527232D01*
X3870378Y2525963D01*
X3878257Y2524873D01*
X3885357Y2523457D01*
X3891402Y2521802D01*
X3896378Y2519980D01*
X3900279Y2518090D01*
X3903146Y2516253D01*
X3903274Y2516143D01*
X3973208Y2446209D01*
X3973209Y2446208D01*
X3984124Y2438915D01*
X3997000Y2436353D01*
X3997002Y2436354D01*
X4246063D01*
X5138209Y1544207D01*
X5138210Y1544207D01*
X5149126Y1536913D01*
X5162002Y1534352D01*
X5162003Y1534352D01*
X5523455D01*
X5523625Y1534339D01*
X5526951Y1533611D01*
X5531045Y1532189D01*
X5535854Y1529958D01*
X5541299Y1526854D01*
X5547317Y1522837D01*
X5553662Y1518034D01*
X5568421Y1505070D01*
X5574352Y1499218D01*
X5576465Y1496464D01*
X5597417Y1480387D01*
X5621816Y1470280D01*
X5648000Y1466833D01*
X5674183Y1470280D01*
X5698582Y1480387D01*
X5719534Y1496464D01*
X5735612Y1517416D01*
X5745718Y1541815D01*
X5749165Y1567998D01*
X5745718Y1594182D01*
X5735612Y1618581D01*
X5719534Y1639533D01*
X5698582Y1655610D01*
X5674183Y1665717D01*
X5648000Y1669164D01*
X5621816Y1665717D01*
X5597417Y1655610D01*
X5576465Y1639533D01*
X5574352Y1636779D01*
X5568421Y1630927D01*
X5553664Y1617964D01*
X5547320Y1613162D01*
X5541299Y1609143D01*
X5535853Y1606038D01*
X5531045Y1603808D01*
X5526951Y1602386D01*
X5523625Y1601658D01*
X5523455Y1601645D01*
X5175938D01*
X4283792Y2493792D01*
X4272876Y2501085D01*
X4260000Y2503647D01*
X4259999Y2503646D01*
X4010937D01*
X3950857Y2563726D01*
X3950747Y2563855D01*
X3948910Y2566723D01*
X3947020Y2570622D01*
X3945199Y2575596D01*
X3943543Y2581644D01*
X3942127Y2588743D01*
X3941037Y2596623D01*
X3939768Y2616227D01*
X3939712Y2624557D01*
X3940165Y2628000D01*
X3936718Y2654184D01*
X3926612Y2678583D01*
X3910535Y2699535D01*
X3889583Y2715612D01*
X3888275Y2716154D01*
X3890801Y2728854D01*
X4041199D01*
X4043725Y2716154D01*
X4042418Y2715612D01*
X4021466Y2699535D01*
X4005388Y2678583D01*
X3995282Y2654184D01*
X3993171Y2638150D01*
X4192829D01*
X4190718Y2654184D01*
X4180612Y2678583D01*
X4164535Y2699535D01*
X4143583Y2715612D01*
X4142275Y2716154D01*
X4144801Y2728854D01*
X4295199D01*
X4297725Y2716154D01*
X4296418Y2715612D01*
X4275466Y2699535D01*
X4259388Y2678583D01*
X4249282Y2654184D01*
X4245835Y2628000D01*
X4249282Y2601816D01*
X4259388Y2577418D01*
X4275466Y2556466D01*
X4296418Y2540388D01*
X4320817Y2530282D01*
X4347000Y2526835D01*
X4350443Y2527288D01*
X4358773Y2527232D01*
X4378378Y2525963D01*
X4386257Y2524873D01*
X4393357Y2523457D01*
X4399402Y2521802D01*
X4404378Y2519980D01*
X4408279Y2518090D01*
X4411146Y2516253D01*
X4411273Y2516144D01*
X5129210Y1798207D01*
X5140126Y1790913D01*
X5153002Y1788352D01*
X5153003Y1788352D01*
X5523455D01*
X5523625Y1788339D01*
X5526951Y1787611D01*
X5531045Y1786189D01*
X5535854Y1783958D01*
X5541299Y1780854D01*
X5547317Y1776837D01*
X5553662Y1772034D01*
X5568421Y1759070D01*
X5574352Y1753218D01*
X5576465Y1750464D01*
X5597417Y1734387D01*
X5621816Y1724280D01*
X5648000Y1720833D01*
X5674183Y1724280D01*
X5698582Y1734387D01*
X5719534Y1750464D01*
X5735612Y1771416D01*
X5745718Y1795815D01*
X5749165Y1821998D01*
X5745718Y1848182D01*
X5735612Y1872581D01*
X5719534Y1893533D01*
X5698582Y1909610D01*
X5674183Y1919717D01*
X5648000Y1923164D01*
X5621816Y1919717D01*
X5597417Y1909610D01*
X5576465Y1893533D01*
X5574352Y1890779D01*
X5568421Y1884927D01*
X5553664Y1871964D01*
X5547320Y1867162D01*
X5541299Y1863143D01*
X5535853Y1860038D01*
X5531045Y1857808D01*
X5526951Y1856386D01*
X5523625Y1855658D01*
X5523455Y1855645D01*
X5166939D01*
X4458856Y2563727D01*
X4458747Y2563855D01*
X4456910Y2566723D01*
X4455020Y2570622D01*
X4453199Y2575596D01*
X4451543Y2581644D01*
X4450127Y2588743D01*
X4449037Y2596623D01*
X4447768Y2616227D01*
X4447712Y2624557D01*
X4448165Y2628000D01*
X4444718Y2654184D01*
X4434612Y2678583D01*
X4418535Y2699535D01*
X4397583Y2715612D01*
X4396275Y2716154D01*
X4398801Y2728854D01*
X4549199D01*
X4551725Y2716154D01*
X4550418Y2715612D01*
X4529466Y2699535D01*
X4513388Y2678583D01*
X4503282Y2654184D01*
X4499835Y2628000D01*
X4503282Y2601816D01*
X4513388Y2577418D01*
X4529466Y2556466D01*
X4550418Y2540388D01*
X4574817Y2530282D01*
X4601000Y2526835D01*
X4604443Y2527288D01*
X4612773Y2527232D01*
X4632378Y2525963D01*
X4640257Y2524873D01*
X4647357Y2523457D01*
X4653402Y2521802D01*
X4658378Y2519980D01*
X4662279Y2518090D01*
X4665146Y2516253D01*
X4665273Y2516144D01*
X5129210Y2052207D01*
X5129210Y2052207D01*
X5140126Y2044913D01*
X5153002Y2042352D01*
X5523455D01*
X5523625Y2042339D01*
X5526951Y2041611D01*
X5531045Y2040189D01*
X5535854Y2037958D01*
X5541299Y2034854D01*
X5547317Y2030837D01*
X5553662Y2026034D01*
X5568421Y2013070D01*
X5574352Y2007218D01*
X5576465Y2004464D01*
X5597417Y1988387D01*
X5621816Y1978280D01*
X5648000Y1974833D01*
X5674183Y1978280D01*
X5698582Y1988387D01*
X5719534Y2004464D01*
X5735612Y2025416D01*
X5745718Y2049815D01*
X5749165Y2075998D01*
X5745718Y2102182D01*
X5735612Y2126581D01*
X5719534Y2147533D01*
X5698582Y2163610D01*
X5674183Y2173717D01*
X5648000Y2177164D01*
X5621816Y2173717D01*
X5597417Y2163610D01*
X5576465Y2147533D01*
X5574352Y2144779D01*
X5568421Y2138927D01*
X5553664Y2125964D01*
X5547320Y2121162D01*
X5541299Y2117143D01*
X5535853Y2114038D01*
X5531045Y2111808D01*
X5526951Y2110386D01*
X5523625Y2109658D01*
X5523455Y2109645D01*
X5166939D01*
X4712857Y2563727D01*
X4712747Y2563855D01*
X4710910Y2566723D01*
X4709020Y2570622D01*
X4707199Y2575596D01*
X4705543Y2581644D01*
X4704127Y2588743D01*
X4703037Y2596623D01*
X4701768Y2616227D01*
X4701712Y2624557D01*
X4702165Y2628000D01*
X4698718Y2654184D01*
X4688612Y2678583D01*
X4672535Y2699535D01*
X4651583Y2715612D01*
X4650275Y2716154D01*
X4652801Y2728854D01*
X5455561D01*
X5536141Y2648274D01*
X5536253Y2648143D01*
X5538091Y2645275D01*
X5539980Y2641375D01*
X5541801Y2636404D01*
X5543457Y2630356D01*
X5544873Y2623254D01*
X5545962Y2615377D01*
X5547232Y2595771D01*
X5547288Y2587442D01*
X5546835Y2583998D01*
X5550282Y2557815D01*
X5560388Y2533416D01*
X5576465Y2512464D01*
X5597417Y2496387D01*
X5621816Y2486280D01*
X5648000Y2482833D01*
X5674183Y2486280D01*
X5698582Y2496387D01*
X5719534Y2512464D01*
X5735612Y2533416D01*
X5745718Y2557815D01*
X5749165Y2583998D01*
X5745718Y2610182D01*
X5735612Y2634581D01*
X5719534Y2655533D01*
X5698582Y2671610D01*
X5674183Y2681717D01*
X5648000Y2685164D01*
X5644557Y2684710D01*
X5636227Y2684766D01*
X5616624Y2686035D01*
X5608741Y2687125D01*
X5601645Y2688540D01*
X5595596Y2690197D01*
X5590623Y2692018D01*
X5586721Y2693908D01*
X5583855Y2695745D01*
X5583724Y2695857D01*
X5493290Y2786292D01*
X5482374Y2793585D01*
X5480238Y2794010D01*
X5469498Y2796147D01*
D02*
G37*
G36*
X6535300Y2777350D02*
X6460149D01*
Y2727200D01*
X6535300D01*
Y2777350D01*
D02*
G37*
G36*
X-2064700D02*
X-2139851D01*
Y2727200D01*
X-2064700D01*
Y2777350D01*
D02*
G37*
G36*
X8191338Y2939849D02*
X8080150D01*
Y2724997D01*
X8101405Y2727795D01*
X8130669Y2739917D01*
X8155799Y2759200D01*
X8175082Y2784330D01*
X8187204Y2813594D01*
X8191338Y2844999D01*
Y2939849D01*
D02*
G37*
G36*
X8059850D02*
X7948662D01*
Y2844999D01*
X7952797Y2813594D01*
X7964918Y2784330D01*
X7984201Y2759200D01*
X8009331Y2739917D01*
X8038596Y2727795D01*
X8059850Y2724997D01*
Y2939849D01*
D02*
G37*
G36*
X7051338D02*
X6940150D01*
Y2724997D01*
X6961405Y2727795D01*
X6990669Y2739917D01*
X7015799Y2759200D01*
X7035082Y2784330D01*
X7047204Y2813594D01*
X7051338Y2844999D01*
Y2939849D01*
D02*
G37*
G36*
X6919851D02*
X6808662D01*
Y2844999D01*
X6812797Y2813594D01*
X6824919Y2784330D01*
X6844201Y2759200D01*
X6869331Y2739917D01*
X6898596Y2727795D01*
X6919851Y2724997D01*
Y2939849D01*
D02*
G37*
G36*
X-408662D02*
X-519850D01*
Y2724997D01*
X-498596Y2727795D01*
X-469331Y2739917D01*
X-444201Y2759200D01*
X-424918Y2784330D01*
X-412797Y2813594D01*
X-408662Y2844999D01*
Y2939849D01*
D02*
G37*
G36*
X-540150D02*
X-651338D01*
Y2844999D01*
X-647204Y2813594D01*
X-635082Y2784330D01*
X-615799Y2759200D01*
X-590669Y2739917D01*
X-561405Y2727795D01*
X-540150Y2724997D01*
Y2939849D01*
D02*
G37*
G36*
X-1548662D02*
X-1659850D01*
Y2724997D01*
X-1638595Y2727795D01*
X-1609331Y2739917D01*
X-1584201Y2759200D01*
X-1564918Y2784330D01*
X-1552796Y2813594D01*
X-1548662Y2844999D01*
Y2939849D01*
D02*
G37*
G36*
X-1680150D02*
X-1791338D01*
Y2844999D01*
X-1787203Y2813594D01*
X-1775082Y2784330D01*
X-1755799Y2759200D01*
X-1730669Y2739917D01*
X-1701405Y2727795D01*
X-1680150Y2724997D01*
Y2939849D01*
D02*
G37*
G36*
X2833150Y2727829D02*
Y2638150D01*
X2922829D01*
X2920718Y2654184D01*
X2910612Y2678583D01*
X2894535Y2699535D01*
X2873583Y2715612D01*
X2849184Y2725718D01*
X2833150Y2727829D01*
D02*
G37*
G36*
X2812850D02*
X2796817Y2725718D01*
X2772418Y2715612D01*
X2751466Y2699535D01*
X2735388Y2678583D01*
X2725282Y2654184D01*
X2723171Y2638150D01*
X2812850D01*
Y2727829D01*
D02*
G37*
G36*
X1563150D02*
Y2638150D01*
X1652829D01*
X1650718Y2654184D01*
X1640612Y2678583D01*
X1624535Y2699535D01*
X1603583Y2715612D01*
X1579184Y2725718D01*
X1563150Y2727829D01*
D02*
G37*
G36*
X1542850D02*
X1526817Y2725718D01*
X1502418Y2715612D01*
X1481466Y2699535D01*
X1465388Y2678583D01*
X1455282Y2654184D01*
X1453171Y2638150D01*
X1542850D01*
Y2727829D01*
D02*
G37*
G36*
X272850D02*
X256817Y2725718D01*
X232418Y2715612D01*
X211466Y2699535D01*
X195388Y2678583D01*
X185282Y2654184D01*
X183171Y2638150D01*
X272850D01*
Y2727829D01*
D02*
G37*
G36*
X-454700Y2647800D02*
X-514850D01*
Y2585150D01*
X-454700D01*
Y2647800D01*
D02*
G37*
G36*
X8145300D02*
X8085150D01*
Y2585150D01*
X8145300D01*
Y2647800D01*
D02*
G37*
G36*
X6995300D02*
X6935150D01*
Y2585150D01*
X6995300D01*
Y2647800D01*
D02*
G37*
G36*
X-1584501D02*
X-1644652D01*
Y2585150D01*
X-1584501D01*
Y2647800D01*
D02*
G37*
G36*
X-1664951D02*
X-1725100D01*
Y2585150D01*
X-1664951D01*
Y2647800D01*
D02*
G37*
G36*
X6914850D02*
X6854700D01*
Y2585150D01*
X6914850D01*
Y2647800D01*
D02*
G37*
G36*
X-535149D02*
X-595300D01*
Y2585150D01*
X-535149D01*
Y2647800D01*
D02*
G37*
G36*
X8064851D02*
X8004700D01*
Y2585150D01*
X8064851D01*
Y2647800D01*
D02*
G37*
G36*
X4192829Y2617850D02*
X4103150D01*
Y2528171D01*
X4119184Y2530282D01*
X4143583Y2540388D01*
X4164535Y2556466D01*
X4180612Y2577418D01*
X4190718Y2601816D01*
X4192829Y2617850D01*
D02*
G37*
G36*
X4082850D02*
X3993171D01*
X3995282Y2601816D01*
X4005388Y2577418D01*
X4021466Y2556466D01*
X4042418Y2540388D01*
X4066817Y2530282D01*
X4082850Y2528171D01*
Y2617850D01*
D02*
G37*
G36*
X2922829D02*
X2833150D01*
Y2528171D01*
X2849184Y2530282D01*
X2873583Y2540388D01*
X2894535Y2556466D01*
X2910612Y2577418D01*
X2920718Y2601816D01*
X2922829Y2617850D01*
D02*
G37*
G36*
X2812850D02*
X2723171D01*
X2725282Y2601816D01*
X2735388Y2577418D01*
X2751466Y2556466D01*
X2772418Y2540388D01*
X2796817Y2530282D01*
X2812850Y2528171D01*
Y2617850D01*
D02*
G37*
G36*
X1652829D02*
X1563150D01*
Y2528171D01*
X1579184Y2530282D01*
X1603583Y2540388D01*
X1624535Y2556466D01*
X1640612Y2577418D01*
X1650718Y2601816D01*
X1652829Y2617850D01*
D02*
G37*
G36*
X1542850D02*
X1453171D01*
X1455282Y2601816D01*
X1465388Y2577418D01*
X1481466Y2556466D01*
X1502418Y2540388D01*
X1526817Y2530282D01*
X1542850Y2528171D01*
Y2617850D01*
D02*
G37*
G36*
X272850D02*
X183171D01*
X185282Y2601816D01*
X195388Y2577418D01*
X211466Y2556466D01*
X232418Y2540388D01*
X256817Y2530282D01*
X272850Y2528171D01*
Y2617850D01*
D02*
G37*
G36*
X-124700Y2728300D02*
X-325300D01*
Y2527700D01*
X-124700D01*
Y2728300D01*
D02*
G37*
G36*
X2569000Y2729165D02*
X2542817Y2725718D01*
X2518418Y2715612D01*
X2497466Y2699535D01*
X2481388Y2678583D01*
X2471282Y2654184D01*
X2467835Y2628000D01*
X2471282Y2601816D01*
X2481388Y2577418D01*
X2497466Y2556466D01*
X2518418Y2540388D01*
X2542817Y2530282D01*
X2569000Y2526835D01*
X2595184Y2530282D01*
X2619583Y2540388D01*
X2640535Y2556466D01*
X2656612Y2577418D01*
X2666718Y2601816D01*
X2670165Y2628000D01*
X2666718Y2654184D01*
X2656612Y2678583D01*
X2640535Y2699535D01*
X2619583Y2715612D01*
X2595184Y2725718D01*
X2569000Y2729165D01*
D02*
G37*
G36*
X2315000D02*
X2288817Y2725718D01*
X2264418Y2715612D01*
X2243466Y2699535D01*
X2227388Y2678583D01*
X2217282Y2654184D01*
X2213835Y2628000D01*
X2217282Y2601816D01*
X2227388Y2577418D01*
X2243466Y2556466D01*
X2264418Y2540388D01*
X2288817Y2530282D01*
X2315000Y2526835D01*
X2341184Y2530282D01*
X2365583Y2540388D01*
X2386535Y2556466D01*
X2402612Y2577418D01*
X2412718Y2601816D01*
X2416165Y2628000D01*
X2412718Y2654184D01*
X2402612Y2678583D01*
X2386535Y2699535D01*
X2365583Y2715612D01*
X2341184Y2725718D01*
X2315000Y2729165D01*
D02*
G37*
G36*
X2061000D02*
X2034817Y2725718D01*
X2010418Y2715612D01*
X1989466Y2699535D01*
X1973388Y2678583D01*
X1963282Y2654184D01*
X1959835Y2628000D01*
X1963282Y2601816D01*
X1973388Y2577418D01*
X1989466Y2556466D01*
X2010418Y2540388D01*
X2034817Y2530282D01*
X2061000Y2526835D01*
X2087184Y2530282D01*
X2111583Y2540388D01*
X2132535Y2556466D01*
X2148612Y2577418D01*
X2158718Y2601816D01*
X2162165Y2628000D01*
X2158718Y2654184D01*
X2148612Y2678583D01*
X2132535Y2699535D01*
X2111583Y2715612D01*
X2087184Y2725718D01*
X2061000Y2729165D01*
D02*
G37*
G36*
X1807000D02*
X1780817Y2725718D01*
X1756418Y2715612D01*
X1735466Y2699535D01*
X1719388Y2678583D01*
X1709282Y2654184D01*
X1705835Y2628000D01*
X1709282Y2601816D01*
X1719388Y2577418D01*
X1735466Y2556466D01*
X1756418Y2540388D01*
X1780817Y2530282D01*
X1807000Y2526835D01*
X1833184Y2530282D01*
X1857583Y2540388D01*
X1878535Y2556466D01*
X1894612Y2577418D01*
X1904718Y2601816D01*
X1908165Y2628000D01*
X1904718Y2654184D01*
X1894612Y2678583D01*
X1878535Y2699535D01*
X1857583Y2715612D01*
X1833184Y2725718D01*
X1807000Y2729165D01*
D02*
G37*
G36*
X-2952000Y2685164D02*
X-2978184Y2681717D01*
X-3002583Y2671610D01*
X-3023535Y2655533D01*
X-3039612Y2634581D01*
X-3049718Y2610182D01*
X-3053165Y2583998D01*
X-3049718Y2557815D01*
X-3039612Y2533416D01*
X-3023535Y2512464D01*
X-3002583Y2496387D01*
X-2978184Y2486280D01*
X-2952000Y2482833D01*
X-2925817Y2486280D01*
X-2901418Y2496387D01*
X-2880466Y2512464D01*
X-2864388Y2533416D01*
X-2854282Y2557815D01*
X-2850835Y2583998D01*
X-2854282Y2610182D01*
X-2864388Y2634581D01*
X-2880466Y2655533D01*
X-2901418Y2671610D01*
X-2925817Y2681717D01*
X-2952000Y2685164D01*
D02*
G37*
G36*
Y2431164D02*
X-2978184Y2427717D01*
X-3002583Y2417610D01*
X-3023535Y2401533D01*
X-3039612Y2380581D01*
X-3049718Y2356182D01*
X-3053165Y2329998D01*
X-3049718Y2303815D01*
X-3039612Y2279416D01*
X-3023535Y2258464D01*
X-3002583Y2242387D01*
X-2978184Y2232280D01*
X-2952000Y2228833D01*
X-2925817Y2232280D01*
X-2901418Y2242387D01*
X-2880466Y2258464D01*
X-2864388Y2279416D01*
X-2854282Y2303815D01*
X-2850835Y2329998D01*
X-2854282Y2356182D01*
X-2864388Y2380581D01*
X-2880466Y2401533D01*
X-2901418Y2417610D01*
X-2925817Y2427717D01*
X-2952000Y2431164D01*
D02*
G37*
G36*
X7510150Y2297306D02*
Y2210148D01*
X7597308D01*
X7595283Y2225529D01*
X7585428Y2249320D01*
X7569752Y2269750D01*
X7549322Y2285426D01*
X7525531Y2295281D01*
X7510150Y2297306D01*
D02*
G37*
G36*
X7489850D02*
X7474469Y2295281D01*
X7450679Y2285426D01*
X7430249Y2269750D01*
X7414572Y2249320D01*
X7404718Y2225529D01*
X7402693Y2210148D01*
X7489850D01*
Y2297306D01*
D02*
G37*
G36*
X6060150Y2258366D02*
Y2164148D01*
X6154368D01*
X6152103Y2181357D01*
X6141542Y2206851D01*
X6124744Y2228743D01*
X6102852Y2245541D01*
X6077358Y2256101D01*
X6060150Y2258366D01*
D02*
G37*
G36*
X6039850D02*
X6022642Y2256101D01*
X5997148Y2245541D01*
X5975256Y2228743D01*
X5958458Y2206851D01*
X5947898Y2181357D01*
X5945632Y2164148D01*
X6039850D01*
Y2258366D01*
D02*
G37*
G36*
X-2539850D02*
Y2164148D01*
X-2445632D01*
X-2447898Y2181357D01*
X-2458458Y2206851D01*
X-2475256Y2228743D01*
X-2497148Y2245541D01*
X-2522642Y2256101D01*
X-2539850Y2258366D01*
D02*
G37*
G36*
X-2560150D02*
X-2577359Y2256101D01*
X-2602852Y2245541D01*
X-2624744Y2228743D01*
X-2641543Y2206851D01*
X-2652103Y2181357D01*
X-2654368Y2164148D01*
X-2560150D01*
Y2258366D01*
D02*
G37*
G36*
X-4779700Y2405300D02*
X-5120300D01*
Y2154700D01*
X-4779700D01*
Y2405300D01*
D02*
G37*
G36*
X-4117200Y2405300D02*
X-4457800D01*
Y2154700D01*
X-4117200D01*
Y2405300D01*
D02*
G37*
G36*
X7597308Y2189849D02*
X7510150D01*
Y2102691D01*
X7525531Y2104716D01*
X7549322Y2114571D01*
X7569752Y2130247D01*
X7585428Y2150676D01*
X7595283Y2174468D01*
X7597308Y2189849D01*
D02*
G37*
G36*
X7489850D02*
X7402693D01*
X7404718Y2174468D01*
X7414572Y2150676D01*
X7430249Y2130247D01*
X7450679Y2114571D01*
X7474469Y2104716D01*
X7489850Y2102691D01*
Y2189849D01*
D02*
G37*
G36*
X6154368Y2143849D02*
X6060150D01*
Y2049631D01*
X6077358Y2051896D01*
X6102852Y2062456D01*
X6124744Y2079254D01*
X6141542Y2101146D01*
X6152103Y2126640D01*
X6154368Y2143849D01*
D02*
G37*
G36*
X6039850D02*
X5945632D01*
X5947898Y2126640D01*
X5958458Y2101146D01*
X5975256Y2079254D01*
X5997148Y2062456D01*
X6022642Y2051896D01*
X6039850Y2049631D01*
Y2143849D01*
D02*
G37*
G36*
X-2445632D02*
X-2539850D01*
Y2049631D01*
X-2522642Y2051896D01*
X-2497148Y2062456D01*
X-2475256Y2079254D01*
X-2458458Y2101146D01*
X-2447898Y2126640D01*
X-2445632Y2143849D01*
D02*
G37*
G36*
X-2560150D02*
X-2654368D01*
X-2652103Y2126640D01*
X-2641543Y2101146D01*
X-2624744Y2079254D01*
X-2602852Y2062456D01*
X-2577359Y2051896D01*
X-2560150Y2049631D01*
Y2143849D01*
D02*
G37*
G36*
X-5139700Y2085300D02*
X-5214851D01*
Y2035150D01*
X-5139700D01*
Y2085300D01*
D02*
G37*
G36*
X-4030349Y2090906D02*
X-4088406D01*
Y2035150D01*
X-4030349D01*
Y2090906D01*
D02*
G37*
G36*
X-5235151Y2085300D02*
X-5310300D01*
Y2035150D01*
X-5235151D01*
Y2085300D01*
D02*
G37*
G36*
X-4477200Y2085300D02*
X-4552351D01*
Y2035149D01*
X-4477200D01*
Y2085300D01*
D02*
G37*
G36*
X-4572650D02*
X-4647800D01*
Y2035149D01*
X-4572650D01*
Y2085300D01*
D02*
G37*
G36*
X-2952000Y2177164D02*
X-2978184Y2173717D01*
X-3002583Y2163610D01*
X-3023535Y2147533D01*
X-3039612Y2126581D01*
X-3049718Y2102182D01*
X-3053165Y2075998D01*
X-3049718Y2049815D01*
X-3039612Y2025416D01*
X-3023535Y2004464D01*
X-3002583Y1988387D01*
X-2978184Y1978280D01*
X-2952000Y1974833D01*
X-2925817Y1978280D01*
X-2901418Y1988387D01*
X-2880466Y2004464D01*
X-2864388Y2025416D01*
X-2854282Y2049815D01*
X-2850835Y2075998D01*
X-2854282Y2102182D01*
X-2864388Y2126581D01*
X-2880466Y2147533D01*
X-2901418Y2163610D01*
X-2925817Y2173717D01*
X-2952000Y2177164D01*
D02*
G37*
G36*
X-7592200Y2342800D02*
X-7932800D01*
Y2092200D01*
X-7645698D01*
Y1900000D01*
X-7644122Y1892079D01*
X-7639635Y1885365D01*
X-7632921Y1880878D01*
X-7625000Y1879302D01*
X-7584589D01*
X-7572800Y1872185D01*
Y1847650D01*
X-7487500D01*
X-7402200D01*
Y1872185D01*
X-7390411Y1879302D01*
X-7250000D01*
X-7242079Y1880878D01*
X-7235364Y1885365D01*
X-7230878Y1892079D01*
X-7229302Y1900000D01*
Y2004302D01*
X-6101770D01*
X-6093137Y1997401D01*
X-6090907Y1993782D01*
Y1962479D01*
X-6025000D01*
X-5959094D01*
Y1993782D01*
X-5956864Y1997401D01*
X-5948230Y2004302D01*
X-5925000D01*
X-5917079Y2005878D01*
X-5910365Y2010365D01*
X-5905878Y2017079D01*
X-5904302Y2025000D01*
Y2300000D01*
X-5905878Y2307921D01*
X-5910365Y2314635D01*
X-5917079Y2319122D01*
X-5925000Y2320698D01*
X-7592200D01*
Y2342800D01*
D02*
G37*
G36*
X-4030349Y2014850D02*
X-4088406D01*
Y1959094D01*
X-4030349D01*
Y2014850D01*
D02*
G37*
G36*
X-6689850Y1987625D02*
Y1910150D01*
X-6612376D01*
X-6614071Y1923025D01*
X-6622958Y1944480D01*
X-6637095Y1962905D01*
X-6655520Y1977043D01*
X-6676975Y1985930D01*
X-6689850Y1987625D01*
D02*
G37*
G36*
X-6710150D02*
X-6723025Y1985930D01*
X-6744481Y1977043D01*
X-6762905Y1962905D01*
X-6777043Y1944480D01*
X-6785930Y1923025D01*
X-6787625Y1910150D01*
X-6710150D01*
Y1987625D01*
D02*
G37*
G36*
X-6119700Y1970300D02*
X-6264850D01*
Y1895150D01*
X-6119700D01*
Y1970300D01*
D02*
G37*
G36*
X-6285150D02*
X-6430300D01*
Y1895150D01*
X-6285150D01*
Y1970300D01*
D02*
G37*
G36*
X-5959094Y1942179D02*
X-6014850D01*
Y1884094D01*
X-5959094D01*
Y1942179D01*
D02*
G37*
G36*
X-6035150D02*
X-6090907D01*
Y1884094D01*
X-6035150D01*
Y1942179D01*
D02*
G37*
G36*
X-6612376Y1889850D02*
X-6689850D01*
Y1812375D01*
X-6676975Y1814070D01*
X-6655520Y1822957D01*
X-6637095Y1837095D01*
X-6622958Y1855520D01*
X-6614071Y1876975D01*
X-6612376Y1889850D01*
D02*
G37*
G36*
X-6710150D02*
X-6787625D01*
X-6785930Y1876975D01*
X-6777043Y1855520D01*
X-6762905Y1837095D01*
X-6744481Y1822957D01*
X-6723025Y1814070D01*
X-6710150Y1812375D01*
Y1889850D01*
D02*
G37*
G36*
X-6119700Y1874850D02*
X-6264850D01*
Y1799700D01*
X-6119700D01*
Y1874850D01*
D02*
G37*
G36*
X-6285150D02*
X-6430300D01*
Y1799700D01*
X-6285150D01*
Y1874850D01*
D02*
G37*
G36*
X6535300Y3027350D02*
X6450000D01*
X6364700D01*
Y2985500D01*
X6364700Y2977200D01*
X6364700Y2964500D01*
Y2951277D01*
X6355000Y2943647D01*
X6342124Y2941086D01*
X6331208Y2933792D01*
X6331208Y2933791D01*
X6296208Y2898792D01*
X6288915Y2887876D01*
X6286353Y2875000D01*
X6286354Y2874999D01*
Y2737501D01*
X6286353Y2737500D01*
X6288915Y2724624D01*
X6296208Y2713708D01*
X6339417Y2670500D01*
X6334156Y2657800D01*
X6004700D01*
Y2407200D01*
X6336153D01*
X6345299Y2407200D01*
X6348854Y2395972D01*
Y2075500D01*
X6348853Y2075499D01*
X6351415Y2062622D01*
X6358708Y2051707D01*
X6440920Y1969496D01*
X6441196Y1969171D01*
X6443134Y1966108D01*
X6445130Y1961908D01*
X6447052Y1956536D01*
X6448794Y1950001D01*
X6450276Y1942339D01*
X6451419Y1933798D01*
X6452734Y1912694D01*
X6452789Y1903741D01*
X6452296Y1899998D01*
X6455898Y1872640D01*
X6466458Y1847146D01*
X6483256Y1825254D01*
X6505148Y1808456D01*
X6530642Y1797896D01*
X6558000Y1794294D01*
X6585358Y1797896D01*
X6610852Y1808456D01*
X6632744Y1825254D01*
X6649542Y1847146D01*
X6660103Y1872640D01*
X6663704Y1899998D01*
X6660103Y1927357D01*
X6649542Y1952851D01*
X6632744Y1974743D01*
X6610852Y1991541D01*
X6585358Y2002101D01*
X6558000Y2005703D01*
X6554257Y2005210D01*
X6545305Y2005265D01*
X6524200Y2006579D01*
X6515660Y2007722D01*
X6507998Y2009205D01*
X6501463Y2010946D01*
X6496091Y2012869D01*
X6491891Y2014865D01*
X6488828Y2016802D01*
X6488502Y2017080D01*
X6416146Y2089435D01*
Y2674999D01*
X6416147Y2675000D01*
X6413585Y2687876D01*
X6406292Y2698792D01*
X6406291Y2698792D01*
X6389617Y2715467D01*
X6394477Y2727200D01*
X6439850D01*
Y2787500D01*
X6450000D01*
Y2797650D01*
X6535300D01*
Y2847799D01*
X6535300D01*
Y2852201D01*
X6535300D01*
Y2964500D01*
X6535300Y2972800D01*
X6535300Y2985500D01*
Y3027350D01*
D02*
G37*
G36*
X-2064700D02*
X-2150001D01*
X-2235300D01*
Y2985500D01*
X-2235300Y2977200D01*
X-2235300Y2964500D01*
Y2951277D01*
X-2245001Y2943647D01*
X-2257876Y2941086D01*
X-2268792Y2933792D01*
X-2268793Y2933791D01*
X-2303792Y2898792D01*
X-2311086Y2887876D01*
X-2313647Y2875000D01*
X-2313647Y2874999D01*
Y2737501D01*
X-2313647Y2737500D01*
X-2311086Y2724624D01*
X-2303792Y2713708D01*
X-2260583Y2670500D01*
X-2265844Y2657800D01*
X-2595300D01*
Y2407200D01*
X-2263847D01*
X-2254701Y2407200D01*
X-2251147Y2395972D01*
Y2075500D01*
X-2251147Y2075499D01*
X-2248586Y2062622D01*
X-2241292Y2051707D01*
X-2159081Y1969496D01*
X-2158804Y1969171D01*
X-2156867Y1966108D01*
X-2154870Y1961908D01*
X-2152948Y1956536D01*
X-2151207Y1950001D01*
X-2149724Y1942339D01*
X-2148581Y1933798D01*
X-2147266Y1912694D01*
X-2147212Y1903741D01*
X-2147704Y1899998D01*
X-2144103Y1872640D01*
X-2133543Y1847146D01*
X-2116744Y1825254D01*
X-2094852Y1808456D01*
X-2069359Y1797896D01*
X-2042000Y1794294D01*
X-2014642Y1797896D01*
X-1989148Y1808456D01*
X-1967256Y1825254D01*
X-1950458Y1847146D01*
X-1939898Y1872640D01*
X-1936296Y1899998D01*
X-1939898Y1927357D01*
X-1950458Y1952851D01*
X-1967256Y1974743D01*
X-1989148Y1991541D01*
X-2014642Y2002101D01*
X-2042000Y2005703D01*
X-2045743Y2005210D01*
X-2054695Y2005265D01*
X-2075800Y2006579D01*
X-2084341Y2007722D01*
X-2092002Y2009205D01*
X-2098537Y2010946D01*
X-2103910Y2012869D01*
X-2108110Y2014865D01*
X-2111172Y2016802D01*
X-2111498Y2017080D01*
X-2183854Y2089435D01*
Y2674999D01*
X-2183854Y2675000D01*
X-2186415Y2687876D01*
X-2193709Y2698792D01*
X-2193709Y2698792D01*
X-2210384Y2715467D01*
X-2205524Y2727200D01*
X-2160150D01*
Y2787500D01*
X-2150001D01*
Y2797650D01*
X-2064700D01*
Y2847799D01*
X-2064700D01*
Y2852201D01*
X-2064700D01*
Y2964500D01*
X-2064700Y2972800D01*
X-2064700Y2985500D01*
Y3027350D01*
D02*
G37*
G36*
X-2550000Y2005703D02*
X-2577359Y2002101D01*
X-2602852Y1991541D01*
X-2624744Y1974743D01*
X-2641543Y1952851D01*
X-2652103Y1927357D01*
X-2655704Y1899998D01*
X-2652103Y1872640D01*
X-2641543Y1847146D01*
X-2624744Y1825254D01*
X-2602852Y1808456D01*
X-2577359Y1797896D01*
X-2550000Y1794294D01*
X-2522642Y1797896D01*
X-2497148Y1808456D01*
X-2475256Y1825254D01*
X-2458458Y1847146D01*
X-2447898Y1872640D01*
X-2444296Y1899998D01*
X-2447898Y1927357D01*
X-2458458Y1952851D01*
X-2475256Y1974743D01*
X-2497148Y1991541D01*
X-2522642Y2002101D01*
X-2550000Y2005703D01*
D02*
G37*
G36*
X-7402200Y1827351D02*
X-7477350D01*
Y1777200D01*
X-7402200D01*
Y1827351D01*
D02*
G37*
G36*
X-7497649D02*
X-7572800D01*
Y1777200D01*
X-7497649D01*
Y1827351D01*
D02*
G37*
G36*
X-2952000Y1923164D02*
X-2978184Y1919717D01*
X-3002583Y1909610D01*
X-3023535Y1893533D01*
X-3039612Y1872581D01*
X-3049718Y1848182D01*
X-3053165Y1821998D01*
X-3049718Y1795815D01*
X-3039612Y1771416D01*
X-3023535Y1750464D01*
X-3002583Y1734387D01*
X-2978184Y1724280D01*
X-2952000Y1720833D01*
X-2925817Y1724280D01*
X-2901418Y1734387D01*
X-2880466Y1750464D01*
X-2864388Y1771416D01*
X-2854282Y1795815D01*
X-2850835Y1821998D01*
X-2854282Y1848182D01*
X-2864388Y1872581D01*
X-2880466Y1893533D01*
X-2901418Y1909610D01*
X-2925817Y1919717D01*
X-2952000Y1923164D01*
D02*
G37*
G36*
X6558000Y1751703D02*
X6530642Y1748101D01*
X6505148Y1737541D01*
X6487470Y1723976D01*
X6487246Y1723845D01*
X6486910Y1723546D01*
X6483256Y1720743D01*
X6482191Y1719354D01*
X6477856Y1715504D01*
X6469379Y1708442D01*
X6453431Y1696648D01*
X6446767Y1692448D01*
X6440601Y1689079D01*
X6435212Y1686643D01*
X6430699Y1685087D01*
X6427165Y1684303D01*
X6426891Y1684281D01*
X6388136D01*
X6388135Y1684281D01*
X6375259Y1681720D01*
X6364343Y1674426D01*
X6364343Y1674426D01*
X5926208Y1236292D01*
X5918915Y1225376D01*
X5916353Y1212500D01*
X5916354Y1212499D01*
Y1138406D01*
X5884094D01*
Y1010708D01*
X5884093Y1001993D01*
X5884094Y989292D01*
Y861594D01*
X6015906D01*
Y887030D01*
X6024888Y896009D01*
X6028606Y896008D01*
X6039205Y885050D01*
Y849950D01*
X6039425Y848846D01*
X6029694Y836146D01*
X5997615D01*
X5984739Y833585D01*
X5973823Y826291D01*
X5955969Y808437D01*
X5948675Y797521D01*
X5948233Y795300D01*
X5864700D01*
Y694700D01*
Y660150D01*
X5940001D01*
X6015300D01*
Y694700D01*
Y768853D01*
X6045337D01*
X6046746Y766746D01*
X6055098Y761165D01*
X6064950Y759205D01*
X6190050D01*
X6199902Y761165D01*
X6208254Y766746D01*
X6213835Y775098D01*
X6215795Y784950D01*
Y820050D01*
X6213835Y829902D01*
X6210428Y835000D01*
X6213835Y840098D01*
X6215795Y849950D01*
Y885050D01*
X6213835Y894902D01*
X6210429Y900000D01*
X6213835Y905098D01*
X6215795Y914950D01*
Y950050D01*
X6213835Y959902D01*
X6210428Y965000D01*
X6213835Y970098D01*
X6215795Y979950D01*
Y1015050D01*
X6213835Y1024902D01*
X6208254Y1033254D01*
X6205185Y1035305D01*
X6206279Y1036942D01*
X6208399Y1047600D01*
X6211634Y1051195D01*
X6269532Y1109094D01*
X6341735D01*
X6354435Y1109093D01*
X6358265Y1109094D01*
X6412522D01*
Y1175000D01*
Y1240906D01*
X6358265D01*
X6345565Y1240907D01*
X6341735Y1240906D01*
X6209094D01*
Y1164873D01*
X6150380Y1106159D01*
X6139272Y1103950D01*
X6122633Y1092833D01*
X6111516Y1076194D01*
X6107612Y1056568D01*
X6108797Y1050612D01*
X6100740Y1040794D01*
X6064950D01*
X6055098Y1038835D01*
X6046746Y1033254D01*
X6041165Y1024902D01*
X6039205Y1015050D01*
Y979950D01*
X6039962Y976147D01*
X6035253Y969082D01*
X6020828Y967506D01*
X6015906Y972427D01*
X6015907Y998007D01*
X6015906Y1010708D01*
Y1138406D01*
X5983646D01*
Y1198563D01*
X6402072Y1616988D01*
X6425504D01*
X6426060Y1616944D01*
X6429575Y1616141D01*
X6433808Y1614591D01*
X6438723Y1612164D01*
X6444253Y1608777D01*
X6450327Y1604385D01*
X6456686Y1599132D01*
X6471385Y1584894D01*
X6479196Y1576314D01*
X6479605Y1576012D01*
X6483256Y1571254D01*
X6505148Y1554456D01*
X6530642Y1543896D01*
X6558000Y1540294D01*
X6585358Y1543896D01*
X6610852Y1554456D01*
X6632744Y1571254D01*
X6649542Y1593146D01*
X6660103Y1618640D01*
X6663704Y1645998D01*
X6660103Y1673357D01*
X6649542Y1698851D01*
X6632744Y1720743D01*
X6610852Y1737541D01*
X6585358Y1748101D01*
X6558000Y1751703D01*
D02*
G37*
G36*
X-2042000D02*
X-2069359Y1748101D01*
X-2094852Y1737541D01*
X-2112531Y1723976D01*
X-2112754Y1723845D01*
X-2113090Y1723546D01*
X-2116744Y1720743D01*
X-2117810Y1719354D01*
X-2122144Y1715504D01*
X-2130621Y1708442D01*
X-2146569Y1696648D01*
X-2153233Y1692448D01*
X-2159400Y1689079D01*
X-2164788Y1686643D01*
X-2169301Y1685087D01*
X-2172836Y1684303D01*
X-2173109Y1684281D01*
X-2211864D01*
X-2211865Y1684281D01*
X-2224741Y1681720D01*
X-2235657Y1674426D01*
X-2235657Y1674426D01*
X-2673792Y1236292D01*
X-2681085Y1225376D01*
X-2683647Y1212500D01*
X-2683646Y1212499D01*
Y1138406D01*
X-2715906D01*
Y1010708D01*
X-2715907Y1001993D01*
X-2715906Y989292D01*
Y861594D01*
X-2584094D01*
Y898853D01*
X-2570307D01*
X-2560576Y886153D01*
X-2560795Y885050D01*
Y849950D01*
X-2560576Y848846D01*
X-2570307Y836146D01*
X-2602385D01*
X-2615261Y833585D01*
X-2626177Y826291D01*
X-2644032Y808437D01*
X-2651325Y797521D01*
X-2651767Y795300D01*
X-2735300D01*
Y694700D01*
Y660150D01*
X-2660000D01*
X-2584700D01*
Y694700D01*
Y768853D01*
X-2554663D01*
X-2553254Y766746D01*
X-2544902Y761165D01*
X-2535050Y759205D01*
X-2409950D01*
X-2400098Y761165D01*
X-2391746Y766746D01*
X-2386165Y775098D01*
X-2384206Y784950D01*
Y820050D01*
X-2386165Y829902D01*
X-2389572Y835000D01*
X-2386165Y840098D01*
X-2384206Y849950D01*
Y885050D01*
X-2386165Y894902D01*
X-2389572Y900000D01*
X-2386165Y905098D01*
X-2384206Y914950D01*
Y950050D01*
X-2386165Y959902D01*
X-2389572Y965000D01*
X-2386165Y970098D01*
X-2384206Y979950D01*
Y1015050D01*
X-2386165Y1024902D01*
X-2391746Y1033254D01*
X-2400098Y1038835D01*
X-2396955Y1045126D01*
X-2395119Y1047874D01*
X-2392999Y1058532D01*
X-2389764Y1062127D01*
X-2342797Y1109094D01*
X-2258265D01*
X-2245565Y1109093D01*
X-2241735Y1109094D01*
X-2187480D01*
Y1175000D01*
Y1240906D01*
X-2241735D01*
X-2254435Y1240907D01*
X-2258265Y1240906D01*
X-2390906D01*
Y1177203D01*
X-2451018Y1117091D01*
X-2462126Y1114881D01*
X-2478764Y1103764D01*
X-2489881Y1087126D01*
X-2493785Y1067500D01*
X-2491000Y1053495D01*
X-2499263Y1040794D01*
X-2535050D01*
X-2544902Y1038835D01*
X-2553254Y1033254D01*
X-2558835Y1024902D01*
X-2560795Y1015050D01*
Y979950D01*
X-2560576Y978846D01*
X-2565183Y972833D01*
X-2580904Y971937D01*
X-2584094Y975127D01*
X-2584093Y998007D01*
X-2584094Y1010708D01*
Y1138406D01*
X-2616354D01*
Y1198563D01*
X-2197929Y1616988D01*
X-2174497D01*
X-2173941Y1616944D01*
X-2170425Y1616141D01*
X-2166193Y1614591D01*
X-2161278Y1612164D01*
X-2155747Y1608777D01*
X-2149673Y1604385D01*
X-2143314Y1599132D01*
X-2128616Y1584894D01*
X-2120804Y1576314D01*
X-2120395Y1576012D01*
X-2116744Y1571254D01*
X-2094852Y1554456D01*
X-2069359Y1543896D01*
X-2042000Y1540294D01*
X-2014642Y1543896D01*
X-1989148Y1554456D01*
X-1967256Y1571254D01*
X-1950458Y1593146D01*
X-1939898Y1618640D01*
X-1936296Y1645998D01*
X-1939898Y1673357D01*
X-1950458Y1698851D01*
X-1967256Y1720743D01*
X-1989148Y1737541D01*
X-2014642Y1748101D01*
X-2042000Y1751703D01*
D02*
G37*
G36*
X-6309094Y1712906D02*
X-6364850D01*
Y1654820D01*
X-6309094D01*
Y1712906D01*
D02*
G37*
G36*
X-6385150D02*
X-6440907D01*
Y1654820D01*
X-6385150D01*
Y1712906D01*
D02*
G37*
G36*
X-5659094D02*
X-5714851D01*
Y1654820D01*
X-5659094D01*
Y1712906D01*
D02*
G37*
G36*
X-5735150D02*
X-5790907D01*
Y1654820D01*
X-5735150D01*
Y1712906D01*
D02*
G37*
G36*
X6050000Y1751703D02*
X6022642Y1748101D01*
X5997148Y1737541D01*
X5975256Y1720743D01*
X5958458Y1698851D01*
X5947898Y1673357D01*
X5944296Y1645998D01*
X5947898Y1618640D01*
X5958458Y1593146D01*
X5975256Y1571254D01*
X5997148Y1554456D01*
X6022642Y1543896D01*
X6050000Y1540294D01*
X6077358Y1543896D01*
X6102852Y1554456D01*
X6124744Y1571254D01*
X6141542Y1593146D01*
X6152103Y1618640D01*
X6155704Y1645998D01*
X6152103Y1673357D01*
X6141542Y1698851D01*
X6124744Y1720743D01*
X6102852Y1737541D01*
X6077358Y1748101D01*
X6050000Y1751703D01*
D02*
G37*
G36*
X-2550000D02*
X-2577359Y1748101D01*
X-2602852Y1737541D01*
X-2624744Y1720743D01*
X-2641543Y1698851D01*
X-2652103Y1673357D01*
X-2655704Y1645998D01*
X-2652103Y1618640D01*
X-2641543Y1593146D01*
X-2624744Y1571254D01*
X-2602852Y1554456D01*
X-2577359Y1543896D01*
X-2550000Y1540294D01*
X-2522642Y1543896D01*
X-2497148Y1554456D01*
X-2475256Y1571254D01*
X-2458458Y1593146D01*
X-2447898Y1618640D01*
X-2444296Y1645998D01*
X-2447898Y1673357D01*
X-2458458Y1698851D01*
X-2475256Y1720743D01*
X-2497148Y1737541D01*
X-2522642Y1748101D01*
X-2550000Y1751703D01*
D02*
G37*
G36*
X-4117200Y1770300D02*
X-4457800D01*
Y1519700D01*
X-4117200D01*
Y1770300D01*
D02*
G37*
G36*
X-2952000Y1669164D02*
X-2978184Y1665717D01*
X-3002583Y1655610D01*
X-3023535Y1639533D01*
X-3039612Y1618581D01*
X-3049718Y1594182D01*
X-3053165Y1567998D01*
X-3049718Y1541815D01*
X-3039612Y1517416D01*
X-3023535Y1496464D01*
X-3002583Y1480387D01*
X-2978184Y1470280D01*
X-2952000Y1466833D01*
X-2925817Y1470280D01*
X-2901418Y1480387D01*
X-2880466Y1496464D01*
X-2864388Y1517416D01*
X-2854282Y1541815D01*
X-2850835Y1567998D01*
X-2854282Y1594182D01*
X-2864388Y1618581D01*
X-2880466Y1639533D01*
X-2901418Y1655610D01*
X-2925817Y1665717D01*
X-2952000Y1669164D01*
D02*
G37*
G36*
X-7592200Y1707800D02*
X-7932800D01*
Y1457200D01*
X-7592200D01*
Y1707800D01*
D02*
G37*
G36*
X-4779700Y1645300D02*
X-5120300D01*
Y1394700D01*
X-4779700D01*
Y1645300D01*
D02*
G37*
G36*
X7015906Y1388406D02*
X6960150D01*
Y1330349D01*
X7015906D01*
Y1388406D01*
D02*
G37*
G36*
X-1584094D02*
X-1639850D01*
Y1330349D01*
X-1584094D01*
Y1388406D01*
D02*
G37*
G36*
X6939850D02*
X6884094D01*
Y1330349D01*
X6939850D01*
Y1388406D01*
D02*
G37*
G36*
X-1660150D02*
X-1715906D01*
Y1330349D01*
X-1660150D01*
Y1388406D01*
D02*
G37*
G36*
X-6700000Y1734961D02*
X-6723025Y1731930D01*
X-6744481Y1723043D01*
X-6762905Y1708905D01*
X-6777043Y1690480D01*
X-6785930Y1669025D01*
X-6788961Y1646000D01*
X-6785930Y1622975D01*
X-6777043Y1601520D01*
X-6762905Y1583095D01*
X-6761171Y1581764D01*
X-6760162Y1580666D01*
X-6758431Y1578343D01*
X-6756833Y1575684D01*
X-6755366Y1572623D01*
X-6754049Y1569122D01*
X-6752911Y1565151D01*
X-6751980Y1560689D01*
X-6751286Y1555734D01*
Y1520002D01*
X-6751286Y1520000D01*
X-6747382Y1500374D01*
X-6736265Y1483736D01*
X-6541265Y1288736D01*
X-6541264Y1288736D01*
X-6524626Y1277618D01*
X-6505000Y1273714D01*
X-6410000D01*
X-6405046Y1274700D01*
X-6359700D01*
Y1320045D01*
X-6358715Y1325000D01*
X-6359700Y1329954D01*
Y1375300D01*
X-6405046D01*
X-6410000Y1376285D01*
X-6483757D01*
X-6648715Y1541244D01*
Y1555734D01*
X-6648021Y1560689D01*
X-6647090Y1565150D01*
X-6645951Y1569124D01*
X-6644635Y1572623D01*
X-6643168Y1575683D01*
X-6641570Y1578342D01*
X-6639838Y1580666D01*
X-6638829Y1581764D01*
X-6637095Y1583095D01*
X-6622958Y1601520D01*
X-6614071Y1622975D01*
X-6611039Y1646000D01*
X-6614071Y1669025D01*
X-6622958Y1690480D01*
X-6637095Y1708905D01*
X-6655520Y1723043D01*
X-6676975Y1731930D01*
X-6700000Y1734961D01*
D02*
G37*
G36*
X5648000Y1415164D02*
X5621816Y1411717D01*
X5597417Y1401610D01*
X5576465Y1385533D01*
X5560388Y1364581D01*
X5550282Y1340182D01*
X5546835Y1313998D01*
X5550282Y1287815D01*
X5560388Y1263416D01*
X5576465Y1242464D01*
X5597417Y1226387D01*
X5621816Y1216280D01*
X5648000Y1212833D01*
X5674183Y1216280D01*
X5698582Y1226387D01*
X5719534Y1242464D01*
X5735612Y1263416D01*
X5745718Y1287815D01*
X5749165Y1313998D01*
X5745718Y1340182D01*
X5735612Y1364581D01*
X5719534Y1385533D01*
X5698582Y1401610D01*
X5674183Y1411717D01*
X5648000Y1415164D01*
D02*
G37*
G36*
X-2952000D02*
X-2978184Y1411717D01*
X-3002583Y1401610D01*
X-3023535Y1385533D01*
X-3039612Y1364581D01*
X-3049718Y1340182D01*
X-3053165Y1313998D01*
X-3049718Y1287815D01*
X-3039612Y1263416D01*
X-3023535Y1242464D01*
X-3002583Y1226387D01*
X-2978184Y1216280D01*
X-2952000Y1212833D01*
X-2925817Y1216280D01*
X-2901418Y1226387D01*
X-2880466Y1242464D01*
X-2864388Y1263416D01*
X-2854282Y1287815D01*
X-2850835Y1313998D01*
X-2854282Y1340182D01*
X-2864388Y1364581D01*
X-2880466Y1385533D01*
X-2901418Y1401610D01*
X-2925817Y1411717D01*
X-2952000Y1415164D01*
D02*
G37*
G36*
X6432822Y1240906D02*
Y1185150D01*
X6490906D01*
Y1240906D01*
X6432822D01*
D02*
G37*
G36*
X-2167180D02*
Y1185150D01*
X-2109094D01*
Y1240906D01*
X-2167180D01*
D02*
G37*
G36*
X7854320Y1264503D02*
Y1154318D01*
X7964505D01*
X7961695Y1175659D01*
X7949540Y1205004D01*
X7930205Y1230203D01*
X7905006Y1249539D01*
X7875661Y1261693D01*
X7854320Y1264503D01*
D02*
G37*
G36*
X7834020D02*
X7812680Y1261693D01*
X7783335Y1249539D01*
X7758136Y1230203D01*
X7738800Y1205004D01*
X7726645Y1175659D01*
X7723836Y1154318D01*
X7834020D01*
Y1264503D01*
D02*
G37*
G36*
X-745680D02*
Y1154318D01*
X-635496D01*
X-638305Y1175659D01*
X-650460Y1205004D01*
X-669796Y1230203D01*
X-694995Y1249539D01*
X-724339Y1261693D01*
X-745680Y1264503D01*
D02*
G37*
G36*
X-765980D02*
X-787321Y1261693D01*
X-816665Y1249539D01*
X-841864Y1230203D01*
X-861200Y1205004D01*
X-873355Y1175659D01*
X-876165Y1154318D01*
X-765980D01*
Y1264503D01*
D02*
G37*
G36*
X-1434020D02*
Y1154318D01*
X-1323836D01*
X-1326645Y1175659D01*
X-1338800Y1205004D01*
X-1358136Y1230203D01*
X-1383335Y1249539D01*
X-1412679Y1261693D01*
X-1434020Y1264503D01*
D02*
G37*
G36*
X-1454320D02*
X-1475661Y1261693D01*
X-1505005Y1249539D01*
X-1530204Y1230203D01*
X-1549540Y1205004D01*
X-1561695Y1175659D01*
X-1564505Y1154318D01*
X-1454320D01*
Y1264503D01*
D02*
G37*
G36*
X3331000Y2729165D02*
X3304817Y2725718D01*
X3280418Y2715612D01*
X3259466Y2699535D01*
X3243388Y2678583D01*
X3233282Y2654184D01*
X3229835Y2628000D01*
X3233282Y2601816D01*
X3243388Y2577418D01*
X3259466Y2556466D01*
X3280418Y2540388D01*
X3304817Y2530282D01*
X3331000Y2526835D01*
X3334443Y2527288D01*
X3342773Y2527232D01*
X3362378Y2525963D01*
X3370257Y2524873D01*
X3377357Y2523457D01*
X3383402Y2521802D01*
X3388378Y2519980D01*
X3392279Y2518090D01*
X3395146Y2516253D01*
X3395274Y2516144D01*
X3617908Y2293509D01*
X3617909Y2293508D01*
X3628825Y2286214D01*
X3641701Y2283653D01*
X4143763D01*
X5301208Y1126208D01*
X5312124Y1118915D01*
X5325000Y1116353D01*
X5325001Y1116354D01*
X5712499D01*
X5712500Y1116353D01*
X5725376Y1118915D01*
X5736292Y1126208D01*
X5828791Y1218708D01*
X5828792Y1218708D01*
X5836085Y1229624D01*
X5838646Y1242500D01*
Y2172997D01*
X5838647Y2172998D01*
X5836085Y2185874D01*
X5828792Y2196790D01*
X5759856Y2265725D01*
X5759747Y2265853D01*
X5757909Y2268721D01*
X5756020Y2272621D01*
X5754198Y2277594D01*
X5752543Y2283642D01*
X5751127Y2290741D01*
X5750037Y2298621D01*
X5748768Y2318226D01*
X5748712Y2326555D01*
X5749165Y2329998D01*
X5745718Y2356182D01*
X5735612Y2380581D01*
X5719534Y2401533D01*
X5698582Y2417610D01*
X5674183Y2427717D01*
X5648000Y2431164D01*
X5621816Y2427717D01*
X5597417Y2417610D01*
X5576465Y2401533D01*
X5560388Y2380581D01*
X5550282Y2356182D01*
X5546835Y2329998D01*
X5550282Y2303815D01*
X5560388Y2279416D01*
X5576465Y2258464D01*
X5597417Y2242387D01*
X5621816Y2232280D01*
X5648000Y2228833D01*
X5651443Y2229287D01*
X5659773Y2229231D01*
X5679378Y2227961D01*
X5687257Y2226871D01*
X5694356Y2225456D01*
X5700402Y2223801D01*
X5705378Y2221978D01*
X5709278Y2220089D01*
X5712145Y2218251D01*
X5712273Y2218142D01*
X5771354Y2159061D01*
Y1256437D01*
X5698563Y1183646D01*
X5338937D01*
X4181492Y2341091D01*
X4170576Y2348385D01*
X4157700Y2350946D01*
X4157699Y2350946D01*
X3655637D01*
X3442857Y2563727D01*
X3442747Y2563855D01*
X3440910Y2566723D01*
X3439020Y2570622D01*
X3437199Y2575596D01*
X3435543Y2581644D01*
X3434127Y2588743D01*
X3433037Y2596623D01*
X3431768Y2616227D01*
X3431712Y2624557D01*
X3432165Y2628000D01*
X3428718Y2654184D01*
X3418612Y2678583D01*
X3402535Y2699535D01*
X3381583Y2715612D01*
X3357184Y2725718D01*
X3331000Y2729165D01*
D02*
G37*
G36*
X6490906Y1164850D02*
X6432822D01*
Y1109094D01*
X6490906D01*
Y1164850D01*
D02*
G37*
G36*
X-2109094D02*
X-2167180D01*
Y1109094D01*
X-2109094D01*
Y1164850D01*
D02*
G37*
G36*
X7964505Y1134019D02*
X7854320D01*
Y1023834D01*
X7875661Y1026643D01*
X7905006Y1038798D01*
X7930205Y1058134D01*
X7949540Y1083333D01*
X7961695Y1112678D01*
X7964505Y1134019D01*
D02*
G37*
G36*
X7834020D02*
X7723836D01*
X7726645Y1112678D01*
X7738800Y1083333D01*
X7758136Y1058134D01*
X7783335Y1038798D01*
X7812680Y1026643D01*
X7834020Y1023834D01*
Y1134019D01*
D02*
G37*
G36*
X7276165D02*
X7165980D01*
Y1023834D01*
X7187321Y1026643D01*
X7216666Y1038798D01*
X7241865Y1058134D01*
X7261200Y1083333D01*
X7273355Y1112678D01*
X7276165Y1134019D01*
D02*
G37*
G36*
X7145680D02*
X7035496D01*
X7038305Y1112678D01*
X7050460Y1083333D01*
X7069796Y1058134D01*
X7094995Y1038798D01*
X7124340Y1026643D01*
X7145680Y1023834D01*
Y1134019D01*
D02*
G37*
G36*
X7315906Y938406D02*
X7260150D01*
Y880350D01*
X7315906D01*
Y938406D01*
D02*
G37*
G36*
X7239850D02*
X7184094D01*
Y880350D01*
X7239850D01*
Y938406D01*
D02*
G37*
G36*
X-3642000Y1166724D02*
X-3671405Y1163828D01*
X-3699680Y1155251D01*
X-3725739Y1141322D01*
X-3748579Y1122578D01*
X-3767324Y1099737D01*
X-3781253Y1073679D01*
X-3789830Y1045404D01*
X-3792726Y1015998D01*
X-3789830Y986593D01*
X-3781253Y958318D01*
X-3767324Y932260D01*
X-3748579Y909419D01*
X-3725739Y890675D01*
X-3699680Y876746D01*
X-3671405Y868169D01*
X-3642000Y865273D01*
X-3612595Y868169D01*
X-3584320Y876746D01*
X-3558261Y890675D01*
X-3535421Y909419D01*
X-3516676Y932260D01*
X-3502748Y958318D01*
X-3494171Y986593D01*
X-3491274Y1015998D01*
X-3494171Y1045404D01*
X-3502748Y1073679D01*
X-3516676Y1099737D01*
X-3535421Y1122578D01*
X-3558261Y1141322D01*
X-3584320Y1155251D01*
X-3612595Y1163828D01*
X-3642000Y1166724D01*
D02*
G37*
G36*
X-1309094Y918465D02*
X-1364851D01*
Y860407D01*
X-1309094D01*
Y918465D01*
D02*
G37*
G36*
X-1385150D02*
X-1440906D01*
Y860407D01*
X-1385150D01*
Y918465D01*
D02*
G37*
G36*
X293149Y949829D02*
Y860150D01*
X382829D01*
X380718Y876184D01*
X370612Y900583D01*
X354535Y921535D01*
X333583Y937612D01*
X309184Y947718D01*
X293149Y949829D01*
D02*
G37*
G36*
X4103149D02*
Y860150D01*
X4192829D01*
X4190718Y876184D01*
X4180612Y900583D01*
X4164535Y921535D01*
X4143583Y937612D01*
X4119184Y947718D01*
X4103149Y949829D01*
D02*
G37*
G36*
X1563149D02*
Y860150D01*
X1652829D01*
X1650718Y876184D01*
X1640612Y900583D01*
X1624535Y921535D01*
X1603583Y937612D01*
X1579184Y947718D01*
X1563149Y949829D01*
D02*
G37*
G36*
X2833149D02*
Y860150D01*
X2922829D01*
X2920718Y876184D01*
X2910612Y900583D01*
X2894535Y921535D01*
X2873583Y937612D01*
X2849184Y947718D01*
X2833149Y949829D01*
D02*
G37*
G36*
X4082849Y949829D02*
X4066817Y947718D01*
X4042418Y937612D01*
X4021466Y921535D01*
X4005388Y900583D01*
X3995282Y876184D01*
X3993171Y860150D01*
X4082849D01*
Y949829D01*
D02*
G37*
G36*
X272849D02*
X256817Y947718D01*
X232418Y937612D01*
X211466Y921535D01*
X195388Y900583D01*
X185282Y876184D01*
X183171Y860150D01*
X272849D01*
Y949829D01*
D02*
G37*
G36*
X2812849D02*
X2796817Y947718D01*
X2772418Y937612D01*
X2751466Y921535D01*
X2735388Y900583D01*
X2725282Y876184D01*
X2723171Y860150D01*
X2812849D01*
Y949829D01*
D02*
G37*
G36*
X1542849D02*
X1526817Y947718D01*
X1502418Y937612D01*
X1481466Y921535D01*
X1465388Y900583D01*
X1455282Y876184D01*
X1453171Y860150D01*
X1542849D01*
Y949829D01*
D02*
G37*
G36*
X6660795Y792351D02*
X6582649D01*
Y759205D01*
X6635050D01*
X6644902Y761165D01*
X6653254Y766746D01*
X6658835Y775098D01*
X6660795Y784950D01*
Y792351D01*
D02*
G37*
G36*
X6562349D02*
X6484205D01*
Y784950D01*
X6486165Y775098D01*
X6491746Y766746D01*
X6500098Y761165D01*
X6509950Y759205D01*
X6562349D01*
Y792351D01*
D02*
G37*
G36*
X-1939205Y792350D02*
X-2017350D01*
Y759205D01*
X-1964950D01*
X-1955098Y761165D01*
X-1946746Y766746D01*
X-1941165Y775098D01*
X-1939205Y784950D01*
Y792350D01*
D02*
G37*
G36*
X-2037650D02*
X-2115795D01*
Y784950D01*
X-2113835Y775098D01*
X-2108254Y766746D01*
X-2099902Y761165D01*
X-2090050Y759205D01*
X-2037650D01*
Y792350D01*
D02*
G37*
G36*
X-2864700Y795300D02*
X-2929851D01*
Y755150D01*
X-2864700D01*
Y795300D01*
D02*
G37*
G36*
X-2950150D02*
X-3015300D01*
Y755150D01*
X-2950150D01*
Y795300D01*
D02*
G37*
G36*
X4082849Y839850D02*
X3993171D01*
X3995282Y823816D01*
X4005388Y799418D01*
X4021466Y778466D01*
X4042418Y762388D01*
X4066817Y752282D01*
X4082849Y750171D01*
Y839850D01*
D02*
G37*
G36*
X2812849D02*
X2723171D01*
X2725282Y823816D01*
X2735388Y799418D01*
X2751466Y778466D01*
X2772418Y762388D01*
X2796817Y752282D01*
X2812849Y750171D01*
Y839850D01*
D02*
G37*
G36*
X1542849D02*
X1453171D01*
X1455282Y823816D01*
X1465388Y799418D01*
X1481466Y778466D01*
X1502418Y762388D01*
X1526817Y752282D01*
X1542849Y750171D01*
Y839850D01*
D02*
G37*
G36*
X272849D02*
X183171D01*
X185282Y823816D01*
X195388Y799418D01*
X211466Y778466D01*
X232418Y762388D01*
X256817Y752282D01*
X272849Y750171D01*
Y839850D01*
D02*
G37*
G36*
X4192829D02*
X4103149D01*
Y750171D01*
X4119184Y752282D01*
X4143583Y762388D01*
X4164535Y778466D01*
X4180612Y799418D01*
X4190718Y823816D01*
X4192829Y839850D01*
D02*
G37*
G36*
X2922829D02*
X2833149D01*
Y750171D01*
X2849184Y752282D01*
X2873583Y762388D01*
X2894535Y778466D01*
X2910612Y799418D01*
X2920718Y823816D01*
X2922829Y839850D01*
D02*
G37*
G36*
X1652829D02*
X1563149D01*
Y750171D01*
X1579184Y752282D01*
X1603583Y762388D01*
X1624535Y778466D01*
X1640612Y799418D01*
X1650718Y823816D01*
X1652829Y839850D01*
D02*
G37*
G36*
X382829D02*
X293149D01*
Y750171D01*
X309184Y752282D01*
X333583Y762388D01*
X354535Y778466D01*
X370612Y799418D01*
X380718Y823816D01*
X382829Y839850D01*
D02*
G37*
G36*
X4347000Y951165D02*
X4320817Y947718D01*
X4296418Y937612D01*
X4275466Y921535D01*
X4259388Y900583D01*
X4249282Y876184D01*
X4245835Y850000D01*
X4249282Y823816D01*
X4259388Y799418D01*
X4275466Y778466D01*
X4296418Y762388D01*
X4320817Y752282D01*
X4347000Y748835D01*
X4373184Y752282D01*
X4397583Y762388D01*
X4418535Y778466D01*
X4434612Y799418D01*
X4444718Y823816D01*
X4448165Y850000D01*
X4444718Y876184D01*
X4434612Y900583D01*
X4418535Y921535D01*
X4397583Y937612D01*
X4373184Y947718D01*
X4347000Y951165D01*
D02*
G37*
G36*
X3839000D02*
X3812817Y947718D01*
X3788418Y937612D01*
X3767466Y921535D01*
X3751388Y900583D01*
X3741282Y876184D01*
X3737835Y850000D01*
X3741282Y823816D01*
X3751388Y799418D01*
X3767466Y778466D01*
X3788418Y762388D01*
X3812817Y752282D01*
X3839000Y748835D01*
X3865184Y752282D01*
X3889583Y762388D01*
X3910535Y778466D01*
X3926612Y799418D01*
X3936718Y823816D01*
X3940165Y850000D01*
X3936718Y876184D01*
X3926612Y900583D01*
X3910535Y921535D01*
X3889583Y937612D01*
X3865184Y947718D01*
X3839000Y951165D01*
D02*
G37*
G36*
X3585000D02*
X3558817Y947718D01*
X3534418Y937612D01*
X3513466Y921535D01*
X3497388Y900583D01*
X3487282Y876184D01*
X3483835Y850000D01*
X3487282Y823816D01*
X3497388Y799418D01*
X3513466Y778466D01*
X3534418Y762388D01*
X3558817Y752282D01*
X3585000Y748835D01*
X3611184Y752282D01*
X3635583Y762388D01*
X3656535Y778466D01*
X3672612Y799418D01*
X3682718Y823816D01*
X3686165Y850000D01*
X3682718Y876184D01*
X3672612Y900583D01*
X3656535Y921535D01*
X3635583Y937612D01*
X3611184Y947718D01*
X3585000Y951165D01*
D02*
G37*
G36*
X3331000D02*
X3304817Y947718D01*
X3280418Y937612D01*
X3259466Y921535D01*
X3243388Y900583D01*
X3233282Y876184D01*
X3229835Y850000D01*
X3233282Y823816D01*
X3243388Y799418D01*
X3259466Y778466D01*
X3280418Y762388D01*
X3304817Y752282D01*
X3331000Y748835D01*
X3357184Y752282D01*
X3381583Y762388D01*
X3402535Y778466D01*
X3418612Y799418D01*
X3428718Y823816D01*
X3432165Y850000D01*
X3428718Y876184D01*
X3418612Y900583D01*
X3402535Y921535D01*
X3381583Y937612D01*
X3357184Y947718D01*
X3331000Y951165D01*
D02*
G37*
G36*
X1045000D02*
X1018817Y947718D01*
X994418Y937612D01*
X973466Y921535D01*
X957388Y900583D01*
X947282Y876184D01*
X943835Y850000D01*
X947282Y823816D01*
X957388Y799418D01*
X973466Y778466D01*
X994418Y762388D01*
X1018817Y752282D01*
X1045000Y748835D01*
X1071184Y752282D01*
X1095583Y762388D01*
X1116535Y778466D01*
X1132612Y799418D01*
X1142718Y823816D01*
X1146165Y850000D01*
X1142718Y876184D01*
X1132612Y900583D01*
X1116535Y921535D01*
X1095583Y937612D01*
X1071184Y947718D01*
X1045000Y951165D01*
D02*
G37*
G36*
X791000D02*
X764817Y947718D01*
X740418Y937612D01*
X719466Y921535D01*
X703388Y900583D01*
X693282Y876184D01*
X689835Y850000D01*
X693282Y823816D01*
X703388Y799418D01*
X719466Y778466D01*
X740418Y762388D01*
X764817Y752282D01*
X791000Y748835D01*
X817184Y752282D01*
X841583Y762388D01*
X862535Y778466D01*
X878612Y799418D01*
X888718Y823816D01*
X892165Y850000D01*
X888718Y876184D01*
X878612Y900583D01*
X862535Y921535D01*
X841583Y937612D01*
X817184Y947718D01*
X791000Y951165D01*
D02*
G37*
G36*
X537000D02*
X510817Y947718D01*
X486418Y937612D01*
X465466Y921535D01*
X449388Y900583D01*
X439282Y876184D01*
X435835Y850000D01*
X439282Y823816D01*
X449388Y799418D01*
X465466Y778466D01*
X486418Y762388D01*
X510817Y752282D01*
X537000Y748835D01*
X563184Y752282D01*
X587583Y762388D01*
X608535Y778466D01*
X624612Y799418D01*
X634718Y823816D01*
X638165Y850000D01*
X634718Y876184D01*
X624612Y900583D01*
X608535Y921535D01*
X587583Y937612D01*
X563184Y947718D01*
X537000Y951165D01*
D02*
G37*
G36*
X29000D02*
X2817Y947718D01*
X-21582Y937612D01*
X-42534Y921535D01*
X-58612Y900583D01*
X-68718Y876184D01*
X-72165Y850000D01*
X-68718Y823816D01*
X-58612Y799418D01*
X-42534Y778466D01*
X-21582Y762388D01*
X2817Y752282D01*
X29000Y748835D01*
X55184Y752282D01*
X79583Y762388D01*
X100535Y778466D01*
X116612Y799418D01*
X126718Y823816D01*
X130165Y850000D01*
X126718Y876184D01*
X116612Y900583D01*
X100535Y921535D01*
X79583Y937612D01*
X55184Y947718D01*
X29000Y951165D01*
D02*
G37*
G36*
X-225000D02*
X-251183Y947718D01*
X-275582Y937612D01*
X-296534Y921535D01*
X-312612Y900583D01*
X-322718Y876184D01*
X-326165Y850000D01*
X-322718Y823816D01*
X-312612Y799418D01*
X-296534Y778466D01*
X-275582Y762388D01*
X-251183Y752282D01*
X-225000Y748835D01*
X-198816Y752282D01*
X-174417Y762388D01*
X-153465Y778466D01*
X-137388Y799418D01*
X-127282Y823816D01*
X-123835Y850000D01*
X-127282Y876184D01*
X-137388Y900583D01*
X-153465Y921535D01*
X-174417Y937612D01*
X-198816Y947718D01*
X-225000Y951165D01*
D02*
G37*
G36*
X-2828570Y736285D02*
X-2848196Y732381D01*
X-2853500Y728838D01*
X-2864700Y734825D01*
Y734850D01*
X-2940000D01*
X-3015300D01*
Y694700D01*
Y599700D01*
Y504700D01*
X-2864700D01*
Y521354D01*
X-2843836D01*
X-2842787Y521195D01*
X-2841663Y520944D01*
X-2840779Y520675D01*
X-2840104Y520407D01*
X-2839769Y520238D01*
X-2838764Y518736D01*
X-2822126Y507618D01*
X-2802500Y503715D01*
X-2782874Y507618D01*
X-2766236Y518736D01*
X-2755119Y535374D01*
X-2751215Y555000D01*
X-2755119Y574626D01*
X-2766236Y591264D01*
X-2782874Y602381D01*
X-2802500Y606285D01*
X-2822126Y602381D01*
X-2838764Y591264D01*
X-2839769Y589761D01*
X-2840104Y589593D01*
X-2840779Y589325D01*
X-2841663Y589056D01*
X-2842788Y588805D01*
X-2843835Y588646D01*
X-2864700D01*
Y613639D01*
X-2858672Y623723D01*
X-2845796Y626285D01*
X-2834881Y633578D01*
X-2833720Y634739D01*
X-2828570Y633715D01*
X-2808944Y637618D01*
X-2792306Y648736D01*
X-2781189Y665374D01*
X-2777285Y685000D01*
X-2781189Y704626D01*
X-2792306Y721264D01*
X-2808944Y732381D01*
X-2828570Y736285D01*
D02*
G37*
G36*
X6919091Y760513D02*
X6885151D01*
Y682601D01*
X6919091D01*
Y760513D01*
D02*
G37*
G36*
X6864851D02*
X6830909D01*
Y682601D01*
X6864851D01*
Y760513D01*
D02*
G37*
G36*
X-1705909Y740572D02*
X-1739850D01*
Y662660D01*
X-1705909D01*
Y740572D01*
D02*
G37*
G36*
X-1760150D02*
X-1794091D01*
Y662660D01*
X-1760150D01*
Y740572D01*
D02*
G37*
G36*
X6919091Y662301D02*
X6885151D01*
Y584390D01*
X6919091D01*
Y662301D01*
D02*
G37*
G36*
X6864851D02*
X6830909D01*
Y584390D01*
X6864851D01*
Y662301D01*
D02*
G37*
G36*
X-1705909Y642361D02*
X-1739850D01*
Y564449D01*
X-1705909D01*
Y642361D01*
D02*
G37*
G36*
X-1760150D02*
X-1794091D01*
Y564449D01*
X-1760150D01*
Y642361D01*
D02*
G37*
G36*
X7854320Y576163D02*
Y465978D01*
X7964505D01*
X7961695Y487319D01*
X7949540Y516664D01*
X7930205Y541863D01*
X7905006Y561199D01*
X7875661Y573353D01*
X7854320Y576163D01*
D02*
G37*
G36*
X7834020D02*
X7812680Y573353D01*
X7783335Y561199D01*
X7758136Y541863D01*
X7738800Y516664D01*
X7726645Y487319D01*
X7723836Y465978D01*
X7834020D01*
Y576163D01*
D02*
G37*
G36*
X7165980D02*
Y465978D01*
X7276165D01*
X7273355Y487319D01*
X7261200Y516664D01*
X7241865Y541863D01*
X7216666Y561199D01*
X7187321Y573353D01*
X7165980Y576163D01*
D02*
G37*
G36*
X7145680D02*
X7124340Y573353D01*
X7094995Y561199D01*
X7069796Y541863D01*
X7050460Y516664D01*
X7038305Y487319D01*
X7035496Y465978D01*
X7145680D01*
Y576163D01*
D02*
G37*
G36*
X-745680D02*
Y465978D01*
X-635496D01*
X-638305Y487319D01*
X-650460Y516664D01*
X-669796Y541863D01*
X-694995Y561199D01*
X-724339Y573353D01*
X-745680Y576163D01*
D02*
G37*
G36*
X-1434020D02*
Y465978D01*
X-1323836D01*
X-1326645Y487319D01*
X-1338800Y516664D01*
X-1358136Y541863D01*
X-1383335Y561199D01*
X-1412679Y573353D01*
X-1434020Y576163D01*
D02*
G37*
G36*
X-1454320D02*
X-1475661Y573353D01*
X-1505005Y561199D01*
X-1530204Y541863D01*
X-1549540Y516664D01*
X-1561695Y487319D01*
X-1564505Y465978D01*
X-1454320D01*
Y576163D01*
D02*
G37*
G36*
X-2584700Y639850D02*
X-2660000D01*
X-2735300D01*
Y599700D01*
Y504700D01*
X-2716239D01*
X-2711285Y498664D01*
X-2707381Y479039D01*
X-2701344Y470003D01*
X-2701089Y465173D01*
Y459349D01*
X-2719532Y440906D01*
X-2791735D01*
X-2804435Y440907D01*
X-2808265Y440906D01*
X-2862521D01*
Y375000D01*
Y309094D01*
X-2808265D01*
X-2795565Y309093D01*
X-2791735Y309094D01*
X-2659094D01*
Y385126D01*
X-2630945Y413275D01*
X-2622038Y426605D01*
X-2618911Y442329D01*
Y469622D01*
X-2612619Y479039D01*
X-2608715Y498664D01*
X-2603761Y504700D01*
X-2584700D01*
Y599700D01*
Y639850D01*
D02*
G37*
G36*
X5717180Y440906D02*
X5659094D01*
Y385150D01*
X5717180D01*
Y440906D01*
D02*
G37*
G36*
X-2882820D02*
X-2940906D01*
Y385150D01*
X-2882820D01*
Y440906D01*
D02*
G37*
G36*
X7964505Y445679D02*
X7854320D01*
Y335494D01*
X7875661Y338303D01*
X7905006Y350458D01*
X7930205Y369794D01*
X7949540Y394993D01*
X7961695Y424338D01*
X7964505Y445679D01*
D02*
G37*
G36*
X7834020D02*
X7723836D01*
X7726645Y424338D01*
X7738800Y394993D01*
X7758136Y369794D01*
X7783335Y350458D01*
X7812680Y338303D01*
X7834020Y335494D01*
Y445679D01*
D02*
G37*
G36*
X7276165D02*
X7165980D01*
Y335494D01*
X7187321Y338303D01*
X7216666Y350458D01*
X7241865Y369794D01*
X7261200Y394993D01*
X7273355Y424338D01*
X7276165Y445679D01*
D02*
G37*
G36*
X7145680D02*
X7035496D01*
X7038305Y424338D01*
X7050460Y394993D01*
X7069796Y369794D01*
X7094995Y350458D01*
X7124340Y338303D01*
X7145680Y335494D01*
Y445679D01*
D02*
G37*
G36*
X-635496D02*
X-745680D01*
Y335494D01*
X-724339Y338303D01*
X-694995Y350458D01*
X-669796Y369794D01*
X-650460Y394993D01*
X-638305Y424338D01*
X-635496Y445679D01*
D02*
G37*
G36*
X-765980D02*
X-876165D01*
X-873355Y424338D01*
X-861200Y394993D01*
X-841864Y369794D01*
X-816665Y350458D01*
X-787321Y338303D01*
X-765980Y335494D01*
Y445679D01*
D02*
G37*
G36*
X-1323836D02*
X-1434020D01*
Y335494D01*
X-1412679Y338303D01*
X-1383335Y350458D01*
X-1358136Y369794D01*
X-1338800Y394993D01*
X-1326645Y424338D01*
X-1323836Y445679D01*
D02*
G37*
G36*
X-1454320D02*
X-1564505D01*
X-1561695Y424338D01*
X-1549540Y394993D01*
X-1530204Y369794D01*
X-1505005Y350458D01*
X-1475661Y338303D01*
X-1454320Y335494D01*
Y445679D01*
D02*
G37*
G36*
X5717180Y364850D02*
X5659094D01*
Y309094D01*
X5717180D01*
Y364850D01*
D02*
G37*
G36*
X-2882820D02*
X-2940906D01*
Y309094D01*
X-2882820D01*
Y364850D01*
D02*
G37*
G36*
X6558000Y2259703D02*
X6530642Y2256101D01*
X6505148Y2245541D01*
X6483256Y2228743D01*
X6466458Y2206851D01*
X6455898Y2181357D01*
X6452296Y2153998D01*
X6455898Y2126640D01*
X6466458Y2101146D01*
X6483256Y2079254D01*
X6505148Y2062456D01*
X6530642Y2051896D01*
X6558000Y2048294D01*
X6561743Y2048787D01*
X6570695Y2048732D01*
X6591800Y2047418D01*
X6600340Y2046275D01*
X6608002Y2044792D01*
X6614537Y2043051D01*
X6619910Y2041128D01*
X6624109Y2039132D01*
X6627172Y2037195D01*
X6627498Y2036917D01*
X6693854Y1970562D01*
Y1558937D01*
X6576208Y1441292D01*
X6568915Y1430376D01*
X6566353Y1417500D01*
X6566354Y1417499D01*
Y1388406D01*
X6534094D01*
Y1260708D01*
X6534093Y1251993D01*
X6534094Y1239292D01*
Y1111594D01*
X6566354D01*
Y1040794D01*
X6509950D01*
X6500098Y1038835D01*
X6491746Y1033254D01*
X6486165Y1024902D01*
X6484205Y1015050D01*
Y979950D01*
X6486165Y970098D01*
X6489571Y965000D01*
X6486165Y959902D01*
X6484205Y950050D01*
Y914950D01*
X6486165Y905098D01*
X6489571Y900000D01*
X6486165Y894902D01*
X6484205Y885050D01*
Y849950D01*
X6486165Y840098D01*
X6489571Y835000D01*
X6486165Y829902D01*
X6484205Y820050D01*
Y812651D01*
X6572499D01*
X6660795D01*
Y820050D01*
X6660575Y821153D01*
X6670306Y833854D01*
X6830045D01*
Y833578D01*
X6833467Y816374D01*
X6843212Y801790D01*
X6857796Y792045D01*
X6875000Y788623D01*
X6892204Y792045D01*
X6906788Y801790D01*
X6916533Y816374D01*
X6919955Y833578D01*
Y836553D01*
X7000113D01*
X7009094Y827573D01*
X7009093Y801993D01*
X7009094Y789292D01*
Y661594D01*
X7140906D01*
Y696154D01*
X7184094D01*
Y661594D01*
X7315906D01*
Y696154D01*
X7424823D01*
X7424824Y696154D01*
X7437700Y698715D01*
X7448616Y706009D01*
X7451345Y708738D01*
X7452775Y709831D01*
X7454561Y710927D01*
X7456071Y711631D01*
X7457357Y712046D01*
X7458505Y712256D01*
X7459652Y712310D01*
X7460937Y712200D01*
X7462479Y711870D01*
X7465389Y710880D01*
X7466734Y710702D01*
X7475140Y707220D01*
X7500000Y703947D01*
X7524860Y707220D01*
X7548026Y716815D01*
X7567919Y732080D01*
X7583183Y751973D01*
X7592779Y775138D01*
X7596052Y799998D01*
X7592779Y824858D01*
X7583183Y848024D01*
X7567919Y867917D01*
X7548026Y883182D01*
X7524860Y892777D01*
X7500000Y896050D01*
X7475140Y892777D01*
X7451974Y883182D01*
X7432081Y867917D01*
X7416817Y848024D01*
X7407221Y824858D01*
X7403949Y799998D01*
X7407089Y776147D01*
X7406892Y774556D01*
X7401977Y765861D01*
X7400264Y764620D01*
X7397916Y763447D01*
X7324887D01*
X7315906Y772427D01*
X7315907Y798007D01*
X7315906Y810708D01*
Y860050D01*
X7250000D01*
X7184094D01*
Y810708D01*
X7184093Y801993D01*
X7184094Y789292D01*
Y763447D01*
X7149887D01*
X7140906Y772427D01*
X7140907Y798007D01*
X7140906Y810708D01*
Y938406D01*
X7009094D01*
Y903846D01*
X6919955D01*
Y921518D01*
X6916533Y938722D01*
X6906788Y953306D01*
X6892204Y963052D01*
X6875000Y966474D01*
X6857796Y963052D01*
X6843212Y953306D01*
X6833467Y938722D01*
X6830045Y921518D01*
Y901146D01*
X6670306D01*
X6660575Y913847D01*
X6660795Y914950D01*
Y950050D01*
X6658835Y959902D01*
X6655428Y965000D01*
X6658835Y970098D01*
X6660795Y979950D01*
Y1015050D01*
X6658835Y1024902D01*
X6653254Y1033254D01*
X6644902Y1038835D01*
X6635050Y1040794D01*
X6633646D01*
Y1111594D01*
X6665906D01*
Y1239292D01*
X6665907Y1248007D01*
X6665906Y1260708D01*
Y1286553D01*
X6700113D01*
X6709094Y1277573D01*
X6709093Y1251993D01*
X6709094Y1239292D01*
Y1111594D01*
X6840906D01*
Y1146154D01*
X6884094D01*
Y1111594D01*
X7015906D01*
Y1180002D01*
X7022844Y1181382D01*
X7028493Y1185157D01*
X7038752Y1176738D01*
X7038305Y1175659D01*
X7035496Y1154318D01*
X7276165D01*
X7273355Y1175659D01*
X7261200Y1205004D01*
X7241865Y1230203D01*
X7216666Y1249539D01*
X7194660Y1258654D01*
X7197186Y1271354D01*
X7566063D01*
X7631354Y1206063D01*
Y716437D01*
X7188563Y273646D01*
X1573937D01*
X1332647Y514937D01*
Y725455D01*
X1332660Y725625D01*
X1333388Y728952D01*
X1334810Y733045D01*
X1337040Y737854D01*
X1340144Y743299D01*
X1344162Y749317D01*
X1348964Y755662D01*
X1361928Y770421D01*
X1367780Y776352D01*
X1370535Y778466D01*
X1386612Y799418D01*
X1396718Y823816D01*
X1400165Y850000D01*
X1396718Y876184D01*
X1386612Y900583D01*
X1370535Y921535D01*
X1349583Y937612D01*
X1325184Y947718D01*
X1299000Y951165D01*
X1272817Y947718D01*
X1248418Y937612D01*
X1227466Y921535D01*
X1211388Y900583D01*
X1201282Y876184D01*
X1197835Y850000D01*
X1201282Y823816D01*
X1211388Y799418D01*
X1227466Y778466D01*
X1230220Y776352D01*
X1236072Y770421D01*
X1249035Y755664D01*
X1253837Y749320D01*
X1257856Y743299D01*
X1260961Y737853D01*
X1263191Y733046D01*
X1264612Y728952D01*
X1265341Y725625D01*
X1265354Y725455D01*
Y501002D01*
X1265354Y501000D01*
X1267915Y488124D01*
X1275209Y477209D01*
X1536208Y216209D01*
X1536209Y216208D01*
X1547124Y208915D01*
X1560000Y206354D01*
X7202499D01*
X7202500Y206353D01*
X7215376Y208915D01*
X7226292Y216208D01*
X7688792Y678708D01*
X7696085Y689624D01*
X7698647Y702500D01*
X7698646Y702501D01*
Y1220000D01*
X7696085Y1232876D01*
X7688792Y1243792D01*
X7688791Y1243792D01*
X7603792Y1328792D01*
X7592876Y1336085D01*
X7580000Y1338647D01*
X7579999Y1338646D01*
X7102501D01*
X7102500Y1338647D01*
X7089624Y1336085D01*
X7078708Y1328792D01*
X7027640Y1277723D01*
X7015906Y1282583D01*
Y1310049D01*
X6950000D01*
X6884094D01*
Y1251993D01*
X6884093Y1251993D01*
Y1248007D01*
X6884093D01*
X6884094Y1239293D01*
Y1213447D01*
X6849887D01*
X6840906Y1222427D01*
X6840907Y1248007D01*
X6840906Y1260708D01*
Y1388406D01*
X6709094D01*
Y1353846D01*
X6665906D01*
Y1388406D01*
X6633646D01*
Y1403563D01*
X6751292Y1521208D01*
X6758585Y1532124D01*
X6761146Y1545000D01*
X6761146Y1545001D01*
Y1984497D01*
X6761146Y1984499D01*
X6758585Y1997375D01*
X6751292Y2008290D01*
X6751291Y2008291D01*
X6675081Y2084501D01*
X6674804Y2084826D01*
X6672867Y2087889D01*
X6670870Y2092089D01*
X6668948Y2097461D01*
X6667207Y2103996D01*
X6665724Y2111658D01*
X6664581Y2120199D01*
X6663266Y2141303D01*
X6663211Y2150256D01*
X6663704Y2153998D01*
X6660103Y2181357D01*
X6649542Y2206851D01*
X6632744Y2228743D01*
X6610852Y2245541D01*
X6585358Y2256101D01*
X6558000Y2259703D01*
D02*
G37*
G36*
X8050000Y270905D02*
X8031648Y268489D01*
X8014547Y261405D01*
X7999862Y250137D01*
X7988593Y235452D01*
X7981510Y218351D01*
X7979094Y199999D01*
X7981510Y181647D01*
X7988593Y164545D01*
X7999862Y149860D01*
X8014547Y138592D01*
X8031648Y131508D01*
X8050000Y129092D01*
X8068352Y131508D01*
X8085453Y138592D01*
X8100138Y149860D01*
X8111407Y164545D01*
X8118490Y181647D01*
X8120906Y199999D01*
X8118490Y218351D01*
X8111407Y235452D01*
X8100138Y250137D01*
X8085453Y261405D01*
X8068352Y268489D01*
X8050000Y270905D01*
D02*
G37*
G36*
X-0Y666273D02*
X-49476Y662379D01*
X-97735Y650794D01*
X-143586Y631801D01*
X-185902Y605870D01*
X-223640Y573638D01*
X-255872Y535900D01*
X-281803Y493584D01*
X-300795Y447733D01*
X-312381Y399475D01*
X-316275Y349999D01*
X-312381Y300522D01*
X-300795Y252264D01*
X-281803Y206413D01*
X-255872Y164097D01*
X-223640Y126359D01*
X-185902Y94127D01*
X-143586Y68196D01*
X-97735Y49203D01*
X-49476Y37618D01*
X-0Y33724D01*
X49476Y37618D01*
X97734Y49203D01*
X143585Y68196D01*
X185901Y94127D01*
X223640Y126359D01*
X255871Y164097D01*
X281803Y206413D01*
X300795Y252264D01*
X312381Y300522D01*
X316274Y349999D01*
X312381Y399475D01*
X300795Y447733D01*
X281803Y493584D01*
X255871Y535900D01*
X223640Y573638D01*
X185901Y605870D01*
X143585Y631801D01*
X97734Y650794D01*
X49476Y662379D01*
X-0Y666273D01*
D02*
G37*
%LPD*%
G36*
X7749225Y3572502D02*
X7737981Y3572423D01*
X7717844Y3571089D01*
X7708950Y3569834D01*
X7700840Y3568187D01*
X7693513Y3566149D01*
X7686969Y3563719D01*
X7681210Y3560897D01*
X7676233Y3557683D01*
X7672040Y3554078D01*
X7654080Y3572038D01*
X7657685Y3576231D01*
X7660899Y3581208D01*
X7663721Y3586968D01*
X7666151Y3593511D01*
X7668189Y3600838D01*
X7669836Y3608948D01*
X7671090Y3617842D01*
X7672425Y3637980D01*
X7672504Y3649224D01*
X7749225Y3572502D01*
D02*
G37*
G36*
X7510626Y2594423D02*
X7512478Y2593012D01*
X7514479Y2591767D01*
X7516630Y2590688D01*
X7518931Y2589775D01*
X7521381Y2589028D01*
X7523981Y2588447D01*
X7526731Y2588032D01*
X7529630Y2587783D01*
X7532679Y2587700D01*
Y2562300D01*
X7529630Y2562217D01*
X7526731Y2561968D01*
X7523981Y2561553D01*
X7521381Y2560972D01*
X7518931Y2560225D01*
X7516630Y2559312D01*
X7514479Y2558233D01*
X7512478Y2556988D01*
X7510626Y2555577D01*
X7508924Y2554000D01*
Y2596000D01*
X7510626Y2594423D01*
D02*
G37*
G36*
X7466076Y2554000D02*
X7464374Y2555577D01*
X7462522Y2556988D01*
X7460521Y2558233D01*
X7458370Y2559312D01*
X7456069Y2560225D01*
X7453619Y2560972D01*
X7451019Y2561553D01*
X7448269Y2561968D01*
X7445370Y2562217D01*
X7442321Y2562300D01*
Y2587700D01*
X7445370Y2587783D01*
X7448269Y2588032D01*
X7451019Y2588447D01*
X7453619Y2589028D01*
X7456069Y2589775D01*
X7458370Y2590688D01*
X7460521Y2591767D01*
X7462522Y2593012D01*
X7464374Y2594423D01*
X7466076Y2596000D01*
Y2554000D01*
D02*
G37*
G36*
X7040626Y2449423D02*
X7042478Y2448012D01*
X7044479Y2446767D01*
X7046630Y2445688D01*
X7048931Y2444775D01*
X7051381Y2444028D01*
X7053981Y2443447D01*
X7056731Y2443032D01*
X7059630Y2442783D01*
X7062679Y2442700D01*
Y2417300D01*
X7059630Y2417217D01*
X7056731Y2416968D01*
X7053981Y2416553D01*
X7051381Y2415972D01*
X7048931Y2415225D01*
X7046630Y2414312D01*
X7044479Y2413233D01*
X7042478Y2411988D01*
X7040626Y2410577D01*
X7038924Y2409000D01*
Y2451000D01*
X7040626Y2449423D01*
D02*
G37*
G36*
X6996076Y2409000D02*
X6994374Y2410577D01*
X6992522Y2411988D01*
X6990521Y2413233D01*
X6988370Y2414312D01*
X6986069Y2415225D01*
X6983619Y2415972D01*
X6981019Y2416553D01*
X6978269Y2416968D01*
X6975370Y2417217D01*
X6972321Y2417300D01*
Y2442700D01*
X6975370Y2442783D01*
X6978269Y2443032D01*
X6981019Y2443447D01*
X6983619Y2444028D01*
X6986069Y2444775D01*
X6988370Y2445688D01*
X6990521Y2446767D01*
X6992522Y2448012D01*
X6994374Y2449423D01*
X6996076Y2451000D01*
Y2409000D01*
D02*
G37*
G36*
X7995626Y2419423D02*
X7997478Y2418012D01*
X7999479Y2416767D01*
X8001630Y2415688D01*
X8003931Y2414775D01*
X8006381Y2414028D01*
X8008981Y2413447D01*
X8011731Y2413032D01*
X8014630Y2412783D01*
X8017679Y2412700D01*
Y2387300D01*
X8014630Y2387217D01*
X8011731Y2386968D01*
X8008981Y2386553D01*
X8006381Y2385972D01*
X8003931Y2385225D01*
X8001630Y2384312D01*
X7999479Y2383233D01*
X7997478Y2381988D01*
X7995626Y2380577D01*
X7993924Y2379000D01*
Y2421000D01*
X7995626Y2419423D01*
D02*
G37*
G36*
X7951076Y2379000D02*
X7949374Y2380577D01*
X7947522Y2381988D01*
X7945521Y2383233D01*
X7943370Y2384312D01*
X7941069Y2385225D01*
X7938619Y2385972D01*
X7936019Y2386553D01*
X7933269Y2386968D01*
X7930370Y2387217D01*
X7927321Y2387300D01*
Y2412700D01*
X7930370Y2412783D01*
X7933269Y2413032D01*
X7936019Y2413447D01*
X7938619Y2414028D01*
X7941069Y2414775D01*
X7943370Y2415688D01*
X7945521Y2416767D01*
X7947522Y2418012D01*
X7949374Y2419423D01*
X7951076Y2421000D01*
Y2379000D01*
D02*
G37*
G36*
X7262827Y2297710D02*
X7263208Y2293340D01*
X7263843Y2289484D01*
X7264732Y2286142D01*
X7265875Y2283315D01*
X7267272Y2281002D01*
X7268923Y2279202D01*
X7270828Y2277917D01*
X7272987Y2277146D01*
X7275400Y2276889D01*
X7224600D01*
X7227013Y2277146D01*
X7229172Y2277917D01*
X7231077Y2279202D01*
X7232728Y2281002D01*
X7234125Y2283315D01*
X7235268Y2286142D01*
X7236157Y2289484D01*
X7236792Y2293340D01*
X7237173Y2297710D01*
X7237300Y2302594D01*
X7262700D01*
X7262827Y2297710D01*
D02*
G37*
G36*
X7763116Y2317436D02*
X7764362Y2311645D01*
X7766440Y2305577D01*
X7769348Y2299232D01*
X7773088Y2292610D01*
X7777658Y2285710D01*
X7783060Y2278534D01*
X7796356Y2263351D01*
X7804250Y2255344D01*
X7695750D01*
X7703645Y2263351D01*
X7716941Y2278534D01*
X7722342Y2285710D01*
X7726913Y2292610D01*
X7730652Y2299232D01*
X7733561Y2305577D01*
X7735638Y2311645D01*
X7736885Y2317436D01*
X7737300Y2322951D01*
X7762700D01*
X7763116Y2317436D01*
D02*
G37*
G36*
X3090133Y2749353D02*
X3091432Y2743420D01*
X3093597Y2737186D01*
X3096628Y2730651D01*
X3100525Y2723816D01*
X3105288Y2716681D01*
X3110917Y2709244D01*
X3124773Y2693470D01*
X3133000Y2685132D01*
X3021000D01*
X3029227Y2693470D01*
X3043083Y2709244D01*
X3048712Y2716681D01*
X3053475Y2723816D01*
X3057372Y2730651D01*
X3060403Y2737186D01*
X3062568Y2743420D01*
X3063867Y2749353D01*
X3064300Y2754986D01*
X3089700D01*
X3090133Y2749353D01*
D02*
G37*
G36*
X5968519Y2000097D02*
X5973880Y1996706D01*
X5980141Y1993730D01*
X5987301Y1991168D01*
X5995361Y1989021D01*
X6004320Y1987287D01*
X6014180Y1985968D01*
X6036597Y1984571D01*
X6049155Y1984494D01*
X5965504Y1900844D01*
X5965427Y1913402D01*
X5964031Y1935819D01*
X5962711Y1945678D01*
X5960978Y1954638D01*
X5958830Y1962697D01*
X5956268Y1969858D01*
X5953292Y1976118D01*
X5949902Y1981479D01*
X5946098Y1985940D01*
X5964058Y2003901D01*
X5968519Y2000097D01*
D02*
G37*
G36*
X-850775Y3572502D02*
X-862019Y3572423D01*
X-882157Y3571089D01*
X-891051Y3569834D01*
X-899161Y3568187D01*
X-906488Y3566149D01*
X-913031Y3563719D01*
X-918791Y3560897D01*
X-923767Y3557683D01*
X-927960Y3554078D01*
X-945921Y3572038D01*
X-942315Y3576231D01*
X-939102Y3581208D01*
X-936280Y3586968D01*
X-933850Y3593511D01*
X-931811Y3600838D01*
X-930165Y3608948D01*
X-928910Y3617842D01*
X-927576Y3637980D01*
X-927496Y3649224D01*
X-850775Y3572502D01*
D02*
G37*
G36*
X3731564Y3295176D02*
X3734714Y3293565D01*
X3738283Y3292143D01*
X3742271Y3290911D01*
X3746679Y3289869D01*
X3751505Y3289016D01*
X3762414Y3287879D01*
X3768498Y3287595D01*
X3775000Y3287500D01*
Y3242500D01*
X3768498Y3242405D01*
X3751505Y3240984D01*
X3746679Y3240131D01*
X3742271Y3239089D01*
X3738283Y3237857D01*
X3734714Y3236435D01*
X3731564Y3234825D01*
X3728833Y3233024D01*
Y3242443D01*
X3704801Y3242500D01*
Y3287500D01*
X3728833Y3287819D01*
Y3296976D01*
X3731564Y3295176D01*
D02*
G37*
G36*
X42133Y2749353D02*
X43432Y2743420D01*
X45597Y2737186D01*
X48628Y2730651D01*
X52525Y2723816D01*
X57288Y2716681D01*
X62917Y2709244D01*
X76773Y2693470D01*
X85000Y2685132D01*
X-27000D01*
X-18773Y2693470D01*
X-4917Y2709244D01*
X712Y2716681D01*
X5475Y2723816D01*
X9372Y2730651D01*
X12403Y2737186D01*
X14568Y2743420D01*
X15867Y2749353D01*
X16300Y2754986D01*
X41700D01*
X42133Y2749353D01*
D02*
G37*
G36*
X714477Y2723096D02*
X719591Y2719819D01*
X725530Y2716942D01*
X732294Y2714464D01*
X739883Y2712387D01*
X748296Y2710709D01*
X757535Y2709431D01*
X778487Y2708075D01*
X790200Y2707996D01*
X711004Y2628800D01*
X710926Y2640513D01*
X709569Y2661465D01*
X708291Y2670704D01*
X706613Y2679118D01*
X704536Y2686706D01*
X702058Y2693470D01*
X699181Y2699409D01*
X695904Y2704523D01*
X692228Y2708812D01*
X710188Y2726773D01*
X714477Y2723096D01*
D02*
G37*
G36*
X-1064374Y2594423D02*
X-1062522Y2593012D01*
X-1060521Y2591767D01*
X-1058370Y2590688D01*
X-1056069Y2589775D01*
X-1053619Y2589028D01*
X-1051019Y2588447D01*
X-1048269Y2588032D01*
X-1045370Y2587783D01*
X-1042321Y2587700D01*
Y2562300D01*
X-1045370Y2562217D01*
X-1048269Y2561968D01*
X-1051019Y2561553D01*
X-1053619Y2560972D01*
X-1056069Y2560225D01*
X-1058370Y2559312D01*
X-1060521Y2558233D01*
X-1062522Y2556988D01*
X-1064374Y2555577D01*
X-1066076Y2554000D01*
Y2596000D01*
X-1064374Y2594423D01*
D02*
G37*
G36*
X-1108924Y2554000D02*
X-1110626Y2555577D01*
X-1112478Y2556988D01*
X-1114479Y2558233D01*
X-1116630Y2559312D01*
X-1118931Y2560225D01*
X-1121381Y2560972D01*
X-1123981Y2561553D01*
X-1126731Y2561968D01*
X-1129630Y2562217D01*
X-1132679Y2562300D01*
Y2587700D01*
X-1129630Y2587783D01*
X-1126731Y2588032D01*
X-1123981Y2588447D01*
X-1121381Y2589028D01*
X-1118931Y2589775D01*
X-1116630Y2590688D01*
X-1114479Y2591767D01*
X-1112478Y2593012D01*
X-1110626Y2594423D01*
X-1108924Y2596000D01*
Y2554000D01*
D02*
G37*
G36*
X1379075Y2615487D02*
X1380431Y2594535D01*
X1381709Y2585296D01*
X1383387Y2576883D01*
X1385465Y2569294D01*
X1387942Y2562530D01*
X1390819Y2556591D01*
X1394096Y2551477D01*
X1397773Y2547188D01*
X1379812Y2529228D01*
X1375523Y2532904D01*
X1370409Y2536181D01*
X1364470Y2539058D01*
X1357706Y2541536D01*
X1350118Y2543613D01*
X1341704Y2545291D01*
X1332465Y2546569D01*
X1311514Y2547926D01*
X1299800Y2548004D01*
X1378996Y2627200D01*
X1379075Y2615487D01*
D02*
G37*
G36*
X1125075D02*
X1126432Y2594535D01*
X1127709Y2585296D01*
X1129387Y2576883D01*
X1131465Y2569294D01*
X1133942Y2562530D01*
X1136819Y2556591D01*
X1140096Y2551477D01*
X1143773Y2547188D01*
X1125812Y2529228D01*
X1121523Y2532904D01*
X1116409Y2536181D01*
X1110470Y2539058D01*
X1103707Y2541536D01*
X1096118Y2543613D01*
X1087704Y2545291D01*
X1078466Y2546569D01*
X1057514Y2547926D01*
X1045800Y2548004D01*
X1124996Y2627200D01*
X1125075Y2615487D01*
D02*
G37*
G36*
X584773Y2562531D02*
X570917Y2546756D01*
X565288Y2539320D01*
X560525Y2532184D01*
X556628Y2525349D01*
X553597Y2518814D01*
X551432Y2512580D01*
X550133Y2506647D01*
X549700Y2501015D01*
X524300D01*
X523867Y2506647D01*
X522568Y2512580D01*
X520403Y2518814D01*
X517372Y2525349D01*
X513475Y2532184D01*
X508712Y2539320D01*
X503083Y2546756D01*
X489227Y2562531D01*
X481000Y2570869D01*
X593000D01*
X584773Y2562531D01*
D02*
G37*
G36*
X465466Y2556466D02*
X468220Y2554352D01*
X474072Y2548421D01*
X487035Y2533664D01*
X491837Y2527320D01*
X495856Y2521299D01*
X498961Y2515853D01*
X501191Y2511046D01*
X502421Y2507504D01*
X38563Y2043646D01*
X-1368563D01*
X-1415381Y2090465D01*
X-1410521Y2102198D01*
X-1252200D01*
Y2297798D01*
X-1316354D01*
Y2334092D01*
X-1266394D01*
Y2465905D01*
X-1300954D01*
Y2500113D01*
X-1291974Y2509094D01*
X-1251993Y2509093D01*
X-1239292Y2509094D01*
X-1111594D01*
Y2516492D01*
X-1098893Y2525981D01*
X-1087500Y2523715D01*
X-1076107Y2525981D01*
X-1063406Y2516492D01*
Y2509094D01*
X-935708D01*
X-926993Y2509093D01*
X-914292Y2509094D01*
X-888447D01*
Y2465906D01*
X-913406D01*
Y2334094D01*
X-883646D01*
Y2320431D01*
X-883648Y2320405D01*
X-884340Y2317193D01*
X-885686Y2313262D01*
X-887799Y2308650D01*
X-890748Y2303428D01*
X-894571Y2297658D01*
X-899134Y2291595D01*
X-911524Y2277447D01*
X-917128Y2271764D01*
X-919752Y2269750D01*
X-935428Y2249320D01*
X-945283Y2225529D01*
X-948644Y2199998D01*
X-945283Y2174468D01*
X-935428Y2150676D01*
X-919752Y2130247D01*
X-899322Y2114571D01*
X-875531Y2104716D01*
X-850000Y2101355D01*
X-824469Y2104716D01*
X-800678Y2114571D01*
X-780248Y2130247D01*
X-764572Y2150676D01*
X-754718Y2174468D01*
X-751356Y2199998D01*
X-754718Y2225529D01*
X-764572Y2249320D01*
X-780248Y2269750D01*
X-782872Y2271763D01*
X-788476Y2277447D01*
X-800864Y2291593D01*
X-805429Y2297658D01*
X-809253Y2303429D01*
X-812200Y2308649D01*
X-814314Y2313260D01*
X-815661Y2317193D01*
X-816352Y2320405D01*
X-816354Y2320431D01*
Y2325113D01*
X-807373Y2334094D01*
X-776993Y2334093D01*
X-764292Y2334094D01*
X-636594D01*
Y2366354D01*
X-595300D01*
Y2352200D01*
X-454700D01*
Y2391354D01*
X279999D01*
X280000Y2391354D01*
X292876Y2393915D01*
X303792Y2401209D01*
X436291Y2533708D01*
X436292Y2533708D01*
X443585Y2544624D01*
X446147Y2557500D01*
X446146Y2557501D01*
Y2560781D01*
X458846Y2565092D01*
X465466Y2556466D01*
D02*
G37*
G36*
X-1337173Y2297710D02*
X-1336792Y2293340D01*
X-1336157Y2289484D01*
X-1335268Y2286142D01*
X-1334125Y2283315D01*
X-1332728Y2281002D01*
X-1331077Y2279202D01*
X-1329172Y2277917D01*
X-1327013Y2277146D01*
X-1324600Y2276889D01*
X-1375400D01*
X-1372987Y2277146D01*
X-1370828Y2277917D01*
X-1368923Y2279202D01*
X-1367272Y2281002D01*
X-1365875Y2283315D01*
X-1364732Y2286142D01*
X-1363843Y2289484D01*
X-1363208Y2293340D01*
X-1362827Y2297710D01*
X-1362700Y2302594D01*
X-1337300D01*
X-1337173Y2297710D01*
D02*
G37*
G36*
X-836885Y2317436D02*
X-835638Y2311645D01*
X-833561Y2305577D01*
X-830652Y2299232D01*
X-826912Y2292610D01*
X-822342Y2285710D01*
X-816941Y2278534D01*
X-803645Y2263351D01*
X-795750Y2255344D01*
X-904250D01*
X-896356Y2263351D01*
X-883059Y2278534D01*
X-877658Y2285710D01*
X-873088Y2292610D01*
X-869348Y2299232D01*
X-866439Y2305577D01*
X-864362Y2311645D01*
X-863116Y2317436D01*
X-862700Y2322951D01*
X-837300D01*
X-836885Y2317436D01*
D02*
G37*
G36*
X3000477Y945096D02*
X3005591Y941819D01*
X3011530Y938942D01*
X3018294Y936464D01*
X3025883Y934387D01*
X3034296Y932709D01*
X3043535Y931431D01*
X3064487Y930075D01*
X3076200Y929996D01*
X2997004Y850800D01*
X2996926Y862513D01*
X2995569Y883465D01*
X2994291Y892704D01*
X2992613Y901118D01*
X2990536Y908706D01*
X2988058Y915470D01*
X2985181Y921409D01*
X2981904Y926523D01*
X2978228Y930812D01*
X2996188Y948773D01*
X3000477Y945096D01*
D02*
G37*
G36*
X5556748Y688829D02*
X5558975Y686955D01*
X5561212Y685304D01*
X5563462Y683877D01*
X5565722Y682672D01*
X5567995Y681691D01*
X5570279Y680933D01*
X5572574Y680398D01*
X5574881Y680087D01*
X5577200Y679998D01*
X5547501Y650300D01*
X5547413Y652618D01*
X5547101Y654926D01*
X5546567Y657221D01*
X5545809Y659505D01*
X5544828Y661777D01*
X5543623Y664038D01*
X5542195Y666287D01*
X5540545Y668525D01*
X5538670Y670752D01*
X5536573Y672966D01*
X5554534Y690927D01*
X5556748Y688829D01*
D02*
G37*
G36*
X5600626Y669423D02*
X5602478Y668012D01*
X5604479Y666767D01*
X5606630Y665688D01*
X5608931Y664775D01*
X5611381Y664028D01*
X5613981Y663447D01*
X5616731Y663032D01*
X5619630Y662783D01*
X5622679Y662700D01*
Y637300D01*
X5619630Y637217D01*
X5616731Y636968D01*
X5613981Y636553D01*
X5611381Y635972D01*
X5608931Y635225D01*
X5606630Y634312D01*
X5604479Y633233D01*
X5602478Y631988D01*
X5600626Y630577D01*
X5598924Y629000D01*
Y671000D01*
X5600626Y669423D01*
D02*
G37*
G36*
X5925867Y540849D02*
X5925192Y541125D01*
X5923749Y541371D01*
X5921538Y541589D01*
X5910296Y542068D01*
X5884550Y542300D01*
Y567700D01*
X5925867Y569151D01*
Y540849D01*
D02*
G37*
G36*
X5623944Y522904D02*
X5620056Y518986D01*
X5601787Y498331D01*
X5601107Y497085D01*
X5587385Y536302D01*
X5589269Y535519D01*
X5591197Y535061D01*
X5593168Y534926D01*
X5595182Y535116D01*
X5597240Y535630D01*
X5599341Y536467D01*
X5601485Y537629D01*
X5603673Y539114D01*
X5605903Y540924D01*
X5608178Y543058D01*
X5623944Y522904D01*
D02*
G37*
G36*
X5961000Y520089D02*
X5919000D01*
X5919190Y520455D01*
X5919360Y521160D01*
X5919510Y522205D01*
X5919750Y525313D01*
X5919990Y535604D01*
X5920000Y539025D01*
X5960000D01*
X5961000Y520089D01*
D02*
G37*
G36*
X5552393Y488545D02*
X5550691Y490122D01*
X5548839Y491533D01*
X5546838Y492778D01*
X5544687Y493857D01*
X5542386Y494770D01*
X5539936Y495517D01*
X5537336Y496098D01*
X5534586Y496513D01*
X5531687Y496762D01*
X5528638Y496845D01*
Y522245D01*
X5531687Y522328D01*
X5534586Y522577D01*
X5537336Y522992D01*
X5539936Y523573D01*
X5542386Y524320D01*
X5544687Y525233D01*
X5546838Y526312D01*
X5548839Y527557D01*
X5550691Y528968D01*
X5552393Y530545D01*
Y488545D01*
D02*
G37*
G36*
X5960810Y476875D02*
X5960640Y476169D01*
X5960490Y475125D01*
X5960250Y472016D01*
X5960010Y461726D01*
X5960000Y458304D01*
X5920000D01*
X5919000Y477241D01*
X5961000D01*
X5960810Y476875D01*
D02*
G37*
%LPC*%
G36*
X-1089850Y2297306D02*
Y2210148D01*
X-1002693D01*
X-1004718Y2225529D01*
X-1014572Y2249320D01*
X-1030248Y2269750D01*
X-1050678Y2285426D01*
X-1074469Y2295281D01*
X-1089850Y2297306D01*
D02*
G37*
G36*
X-1110150D02*
X-1125531Y2295281D01*
X-1149322Y2285426D01*
X-1169752Y2269750D01*
X-1185428Y2249320D01*
X-1195283Y2225529D01*
X-1197307Y2210148D01*
X-1110150D01*
Y2297306D01*
D02*
G37*
G36*
X-1002693Y2189849D02*
X-1089850D01*
Y2102691D01*
X-1074469Y2104716D01*
X-1050678Y2114571D01*
X-1030248Y2130247D01*
X-1014572Y2150676D01*
X-1004718Y2174468D01*
X-1002693Y2189849D01*
D02*
G37*
G36*
X-1110150D02*
X-1197307D01*
X-1195283Y2174468D01*
X-1185428Y2150676D01*
X-1169752Y2130247D01*
X-1149322Y2114571D01*
X-1125531Y2104716D01*
X-1110150Y2102691D01*
Y2189849D01*
D02*
G37*
%LPD*%
G36*
X-4868436Y3295176D02*
X-4865286Y3293565D01*
X-4861717Y3292143D01*
X-4857728Y3290911D01*
X-4853321Y3289869D01*
X-4848495Y3289016D01*
X-4837585Y3287879D01*
X-4831502Y3287595D01*
X-4825000Y3287500D01*
Y3242500D01*
X-4831502Y3242405D01*
X-4848495Y3240984D01*
X-4853321Y3240131D01*
X-4857728Y3239089D01*
X-4861717Y3237857D01*
X-4865286Y3236435D01*
X-4868436Y3234825D01*
X-4871167Y3233024D01*
Y3242443D01*
X-4895199Y3242500D01*
Y3287500D01*
X-4871167Y3287819D01*
Y3296976D01*
X-4868436Y3295176D01*
D02*
G37*
G36*
X-1957427Y2140595D02*
X-1956031Y2118178D01*
X-1954712Y2108319D01*
X-1952978Y2099360D01*
X-1950830Y2091300D01*
X-1948268Y2084140D01*
X-1945292Y2077879D01*
X-1941902Y2072518D01*
X-1938098Y2068057D01*
X-1956058Y2050096D01*
X-1960520Y2053901D01*
X-1965880Y2057291D01*
X-1972141Y2060267D01*
X-1979301Y2062829D01*
X-1987361Y2064976D01*
X-1996321Y2066710D01*
X-2006180Y2068029D01*
X-2028597Y2069426D01*
X-2041155Y2069503D01*
X-1957505Y2153154D01*
X-1957427Y2140595D01*
D02*
G37*
G36*
X-42584Y1672211D02*
X-42272Y1669904D01*
X-41738Y1667608D01*
X-40980Y1665324D01*
X-39998Y1663052D01*
X-38794Y1660791D01*
X-37366Y1658542D01*
X-35715Y1656304D01*
X-33841Y1654078D01*
X-31744Y1651863D01*
X-49704Y1633902D01*
X-51919Y1636000D01*
X-54145Y1637874D01*
X-56383Y1639525D01*
X-58632Y1640953D01*
X-60893Y1642157D01*
X-63166Y1643138D01*
X-65450Y1643896D01*
X-67745Y1644431D01*
X-70052Y1644742D01*
X-72371Y1644831D01*
X-42672Y1674529D01*
X-42584Y1672211D01*
D02*
G37*
G36*
X-6140148Y1500943D02*
X-6137364Y1499213D01*
X-6134533Y1497687D01*
X-6131655Y1496364D01*
X-6128729Y1495244D01*
X-6125757Y1494328D01*
X-6122737Y1493616D01*
X-6119669Y1493107D01*
X-6116555Y1492802D01*
X-6113393Y1492700D01*
Y1467300D01*
X-6116555Y1467198D01*
X-6119669Y1466893D01*
X-6122737Y1466384D01*
X-6125757Y1465671D01*
X-6128729Y1464756D01*
X-6131655Y1463636D01*
X-6134533Y1462313D01*
X-6137364Y1460787D01*
X-6140148Y1459057D01*
X-6142884Y1457123D01*
Y1502877D01*
X-6140148Y1500943D01*
D02*
G37*
G36*
X2074087Y967916D02*
X2075246Y961792D01*
X2077177Y955628D01*
X2079882Y949424D01*
X2083359Y943179D01*
X2087608Y936895D01*
X2092630Y930571D01*
X2098425Y924207D01*
X2104993Y917803D01*
X2112333Y911359D01*
X2009667D01*
X2017007Y917803D01*
X2029370Y930571D01*
X2034392Y936895D01*
X2038642Y943179D01*
X2042119Y949424D01*
X2044823Y955628D01*
X2046755Y961792D01*
X2047914Y967916D01*
X2048300Y974000D01*
X2073700D01*
X2074087Y967916D01*
D02*
G37*
G36*
X2328098Y968950D02*
X2329292Y962808D01*
X2331282Y956574D01*
X2334068Y950248D01*
X2337650Y943830D01*
X2342028Y937321D01*
X2347202Y930719D01*
X2353172Y924026D01*
X2359938Y917241D01*
X2367500Y910363D01*
X2262500D01*
X2270062Y917241D01*
X2282798Y930719D01*
X2287972Y937321D01*
X2292350Y943830D01*
X2295932Y950248D01*
X2298718Y956574D01*
X2300708Y962808D01*
X2301902Y968950D01*
X2302300Y975000D01*
X2327700D01*
X2328098Y968950D01*
D02*
G37*
G36*
X1730477Y945096D02*
X1735591Y941819D01*
X1741530Y938942D01*
X1748294Y936464D01*
X1755883Y934387D01*
X1764296Y932709D01*
X1773535Y931431D01*
X1794487Y930075D01*
X1806200Y929996D01*
X1727004Y850800D01*
X1726926Y862513D01*
X1725569Y883465D01*
X1724291Y892704D01*
X1722613Y901118D01*
X1720536Y908706D01*
X1718058Y915470D01*
X1715181Y921409D01*
X1711904Y926523D01*
X1708228Y930812D01*
X1726188Y948773D01*
X1730477Y945096D01*
D02*
G37*
G36*
X2568200Y770004D02*
X2556487Y769926D01*
X2535535Y768569D01*
X2526296Y767291D01*
X2517883Y765613D01*
X2510294Y763536D01*
X2503530Y761058D01*
X2497591Y758181D01*
X2492477Y754904D01*
X2488188Y751228D01*
X2470228Y769188D01*
X2473904Y773477D01*
X2477181Y778591D01*
X2480058Y784530D01*
X2482536Y791294D01*
X2484613Y798883D01*
X2486291Y807296D01*
X2487569Y816535D01*
X2488926Y837487D01*
X2489004Y849200D01*
X2568200Y770004D01*
D02*
G37*
G36*
X-1100749Y725072D02*
X-1111511Y724992D01*
X-1130812Y723681D01*
X-1139351Y722450D01*
X-1147149Y720835D01*
X-1154206Y718837D01*
X-1160522Y716456D01*
X-1166098Y713691D01*
X-1170933Y710543D01*
X-1175027Y707011D01*
X-1192987Y724972D01*
X-1189456Y729066D01*
X-1186307Y733900D01*
X-1183542Y739476D01*
X-1181161Y745793D01*
X-1179163Y752850D01*
X-1177549Y760648D01*
X-1176318Y769187D01*
X-1175007Y788488D01*
X-1174926Y799249D01*
X-1100749Y725072D01*
D02*
G37*
G36*
X3683773Y2708812D02*
X3680096Y2704523D01*
X3676819Y2699409D01*
X3673942Y2693470D01*
X3671465Y2686706D01*
X3669387Y2679118D01*
X3667709Y2670704D01*
X3666431Y2661465D01*
X3665075Y2640513D01*
X3664996Y2628800D01*
X3585800Y2707996D01*
X3597514Y2708075D01*
X3618465Y2709431D01*
X3627704Y2710709D01*
X3636118Y2712387D01*
X3643706Y2714464D01*
X3650470Y2716942D01*
X3656409Y2719819D01*
X3661523Y2723096D01*
X3665812Y2726773D01*
X3683773Y2708812D01*
D02*
G37*
G36*
X5571477Y2679094D02*
X5576591Y2675817D01*
X5582530Y2672940D01*
X5589293Y2670463D01*
X5596882Y2668385D01*
X5605296Y2666707D01*
X5614534Y2665430D01*
X5635486Y2664073D01*
X5647200Y2663994D01*
X5568004Y2584798D01*
X5567925Y2596512D01*
X5566568Y2617464D01*
X5565291Y2626702D01*
X5563613Y2635116D01*
X5561535Y2642705D01*
X5559058Y2649468D01*
X5556181Y2655407D01*
X5552904Y2660521D01*
X5549227Y2664810D01*
X5567188Y2682771D01*
X5571477Y2679094D01*
D02*
G37*
G36*
X4681075Y2615487D02*
X4682431Y2594535D01*
X4683709Y2585296D01*
X4685387Y2576883D01*
X4687465Y2569294D01*
X4689942Y2562530D01*
X4692819Y2556591D01*
X4696096Y2551477D01*
X4699773Y2547188D01*
X4681812Y2529228D01*
X4677523Y2532904D01*
X4672409Y2536181D01*
X4666470Y2539058D01*
X4659706Y2541536D01*
X4652118Y2543613D01*
X4643704Y2545291D01*
X4634465Y2546569D01*
X4613514Y2547926D01*
X4601800Y2548004D01*
X4680996Y2627200D01*
X4681075Y2615487D01*
D02*
G37*
G36*
X4427075D02*
X4428431Y2594535D01*
X4429709Y2585296D01*
X4431387Y2576883D01*
X4433465Y2569294D01*
X4435942Y2562530D01*
X4438819Y2556591D01*
X4442096Y2551477D01*
X4445773Y2547188D01*
X4427812Y2529228D01*
X4423523Y2532904D01*
X4418409Y2536181D01*
X4412470Y2539058D01*
X4405706Y2541536D01*
X4398118Y2543613D01*
X4389704Y2545291D01*
X4380465Y2546569D01*
X4359514Y2547926D01*
X4347800Y2548004D01*
X4426996Y2627200D01*
X4427075Y2615487D01*
D02*
G37*
G36*
X3919075D02*
X3920431Y2594535D01*
X3921709Y2585296D01*
X3923387Y2576883D01*
X3925465Y2569294D01*
X3927942Y2562530D01*
X3930819Y2556591D01*
X3934096Y2551477D01*
X3937773Y2547188D01*
X3919812Y2529228D01*
X3915523Y2532904D01*
X3910409Y2536181D01*
X3904470Y2539058D01*
X3897706Y2541536D01*
X3890118Y2543613D01*
X3881704Y2545291D01*
X3872465Y2546569D01*
X3851514Y2547926D01*
X3839800Y2548004D01*
X3918996Y2627200D01*
X3919075Y2615487D01*
D02*
G37*
G36*
X5590868Y2019999D02*
X5582530Y2028225D01*
X5566756Y2042082D01*
X5559319Y2047710D01*
X5552184Y2052473D01*
X5545349Y2056370D01*
X5538814Y2059401D01*
X5532580Y2061566D01*
X5526647Y2062865D01*
X5521014Y2063298D01*
Y2088698D01*
X5526647Y2089131D01*
X5532580Y2090430D01*
X5538814Y2092596D01*
X5545349Y2095626D01*
X5552184Y2099523D01*
X5559319Y2104286D01*
X5566756Y2109915D01*
X5582530Y2123771D01*
X5590868Y2131998D01*
Y2019999D01*
D02*
G37*
G36*
Y1765998D02*
X5582530Y1774225D01*
X5566756Y1788082D01*
X5559319Y1793710D01*
X5552184Y1798473D01*
X5545349Y1802370D01*
X5538814Y1805401D01*
X5532580Y1807566D01*
X5526647Y1808865D01*
X5521014Y1809298D01*
Y1834698D01*
X5526647Y1835131D01*
X5532580Y1836430D01*
X5538814Y1838596D01*
X5545349Y1841626D01*
X5552184Y1845523D01*
X5559319Y1850286D01*
X5566756Y1855915D01*
X5582530Y1869771D01*
X5590868Y1877998D01*
Y1765998D01*
D02*
G37*
G36*
Y1511998D02*
X5582530Y1520225D01*
X5566756Y1534082D01*
X5559319Y1539710D01*
X5552184Y1544473D01*
X5545349Y1548370D01*
X5538814Y1551401D01*
X5532580Y1553566D01*
X5526647Y1554865D01*
X5521014Y1555298D01*
Y1580698D01*
X5526647Y1581131D01*
X5532580Y1582430D01*
X5538814Y1584596D01*
X5545349Y1587626D01*
X5552184Y1591523D01*
X5559319Y1596286D01*
X5566756Y1601915D01*
X5582530Y1615771D01*
X5590868Y1623998D01*
Y1511998D01*
D02*
G37*
G36*
X-5925000Y2025000D02*
X-5948231D01*
X-5959093Y2029435D01*
X-5959094Y2037700D01*
Y2087521D01*
X-6025000D01*
X-6090907D01*
Y2037700D01*
X-6090907Y2029435D01*
X-6101769Y2025000D01*
X-7250000D01*
Y1900000D01*
X-7390411D01*
X-7402200Y1902201D01*
X-7402200Y1912700D01*
Y1952350D01*
X-7487500D01*
X-7572800D01*
X-7572800Y1902201D01*
X-7584588Y1900000D01*
X-7625000D01*
Y2092200D01*
X-7592200D01*
Y2300000D01*
X-5925000D01*
Y2025000D01*
D02*
G37*
%LPC*%
G36*
X-6119700Y2250300D02*
X-6264850D01*
Y2175150D01*
X-6119700D01*
Y2250300D01*
D02*
G37*
G36*
X-6285150D02*
X-6430300D01*
Y2175150D01*
X-6285150D01*
Y2250300D01*
D02*
G37*
G36*
X-6611800Y2242200D02*
X-6689850D01*
Y2164150D01*
X-6611800D01*
Y2242200D01*
D02*
G37*
G36*
X-6710150D02*
X-6788200D01*
Y2164150D01*
X-6710150D01*
Y2242200D01*
D02*
G37*
G36*
X-5959094Y2165906D02*
X-6014850D01*
Y2107820D01*
X-5959094D01*
Y2165906D01*
D02*
G37*
G36*
X-6035150D02*
X-6090907D01*
Y2107820D01*
X-6035150D01*
Y2165906D01*
D02*
G37*
G36*
X-6119700Y2154850D02*
X-6264850D01*
Y2079700D01*
X-6119700D01*
Y2154850D01*
D02*
G37*
G36*
X-6285150D02*
X-6430300D01*
Y2079700D01*
X-6285150D01*
Y2154850D01*
D02*
G37*
G36*
X-6611800Y2143850D02*
X-6689850D01*
Y2065800D01*
X-6611800D01*
Y2143850D01*
D02*
G37*
G36*
X-6710150D02*
X-6788200D01*
Y2065800D01*
X-6710150D01*
Y2143850D01*
D02*
G37*
G36*
X-7402200Y2022800D02*
X-7477350D01*
Y1972650D01*
X-7402200D01*
Y2022800D01*
D02*
G37*
G36*
X-7497650D02*
X-7572800D01*
Y1972650D01*
X-7497650D01*
Y2022800D01*
D02*
G37*
%LPD*%
G36*
X6476519Y2000097D02*
X6481880Y1996706D01*
X6488141Y1993730D01*
X6495301Y1991168D01*
X6503361Y1989021D01*
X6512320Y1987287D01*
X6522180Y1985968D01*
X6544597Y1984571D01*
X6557155Y1984494D01*
X6473504Y1900844D01*
X6473427Y1913402D01*
X6472031Y1935819D01*
X6470711Y1945678D01*
X6468978Y1954638D01*
X6466830Y1962697D01*
X6464268Y1969858D01*
X6461292Y1976118D01*
X6457902Y1981479D01*
X6454098Y1985940D01*
X6472058Y2003901D01*
X6476519Y2000097D01*
D02*
G37*
G36*
X-2123481D02*
X-2118120Y1996706D01*
X-2111859Y1993730D01*
X-2104699Y1991168D01*
X-2096639Y1989021D01*
X-2087680Y1987287D01*
X-2077821Y1985968D01*
X-2055403Y1984571D01*
X-2042845Y1984494D01*
X-2126496Y1900844D01*
X-2126573Y1913402D01*
X-2127969Y1935819D01*
X-2129289Y1945678D01*
X-2131022Y1954638D01*
X-2133170Y1962697D01*
X-2135732Y1969858D01*
X-2138708Y1976118D01*
X-2142098Y1981479D01*
X-2145902Y1985940D01*
X-2127942Y2003901D01*
X-2123481Y2000097D01*
D02*
G37*
G36*
X6494501Y1590249D02*
X6486251Y1599309D01*
X6470498Y1614569D01*
X6462994Y1620768D01*
X6455739Y1626013D01*
X6448731Y1630305D01*
X6441972Y1633643D01*
X6435462Y1636027D01*
X6429200Y1637458D01*
X6423186Y1637935D01*
X6424598Y1663335D01*
X6430243Y1663785D01*
X6436332Y1665136D01*
X6442864Y1667388D01*
X6449839Y1670540D01*
X6457257Y1674594D01*
X6465118Y1679548D01*
X6482168Y1692157D01*
X6491358Y1699813D01*
X6500991Y1708370D01*
X6494501Y1590249D01*
D02*
G37*
G36*
X6201579Y1070966D02*
X6188896Y1056868D01*
X6159198Y1086567D01*
X6159591Y1086691D01*
X6160210Y1087070D01*
X6161055Y1087702D01*
X6163422Y1089731D01*
X6170869Y1096838D01*
X6173295Y1099250D01*
X6201579Y1070966D01*
D02*
G37*
G36*
X6179708Y1034778D02*
X6179538Y1034073D01*
X6179388Y1033028D01*
X6179148Y1029920D01*
X6178908Y1019629D01*
X6178898Y1016208D01*
X6138898D01*
X6137898Y1035144D01*
X6179898D01*
X6179708Y1034778D01*
D02*
G37*
G36*
X-2105500Y1590249D02*
X-2113749Y1599309D01*
X-2129502Y1614569D01*
X-2137006Y1620768D01*
X-2144262Y1626013D01*
X-2151269Y1630305D01*
X-2158028Y1633643D01*
X-2164538Y1636027D01*
X-2170801Y1637458D01*
X-2176815Y1637935D01*
X-2175403Y1663335D01*
X-2169757Y1663785D01*
X-2163668Y1665136D01*
X-2157136Y1667388D01*
X-2150161Y1670540D01*
X-2142743Y1674594D01*
X-2134883Y1679548D01*
X-2117832Y1692157D01*
X-2108642Y1699813D01*
X-2099009Y1708370D01*
X-2105500Y1590249D01*
D02*
G37*
G36*
X-2399819Y1081897D02*
X-2412502Y1067800D01*
X-2442200Y1097498D01*
X-2441807Y1097623D01*
X-2441188Y1098001D01*
X-2440343Y1098634D01*
X-2437976Y1100662D01*
X-2430529Y1107769D01*
X-2428103Y1110181D01*
X-2399819Y1081897D01*
D02*
G37*
G36*
X-2421690Y1045710D02*
X-2421860Y1045005D01*
X-2422010Y1043960D01*
X-2422250Y1040852D01*
X-2422490Y1030561D01*
X-2422500Y1027139D01*
X-2462500D01*
X-2463500Y1046076D01*
X-2421500D01*
X-2421690Y1045710D01*
D02*
G37*
G36*
X-6655801Y1593885D02*
X-6658781Y1589885D01*
X-6661411Y1585508D01*
X-6663689Y1580756D01*
X-6665618Y1575628D01*
X-6667195Y1570123D01*
X-6668423Y1564243D01*
X-6669299Y1557987D01*
X-6669825Y1551355D01*
X-6670000Y1544347D01*
X-6730000D01*
X-6730176Y1551355D01*
X-6730702Y1557987D01*
X-6731578Y1564243D01*
X-6732805Y1570123D01*
X-6734383Y1575628D01*
X-6736311Y1580756D01*
X-6738590Y1585508D01*
X-6741219Y1589885D01*
X-6744200Y1593885D01*
X-6747530Y1597510D01*
X-6652470D01*
X-6655801Y1593885D01*
D02*
G37*
G36*
X3411075Y2615487D02*
X3412431Y2594535D01*
X3413709Y2585296D01*
X3415387Y2576883D01*
X3417465Y2569294D01*
X3419942Y2562530D01*
X3422819Y2556591D01*
X3426096Y2551477D01*
X3429773Y2547188D01*
X3411812Y2529228D01*
X3407523Y2532904D01*
X3402409Y2536181D01*
X3396470Y2539058D01*
X3389706Y2541536D01*
X3382118Y2543613D01*
X3373704Y2545291D01*
X3364465Y2546569D01*
X3343514Y2547926D01*
X3331800Y2548004D01*
X3410996Y2627200D01*
X3411075Y2615487D01*
D02*
G37*
G36*
X5728074Y2317485D02*
X5729431Y2296533D01*
X5730709Y2287294D01*
X5732387Y2278881D01*
X5734464Y2271292D01*
X5736942Y2264528D01*
X5739819Y2258589D01*
X5743096Y2253475D01*
X5746772Y2249186D01*
X5728812Y2231226D01*
X5724523Y2234903D01*
X5719409Y2238179D01*
X5713470Y2241056D01*
X5706706Y2243534D01*
X5699117Y2245611D01*
X5690704Y2247289D01*
X5681465Y2248567D01*
X5660513Y2249924D01*
X5648800Y2250002D01*
X5727996Y2329198D01*
X5728074Y2317485D01*
D02*
G37*
G36*
X-2823924Y534000D02*
X-2825626Y535577D01*
X-2827478Y536988D01*
X-2829479Y538233D01*
X-2831630Y539312D01*
X-2833931Y540225D01*
X-2836381Y540972D01*
X-2838981Y541553D01*
X-2841731Y541968D01*
X-2844630Y542217D01*
X-2847679Y542300D01*
Y567700D01*
X-2844630Y567783D01*
X-2841731Y568032D01*
X-2838981Y568447D01*
X-2836381Y569028D01*
X-2833931Y569775D01*
X-2831630Y570688D01*
X-2829479Y571767D01*
X-2827478Y573012D01*
X-2825626Y574423D01*
X-2823924Y576000D01*
Y534000D01*
D02*
G37*
G36*
X-2639000Y520089D02*
X-2681000D01*
X-2680810Y520455D01*
X-2680640Y521160D01*
X-2680490Y522205D01*
X-2680250Y525313D01*
X-2680010Y535604D01*
X-2680000Y539025D01*
X-2640000D01*
X-2639000Y520089D01*
D02*
G37*
G36*
X-2639190Y476875D02*
X-2639360Y476169D01*
X-2639510Y475125D01*
X-2639750Y472016D01*
X-2639990Y461726D01*
X-2640000Y458304D01*
X-2680000D01*
X-2681000Y477241D01*
X-2639000D01*
X-2639190Y476875D01*
D02*
G37*
G36*
X6642573Y2140595D02*
X6643969Y2118178D01*
X6645289Y2108319D01*
X6647022Y2099359D01*
X6649170Y2091300D01*
X6651732Y2084139D01*
X6654708Y2077879D01*
X6658098Y2072518D01*
X6661902Y2068057D01*
X6643942Y2050096D01*
X6639481Y2053900D01*
X6634120Y2057291D01*
X6627859Y2060267D01*
X6620699Y2062828D01*
X6612639Y2064976D01*
X6603680Y2066710D01*
X6593820Y2068029D01*
X6571403Y2069426D01*
X6558845Y2069503D01*
X6642496Y2153153D01*
X6642573Y2140595D01*
D02*
G37*
G36*
X7472055Y730475D02*
X7468001Y731854D01*
X7463998Y732712D01*
X7460045Y733049D01*
X7456144Y732865D01*
X7452293Y732160D01*
X7448494Y730935D01*
X7444745Y729188D01*
X7441047Y726919D01*
X7437400Y724130D01*
X7433804Y720820D01*
X7415844Y738781D01*
X7419320Y742533D01*
X7422298Y746339D01*
X7424776Y750198D01*
X7426756Y754110D01*
X7428237Y758075D01*
X7429220Y762094D01*
X7429703Y766166D01*
X7429688Y770291D01*
X7429173Y774470D01*
X7428160Y778702D01*
X7472055Y730475D01*
D02*
G37*
G36*
X1346773Y784531D02*
X1332917Y768756D01*
X1327288Y761320D01*
X1322525Y754184D01*
X1318628Y747349D01*
X1315597Y740814D01*
X1313432Y734580D01*
X1312133Y728647D01*
X1311700Y723015D01*
X1286300D01*
X1285867Y728647D01*
X1284568Y734580D01*
X1282403Y740814D01*
X1279372Y747349D01*
X1275475Y754184D01*
X1270712Y761320D01*
X1265083Y768756D01*
X1251227Y784531D01*
X1243000Y792869D01*
X1355000D01*
X1346773Y784531D01*
D02*
G37*
D10*
X7075000Y729800D02*
D03*
Y870199D02*
D03*
X7250000D02*
D03*
Y729800D02*
D03*
X6950000Y1179801D02*
D03*
Y1320200D02*
D03*
X-1650000Y1179801D02*
D03*
Y1320200D02*
D03*
X-1375000Y709859D02*
D03*
Y850258D02*
D03*
X6775000Y1320200D02*
D03*
Y1179801D02*
D03*
X-1825000Y1320200D02*
D03*
Y1179801D02*
D03*
X-1550000Y850258D02*
D03*
Y709859D02*
D03*
X-2000000Y1320200D02*
D03*
Y1179801D02*
D03*
X-2650000Y1070200D02*
D03*
Y929801D02*
D03*
X6600000Y1320200D02*
D03*
Y1179801D02*
D03*
X5950000Y1070200D02*
D03*
Y929801D02*
D03*
X3500000Y3170199D02*
D03*
Y3029800D02*
D03*
X-5100000Y3170199D02*
D03*
Y3029800D02*
D03*
X3350000Y3170199D02*
D03*
Y3029800D02*
D03*
X-5250000Y3170199D02*
D03*
Y3029800D02*
D03*
D11*
X-2872671Y375000D02*
D03*
X-2727329D02*
D03*
X-2177329Y1175000D02*
D03*
X-2322671D02*
D03*
X5727329Y375000D02*
D03*
X5872671D02*
D03*
X6422671Y1175000D02*
D03*
X6277329D02*
D03*
D12*
X8050000Y199999D02*
D03*
X-8050000Y3249999D02*
D03*
D14*
X7074800Y2430000D02*
X7104800Y2400000D01*
X6925000Y2425000D02*
X6930000Y2430000D01*
X7074800D01*
X-1179801Y2575000D02*
X-1020200D01*
X1560000Y240000D02*
X7202500D01*
X1299000Y501000D02*
X1560000Y240000D01*
X3641701Y2317300D02*
X4157700D01*
X5325000Y1150000D02*
X5712500D01*
X4157700Y2317300D02*
X5325000Y1150000D01*
X3997000Y2470000D02*
X4260000D01*
X5162002Y1567998D02*
X5648000D01*
X4260000Y2470000D02*
X5162002Y1567998D01*
X3839000Y2628000D02*
X3997000Y2470000D01*
X5712500Y1150000D02*
X5805000Y1242500D01*
Y2172998D01*
X5590000Y2972500D02*
X5700000D01*
X5895000Y2777500D01*
Y2054999D02*
Y2777500D01*
X5467500Y2850000D02*
X5590000Y2972500D01*
X3220200Y2850000D02*
X5467500D01*
X5469498Y2762500D02*
X5648000Y2583998D01*
X3719500Y2762500D02*
X5469498D01*
X3585000Y2628000D02*
X3719500Y2762500D01*
X3331000Y2628000D02*
X3641701Y2317300D01*
X5648000Y2329998D02*
X5805000Y2172998D01*
X-1305000Y247500D02*
X-465000Y1087500D01*
X1752500D01*
X-2955000Y247500D02*
X-1305000D01*
X-502500Y1175000D02*
X1860000D01*
X-677500Y1000000D02*
X-502500Y1175000D01*
X-1563827Y1000000D02*
X-677500D01*
X-2990000Y160000D02*
X-1260000D01*
X-420000Y1000000D01*
X1312412D01*
X1657000D01*
X1807000Y850000D01*
X-3350000Y642500D02*
X-2955000Y247500D01*
X-3437500Y607500D02*
Y1615000D01*
Y607500D02*
X-2990000Y160000D01*
X-3672500Y1850000D02*
X-3437500Y1615000D01*
X-3622500Y2667500D02*
X-3350000Y2395000D01*
Y642500D02*
Y2395000D01*
X-2042000Y2153998D02*
X-1872500Y1984498D01*
Y1545000D02*
Y1984498D01*
X-2000000Y1417500D02*
X-1872500Y1545000D01*
X52500Y2010000D02*
X537000Y2494500D01*
X-1475000Y2102500D02*
X-1382500Y2010000D01*
X52500D01*
X-1475000Y2102500D02*
Y2399999D01*
X2070501Y1602500D02*
X4082500D01*
X1045000Y2628000D02*
X1045000D01*
X2070501Y1602500D01*
X2047500Y1447500D02*
X2479500D01*
X917500Y2577500D02*
Y2862500D01*
Y2577500D02*
X2047500Y1447500D01*
X7577867Y3402867D02*
Y3477865D01*
X7570199Y3395200D02*
X7577867Y3402867D01*
Y3477865D02*
X7750000Y3649999D01*
X6950000Y1179801D02*
Y1182101D01*
X6980367Y1212468D01*
X7009968D01*
X7102500Y1305000D01*
X7580000D01*
X7665000Y702500D02*
Y1220000D01*
X7580000Y1305000D02*
X7665000Y1220000D01*
X7202500Y240000D02*
X7665000Y702500D01*
X-4887700Y2667500D02*
X-3622500D01*
X-5217343Y2997143D02*
X-4887700Y2667500D01*
X-3879800Y1850000D02*
X-3672500D01*
X339659Y1262500D02*
X2027500D01*
X2315000Y850000D02*
Y975000D01*
X2027500Y1262500D02*
X2315000Y975000D01*
X2061000Y850000D02*
Y974000D01*
X1860000Y1175000D02*
X2061000Y974000D01*
X1935000Y795000D02*
Y905000D01*
X1752500Y1087500D02*
X1935000Y905000D01*
Y795000D02*
X2007500Y722500D01*
X2441500D02*
X2569000Y850000D01*
X2007500Y722500D02*
X2441500D01*
X-5219643Y2997143D02*
X-5217343D01*
X-5250000Y3027500D02*
X-5219643Y2997143D01*
X-5250000Y3027500D02*
Y3029800D01*
X-1650000Y1086173D02*
X-1563827Y1000000D01*
X-72671Y1674829D02*
X339659Y1262500D01*
X-2940000Y650000D02*
X-2932630Y657370D01*
X-2858672D01*
X-2829806Y686236D01*
X5573817Y509545D02*
X5577552Y513280D01*
X5596360D01*
X5175455Y509545D02*
X5573817D01*
X4082500Y1602500D02*
X5175455Y509545D01*
X5620240Y540240D02*
X5635000Y555000D01*
X5660000D01*
X5620240Y537160D02*
Y540240D01*
X5596360Y513280D02*
X5620240Y537160D01*
X5895000Y2054999D02*
X6050000Y1899998D01*
X2479500Y1447500D02*
X3077000Y850000D01*
X1084800Y3029800D02*
X3350000D01*
X917500Y2862500D02*
X1084800Y3029800D01*
X4440000Y1787500D02*
X5577500Y650000D01*
X1299000Y2628000D02*
X2139500Y1787500D01*
X4440000D01*
X5577500Y650000D02*
X5660000D01*
X7972500Y2400000D02*
X8050000D01*
X7870199D02*
X7972500D01*
X1299000Y501000D02*
Y850000D01*
X-2940000Y555000D02*
X-2802500D01*
X-3879800Y1850000D02*
Y2025000D01*
X3077000Y2628000D02*
Y2847200D01*
X3079801Y2850000D01*
X412500Y2710000D02*
X475000Y2772500D01*
X646500D02*
X791000Y2628000D01*
X475000Y2772500D02*
X646500D01*
X412500Y2557500D02*
Y2710000D01*
X280000Y2425000D02*
X412500Y2557500D01*
X-525000Y2425000D02*
X280000D01*
X537000Y2494500D02*
Y2628000D01*
X-1654800Y2425000D02*
X-1629799Y2399999D01*
X-1475000D01*
X-704800Y2400000D02*
X-550000D01*
X-525000Y2425000D01*
X-585000Y3400000D02*
X29000Y2786000D01*
Y2628800D02*
Y2786000D01*
X-1022500Y3400000D02*
X-585000D01*
X-1022572Y3402428D02*
Y3477426D01*
X-1029801Y3395200D02*
X-1022572Y3402428D01*
Y3477426D02*
X-850000Y3649999D01*
X-1029801Y3225000D02*
Y3395200D01*
X-1650000Y1086173D02*
Y1177500D01*
X-4562500Y1900000D02*
X-4537500D01*
X-4512740Y1875240D01*
Y1867855D02*
Y1875240D01*
Y1867855D02*
X-4494885Y1850000D01*
X-4020199D01*
X-5225000Y1900000D02*
X-4575001D01*
X5153002Y1821998D02*
X5648000D01*
X4347000Y2628000D02*
X5153002Y1821998D01*
Y2075998D02*
X5648000D01*
X4601000Y2628000D02*
X5153002Y2075998D01*
X8050000Y2400000D02*
X8075000Y2425000D01*
X-850000Y2199998D02*
Y2395199D01*
X-845199Y2400000D01*
X-854800Y2409601D02*
Y2575000D01*
Y2409601D02*
X-845199Y2400000D01*
X-1334601Y2399999D02*
Y2560599D01*
X-1320200Y2575000D01*
X-1350000Y2199998D02*
Y2384599D01*
X-1334601Y2399999D01*
X-1170200Y2584601D02*
Y3225000D01*
X7570199D02*
Y3395200D01*
X7429800Y2584601D02*
Y3225000D01*
X7250000Y2199998D02*
Y2395199D01*
X7245199Y2400000D02*
X7250000Y2395199D01*
X7254801Y2409601D02*
Y2575000D01*
X7245199Y2400000D02*
X7254801Y2409601D01*
X7729800Y2400000D02*
Y2565399D01*
X7720199Y2575000D02*
X7729800Y2565399D01*
X7750000Y2199998D02*
Y2379800D01*
X7729800Y2400000D02*
X7750000Y2379800D01*
X-2217500Y2075499D02*
X-2042000Y1899998D01*
X-2217500Y2075499D02*
Y2675000D01*
X-2280000Y2737500D02*
X-2217500Y2675000D01*
X-2280000Y2737500D02*
Y2875000D01*
X-2245000Y2910000D02*
X-2152500D01*
X-2150000Y2912500D01*
X-2280000Y2875000D02*
X-2245000Y2910000D01*
X6320000Y2875000D02*
X6355000Y2910000D01*
X6447500D02*
X6450000Y2912500D01*
X6355000Y2910000D02*
X6447500D01*
X6320000Y2737500D02*
Y2875000D01*
Y2737500D02*
X6382500Y2675000D01*
Y2075499D02*
Y2675000D01*
Y2075499D02*
X6558000Y1899998D01*
X6553364Y1650635D02*
X6558000Y1645998D01*
X5950000Y1212500D02*
X6388135Y1650635D01*
X6553364D01*
X5950000Y1070200D02*
Y1212500D01*
X-2000000Y1320200D02*
X-1825000D01*
X-2000000D02*
Y1417500D01*
X6727500Y1545000D02*
Y1984499D01*
X6600000Y1320200D02*
Y1417500D01*
X6727500Y1545000D01*
X6558000Y2153998D02*
X6727500Y1984499D01*
X6775000Y1179801D02*
X6950000D01*
X-1825000D02*
X-1650000D01*
X-2000000Y1004760D02*
Y1179801D01*
X-2007260Y997500D02*
X-2000000Y1004760D01*
X-2027500Y997500D02*
X-2007260D01*
X-2027500Y932500D02*
Y997500D01*
Y867500D02*
X-1757901D01*
X-1750000Y859599D01*
Y857607D02*
Y859599D01*
X-1742651Y850258D02*
X-1550000D01*
X-1750000Y857607D02*
X-1742651Y850258D01*
X-1550000Y709859D02*
X-1375000D01*
X-1190139D01*
X-1100000Y799998D01*
X-2602385Y802500D02*
X-2472500D01*
X-2620240Y784645D02*
X-2602385Y802500D01*
X-2620240Y759760D02*
Y784645D01*
X-2635000Y745000D02*
X-2620240Y759760D01*
X-2660000Y745000D02*
X-2635000D01*
X-2650000Y1070200D02*
Y1212500D01*
X-2211865Y1650635D02*
X-2046636D01*
X-2650000Y1212500D02*
X-2211865Y1650635D01*
X-2046636D02*
X-2042000Y1645998D01*
X-2647301Y932500D02*
X-2472500D01*
X-2650000Y929801D02*
X-2647301Y932500D01*
X-2472500Y867500D02*
Y932500D01*
X7487500Y2575000D02*
X7579800D01*
X7395200D02*
X7487500D01*
X6600000Y1320200D02*
X6775000D01*
X5997615Y802500D02*
X6127500D01*
X5979760Y784645D02*
X5997615Y802500D01*
X5979760Y759760D02*
Y784645D01*
X5965000Y745000D02*
X5979760Y759760D01*
X5940000Y745000D02*
X5965000D01*
X6127500Y867500D02*
Y932500D01*
X5950000Y929801D02*
X6124801D01*
X6127500Y932500D01*
X6572500D02*
Y997500D01*
X6600000Y1004760D02*
Y1179801D01*
X6592740Y997500D02*
X6600000Y1004760D01*
X6572500Y997500D02*
X6592740D01*
X6572500Y867500D02*
X6879649D01*
X6882349Y870199D01*
X7075000D01*
Y729800D02*
X7250000D01*
X7495022Y799998D02*
X7500000D01*
X7424824Y729800D02*
X7495022Y799998D01*
X7250000Y729800D02*
X7424824D01*
X7386960Y2566761D02*
X7395200Y2575000D01*
X7570199Y2584601D02*
X7579800Y2575000D01*
X5800000Y605000D02*
X5850000Y555000D01*
X5745000Y745000D02*
X5800000Y690000D01*
Y605000D02*
Y690000D01*
X5660000Y745000D02*
X5745000D01*
X5850000Y555000D02*
X5940000D01*
X-6046937Y1550739D02*
Y1606937D01*
X-6160048Y1480000D02*
X-6113393D01*
X-6100026Y1493367D02*
Y1497650D01*
X-6113393Y1480000D02*
X-6100026Y1493367D01*
Y1497650D02*
X-6046937Y1550739D01*
X-6110000Y1670000D02*
X-6046937Y1606937D01*
X-6160048Y1670000D02*
X-6110000D01*
X-5231801Y3152000D02*
X-4545000D01*
X-5250000Y3170199D02*
X-5231801Y3152000D01*
X3368199D02*
X4055000D01*
X3350000Y3170199D02*
X3368199Y3152000D01*
X-4685000Y3519800D02*
Y3625000D01*
X-4717043Y3487757D02*
X-4685000Y3519800D01*
X-4717043Y3485457D02*
Y3487757D01*
X-4752500Y3450000D02*
X-4717043Y3485457D01*
X-4754800Y3450000D02*
X-4752500D01*
X-4545199Y3625000D02*
X-4520199Y3600000D01*
X-4685000Y3625000D02*
X-4545199D01*
X-4545000Y3406000D02*
X-4540049D01*
X-4520199Y3425850D01*
Y3600000D01*
X-4290000Y3230000D02*
X-4212000Y3152000D01*
X-4050000D01*
Y3025000D02*
Y3152000D01*
X-4290000Y3230000D02*
Y3510200D01*
X-4347133Y3567333D02*
X-4290000Y3510200D01*
X-4347133Y3567333D02*
Y3569633D01*
X-4377500Y3600000D02*
X-4347133Y3569633D01*
X-4379800Y3600000D02*
X-4377500D01*
X4220200D02*
X4222500D01*
X4252867Y3569633D01*
Y3567333D02*
Y3569633D01*
Y3567333D02*
X4310000Y3510200D01*
Y3230000D02*
Y3510200D01*
X4550000Y3025000D02*
Y3152000D01*
X4388000D02*
X4550000D01*
X4310000Y3230000D02*
X4388000Y3152000D01*
X4079801Y3425850D02*
Y3600000D01*
X4059951Y3406000D02*
X4079801Y3425850D01*
X4055000Y3406000D02*
X4059951D01*
X3915000Y3625000D02*
X4054800D01*
X4079801Y3600000D01*
X3845200Y3450000D02*
X3847500D01*
X3882957Y3485457D01*
Y3487757D01*
X3915000Y3519800D01*
Y3625000D01*
D15*
X-225000Y2628000D02*
D03*
X4601000Y850000D02*
D03*
D16*
X29000Y2628000D02*
D03*
X283000D02*
D03*
X537000D02*
D03*
X791000D02*
D03*
X1045000D02*
D03*
X1299000D02*
D03*
X1553000D02*
D03*
X1807000D02*
D03*
X2061000D02*
D03*
X2315000D02*
D03*
X2569000D02*
D03*
X2823000D02*
D03*
X3077000D02*
D03*
X3331000D02*
D03*
X3585000D02*
D03*
X3839000D02*
D03*
X4093000D02*
D03*
X4347000D02*
D03*
X4601000D02*
D03*
X-2952000Y1313998D02*
D03*
Y1567998D02*
D03*
Y1821998D02*
D03*
Y2075998D02*
D03*
Y2329998D02*
D03*
Y2583998D02*
D03*
Y2837998D02*
D03*
X-225000Y850000D02*
D03*
X29000D02*
D03*
X283000D02*
D03*
X537000D02*
D03*
X791000D02*
D03*
X1045000D02*
D03*
X1299000D02*
D03*
X1553000D02*
D03*
X1807000D02*
D03*
X2061000D02*
D03*
X2315000D02*
D03*
X2569000D02*
D03*
X2823000D02*
D03*
X3077000D02*
D03*
X3331000D02*
D03*
X3585000D02*
D03*
X3839000D02*
D03*
X4093000D02*
D03*
X4347000D02*
D03*
X5648000Y2837998D02*
D03*
Y2583998D02*
D03*
Y2329998D02*
D03*
Y2075998D02*
D03*
Y1821998D02*
D03*
Y1567998D02*
D03*
Y1313998D02*
D03*
D17*
X7250000Y3649999D02*
D03*
X7750000D02*
D03*
X7500000Y2199998D02*
D03*
X7750000D02*
D03*
X-850000D02*
D03*
X-1100000D02*
D03*
X-850000Y3649999D02*
D03*
X-1350000D02*
D03*
D18*
X7250000Y2199998D02*
D03*
X-1350000D02*
D03*
D19*
X6930000Y2949998D02*
D03*
X8070000D02*
D03*
X-530000D02*
D03*
X-1670000D02*
D03*
D20*
X6558000Y1899998D02*
D03*
Y2153998D02*
D03*
X6050000Y1645998D02*
D03*
Y1899998D02*
D03*
Y2153998D02*
D03*
X6558000Y1645998D02*
D03*
X-2550000D02*
D03*
Y1899998D02*
D03*
Y2153998D02*
D03*
X-2042000Y1645998D02*
D03*
Y1899998D02*
D03*
Y2153998D02*
D03*
D21*
X-3642000Y1015998D02*
D03*
Y3135998D02*
D03*
X4958000D02*
D03*
Y1015998D02*
D03*
D22*
X-6700000Y1646000D02*
D03*
Y1900000D02*
D03*
D23*
Y2154000D02*
D03*
D24*
X-1100000Y799998D02*
D03*
X7500000D02*
D03*
D25*
X-1444170Y1144168D02*
D03*
X-755830D02*
D03*
X-1444170Y455828D02*
D03*
X-755830D02*
D03*
X7155830Y1144168D02*
D03*
X7844170D02*
D03*
X7155830Y455828D02*
D03*
X7844170D02*
D03*
D26*
X-8600000Y3449998D02*
D03*
Y349999D02*
D03*
X0Y3449998D02*
D03*
X8600000Y349999D02*
D03*
Y3449998D02*
D03*
D27*
X-0Y349999D02*
D03*
D28*
X7017500Y2430000D02*
D03*
X-1087500Y2575000D02*
D03*
X-2442500Y1067500D02*
D03*
X-72671Y1674829D02*
D03*
X-2828570Y685000D02*
D03*
X5573817Y509545D02*
D03*
X1181288Y2207740D02*
D03*
X7972500Y2400000D02*
D03*
X5577500Y650000D02*
D03*
X-2660000Y498665D02*
D03*
X-2802500Y555000D02*
D03*
X7487500Y2575000D02*
D03*
X5940000Y498665D02*
D03*
X6158898Y1056568D02*
D03*
X-5570000Y1500000D02*
D03*
X-5630000D02*
D03*
X-6267524Y1480000D02*
D03*
X-6190000Y1387500D02*
D03*
X-4665000Y3279000D02*
D03*
X3935000D02*
D03*
D29*
X-4895199Y3367500D02*
D03*
X3704801D02*
D03*
X-7525000Y2100000D02*
D03*
X-7425000D02*
D03*
X-7325000D02*
D03*
Y1975000D02*
D03*
D31*
X-5939952Y1480000D02*
D03*
Y1670000D02*
D03*
X-6160048D02*
D03*
Y1575000D02*
D03*
D32*
Y1480000D02*
D03*
D33*
X-6190000Y1325000D02*
D03*
X-6410000D02*
D03*
D34*
X-4915000Y3625000D02*
D03*
X-4685000D02*
D03*
X3685000Y3625000D02*
D03*
X3915000D02*
D03*
D35*
X-4050000Y3025000D02*
D03*
Y3152000D02*
D03*
Y3279000D02*
D03*
Y3406000D02*
D03*
X-4545000D02*
D03*
Y3279000D02*
D03*
Y3152000D02*
D03*
Y3025000D02*
D03*
X4550000D02*
D03*
Y3152000D02*
D03*
Y3279000D02*
D03*
Y3406000D02*
D03*
X4055000D02*
D03*
Y3279000D02*
D03*
Y3152000D02*
D03*
Y3025000D02*
D03*
D36*
X-2425000Y2532500D02*
D03*
Y3417500D02*
D03*
X-7762500Y2217500D02*
D03*
Y1582500D02*
D03*
X6175000Y3417500D02*
D03*
Y2532500D02*
D03*
X-4287500Y1645000D02*
D03*
Y2280000D02*
D03*
X-4950000Y2280000D02*
D03*
Y1520000D02*
D03*
D37*
X-2150000Y3162500D02*
D03*
Y3037500D02*
D03*
Y2912500D02*
D03*
Y2787500D02*
D03*
X-7487500Y1962500D02*
D03*
Y1837500D02*
D03*
X6450000Y2787500D02*
D03*
Y2912500D02*
D03*
Y3037500D02*
D03*
Y3162500D02*
D03*
X-4562500Y1900000D02*
D03*
Y2025000D02*
D03*
X-5225000Y1775000D02*
D03*
Y2025000D02*
D03*
Y1900000D02*
D03*
D38*
X7425000Y3400000D02*
D03*
X7575000D02*
D03*
X-1025000D02*
D03*
X-1175000D02*
D03*
D39*
X6875000Y672452D02*
D03*
X-1750000Y652511D02*
D03*
D40*
X6875000Y877548D02*
D03*
X-1750000Y857607D02*
D03*
D41*
X-3879800Y2025000D02*
D03*
X-4020199D02*
D03*
Y1850000D02*
D03*
X-3879800D02*
D03*
X7729800Y2400000D02*
D03*
X7870199D02*
D03*
X7104800D02*
D03*
X7245199D02*
D03*
X7579800Y2575000D02*
D03*
X7720199D02*
D03*
X7395200D02*
D03*
X7254801D02*
D03*
X7429800Y3225000D02*
D03*
X7570199D02*
D03*
X-845199Y2400000D02*
D03*
X-704800D02*
D03*
X-1475000Y2399999D02*
D03*
X-1334601D02*
D03*
X-995199Y2575000D02*
D03*
X-854800D02*
D03*
X-1179801D02*
D03*
X-1320200D02*
D03*
X-1170200Y3225000D02*
D03*
X-1029801D02*
D03*
X3079801Y2850000D02*
D03*
X3220200D02*
D03*
X4079801Y3600000D02*
D03*
X4220200D02*
D03*
X-4520199D02*
D03*
X-4379800D02*
D03*
X3704801Y3450000D02*
D03*
X3845200D02*
D03*
X-4895199D02*
D03*
X-4754800D02*
D03*
D42*
X-2472500Y997500D02*
D03*
X-2027500D02*
D03*
Y932500D02*
D03*
Y867500D02*
D03*
Y802500D02*
D03*
X-2472500Y932500D02*
D03*
Y867500D02*
D03*
Y802500D02*
D03*
X6127500Y997500D02*
D03*
X6572500D02*
D03*
Y932500D02*
D03*
Y867500D02*
D03*
Y802500D02*
D03*
X6127500Y932500D02*
D03*
Y867500D02*
D03*
Y802500D02*
D03*
D43*
X-2940000Y745000D02*
D03*
Y650000D02*
D03*
Y555000D02*
D03*
X-2660000D02*
D03*
Y650000D02*
D03*
Y745000D02*
D03*
X5660000D02*
D03*
Y650000D02*
D03*
Y555000D02*
D03*
X5940000D02*
D03*
Y650000D02*
D03*
Y745000D02*
D03*
D44*
X3775000Y3265000D02*
D03*
Y2985000D02*
D03*
X-4825000Y3265000D02*
D03*
Y2985000D02*
D03*
X-6275000Y2165000D02*
D03*
Y1885000D02*
D03*
D45*
X-5725000Y1644671D02*
D03*
Y1499329D02*
D03*
X-6375000Y1644671D02*
D03*
Y1499329D02*
D03*
X-6025000Y1952329D02*
D03*
Y2097671D02*
D03*
D46*
X8075000Y2425000D02*
D03*
Y2575000D02*
D03*
X6925000Y2425000D02*
D03*
Y2575000D02*
D03*
X-525000Y2425000D02*
D03*
Y2575000D02*
D03*
X-1654800Y2425000D02*
D03*
Y2575000D02*
D03*
D47*
X4684000Y3406000D02*
X5024000D01*
X-5630000Y1500000D02*
X-5340000D01*
X-5724329D02*
X-5630000D01*
X-5725000Y1499329D02*
X-5724329Y1500000D01*
X-5340000D02*
X-5225000Y1615000D01*
Y1775000D01*
X-3332500Y3162500D02*
X-2150000D01*
X-3576000Y3406000D02*
X-3332500Y3162500D01*
X-3876000Y3406000D02*
X-3576000D01*
X5024000D02*
X5267500Y3162500D01*
X6450000D01*
X-4895199Y3265000D02*
Y3450000D01*
Y3265000D02*
Y3450000D01*
X3704801Y3265000D02*
Y3450000D01*
D48*
X4550000Y3406000D02*
X4684000D01*
X-6190000Y1325000D02*
Y1387500D01*
X-6700000Y1520000D02*
Y1646000D01*
Y1520000D02*
X-6505000Y1325000D01*
X-6410000D01*
X-4050000Y3279000D02*
Y3406000D01*
X-3876000D01*
X4550000Y3279000D02*
Y3406000D01*
X-4825000Y3265000D02*
Y3279000D01*
X-4545000D01*
X-4825000D02*
X-4545000D01*
X-4825000Y3265000D02*
Y3279000D01*
X3775000D02*
X4055000D01*
X3775000Y3265000D02*
Y3279000D01*
D49*
X-2442500Y1000000D02*
Y1067500D01*
X-2472500Y997500D02*
X-2445000D01*
X-2442500Y1000000D01*
X-2348277Y1149393D02*
X-2322671Y1175000D01*
X-2360607Y1149393D02*
X-2348277D01*
X-2442500Y1067500D02*
X-2360607Y1149393D01*
X-2660000Y498665D02*
Y555000D01*
Y442329D02*
Y498665D01*
X5940000D02*
Y555000D01*
Y442329D02*
Y498665D01*
X5900607Y402936D02*
X5940000Y442329D01*
X5900607Y400607D02*
Y402936D01*
X5875000Y375000D02*
X5900607Y400607D01*
X5872671Y375000D02*
X5875000D01*
X6127500Y997500D02*
X6156398D01*
X6158898Y1000000D01*
Y1056568D01*
X6249393Y1147064D01*
Y1149393D01*
X6275000Y1175000D01*
X6277329D01*
X-2727329Y375000D02*
X-2725000D01*
X-2699393Y400607D01*
Y402936D01*
X-2660000Y442329D01*
D50*
X-5939952Y1480000D02*
X-5825000D01*
X-5825000Y1480000D01*
X-5725000Y1497007D02*
Y1499329D01*
X-5825000Y1480000D02*
X-5742007D01*
X-5725000Y1497007D01*
X-6375000Y1480000D02*
X-6267524D01*
X-6160048D01*
D51*
X-6375000D02*
Y1502329D01*
D52*
X-4915000Y3450000D02*
X-4895199D01*
Y3265000D02*
X-4825000D01*
X-4915000Y3450000D02*
Y3625000D01*
Y3450000D02*
Y3625000D01*
X-4895199Y3265000D02*
X-4825000D01*
X-4915000Y3450000D02*
X-4895199D01*
X3685000D02*
Y3625000D01*
X3704801Y3265000D02*
X3775000D01*
X3685000Y3450000D02*
X3704801D01*
%TF.MD5,3cd75d8074df9e7f1f53d0676f094788*%
M02*
