%TF.GenerationSoftware,Altium Limited,Altium Designer,23.7.1 (13)*%
G04 Layer_Color=255*
%FSLAX45Y45*%
%MOMM*%
%TF.SameCoordinates,F0F8C17F-0DA8-4E41-987A-5915CA82B15D*%
%TF.FilePolarity,Positive*%
%TF.FileFunction,Pads,Top*%
%TF.Part,Single*%
G01*
G75*
%TA.AperFunction,SMDPad,CuDef*%
%ADD10R,0.91213X0.95814*%
%ADD11R,0.95872X0.91213*%
%TA.AperFunction,FiducialPad,Global*%
%ADD12C,1.00000*%
%TA.AperFunction,SMDPad,CuDef*%
%ADD13R,1.55000X1.30000*%
%TA.AperFunction,ComponentPad*%
%ADD15R,1.60000X1.60000*%
%ADD16C,1.60000*%
%ADD17C,1.55000*%
%ADD18R,1.55000X1.55000*%
G04:AMPARAMS|DCode=19|XSize=2mm|YSize=4.1mm|CornerRadius=1mm|HoleSize=0mm|Usage=FLASHONLY|Rotation=0.000|XOffset=0mm|YOffset=0mm|HoleType=Round|Shape=RoundedRectangle|*
%AMROUNDEDRECTD19*
21,1,2.00000,2.10000,0,0,0.0*
21,1,0.00000,4.10000,0,0,0.0*
1,1,2.00000,0.00000,-1.05000*
1,1,2.00000,0.00000,-1.05000*
1,1,2.00000,0.00000,1.05000*
1,1,2.00000,0.00000,1.05000*
%
%ADD19ROUNDEDRECTD19*%
%ADD20C,1.69000*%
%ADD21C,2.50000*%
%ADD22C,1.35800*%
%ADD23R,1.35800X1.35800*%
%ADD24C,1.49860*%
%ADD25C,2.00660*%
%TA.AperFunction,WasherPad*%
%ADD26C,6.00000*%
%ADD27C,5.90000*%
D10*
X1300000Y2345200D02*
D03*
Y2204801D02*
D03*
X1050000Y2345200D02*
D03*
Y2204801D02*
D03*
X1800000D02*
D03*
Y2345200D02*
D03*
D11*
X72671Y1450000D02*
D03*
X-72671D02*
D03*
D12*
X8050000Y199999D02*
D03*
X-8050000Y3249999D02*
D03*
D13*
X-397500Y2125000D02*
D03*
X397500D02*
D03*
X-397500Y1675000D02*
D03*
X397500D02*
D03*
D15*
X-225000Y2628000D02*
D03*
X4601000Y850000D02*
D03*
D16*
X29000Y2628000D02*
D03*
X283000D02*
D03*
X537000D02*
D03*
X791000D02*
D03*
X1045000D02*
D03*
X1299000D02*
D03*
X1553000D02*
D03*
X1807000D02*
D03*
X2061000D02*
D03*
X2315000D02*
D03*
X2569000D02*
D03*
X2823000D02*
D03*
X3077000D02*
D03*
X3331000D02*
D03*
X3585000D02*
D03*
X3839000D02*
D03*
X4093000D02*
D03*
X4347000D02*
D03*
X4601000D02*
D03*
X-2952000Y1313998D02*
D03*
Y1567998D02*
D03*
Y1821998D02*
D03*
Y2075998D02*
D03*
Y2329998D02*
D03*
Y2583998D02*
D03*
Y2837998D02*
D03*
X-225000Y850000D02*
D03*
X29000D02*
D03*
X283000D02*
D03*
X537000D02*
D03*
X791000D02*
D03*
X1045000D02*
D03*
X1299000D02*
D03*
X1553000D02*
D03*
X1807000D02*
D03*
X2061000D02*
D03*
X2315000D02*
D03*
X2569000D02*
D03*
X2823000D02*
D03*
X3077000D02*
D03*
X3331000D02*
D03*
X3585000D02*
D03*
X3839000D02*
D03*
X4093000D02*
D03*
X4347000D02*
D03*
X5648000Y2837998D02*
D03*
Y2583998D02*
D03*
Y2329998D02*
D03*
Y2075998D02*
D03*
Y1821998D02*
D03*
Y1567998D02*
D03*
Y1313998D02*
D03*
D17*
X7250000Y3649999D02*
D03*
X7750000D02*
D03*
X7500000Y2199998D02*
D03*
X7750000D02*
D03*
X-850000D02*
D03*
X-1100000D02*
D03*
X-850000Y3649999D02*
D03*
X-1350000D02*
D03*
D18*
X7250000Y2199998D02*
D03*
X-1350000D02*
D03*
D19*
X6930000Y2949998D02*
D03*
X8070000D02*
D03*
X-530000D02*
D03*
X-1670000D02*
D03*
D20*
X6558000Y1899998D02*
D03*
Y2153998D02*
D03*
X6050000Y1645998D02*
D03*
Y1899998D02*
D03*
Y2153998D02*
D03*
X6558000Y1645998D02*
D03*
X-2550000D02*
D03*
Y1899998D02*
D03*
Y2153998D02*
D03*
X-2042000Y1645998D02*
D03*
Y1899998D02*
D03*
Y2153998D02*
D03*
D21*
X-3642000Y1015998D02*
D03*
Y3135998D02*
D03*
X4958000D02*
D03*
Y1015998D02*
D03*
D22*
X-6700000Y1646000D02*
D03*
Y1900000D02*
D03*
D23*
Y2154000D02*
D03*
D24*
X-1100000Y799998D02*
D03*
X7500000D02*
D03*
D25*
X-1444170Y1144168D02*
D03*
X-755830D02*
D03*
X-1444170Y455828D02*
D03*
X-755830D02*
D03*
X7155830Y1144168D02*
D03*
X7844170D02*
D03*
X7155830Y455828D02*
D03*
X7844170D02*
D03*
D26*
X-8600000Y3449998D02*
D03*
Y349999D02*
D03*
X0Y3449998D02*
D03*
X8600000Y349999D02*
D03*
Y3449998D02*
D03*
D27*
X-0Y349999D02*
D03*
%TF.MD5,b72b99f96a2ce71ef431ff6071ebb93d*%
M02*
