%TF.GenerationSoftware,Altium Limited,Altium Designer,23.7.1 (13)*%
G04 Layer_Physical_Order=1*
G04 Layer_Color=255*
%FSLAX45Y45*%
%MOMM*%
%TF.SameCoordinates,F0F8C17F-0DA8-4E41-987A-5915CA82B15D*%
%TF.FilePolarity,Positive*%
%TF.FileFunction,Copper,L1,Top,Signal*%
%TF.Part,Single*%
G01*
G75*
%TA.AperFunction,SMDPad,CuDef*%
%ADD10R,0.91213X0.95814*%
%ADD11R,0.95872X0.91213*%
%TA.AperFunction,FiducialPad,Global*%
%ADD12C,1.00000*%
%TA.AperFunction,SMDPad,CuDef*%
%ADD13R,1.55000X1.30000*%
%TA.AperFunction,Conductor*%
%ADD14C,0.25400*%
%TA.AperFunction,ComponentPad*%
%ADD15R,1.60000X1.60000*%
%ADD16C,1.60000*%
%ADD17C,1.55000*%
%ADD18R,1.55000X1.55000*%
G04:AMPARAMS|DCode=19|XSize=2mm|YSize=4.1mm|CornerRadius=1mm|HoleSize=0mm|Usage=FLASHONLY|Rotation=0.000|XOffset=0mm|YOffset=0mm|HoleType=Round|Shape=RoundedRectangle|*
%AMROUNDEDRECTD19*
21,1,2.00000,2.10000,0,0,0.0*
21,1,0.00000,4.10000,0,0,0.0*
1,1,2.00000,0.00000,-1.05000*
1,1,2.00000,0.00000,-1.05000*
1,1,2.00000,0.00000,1.05000*
1,1,2.00000,0.00000,1.05000*
%
%ADD19ROUNDEDRECTD19*%
%ADD20C,1.69000*%
%ADD21C,2.50000*%
%ADD22C,1.35800*%
%ADD23R,1.35800X1.35800*%
%ADD24C,1.49860*%
%ADD25C,2.00660*%
%TA.AperFunction,WasherPad*%
%ADD26C,6.00000*%
%ADD27C,5.90000*%
%TA.AperFunction,ViaPad*%
%ADD28C,0.60000*%
%ADD29C,0.80000*%
G36*
X-53532Y3779609D02*
X-52029Y3766909D01*
X-99284Y3755563D01*
X-145863Y3736270D01*
X-188850Y3709928D01*
X-227186Y3677185D01*
X-259929Y3638848D01*
X-286272Y3595861D01*
X-305565Y3549282D01*
X-317335Y3500259D01*
X-321290Y3449998D01*
X-317335Y3399738D01*
X-305565Y3350714D01*
X-286272Y3304136D01*
X-259929Y3261149D01*
X-227186Y3222812D01*
X-188850Y3190069D01*
X-145863Y3163727D01*
X-99284Y3144433D01*
X-50261Y3132664D01*
X0Y3128708D01*
X50261Y3132664D01*
X99284Y3144433D01*
X145863Y3163727D01*
X188850Y3190069D01*
X227186Y3222812D01*
X259929Y3261149D01*
X286272Y3304136D01*
X305565Y3350714D01*
X317335Y3399738D01*
X321290Y3449998D01*
X317335Y3500259D01*
X305565Y3549282D01*
X286272Y3595861D01*
X259929Y3638848D01*
X227186Y3677185D01*
X188850Y3709928D01*
X145863Y3736270D01*
X99284Y3755563D01*
X52029Y3766909D01*
X53532Y3779609D01*
X8300000Y3779608D01*
X8546465D01*
X8547968Y3766908D01*
X8500716Y3755563D01*
X8454137Y3736270D01*
X8411151Y3709928D01*
X8372814Y3677185D01*
X8340071Y3638848D01*
X8313728Y3595861D01*
X8294435Y3549282D01*
X8282665Y3500259D01*
X8278710Y3449998D01*
X8282665Y3399738D01*
X8294435Y3350714D01*
X8313728Y3304136D01*
X8340071Y3261149D01*
X8372814Y3222812D01*
X8411151Y3190069D01*
X8454137Y3163727D01*
X8500716Y3144433D01*
X8549739Y3132664D01*
X8568592Y3131180D01*
X8568926Y3118414D01*
X8538811Y3114450D01*
X8537537Y3114017D01*
X8536195Y3113929D01*
X8498291Y3103773D01*
X8497085Y3103178D01*
X8495765Y3102916D01*
X8459510Y3087899D01*
X8458392Y3087151D01*
X8457118Y3086719D01*
X8423134Y3067098D01*
X8422123Y3066211D01*
X8420916Y3065616D01*
X8389783Y3041727D01*
X8388897Y3040716D01*
X8387778Y3039968D01*
X8360030Y3012221D01*
X8359282Y3011102D01*
X8358271Y3010215D01*
X8334382Y2979082D01*
X8333787Y2977876D01*
X8332901Y2976865D01*
X8313280Y2942880D01*
X8312847Y2941607D01*
X8312100Y2940488D01*
X8297083Y2904233D01*
X8296820Y2902913D01*
X8296225Y2901707D01*
X8286069Y2863803D01*
X8285981Y2862461D01*
X8285549Y2861187D01*
X8280426Y2822281D01*
X8280492Y2821271D01*
X8280263Y2820286D01*
X8279621Y2800665D01*
X8279676Y2800331D01*
X8279610Y2799998D01*
X8279610Y999999D01*
X8279676Y999666D01*
X8279620Y999331D01*
X8280263Y979710D01*
X8280492Y978725D01*
X8280426Y977716D01*
X8285549Y938810D01*
X8285981Y937536D01*
X8286069Y936194D01*
X8296225Y898289D01*
X8296820Y897083D01*
X8297083Y895764D01*
X8312100Y859509D01*
X8312847Y858390D01*
X8313280Y857116D01*
X8332901Y823132D01*
X8333787Y822121D01*
X8334382Y820915D01*
X8358271Y789782D01*
X8359282Y788895D01*
X8360030Y787776D01*
X8387778Y760028D01*
X8388897Y759281D01*
X8389783Y758270D01*
X8420916Y734381D01*
X8422123Y733786D01*
X8423134Y732899D01*
X8457118Y713278D01*
X8458392Y712846D01*
X8459510Y712098D01*
X8495765Y697081D01*
X8497085Y696819D01*
X8498291Y696224D01*
X8536195Y686067D01*
X8537537Y685980D01*
X8538811Y685547D01*
X8568925Y681582D01*
X8568591Y668817D01*
X8549739Y667333D01*
X8500716Y655564D01*
X8454137Y636270D01*
X8411151Y609928D01*
X8372814Y577185D01*
X8340071Y538848D01*
X8313728Y495861D01*
X8294435Y449283D01*
X8282665Y400259D01*
X8278710Y349999D01*
X8282665Y299738D01*
X8294435Y250715D01*
X8313728Y204136D01*
X8340071Y161149D01*
X8372814Y122812D01*
X8411151Y90069D01*
X8454137Y63727D01*
X8500716Y44433D01*
X8547971Y33088D01*
X8546468Y20388D01*
X8300000Y20391D01*
X-8300000Y20389D01*
X-8546465D01*
X-8547968Y33089D01*
X-8500716Y44433D01*
X-8454137Y63727D01*
X-8411151Y90069D01*
X-8372814Y122812D01*
X-8340071Y161149D01*
X-8313728Y204136D01*
X-8294435Y250715D01*
X-8282665Y299738D01*
X-8278710Y349999D01*
X-8282665Y400259D01*
X-8294435Y449283D01*
X-8313728Y495861D01*
X-8340071Y538848D01*
X-8372814Y577185D01*
X-8411151Y609928D01*
X-8454137Y636270D01*
X-8500716Y655564D01*
X-8549739Y667333D01*
X-8568591Y668817D01*
X-8568925Y681582D01*
X-8538812Y685547D01*
X-8537538Y685980D01*
X-8536196Y686067D01*
X-8498291Y696224D01*
X-8497085Y696819D01*
X-8495765Y697081D01*
X-8459511Y712098D01*
X-8458392Y712846D01*
X-8457118Y713278D01*
X-8423134Y732899D01*
X-8422123Y733786D01*
X-8420916Y734381D01*
X-8389784Y758270D01*
X-8388897Y759281D01*
X-8387778Y760028D01*
X-8360030Y787776D01*
X-8359283Y788895D01*
X-8358272Y789782D01*
X-8334383Y820915D01*
X-8333788Y822121D01*
X-8332901Y823132D01*
X-8313280Y857116D01*
X-8312847Y858390D01*
X-8312100Y859509D01*
X-8297083Y895764D01*
X-8296821Y897083D01*
X-8296226Y898289D01*
X-8286069Y936194D01*
X-8285981Y937536D01*
X-8285549Y938810D01*
X-8280427Y977716D01*
X-8280493Y978725D01*
X-8280263Y979710D01*
X-8279621Y999331D01*
X-8279676Y999666D01*
X-8279610Y999999D01*
X-8279610Y2799998D01*
X-8279676Y2800331D01*
X-8279620Y2800666D01*
X-8280263Y2820287D01*
X-8280493Y2821272D01*
X-8280427Y2822281D01*
X-8285549Y2861187D01*
X-8285981Y2862461D01*
X-8286069Y2863803D01*
X-8296226Y2901707D01*
X-8296821Y2902913D01*
X-8297083Y2904233D01*
X-8312100Y2940488D01*
X-8312847Y2941607D01*
X-8313280Y2942880D01*
X-8332901Y2976865D01*
X-8333788Y2977876D01*
X-8334383Y2979082D01*
X-8358272Y3010215D01*
X-8359283Y3011102D01*
X-8360030Y3012221D01*
X-8387778Y3039968D01*
X-8388897Y3040716D01*
X-8389784Y3041727D01*
X-8420916Y3065616D01*
X-8422123Y3066211D01*
X-8423134Y3067098D01*
X-8457118Y3086719D01*
X-8458392Y3087151D01*
X-8459511Y3087899D01*
X-8495765Y3102916D01*
X-8497085Y3103178D01*
X-8498291Y3103773D01*
X-8536196Y3113929D01*
X-8537538Y3114017D01*
X-8538812Y3114450D01*
X-8568926Y3118414D01*
X-8568592Y3131180D01*
X-8549739Y3132664D01*
X-8500716Y3144433D01*
X-8454137Y3163727D01*
X-8411151Y3190069D01*
X-8372814Y3222812D01*
X-8340071Y3261149D01*
X-8313728Y3304136D01*
X-8294435Y3350714D01*
X-8282665Y3399738D01*
X-8278710Y3449998D01*
X-8282665Y3500259D01*
X-8294435Y3549282D01*
X-8313728Y3595861D01*
X-8340071Y3638848D01*
X-8372814Y3677185D01*
X-8411151Y3709928D01*
X-8454137Y3736270D01*
X-8500716Y3755563D01*
X-8547969Y3766908D01*
X-8546466Y3779608D01*
X-8300000Y3779609D01*
X-53532Y3779609D01*
D02*
G37*
%LPC*%
G36*
X7260150Y3747306D02*
Y3660148D01*
X7347308D01*
X7345283Y3675529D01*
X7335428Y3699321D01*
X7319752Y3719750D01*
X7299322Y3735426D01*
X7275531Y3745281D01*
X7260150Y3747306D01*
D02*
G37*
G36*
X7239850D02*
X7224469Y3745281D01*
X7200679Y3735426D01*
X7180249Y3719750D01*
X7164572Y3699321D01*
X7154718Y3675529D01*
X7152693Y3660148D01*
X7239850D01*
Y3747306D01*
D02*
G37*
G36*
X-1339850D02*
Y3660148D01*
X-1252693D01*
X-1254718Y3675529D01*
X-1264572Y3699321D01*
X-1280248Y3719750D01*
X-1300678Y3735426D01*
X-1324469Y3745281D01*
X-1339850Y3747306D01*
D02*
G37*
G36*
X-1360150D02*
X-1375531Y3745281D01*
X-1399322Y3735426D01*
X-1419752Y3719750D01*
X-1435428Y3699321D01*
X-1445283Y3675529D01*
X-1447307Y3660148D01*
X-1360150D01*
Y3747306D01*
D02*
G37*
G36*
X7750000Y3748642D02*
X7724469Y3745281D01*
X7700679Y3735426D01*
X7680249Y3719750D01*
X7664572Y3699321D01*
X7654718Y3675529D01*
X7651357Y3649999D01*
X7651788Y3646720D01*
X7651732Y3638738D01*
X7650488Y3619974D01*
X7649427Y3612454D01*
X7648051Y3605677D01*
X7646443Y3599897D01*
X7644678Y3595144D01*
X7642849Y3591410D01*
X7641067Y3588651D01*
X7641053Y3588634D01*
X7616065Y3563646D01*
X7318980D01*
X7314669Y3576346D01*
X7319752Y3580247D01*
X7335428Y3600677D01*
X7345283Y3624468D01*
X7347308Y3639849D01*
X7152693D01*
X7154718Y3624468D01*
X7164572Y3600677D01*
X7180249Y3580247D01*
X7185332Y3576346D01*
X7181021Y3563646D01*
X2963002D01*
X2963000Y3563647D01*
X2950124Y3561085D01*
X2939209Y3553792D01*
X2939208Y3553791D01*
X2349209Y2963792D01*
X2349208Y2963792D01*
X2349208Y2963791D01*
X2125274Y2739857D01*
X2125145Y2739747D01*
X2122278Y2737909D01*
X2118378Y2736020D01*
X2113404Y2734198D01*
X2107357Y2732543D01*
X2100257Y2731127D01*
X2092378Y2730037D01*
X2072773Y2728768D01*
X2064443Y2728712D01*
X2061000Y2729165D01*
X2034817Y2725718D01*
X2010418Y2715612D01*
X1989466Y2699535D01*
X1973388Y2678583D01*
X1963282Y2654184D01*
X1959835Y2628000D01*
X1963282Y2601816D01*
X1973388Y2577418D01*
X1989466Y2556466D01*
X2010418Y2540388D01*
X2034817Y2530282D01*
X2061000Y2526835D01*
X2087184Y2530282D01*
X2111583Y2540388D01*
X2132535Y2556466D01*
X2148612Y2577418D01*
X2158718Y2601816D01*
X2162165Y2628000D01*
X2161712Y2631443D01*
X2161768Y2639773D01*
X2163037Y2659378D01*
X2164127Y2667257D01*
X2165543Y2674357D01*
X2167198Y2680402D01*
X2169021Y2685378D01*
X2170910Y2689279D01*
X2172747Y2692145D01*
X2172857Y2692274D01*
X2396790Y2916207D01*
X2396792Y2916208D01*
X2976937Y3496354D01*
X7630000D01*
X7630002Y3496353D01*
X7642878Y3498915D01*
X7653793Y3506208D01*
X7688635Y3541050D01*
X7688653Y3541066D01*
X7691411Y3542847D01*
X7695146Y3544677D01*
X7699901Y3546442D01*
X7705678Y3548050D01*
X7712460Y3549426D01*
X7719976Y3550487D01*
X7738740Y3551730D01*
X7746722Y3551786D01*
X7750000Y3551355D01*
X7775531Y3554716D01*
X7799322Y3564571D01*
X7819752Y3580247D01*
X7835428Y3600677D01*
X7845283Y3624468D01*
X7848644Y3649999D01*
X7845283Y3675529D01*
X7835428Y3699321D01*
X7819752Y3719750D01*
X7799322Y3735426D01*
X7775531Y3745281D01*
X7750000Y3748642D01*
D02*
G37*
G36*
X-1252693Y3639849D02*
X-1339850D01*
Y3552691D01*
X-1324469Y3554716D01*
X-1300678Y3564571D01*
X-1280248Y3580247D01*
X-1264572Y3600677D01*
X-1254718Y3624468D01*
X-1252693Y3639849D01*
D02*
G37*
G36*
X-1360150D02*
X-1447307D01*
X-1445283Y3624468D01*
X-1435428Y3600677D01*
X-1419752Y3580247D01*
X-1399322Y3564571D01*
X-1375531Y3554716D01*
X-1360150Y3552691D01*
Y3639849D01*
D02*
G37*
G36*
X-850000Y3748642D02*
X-875531Y3745281D01*
X-899322Y3735426D01*
X-919752Y3719750D01*
X-935428Y3699321D01*
X-945283Y3675529D01*
X-948644Y3649999D01*
X-945283Y3624468D01*
X-935428Y3600677D01*
X-919752Y3580247D01*
X-899322Y3564571D01*
X-875531Y3554716D01*
X-850000Y3551355D01*
X-824469Y3554716D01*
X-800678Y3564571D01*
X-780248Y3580247D01*
X-764572Y3600677D01*
X-754718Y3624468D01*
X-751356Y3649999D01*
X-754718Y3675529D01*
X-764572Y3699321D01*
X-780248Y3719750D01*
X-800678Y3735426D01*
X-824469Y3745281D01*
X-850000Y3748642D01*
D02*
G37*
G36*
X3736090Y3476687D02*
X3736089Y3476686D01*
X3130042D01*
X3130040Y3476687D01*
X3117164Y3474125D01*
X3106249Y3466832D01*
X2653210Y3013793D01*
X2653209Y3013792D01*
X2653208Y3013791D01*
X2379273Y2739857D01*
X2379145Y2739747D01*
X2376278Y2737909D01*
X2372378Y2736020D01*
X2367404Y2734198D01*
X2361357Y2732543D01*
X2354257Y2731127D01*
X2346378Y2730037D01*
X2326773Y2728768D01*
X2318443Y2728712D01*
X2315000Y2729165D01*
X2288817Y2725718D01*
X2264418Y2715612D01*
X2243466Y2699535D01*
X2227388Y2678583D01*
X2217282Y2654184D01*
X2213835Y2628000D01*
X2217282Y2601816D01*
X2227388Y2577418D01*
X2243466Y2556466D01*
X2264418Y2540388D01*
X2288817Y2530282D01*
X2315000Y2526835D01*
X2341184Y2530282D01*
X2365583Y2540388D01*
X2386535Y2556466D01*
X2402612Y2577418D01*
X2412718Y2601816D01*
X2416165Y2628000D01*
X2415712Y2631443D01*
X2415768Y2639773D01*
X2417037Y2659378D01*
X2418127Y2667257D01*
X2419543Y2674357D01*
X2421198Y2680402D01*
X2423021Y2685378D01*
X2424910Y2689279D01*
X2426747Y2692145D01*
X2426857Y2692273D01*
X2700791Y2966208D01*
X2700792Y2966209D01*
X3143977Y3409394D01*
X3646800D01*
X3652787Y3398193D01*
X3647999Y3391028D01*
X3643319Y3367500D01*
X3647999Y3343972D01*
X3661327Y3324026D01*
X3681273Y3310699D01*
X3704801Y3306019D01*
X3728328Y3310699D01*
X3748274Y3324026D01*
X3761602Y3343972D01*
X3766282Y3367500D01*
X3761602Y3391028D01*
X3757175Y3397653D01*
X3763162Y3408854D01*
X5993563D01*
X6965066Y2437350D01*
X6965645Y2436551D01*
X6966177Y2435685D01*
X6966525Y2434999D01*
X6966730Y2434486D01*
X6966836Y2434127D01*
X6966883Y2433874D01*
X6966899Y2433686D01*
X6966895Y2433418D01*
X6966215Y2430000D01*
X6970119Y2410374D01*
X6981236Y2393736D01*
X6997874Y2382619D01*
X7017500Y2378715D01*
X7037126Y2382619D01*
X7053764Y2393736D01*
X7064881Y2410374D01*
X7068785Y2430000D01*
X7064881Y2449626D01*
X7053764Y2466264D01*
X7037126Y2477381D01*
X7017722Y2481241D01*
X7017009Y2481573D01*
X7016074Y2482098D01*
X7014997Y2482806D01*
X7014105Y2483478D01*
X6031291Y3466292D01*
X6020376Y3473585D01*
X6007500Y3476147D01*
X6007499Y3476146D01*
X3738806D01*
X3736090Y3476687D01*
D02*
G37*
G36*
X-4895199Y3428981D02*
X-4918727Y3424301D01*
X-4938673Y3410974D01*
X-4952001Y3391028D01*
X-4956680Y3367500D01*
X-4952001Y3343972D01*
X-4938673Y3324026D01*
X-4918727Y3310699D01*
X-4895199Y3306019D01*
X-4871671Y3310699D01*
X-4851725Y3324026D01*
X-4838398Y3343972D01*
X-4833718Y3367500D01*
X-4838398Y3391028D01*
X-4851725Y3410974D01*
X-4871671Y3424301D01*
X-4895199Y3428981D01*
D02*
G37*
G36*
X3935000Y3330285D02*
X3915374Y3326381D01*
X3898735Y3315264D01*
X3887618Y3298626D01*
X3883714Y3279000D01*
X3887618Y3259374D01*
X3898735Y3242736D01*
X3915374Y3231619D01*
X3935000Y3227715D01*
X3954626Y3231619D01*
X3971264Y3242736D01*
X3982381Y3259374D01*
X3986285Y3279000D01*
X3982381Y3298626D01*
X3971264Y3315264D01*
X3954626Y3326381D01*
X3935000Y3330285D01*
D02*
G37*
G36*
X-4665000D02*
X-4684626Y3326381D01*
X-4701264Y3315264D01*
X-4712381Y3298626D01*
X-4716285Y3279000D01*
X-4712381Y3259374D01*
X-4701264Y3242736D01*
X-4684626Y3231619D01*
X-4665000Y3227715D01*
X-4645374Y3231619D01*
X-4628736Y3242736D01*
X-4617619Y3259374D01*
X-4613715Y3279000D01*
X-4617619Y3298626D01*
X-4628736Y3315264D01*
X-4645374Y3326381D01*
X-4665000Y3330285D01*
D02*
G37*
G36*
X-8050000Y3320905D02*
X-8068352Y3318489D01*
X-8085453Y3311405D01*
X-8100138Y3300137D01*
X-8111407Y3285452D01*
X-8118490Y3268351D01*
X-8120907Y3249999D01*
X-8118490Y3231647D01*
X-8111407Y3214545D01*
X-8100138Y3199860D01*
X-8085453Y3188592D01*
X-8068352Y3181508D01*
X-8050000Y3179092D01*
X-8031648Y3181508D01*
X-8014547Y3188592D01*
X-7999862Y3199860D01*
X-7988593Y3214545D01*
X-7981510Y3231647D01*
X-7979094Y3249999D01*
X-7981510Y3268351D01*
X-7988593Y3285452D01*
X-7999862Y3300137D01*
X-8014547Y3311405D01*
X-8031648Y3318489D01*
X-8050000Y3320905D01*
D02*
G37*
G36*
X4958000Y3286724D02*
X4928595Y3283828D01*
X4900320Y3275251D01*
X4874261Y3261322D01*
X4851421Y3242577D01*
X4832676Y3219737D01*
X4818748Y3193678D01*
X4810170Y3165403D01*
X4807274Y3135998D01*
X4810170Y3106593D01*
X4818748Y3078318D01*
X4832676Y3052260D01*
X4851421Y3029419D01*
X4873443Y3011346D01*
X4873446Y3010436D01*
X4864432Y2998646D01*
X2906001D01*
X2906000Y2998647D01*
X2893124Y2996085D01*
X2882208Y2988792D01*
X2882208Y2988791D01*
X2633273Y2739857D01*
X2633145Y2739747D01*
X2630278Y2737909D01*
X2626378Y2736020D01*
X2621404Y2734198D01*
X2615357Y2732543D01*
X2608257Y2731127D01*
X2600378Y2730037D01*
X2580773Y2728768D01*
X2572443Y2728712D01*
X2569000Y2729165D01*
X2542817Y2725718D01*
X2518418Y2715612D01*
X2497466Y2699535D01*
X2481388Y2678583D01*
X2471282Y2654184D01*
X2467835Y2628000D01*
X2471282Y2601816D01*
X2481388Y2577418D01*
X2497466Y2556466D01*
X2518418Y2540388D01*
X2542817Y2530282D01*
X2569000Y2526835D01*
X2595184Y2530282D01*
X2619583Y2540388D01*
X2640535Y2556466D01*
X2656612Y2577418D01*
X2666718Y2601816D01*
X2670165Y2628000D01*
X2669712Y2631443D01*
X2669768Y2639773D01*
X2671037Y2659378D01*
X2672127Y2667257D01*
X2673543Y2674357D01*
X2675198Y2680402D01*
X2677021Y2685378D01*
X2678910Y2689279D01*
X2680747Y2692145D01*
X2680857Y2692273D01*
X2919937Y2931354D01*
X5584040D01*
X5588351Y2918654D01*
X5576465Y2909533D01*
X5560388Y2888581D01*
X5550282Y2864182D01*
X5548171Y2848148D01*
X5648000D01*
X5747829D01*
X5745718Y2864182D01*
X5735612Y2888581D01*
X5719534Y2909533D01*
X5707648Y2918654D01*
X5711960Y2931354D01*
X6293563D01*
X6948708Y2276209D01*
X6948708Y2276208D01*
X6959624Y2268915D01*
X6972500Y2266353D01*
X6972501Y2266354D01*
X7079999D01*
X7080000Y2266353D01*
X7092876Y2268915D01*
X7103792Y2276208D01*
X7193937Y2366354D01*
X7931164D01*
X7932213Y2366195D01*
X7933337Y2365944D01*
X7934221Y2365675D01*
X7934896Y2365407D01*
X7935231Y2365239D01*
X7936236Y2363736D01*
X7952874Y2352619D01*
X7972500Y2348715D01*
X7992126Y2352619D01*
X8008764Y2363736D01*
X8019881Y2380374D01*
X8023785Y2400000D01*
X8019881Y2419626D01*
X8008764Y2436264D01*
X7992126Y2447381D01*
X7972500Y2451285D01*
X7952874Y2447381D01*
X7936236Y2436264D01*
X7935231Y2434761D01*
X7934897Y2434593D01*
X7934221Y2434325D01*
X7933337Y2434056D01*
X7932212Y2433805D01*
X7931165Y2433646D01*
X7180000D01*
X7167124Y2431085D01*
X7156208Y2423792D01*
X7156208Y2423791D01*
X7066063Y2333646D01*
X6986437D01*
X6331292Y2988792D01*
X6320376Y2996085D01*
X6307500Y2998647D01*
X6307499Y2998646D01*
X5051568D01*
X5042554Y3010436D01*
X5042557Y3011346D01*
X5064579Y3029419D01*
X5083324Y3052260D01*
X5097252Y3078318D01*
X5105830Y3106593D01*
X5108726Y3135998D01*
X5105830Y3165403D01*
X5097252Y3193678D01*
X5083324Y3219737D01*
X5064579Y3242577D01*
X5041739Y3261322D01*
X5015680Y3275251D01*
X4987405Y3283828D01*
X4958000Y3286724D01*
D02*
G37*
G36*
X-3642000D02*
X-3671405Y3283828D01*
X-3699680Y3275251D01*
X-3725739Y3261322D01*
X-3748579Y3242577D01*
X-3767324Y3219737D01*
X-3781253Y3193678D01*
X-3789830Y3165403D01*
X-3792726Y3135998D01*
X-3789830Y3106593D01*
X-3781253Y3078318D01*
X-3767324Y3052260D01*
X-3748579Y3029419D01*
X-3725739Y3010674D01*
X-3699680Y2996746D01*
X-3671405Y2988169D01*
X-3642000Y2985273D01*
X-3612595Y2988169D01*
X-3584320Y2996746D01*
X-3558261Y3010674D01*
X-3535421Y3029419D01*
X-3516676Y3052260D01*
X-3502748Y3078318D01*
X-3494171Y3106593D01*
X-3491274Y3135998D01*
X-3494171Y3165403D01*
X-3502748Y3193678D01*
X-3516676Y3219737D01*
X-3535421Y3242577D01*
X-3558261Y3261322D01*
X-3584320Y3275251D01*
X-3612595Y3283828D01*
X-3642000Y3286724D01*
D02*
G37*
G36*
X8080150Y3175000D02*
Y2960148D01*
X8191338D01*
Y3054998D01*
X8187204Y3086403D01*
X8175082Y3115667D01*
X8155799Y3140797D01*
X8130669Y3160080D01*
X8101405Y3172202D01*
X8080150Y3175000D01*
D02*
G37*
G36*
X8059850D02*
X8038596Y3172202D01*
X8009331Y3160080D01*
X7984201Y3140797D01*
X7964918Y3115667D01*
X7952797Y3086403D01*
X7948662Y3054998D01*
Y2960148D01*
X8059850D01*
Y3175000D01*
D02*
G37*
G36*
X6940150D02*
Y2960148D01*
X7051338D01*
Y3054998D01*
X7047204Y3086403D01*
X7035082Y3115667D01*
X7015799Y3140797D01*
X6990669Y3160080D01*
X6961405Y3172202D01*
X6940150Y3175000D01*
D02*
G37*
G36*
X6919851D02*
X6898596Y3172202D01*
X6869331Y3160080D01*
X6844201Y3140797D01*
X6824919Y3115667D01*
X6812797Y3086403D01*
X6808662Y3054998D01*
Y2960148D01*
X6919851D01*
Y3175000D01*
D02*
G37*
G36*
X-519850D02*
Y2960148D01*
X-408662D01*
Y3054998D01*
X-412797Y3086403D01*
X-424918Y3115667D01*
X-444201Y3140797D01*
X-469331Y3160080D01*
X-498596Y3172202D01*
X-519850Y3175000D01*
D02*
G37*
G36*
X-540150D02*
X-561405Y3172202D01*
X-590669Y3160080D01*
X-615799Y3140797D01*
X-635082Y3115667D01*
X-647204Y3086403D01*
X-651338Y3054998D01*
Y2960148D01*
X-540150D01*
Y3175000D01*
D02*
G37*
G36*
X-1659850D02*
Y2960148D01*
X-1548662D01*
Y3054998D01*
X-1552796Y3086403D01*
X-1564918Y3115667D01*
X-1584201Y3140797D01*
X-1609331Y3160080D01*
X-1638595Y3172202D01*
X-1659850Y3175000D01*
D02*
G37*
G36*
X-1680150D02*
X-1701405Y3172202D01*
X-1730669Y3160080D01*
X-1755799Y3140797D01*
X-1775082Y3115667D01*
X-1787203Y3086403D01*
X-1791338Y3054998D01*
Y2960148D01*
X-1680150D01*
Y3175000D01*
D02*
G37*
G36*
X-2941850Y2937827D02*
Y2848148D01*
X-2852171D01*
X-2854282Y2864182D01*
X-2864388Y2888581D01*
X-2880466Y2909533D01*
X-2901418Y2925610D01*
X-2925817Y2935717D01*
X-2941850Y2937827D01*
D02*
G37*
G36*
X-2962150D02*
X-2978184Y2935717D01*
X-3002583Y2925610D01*
X-3023535Y2909533D01*
X-3039612Y2888581D01*
X-3049718Y2864182D01*
X-3051829Y2848148D01*
X-2962150D01*
Y2937827D01*
D02*
G37*
G36*
X5747829Y2827849D02*
X5658150D01*
Y2738170D01*
X5674183Y2740280D01*
X5698582Y2750387D01*
X5719534Y2766464D01*
X5735612Y2787416D01*
X5745718Y2811815D01*
X5747829Y2827849D01*
D02*
G37*
G36*
X-2852171D02*
X-2941850D01*
Y2738170D01*
X-2925817Y2740280D01*
X-2901418Y2750387D01*
X-2880466Y2766464D01*
X-2864388Y2787416D01*
X-2854282Y2811815D01*
X-2852171Y2827849D01*
D02*
G37*
G36*
X-2962150D02*
X-3051829D01*
X-3049718Y2811815D01*
X-3039612Y2787416D01*
X-3023535Y2766464D01*
X-3002583Y2750387D01*
X-2978184Y2740280D01*
X-2962150Y2738170D01*
Y2827849D01*
D02*
G37*
G36*
X5637850D02*
X5548171D01*
X5550282Y2811815D01*
X5560388Y2787416D01*
X5576465Y2766464D01*
X5597417Y2750387D01*
X5621816Y2740280D01*
X5637850Y2738170D01*
Y2827849D01*
D02*
G37*
G36*
X8191338Y2939849D02*
X8080150D01*
Y2724997D01*
X8101405Y2727795D01*
X8130669Y2739917D01*
X8155799Y2759200D01*
X8175082Y2784330D01*
X8187204Y2813594D01*
X8191338Y2844999D01*
Y2939849D01*
D02*
G37*
G36*
X8059850D02*
X7948662D01*
Y2844999D01*
X7952797Y2813594D01*
X7964918Y2784330D01*
X7984201Y2759200D01*
X8009331Y2739917D01*
X8038596Y2727795D01*
X8059850Y2724997D01*
Y2939849D01*
D02*
G37*
G36*
X7051338D02*
X6940150D01*
Y2724997D01*
X6961405Y2727795D01*
X6990669Y2739917D01*
X7015799Y2759200D01*
X7035082Y2784330D01*
X7047204Y2813594D01*
X7051338Y2844999D01*
Y2939849D01*
D02*
G37*
G36*
X6919851D02*
X6808662D01*
Y2844999D01*
X6812797Y2813594D01*
X6824919Y2784330D01*
X6844201Y2759200D01*
X6869331Y2739917D01*
X6898596Y2727795D01*
X6919851Y2724997D01*
Y2939849D01*
D02*
G37*
G36*
X-408662D02*
X-519850D01*
Y2724997D01*
X-498596Y2727795D01*
X-469331Y2739917D01*
X-444201Y2759200D01*
X-424918Y2784330D01*
X-412797Y2813594D01*
X-408662Y2844999D01*
Y2939849D01*
D02*
G37*
G36*
X-540150D02*
X-651338D01*
Y2844999D01*
X-647204Y2813594D01*
X-635082Y2784330D01*
X-615799Y2759200D01*
X-590669Y2739917D01*
X-561405Y2727795D01*
X-540150Y2724997D01*
Y2939849D01*
D02*
G37*
G36*
X-1548662D02*
X-1659850D01*
Y2724997D01*
X-1638595Y2727795D01*
X-1609331Y2739917D01*
X-1584201Y2759200D01*
X-1564918Y2784330D01*
X-1552796Y2813594D01*
X-1548662Y2844999D01*
Y2939849D01*
D02*
G37*
G36*
X-1680150D02*
X-1791338D01*
Y2844999D01*
X-1787203Y2813594D01*
X-1775082Y2784330D01*
X-1755799Y2759200D01*
X-1730669Y2739917D01*
X-1701405Y2727795D01*
X-1680150Y2724997D01*
Y2939849D01*
D02*
G37*
G36*
X4103150Y2727829D02*
Y2638150D01*
X4192829D01*
X4190718Y2654184D01*
X4180612Y2678583D01*
X4164535Y2699535D01*
X4143583Y2715612D01*
X4119184Y2725718D01*
X4103150Y2727829D01*
D02*
G37*
G36*
X4082850D02*
X4066817Y2725718D01*
X4042418Y2715612D01*
X4021466Y2699535D01*
X4005388Y2678583D01*
X3995282Y2654184D01*
X3993171Y2638150D01*
X4082850D01*
Y2727829D01*
D02*
G37*
G36*
X2833150D02*
Y2638150D01*
X2922829D01*
X2920718Y2654184D01*
X2910612Y2678583D01*
X2894535Y2699535D01*
X2873583Y2715612D01*
X2849184Y2725718D01*
X2833150Y2727829D01*
D02*
G37*
G36*
X2812850D02*
X2796817Y2725718D01*
X2772418Y2715612D01*
X2751466Y2699535D01*
X2735388Y2678583D01*
X2725282Y2654184D01*
X2723171Y2638150D01*
X2812850D01*
Y2727829D01*
D02*
G37*
G36*
X1563150D02*
Y2638150D01*
X1652829D01*
X1650718Y2654184D01*
X1640612Y2678583D01*
X1624535Y2699535D01*
X1603583Y2715612D01*
X1579184Y2725718D01*
X1563150Y2727829D01*
D02*
G37*
G36*
X1542850D02*
X1526817Y2725718D01*
X1502418Y2715612D01*
X1481466Y2699535D01*
X1465388Y2678583D01*
X1455282Y2654184D01*
X1453171Y2638150D01*
X1542850D01*
Y2727829D01*
D02*
G37*
G36*
X293150D02*
Y2638150D01*
X382829D01*
X380718Y2654184D01*
X370612Y2678583D01*
X354535Y2699535D01*
X333583Y2715612D01*
X309184Y2725718D01*
X293150Y2727829D01*
D02*
G37*
G36*
X272850D02*
X256817Y2725718D01*
X232418Y2715612D01*
X211466Y2699535D01*
X195388Y2678583D01*
X185282Y2654184D01*
X183171Y2638150D01*
X272850D01*
Y2727829D01*
D02*
G37*
G36*
X4192829Y2617850D02*
X4103150D01*
Y2528171D01*
X4119184Y2530282D01*
X4143583Y2540388D01*
X4164535Y2556466D01*
X4180612Y2577418D01*
X4190718Y2601816D01*
X4192829Y2617850D01*
D02*
G37*
G36*
X4082850D02*
X3993171D01*
X3995282Y2601816D01*
X4005388Y2577418D01*
X4021466Y2556466D01*
X4042418Y2540388D01*
X4066817Y2530282D01*
X4082850Y2528171D01*
Y2617850D01*
D02*
G37*
G36*
X2922829D02*
X2833150D01*
Y2528171D01*
X2849184Y2530282D01*
X2873583Y2540388D01*
X2894535Y2556466D01*
X2910612Y2577418D01*
X2920718Y2601816D01*
X2922829Y2617850D01*
D02*
G37*
G36*
X2812850D02*
X2723171D01*
X2725282Y2601816D01*
X2735388Y2577418D01*
X2751466Y2556466D01*
X2772418Y2540388D01*
X2796817Y2530282D01*
X2812850Y2528171D01*
Y2617850D01*
D02*
G37*
G36*
X1652829D02*
X1563150D01*
Y2528171D01*
X1579184Y2530282D01*
X1603583Y2540388D01*
X1624535Y2556466D01*
X1640612Y2577418D01*
X1650718Y2601816D01*
X1652829Y2617850D01*
D02*
G37*
G36*
X1542850D02*
X1453171D01*
X1455282Y2601816D01*
X1465388Y2577418D01*
X1481466Y2556466D01*
X1502418Y2540388D01*
X1526817Y2530282D01*
X1542850Y2528171D01*
Y2617850D01*
D02*
G37*
G36*
X382829D02*
X293150D01*
Y2528171D01*
X309184Y2530282D01*
X333583Y2540388D01*
X354535Y2556466D01*
X370612Y2577418D01*
X380718Y2601816D01*
X382829Y2617850D01*
D02*
G37*
G36*
X272850D02*
X183171D01*
X185282Y2601816D01*
X195388Y2577418D01*
X211466Y2556466D01*
X232418Y2540388D01*
X256817Y2530282D01*
X272850Y2528171D01*
Y2617850D01*
D02*
G37*
G36*
X-124700Y2728300D02*
X-325300D01*
Y2527700D01*
X-124700D01*
Y2728300D01*
D02*
G37*
G36*
X4601000Y2729165D02*
X4574817Y2725718D01*
X4550418Y2715612D01*
X4529466Y2699535D01*
X4513388Y2678583D01*
X4503282Y2654184D01*
X4499835Y2628000D01*
X4503282Y2601816D01*
X4513388Y2577418D01*
X4529466Y2556466D01*
X4550418Y2540388D01*
X4574817Y2530282D01*
X4601000Y2526835D01*
X4627184Y2530282D01*
X4651583Y2540388D01*
X4672535Y2556466D01*
X4688612Y2577418D01*
X4698718Y2601816D01*
X4702165Y2628000D01*
X4698718Y2654184D01*
X4688612Y2678583D01*
X4672535Y2699535D01*
X4651583Y2715612D01*
X4627184Y2725718D01*
X4601000Y2729165D01*
D02*
G37*
G36*
X4347000D02*
X4320817Y2725718D01*
X4296418Y2715612D01*
X4275466Y2699535D01*
X4259388Y2678583D01*
X4249282Y2654184D01*
X4245835Y2628000D01*
X4249282Y2601816D01*
X4259388Y2577418D01*
X4275466Y2556466D01*
X4296418Y2540388D01*
X4320817Y2530282D01*
X4347000Y2526835D01*
X4373184Y2530282D01*
X4397583Y2540388D01*
X4418535Y2556466D01*
X4434612Y2577418D01*
X4444718Y2601816D01*
X4448165Y2628000D01*
X4444718Y2654184D01*
X4434612Y2678583D01*
X4418535Y2699535D01*
X4397583Y2715612D01*
X4373184Y2725718D01*
X4347000Y2729165D01*
D02*
G37*
G36*
X3839000D02*
X3812817Y2725718D01*
X3788418Y2715612D01*
X3767466Y2699535D01*
X3751388Y2678583D01*
X3741282Y2654184D01*
X3737835Y2628000D01*
X3741282Y2601816D01*
X3751388Y2577418D01*
X3767466Y2556466D01*
X3788418Y2540388D01*
X3812817Y2530282D01*
X3839000Y2526835D01*
X3865184Y2530282D01*
X3889583Y2540388D01*
X3910535Y2556466D01*
X3926612Y2577418D01*
X3936718Y2601816D01*
X3940165Y2628000D01*
X3936718Y2654184D01*
X3926612Y2678583D01*
X3910535Y2699535D01*
X3889583Y2715612D01*
X3865184Y2725718D01*
X3839000Y2729165D01*
D02*
G37*
G36*
X3585000D02*
X3558817Y2725718D01*
X3534418Y2715612D01*
X3513466Y2699535D01*
X3497388Y2678583D01*
X3487282Y2654184D01*
X3483835Y2628000D01*
X3487282Y2601816D01*
X3497388Y2577418D01*
X3513466Y2556466D01*
X3534418Y2540388D01*
X3558817Y2530282D01*
X3585000Y2526835D01*
X3611184Y2530282D01*
X3635583Y2540388D01*
X3656535Y2556466D01*
X3672612Y2577418D01*
X3682718Y2601816D01*
X3686165Y2628000D01*
X3682718Y2654184D01*
X3672612Y2678583D01*
X3656535Y2699535D01*
X3635583Y2715612D01*
X3611184Y2725718D01*
X3585000Y2729165D01*
D02*
G37*
G36*
X3331000D02*
X3304817Y2725718D01*
X3280418Y2715612D01*
X3259466Y2699535D01*
X3243388Y2678583D01*
X3233282Y2654184D01*
X3229835Y2628000D01*
X3233282Y2601816D01*
X3243388Y2577418D01*
X3259466Y2556466D01*
X3280418Y2540388D01*
X3304817Y2530282D01*
X3331000Y2526835D01*
X3357184Y2530282D01*
X3381583Y2540388D01*
X3402535Y2556466D01*
X3418612Y2577418D01*
X3428718Y2601816D01*
X3432165Y2628000D01*
X3428718Y2654184D01*
X3418612Y2678583D01*
X3402535Y2699535D01*
X3381583Y2715612D01*
X3357184Y2725718D01*
X3331000Y2729165D01*
D02*
G37*
G36*
X3077000D02*
X3050817Y2725718D01*
X3026418Y2715612D01*
X3005466Y2699535D01*
X2989388Y2678583D01*
X2979282Y2654184D01*
X2975835Y2628000D01*
X2979282Y2601816D01*
X2989388Y2577418D01*
X3005466Y2556466D01*
X3026418Y2540388D01*
X3050817Y2530282D01*
X3077000Y2526835D01*
X3103184Y2530282D01*
X3127583Y2540388D01*
X3148535Y2556466D01*
X3164612Y2577418D01*
X3174718Y2601816D01*
X3178165Y2628000D01*
X3174718Y2654184D01*
X3164612Y2678583D01*
X3148535Y2699535D01*
X3127583Y2715612D01*
X3103184Y2725718D01*
X3077000Y2729165D01*
D02*
G37*
G36*
X791000D02*
X764817Y2725718D01*
X740418Y2715612D01*
X719466Y2699535D01*
X703388Y2678583D01*
X693282Y2654184D01*
X689835Y2628000D01*
X693282Y2601816D01*
X703388Y2577418D01*
X719466Y2556466D01*
X740418Y2540388D01*
X764817Y2530282D01*
X791000Y2526835D01*
X817184Y2530282D01*
X841583Y2540388D01*
X862535Y2556466D01*
X878612Y2577418D01*
X888718Y2601816D01*
X892165Y2628000D01*
X888718Y2654184D01*
X878612Y2678583D01*
X862535Y2699535D01*
X841583Y2715612D01*
X817184Y2725718D01*
X791000Y2729165D01*
D02*
G37*
G36*
X537000D02*
X510817Y2725718D01*
X486418Y2715612D01*
X465466Y2699535D01*
X449388Y2678583D01*
X439282Y2654184D01*
X435835Y2628000D01*
X439282Y2601816D01*
X449388Y2577418D01*
X465466Y2556466D01*
X486418Y2540388D01*
X510817Y2530282D01*
X537000Y2526835D01*
X563184Y2530282D01*
X587583Y2540388D01*
X608535Y2556466D01*
X624612Y2577418D01*
X634718Y2601816D01*
X638165Y2628000D01*
X634718Y2654184D01*
X624612Y2678583D01*
X608535Y2699535D01*
X587583Y2715612D01*
X563184Y2725718D01*
X537000Y2729165D01*
D02*
G37*
G36*
X29000D02*
X2817Y2725718D01*
X-21582Y2715612D01*
X-42534Y2699535D01*
X-58612Y2678583D01*
X-68718Y2654184D01*
X-72165Y2628000D01*
X-68718Y2601816D01*
X-58612Y2577418D01*
X-42534Y2556466D01*
X-21582Y2540388D01*
X2817Y2530282D01*
X29000Y2526835D01*
X55184Y2530282D01*
X79583Y2540388D01*
X100535Y2556466D01*
X116612Y2577418D01*
X126718Y2601816D01*
X130165Y2628000D01*
X126718Y2654184D01*
X116612Y2678583D01*
X100535Y2699535D01*
X79583Y2715612D01*
X55184Y2725718D01*
X29000Y2729165D01*
D02*
G37*
G36*
X7487500Y2626285D02*
X7467874Y2622381D01*
X7451236Y2611264D01*
X7440118Y2594626D01*
X7436214Y2575000D01*
X7440118Y2555374D01*
X7451236Y2538736D01*
X7467874Y2527619D01*
X7487500Y2523715D01*
X7507126Y2527619D01*
X7523764Y2538736D01*
X7534881Y2555374D01*
X7538785Y2575000D01*
X7534881Y2594626D01*
X7523764Y2611264D01*
X7507126Y2622381D01*
X7487500Y2626285D01*
D02*
G37*
G36*
X-1087500D02*
X-1107126Y2622381D01*
X-1123764Y2611264D01*
X-1134881Y2594626D01*
X-1138785Y2575000D01*
X-1134881Y2555374D01*
X-1123764Y2538736D01*
X-1107126Y2527619D01*
X-1087500Y2523715D01*
X-1067874Y2527619D01*
X-1051236Y2538736D01*
X-1040119Y2555374D01*
X-1036215Y2575000D01*
X-1040119Y2594626D01*
X-1051236Y2611264D01*
X-1067874Y2622381D01*
X-1087500Y2626285D01*
D02*
G37*
G36*
X5648000Y2685164D02*
X5621816Y2681717D01*
X5597417Y2671610D01*
X5576465Y2655533D01*
X5560388Y2634581D01*
X5550282Y2610182D01*
X5546835Y2583998D01*
X5550282Y2557815D01*
X5560388Y2533416D01*
X5576465Y2512464D01*
X5597417Y2496387D01*
X5621816Y2486280D01*
X5648000Y2482833D01*
X5674183Y2486280D01*
X5698582Y2496387D01*
X5719534Y2512464D01*
X5735612Y2533416D01*
X5745718Y2557815D01*
X5749165Y2583998D01*
X5745718Y2610182D01*
X5735612Y2634581D01*
X5719534Y2655533D01*
X5698582Y2671610D01*
X5674183Y2681717D01*
X5648000Y2685164D01*
D02*
G37*
G36*
X-2952000D02*
X-2978184Y2681717D01*
X-3002583Y2671610D01*
X-3023535Y2655533D01*
X-3039612Y2634581D01*
X-3049718Y2610182D01*
X-3053165Y2583998D01*
X-3052712Y2580555D01*
X-3052768Y2572226D01*
X-3054037Y2552621D01*
X-3055127Y2544741D01*
X-3056543Y2537642D01*
X-3058198Y2531597D01*
X-3060021Y2526620D01*
X-3061910Y2522720D01*
X-3063747Y2519853D01*
X-3063856Y2519725D01*
X-3323792Y2259790D01*
X-3331085Y2248875D01*
X-3333647Y2235999D01*
X-3333646Y2235997D01*
Y1175001D01*
X-3333647Y1175000D01*
X-3331085Y1162124D01*
X-3323792Y1151209D01*
X-3148792Y976209D01*
X-3148792Y976208D01*
X-3137876Y968915D01*
X-3125000Y966353D01*
X-3124999Y966354D01*
X3167063D01*
X3219143Y914274D01*
X3219253Y914145D01*
X3221091Y911278D01*
X3222980Y907378D01*
X3224802Y902404D01*
X3226457Y896357D01*
X3227873Y889257D01*
X3228963Y881377D01*
X3230233Y861773D01*
X3230288Y853443D01*
X3229835Y850000D01*
X3233282Y823816D01*
X3243388Y799418D01*
X3259466Y778466D01*
X3280418Y762388D01*
X3304817Y752282D01*
X3331000Y748835D01*
X3357184Y752282D01*
X3381583Y762388D01*
X3402535Y778466D01*
X3418612Y799418D01*
X3428718Y823816D01*
X3432165Y850000D01*
X3428718Y876184D01*
X3418612Y900583D01*
X3402535Y921535D01*
X3381583Y937612D01*
X3357184Y947718D01*
X3331000Y951165D01*
X3327557Y950712D01*
X3319228Y950768D01*
X3299623Y952037D01*
X3291743Y953127D01*
X3284644Y954543D01*
X3278598Y956198D01*
X3273622Y958020D01*
X3269722Y959910D01*
X3266855Y961747D01*
X3266727Y961857D01*
X3204792Y1023792D01*
X3193876Y1031085D01*
X3181000Y1033647D01*
X3180999Y1033646D01*
X-680846D01*
X-685158Y1046346D01*
X-669796Y1058134D01*
X-650460Y1083333D01*
X-638305Y1112678D01*
X-635496Y1134019D01*
X-876165D01*
X-873355Y1112678D01*
X-861200Y1083333D01*
X-841864Y1058134D01*
X-826503Y1046346D01*
X-830814Y1033646D01*
X-1369186D01*
X-1373498Y1046346D01*
X-1358136Y1058134D01*
X-1338800Y1083333D01*
X-1326645Y1112678D01*
X-1323836Y1134019D01*
X-1564505D01*
X-1561695Y1112678D01*
X-1549540Y1083333D01*
X-1530204Y1058134D01*
X-1514843Y1046346D01*
X-1519154Y1033646D01*
X-2391154D01*
X-2397141Y1044847D01*
X-2395119Y1047874D01*
X-2391215Y1067500D01*
X-2395119Y1087126D01*
X-2399480Y1093654D01*
X-2392692Y1106354D01*
X-1645001D01*
X-1645000Y1106353D01*
X-1632124Y1108915D01*
X-1621208Y1116208D01*
X-1576437Y1160979D01*
X-1564409Y1155047D01*
X-1564505Y1154318D01*
X-1323836D01*
X-1326645Y1175659D01*
X-1338800Y1205004D01*
X-1358136Y1230203D01*
X-1366769Y1236828D01*
X-1362687Y1248854D01*
X-837313D01*
X-833231Y1236828D01*
X-841864Y1230203D01*
X-861200Y1205004D01*
X-873355Y1175659D01*
X-876165Y1154318D01*
X-635496D01*
X-635971Y1157927D01*
X-623942Y1163858D01*
X-523792Y1063709D01*
X-523792Y1063708D01*
X-512876Y1056415D01*
X-500000Y1053853D01*
X-499999Y1053854D01*
X3333563D01*
X3473143Y914274D01*
X3473253Y914145D01*
X3475091Y911278D01*
X3476980Y907378D01*
X3478802Y902404D01*
X3480457Y896357D01*
X3481873Y889257D01*
X3482963Y881377D01*
X3484233Y861773D01*
X3484288Y853443D01*
X3483835Y850000D01*
X3487282Y823816D01*
X3497388Y799418D01*
X3513466Y778466D01*
X3534418Y762388D01*
X3558817Y752282D01*
X3585000Y748835D01*
X3611184Y752282D01*
X3635583Y762388D01*
X3656535Y778466D01*
X3672612Y799418D01*
X3682718Y823816D01*
X3686165Y850000D01*
X3682718Y876184D01*
X3672612Y900583D01*
X3656535Y921535D01*
X3635583Y937612D01*
X3611184Y947718D01*
X3585000Y951165D01*
X3581557Y950712D01*
X3573228Y950768D01*
X3553623Y952037D01*
X3545743Y953127D01*
X3538644Y954543D01*
X3532598Y956198D01*
X3527622Y958020D01*
X3523722Y959910D01*
X3520855Y961747D01*
X3520726Y961857D01*
X3371292Y1111292D01*
X3360376Y1118585D01*
X3347500Y1121147D01*
X3347499Y1121146D01*
X-486063D01*
X-671208Y1306292D01*
X-682124Y1313585D01*
X-695000Y1316147D01*
X-695001Y1316146D01*
X-1502499D01*
X-1502500Y1316147D01*
X-1515376Y1313585D01*
X-1526292Y1306292D01*
X-1526292Y1306291D01*
X-1658937Y1173646D01*
X-3063563D01*
X-3148854Y1258937D01*
Y1831561D01*
X-3016274Y1964141D01*
X-3016145Y1964252D01*
X-3013278Y1966089D01*
X-3009378Y1967978D01*
X-3004404Y1969800D01*
X-2998357Y1971456D01*
X-2991257Y1972871D01*
X-2983378Y1973961D01*
X-2963773Y1975231D01*
X-2955443Y1975287D01*
X-2952000Y1974833D01*
X-2925817Y1978280D01*
X-2901418Y1988387D01*
X-2880466Y2004464D01*
X-2864388Y2025416D01*
X-2854282Y2049815D01*
X-2850835Y2075998D01*
X-2854282Y2102182D01*
X-2864388Y2126581D01*
X-2880466Y2147533D01*
X-2901418Y2163610D01*
X-2925817Y2173717D01*
X-2952000Y2177164D01*
X-2978184Y2173717D01*
X-3002583Y2163610D01*
X-3023535Y2147533D01*
X-3039612Y2126581D01*
X-3049718Y2102182D01*
X-3053165Y2075998D01*
X-3052712Y2072555D01*
X-3052768Y2064226D01*
X-3054037Y2044621D01*
X-3055127Y2036741D01*
X-3056543Y2029642D01*
X-3058198Y2023597D01*
X-3060021Y2018620D01*
X-3061910Y2014720D01*
X-3063747Y2011853D01*
X-3063857Y2011724D01*
X-3206292Y1869290D01*
X-3213585Y1858374D01*
X-3216147Y1845498D01*
X-3216146Y1845497D01*
Y1245002D01*
X-3216147Y1245000D01*
X-3213585Y1232124D01*
X-3206292Y1221209D01*
X-3101292Y1116209D01*
X-3101291Y1116208D01*
X-3090376Y1108914D01*
X-3077500Y1106353D01*
X-3077499Y1106354D01*
X-2492308D01*
X-2485520Y1093654D01*
X-2489881Y1087126D01*
X-2493785Y1067500D01*
X-2489881Y1047874D01*
X-2487859Y1044847D01*
X-2493846Y1033646D01*
X-3111063D01*
X-3266354Y1188937D01*
Y2222062D01*
X-3016273Y2472142D01*
X-3016145Y2472252D01*
X-3013278Y2474089D01*
X-3009378Y2475978D01*
X-3004404Y2477800D01*
X-2998357Y2479456D01*
X-2991257Y2480871D01*
X-2983378Y2481961D01*
X-2963773Y2483231D01*
X-2955443Y2483287D01*
X-2952000Y2482833D01*
X-2925817Y2486280D01*
X-2901418Y2496387D01*
X-2880466Y2512464D01*
X-2864388Y2533416D01*
X-2854282Y2557815D01*
X-2850835Y2583998D01*
X-2854282Y2610182D01*
X-2864388Y2634581D01*
X-2880466Y2655533D01*
X-2901418Y2671610D01*
X-2925817Y2681717D01*
X-2952000Y2685164D01*
D02*
G37*
G36*
X1299000Y2729165D02*
X1272817Y2725718D01*
X1248418Y2715612D01*
X1227466Y2699535D01*
X1211388Y2678583D01*
X1201282Y2654184D01*
X1197835Y2628000D01*
X1201282Y2601816D01*
X1211388Y2577418D01*
X1227466Y2556466D01*
X1230493Y2554143D01*
X1237006Y2547699D01*
X1250024Y2533188D01*
X1254832Y2526949D01*
X1258854Y2521018D01*
X1261961Y2515637D01*
X1264188Y2510885D01*
X1265608Y2506823D01*
X1266338Y2503501D01*
X1266354Y2503302D01*
Y2413406D01*
X1234094D01*
Y2285708D01*
X1234093Y2276993D01*
X1234094Y2264292D01*
Y2246039D01*
X1231161Y2244040D01*
X1217552Y2244004D01*
X1200914Y2255121D01*
X1181288Y2259025D01*
X1161662Y2255121D01*
X1145024Y2244004D01*
X1142672Y2240484D01*
X1142493Y2240349D01*
X1141697Y2239462D01*
X1141641Y2239411D01*
X1141541Y2239339D01*
X1141325Y2239214D01*
X1140930Y2239037D01*
X1140299Y2238822D01*
X1139400Y2238599D01*
X1138485Y2238447D01*
X1124887D01*
X1115906Y2247427D01*
X1115907Y2273007D01*
X1115906Y2285708D01*
Y2413406D01*
X1083646D01*
Y2504417D01*
X1083647Y2504423D01*
X1084363Y2507756D01*
X1085784Y2511999D01*
X1088012Y2517059D01*
X1091098Y2522846D01*
X1094830Y2528901D01*
X1112586Y2552326D01*
X1115531Y2555695D01*
X1116535Y2556466D01*
X1118907Y2559557D01*
X1120044Y2560858D01*
X1120460Y2561581D01*
X1132612Y2577418D01*
X1142718Y2601816D01*
X1146165Y2628000D01*
X1142718Y2654184D01*
X1132612Y2678583D01*
X1116535Y2699535D01*
X1095583Y2715612D01*
X1071184Y2725718D01*
X1045000Y2729165D01*
X1018817Y2725718D01*
X994418Y2715612D01*
X973466Y2699535D01*
X957388Y2678583D01*
X947282Y2654184D01*
X943835Y2628000D01*
X947282Y2601816D01*
X957388Y2577418D01*
X973466Y2556466D01*
X978211Y2552824D01*
X978540Y2552366D01*
X994068Y2537839D01*
X999864Y2531592D01*
X1004849Y2525566D01*
X1008878Y2519975D01*
X1011973Y2514879D01*
X1014186Y2510338D01*
X1015596Y2506415D01*
X1016330Y2503119D01*
X1016354Y2502815D01*
Y2413406D01*
X984094D01*
Y2285708D01*
X984093Y2276993D01*
X984094Y2264292D01*
Y2136594D01*
X1115906D01*
Y2171154D01*
X1141926D01*
X1143062Y2171004D01*
X1144406Y2170741D01*
X1145544Y2170439D01*
X1146473Y2170122D01*
X1147230Y2169797D01*
X1147831Y2169480D01*
X1148316Y2169171D01*
X1149437Y2168312D01*
X1150659Y2167710D01*
X1161662Y2160358D01*
X1181288Y2156454D01*
X1200914Y2160358D01*
X1211918Y2167710D01*
X1213140Y2168312D01*
X1214260Y2169171D01*
X1214746Y2169481D01*
X1215348Y2169798D01*
X1216103Y2170121D01*
X1217035Y2170440D01*
X1218170Y2170741D01*
X1219224Y2170947D01*
X1221227Y2171154D01*
X1234094D01*
Y2136594D01*
X1365906D01*
Y2264292D01*
X1365907Y2273007D01*
X1365906Y2285708D01*
Y2413406D01*
X1333646D01*
Y2503623D01*
X1333657Y2503761D01*
X1334384Y2507093D01*
X1335806Y2511215D01*
X1338035Y2516073D01*
X1341140Y2521589D01*
X1345152Y2527695D01*
X1349948Y2534146D01*
X1362849Y2549149D01*
X1368085Y2554586D01*
X1370535Y2556466D01*
X1386612Y2577418D01*
X1396718Y2601816D01*
X1400165Y2628000D01*
X1396718Y2654184D01*
X1386612Y2678583D01*
X1370535Y2699535D01*
X1349583Y2715612D01*
X1325184Y2725718D01*
X1299000Y2729165D01*
D02*
G37*
G36*
X5648000Y2431164D02*
X5621816Y2427717D01*
X5597417Y2417610D01*
X5576465Y2401533D01*
X5560388Y2380581D01*
X5550282Y2356182D01*
X5546835Y2329998D01*
X5550282Y2303815D01*
X5560388Y2279416D01*
X5576465Y2258464D01*
X5597417Y2242387D01*
X5621816Y2232280D01*
X5648000Y2228833D01*
X5674183Y2232280D01*
X5698582Y2242387D01*
X5719534Y2258464D01*
X5735612Y2279416D01*
X5745718Y2303815D01*
X5749165Y2329998D01*
X5745718Y2356182D01*
X5735612Y2380581D01*
X5719534Y2401533D01*
X5698582Y2417610D01*
X5674183Y2427717D01*
X5648000Y2431164D01*
D02*
G37*
G36*
X7510150Y2297306D02*
Y2210148D01*
X7597308D01*
X7595283Y2225529D01*
X7585428Y2249320D01*
X7569752Y2269750D01*
X7549322Y2285426D01*
X7525531Y2295281D01*
X7510150Y2297306D01*
D02*
G37*
G36*
X7489850D02*
X7474469Y2295281D01*
X7450679Y2285426D01*
X7430249Y2269750D01*
X7414572Y2249320D01*
X7404718Y2225529D01*
X7402693Y2210148D01*
X7489850D01*
Y2297306D01*
D02*
G37*
G36*
X-1089850D02*
Y2210148D01*
X-1002693D01*
X-1004718Y2225529D01*
X-1014572Y2249320D01*
X-1030248Y2269750D01*
X-1050678Y2285426D01*
X-1074469Y2295281D01*
X-1089850Y2297306D01*
D02*
G37*
G36*
X-1110150D02*
X-1125531Y2295281D01*
X-1149322Y2285426D01*
X-1169752Y2269750D01*
X-1185428Y2249320D01*
X-1195283Y2225529D01*
X-1197307Y2210148D01*
X-1110150D01*
Y2297306D01*
D02*
G37*
G36*
X6060150Y2258366D02*
Y2164148D01*
X6154368D01*
X6152103Y2181357D01*
X6141542Y2206851D01*
X6124744Y2228743D01*
X6102852Y2245541D01*
X6077358Y2256101D01*
X6060150Y2258366D01*
D02*
G37*
G36*
X6039850D02*
X6022642Y2256101D01*
X5997148Y2245541D01*
X5975256Y2228743D01*
X5958458Y2206851D01*
X5947898Y2181357D01*
X5945632Y2164148D01*
X6039850D01*
Y2258366D01*
D02*
G37*
G36*
X-2539850D02*
Y2164148D01*
X-2445632D01*
X-2447898Y2181357D01*
X-2458458Y2206851D01*
X-2475256Y2228743D01*
X-2497148Y2245541D01*
X-2522642Y2256101D01*
X-2539850Y2258366D01*
D02*
G37*
G36*
X-2560150D02*
X-2577359Y2256101D01*
X-2602852Y2245541D01*
X-2624744Y2228743D01*
X-2641543Y2206851D01*
X-2652103Y2181357D01*
X-2654368Y2164148D01*
X-2560150D01*
Y2258366D01*
D02*
G37*
G36*
X-7325000Y2161481D02*
X-7348528Y2156801D01*
X-7366938Y2144500D01*
X-7371962Y2143211D01*
X-7378038D01*
X-7383062Y2144500D01*
X-7401472Y2156801D01*
X-7425000Y2161481D01*
X-7448528Y2156801D01*
X-7468474Y2143474D01*
X-7468650Y2143211D01*
X-7481350D01*
X-7481526Y2143474D01*
X-7501472Y2156801D01*
X-7525000Y2161481D01*
X-7548528Y2156801D01*
X-7568474Y2143474D01*
X-7581801Y2123528D01*
X-7586481Y2100000D01*
X-7581801Y2076472D01*
X-7568474Y2056526D01*
X-7548528Y2043199D01*
X-7525000Y2038519D01*
X-7501472Y2043199D01*
X-7481526Y2056526D01*
X-7481350Y2056790D01*
X-7468650D01*
X-7468474Y2056526D01*
X-7448528Y2043199D01*
X-7425000Y2038519D01*
X-7401472Y2043199D01*
X-7383062Y2055500D01*
X-7378038Y2056790D01*
X-7371962D01*
X-7366938Y2055500D01*
X-7350317Y2044394D01*
X-7349338Y2037500D01*
X-7350317Y2030606D01*
X-7368474Y2018474D01*
X-7381801Y1998528D01*
X-7386481Y1975000D01*
X-7381801Y1951472D01*
X-7368474Y1931526D01*
X-7348528Y1918199D01*
X-7325000Y1913519D01*
X-7301472Y1918199D01*
X-7281526Y1931526D01*
X-7268199Y1951472D01*
X-7263519Y1975000D01*
X-7268199Y1998528D01*
X-7281526Y2018474D01*
X-7299683Y2030606D01*
X-7300663Y2037500D01*
X-7299683Y2044394D01*
X-7281526Y2056526D01*
X-7268199Y2076472D01*
X-7263519Y2100000D01*
X-7268199Y2123528D01*
X-7281526Y2143474D01*
X-7301472Y2156801D01*
X-7325000Y2161481D01*
D02*
G37*
G36*
X495300Y2210300D02*
X407650D01*
Y2135150D01*
X495300D01*
Y2210300D01*
D02*
G37*
G36*
X387350D02*
X299700D01*
Y2135150D01*
X387350D01*
Y2210300D01*
D02*
G37*
G36*
X-299700D02*
X-387350D01*
Y2135150D01*
X-299700D01*
Y2210300D01*
D02*
G37*
G36*
X-407650D02*
X-495300D01*
Y2135150D01*
X-407650D01*
Y2210300D01*
D02*
G37*
G36*
X7597308Y2189849D02*
X7510150D01*
Y2102691D01*
X7525531Y2104716D01*
X7549322Y2114571D01*
X7569752Y2130247D01*
X7585428Y2150676D01*
X7595283Y2174468D01*
X7597308Y2189849D01*
D02*
G37*
G36*
X7489850D02*
X7402693D01*
X7404718Y2174468D01*
X7414572Y2150676D01*
X7430249Y2130247D01*
X7450679Y2114571D01*
X7474469Y2104716D01*
X7489850Y2102691D01*
Y2189849D01*
D02*
G37*
G36*
X-1002693D02*
X-1089850D01*
Y2102691D01*
X-1074469Y2104716D01*
X-1050678Y2114571D01*
X-1030248Y2130247D01*
X-1014572Y2150676D01*
X-1004718Y2174468D01*
X-1002693Y2189849D01*
D02*
G37*
G36*
X-1110150D02*
X-1197307D01*
X-1195283Y2174468D01*
X-1185428Y2150676D01*
X-1169752Y2130247D01*
X-1149322Y2114571D01*
X-1125531Y2104716D01*
X-1110150Y2102691D01*
Y2189849D01*
D02*
G37*
G36*
X7347800Y2297798D02*
X7152200D01*
Y2102198D01*
X7347800D01*
Y2297798D01*
D02*
G37*
G36*
X-1252200D02*
X-1447800D01*
Y2102198D01*
X-1252200D01*
Y2297798D01*
D02*
G37*
G36*
X7750000Y2298642D02*
X7724469Y2295281D01*
X7700679Y2285426D01*
X7680249Y2269750D01*
X7664572Y2249320D01*
X7654718Y2225529D01*
X7651357Y2199998D01*
X7654718Y2174468D01*
X7664572Y2150676D01*
X7680249Y2130247D01*
X7700679Y2114571D01*
X7724469Y2104716D01*
X7750000Y2101355D01*
X7775531Y2104716D01*
X7799322Y2114571D01*
X7819752Y2130247D01*
X7835428Y2150676D01*
X7845283Y2174468D01*
X7848644Y2199998D01*
X7845283Y2225529D01*
X7835428Y2249320D01*
X7819752Y2269750D01*
X7799322Y2285426D01*
X7775531Y2295281D01*
X7750000Y2298642D01*
D02*
G37*
G36*
X-850000D02*
X-875531Y2295281D01*
X-899322Y2285426D01*
X-919752Y2269750D01*
X-935428Y2249320D01*
X-945283Y2225529D01*
X-948644Y2199998D01*
X-945283Y2174468D01*
X-935428Y2150676D01*
X-919752Y2130247D01*
X-899322Y2114571D01*
X-875531Y2104716D01*
X-850000Y2101355D01*
X-824469Y2104716D01*
X-800678Y2114571D01*
X-780248Y2130247D01*
X-764572Y2150676D01*
X-754718Y2174468D01*
X-751356Y2199998D01*
X-754718Y2225529D01*
X-764572Y2249320D01*
X-780248Y2269750D01*
X-800678Y2285426D01*
X-824469Y2295281D01*
X-850000Y2298642D01*
D02*
G37*
G36*
X-6611800Y2242200D02*
X-6788200D01*
Y2065800D01*
X-6611800D01*
Y2242200D01*
D02*
G37*
G36*
X1807000Y2729165D02*
X1780817Y2725718D01*
X1756418Y2715612D01*
X1735466Y2699535D01*
X1719388Y2678583D01*
X1709282Y2654184D01*
X1705835Y2628000D01*
X1709282Y2601816D01*
X1719388Y2577418D01*
X1735466Y2556466D01*
X1738220Y2554352D01*
X1744072Y2548421D01*
X1757035Y2533664D01*
X1761837Y2527320D01*
X1765856Y2521299D01*
X1768961Y2515853D01*
X1771191Y2511046D01*
X1772612Y2506952D01*
X1773341Y2503625D01*
X1773354Y2503455D01*
Y2413406D01*
X1734094D01*
Y2285708D01*
X1734093Y2276993D01*
X1734094Y2264292D01*
Y2186478D01*
X1605722Y2058106D01*
X495300D01*
Y2114850D01*
X299700D01*
Y2058106D01*
X-299700D01*
Y2114850D01*
X-495300D01*
Y2058106D01*
X-1973955D01*
X-1978266Y2070806D01*
X-1967256Y2079254D01*
X-1950458Y2101146D01*
X-1939898Y2126640D01*
X-1936296Y2153998D01*
X-1939898Y2181357D01*
X-1950458Y2206851D01*
X-1967256Y2228743D01*
X-1989148Y2245541D01*
X-2014642Y2256101D01*
X-2042000Y2259703D01*
X-2069359Y2256101D01*
X-2094852Y2245541D01*
X-2116744Y2228743D01*
X-2133543Y2206851D01*
X-2144103Y2181357D01*
X-2147704Y2153998D01*
X-2144103Y2126640D01*
X-2133543Y2101146D01*
X-2116744Y2079254D01*
X-2105735Y2070806D01*
X-2110046Y2058106D01*
X-2425539D01*
X-2438415Y2055545D01*
X-2449330Y2048252D01*
X-2480504Y2017078D01*
X-2480827Y2016802D01*
X-2483891Y2014865D01*
X-2488091Y2012869D01*
X-2493463Y2010947D01*
X-2499998Y2009205D01*
X-2507660Y2007722D01*
X-2516200Y2006579D01*
X-2537305Y2005265D01*
X-2546257Y2005210D01*
X-2550000Y2005703D01*
X-2577359Y2002101D01*
X-2602852Y1991541D01*
X-2624744Y1974743D01*
X-2641543Y1952851D01*
X-2652103Y1927357D01*
X-2655704Y1899998D01*
X-2652103Y1872640D01*
X-2641543Y1847146D01*
X-2624744Y1825254D01*
X-2602852Y1808456D01*
X-2577359Y1797896D01*
X-2550000Y1794294D01*
X-2522642Y1797896D01*
X-2497148Y1808456D01*
X-2475256Y1825254D01*
X-2458458Y1847146D01*
X-2447898Y1872640D01*
X-2444296Y1899998D01*
X-2444789Y1903741D01*
X-2444734Y1912694D01*
X-2443419Y1933799D01*
X-2442276Y1942339D01*
X-2440794Y1950001D01*
X-2439052Y1956535D01*
X-2437130Y1961908D01*
X-2435134Y1966108D01*
X-2433197Y1969171D01*
X-2432920Y1969496D01*
X-2411602Y1990814D01*
X-2115555D01*
X-2111473Y1978788D01*
X-2116744Y1974743D01*
X-2133543Y1952851D01*
X-2144103Y1927357D01*
X-2147704Y1899998D01*
X-2144103Y1872640D01*
X-2133543Y1847146D01*
X-2116744Y1825254D01*
X-2094852Y1808456D01*
X-2069359Y1797896D01*
X-2042000Y1794294D01*
X-2014642Y1797896D01*
X-1989148Y1808456D01*
X-1967256Y1825254D01*
X-1950458Y1847146D01*
X-1939898Y1872640D01*
X-1936296Y1899998D01*
X-1939898Y1927357D01*
X-1950458Y1952851D01*
X-1967256Y1974743D01*
X-1972528Y1978788D01*
X-1968445Y1990814D01*
X1619658D01*
X1619659Y1990813D01*
X1632535Y1993375D01*
X1643451Y2000668D01*
X1779376Y2136594D01*
X1865906D01*
Y2264292D01*
X1865907Y2273007D01*
X1865906Y2285708D01*
Y2413406D01*
X1840647D01*
Y2503455D01*
X1840660Y2503625D01*
X1841388Y2506952D01*
X1842810Y2511045D01*
X1845040Y2515854D01*
X1848144Y2521299D01*
X1852162Y2527317D01*
X1856964Y2533662D01*
X1869928Y2548421D01*
X1875780Y2554352D01*
X1878535Y2556466D01*
X1894612Y2577418D01*
X1904718Y2601816D01*
X1908165Y2628000D01*
X1904718Y2654184D01*
X1894612Y2678583D01*
X1878535Y2699535D01*
X1857583Y2715612D01*
X1833184Y2725718D01*
X1807000Y2729165D01*
D02*
G37*
G36*
X6154368Y2143849D02*
X6060150D01*
Y2049631D01*
X6077358Y2051896D01*
X6102852Y2062456D01*
X6124744Y2079254D01*
X6141542Y2101146D01*
X6152103Y2126640D01*
X6154368Y2143849D01*
D02*
G37*
G36*
X6039850D02*
X5945632D01*
X5947898Y2126640D01*
X5958458Y2101146D01*
X5975256Y2079254D01*
X5997148Y2062456D01*
X6022642Y2051896D01*
X6039850Y2049631D01*
Y2143849D01*
D02*
G37*
G36*
X-2445632D02*
X-2539850D01*
Y2049631D01*
X-2522642Y2051896D01*
X-2497148Y2062456D01*
X-2475256Y2079254D01*
X-2458458Y2101146D01*
X-2447898Y2126640D01*
X-2445632Y2143849D01*
D02*
G37*
G36*
X-2560150D02*
X-2654368D01*
X-2652103Y2126640D01*
X-2641543Y2101146D01*
X-2624744Y2079254D01*
X-2602852Y2062456D01*
X-2577359Y2051896D01*
X-2560150Y2049631D01*
Y2143849D01*
D02*
G37*
G36*
X6558000Y2259703D02*
X6530642Y2256101D01*
X6505148Y2245541D01*
X6483256Y2228743D01*
X6466458Y2206851D01*
X6455898Y2181357D01*
X6452296Y2153998D01*
X6455898Y2126640D01*
X6466458Y2101146D01*
X6483256Y2079254D01*
X6505148Y2062456D01*
X6530642Y2051896D01*
X6558000Y2048294D01*
X6585358Y2051896D01*
X6610852Y2062456D01*
X6632744Y2079254D01*
X6649542Y2101146D01*
X6660103Y2126640D01*
X6663704Y2153998D01*
X6660103Y2181357D01*
X6649542Y2206851D01*
X6632744Y2228743D01*
X6610852Y2245541D01*
X6585358Y2256101D01*
X6558000Y2259703D01*
D02*
G37*
G36*
X5648000Y2177164D02*
X5621816Y2173717D01*
X5597417Y2163610D01*
X5576465Y2147533D01*
X5560388Y2126581D01*
X5550282Y2102182D01*
X5546835Y2075998D01*
X5550282Y2049815D01*
X5560388Y2025416D01*
X5576465Y2004464D01*
X5597417Y1988387D01*
X5621816Y1978280D01*
X5648000Y1974833D01*
X5674183Y1978280D01*
X5698582Y1988387D01*
X5719534Y2004464D01*
X5735612Y2025416D01*
X5745718Y2049815D01*
X5749165Y2075998D01*
X5745718Y2102182D01*
X5735612Y2126581D01*
X5719534Y2147533D01*
X5698582Y2163610D01*
X5674183Y2173717D01*
X5648000Y2177164D01*
D02*
G37*
G36*
X-6689850Y1987625D02*
Y1910150D01*
X-6612376D01*
X-6614071Y1923025D01*
X-6622958Y1944480D01*
X-6637095Y1962905D01*
X-6655520Y1977043D01*
X-6676975Y1985930D01*
X-6689850Y1987625D01*
D02*
G37*
G36*
X-6710150D02*
X-6723025Y1985930D01*
X-6744481Y1977043D01*
X-6762905Y1962905D01*
X-6777043Y1944480D01*
X-6785930Y1923025D01*
X-6787625Y1910150D01*
X-6710150D01*
Y1987625D01*
D02*
G37*
G36*
X-6612376Y1889850D02*
X-6689850D01*
Y1812375D01*
X-6676975Y1814070D01*
X-6655520Y1822957D01*
X-6637095Y1837095D01*
X-6622958Y1855520D01*
X-6614071Y1876975D01*
X-6612376Y1889850D01*
D02*
G37*
G36*
X-6710150D02*
X-6787625D01*
X-6785930Y1876975D01*
X-6777043Y1855520D01*
X-6762905Y1837095D01*
X-6744481Y1822957D01*
X-6723025Y1814070D01*
X-6710150Y1812375D01*
Y1889850D01*
D02*
G37*
G36*
X6558000Y2005703D02*
X6530642Y2002101D01*
X6505148Y1991541D01*
X6483256Y1974743D01*
X6466458Y1952851D01*
X6455898Y1927357D01*
X6452296Y1899998D01*
X6455898Y1872640D01*
X6466458Y1847146D01*
X6483256Y1825254D01*
X6505148Y1808456D01*
X6530642Y1797896D01*
X6558000Y1794294D01*
X6585358Y1797896D01*
X6610852Y1808456D01*
X6632744Y1825254D01*
X6649542Y1847146D01*
X6660103Y1872640D01*
X6663704Y1899998D01*
X6660103Y1927357D01*
X6649542Y1952851D01*
X6632744Y1974743D01*
X6610852Y1991541D01*
X6585358Y2002101D01*
X6558000Y2005703D01*
D02*
G37*
G36*
X6050000D02*
X6022642Y2002101D01*
X5997148Y1991541D01*
X5975256Y1974743D01*
X5958458Y1952851D01*
X5947898Y1927357D01*
X5944296Y1899998D01*
X5947898Y1872640D01*
X5958458Y1847146D01*
X5975256Y1825254D01*
X5997148Y1808456D01*
X6022642Y1797896D01*
X6050000Y1794294D01*
X6077358Y1797896D01*
X6102852Y1808456D01*
X6124744Y1825254D01*
X6141542Y1847146D01*
X6152103Y1872640D01*
X6155704Y1899998D01*
X6152103Y1927357D01*
X6141542Y1952851D01*
X6124744Y1974743D01*
X6102852Y1991541D01*
X6077358Y2002101D01*
X6050000Y2005703D01*
D02*
G37*
G36*
X5648000Y1923164D02*
X5621816Y1919717D01*
X5597417Y1909610D01*
X5576465Y1893533D01*
X5560388Y1872581D01*
X5550282Y1848182D01*
X5546835Y1821998D01*
X5550282Y1795815D01*
X5560388Y1771416D01*
X5576465Y1750464D01*
X5597417Y1734387D01*
X5621816Y1724280D01*
X5648000Y1720833D01*
X5674183Y1724280D01*
X5698582Y1734387D01*
X5719534Y1750464D01*
X5735612Y1771416D01*
X5745718Y1795815D01*
X5749165Y1821998D01*
X5745718Y1848182D01*
X5735612Y1872581D01*
X5719534Y1893533D01*
X5698582Y1909610D01*
X5674183Y1919717D01*
X5648000Y1923164D01*
D02*
G37*
G36*
X-2952000D02*
X-2978184Y1919717D01*
X-3002583Y1909610D01*
X-3023535Y1893533D01*
X-3039612Y1872581D01*
X-3049718Y1848182D01*
X-3053165Y1821998D01*
X-3052712Y1818555D01*
X-3052768Y1810226D01*
X-3054037Y1790621D01*
X-3055127Y1782741D01*
X-3056543Y1775642D01*
X-3058198Y1769597D01*
X-3060021Y1764620D01*
X-3061910Y1760720D01*
X-3063747Y1757853D01*
X-3063857Y1757725D01*
X-3101292Y1720290D01*
X-3108585Y1709375D01*
X-3111147Y1696499D01*
X-3111146Y1696497D01*
Y1512501D01*
X-3111147Y1512500D01*
X-3108585Y1499624D01*
X-3101292Y1488708D01*
X-3028792Y1416209D01*
X-3028792Y1416208D01*
X-3017876Y1408915D01*
X-3014739Y1408291D01*
X-3011573Y1394712D01*
X-3023535Y1385533D01*
X-3039612Y1364581D01*
X-3049718Y1340182D01*
X-3053165Y1313998D01*
X-3049718Y1287815D01*
X-3039612Y1263416D01*
X-3023535Y1242464D01*
X-3002583Y1226387D01*
X-2978184Y1216280D01*
X-2952000Y1212833D01*
X-2925817Y1216280D01*
X-2901418Y1226387D01*
X-2880466Y1242464D01*
X-2864388Y1263416D01*
X-2854282Y1287815D01*
X-2850835Y1313998D01*
X-2851176Y1316585D01*
X-2839785Y1322202D01*
X-2721291Y1203708D01*
X-2710376Y1196415D01*
X-2697500Y1193853D01*
X-2697499Y1193854D01*
X-1687501D01*
X-1687500Y1193853D01*
X-1674624Y1196415D01*
X-1663708Y1203708D01*
X-1531063Y1336354D01*
X-671437D01*
X-486292Y1151209D01*
X-486292Y1151208D01*
X-475376Y1143915D01*
X-462500Y1141353D01*
X-462499Y1141354D01*
X3500063D01*
X3727143Y914274D01*
X3727253Y914145D01*
X3729091Y911278D01*
X3730980Y907378D01*
X3732802Y902404D01*
X3734457Y896357D01*
X3735873Y889257D01*
X3736963Y881377D01*
X3738233Y861773D01*
X3738288Y853443D01*
X3737835Y850000D01*
X3741282Y823816D01*
X3751388Y799418D01*
X3767466Y778466D01*
X3788418Y762388D01*
X3812817Y752282D01*
X3839000Y748835D01*
X3865184Y752282D01*
X3889583Y762388D01*
X3910535Y778466D01*
X3926612Y799418D01*
X3936718Y823816D01*
X3940165Y850000D01*
X3936718Y876184D01*
X3926612Y900583D01*
X3910535Y921535D01*
X3889583Y937612D01*
X3865184Y947718D01*
X3839000Y951165D01*
X3835557Y950712D01*
X3827228Y950768D01*
X3807623Y952037D01*
X3799743Y953127D01*
X3792644Y954543D01*
X3786598Y956198D01*
X3781622Y958020D01*
X3777722Y959910D01*
X3774855Y961747D01*
X3774726Y961857D01*
X3537792Y1198792D01*
X3526876Y1206085D01*
X3514000Y1208647D01*
X3513999Y1208646D01*
X-448563D01*
X-633708Y1393792D01*
X-644624Y1401085D01*
X-657500Y1403647D01*
X-657501Y1403646D01*
X-1544999D01*
X-1545000Y1403647D01*
X-1557876Y1401085D01*
X-1568792Y1393792D01*
X-1568792Y1393791D01*
X-1701437Y1261146D01*
X-2683563D01*
X-2886208Y1463792D01*
X-2895313Y1469875D01*
X-2896913Y1478509D01*
X-2896759Y1483961D01*
X-2880466Y1496464D01*
X-2864388Y1517416D01*
X-2862506Y1521962D01*
X-2855880Y1524851D01*
X-2849728Y1525339D01*
X-2848774Y1525141D01*
X-2847047Y1524463D01*
X-2613792Y1291209D01*
X-2613792Y1291208D01*
X-2602876Y1283915D01*
X-2590000Y1281354D01*
X-1727501D01*
X-1727500Y1281353D01*
X-1714624Y1283915D01*
X-1703708Y1291208D01*
X-1571063Y1423854D01*
X-633937D01*
X-448792Y1238709D01*
X-448791Y1238708D01*
X-437876Y1231415D01*
X-425000Y1228853D01*
X-424998Y1228854D01*
X3920563D01*
X4235144Y914273D01*
X4235253Y914145D01*
X4237091Y911278D01*
X4238980Y907378D01*
X4240802Y902404D01*
X4242457Y896357D01*
X4243873Y889257D01*
X4244963Y881377D01*
X4246233Y861773D01*
X4246288Y853443D01*
X4245835Y850000D01*
X4249282Y823816D01*
X4259388Y799418D01*
X4275466Y778466D01*
X4296418Y762388D01*
X4320817Y752282D01*
X4347000Y748835D01*
X4373184Y752282D01*
X4397583Y762388D01*
X4418535Y778466D01*
X4434612Y799418D01*
X4444718Y823816D01*
X4448165Y850000D01*
X4444718Y876184D01*
X4434612Y900583D01*
X4418535Y921535D01*
X4397583Y937612D01*
X4373184Y947718D01*
X4347000Y951165D01*
X4343557Y950712D01*
X4335228Y950768D01*
X4315623Y952037D01*
X4307743Y953127D01*
X4300644Y954543D01*
X4294598Y956198D01*
X4289622Y958020D01*
X4285722Y959910D01*
X4282855Y961747D01*
X4282727Y961856D01*
X3958292Y1286292D01*
X3947376Y1293585D01*
X3934500Y1296147D01*
X3934499Y1296146D01*
X-411063D01*
X-596208Y1481292D01*
X-607124Y1488585D01*
X-620000Y1491147D01*
X-620001Y1491146D01*
X-1584999D01*
X-1585000Y1491147D01*
X-1597876Y1488585D01*
X-1608792Y1481292D01*
X-1608792Y1481291D01*
X-1741437Y1348646D01*
X-2576063D01*
X-2819207Y1591790D01*
X-2830122Y1599084D01*
X-2842998Y1601645D01*
X-2843000Y1601645D01*
X-2847089D01*
X-2849257Y1601929D01*
X-2851614Y1602484D01*
X-2853515Y1603161D01*
X-2855047Y1603924D01*
X-2856327Y1604779D01*
X-2857472Y1605779D01*
X-2858567Y1607013D01*
X-2859656Y1608594D01*
X-2861244Y1611571D01*
X-2861732Y1612167D01*
X-2864388Y1618581D01*
X-2880466Y1639533D01*
X-2901418Y1655610D01*
X-2925817Y1665717D01*
X-2952000Y1669164D01*
X-2978184Y1665717D01*
X-3002583Y1655610D01*
X-3023535Y1639533D01*
X-3031154Y1629604D01*
X-3043854Y1633915D01*
Y1682562D01*
X-3016274Y1710142D01*
X-3016145Y1710252D01*
X-3013278Y1712089D01*
X-3009378Y1713978D01*
X-3004404Y1715800D01*
X-2998357Y1717456D01*
X-2991257Y1718871D01*
X-2983378Y1719961D01*
X-2963773Y1721231D01*
X-2955443Y1721287D01*
X-2952000Y1720833D01*
X-2925817Y1724280D01*
X-2901418Y1734387D01*
X-2880466Y1750464D01*
X-2864388Y1771416D01*
X-2854282Y1795815D01*
X-2850835Y1821998D01*
X-2854282Y1848182D01*
X-2864388Y1872581D01*
X-2880466Y1893533D01*
X-2901418Y1909610D01*
X-2925817Y1919717D01*
X-2952000Y1923164D01*
D02*
G37*
G36*
Y2431164D02*
X-2978184Y2427717D01*
X-3002583Y2417610D01*
X-3023535Y2401533D01*
X-3039612Y2380581D01*
X-3049718Y2356182D01*
X-3053165Y2329998D01*
X-3049718Y2303815D01*
X-3039612Y2279416D01*
X-3023535Y2258464D01*
X-3002583Y2242387D01*
X-2978184Y2232280D01*
X-2952000Y2228833D01*
X-2948557Y2229287D01*
X-2940228Y2229231D01*
X-2920623Y2227961D01*
X-2912743Y2226871D01*
X-2905644Y2225456D01*
X-2899598Y2223801D01*
X-2894622Y2221978D01*
X-2890722Y2220089D01*
X-2887855Y2218251D01*
X-2887727Y2218142D01*
X-2798646Y2129062D01*
Y1677501D01*
X-2798647Y1677500D01*
X-2796085Y1664624D01*
X-2788792Y1653708D01*
X-2513792Y1378709D01*
X-2513792Y1378708D01*
X-2502876Y1371415D01*
X-2490000Y1368854D01*
X-1780001D01*
X-1780000Y1368853D01*
X-1767124Y1371415D01*
X-1756208Y1378708D01*
X-1623563Y1511354D01*
X-596437D01*
X-411292Y1326209D01*
X-411291Y1326208D01*
X-400376Y1318915D01*
X-387500Y1316353D01*
X-387498Y1316353D01*
X4087063D01*
X4493125Y910292D01*
X4497082Y906037D01*
X4499813Y902641D01*
X4500700Y901376D01*
Y749700D01*
X4701300D01*
Y950300D01*
X4549624D01*
X4548588Y951027D01*
X4541743Y956841D01*
X4124792Y1373792D01*
X4113876Y1381085D01*
X4101000Y1383646D01*
X4100999Y1383646D01*
X153421D01*
X140906Y1384094D01*
X140906Y1396346D01*
Y1439850D01*
X72670D01*
Y1450000D01*
X62520D01*
Y1515906D01*
X8265D01*
X-4435Y1515907D01*
X-8265Y1515906D01*
X-39024D01*
Y1633494D01*
X-38866Y1634542D01*
X-38615Y1635667D01*
X-38345Y1636550D01*
X-38078Y1637225D01*
X-37909Y1637561D01*
X-36406Y1638565D01*
X-35299Y1640223D01*
X-34919Y1640415D01*
X-34260Y1640678D01*
X-33389Y1640946D01*
X-32278Y1641196D01*
X-31237Y1641354D01*
X71812D01*
X72671Y1641183D01*
X73529Y1641354D01*
X299700D01*
Y1589700D01*
X495300D01*
Y1760300D01*
X299700D01*
Y1708646D01*
X72501D01*
X72500Y1708647D01*
X72499Y1708646D01*
X-31435D01*
X-32490Y1708805D01*
X-33628Y1709057D01*
X-34526Y1709329D01*
X-35217Y1709601D01*
X-35505Y1709744D01*
X-36406Y1711094D01*
X-53045Y1722211D01*
X-72671Y1726115D01*
X-92297Y1722211D01*
X-108935Y1711094D01*
X-109837Y1709744D01*
X-110124Y1709601D01*
X-110816Y1709329D01*
X-111713Y1709057D01*
X-112851Y1708805D01*
X-113907Y1708646D01*
X-299700D01*
Y1760300D01*
X-495300D01*
Y1589700D01*
X-299700D01*
Y1641354D01*
X-114104D01*
X-113064Y1641196D01*
X-111952Y1640945D01*
X-111081Y1640678D01*
X-110422Y1640414D01*
X-110042Y1640223D01*
X-108935Y1638565D01*
X-107432Y1637561D01*
X-107264Y1637226D01*
X-106996Y1636551D01*
X-106726Y1635666D01*
X-106475Y1634542D01*
X-106317Y1633494D01*
Y1515906D01*
X-140906D01*
X-140906Y1384094D01*
X-153421Y1383646D01*
X-373563D01*
X-558708Y1568792D01*
X-569624Y1576085D01*
X-582500Y1578647D01*
X-582501Y1578646D01*
X-1637500D01*
X-1650376Y1576085D01*
X-1661292Y1568792D01*
X-1661292Y1568791D01*
X-1793937Y1436146D01*
X-2476063D01*
X-2570040Y1530123D01*
X-2564108Y1542152D01*
X-2550000Y1540294D01*
X-2522642Y1543896D01*
X-2497148Y1554456D01*
X-2475256Y1571254D01*
X-2458458Y1593146D01*
X-2447898Y1618640D01*
X-2444296Y1645998D01*
X-2447898Y1673357D01*
X-2458458Y1698851D01*
X-2475256Y1720743D01*
X-2497148Y1737541D01*
X-2522642Y1748101D01*
X-2550000Y1751703D01*
X-2577359Y1748101D01*
X-2602852Y1737541D01*
X-2624744Y1720743D01*
X-2641543Y1698851D01*
X-2652103Y1673357D01*
X-2655704Y1645998D01*
X-2653847Y1631891D01*
X-2665876Y1625959D01*
X-2731354Y1691437D01*
Y2142997D01*
X-2731353Y2142998D01*
X-2733915Y2155874D01*
X-2741208Y2166790D01*
X-2741209Y2166790D01*
X-2840143Y2265725D01*
X-2840253Y2265853D01*
X-2842091Y2268721D01*
X-2843980Y2272621D01*
X-2845802Y2277594D01*
X-2847457Y2283642D01*
X-2848873Y2290741D01*
X-2849963Y2298621D01*
X-2851233Y2318226D01*
X-2851288Y2326555D01*
X-2850835Y2329998D01*
X-2854282Y2356182D01*
X-2864388Y2380581D01*
X-2880466Y2401533D01*
X-2901418Y2417610D01*
X-2925817Y2427717D01*
X-2952000Y2431164D01*
D02*
G37*
G36*
X-6700000Y1734961D02*
X-6723025Y1731930D01*
X-6744481Y1723043D01*
X-6762905Y1708905D01*
X-6777043Y1690480D01*
X-6785930Y1669025D01*
X-6788961Y1646000D01*
X-6785930Y1622975D01*
X-6777043Y1601520D01*
X-6762905Y1583095D01*
X-6744481Y1568957D01*
X-6723025Y1560070D01*
X-6700000Y1557039D01*
X-6676975Y1560070D01*
X-6655520Y1568957D01*
X-6637095Y1583095D01*
X-6622958Y1601520D01*
X-6614071Y1622975D01*
X-6611039Y1646000D01*
X-6614071Y1669025D01*
X-6622958Y1690480D01*
X-6637095Y1708905D01*
X-6655520Y1723043D01*
X-6676975Y1731930D01*
X-6700000Y1734961D01*
D02*
G37*
G36*
X-5570000Y1551286D02*
X-5589626Y1547382D01*
X-5600000Y1540450D01*
X-5610374Y1547382D01*
X-5630000Y1551286D01*
X-5649626Y1547382D01*
X-5666264Y1536265D01*
X-5677381Y1519626D01*
X-5681285Y1500000D01*
X-5677381Y1480374D01*
X-5666264Y1463736D01*
X-5649626Y1452619D01*
X-5630000Y1448715D01*
X-5610374Y1452619D01*
X-5600000Y1459550D01*
X-5589626Y1452619D01*
X-5570000Y1448715D01*
X-5550374Y1452619D01*
X-5533735Y1463736D01*
X-5522618Y1480374D01*
X-5518714Y1500000D01*
X-5522618Y1519626D01*
X-5533735Y1536265D01*
X-5550374Y1547382D01*
X-5570000Y1551286D01*
D02*
G37*
G36*
X6558000Y1751703D02*
X6530642Y1748101D01*
X6505148Y1737541D01*
X6483256Y1720743D01*
X6466458Y1698851D01*
X6455898Y1673357D01*
X6452296Y1645998D01*
X6455898Y1618640D01*
X6466458Y1593146D01*
X6483256Y1571254D01*
X6505148Y1554456D01*
X6530642Y1543896D01*
X6558000Y1540294D01*
X6585358Y1543896D01*
X6610852Y1554456D01*
X6632744Y1571254D01*
X6649542Y1593146D01*
X6660103Y1618640D01*
X6663704Y1645998D01*
X6660103Y1673357D01*
X6649542Y1698851D01*
X6632744Y1720743D01*
X6610852Y1737541D01*
X6585358Y1748101D01*
X6558000Y1751703D01*
D02*
G37*
G36*
X6050000D02*
X6022642Y1748101D01*
X5997148Y1737541D01*
X5975256Y1720743D01*
X5958458Y1698851D01*
X5947898Y1673357D01*
X5944296Y1645998D01*
X5947898Y1618640D01*
X5958458Y1593146D01*
X5975256Y1571254D01*
X5997148Y1554456D01*
X6022642Y1543896D01*
X6050000Y1540294D01*
X6077358Y1543896D01*
X6102852Y1554456D01*
X6124744Y1571254D01*
X6141542Y1593146D01*
X6152103Y1618640D01*
X6155704Y1645998D01*
X6152103Y1673357D01*
X6141542Y1698851D01*
X6124744Y1720743D01*
X6102852Y1737541D01*
X6077358Y1748101D01*
X6050000Y1751703D01*
D02*
G37*
G36*
X-2042000D02*
X-2069359Y1748101D01*
X-2094852Y1737541D01*
X-2116744Y1720743D01*
X-2133543Y1698851D01*
X-2144103Y1673357D01*
X-2147704Y1645998D01*
X-2144103Y1618640D01*
X-2133543Y1593146D01*
X-2116744Y1571254D01*
X-2094852Y1554456D01*
X-2069359Y1543896D01*
X-2042000Y1540294D01*
X-2014642Y1543896D01*
X-1989148Y1554456D01*
X-1967256Y1571254D01*
X-1950458Y1593146D01*
X-1939898Y1618640D01*
X-1936296Y1645998D01*
X-1939898Y1673357D01*
X-1950458Y1698851D01*
X-1967256Y1720743D01*
X-1989148Y1737541D01*
X-2014642Y1748101D01*
X-2042000Y1751703D01*
D02*
G37*
G36*
X5648000Y1669164D02*
X5621816Y1665717D01*
X5597417Y1655610D01*
X5576465Y1639533D01*
X5560388Y1618581D01*
X5550282Y1594182D01*
X5546835Y1567998D01*
X5550282Y1541815D01*
X5560388Y1517416D01*
X5576465Y1496464D01*
X5597417Y1480387D01*
X5621816Y1470280D01*
X5648000Y1466833D01*
X5674183Y1470280D01*
X5698582Y1480387D01*
X5719534Y1496464D01*
X5735612Y1517416D01*
X5745718Y1541815D01*
X5749165Y1567998D01*
X5745718Y1594182D01*
X5735612Y1618581D01*
X5719534Y1639533D01*
X5698582Y1655610D01*
X5674183Y1665717D01*
X5648000Y1669164D01*
D02*
G37*
G36*
X82820Y1515906D02*
Y1460150D01*
X140906D01*
Y1515906D01*
X82820D01*
D02*
G37*
G36*
X-6267524Y1531285D02*
X-6287150Y1527381D01*
X-6303789Y1516264D01*
X-6314906Y1499626D01*
X-6318810Y1480000D01*
X-6314906Y1460374D01*
X-6303789Y1443735D01*
X-6287150Y1432618D01*
X-6267524Y1428714D01*
X-6247898Y1432618D01*
X-6231260Y1443735D01*
X-6220143Y1460374D01*
X-6216239Y1480000D01*
X-6220143Y1499626D01*
X-6231260Y1516264D01*
X-6247898Y1527381D01*
X-6267524Y1531285D01*
D02*
G37*
G36*
X-6190000Y1438785D02*
X-6209626Y1434881D01*
X-6226264Y1423764D01*
X-6237381Y1407126D01*
X-6241285Y1387500D01*
X-6237381Y1367874D01*
X-6226264Y1351236D01*
X-6209626Y1340118D01*
X-6190000Y1336214D01*
X-6170374Y1340118D01*
X-6153736Y1351236D01*
X-6142619Y1367874D01*
X-6138715Y1387500D01*
X-6142619Y1407126D01*
X-6153736Y1423764D01*
X-6170374Y1434881D01*
X-6190000Y1438785D01*
D02*
G37*
G36*
X5648000Y1415164D02*
X5621816Y1411717D01*
X5597417Y1401610D01*
X5576465Y1385533D01*
X5560388Y1364581D01*
X5550282Y1340182D01*
X5546835Y1313998D01*
X5550282Y1287815D01*
X5560388Y1263416D01*
X5576465Y1242464D01*
X5597417Y1226387D01*
X5621816Y1216280D01*
X5648000Y1212833D01*
X5674183Y1216280D01*
X5698582Y1226387D01*
X5719534Y1242464D01*
X5735612Y1263416D01*
X5745718Y1287815D01*
X5749165Y1313998D01*
X5745718Y1340182D01*
X5735612Y1364581D01*
X5719534Y1385533D01*
X5698582Y1401610D01*
X5674183Y1411717D01*
X5648000Y1415164D01*
D02*
G37*
G36*
X7854320Y1264503D02*
Y1154318D01*
X7964505D01*
X7961695Y1175659D01*
X7949540Y1205004D01*
X7930205Y1230203D01*
X7905006Y1249539D01*
X7875661Y1261693D01*
X7854320Y1264503D01*
D02*
G37*
G36*
X7834020D02*
X7812680Y1261693D01*
X7783335Y1249539D01*
X7758136Y1230203D01*
X7738800Y1205004D01*
X7726645Y1175659D01*
X7723836Y1154318D01*
X7834020D01*
Y1264503D01*
D02*
G37*
G36*
X7165980D02*
Y1154318D01*
X7276165D01*
X7273355Y1175659D01*
X7261200Y1205004D01*
X7241865Y1230203D01*
X7216666Y1249539D01*
X7187321Y1261693D01*
X7165980Y1264503D01*
D02*
G37*
G36*
X7145680D02*
X7124340Y1261693D01*
X7094995Y1249539D01*
X7069796Y1230203D01*
X7050460Y1205004D01*
X7038305Y1175659D01*
X7035496Y1154318D01*
X7145680D01*
Y1264503D01*
D02*
G37*
G36*
X7964505Y1134019D02*
X7854320D01*
Y1023834D01*
X7875661Y1026643D01*
X7905006Y1038798D01*
X7930205Y1058134D01*
X7949540Y1083333D01*
X7961695Y1112678D01*
X7964505Y1134019D01*
D02*
G37*
G36*
X7834020D02*
X7723836D01*
X7726645Y1112678D01*
X7738800Y1083333D01*
X7758136Y1058134D01*
X7783335Y1038798D01*
X7812680Y1026643D01*
X7834020Y1023834D01*
Y1134019D01*
D02*
G37*
G36*
X7276165D02*
X7165980D01*
Y1023834D01*
X7187321Y1026643D01*
X7216666Y1038798D01*
X7241865Y1058134D01*
X7261200Y1083333D01*
X7273355Y1112678D01*
X7276165Y1134019D01*
D02*
G37*
G36*
X7145680D02*
X7035496D01*
X7038305Y1112678D01*
X7050460Y1083333D01*
X7069796Y1058134D01*
X7094995Y1038798D01*
X7124340Y1026643D01*
X7145680Y1023834D01*
Y1134019D01*
D02*
G37*
G36*
X6158898Y1107854D02*
X6139272Y1103950D01*
X6122633Y1092833D01*
X6111516Y1076194D01*
X6107612Y1056568D01*
X6111516Y1036942D01*
X6122633Y1020304D01*
X6139272Y1009187D01*
X6158898Y1005283D01*
X6178524Y1009187D01*
X6195162Y1020304D01*
X6206279Y1036942D01*
X6210183Y1056568D01*
X6206279Y1076194D01*
X6195162Y1092833D01*
X6178524Y1103950D01*
X6158898Y1107854D01*
D02*
G37*
G36*
X4958000Y1166724D02*
X4928595Y1163828D01*
X4900320Y1155251D01*
X4874261Y1141322D01*
X4851421Y1122578D01*
X4832676Y1099737D01*
X4818748Y1073679D01*
X4810170Y1045404D01*
X4807274Y1015998D01*
X4810170Y986593D01*
X4818748Y958318D01*
X4832676Y932260D01*
X4851421Y909419D01*
X4874261Y890675D01*
X4900320Y876746D01*
X4928595Y868169D01*
X4958000Y865273D01*
X4987405Y868169D01*
X5015680Y876746D01*
X5041739Y890675D01*
X5064579Y909419D01*
X5083324Y932260D01*
X5097252Y958318D01*
X5105830Y986593D01*
X5108726Y1015998D01*
X5105830Y1045404D01*
X5097252Y1073679D01*
X5083324Y1099737D01*
X5064579Y1122578D01*
X5041739Y1141322D01*
X5015680Y1155251D01*
X4987405Y1163828D01*
X4958000Y1166724D01*
D02*
G37*
G36*
X-3642000D02*
X-3671405Y1163828D01*
X-3699680Y1155251D01*
X-3725739Y1141322D01*
X-3748579Y1122578D01*
X-3767324Y1099737D01*
X-3781253Y1073679D01*
X-3789830Y1045404D01*
X-3792726Y1015998D01*
X-3789830Y986593D01*
X-3781253Y958318D01*
X-3767324Y932260D01*
X-3748579Y909419D01*
X-3725739Y890675D01*
X-3699680Y876746D01*
X-3671405Y868169D01*
X-3642000Y865273D01*
X-3612595Y868169D01*
X-3584320Y876746D01*
X-3558261Y890675D01*
X-3535421Y909419D01*
X-3516676Y932260D01*
X-3502748Y958318D01*
X-3494171Y986593D01*
X-3491274Y1015998D01*
X-3494171Y1045404D01*
X-3502748Y1073679D01*
X-3516676Y1099737D01*
X-3535421Y1122578D01*
X-3558261Y1141322D01*
X-3584320Y1155251D01*
X-3612595Y1163828D01*
X-3642000Y1166724D01*
D02*
G37*
G36*
X293149Y949829D02*
Y860150D01*
X382829D01*
X380718Y876184D01*
X370612Y900583D01*
X354535Y921535D01*
X333583Y937612D01*
X309184Y947718D01*
X293149Y949829D01*
D02*
G37*
G36*
X4103149D02*
Y860150D01*
X4192829D01*
X4190718Y876184D01*
X4180612Y900583D01*
X4164535Y921535D01*
X4143583Y937612D01*
X4119184Y947718D01*
X4103149Y949829D01*
D02*
G37*
G36*
X1563149D02*
Y860150D01*
X1652829D01*
X1650718Y876184D01*
X1640612Y900583D01*
X1624535Y921535D01*
X1603583Y937612D01*
X1579184Y947718D01*
X1563149Y949829D01*
D02*
G37*
G36*
X2833149D02*
Y860150D01*
X2922829D01*
X2920718Y876184D01*
X2910612Y900583D01*
X2894535Y921535D01*
X2873583Y937612D01*
X2849184Y947718D01*
X2833149Y949829D01*
D02*
G37*
G36*
X4082849Y949829D02*
X4066817Y947718D01*
X4042418Y937612D01*
X4021466Y921535D01*
X4005388Y900583D01*
X3995282Y876184D01*
X3993171Y860150D01*
X4082849D01*
Y949829D01*
D02*
G37*
G36*
X272849D02*
X256817Y947718D01*
X232418Y937612D01*
X211466Y921535D01*
X195388Y900583D01*
X185282Y876184D01*
X183171Y860150D01*
X272849D01*
Y949829D01*
D02*
G37*
G36*
X2812849D02*
X2796817Y947718D01*
X2772418Y937612D01*
X2751466Y921535D01*
X2735388Y900583D01*
X2725282Y876184D01*
X2723171Y860150D01*
X2812849D01*
Y949829D01*
D02*
G37*
G36*
X1542849D02*
X1526817Y947718D01*
X1502418Y937612D01*
X1481466Y921535D01*
X1465388Y900583D01*
X1455282Y876184D01*
X1453171Y860150D01*
X1542849D01*
Y949829D01*
D02*
G37*
G36*
X29000Y951165D02*
X2817Y947718D01*
X-21582Y937612D01*
X-42534Y921535D01*
X-58612Y900583D01*
X-68718Y876184D01*
X-72165Y850000D01*
X-68718Y823816D01*
X-58612Y799418D01*
X-44331Y780806D01*
X-48059Y768106D01*
X-147941D01*
X-151669Y780806D01*
X-137388Y799418D01*
X-127282Y823816D01*
X-123835Y850000D01*
X-127282Y876184D01*
X-137388Y900583D01*
X-153465Y921535D01*
X-174417Y937612D01*
X-198816Y947718D01*
X-225000Y951165D01*
X-251183Y947718D01*
X-275582Y937612D01*
X-296534Y921535D01*
X-312612Y900583D01*
X-322718Y876184D01*
X-326165Y850000D01*
X-322718Y823816D01*
X-312612Y799418D01*
X-296534Y778466D01*
X-278453Y764591D01*
X-275955Y754103D01*
X-276190Y748893D01*
X-306437Y718646D01*
X-1029833D01*
X-1033915Y730672D01*
X-1032081Y732080D01*
X-1016817Y751973D01*
X-1007221Y775138D01*
X-1003948Y799998D01*
X-1007221Y824858D01*
X-1016817Y848024D01*
X-1032081Y867917D01*
X-1051974Y883182D01*
X-1075140Y892777D01*
X-1100000Y896050D01*
X-1124860Y892777D01*
X-1148026Y883182D01*
X-1167919Y867917D01*
X-1183183Y848024D01*
X-1192779Y824858D01*
X-1196052Y799998D01*
X-1192779Y775138D01*
X-1183183Y751973D01*
X-1167919Y732080D01*
X-1166085Y730672D01*
X-1170167Y718646D01*
X-2787235D01*
X-2788283Y718805D01*
X-2789407Y719056D01*
X-2790291Y719325D01*
X-2790966Y719593D01*
X-2791302Y719761D01*
X-2792306Y721264D01*
X-2808944Y732381D01*
X-2828570Y736285D01*
X-2848196Y732381D01*
X-2864835Y721264D01*
X-2875952Y704626D01*
X-2879856Y685000D01*
X-2875952Y665374D01*
X-2864835Y648736D01*
X-2848196Y637618D01*
X-2828570Y633715D01*
X-2808944Y637618D01*
X-2792306Y648736D01*
X-2791302Y650238D01*
X-2790967Y650407D01*
X-2790292Y650675D01*
X-2789407Y650944D01*
X-2788283Y651195D01*
X-2787235Y651354D01*
X-292501D01*
X-292500Y651353D01*
X-279624Y653915D01*
X-268708Y661208D01*
X-229103Y700814D01*
X-215863D01*
X-211003Y689080D01*
X-271437Y628646D01*
X-2762499D01*
X-2762500Y628647D01*
X-2775376Y626085D01*
X-2786292Y618792D01*
X-2786292Y618791D01*
X-2797063Y608020D01*
X-2797917Y607390D01*
X-2798889Y606773D01*
X-2799707Y606338D01*
X-2800370Y606051D01*
X-2800727Y605933D01*
X-2802500Y606285D01*
X-2822126Y602381D01*
X-2838764Y591264D01*
X-2849882Y574626D01*
X-2853786Y555000D01*
X-2849882Y535374D01*
X-2838764Y518736D01*
X-2822126Y507618D01*
X-2802500Y503715D01*
X-2782874Y507618D01*
X-2766236Y518736D01*
X-2755119Y535374D01*
X-2751215Y555000D01*
X-2740517Y561354D01*
X-2667768D01*
X-2666517Y548654D01*
X-2679626Y546046D01*
X-2696264Y534929D01*
X-2707381Y518291D01*
X-2711285Y498665D01*
X-2707381Y479039D01*
X-2696264Y462400D01*
X-2679626Y451283D01*
X-2660000Y447379D01*
X-2640374Y451283D01*
X-2623736Y462400D01*
X-2612619Y479039D01*
X-2608715Y498665D01*
X-2612619Y518291D01*
X-2623736Y534929D01*
X-2640374Y546046D01*
X-2653483Y548654D01*
X-2652232Y561354D01*
X-1525665D01*
X-1521354Y548654D01*
X-1530204Y541863D01*
X-1549540Y516664D01*
X-1561695Y487319D01*
X-1564505Y465978D01*
X-1323836D01*
X-1326645Y487319D01*
X-1338800Y516664D01*
X-1358136Y541863D01*
X-1366986Y548654D01*
X-1362675Y561354D01*
X-837325D01*
X-833014Y548654D01*
X-841864Y541863D01*
X-861200Y516664D01*
X-873355Y487319D01*
X-876165Y465978D01*
X-635496D01*
X-638305Y487319D01*
X-650460Y516664D01*
X-669796Y541863D01*
X-678646Y548654D01*
X-674335Y561354D01*
X-257501D01*
X-257500Y561353D01*
X-249470Y562951D01*
X-244658Y557247D01*
X-242673Y551354D01*
X-255872Y535900D01*
X-281803Y493584D01*
X-300795Y447733D01*
X-312381Y399475D01*
X-316275Y349999D01*
X-312381Y300522D01*
X-300795Y252264D01*
X-281803Y206413D01*
X-255872Y164097D01*
X-223640Y126359D01*
X-185902Y94127D01*
X-143586Y68196D01*
X-97735Y49203D01*
X-49476Y37618D01*
X-0Y33724D01*
X49476Y37618D01*
X97734Y49203D01*
X143585Y68196D01*
X185901Y94127D01*
X223640Y126359D01*
X255871Y164097D01*
X281803Y206413D01*
X300795Y252264D01*
X312381Y300522D01*
X316274Y349999D01*
X312381Y399475D01*
X300795Y447733D01*
X281803Y493584D01*
X263492Y523465D01*
X273535Y531382D01*
X319163Y485754D01*
X319164Y485753D01*
X330079Y478460D01*
X342955Y475898D01*
X342957Y475899D01*
X5532482D01*
X5533530Y475740D01*
X5534654Y475489D01*
X5535538Y475220D01*
X5536213Y474952D01*
X5536548Y474784D01*
X5537553Y473281D01*
X5554191Y462164D01*
X5573817Y458260D01*
X5593443Y462164D01*
X5610081Y473281D01*
X5621199Y489919D01*
X5625103Y509545D01*
X5621199Y529171D01*
X5610081Y545809D01*
X5593443Y556926D01*
X5573817Y560830D01*
X5554191Y556926D01*
X5537553Y545809D01*
X5536548Y544307D01*
X5536214Y544138D01*
X5535539Y543870D01*
X5534654Y543601D01*
X5533530Y543350D01*
X5532482Y543191D01*
X356892D01*
X211003Y689080D01*
X215864Y700814D01*
X296603D01*
X371208Y626209D01*
X371208Y626208D01*
X382124Y618915D01*
X395000Y616354D01*
X5536164D01*
X5537213Y616195D01*
X5538337Y615944D01*
X5539221Y615675D01*
X5539896Y615407D01*
X5540231Y615239D01*
X5541236Y613736D01*
X5557874Y602619D01*
X5577500Y598715D01*
X5597126Y602619D01*
X5613764Y613736D01*
X5624881Y630374D01*
X5628785Y650000D01*
X5624881Y669626D01*
X5613764Y686264D01*
X5597126Y697381D01*
X5577500Y701285D01*
X5557874Y697381D01*
X5541236Y686264D01*
X5540231Y684761D01*
X5539896Y684593D01*
X5539221Y684325D01*
X5538337Y684056D01*
X5537212Y683805D01*
X5536165Y683646D01*
X408937D01*
X340491Y752092D01*
X341080Y767817D01*
X341579Y768524D01*
X354535Y778466D01*
X370612Y799418D01*
X380718Y823816D01*
X382829Y839850D01*
X282999D01*
X183171D01*
X185282Y823816D01*
X195388Y799418D01*
X209669Y780806D01*
X205941Y768106D01*
X106059D01*
X102331Y780806D01*
X116612Y799418D01*
X126718Y823816D01*
X130165Y850000D01*
X126718Y876184D01*
X116612Y900583D01*
X100535Y921535D01*
X79583Y937612D01*
X55184Y947718D01*
X29000Y951165D01*
D02*
G37*
G36*
X4082849Y839850D02*
X3993171D01*
X3995282Y823816D01*
X4005388Y799418D01*
X4021466Y778466D01*
X4042418Y762388D01*
X4066817Y752282D01*
X4082849Y750171D01*
Y839850D01*
D02*
G37*
G36*
X2812849D02*
X2723171D01*
X2725282Y823816D01*
X2735388Y799418D01*
X2751466Y778466D01*
X2772418Y762388D01*
X2796817Y752282D01*
X2812849Y750171D01*
Y839850D01*
D02*
G37*
G36*
X1542849D02*
X1453171D01*
X1455282Y823816D01*
X1465388Y799418D01*
X1481466Y778466D01*
X1502418Y762388D01*
X1526817Y752282D01*
X1542849Y750171D01*
Y839850D01*
D02*
G37*
G36*
X4192829D02*
X4103149D01*
Y750171D01*
X4119184Y752282D01*
X4143583Y762388D01*
X4164535Y778466D01*
X4180612Y799418D01*
X4190718Y823816D01*
X4192829Y839850D01*
D02*
G37*
G36*
X2922829D02*
X2833149D01*
Y750171D01*
X2849184Y752282D01*
X2873583Y762388D01*
X2894535Y778466D01*
X2910612Y799418D01*
X2920718Y823816D01*
X2922829Y839850D01*
D02*
G37*
G36*
X1652829D02*
X1563149D01*
Y750171D01*
X1579184Y752282D01*
X1603583Y762388D01*
X1624535Y778466D01*
X1640612Y799418D01*
X1650718Y823816D01*
X1652829Y839850D01*
D02*
G37*
G36*
X3077000Y951165D02*
X3050817Y947718D01*
X3026418Y937612D01*
X3005466Y921535D01*
X2989388Y900583D01*
X2979282Y876184D01*
X2975835Y850000D01*
X2979282Y823816D01*
X2989388Y799418D01*
X3005466Y778466D01*
X3026418Y762388D01*
X3050817Y752282D01*
X3077000Y748835D01*
X3103184Y752282D01*
X3127583Y762388D01*
X3148535Y778466D01*
X3164612Y799418D01*
X3174718Y823816D01*
X3178165Y850000D01*
X3174718Y876184D01*
X3164612Y900583D01*
X3148535Y921535D01*
X3127583Y937612D01*
X3103184Y947718D01*
X3077000Y951165D01*
D02*
G37*
G36*
X2569000D02*
X2542817Y947718D01*
X2518418Y937612D01*
X2497466Y921535D01*
X2481388Y900583D01*
X2471282Y876184D01*
X2467835Y850000D01*
X2471282Y823816D01*
X2481388Y799418D01*
X2497466Y778466D01*
X2518418Y762388D01*
X2542817Y752282D01*
X2569000Y748835D01*
X2595184Y752282D01*
X2619583Y762388D01*
X2640535Y778466D01*
X2656612Y799418D01*
X2666718Y823816D01*
X2670165Y850000D01*
X2666718Y876184D01*
X2656612Y900583D01*
X2640535Y921535D01*
X2619583Y937612D01*
X2595184Y947718D01*
X2569000Y951165D01*
D02*
G37*
G36*
X2315000D02*
X2288817Y947718D01*
X2264418Y937612D01*
X2243466Y921535D01*
X2227388Y900583D01*
X2217282Y876184D01*
X2213835Y850000D01*
X2217282Y823816D01*
X2227388Y799418D01*
X2243466Y778466D01*
X2264418Y762388D01*
X2288817Y752282D01*
X2315000Y748835D01*
X2341184Y752282D01*
X2365583Y762388D01*
X2386535Y778466D01*
X2402612Y799418D01*
X2412718Y823816D01*
X2416165Y850000D01*
X2412718Y876184D01*
X2402612Y900583D01*
X2386535Y921535D01*
X2365583Y937612D01*
X2341184Y947718D01*
X2315000Y951165D01*
D02*
G37*
G36*
X2061000D02*
X2034817Y947718D01*
X2010418Y937612D01*
X1989466Y921535D01*
X1973388Y900583D01*
X1963282Y876184D01*
X1959835Y850000D01*
X1963282Y823816D01*
X1973388Y799418D01*
X1989466Y778466D01*
X2010418Y762388D01*
X2034817Y752282D01*
X2061000Y748835D01*
X2087184Y752282D01*
X2111583Y762388D01*
X2132535Y778466D01*
X2148612Y799418D01*
X2158718Y823816D01*
X2162165Y850000D01*
X2158718Y876184D01*
X2148612Y900583D01*
X2132535Y921535D01*
X2111583Y937612D01*
X2087184Y947718D01*
X2061000Y951165D01*
D02*
G37*
G36*
X1807000D02*
X1780817Y947718D01*
X1756418Y937612D01*
X1735466Y921535D01*
X1719388Y900583D01*
X1709282Y876184D01*
X1705835Y850000D01*
X1709282Y823816D01*
X1719388Y799418D01*
X1735466Y778466D01*
X1756418Y762388D01*
X1780817Y752282D01*
X1807000Y748835D01*
X1833184Y752282D01*
X1857583Y762388D01*
X1878535Y778466D01*
X1894612Y799418D01*
X1904718Y823816D01*
X1908165Y850000D01*
X1904718Y876184D01*
X1894612Y900583D01*
X1878535Y921535D01*
X1857583Y937612D01*
X1833184Y947718D01*
X1807000Y951165D01*
D02*
G37*
G36*
X1299000D02*
X1272817Y947718D01*
X1248418Y937612D01*
X1227466Y921535D01*
X1211388Y900583D01*
X1201282Y876184D01*
X1197835Y850000D01*
X1201282Y823816D01*
X1211388Y799418D01*
X1227466Y778466D01*
X1248418Y762388D01*
X1272817Y752282D01*
X1299000Y748835D01*
X1325184Y752282D01*
X1349583Y762388D01*
X1370535Y778466D01*
X1386612Y799418D01*
X1396718Y823816D01*
X1400165Y850000D01*
X1396718Y876184D01*
X1386612Y900583D01*
X1370535Y921535D01*
X1349583Y937612D01*
X1325184Y947718D01*
X1299000Y951165D01*
D02*
G37*
G36*
X1045000D02*
X1018817Y947718D01*
X994418Y937612D01*
X973466Y921535D01*
X957388Y900583D01*
X947282Y876184D01*
X943835Y850000D01*
X947282Y823816D01*
X957388Y799418D01*
X973466Y778466D01*
X994418Y762388D01*
X1018817Y752282D01*
X1045000Y748835D01*
X1071184Y752282D01*
X1095583Y762388D01*
X1116535Y778466D01*
X1132612Y799418D01*
X1142718Y823816D01*
X1146165Y850000D01*
X1142718Y876184D01*
X1132612Y900583D01*
X1116535Y921535D01*
X1095583Y937612D01*
X1071184Y947718D01*
X1045000Y951165D01*
D02*
G37*
G36*
X791000D02*
X764817Y947718D01*
X740418Y937612D01*
X719466Y921535D01*
X703388Y900583D01*
X693282Y876184D01*
X689835Y850000D01*
X693282Y823816D01*
X703388Y799418D01*
X719466Y778466D01*
X740418Y762388D01*
X764817Y752282D01*
X791000Y748835D01*
X817184Y752282D01*
X841583Y762388D01*
X862535Y778466D01*
X878612Y799418D01*
X888718Y823816D01*
X892165Y850000D01*
X888718Y876184D01*
X878612Y900583D01*
X862535Y921535D01*
X841583Y937612D01*
X817184Y947718D01*
X791000Y951165D01*
D02*
G37*
G36*
X537000D02*
X510817Y947718D01*
X486418Y937612D01*
X465466Y921535D01*
X449388Y900583D01*
X439282Y876184D01*
X435835Y850000D01*
X439282Y823816D01*
X449388Y799418D01*
X465466Y778466D01*
X486418Y762388D01*
X510817Y752282D01*
X537000Y748835D01*
X563184Y752282D01*
X587583Y762388D01*
X608535Y778466D01*
X624612Y799418D01*
X634718Y823816D01*
X638165Y850000D01*
X634718Y876184D01*
X624612Y900583D01*
X608535Y921535D01*
X587583Y937612D01*
X563184Y947718D01*
X537000Y951165D01*
D02*
G37*
G36*
X7500000Y896050D02*
X7475140Y892777D01*
X7451974Y883182D01*
X7432081Y867917D01*
X7416817Y848024D01*
X7407221Y824858D01*
X7403949Y799998D01*
X7407221Y775138D01*
X7416817Y751973D01*
X7432081Y732080D01*
X7451974Y716815D01*
X7475140Y707220D01*
X7500000Y703947D01*
X7524860Y707220D01*
X7548026Y716815D01*
X7567919Y732080D01*
X7583183Y751973D01*
X7592779Y775138D01*
X7596052Y799998D01*
X7592779Y824858D01*
X7583183Y848024D01*
X7567919Y867917D01*
X7548026Y883182D01*
X7524860Y892777D01*
X7500000Y896050D01*
D02*
G37*
G36*
X7854320Y576163D02*
Y465978D01*
X7964505D01*
X7961695Y487319D01*
X7949540Y516664D01*
X7930205Y541863D01*
X7905006Y561199D01*
X7875661Y573353D01*
X7854320Y576163D01*
D02*
G37*
G36*
X7834020D02*
X7812680Y573353D01*
X7783335Y561199D01*
X7758136Y541863D01*
X7738800Y516664D01*
X7726645Y487319D01*
X7723836Y465978D01*
X7834020D01*
Y576163D01*
D02*
G37*
G36*
X7165980D02*
Y465978D01*
X7276165D01*
X7273355Y487319D01*
X7261200Y516664D01*
X7241865Y541863D01*
X7216666Y561199D01*
X7187321Y573353D01*
X7165980Y576163D01*
D02*
G37*
G36*
X7145680D02*
X7124340Y573353D01*
X7094995Y561199D01*
X7069796Y541863D01*
X7050460Y516664D01*
X7038305Y487319D01*
X7035496Y465978D01*
X7145680D01*
Y576163D01*
D02*
G37*
G36*
X5940000Y549950D02*
X5920374Y546046D01*
X5903736Y534929D01*
X5892619Y518291D01*
X5888715Y498665D01*
X5892619Y479039D01*
X5903736Y462400D01*
X5920374Y451283D01*
X5940000Y447379D01*
X5959626Y451283D01*
X5976264Y462400D01*
X5987381Y479039D01*
X5991285Y498665D01*
X5987381Y518291D01*
X5976264Y534929D01*
X5959626Y546046D01*
X5940000Y549950D01*
D02*
G37*
G36*
X7964505Y445679D02*
X7854320D01*
Y335494D01*
X7875661Y338303D01*
X7905006Y350458D01*
X7930205Y369794D01*
X7949540Y394993D01*
X7961695Y424338D01*
X7964505Y445679D01*
D02*
G37*
G36*
X7834020D02*
X7723836D01*
X7726645Y424338D01*
X7738800Y394993D01*
X7758136Y369794D01*
X7783335Y350458D01*
X7812680Y338303D01*
X7834020Y335494D01*
Y445679D01*
D02*
G37*
G36*
X7276165D02*
X7165980D01*
Y335494D01*
X7187321Y338303D01*
X7216666Y350458D01*
X7241865Y369794D01*
X7261200Y394993D01*
X7273355Y424338D01*
X7276165Y445679D01*
D02*
G37*
G36*
X7145680D02*
X7035496D01*
X7038305Y424338D01*
X7050460Y394993D01*
X7069796Y369794D01*
X7094995Y350458D01*
X7124340Y338303D01*
X7145680Y335494D01*
Y445679D01*
D02*
G37*
G36*
X-635496D02*
X-745680D01*
Y335494D01*
X-724339Y338303D01*
X-694995Y350458D01*
X-669796Y369794D01*
X-650460Y394993D01*
X-638305Y424338D01*
X-635496Y445679D01*
D02*
G37*
G36*
X-765980D02*
X-876165D01*
X-873355Y424338D01*
X-861200Y394993D01*
X-841864Y369794D01*
X-816665Y350458D01*
X-787321Y338303D01*
X-765980Y335494D01*
Y445679D01*
D02*
G37*
G36*
X-1323836D02*
X-1434020D01*
Y335494D01*
X-1412679Y338303D01*
X-1383335Y350458D01*
X-1358136Y369794D01*
X-1338800Y394993D01*
X-1326645Y424338D01*
X-1323836Y445679D01*
D02*
G37*
G36*
X-1454320D02*
X-1564505D01*
X-1561695Y424338D01*
X-1549540Y394993D01*
X-1530204Y369794D01*
X-1505005Y350458D01*
X-1475661Y338303D01*
X-1454320Y335494D01*
Y445679D01*
D02*
G37*
G36*
X8050000Y270905D02*
X8031648Y268489D01*
X8014547Y261405D01*
X7999862Y250137D01*
X7988593Y235452D01*
X7981510Y218351D01*
X7979094Y199999D01*
X7981510Y181647D01*
X7988593Y164545D01*
X7999862Y149860D01*
X8014547Y138592D01*
X8031648Y131508D01*
X8050000Y129092D01*
X8068352Y131508D01*
X8085453Y138592D01*
X8100138Y149860D01*
X8111407Y164545D01*
X8118490Y181647D01*
X8120906Y199999D01*
X8118490Y218351D01*
X8111407Y235452D01*
X8100138Y250137D01*
X8085453Y261405D01*
X8068352Y268489D01*
X8050000Y270905D01*
D02*
G37*
%LPD*%
G36*
X7749225Y3572502D02*
X7737981Y3572423D01*
X7717844Y3571089D01*
X7708950Y3569834D01*
X7700840Y3568187D01*
X7693513Y3566149D01*
X7686969Y3563719D01*
X7681210Y3560897D01*
X7676233Y3557683D01*
X7672040Y3554078D01*
X7654080Y3572038D01*
X7657685Y3576231D01*
X7660899Y3581208D01*
X7663721Y3586968D01*
X7666151Y3593511D01*
X7668189Y3600838D01*
X7669836Y3608948D01*
X7671090Y3617842D01*
X7672425Y3637980D01*
X7672504Y3649224D01*
X7749225Y3572502D01*
D02*
G37*
G36*
X2159773Y2708812D02*
X2156096Y2704523D01*
X2152819Y2699409D01*
X2149942Y2693470D01*
X2147465Y2686706D01*
X2145387Y2679118D01*
X2143709Y2670704D01*
X2142431Y2661465D01*
X2141075Y2640513D01*
X2140996Y2628800D01*
X2061800Y2707996D01*
X2073514Y2708075D01*
X2094465Y2709431D01*
X2103704Y2710709D01*
X2112118Y2712387D01*
X2119706Y2714464D01*
X2126470Y2716942D01*
X2132409Y2719819D01*
X2137523Y2723096D01*
X2141812Y2726773D01*
X2159773Y2708812D01*
D02*
G37*
G36*
X2413773D02*
X2410096Y2704523D01*
X2406819Y2699409D01*
X2403942Y2693470D01*
X2401465Y2686706D01*
X2399387Y2679118D01*
X2397709Y2670704D01*
X2396431Y2661465D01*
X2395075Y2640513D01*
X2394996Y2628800D01*
X2315800Y2707996D01*
X2327514Y2708075D01*
X2348465Y2709431D01*
X2357704Y2710709D01*
X2366118Y2712387D01*
X2373706Y2714464D01*
X2380470Y2716942D01*
X2386409Y2719819D01*
X2391523Y2723096D01*
X2395812Y2726773D01*
X2413773Y2708812D01*
D02*
G37*
G36*
X6998627Y2469443D02*
X7000845Y2467554D01*
X7003074Y2465874D01*
X7005313Y2464403D01*
X7007562Y2463141D01*
X7009823Y2462088D01*
X7012093Y2461243D01*
X7014374Y2460608D01*
X7016666Y2460182D01*
X7018968Y2459964D01*
X6987571Y2432067D01*
X6987613Y2434382D01*
X6987416Y2436686D01*
X6986982Y2438981D01*
X6986311Y2441265D01*
X6985401Y2443538D01*
X6984254Y2445802D01*
X6982869Y2448055D01*
X6981246Y2450297D01*
X6979386Y2452530D01*
X6977287Y2454752D01*
X6996419Y2471541D01*
X6998627Y2469443D01*
D02*
G37*
G36*
X2667773Y2708812D02*
X2664096Y2704523D01*
X2660819Y2699409D01*
X2657942Y2693470D01*
X2655465Y2686706D01*
X2653387Y2679118D01*
X2651709Y2670704D01*
X2650431Y2661465D01*
X2649075Y2640513D01*
X2648996Y2628800D01*
X2569800Y2707996D01*
X2581514Y2708075D01*
X2602465Y2709431D01*
X2611704Y2710709D01*
X2620118Y2712387D01*
X2627706Y2714464D01*
X2634470Y2716942D01*
X2640409Y2719819D01*
X2645523Y2723096D01*
X2649812Y2726773D01*
X2667773Y2708812D01*
D02*
G37*
G36*
X7951076Y2379000D02*
X7949374Y2380577D01*
X7947522Y2381988D01*
X7945521Y2383233D01*
X7943370Y2384312D01*
X7941069Y2385225D01*
X7938619Y2385972D01*
X7936019Y2386553D01*
X7933269Y2386968D01*
X7930370Y2387217D01*
X7927321Y2387300D01*
Y2412700D01*
X7930370Y2412783D01*
X7933269Y2413032D01*
X7936019Y2413447D01*
X7938619Y2414028D01*
X7941069Y2414775D01*
X7943370Y2415688D01*
X7945521Y2416767D01*
X7947522Y2418012D01*
X7949374Y2419423D01*
X7951076Y2421000D01*
Y2379000D01*
D02*
G37*
G36*
X-2952800Y2504002D02*
X-2964514Y2503924D01*
X-2985465Y2502567D01*
X-2994704Y2501289D01*
X-3003118Y2499611D01*
X-3010706Y2497534D01*
X-3017470Y2495056D01*
X-3023409Y2492179D01*
X-3028523Y2488903D01*
X-3032812Y2485226D01*
X-3050773Y2503186D01*
X-3047096Y2507475D01*
X-3043819Y2512589D01*
X-3040942Y2518528D01*
X-3038465Y2525292D01*
X-3036387Y2532881D01*
X-3034709Y2541294D01*
X-3033431Y2550533D01*
X-3032075Y2571485D01*
X-3031996Y2583198D01*
X-2952800Y2504002D01*
D02*
G37*
G36*
Y1996002D02*
X-2964514Y1995924D01*
X-2985465Y1994567D01*
X-2994704Y1993289D01*
X-3003118Y1991611D01*
X-3010706Y1989534D01*
X-3017470Y1987056D01*
X-3023409Y1984179D01*
X-3028523Y1980903D01*
X-3032812Y1977226D01*
X-3050773Y1995186D01*
X-3047096Y1999475D01*
X-3043819Y2004589D01*
X-3040942Y2010528D01*
X-3038465Y2017292D01*
X-3036387Y2024881D01*
X-3034709Y2033294D01*
X-3033431Y2042533D01*
X-3032075Y2063485D01*
X-3031996Y2075198D01*
X-2952800Y1996002D01*
D02*
G37*
G36*
X3508477Y945096D02*
X3513591Y941819D01*
X3519530Y938942D01*
X3526294Y936464D01*
X3533883Y934387D01*
X3542296Y932709D01*
X3551535Y931431D01*
X3572487Y930075D01*
X3584200Y929996D01*
X3505004Y850800D01*
X3504926Y862513D01*
X3503569Y883465D01*
X3502291Y892704D01*
X3500613Y901118D01*
X3498536Y908706D01*
X3496058Y915470D01*
X3493181Y921409D01*
X3489904Y926523D01*
X3486228Y930812D01*
X3504188Y948773D01*
X3508477Y945096D01*
D02*
G37*
G36*
X3254477D02*
X3259591Y941819D01*
X3265530Y938942D01*
X3272294Y936464D01*
X3279883Y934387D01*
X3288296Y932709D01*
X3297535Y931431D01*
X3318487Y930075D01*
X3330200Y929996D01*
X3251004Y850800D01*
X3250926Y862513D01*
X3249569Y883465D01*
X3248291Y892704D01*
X3246613Y901118D01*
X3244536Y908706D01*
X3242058Y915470D01*
X3239181Y921409D01*
X3235904Y926523D01*
X3232228Y930812D01*
X3250188Y948773D01*
X3254477Y945096D01*
D02*
G37*
G36*
X1347538Y2563089D02*
X1333775Y2547083D01*
X1328184Y2539562D01*
X1323452Y2532363D01*
X1319582Y2525484D01*
X1316571Y2518927D01*
X1314420Y2512691D01*
X1313130Y2506776D01*
X1312700Y2501182D01*
X1287300Y2500860D01*
X1286864Y2506530D01*
X1285557Y2512481D01*
X1283378Y2518711D01*
X1280327Y2525222D01*
X1276405Y2532013D01*
X1271611Y2539085D01*
X1265945Y2546437D01*
X1251999Y2561981D01*
X1243719Y2570173D01*
X1355710Y2571573D01*
X1347538Y2563089D01*
D02*
G37*
G36*
X1096527Y2565404D02*
X1077734Y2540610D01*
X1073140Y2533157D01*
X1069382Y2526111D01*
X1066458Y2519470D01*
X1064370Y2513235D01*
X1063118Y2507406D01*
X1062700Y2501983D01*
X1037300Y2500372D01*
X1036854Y2506179D01*
X1035515Y2512187D01*
X1033284Y2518396D01*
X1030161Y2524806D01*
X1026145Y2531416D01*
X1021237Y2538227D01*
X1015436Y2545240D01*
X1008743Y2552452D01*
X992680Y2567481D01*
X1104461Y2574480D01*
X1096527Y2565404D01*
D02*
G37*
G36*
X1206205Y2224822D02*
X1207912Y2223286D01*
X1209789Y2221930D01*
X1211834Y2220755D01*
X1214049Y2219760D01*
X1216432Y2218947D01*
X1218984Y2218314D01*
X1221706Y2217862D01*
X1224596Y2217591D01*
X1227656Y2217501D01*
X1224889Y2192101D01*
X1221846Y2192027D01*
X1216167Y2191438D01*
X1213530Y2190923D01*
X1211029Y2190261D01*
X1208663Y2189451D01*
X1206432Y2188495D01*
X1204337Y2187391D01*
X1202377Y2186140D01*
X1200552Y2184742D01*
X1204667Y2226540D01*
X1206205Y2224822D01*
D02*
G37*
G36*
X1162025Y2184742D02*
X1160200Y2186140D01*
X1158240Y2187391D01*
X1156144Y2188495D01*
X1153914Y2189451D01*
X1151548Y2190261D01*
X1149046Y2190923D01*
X1146409Y2191438D01*
X1143638Y2191806D01*
X1140730Y2192027D01*
X1137687Y2192101D01*
X1134921Y2217501D01*
X1137980Y2217591D01*
X1140871Y2217862D01*
X1143592Y2218314D01*
X1146145Y2218947D01*
X1148528Y2219760D01*
X1150742Y2220755D01*
X1152788Y2221930D01*
X1154664Y2223286D01*
X1156371Y2224822D01*
X1157910Y2226540D01*
X1162025Y2184742D01*
D02*
G37*
G36*
X1854773Y2562531D02*
X1840917Y2546756D01*
X1835288Y2539320D01*
X1830525Y2532184D01*
X1826628Y2525349D01*
X1823597Y2518814D01*
X1821432Y2512580D01*
X1820133Y2506647D01*
X1819700Y2501015D01*
X1794300D01*
X1793867Y2506647D01*
X1792568Y2512580D01*
X1790403Y2518814D01*
X1787372Y2525349D01*
X1783475Y2532184D01*
X1778712Y2539320D01*
X1773083Y2546756D01*
X1759227Y2562531D01*
X1751000Y2570869D01*
X1863000D01*
X1854773Y2562531D01*
D02*
G37*
G36*
X-2446098Y1985940D02*
X-2449902Y1981479D01*
X-2453293Y1976118D01*
X-2456268Y1969858D01*
X-2458830Y1962697D01*
X-2460978Y1954638D01*
X-2462712Y1945678D01*
X-2464031Y1935819D01*
X-2465428Y1913402D01*
X-2465505Y1900844D01*
X-2549155Y1984494D01*
X-2536597Y1984571D01*
X-2514180Y1985968D01*
X-2504321Y1987287D01*
X-2495361Y1989021D01*
X-2487301Y1991168D01*
X-2480141Y1993730D01*
X-2473880Y1996706D01*
X-2468520Y2000097D01*
X-2464058Y2003901D01*
X-2446098Y1985940D01*
D02*
G37*
G36*
X-2952800Y1742002D02*
X-2964514Y1741924D01*
X-2985465Y1740567D01*
X-2994704Y1739289D01*
X-3003118Y1737611D01*
X-3010706Y1735534D01*
X-3017470Y1733056D01*
X-3023409Y1730179D01*
X-3028523Y1726903D01*
X-3032812Y1723226D01*
X-3050773Y1741186D01*
X-3047096Y1745475D01*
X-3043819Y1750589D01*
X-3040942Y1756528D01*
X-3038465Y1763292D01*
X-3036387Y1770881D01*
X-3034709Y1779294D01*
X-3033431Y1788533D01*
X-3032075Y1809485D01*
X-3031996Y1821198D01*
X-2952800Y1742002D01*
D02*
G37*
G36*
X-2877367Y1597818D02*
X-2874891Y1594225D01*
X-2872079Y1591055D01*
X-2868931Y1588307D01*
X-2865448Y1585982D01*
X-2861629Y1584080D01*
X-2857475Y1582601D01*
X-2852985Y1581544D01*
X-2848159Y1580910D01*
X-2842998Y1580698D01*
Y1555298D01*
X-2848159Y1555087D01*
X-2852985Y1554453D01*
X-2857475Y1553396D01*
X-2861629Y1551917D01*
X-2865448Y1550014D01*
X-2868931Y1547690D01*
X-2872079Y1544942D01*
X-2874891Y1541772D01*
X-2877367Y1538179D01*
X-2879508Y1534163D01*
Y1601834D01*
X-2877367Y1597818D01*
D02*
G37*
G36*
X4270477Y945096D02*
X4275591Y941819D01*
X4281530Y938942D01*
X4288294Y936464D01*
X4295883Y934387D01*
X4304296Y932709D01*
X4313535Y931431D01*
X4334487Y930075D01*
X4346200Y929996D01*
X4267004Y850800D01*
X4266926Y862513D01*
X4265569Y883465D01*
X4264291Y892704D01*
X4262613Y901118D01*
X4260536Y908706D01*
X4258058Y915470D01*
X4255181Y921409D01*
X4251904Y926523D01*
X4248228Y930812D01*
X4266188Y948773D01*
X4270477Y945096D01*
D02*
G37*
G36*
X3762477D02*
X3767591Y941819D01*
X3773530Y938942D01*
X3780294Y936464D01*
X3787883Y934387D01*
X3796296Y932709D01*
X3805535Y931431D01*
X3826487Y930075D01*
X3838200Y929996D01*
X3759004Y850800D01*
X3758926Y862513D01*
X3757569Y883465D01*
X3756291Y892704D01*
X3754613Y901118D01*
X3752536Y908706D01*
X3750058Y915470D01*
X3747181Y921409D01*
X3743904Y926523D01*
X3740228Y930812D01*
X3758188Y948773D01*
X3762477Y945096D01*
D02*
G37*
G36*
X-2871926Y2317485D02*
X-2870569Y2296533D01*
X-2869291Y2287294D01*
X-2867613Y2278881D01*
X-2865536Y2271292D01*
X-2863058Y2264528D01*
X-2860181Y2258589D01*
X-2856904Y2253475D01*
X-2853228Y2249186D01*
X-2871188Y2231226D01*
X-2875477Y2234903D01*
X-2880591Y2238179D01*
X-2886530Y2241056D01*
X-2893294Y2243534D01*
X-2900883Y2245611D01*
X-2909296Y2247289D01*
X-2918535Y2248567D01*
X-2939487Y2249924D01*
X-2951200Y2250002D01*
X-2872004Y2329198D01*
X-2871926Y2317485D01*
D02*
G37*
G36*
X-94009Y1690059D02*
X-92663Y1690740D01*
X-91441Y1691548D01*
X-90404Y1692451D01*
X-90643Y1657452D01*
X-91674Y1658373D01*
X-92890Y1659197D01*
X-94180Y1659867D01*
X-94214Y1653951D01*
X-95907Y1655538D01*
X-97752Y1656957D01*
X-99746Y1658209D01*
X-101892Y1659295D01*
X-104188Y1660213D01*
X-106635Y1660964D01*
X-109232Y1661549D01*
X-111980Y1661966D01*
X-114879Y1662216D01*
X-117929Y1662300D01*
X-117769Y1687700D01*
X-114721Y1687783D01*
X-111821Y1688030D01*
X-109070Y1688443D01*
X-106467Y1689020D01*
X-104014Y1689763D01*
X-101708Y1690670D01*
X-99552Y1691743D01*
X-97544Y1692980D01*
X-95685Y1694383D01*
X-93975Y1695951D01*
X-94009Y1690059D01*
D02*
G37*
G36*
X-49656Y1694383D02*
X-47797Y1692980D01*
X-45789Y1691743D01*
X-43633Y1690670D01*
X-41328Y1689763D01*
X-38874Y1689020D01*
X-36271Y1688443D01*
X-33520Y1688030D01*
X-30620Y1687783D01*
X-27572Y1687700D01*
X-27412Y1662300D01*
X-30462Y1662216D01*
X-33361Y1661966D01*
X-36109Y1661549D01*
X-38707Y1660964D01*
X-41153Y1660213D01*
X-43449Y1659295D01*
X-45595Y1658209D01*
X-47590Y1656957D01*
X-49434Y1655538D01*
X-51127Y1653951D01*
X-51366Y1695951D01*
X-49656Y1694383D01*
D02*
G37*
G36*
X-53248Y1651703D02*
X-54659Y1649851D01*
X-55904Y1647850D01*
X-56983Y1645699D01*
X-57896Y1643399D01*
X-58643Y1640948D01*
X-59224Y1638348D01*
X-59639Y1635598D01*
X-59888Y1632699D01*
X-59971Y1629650D01*
X-85371D01*
X-85454Y1632699D01*
X-85703Y1635598D01*
X-86118Y1638348D01*
X-86699Y1640948D01*
X-87446Y1643399D01*
X-88359Y1645699D01*
X-89438Y1647850D01*
X-90683Y1649851D01*
X-92094Y1651703D01*
X-93671Y1653405D01*
X-51671D01*
X-53248Y1651703D01*
D02*
G37*
G36*
X4526541Y942596D02*
X4535917Y934633D01*
X4540057Y931728D01*
X4543832Y929543D01*
X4547241Y928075D01*
X4550286Y927327D01*
X4552964Y927296D01*
X4555278Y927984D01*
X4557226Y929390D01*
X4521610Y893774D01*
X4523016Y895722D01*
X4523704Y898036D01*
X4523674Y900715D01*
X4522925Y903759D01*
X4521458Y907168D01*
X4519272Y910943D01*
X4516368Y915083D01*
X4512745Y919588D01*
X4503345Y929695D01*
X4521305Y947656D01*
X4526541Y942596D01*
D02*
G37*
G36*
X-2805444Y704423D02*
X-2803592Y703012D01*
X-2801591Y701767D01*
X-2799440Y700688D01*
X-2797139Y699775D01*
X-2794689Y699028D01*
X-2792089Y698447D01*
X-2789339Y698032D01*
X-2786440Y697783D01*
X-2783391Y697700D01*
Y672300D01*
X-2786440Y672217D01*
X-2789339Y671968D01*
X-2792089Y671553D01*
X-2794689Y670972D01*
X-2797139Y670225D01*
X-2799440Y669312D01*
X-2801591Y668233D01*
X-2803592Y666988D01*
X-2805444Y665577D01*
X-2807146Y664000D01*
Y706000D01*
X-2805444Y704423D01*
D02*
G37*
G36*
X5556076Y629000D02*
X5554374Y630577D01*
X5552522Y631988D01*
X5550521Y633233D01*
X5548370Y634312D01*
X5546069Y635225D01*
X5543619Y635972D01*
X5541019Y636553D01*
X5538269Y636968D01*
X5535370Y637217D01*
X5532321Y637300D01*
Y662700D01*
X5535370Y662783D01*
X5538269Y663032D01*
X5541019Y663447D01*
X5543619Y664028D01*
X5546069Y664775D01*
X5548370Y665688D01*
X5550521Y666767D01*
X5552522Y668012D01*
X5554374Y669423D01*
X5556076Y671000D01*
Y629000D01*
D02*
G37*
G36*
X-2761573Y577966D02*
X-2763671Y575751D01*
X-2765545Y573525D01*
X-2767196Y571287D01*
X-2768623Y569038D01*
X-2769828Y566777D01*
X-2770809Y564505D01*
X-2771567Y562221D01*
X-2772102Y559925D01*
X-2772413Y557618D01*
X-2772502Y555300D01*
X-2802200Y584998D01*
X-2799882Y585087D01*
X-2797575Y585398D01*
X-2795279Y585933D01*
X-2792995Y586691D01*
X-2790723Y587672D01*
X-2788462Y588877D01*
X-2786213Y590304D01*
X-2783975Y591955D01*
X-2781749Y593829D01*
X-2779534Y595927D01*
X-2761573Y577966D01*
D02*
G37*
G36*
X5552393Y488545D02*
X5550691Y490122D01*
X5548839Y491533D01*
X5546838Y492778D01*
X5544687Y493857D01*
X5542386Y494770D01*
X5539936Y495517D01*
X5537336Y496098D01*
X5534586Y496513D01*
X5531687Y496762D01*
X5528638Y496845D01*
Y522245D01*
X5531687Y522328D01*
X5534586Y522577D01*
X5537336Y522992D01*
X5539936Y523573D01*
X5542386Y524320D01*
X5544687Y525233D01*
X5546838Y526312D01*
X5548839Y527557D01*
X5550691Y528968D01*
X5552393Y530545D01*
Y488545D01*
D02*
G37*
D10*
X1300000Y2345200D02*
D03*
Y2204801D02*
D03*
X1050000Y2345200D02*
D03*
Y2204801D02*
D03*
X1800000D02*
D03*
Y2345200D02*
D03*
D11*
X72671Y1450000D02*
D03*
X-72671D02*
D03*
D12*
X8050000Y199999D02*
D03*
X-8050000Y3249999D02*
D03*
D13*
X-397500Y2125000D02*
D03*
X397500D02*
D03*
X-397500Y1675000D02*
D03*
X397500D02*
D03*
D14*
X6007500Y3442500D02*
X7017500Y2432500D01*
Y2430000D02*
Y2432500D01*
X3736630Y3442500D02*
X6007500D01*
X7080000Y2300000D02*
X7180000Y2400000D01*
X6307500Y2965000D02*
X6972500Y2300000D01*
X7080000D01*
X2906000Y2965000D02*
X6307500D01*
X2569000Y2628000D02*
X2906000Y2965000D01*
X3130040Y3443040D02*
X3736090D01*
X2677000Y2990000D02*
X2677001D01*
X3130040Y3443040D01*
X2315000Y2628000D02*
X2677000Y2990000D01*
X3736090Y3443040D02*
X3736630Y3442500D01*
X2373000Y2940000D02*
X2963000Y3530000D01*
X7630002D02*
X7750000Y3649999D01*
X2963000Y3530000D02*
X7630002D01*
X-243040Y734460D02*
X310540D01*
X395000Y650000D02*
X5577500D01*
X310540Y734460D02*
X395000Y650000D01*
X-168820Y683680D02*
X168820D01*
X342955Y509545D02*
X5573817D01*
X168820Y683680D02*
X342955Y509545D01*
X-292500Y685000D02*
X-243040Y734460D01*
X-2828570Y685000D02*
X-292500D01*
X-3077500Y1512500D02*
X-3005000Y1440000D01*
X-3077500Y1696499D02*
X-2952000Y1821998D01*
X-3077500Y1512500D02*
Y1696499D01*
X-3005000Y1440000D02*
X-2910000D01*
X-2952000Y1567998D02*
X-2842998D01*
X-2590000Y1315000D01*
X-1727500D01*
X-2697500Y1227500D02*
X-1687500D01*
X-2910000Y1440000D02*
X-2697500Y1227500D01*
X-2765000Y1677500D02*
X-2490000Y1402500D01*
X-1780000D02*
X-1637500Y1545000D01*
X-2490000Y1402500D02*
X-1780000D01*
X-1727500Y1315000D02*
X-1585000Y1457500D01*
X-1687500Y1227500D02*
X-1545000Y1370000D01*
X-3300000Y1175000D02*
X-3125000Y1000000D01*
X3181000D02*
X3331000Y850000D01*
X-3125000Y1000000D02*
X3181000D01*
X-1637500Y1545000D02*
X-582500D01*
X-1585000Y1457500D02*
X-620000D01*
X-582500Y1545000D02*
X-387500Y1350000D01*
X-620000Y1457500D02*
X-425000Y1262500D01*
X-1545000Y1370000D02*
X-657500D01*
X-462500Y1175000D01*
X-1502500Y1282500D02*
X-1100625D01*
X-3077500Y1140000D02*
X-1645000D01*
X-1502500Y1282500D01*
X-3182500Y1245000D02*
X-3077500Y1140000D01*
X-387500Y1350000D02*
X4101000D01*
X-425000Y1262500D02*
X3934500D01*
X-462500Y1175000D02*
X3514000D01*
X-500000Y1087500D02*
X3347500D01*
X-1100625Y1282500D02*
X-695000D01*
X-500000Y1087500D01*
X-397500Y1675000D02*
X72500D01*
X-72671Y1450000D02*
Y1674829D01*
X7180000Y2400000D02*
X7972500D01*
X2373000Y2940000D02*
X2373000D01*
X2061000Y2628000D02*
X2373000Y2940000D01*
X-2802500Y555000D02*
X-2762500Y595000D01*
X-257500D02*
X-168820Y683680D01*
X-2762500Y595000D02*
X-257500D01*
X1050000Y2204801D02*
X1178349D01*
X1181288Y2207740D01*
Y2204801D02*
X1300000D01*
X-2425539Y2024460D02*
X1619659D01*
X1800000Y2202500D02*
Y2204801D01*
X1769633Y2172133D02*
X1800000Y2202500D01*
X1619659Y2024460D02*
X1767333Y2172133D01*
X1769633D01*
X-2550000Y1899998D02*
X-2425539Y2024460D01*
X1807000Y2352200D02*
Y2628000D01*
X1800000Y2345200D02*
X1807000Y2352200D01*
X72500Y1675000D02*
X397500D01*
X72500D02*
X72671Y1674829D01*
X-2765000Y1677500D02*
Y2142998D01*
X-2952000Y2329998D02*
X-2765000Y2142998D01*
X3347500Y1087500D02*
X3585000Y850000D01*
X3514000Y1175000D02*
X3839000Y850000D01*
X4101000Y1350000D02*
X4601000Y850000D01*
X3934500Y1262500D02*
X4347000Y850000D01*
X-3182500Y1245000D02*
Y1845498D01*
X-2952000Y2075998D01*
X-3300000Y1175000D02*
Y2235999D01*
X-2952000Y2583998D01*
X1300000Y2345200D02*
Y2627000D01*
X1050000Y2345200D02*
Y2623000D01*
X1045000Y2628000D02*
X1050000Y2623000D01*
X1299000Y2628000D02*
X1300000Y2627000D01*
D15*
X-225000Y2628000D02*
D03*
X4601000Y850000D02*
D03*
D16*
X29000Y2628000D02*
D03*
X283000D02*
D03*
X537000D02*
D03*
X791000D02*
D03*
X1045000D02*
D03*
X1299000D02*
D03*
X1553000D02*
D03*
X1807000D02*
D03*
X2061000D02*
D03*
X2315000D02*
D03*
X2569000D02*
D03*
X2823000D02*
D03*
X3077000D02*
D03*
X3331000D02*
D03*
X3585000D02*
D03*
X3839000D02*
D03*
X4093000D02*
D03*
X4347000D02*
D03*
X4601000D02*
D03*
X-2952000Y1313998D02*
D03*
Y1567998D02*
D03*
Y1821998D02*
D03*
Y2075998D02*
D03*
Y2329998D02*
D03*
Y2583998D02*
D03*
Y2837998D02*
D03*
X-225000Y850000D02*
D03*
X29000D02*
D03*
X283000D02*
D03*
X537000D02*
D03*
X791000D02*
D03*
X1045000D02*
D03*
X1299000D02*
D03*
X1553000D02*
D03*
X1807000D02*
D03*
X2061000D02*
D03*
X2315000D02*
D03*
X2569000D02*
D03*
X2823000D02*
D03*
X3077000D02*
D03*
X3331000D02*
D03*
X3585000D02*
D03*
X3839000D02*
D03*
X4093000D02*
D03*
X4347000D02*
D03*
X5648000Y2837998D02*
D03*
Y2583998D02*
D03*
Y2329998D02*
D03*
Y2075998D02*
D03*
Y1821998D02*
D03*
Y1567998D02*
D03*
Y1313998D02*
D03*
D17*
X7250000Y3649999D02*
D03*
X7750000D02*
D03*
X7500000Y2199998D02*
D03*
X7750000D02*
D03*
X-850000D02*
D03*
X-1100000D02*
D03*
X-850000Y3649999D02*
D03*
X-1350000D02*
D03*
D18*
X7250000Y2199998D02*
D03*
X-1350000D02*
D03*
D19*
X6930000Y2949998D02*
D03*
X8070000D02*
D03*
X-530000D02*
D03*
X-1670000D02*
D03*
D20*
X6558000Y1899998D02*
D03*
Y2153998D02*
D03*
X6050000Y1645998D02*
D03*
Y1899998D02*
D03*
Y2153998D02*
D03*
X6558000Y1645998D02*
D03*
X-2550000D02*
D03*
Y1899998D02*
D03*
Y2153998D02*
D03*
X-2042000Y1645998D02*
D03*
Y1899998D02*
D03*
Y2153998D02*
D03*
D21*
X-3642000Y1015998D02*
D03*
Y3135998D02*
D03*
X4958000D02*
D03*
Y1015998D02*
D03*
D22*
X-6700000Y1646000D02*
D03*
Y1900000D02*
D03*
D23*
Y2154000D02*
D03*
D24*
X-1100000Y799998D02*
D03*
X7500000D02*
D03*
D25*
X-1444170Y1144168D02*
D03*
X-755830D02*
D03*
X-1444170Y455828D02*
D03*
X-755830D02*
D03*
X7155830Y1144168D02*
D03*
X7844170D02*
D03*
X7155830Y455828D02*
D03*
X7844170D02*
D03*
D26*
X-8600000Y3449998D02*
D03*
Y349999D02*
D03*
X0Y3449998D02*
D03*
X8600000Y349999D02*
D03*
Y3449998D02*
D03*
D27*
X-0Y349999D02*
D03*
D28*
X7017500Y2430000D02*
D03*
X-1087500Y2575000D02*
D03*
X-2442500Y1067500D02*
D03*
X-72671Y1674829D02*
D03*
X-2828570Y685000D02*
D03*
X5573817Y509545D02*
D03*
X1181288Y2207740D02*
D03*
X7972500Y2400000D02*
D03*
X5577500Y650000D02*
D03*
X-2660000Y498665D02*
D03*
X-2802500Y555000D02*
D03*
X7487500Y2575000D02*
D03*
X5940000Y498665D02*
D03*
X6158898Y1056568D02*
D03*
X-5570000Y1500000D02*
D03*
X-5630000D02*
D03*
X-6267524Y1480000D02*
D03*
X-6190000Y1387500D02*
D03*
X-4665000Y3279000D02*
D03*
X3935000D02*
D03*
D29*
X-4895199Y3367500D02*
D03*
X3704801D02*
D03*
X-7525000Y2100000D02*
D03*
X-7425000D02*
D03*
X-7325000D02*
D03*
Y1975000D02*
D03*
%TF.MD5,f0a3ce61a57215794c8411f4b9968f99*%
M02*
