%TF.GenerationSoftware,Altium Limited,Altium Designer,23.7.1 (13)*%
G04 Layer_Color=0*
%FSLAX45Y45*%
%MOMM*%
%TF.SameCoordinates,F0F8C17F-0DA8-4E41-987A-5915CA82B15D*%
%TF.FilePolarity,Positive*%
%TF.FileFunction,Plated,1,4,PTH,Drill*%
%TF.Part,Single*%
G01*
G75*
%TA.AperFunction,ComponentDrill*%
%ADD73C,1.04000*%
%ADD74C,1.00000*%
%ADD75O,1.40000X3.50000*%
%ADD76C,1.09000*%
%ADD77C,1.00000*%
%ADD78C,0.85000*%
%ADD79C,0.99060*%
%ADD80C,1.49860*%
%TA.AperFunction,ViaDrill,NotFilled*%
%ADD81C,0.30000*%
%ADD82C,0.40000*%
D73*
X-225000Y2628000D02*
D03*
X29000D02*
D03*
X283000D02*
D03*
X537000D02*
D03*
X791000D02*
D03*
X1045000D02*
D03*
X1299000D02*
D03*
X1553000D02*
D03*
X1807000D02*
D03*
X2061000D02*
D03*
X2315000D02*
D03*
X2569000D02*
D03*
X2823000D02*
D03*
X3077000D02*
D03*
X3331000D02*
D03*
X3585000D02*
D03*
X3839000D02*
D03*
X4093000D02*
D03*
X4347000D02*
D03*
X4601000D02*
D03*
X-225000Y850000D02*
D03*
X29000D02*
D03*
X283000D02*
D03*
X537000D02*
D03*
X791000D02*
D03*
X1045000D02*
D03*
X1299000D02*
D03*
X1553000D02*
D03*
X1807000D02*
D03*
X2061000D02*
D03*
X2315000D02*
D03*
X2569000D02*
D03*
X2823000D02*
D03*
X3077000D02*
D03*
X3331000D02*
D03*
X3585000D02*
D03*
X3839000D02*
D03*
X4093000D02*
D03*
X4347000D02*
D03*
X4601000D02*
D03*
D74*
X7250000Y3649999D02*
D03*
X7750000D02*
D03*
X7250000Y2199998D02*
D03*
X7500000D02*
D03*
X7750000D02*
D03*
X-850000D02*
D03*
X-1100000D02*
D03*
X-1350000D02*
D03*
X-850000Y3649999D02*
D03*
X-1350000D02*
D03*
D75*
X6930000Y2949998D02*
D03*
X8070000D02*
D03*
X-530000D02*
D03*
X-1670000D02*
D03*
D76*
X6558000Y1899998D02*
D03*
Y2153998D02*
D03*
X6050000Y1645998D02*
D03*
Y1899998D02*
D03*
Y2153998D02*
D03*
X6558000Y1645998D02*
D03*
X-2550000D02*
D03*
Y1899998D02*
D03*
Y2153998D02*
D03*
X-2042000Y1645998D02*
D03*
Y1899998D02*
D03*
Y2153998D02*
D03*
D77*
X-2952000Y1313998D02*
D03*
Y1567998D02*
D03*
Y1821998D02*
D03*
Y2075998D02*
D03*
Y2329998D02*
D03*
Y2583998D02*
D03*
Y2837998D02*
D03*
X5648000D02*
D03*
Y2583998D02*
D03*
Y2329998D02*
D03*
Y2075998D02*
D03*
Y1821998D02*
D03*
Y1567998D02*
D03*
Y1313998D02*
D03*
D78*
X-6700000Y1646000D02*
D03*
Y1900000D02*
D03*
Y2154000D02*
D03*
D79*
X-1100000Y799998D02*
D03*
X7500000D02*
D03*
D80*
X-1444170Y1144168D02*
D03*
X-755830D02*
D03*
X-1444170Y455828D02*
D03*
X-755830D02*
D03*
X7155830Y1144168D02*
D03*
X7844170D02*
D03*
X7155830Y455828D02*
D03*
X7844170D02*
D03*
D81*
X7017500Y2430000D02*
D03*
X-1087500Y2575000D02*
D03*
X-2442500Y1067500D02*
D03*
X-72671Y1674829D02*
D03*
X-2828570Y685000D02*
D03*
X5573817Y509545D02*
D03*
X1181288Y2207740D02*
D03*
X7972500Y2400000D02*
D03*
X5577500Y650000D02*
D03*
X-2660000Y498665D02*
D03*
X-2802500Y555000D02*
D03*
X7487500Y2575000D02*
D03*
X5940000Y498665D02*
D03*
X6158898Y1056568D02*
D03*
X-5570000Y1500000D02*
D03*
X-5630000D02*
D03*
X-6267524Y1480000D02*
D03*
X-6190000Y1387500D02*
D03*
X-4665000Y3279000D02*
D03*
X3935000D02*
D03*
D82*
X-4895199Y3367500D02*
D03*
X3704801D02*
D03*
X-7525000Y2100000D02*
D03*
X-7425000D02*
D03*
X-7325000D02*
D03*
Y1975000D02*
D03*
%TF.MD5,c263a5db81506822d39db10f32c3e878*%
M02*
