%TF.GenerationSoftware,Altium Limited,Altium Designer,23.7.1 (13)*%
G04 Layer_Color=8388736*
%FSLAX45Y45*%
%MOMM*%
%TF.SameCoordinates,F0F8C17F-0DA8-4E41-987A-5915CA82B15D*%
%TF.FilePolarity,Positive*%
%TF.FileFunction,Other,Layer_Stackup*%
%TF.Part,Single*%
G01*
G75*
%TA.AperFunction,NonConductor*%
%ADD56C,0.25400*%
%ADD63C,0.38100*%
%ADD64C,0.02540*%
D56*
X10196850Y3600401D02*
Y3448050D01*
X10298417D01*
X10374593Y3549617D02*
X10425376D01*
X10450768Y3524225D01*
Y3448050D01*
X10374593D01*
X10349201Y3473442D01*
X10374593Y3498833D01*
X10450768D01*
X10501552Y3549617D02*
Y3473442D01*
X10526943Y3448050D01*
X10603119D01*
Y3422658D01*
X10577727Y3397267D01*
X10552335D01*
X10603119Y3448050D02*
Y3549617D01*
X10730078Y3448050D02*
X10679294D01*
X10653902Y3473442D01*
Y3524225D01*
X10679294Y3549617D01*
X10730078D01*
X10755469Y3524225D01*
Y3498833D01*
X10653902D01*
X10806253Y3549617D02*
Y3448050D01*
Y3498833D01*
X10831645Y3524225D01*
X10857036Y3549617D01*
X10882428D01*
X10273025Y704850D02*
Y857201D01*
X10196850Y781025D01*
X10298417D01*
X10196850Y1441409D02*
X10222242Y1466801D01*
X10273025D01*
X10298417Y1441409D01*
Y1416017D01*
X10273025Y1390625D01*
X10247634D01*
X10273025D01*
X10298417Y1365233D01*
Y1339842D01*
X10273025Y1314450D01*
X10222242D01*
X10196850Y1339842D01*
X10298417Y1924050D02*
X10196850D01*
X10298417Y2025617D01*
Y2051009D01*
X10273025Y2076401D01*
X10222242D01*
X10196850Y2051009D01*
Y2533650D02*
X10247634D01*
X10222242D01*
Y2686001D01*
X10196850Y2660609D01*
X11238028Y3448050D02*
Y3600401D01*
X11339596Y3448050D01*
Y3600401D01*
X11415771Y3549617D02*
X11466554D01*
X11491946Y3524225D01*
Y3448050D01*
X11415771D01*
X11390379Y3473442D01*
X11415771Y3498833D01*
X11491946D01*
X11542730Y3448050D02*
Y3549617D01*
X11568122D01*
X11593513Y3524225D01*
Y3448050D01*
Y3524225D01*
X11618905Y3549617D01*
X11644297Y3524225D01*
Y3448050D01*
X11771256D02*
X11720472D01*
X11695080Y3473442D01*
Y3524225D01*
X11720472Y3549617D01*
X11771256D01*
X11796648Y3524225D01*
Y3498833D01*
X11695080D01*
X11238028Y247601D02*
Y95250D01*
X11314204D01*
X11339596Y120642D01*
Y146033D01*
X11314204Y171425D01*
X11238028D01*
X11314204D01*
X11339596Y196817D01*
Y222209D01*
X11314204Y247601D01*
X11238028D01*
X11415771Y95250D02*
X11466554D01*
X11491946Y120642D01*
Y171425D01*
X11466554Y196817D01*
X11415771D01*
X11390379Y171425D01*
Y120642D01*
X11415771Y95250D01*
X11568122Y222209D02*
Y196817D01*
X11542730D01*
X11593513D01*
X11568122D01*
Y120642D01*
X11593513Y95250D01*
X11695080Y222209D02*
Y196817D01*
X11669689D01*
X11720472D01*
X11695080D01*
Y120642D01*
X11720472Y95250D01*
X11822039D02*
X11872823D01*
X11898215Y120642D01*
Y171425D01*
X11872823Y196817D01*
X11822039D01*
X11796647Y171425D01*
Y120642D01*
X11822039Y95250D01*
X11948998D02*
Y196817D01*
X11974390D01*
X11999782Y171425D01*
Y95250D01*
Y171425D01*
X12025174Y196817D01*
X12050565Y171425D01*
Y95250D01*
X12329875Y247601D02*
X12279092D01*
X12253700Y222209D01*
Y120642D01*
X12279092Y95250D01*
X12329875D01*
X12355267Y120642D01*
Y222209D01*
X12329875Y247601D01*
X12406050Y196817D02*
X12456834Y95250D01*
X12507618Y196817D01*
X12634576Y95250D02*
X12583793D01*
X12558401Y120642D01*
Y171425D01*
X12583793Y196817D01*
X12634576D01*
X12659968Y171425D01*
Y146033D01*
X12558401D01*
X12710752Y196817D02*
Y95250D01*
Y146033D01*
X12736144Y171425D01*
X12761535Y196817D01*
X12786927D01*
X12863103Y95250D02*
X12913885D01*
X12888493D01*
Y247601D01*
X12863103D01*
X13015453Y196817D02*
X13066237D01*
X13091629Y171425D01*
Y95250D01*
X13015453D01*
X12990060Y120642D01*
X13015453Y146033D01*
X13091629D01*
X13142412Y196817D02*
Y120642D01*
X13167804Y95250D01*
X13243979D01*
Y69858D01*
X13218587Y44467D01*
X13193196D01*
X13243979Y95250D02*
Y196817D01*
X11238028Y552401D02*
Y400050D01*
X11314204D01*
X11339596Y425442D01*
Y450833D01*
X11314204Y476225D01*
X11238028D01*
X11314204D01*
X11339596Y501617D01*
Y527009D01*
X11314204Y552401D01*
X11238028D01*
X11415771Y400050D02*
X11466554D01*
X11491946Y425442D01*
Y476225D01*
X11466554Y501617D01*
X11415771D01*
X11390379Y476225D01*
Y425442D01*
X11415771Y400050D01*
X11568122Y527009D02*
Y501617D01*
X11542730D01*
X11593513D01*
X11568122D01*
Y425442D01*
X11593513Y400050D01*
X11695080Y527009D02*
Y501617D01*
X11669689D01*
X11720472D01*
X11695080D01*
Y425442D01*
X11720472Y400050D01*
X11822039D02*
X11872823D01*
X11898215Y425442D01*
Y476225D01*
X11872823Y501617D01*
X11822039D01*
X11796647Y476225D01*
Y425442D01*
X11822039Y400050D01*
X11948998D02*
Y501617D01*
X11974390D01*
X11999782Y476225D01*
Y400050D01*
Y476225D01*
X12025174Y501617D01*
X12050565Y476225D01*
Y400050D01*
X12355267Y527009D02*
X12329875Y552401D01*
X12279092D01*
X12253700Y527009D01*
Y501617D01*
X12279092Y476225D01*
X12329875D01*
X12355267Y450833D01*
Y425442D01*
X12329875Y400050D01*
X12279092D01*
X12253700Y425442D01*
X12431442Y400050D02*
X12482226D01*
X12507618Y425442D01*
Y476225D01*
X12482226Y501617D01*
X12431442D01*
X12406050Y476225D01*
Y425442D01*
X12431442Y400050D01*
X12558401D02*
X12609185D01*
X12583793D01*
Y552401D01*
X12558401D01*
X12786927D02*
Y400050D01*
X12710752D01*
X12685360Y425442D01*
Y476225D01*
X12710752Y501617D01*
X12786927D01*
X12913885Y400050D02*
X12863103D01*
X12837711Y425442D01*
Y476225D01*
X12863103Y501617D01*
X12913885D01*
X12939278Y476225D01*
Y450833D01*
X12837711D01*
X12990060Y501617D02*
Y400050D01*
Y450833D01*
X13015453Y476225D01*
X13040845Y501617D01*
X13066237D01*
X11238028Y857201D02*
Y704850D01*
X11314204D01*
X11339596Y730242D01*
Y755633D01*
X11314204Y781025D01*
X11238028D01*
X11314204D01*
X11339596Y806417D01*
Y831809D01*
X11314204Y857201D01*
X11238028D01*
X11415771Y704850D02*
X11466554D01*
X11491946Y730242D01*
Y781025D01*
X11466554Y806417D01*
X11415771D01*
X11390379Y781025D01*
Y730242D01*
X11415771Y704850D01*
X11568122Y831809D02*
Y806417D01*
X11542730D01*
X11593513D01*
X11568122D01*
Y730242D01*
X11593513Y704850D01*
X11695080Y831809D02*
Y806417D01*
X11669689D01*
X11720472D01*
X11695080D01*
Y730242D01*
X11720472Y704850D01*
X11822039D02*
X11872823D01*
X11898215Y730242D01*
Y781025D01*
X11872823Y806417D01*
X11822039D01*
X11796647Y781025D01*
Y730242D01*
X11822039Y704850D01*
X11948998D02*
Y806417D01*
X11974390D01*
X11999782Y781025D01*
Y704850D01*
Y781025D01*
X12025174Y806417D01*
X12050565Y781025D01*
Y704850D01*
X12253700Y857201D02*
Y704850D01*
X12355267D01*
X12431442Y806417D02*
X12482226D01*
X12507618Y781025D01*
Y704850D01*
X12431442D01*
X12406050Y730242D01*
X12431442Y755633D01*
X12507618D01*
X12558401Y806417D02*
Y730242D01*
X12583793Y704850D01*
X12659968D01*
Y679458D01*
X12634576Y654067D01*
X12609185D01*
X12659968Y704850D02*
Y806417D01*
X12786927Y704850D02*
X12736144D01*
X12710752Y730242D01*
Y781025D01*
X12736144Y806417D01*
X12786927D01*
X12812318Y781025D01*
Y755633D01*
X12710752D01*
X12863103Y806417D02*
Y704850D01*
Y755633D01*
X12888493Y781025D01*
X12913885Y806417D01*
X12939278D01*
X11238028Y1162001D02*
Y1009650D01*
X11314204D01*
X11339596Y1035042D01*
Y1136609D01*
X11314204Y1162001D01*
X11238028D01*
X11390379Y1009650D02*
X11441163D01*
X11415771D01*
Y1111217D01*
X11390379D01*
X11593513Y1009650D02*
X11542730D01*
X11517338Y1035042D01*
Y1085825D01*
X11542730Y1111217D01*
X11593513D01*
X11618905Y1085825D01*
Y1060433D01*
X11517338D01*
X11669689Y1009650D02*
X11720472D01*
X11695080D01*
Y1162001D01*
X11669689D01*
X11872823Y1009650D02*
X11822039D01*
X11796647Y1035042D01*
Y1085825D01*
X11822039Y1111217D01*
X11872823D01*
X11898215Y1085825D01*
Y1060433D01*
X11796647D01*
X12050565Y1111217D02*
X11974390D01*
X11948998Y1085825D01*
Y1035042D01*
X11974390Y1009650D01*
X12050565D01*
X12126741Y1136609D02*
Y1111217D01*
X12101349D01*
X12152132D01*
X12126741D01*
Y1035042D01*
X12152132Y1009650D01*
X12228308Y1111217D02*
Y1009650D01*
Y1060433D01*
X12253700Y1085825D01*
X12279091Y1111217D01*
X12304483D01*
X12380658Y1009650D02*
X12431442D01*
X12406050D01*
Y1111217D01*
X12380658D01*
X12609185D02*
X12533009D01*
X12507617Y1085825D01*
Y1035042D01*
X12533009Y1009650D01*
X12609185D01*
X12913885D02*
X12812318D01*
X12913885Y1111217D01*
Y1136609D01*
X12888493Y1162001D01*
X12837711D01*
X12812318Y1136609D01*
X11238028Y1314450D02*
Y1466801D01*
X11288812Y1416017D01*
X11339596Y1466801D01*
Y1314450D01*
X11390379D02*
X11441163D01*
X11415771D01*
Y1416017D01*
X11390379D01*
X11618905Y1466801D02*
Y1314450D01*
X11542730D01*
X11517338Y1339842D01*
Y1390625D01*
X11542730Y1416017D01*
X11618905D01*
X11822039Y1466801D02*
Y1314450D01*
X11923607D01*
X11999782Y1416017D02*
X12050565D01*
X12075957Y1390625D01*
Y1314450D01*
X11999782D01*
X11974390Y1339842D01*
X11999782Y1365233D01*
X12075957D01*
X12126741Y1416017D02*
Y1339842D01*
X12152133Y1314450D01*
X12228308D01*
Y1289058D01*
X12202916Y1263667D01*
X12177524D01*
X12228308Y1314450D02*
Y1416017D01*
X12355267Y1314450D02*
X12304483D01*
X12279092Y1339842D01*
Y1390625D01*
X12304483Y1416017D01*
X12355267D01*
X12380659Y1390625D01*
Y1365233D01*
X12279092D01*
X12431442Y1416017D02*
Y1314450D01*
Y1365233D01*
X12456834Y1390625D01*
X12482226Y1416017D01*
X12507618D01*
X12837711Y1314450D02*
X12736144D01*
X12837711Y1416017D01*
Y1441409D01*
X12812318Y1466801D01*
X12761536D01*
X12736144Y1441409D01*
X11339596Y1746209D02*
X11314204Y1771601D01*
X11263420D01*
X11238028Y1746209D01*
Y1644642D01*
X11263420Y1619250D01*
X11314204D01*
X11339596Y1644642D01*
X11415771Y1619250D02*
X11466554D01*
X11491946Y1644642D01*
Y1695425D01*
X11466554Y1720817D01*
X11415771D01*
X11390379Y1695425D01*
Y1644642D01*
X11415771Y1619250D01*
X11542730Y1720817D02*
Y1619250D01*
Y1670033D01*
X11568122Y1695425D01*
X11593513Y1720817D01*
X11618905D01*
X11771256Y1619250D02*
X11720472D01*
X11695080Y1644642D01*
Y1695425D01*
X11720472Y1720817D01*
X11771256D01*
X11796648Y1695425D01*
Y1670033D01*
X11695080D01*
X11238028Y1924050D02*
Y2076401D01*
X11288812Y2025617D01*
X11339596Y2076401D01*
Y1924050D01*
X11390379D02*
X11441163D01*
X11415771D01*
Y2025617D01*
X11390379D01*
X11618905Y2076401D02*
Y1924050D01*
X11542730D01*
X11517338Y1949442D01*
Y2000225D01*
X11542730Y2025617D01*
X11618905D01*
X11822039Y2076401D02*
Y1924050D01*
X11923607D01*
X11999782Y2025617D02*
X12050565D01*
X12075957Y2000225D01*
Y1924050D01*
X11999782D01*
X11974390Y1949442D01*
X11999782Y1974833D01*
X12075957D01*
X12126741Y2025617D02*
Y1949442D01*
X12152133Y1924050D01*
X12228308D01*
Y1898658D01*
X12202916Y1873267D01*
X12177524D01*
X12228308Y1924050D02*
Y2025617D01*
X12355267Y1924050D02*
X12304483D01*
X12279092Y1949442D01*
Y2000225D01*
X12304483Y2025617D01*
X12355267D01*
X12380659Y2000225D01*
Y1974833D01*
X12279092D01*
X12431442Y2025617D02*
Y1924050D01*
Y1974833D01*
X12456834Y2000225D01*
X12482226Y2025617D01*
X12507618D01*
X12736144Y1924050D02*
X12786927D01*
X12761536D01*
Y2076401D01*
X12736144Y2051009D01*
X11238028Y2381201D02*
Y2228850D01*
X11314204D01*
X11339596Y2254242D01*
Y2355809D01*
X11314204Y2381201D01*
X11238028D01*
X11390379Y2228850D02*
X11441163D01*
X11415771D01*
Y2330417D01*
X11390379D01*
X11593513Y2228850D02*
X11542730D01*
X11517338Y2254242D01*
Y2305025D01*
X11542730Y2330417D01*
X11593513D01*
X11618905Y2305025D01*
Y2279633D01*
X11517338D01*
X11669689Y2228850D02*
X11720472D01*
X11695080D01*
Y2381201D01*
X11669689D01*
X11872823Y2228850D02*
X11822039D01*
X11796647Y2254242D01*
Y2305025D01*
X11822039Y2330417D01*
X11872823D01*
X11898215Y2305025D01*
Y2279633D01*
X11796647D01*
X12050565Y2330417D02*
X11974390D01*
X11948998Y2305025D01*
Y2254242D01*
X11974390Y2228850D01*
X12050565D01*
X12126741Y2355809D02*
Y2330417D01*
X12101349D01*
X12152132D01*
X12126741D01*
Y2254242D01*
X12152132Y2228850D01*
X12228308Y2330417D02*
Y2228850D01*
Y2279633D01*
X12253700Y2305025D01*
X12279091Y2330417D01*
X12304483D01*
X12380658Y2228850D02*
X12431442D01*
X12406050D01*
Y2330417D01*
X12380658D01*
X12609185D02*
X12533009D01*
X12507617Y2305025D01*
Y2254242D01*
X12533009Y2228850D01*
X12609185D01*
X12812318D02*
X12863103D01*
X12837711D01*
Y2381201D01*
X12812318Y2355809D01*
X11238028Y2686001D02*
X11339596D01*
X11288812D01*
Y2533650D01*
X11415771D02*
X11466554D01*
X11491946Y2559042D01*
Y2609825D01*
X11466554Y2635217D01*
X11415771D01*
X11390379Y2609825D01*
Y2559042D01*
X11415771Y2533650D01*
X11542730Y2482867D02*
Y2635217D01*
X11618905D01*
X11644297Y2609825D01*
Y2559042D01*
X11618905Y2533650D01*
X11542730D01*
X11847431Y2686001D02*
Y2533650D01*
X11948998D01*
X12025174Y2635217D02*
X12075957D01*
X12101349Y2609825D01*
Y2533650D01*
X12025174D01*
X11999782Y2559042D01*
X12025174Y2584433D01*
X12101349D01*
X12152133Y2635217D02*
Y2559042D01*
X12177525Y2533650D01*
X12253700D01*
Y2508258D01*
X12228308Y2482867D01*
X12202916D01*
X12253700Y2533650D02*
Y2635217D01*
X12380659Y2533650D02*
X12329875D01*
X12304483Y2559042D01*
Y2609825D01*
X12329875Y2635217D01*
X12380659D01*
X12406051Y2609825D01*
Y2584433D01*
X12304483D01*
X12456834Y2635217D02*
Y2533650D01*
Y2584433D01*
X12482226Y2609825D01*
X12507618Y2635217D01*
X12533009D01*
X11238028Y2990801D02*
X11339596D01*
X11288812D01*
Y2838450D01*
X11415771D02*
X11466554D01*
X11491946Y2863842D01*
Y2914625D01*
X11466554Y2940017D01*
X11415771D01*
X11390379Y2914625D01*
Y2863842D01*
X11415771Y2838450D01*
X11542730Y2787667D02*
Y2940017D01*
X11618905D01*
X11644297Y2914625D01*
Y2863842D01*
X11618905Y2838450D01*
X11542730D01*
X11948998Y2965409D02*
X11923607Y2990801D01*
X11872823D01*
X11847431Y2965409D01*
Y2940017D01*
X11872823Y2914625D01*
X11923607D01*
X11948998Y2889233D01*
Y2863842D01*
X11923607Y2838450D01*
X11872823D01*
X11847431Y2863842D01*
X12025174Y2838450D02*
X12075957D01*
X12101349Y2863842D01*
Y2914625D01*
X12075957Y2940017D01*
X12025174D01*
X11999782Y2914625D01*
Y2863842D01*
X12025174Y2838450D01*
X12152133D02*
X12202916D01*
X12177525D01*
Y2990801D01*
X12152133D01*
X12380659D02*
Y2838450D01*
X12304483D01*
X12279092Y2863842D01*
Y2914625D01*
X12304483Y2940017D01*
X12380659D01*
X12507618Y2838450D02*
X12456834D01*
X12431442Y2863842D01*
Y2914625D01*
X12456834Y2940017D01*
X12507618D01*
X12533009Y2914625D01*
Y2889233D01*
X12431442D01*
X12583793Y2940017D02*
Y2838450D01*
Y2889233D01*
X12609185Y2914625D01*
X12634576Y2940017D01*
X12659968D01*
X11238028Y3295601D02*
X11339596D01*
X11288812D01*
Y3143250D01*
X11415771D02*
X11466554D01*
X11491946Y3168642D01*
Y3219425D01*
X11466554Y3244817D01*
X11415771D01*
X11390379Y3219425D01*
Y3168642D01*
X11415771Y3143250D01*
X11542730Y3092467D02*
Y3244817D01*
X11618905D01*
X11644297Y3219425D01*
Y3168642D01*
X11618905Y3143250D01*
X11542730D01*
X11923607Y3295601D02*
X11872823D01*
X11847431Y3270209D01*
Y3168642D01*
X11872823Y3143250D01*
X11923607D01*
X11948998Y3168642D01*
Y3270209D01*
X11923607Y3295601D01*
X11999782Y3244817D02*
X12050565Y3143250D01*
X12101349Y3244817D01*
X12228308Y3143250D02*
X12177525D01*
X12152133Y3168642D01*
Y3219425D01*
X12177525Y3244817D01*
X12228308D01*
X12253700Y3219425D01*
Y3194033D01*
X12152133D01*
X12304483Y3244817D02*
Y3143250D01*
Y3194033D01*
X12329875Y3219425D01*
X12355267Y3244817D01*
X12380659D01*
X12456834Y3143250D02*
X12507618D01*
X12482226D01*
Y3295601D01*
X12456834D01*
X12609185Y3244817D02*
X12659968D01*
X12685360Y3219425D01*
Y3143250D01*
X12609185D01*
X12583793Y3168642D01*
X12609185Y3194033D01*
X12685360D01*
X12736144Y3244817D02*
Y3168642D01*
X12761536Y3143250D01*
X12837711D01*
Y3117858D01*
X12812318Y3092467D01*
X12786927D01*
X12837711Y3143250D02*
Y3244817D01*
X13599579Y3448050D02*
Y3600401D01*
X13650363Y3549617D01*
X13701147Y3600401D01*
Y3448050D01*
X13777322Y3549617D02*
X13828105D01*
X13853497Y3524225D01*
Y3448050D01*
X13777322D01*
X13751930Y3473442D01*
X13777322Y3498833D01*
X13853497D01*
X13929672Y3575009D02*
Y3549617D01*
X13904282D01*
X13955064D01*
X13929672D01*
Y3473442D01*
X13955064Y3448050D01*
X14107414D02*
X14056631D01*
X14031239Y3473442D01*
Y3524225D01*
X14056631Y3549617D01*
X14107414D01*
X14132806Y3524225D01*
Y3498833D01*
X14031239D01*
X14183591Y3549617D02*
Y3448050D01*
Y3498833D01*
X14208981Y3524225D01*
X14234373Y3549617D01*
X14259766D01*
X14335941Y3448050D02*
X14386725D01*
X14361333D01*
Y3549617D01*
X14335941D01*
X14488292D02*
X14539075D01*
X14564467Y3524225D01*
Y3448050D01*
X14488292D01*
X14462900Y3473442D01*
X14488292Y3498833D01*
X14564467D01*
X14615251Y3448050D02*
X14666034D01*
X14640643D01*
Y3600401D01*
X14615251D01*
X13701147Y527009D02*
X13675755Y552401D01*
X13624971D01*
X13599579Y527009D01*
Y501617D01*
X13624971Y476225D01*
X13675755D01*
X13701147Y450833D01*
Y425442D01*
X13675755Y400050D01*
X13624971D01*
X13599579Y425442D01*
X13777322Y400050D02*
X13828105D01*
X13853497Y425442D01*
Y476225D01*
X13828105Y501617D01*
X13777322D01*
X13751930Y476225D01*
Y425442D01*
X13777322Y400050D01*
X13904282D02*
X13955064D01*
X13929672D01*
Y552401D01*
X13904282D01*
X14132806D02*
Y400050D01*
X14056631D01*
X14031239Y425442D01*
Y476225D01*
X14056631Y501617D01*
X14132806D01*
X14259766Y400050D02*
X14208981D01*
X14183591Y425442D01*
Y476225D01*
X14208981Y501617D01*
X14259766D01*
X14285158Y476225D01*
Y450833D01*
X14183591D01*
X14335941Y501617D02*
Y400050D01*
Y450833D01*
X14361333Y476225D01*
X14386725Y501617D01*
X14412115D01*
X14640643Y400050D02*
Y552401D01*
X14716818D01*
X14742210Y527009D01*
Y476225D01*
X14716818Y450833D01*
X14640643D01*
X14691426D02*
X14742210Y400050D01*
X14869170D02*
X14818385D01*
X14792993Y425442D01*
Y476225D01*
X14818385Y501617D01*
X14869170D01*
X14894560Y476225D01*
Y450833D01*
X14792993D01*
X14945345Y400050D02*
X15021519D01*
X15046912Y425442D01*
X15021519Y450833D01*
X14970737D01*
X14945345Y476225D01*
X14970737Y501617D01*
X15046912D01*
X15097694Y400050D02*
X15148479D01*
X15123087D01*
Y501617D01*
X15097694D01*
X15224654Y400050D02*
X15300829D01*
X15326221Y425442D01*
X15300829Y450833D01*
X15250044D01*
X15224654Y476225D01*
X15250044Y501617D01*
X15326221D01*
X15402396Y527009D02*
Y501617D01*
X15377003D01*
X15427788D01*
X15402396D01*
Y425442D01*
X15427788Y400050D01*
X13599579Y1162001D02*
X13701147D01*
Y1136609D01*
X13599579Y1035042D01*
Y1009650D01*
X13853497Y1162001D02*
X13802715Y1136609D01*
X13751930Y1085825D01*
Y1035042D01*
X13777322Y1009650D01*
X13828105D01*
X13853497Y1035042D01*
Y1060433D01*
X13828105Y1085825D01*
X13751930D01*
X14005849Y1009650D02*
X13904282D01*
X14005849Y1111217D01*
Y1136609D01*
X13980457Y1162001D01*
X13929672D01*
X13904282Y1136609D01*
X14056631D02*
X14082024Y1162001D01*
X14132806D01*
X14158199Y1136609D01*
Y1111217D01*
X14132806Y1085825D01*
X14158199Y1060433D01*
Y1035042D01*
X14132806Y1009650D01*
X14082024D01*
X14056631Y1035042D01*
Y1060433D01*
X14082024Y1085825D01*
X14056631Y1111217D01*
Y1136609D01*
X14082024Y1085825D02*
X14132806D01*
X13701147Y1771601D02*
X13599579D01*
Y1695425D01*
X13650363D01*
X13599579D01*
Y1619250D01*
X13751930D02*
Y1771601D01*
X13828105D01*
X13853497Y1746209D01*
Y1695425D01*
X13828105Y1670033D01*
X13751930D01*
X13802715D02*
X13853497Y1619250D01*
X13904282Y1695425D02*
X14005849D01*
X14132806Y1619250D02*
Y1771601D01*
X14056631Y1695425D01*
X14158199D01*
X13599579Y2381201D02*
X13701147D01*
Y2355809D01*
X13599579Y2254242D01*
Y2228850D01*
X13853497Y2381201D02*
X13802715Y2355809D01*
X13751930Y2305025D01*
Y2254242D01*
X13777322Y2228850D01*
X13828105D01*
X13853497Y2254242D01*
Y2279633D01*
X13828105Y2305025D01*
X13751930D01*
X14005849Y2228850D02*
X13904282D01*
X14005849Y2330417D01*
Y2355809D01*
X13980457Y2381201D01*
X13929672D01*
X13904282Y2355809D01*
X14056631D02*
X14082024Y2381201D01*
X14132806D01*
X14158199Y2355809D01*
Y2330417D01*
X14132806Y2305025D01*
X14158199Y2279633D01*
Y2254242D01*
X14132806Y2228850D01*
X14082024D01*
X14056631Y2254242D01*
Y2279633D01*
X14082024Y2305025D01*
X14056631Y2330417D01*
Y2355809D01*
X14082024Y2305025D02*
X14132806D01*
X13701147Y2965409D02*
X13675755Y2990801D01*
X13624971D01*
X13599579Y2965409D01*
Y2940017D01*
X13624971Y2914625D01*
X13675755D01*
X13701147Y2889233D01*
Y2863842D01*
X13675755Y2838450D01*
X13624971D01*
X13599579Y2863842D01*
X13777322Y2838450D02*
X13828105D01*
X13853497Y2863842D01*
Y2914625D01*
X13828105Y2940017D01*
X13777322D01*
X13751930Y2914625D01*
Y2863842D01*
X13777322Y2838450D01*
X13904282D02*
X13955064D01*
X13929672D01*
Y2990801D01*
X13904282D01*
X14132806D02*
Y2838450D01*
X14056631D01*
X14031239Y2863842D01*
Y2914625D01*
X14056631Y2940017D01*
X14132806D01*
X14259766Y2838450D02*
X14208981D01*
X14183591Y2863842D01*
Y2914625D01*
X14208981Y2940017D01*
X14259766D01*
X14285158Y2914625D01*
Y2889233D01*
X14183591D01*
X14335941Y2940017D02*
Y2838450D01*
Y2889233D01*
X14361333Y2914625D01*
X14386725Y2940017D01*
X14412115D01*
X14640643Y2838450D02*
Y2990801D01*
X14716818D01*
X14742210Y2965409D01*
Y2914625D01*
X14716818Y2889233D01*
X14640643D01*
X14691426D02*
X14742210Y2838450D01*
X14869170D02*
X14818385D01*
X14792993Y2863842D01*
Y2914625D01*
X14818385Y2940017D01*
X14869170D01*
X14894560Y2914625D01*
Y2889233D01*
X14792993D01*
X14945345Y2838450D02*
X15021519D01*
X15046912Y2863842D01*
X15021519Y2889233D01*
X14970737D01*
X14945345Y2914625D01*
X14970737Y2940017D01*
X15046912D01*
X15097694Y2838450D02*
X15148479D01*
X15123087D01*
Y2940017D01*
X15097694D01*
X15224654Y2838450D02*
X15300829D01*
X15326221Y2863842D01*
X15300829Y2889233D01*
X15250044D01*
X15224654Y2914625D01*
X15250044Y2940017D01*
X15326221D01*
X15402396Y2965409D02*
Y2940017D01*
X15377003D01*
X15427788D01*
X15402396D01*
Y2863842D01*
X15427788Y2838450D01*
X15783388Y3600401D02*
X15884955D01*
X15834171D01*
Y3448050D01*
X15935739Y3600401D02*
Y3448050D01*
Y3524225D01*
X15961130Y3549617D01*
X16011914D01*
X16037306Y3524225D01*
Y3448050D01*
X16088089D02*
X16138873D01*
X16113481D01*
Y3549617D01*
X16088089D01*
X16316615D02*
X16240440D01*
X16215048Y3524225D01*
Y3473442D01*
X16240440Y3448050D01*
X16316615D01*
X16367400D02*
Y3600401D01*
Y3498833D02*
X16443575Y3549617D01*
X16367400Y3498833D02*
X16443575Y3448050D01*
X16519749D02*
Y3549617D01*
X16595924D01*
X16621317Y3524225D01*
Y3448050D01*
X16748276D02*
X16697491D01*
X16672099Y3473442D01*
Y3524225D01*
X16697491Y3549617D01*
X16748276D01*
X16773666Y3524225D01*
Y3498833D01*
X16672099D01*
X16824451Y3448050D02*
X16900626D01*
X16926018Y3473442D01*
X16900626Y3498833D01*
X16849843D01*
X16824451Y3524225D01*
X16849843Y3549617D01*
X16926018D01*
X16976802Y3448050D02*
X17052977D01*
X17078369Y3473442D01*
X17052977Y3498833D01*
X17002194D01*
X16976802Y3524225D01*
X17002194Y3549617D01*
X17078369D01*
X15783388Y527009D02*
X15808780Y552401D01*
X15859563D01*
X15884955Y527009D01*
Y425442D01*
X15859563Y400050D01*
X15808780D01*
X15783388Y425442D01*
Y527009D01*
X15935739Y400050D02*
Y425442D01*
X15961130D01*
Y400050D01*
X15935739D01*
X16062697Y527009D02*
X16088089Y552401D01*
X16138873D01*
X16164265Y527009D01*
Y425442D01*
X16138873Y400050D01*
X16088089D01*
X16062697Y425442D01*
Y527009D01*
X16215048Y400050D02*
X16265833D01*
X16240440D01*
Y552401D01*
X16215048Y527009D01*
X16342007D02*
X16367400Y552401D01*
X16418182D01*
X16443575Y527009D01*
Y501617D01*
X16418182Y476225D01*
X16392790D01*
X16418182D01*
X16443575Y450833D01*
Y425442D01*
X16418182Y400050D01*
X16367400D01*
X16342007Y425442D01*
X16494357Y400050D02*
Y501617D01*
X16519749D01*
X16545142Y476225D01*
Y400050D01*
Y476225D01*
X16570534Y501617D01*
X16595924Y476225D01*
Y400050D01*
X16646709D02*
Y501617D01*
X16672099D01*
X16697491Y476225D01*
Y400050D01*
Y476225D01*
X16722884Y501617D01*
X16748276Y476225D01*
Y400050D01*
X15783388Y831809D02*
X15808780Y857201D01*
X15859563D01*
X15884955Y831809D01*
Y730242D01*
X15859563Y704850D01*
X15808780D01*
X15783388Y730242D01*
Y831809D01*
X15935739Y704850D02*
Y730242D01*
X15961130D01*
Y704850D01*
X15935739D01*
X16062697Y831809D02*
X16088089Y857201D01*
X16138873D01*
X16164265Y831809D01*
Y730242D01*
X16138873Y704850D01*
X16088089D01*
X16062697Y730242D01*
Y831809D01*
X16215048D02*
X16240440Y857201D01*
X16291223D01*
X16316615Y831809D01*
Y806417D01*
X16291223Y781025D01*
X16265833D01*
X16291223D01*
X16316615Y755633D01*
Y730242D01*
X16291223Y704850D01*
X16240440D01*
X16215048Y730242D01*
X16468967Y857201D02*
X16367400D01*
Y781025D01*
X16418182Y806417D01*
X16443575D01*
X16468967Y781025D01*
Y730242D01*
X16443575Y704850D01*
X16392792D01*
X16367400Y730242D01*
X16519749Y704850D02*
Y806417D01*
X16545142D01*
X16570534Y781025D01*
Y704850D01*
Y781025D01*
X16595924Y806417D01*
X16621317Y781025D01*
Y704850D01*
X16672099D02*
Y806417D01*
X16697491D01*
X16722884Y781025D01*
Y704850D01*
Y781025D01*
X16748276Y806417D01*
X16773666Y781025D01*
Y704850D01*
X15783388Y1136609D02*
X15808780Y1162001D01*
X15859563D01*
X15884955Y1136609D01*
Y1035042D01*
X15859563Y1009650D01*
X15808780D01*
X15783388Y1035042D01*
Y1136609D01*
X15935739Y1009650D02*
Y1035042D01*
X15961130D01*
Y1009650D01*
X15935739D01*
X16164265D02*
X16062697D01*
X16164265Y1111217D01*
Y1136609D01*
X16138873Y1162001D01*
X16088089D01*
X16062697Y1136609D01*
X16215048D02*
X16240440Y1162001D01*
X16291223D01*
X16316615Y1136609D01*
Y1035042D01*
X16291223Y1009650D01*
X16240440D01*
X16215048Y1035042D01*
Y1136609D01*
X16367400D02*
X16392792Y1162001D01*
X16443575D01*
X16468967Y1136609D01*
Y1035042D01*
X16443575Y1009650D01*
X16392792D01*
X16367400Y1035042D01*
Y1136609D01*
X16519749Y1009650D02*
Y1111217D01*
X16545142D01*
X16570534Y1085825D01*
Y1009650D01*
Y1085825D01*
X16595924Y1111217D01*
X16621317Y1085825D01*
Y1009650D01*
X16672099D02*
Y1111217D01*
X16697491D01*
X16722884Y1085825D01*
Y1009650D01*
Y1085825D01*
X16748276Y1111217D01*
X16773666Y1085825D01*
Y1009650D01*
X15783388Y1441409D02*
X15808780Y1466801D01*
X15859563D01*
X15884955Y1441409D01*
Y1339842D01*
X15859563Y1314450D01*
X15808780D01*
X15783388Y1339842D01*
Y1441409D01*
X15935739Y1314450D02*
Y1339842D01*
X15961130D01*
Y1314450D01*
X15935739D01*
X16062697Y1441409D02*
X16088089Y1466801D01*
X16138873D01*
X16164265Y1441409D01*
Y1339842D01*
X16138873Y1314450D01*
X16088089D01*
X16062697Y1339842D01*
Y1441409D01*
X16215048Y1314450D02*
X16265833D01*
X16240440D01*
Y1466801D01*
X16215048Y1441409D01*
X16342007D02*
X16367400Y1466801D01*
X16418182D01*
X16443575Y1441409D01*
Y1416017D01*
X16418182Y1390625D01*
X16443575Y1365233D01*
Y1339842D01*
X16418182Y1314450D01*
X16367400D01*
X16342007Y1339842D01*
Y1365233D01*
X16367400Y1390625D01*
X16342007Y1416017D01*
Y1441409D01*
X16367400Y1390625D02*
X16418182D01*
X16494357Y1314450D02*
Y1416017D01*
X16519749D01*
X16545142Y1390625D01*
Y1314450D01*
Y1390625D01*
X16570534Y1416017D01*
X16595924Y1390625D01*
Y1314450D01*
X16646709D02*
Y1416017D01*
X16672099D01*
X16697491Y1390625D01*
Y1314450D01*
Y1390625D01*
X16722884Y1416017D01*
X16748276Y1390625D01*
Y1314450D01*
X15783388Y1619250D02*
X15834171D01*
X15808780D01*
Y1771601D01*
X15783388Y1746209D01*
X15910347Y1619250D02*
Y1644642D01*
X15935739D01*
Y1619250D01*
X15910347D01*
X16037305Y1746209D02*
X16062697Y1771601D01*
X16113481D01*
X16138873Y1746209D01*
Y1644642D01*
X16113481Y1619250D01*
X16062697D01*
X16037305Y1644642D01*
Y1746209D01*
X16291223Y1771601D02*
X16240440Y1746209D01*
X16189656Y1695425D01*
Y1644642D01*
X16215048Y1619250D01*
X16265833D01*
X16291223Y1644642D01*
Y1670033D01*
X16265833Y1695425D01*
X16189656D01*
X16443575Y1771601D02*
X16342007D01*
Y1695425D01*
X16392790Y1720817D01*
X16418182D01*
X16443575Y1695425D01*
Y1644642D01*
X16418182Y1619250D01*
X16367400D01*
X16342007Y1644642D01*
X16494357Y1619250D02*
Y1720817D01*
X16519749D01*
X16545142Y1695425D01*
Y1619250D01*
Y1695425D01*
X16570534Y1720817D01*
X16595924Y1695425D01*
Y1619250D01*
X16646709D02*
Y1720817D01*
X16672099D01*
X16697491Y1695425D01*
Y1619250D01*
Y1695425D01*
X16722884Y1720817D01*
X16748276Y1695425D01*
Y1619250D01*
X15783388Y2051009D02*
X15808780Y2076401D01*
X15859563D01*
X15884955Y2051009D01*
Y1949442D01*
X15859563Y1924050D01*
X15808780D01*
X15783388Y1949442D01*
Y2051009D01*
X15935739Y1924050D02*
Y1949442D01*
X15961130D01*
Y1924050D01*
X15935739D01*
X16062697Y2051009D02*
X16088089Y2076401D01*
X16138873D01*
X16164265Y2051009D01*
Y1949442D01*
X16138873Y1924050D01*
X16088089D01*
X16062697Y1949442D01*
Y2051009D01*
X16215048Y1924050D02*
X16265833D01*
X16240440D01*
Y2076401D01*
X16215048Y2051009D01*
X16342007D02*
X16367400Y2076401D01*
X16418182D01*
X16443575Y2051009D01*
Y2025617D01*
X16418182Y2000225D01*
X16443575Y1974833D01*
Y1949442D01*
X16418182Y1924050D01*
X16367400D01*
X16342007Y1949442D01*
Y1974833D01*
X16367400Y2000225D01*
X16342007Y2025617D01*
Y2051009D01*
X16367400Y2000225D02*
X16418182D01*
X16494357Y1924050D02*
Y2025617D01*
X16519749D01*
X16545142Y2000225D01*
Y1924050D01*
Y2000225D01*
X16570534Y2025617D01*
X16595924Y2000225D01*
Y1924050D01*
X16646709D02*
Y2025617D01*
X16672099D01*
X16697491Y2000225D01*
Y1924050D01*
Y2000225D01*
X16722884Y2025617D01*
X16748276Y2000225D01*
Y1924050D01*
X15783388Y2355809D02*
X15808780Y2381201D01*
X15859563D01*
X15884955Y2355809D01*
Y2254242D01*
X15859563Y2228850D01*
X15808780D01*
X15783388Y2254242D01*
Y2355809D01*
X15935739Y2228850D02*
Y2254242D01*
X15961130D01*
Y2228850D01*
X15935739D01*
X16164265D02*
X16062697D01*
X16164265Y2330417D01*
Y2355809D01*
X16138873Y2381201D01*
X16088089D01*
X16062697Y2355809D01*
X16215048D02*
X16240440Y2381201D01*
X16291223D01*
X16316615Y2355809D01*
Y2254242D01*
X16291223Y2228850D01*
X16240440D01*
X16215048Y2254242D01*
Y2355809D01*
X16367400D02*
X16392792Y2381201D01*
X16443575D01*
X16468967Y2355809D01*
Y2254242D01*
X16443575Y2228850D01*
X16392792D01*
X16367400Y2254242D01*
Y2355809D01*
X16519749Y2228850D02*
Y2330417D01*
X16545142D01*
X16570534Y2305025D01*
Y2228850D01*
Y2305025D01*
X16595924Y2330417D01*
X16621317Y2305025D01*
Y2228850D01*
X16672099D02*
Y2330417D01*
X16697491D01*
X16722884Y2305025D01*
Y2228850D01*
Y2305025D01*
X16748276Y2330417D01*
X16773666Y2305025D01*
Y2228850D01*
X15783388Y2660609D02*
X15808780Y2686001D01*
X15859563D01*
X15884955Y2660609D01*
Y2559042D01*
X15859563Y2533650D01*
X15808780D01*
X15783388Y2559042D01*
Y2660609D01*
X15935739Y2533650D02*
Y2559042D01*
X15961130D01*
Y2533650D01*
X15935739D01*
X16062697Y2660609D02*
X16088089Y2686001D01*
X16138873D01*
X16164265Y2660609D01*
Y2559042D01*
X16138873Y2533650D01*
X16088089D01*
X16062697Y2559042D01*
Y2660609D01*
X16215048D02*
X16240440Y2686001D01*
X16291223D01*
X16316615Y2660609D01*
Y2635217D01*
X16291223Y2609825D01*
X16265833D01*
X16291223D01*
X16316615Y2584433D01*
Y2559042D01*
X16291223Y2533650D01*
X16240440D01*
X16215048Y2559042D01*
X16468967Y2686001D02*
X16367400D01*
Y2609825D01*
X16418182Y2635217D01*
X16443575D01*
X16468967Y2609825D01*
Y2559042D01*
X16443575Y2533650D01*
X16392792D01*
X16367400Y2559042D01*
X16519749Y2533650D02*
Y2635217D01*
X16545142D01*
X16570534Y2609825D01*
Y2533650D01*
Y2609825D01*
X16595924Y2635217D01*
X16621317Y2609825D01*
Y2533650D01*
X16672099D02*
Y2635217D01*
X16697491D01*
X16722884Y2609825D01*
Y2533650D01*
Y2609825D01*
X16748276Y2635217D01*
X16773666Y2609825D01*
Y2533650D01*
X15783388Y2965409D02*
X15808780Y2990801D01*
X15859563D01*
X15884955Y2965409D01*
Y2863842D01*
X15859563Y2838450D01*
X15808780D01*
X15783388Y2863842D01*
Y2965409D01*
X15935739Y2838450D02*
Y2863842D01*
X15961130D01*
Y2838450D01*
X15935739D01*
X16062697Y2965409D02*
X16088089Y2990801D01*
X16138873D01*
X16164265Y2965409D01*
Y2863842D01*
X16138873Y2838450D01*
X16088089D01*
X16062697Y2863842D01*
Y2965409D01*
X16215048Y2838450D02*
X16265833D01*
X16240440D01*
Y2990801D01*
X16215048Y2965409D01*
X16342007D02*
X16367400Y2990801D01*
X16418182D01*
X16443575Y2965409D01*
Y2940017D01*
X16418182Y2914625D01*
X16392790D01*
X16418182D01*
X16443575Y2889233D01*
Y2863842D01*
X16418182Y2838450D01*
X16367400D01*
X16342007Y2863842D01*
X16494357Y2838450D02*
Y2940017D01*
X16519749D01*
X16545142Y2914625D01*
Y2838450D01*
Y2914625D01*
X16570534Y2940017D01*
X16595924Y2914625D01*
Y2838450D01*
X16646709D02*
Y2940017D01*
X16672099D01*
X16697491Y2914625D01*
Y2838450D01*
Y2914625D01*
X16722884Y2940017D01*
X16748276Y2914625D01*
Y2838450D01*
X17535536Y3575009D02*
X17510144Y3600401D01*
X17459361D01*
X17433969Y3575009D01*
Y3473442D01*
X17459361Y3448050D01*
X17510144D01*
X17535536Y3473442D01*
X17611713Y3448050D02*
X17662495D01*
X17687888Y3473442D01*
Y3524225D01*
X17662495Y3549617D01*
X17611713D01*
X17586320Y3524225D01*
Y3473442D01*
X17611713Y3448050D01*
X17738670D02*
Y3549617D01*
X17814845D01*
X17840237Y3524225D01*
Y3448050D01*
X17891022D02*
X17967197D01*
X17992587Y3473442D01*
X17967197Y3498833D01*
X17916412D01*
X17891022Y3524225D01*
X17916412Y3549617D01*
X17992587D01*
X18068764Y3575009D02*
Y3549617D01*
X18043372D01*
X18094154D01*
X18068764D01*
Y3473442D01*
X18094154Y3448050D01*
X18195723Y3549617D02*
X18246506D01*
X18271898Y3524225D01*
Y3448050D01*
X18195723D01*
X18170331Y3473442D01*
X18195723Y3498833D01*
X18271898D01*
X18322681Y3448050D02*
Y3549617D01*
X18398857D01*
X18424249Y3524225D01*
Y3448050D01*
X18500424Y3575009D02*
Y3549617D01*
X18475032D01*
X18525816D01*
X18500424D01*
Y3473442D01*
X18525816Y3448050D01*
X17433969Y527009D02*
X17459361Y552401D01*
X17510144D01*
X17535536Y527009D01*
Y501617D01*
X17510144Y476225D01*
X17484752D01*
X17510144D01*
X17535536Y450833D01*
Y425442D01*
X17510144Y400050D01*
X17459361D01*
X17433969Y425442D01*
X17586320Y400050D02*
Y425442D01*
X17611713D01*
Y400050D01*
X17586320D01*
X17713280Y527009D02*
X17738670Y552401D01*
X17789455D01*
X17814845Y527009D01*
Y501617D01*
X17789455Y476225D01*
X17814845Y450833D01*
Y425442D01*
X17789455Y400050D01*
X17738670D01*
X17713280Y425442D01*
Y450833D01*
X17738670Y476225D01*
X17713280Y501617D01*
Y527009D01*
X17738670Y476225D02*
X17789455D01*
X17510144Y1009650D02*
Y1162001D01*
X17433969Y1085825D01*
X17535536D01*
X17586320Y1009650D02*
Y1035042D01*
X17611713D01*
Y1009650D01*
X17586320D01*
X17814845Y1162001D02*
X17764062Y1136609D01*
X17713280Y1085825D01*
Y1035042D01*
X17738670Y1009650D01*
X17789455D01*
X17814845Y1035042D01*
Y1060433D01*
X17789455Y1085825D01*
X17713280D01*
X17510144Y1619250D02*
Y1771601D01*
X17433969Y1695425D01*
X17535536D01*
X17586320Y1619250D02*
Y1644642D01*
X17611713D01*
Y1619250D01*
X17586320D01*
X17814845Y1771601D02*
X17713280D01*
Y1695425D01*
X17764062Y1720817D01*
X17789455D01*
X17814845Y1695425D01*
Y1644642D01*
X17789455Y1619250D01*
X17738670D01*
X17713280Y1644642D01*
X17510144Y2228850D02*
Y2381201D01*
X17433969Y2305025D01*
X17535536D01*
X17586320Y2228850D02*
Y2254242D01*
X17611713D01*
Y2228850D01*
X17586320D01*
X17814845Y2381201D02*
X17764062Y2355809D01*
X17713280Y2305025D01*
Y2254242D01*
X17738670Y2228850D01*
X17789455D01*
X17814845Y2254242D01*
Y2279633D01*
X17789455Y2305025D01*
X17713280D01*
X17433969Y2965409D02*
X17459361Y2990801D01*
X17510144D01*
X17535536Y2965409D01*
Y2940017D01*
X17510144Y2914625D01*
X17484752D01*
X17510144D01*
X17535536Y2889233D01*
Y2863842D01*
X17510144Y2838450D01*
X17459361D01*
X17433969Y2863842D01*
X17586320Y2838450D02*
Y2863842D01*
X17611713D01*
Y2838450D01*
X17586320D01*
X17713280Y2965409D02*
X17738670Y2990801D01*
X17789455D01*
X17814845Y2965409D01*
Y2940017D01*
X17789455Y2914625D01*
X17814845Y2889233D01*
Y2863842D01*
X17789455Y2838450D01*
X17738670D01*
X17713280Y2863842D01*
Y2889233D01*
X17738670Y2914625D01*
X17713280Y2940017D01*
Y2965409D01*
X17738670Y2914625D02*
X17789455D01*
X18881416Y3600401D02*
Y3448050D01*
X18957591D01*
X18982983Y3473442D01*
Y3498833D01*
X18957591Y3524225D01*
X18881416D01*
X18957591D01*
X18982983Y3549617D01*
Y3575009D01*
X18957591Y3600401D01*
X18881416D01*
X19059158Y3448050D02*
X19109943D01*
X19135333Y3473442D01*
Y3524225D01*
X19109943Y3549617D01*
X19059158D01*
X19033766Y3524225D01*
Y3473442D01*
X19059158Y3448050D01*
X19211510Y3549617D02*
X19262292D01*
X19287685Y3524225D01*
Y3448050D01*
X19211510D01*
X19186118Y3473442D01*
X19211510Y3498833D01*
X19287685D01*
X19338467Y3549617D02*
Y3448050D01*
Y3498833D01*
X19363860Y3524225D01*
X19389252Y3549617D01*
X19414642D01*
X19592386Y3600401D02*
Y3448050D01*
X19516209D01*
X19490819Y3473442D01*
Y3524225D01*
X19516209Y3549617D01*
X19592386D01*
X19795520Y3600401D02*
Y3448050D01*
X19897087D01*
X19973264Y3549617D02*
X20024046D01*
X20049438Y3524225D01*
Y3448050D01*
X19973264D01*
X19947871Y3473442D01*
X19973264Y3498833D01*
X20049438D01*
X20100221Y3549617D02*
Y3473442D01*
X20125613Y3448050D01*
X20201788D01*
Y3422658D01*
X20176398Y3397267D01*
X20151006D01*
X20201788Y3448050D02*
Y3549617D01*
X20328748Y3448050D02*
X20277963D01*
X20252573Y3473442D01*
Y3524225D01*
X20277963Y3549617D01*
X20328748D01*
X20354140Y3524225D01*
Y3498833D01*
X20252573D01*
X20404922Y3549617D02*
Y3448050D01*
Y3498833D01*
X20430315Y3524225D01*
X20455705Y3549617D01*
X20481097D01*
X20811192Y3575009D02*
X20785800Y3600401D01*
X20735016D01*
X20709624Y3575009D01*
Y3549617D01*
X20735016Y3524225D01*
X20785800D01*
X20811192Y3498833D01*
Y3473442D01*
X20785800Y3448050D01*
X20735016D01*
X20709624Y3473442D01*
X20887367Y3575009D02*
Y3549617D01*
X20861975D01*
X20912759D01*
X20887367D01*
Y3473442D01*
X20912759Y3448050D01*
X21014326Y3549617D02*
X21065109D01*
X21090501Y3524225D01*
Y3448050D01*
X21014326D01*
X20988934Y3473442D01*
X21014326Y3498833D01*
X21090501D01*
X21242851Y3549617D02*
X21166676D01*
X21141286Y3524225D01*
Y3473442D01*
X21166676Y3448050D01*
X21242851D01*
X21293636D02*
Y3600401D01*
Y3498833D02*
X21369810Y3549617D01*
X21293636Y3498833D02*
X21369810Y3448050D01*
D63*
X10019050Y3371850D02*
X21547610D01*
X10019050Y3676650D02*
X21547610D01*
X10019050Y19050D02*
Y3676650D01*
Y19050D02*
X11060228D01*
X10019050Y323850D02*
X11060228D01*
X10019050Y628650D02*
X11060228D01*
X10019050Y933450D02*
X11060228D01*
X10019050Y1238250D02*
X11060228D01*
X10019050Y1543050D02*
X11060228D01*
X10019050Y1847850D02*
X11060228D01*
X10019050Y2152650D02*
X11060228D01*
X10019050Y2457450D02*
X11060228D01*
X10019050Y2762250D02*
X11060228D01*
X10019050Y3067050D02*
X11060228D01*
Y19050D02*
Y3676650D01*
Y19050D02*
X13421779D01*
X11060228Y323850D02*
X13421779D01*
X11060228Y628650D02*
X13421779D01*
X11060228Y933450D02*
X13421779D01*
X11060228Y1238250D02*
X13421779D01*
X11060228Y1543050D02*
X13421779D01*
X11060228Y1847850D02*
X13421779D01*
X11060228Y2152650D02*
X13421779D01*
X11060228Y2457450D02*
X13421779D01*
X11060228Y2762250D02*
X13421779D01*
X11060228Y3067050D02*
X13421779D01*
Y19050D02*
Y3676650D01*
Y19050D02*
X15605588D01*
X13421779Y323850D02*
X15605588D01*
X13421779Y628650D02*
X15605588D01*
X13421779Y933450D02*
X15605588D01*
X13421779Y1238250D02*
X15605588D01*
X13421779Y1543050D02*
X15605588D01*
X13421779Y1847850D02*
X15605588D01*
X13421779Y2152650D02*
X15605588D01*
X13421779Y2457450D02*
X15605588D01*
X13421779Y2762250D02*
X15605588D01*
X13421779Y3067050D02*
X15605588D01*
Y19050D02*
Y3676650D01*
Y19050D02*
X17256169D01*
X15605588Y323850D02*
X17256169D01*
X15605588Y628650D02*
X17256169D01*
X15605588Y933450D02*
X17256169D01*
X15605588Y1238250D02*
X17256169D01*
X15605588Y1543050D02*
X17256169D01*
X15605588Y1847850D02*
X17256169D01*
X15605588Y2152650D02*
X17256169D01*
X15605588Y2457450D02*
X17256169D01*
X15605588Y2762250D02*
X17256169D01*
X15605588Y3067050D02*
X17256169D01*
Y19050D02*
Y3676650D01*
Y19050D02*
X18703616D01*
X17256169Y323850D02*
X18703616D01*
X17256169Y628650D02*
X18703616D01*
X17256169Y933450D02*
X18703616D01*
X17256169Y1238250D02*
X18703616D01*
X17256169Y1543050D02*
X18703616D01*
X17256169Y1847850D02*
X18703616D01*
X17256169Y2152650D02*
X18703616D01*
X17256169Y2457450D02*
X18703616D01*
X17256169Y2762250D02*
X18703616D01*
X17256169Y3067050D02*
X18703616D01*
Y19050D02*
Y3676650D01*
Y19050D02*
X21547610D01*
X18703616Y323850D02*
X21547610D01*
X18703616Y628650D02*
X21547610D01*
X18703616Y933450D02*
X21547610D01*
X18703616Y1238250D02*
X21547610D01*
X18703616Y1543050D02*
X21547610D01*
X18703616Y1847850D02*
X21547610D01*
X18703616Y2152650D02*
X21547610D01*
X18703616Y2457450D02*
X21547610D01*
X18703616Y2762250D02*
X21547610D01*
X18703616Y3067050D02*
X21547610D01*
Y19050D02*
Y3676650D01*
D64*
X21395210Y19050D02*
X21547610Y171450D01*
X21242812Y19050D02*
X21547610Y323850D01*
X21090411Y19050D02*
X21395210Y323850D01*
X20938011Y19050D02*
X21242812Y323850D01*
X20785611Y19050D02*
X21090411Y323850D01*
X20633211Y19050D02*
X20938011Y323850D01*
X20480811Y19050D02*
X20785611Y323850D01*
X20328410Y19050D02*
X20633211Y323850D01*
X20176012Y19050D02*
X20480811Y323850D01*
X20023611Y19050D02*
X20328410Y323850D01*
X19871211Y19050D02*
X20176012Y323850D01*
X19718811Y19050D02*
X20023611Y323850D01*
X19566411Y19050D02*
X19871211Y323850D01*
X19414011Y19050D02*
X19718811Y323850D01*
X19261610Y19050D02*
X19566411Y323850D01*
X19109212Y19050D02*
X19414011Y323850D01*
X18956812Y19050D02*
X19261610Y323850D01*
X18804411Y19050D02*
X19109212Y323850D01*
X18703616Y70655D02*
X18956812Y323850D01*
X18703616Y223055D02*
X18804411Y323850D01*
X21395210D02*
X21547610Y476250D01*
X21242812Y323850D02*
X21547610Y628650D01*
X21090411Y323850D02*
X21395210Y628650D01*
X20938011Y323850D02*
X21242812Y628650D01*
X20785611Y323850D02*
X21090411Y628650D01*
X20633211Y323850D02*
X20938011Y628650D01*
X20480811Y323850D02*
X20785611Y628650D01*
X20328410Y323850D02*
X20633211Y628650D01*
X20176012Y323850D02*
X20480811Y628650D01*
X20023611Y323850D02*
X20328410Y628650D01*
X19871211Y323850D02*
X20176012Y628650D01*
X19718811Y323850D02*
X20023611Y628650D01*
X19566411Y323850D02*
X19871211Y628650D01*
X19414011Y323850D02*
X19718811Y628650D01*
X19261610Y323850D02*
X19566411Y628650D01*
X19109212Y323850D02*
X19414011Y628650D01*
X18956812Y323850D02*
X19261610Y628650D01*
X18804411Y323850D02*
X19109212Y628650D01*
X18703616Y375455D02*
X18956812Y628650D01*
X18703616Y527855D02*
X18804411Y628650D01*
X21395210D02*
X21547610Y781050D01*
X21242812Y628650D02*
X21547610Y933450D01*
X21090411Y628650D02*
X21395210Y933450D01*
X20938011Y628650D02*
X21242812Y933450D01*
X20785611Y628650D02*
X21090411Y933450D01*
X20633211Y628650D02*
X20938011Y933450D01*
X20480811Y628650D02*
X20785611Y933450D01*
X20328410Y628650D02*
X20633211Y933450D01*
X20176012Y628650D02*
X20480811Y933450D01*
X20023611Y628650D02*
X20328410Y933450D01*
X19871211Y628650D02*
X20176012Y933450D01*
X19718811Y628650D02*
X20023611Y933450D01*
X19566411Y628650D02*
X19871211Y933450D01*
X19414011Y628650D02*
X19718811Y933450D01*
X19261610Y628650D02*
X19566411Y933450D01*
X19109212Y628650D02*
X19414011Y933450D01*
X18956812Y628650D02*
X19261610Y933450D01*
X18804411Y628650D02*
X19109212Y933450D01*
X18703616Y680255D02*
X18956812Y933450D01*
X18703616Y832655D02*
X18804411Y933450D01*
X21395210D02*
X21547610Y1085850D01*
X21242812Y933450D02*
X21547610Y1238250D01*
X21090411Y933450D02*
X21395210Y1238250D01*
X20938011Y933450D02*
X21242812Y1238250D01*
X20785611Y933450D02*
X21090411Y1238250D01*
X20633211Y933450D02*
X20938011Y1238250D01*
X20480811Y933450D02*
X20785611Y1238250D01*
X20328410Y933450D02*
X20633211Y1238250D01*
X20176012Y933450D02*
X20480811Y1238250D01*
X20023611Y933450D02*
X20328410Y1238250D01*
X19871211Y933450D02*
X20176012Y1238250D01*
X19718811Y933450D02*
X20023611Y1238250D01*
X19566411Y933450D02*
X19871211Y1238250D01*
X19414011Y933450D02*
X19718811Y1238250D01*
X19261610Y933450D02*
X19566411Y1238250D01*
X19109212Y933450D02*
X19414011Y1238250D01*
X18956812Y933450D02*
X19261610Y1238250D01*
X18804411Y933450D02*
X19109212Y1238250D01*
X18703616Y985055D02*
X18956812Y1238250D01*
X18703616Y1137455D02*
X18804411Y1238250D01*
X21395210D02*
X21547610Y1390650D01*
X21242812Y1238250D02*
X21547610Y1543050D01*
X21090411Y1238250D02*
X21395210Y1543050D01*
X20938011Y1238250D02*
X21242812Y1543050D01*
X20785611Y1238250D02*
X21090411Y1543050D01*
X20633211Y1238250D02*
X20938011Y1543050D01*
X20480811Y1238250D02*
X20785611Y1543050D01*
X20328410Y1238250D02*
X20633211Y1543050D01*
X20176012Y1238250D02*
X20480811Y1543050D01*
X20023611Y1238250D02*
X20328410Y1543050D01*
X19871211Y1238250D02*
X20176012Y1543050D01*
X19718811Y1238250D02*
X20023611Y1543050D01*
X19566411Y1238250D02*
X19871211Y1543050D01*
X19414011Y1238250D02*
X19718811Y1543050D01*
X19261610Y1238250D02*
X19566411Y1543050D01*
X19109212Y1238250D02*
X19414011Y1543050D01*
X18956812Y1238250D02*
X19261610Y1543050D01*
X18804411Y1238250D02*
X19109212Y1543050D01*
X18703616Y1289855D02*
X18956812Y1543050D01*
X18703616Y1442255D02*
X18804411Y1543050D01*
X21395210D02*
X21547610Y1695450D01*
X21242812Y1543050D02*
X21547610Y1847850D01*
X21090411Y1543050D02*
X21395210Y1847850D01*
X20938011Y1543050D02*
X21242812Y1847850D01*
X20785611Y1543050D02*
X21090411Y1847850D01*
X20633211Y1543050D02*
X20938011Y1847850D01*
X20480811Y1543050D02*
X20785611Y1847850D01*
X20328410Y1543050D02*
X20633211Y1847850D01*
X20176012Y1543050D02*
X20480811Y1847850D01*
X20023611Y1543050D02*
X20328410Y1847850D01*
X19871211Y1543050D02*
X20176012Y1847850D01*
X19718811Y1543050D02*
X20023611Y1847850D01*
X19566411Y1543050D02*
X19871211Y1847850D01*
X19414011Y1543050D02*
X19718811Y1847850D01*
X19261610Y1543050D02*
X19566411Y1847850D01*
X19109212Y1543050D02*
X19414011Y1847850D01*
X18956812Y1543050D02*
X19261610Y1847850D01*
X18804411Y1543050D02*
X19109212Y1847850D01*
X18703616Y1594655D02*
X18956812Y1847850D01*
X18703616Y1747055D02*
X18804411Y1847850D01*
X21395210D02*
X21547610Y2000250D01*
X21242812Y1847850D02*
X21547610Y2152650D01*
X21090411Y1847850D02*
X21395210Y2152650D01*
X20938011Y1847850D02*
X21242812Y2152650D01*
X20785611Y1847850D02*
X21090411Y2152650D01*
X20633211Y1847850D02*
X20938011Y2152650D01*
X20480811Y1847850D02*
X20785611Y2152650D01*
X20328410Y1847850D02*
X20633211Y2152650D01*
X20176012Y1847850D02*
X20480811Y2152650D01*
X20023611Y1847850D02*
X20328410Y2152650D01*
X19871211Y1847850D02*
X20176012Y2152650D01*
X19718811Y1847850D02*
X20023611Y2152650D01*
X19566411Y1847850D02*
X19871211Y2152650D01*
X19414011Y1847850D02*
X19718811Y2152650D01*
X19261610Y1847850D02*
X19566411Y2152650D01*
X19109212Y1847850D02*
X19414011Y2152650D01*
X18956812Y1847850D02*
X19261610Y2152650D01*
X18804411Y1847850D02*
X19109212Y2152650D01*
X18703616Y1899455D02*
X18956812Y2152650D01*
X18703616Y2051855D02*
X18804411Y2152650D01*
X21395210D02*
X21547610Y2305050D01*
X21242812Y2152650D02*
X21547610Y2457450D01*
X21090411Y2152650D02*
X21395210Y2457450D01*
X20938011Y2152650D02*
X21242812Y2457450D01*
X20785611Y2152650D02*
X21090411Y2457450D01*
X20633211Y2152650D02*
X20938011Y2457450D01*
X20480811Y2152650D02*
X20785611Y2457450D01*
X20328410Y2152650D02*
X20633211Y2457450D01*
X20176012Y2152650D02*
X20480811Y2457450D01*
X20023611Y2152650D02*
X20328410Y2457450D01*
X19871211Y2152650D02*
X20176012Y2457450D01*
X19718811Y2152650D02*
X20023611Y2457450D01*
X19566411Y2152650D02*
X19871211Y2457450D01*
X19414011Y2152650D02*
X19718811Y2457450D01*
X19261610Y2152650D02*
X19566411Y2457450D01*
X19109212Y2152650D02*
X19414011Y2457450D01*
X18956812Y2152650D02*
X19261610Y2457450D01*
X18804411Y2152650D02*
X19109212Y2457450D01*
X18703616Y2204255D02*
X18956812Y2457450D01*
X18703616Y2356655D02*
X18804411Y2457450D01*
X21395210D02*
X21547610Y2609850D01*
X21242812Y2457450D02*
X21547610Y2762250D01*
X21090411Y2457450D02*
X21395210Y2762250D01*
X20938011Y2457450D02*
X21242812Y2762250D01*
X20785611Y2457450D02*
X21090411Y2762250D01*
X20633211Y2457450D02*
X20938011Y2762250D01*
X20480811Y2457450D02*
X20785611Y2762250D01*
X20328410Y2457450D02*
X20633211Y2762250D01*
X20176012Y2457450D02*
X20480811Y2762250D01*
X20023611Y2457450D02*
X20328410Y2762250D01*
X19871211Y2457450D02*
X20176012Y2762250D01*
X19718811Y2457450D02*
X20023611Y2762250D01*
X19566411Y2457450D02*
X19871211Y2762250D01*
X19414011Y2457450D02*
X19718811Y2762250D01*
X19261610Y2457450D02*
X19566411Y2762250D01*
X19109212Y2457450D02*
X19414011Y2762250D01*
X18956812Y2457450D02*
X19261610Y2762250D01*
X18804411Y2457450D02*
X19109212Y2762250D01*
X18703616Y2509055D02*
X18956812Y2762250D01*
X18703616Y2661455D02*
X18804411Y2762250D01*
X21395210D02*
X21547610Y2914650D01*
X21242812Y2762250D02*
X21547610Y3067050D01*
X21090411Y2762250D02*
X21395210Y3067050D01*
X20938011Y2762250D02*
X21242812Y3067050D01*
X20785611Y2762250D02*
X21090411Y3067050D01*
X20633211Y2762250D02*
X20938011Y3067050D01*
X20480811Y2762250D02*
X20785611Y3067050D01*
X20328410Y2762250D02*
X20633211Y3067050D01*
X20176012Y2762250D02*
X20480811Y3067050D01*
X20023611Y2762250D02*
X20328410Y3067050D01*
X19871211Y2762250D02*
X20176012Y3067050D01*
X19718811Y2762250D02*
X20023611Y3067050D01*
X19566411Y2762250D02*
X19871211Y3067050D01*
X19414011Y2762250D02*
X19718811Y3067050D01*
X19261610Y2762250D02*
X19566411Y3067050D01*
X19109212Y2762250D02*
X19414011Y3067050D01*
X18956812Y2762250D02*
X19261610Y3067050D01*
X18804411Y2762250D02*
X19109212Y3067050D01*
X18703616Y2813855D02*
X18956812Y3067050D01*
X18703616Y2966255D02*
X18804411Y3067050D01*
X21395210D02*
X21547610Y3219450D01*
X21242812Y3067050D02*
X21547610Y3371850D01*
X21090411Y3067050D02*
X21395210Y3371850D01*
X20938011Y3067050D02*
X21242812Y3371850D01*
X20785611Y3067050D02*
X21090411Y3371850D01*
X20633211Y3067050D02*
X20938011Y3371850D01*
X20480811Y3067050D02*
X20785611Y3371850D01*
X20328410Y3067050D02*
X20633211Y3371850D01*
X20176012Y3067050D02*
X20480811Y3371850D01*
X20023611Y3067050D02*
X20328410Y3371850D01*
X19871211Y3067050D02*
X20176012Y3371850D01*
X19718811Y3067050D02*
X20023611Y3371850D01*
X19566411Y3067050D02*
X19871211Y3371850D01*
X19414011Y3067050D02*
X19718811Y3371850D01*
X19261610Y3067050D02*
X19566411Y3371850D01*
X19109212Y3067050D02*
X19414011Y3371850D01*
X18956812Y3067050D02*
X19261610Y3371850D01*
X18804411Y3067050D02*
X19109212Y3371850D01*
X18703616Y3118655D02*
X18956812Y3371850D01*
X18703616Y3271055D02*
X18804411Y3371850D01*
%TF.MD5,19512b290aacedc0f44ef8289fb3d7a1*%
M02*
