**ABCDEFGHIJKLMNOPQRSTUVWXYZabcdefghijklmnopqrstuvwxyz**************************
**PARASOLID !"#$%&'()*+,-./:;<=>?@[\]^_`{|}~0123456789**************************
**PART1;
MC=AMD64;
MC_MODEL=AMD64 Family 23 Model 1 Stepping 2, AuthenticAMD;
MC_ID=unknown;
OS=Windows_NT;
OS_RELEASE=unknown;
FRU=CAD Exchanger 3.13.0 (cadexchanger.com);
APPL=unknown;
SITE=unknown;
USER=unknown;
FORMAT=text;
GUISE=transmit;
KEY=CONV_TSR_1-2433_CMP-A10-0008-4;
FILE=CONV_TSR_1-2433_CMP-A10-0008-4.x_t;
DATE=Tue Jul 11 09:25:18 2023;
**PART2;
SCH=SCH_1200000_12103;
USFLD_SIZE=0;
**PART3;
**END_OF_HEADER*****************************************************************
T51 : TRANSMIT FILE created by modeller version 120000017 SCH_1200000_121030 12
 1 307 0 2 0 0 0 0 1000.0 1.0e-08 0 0 0 1 0 1 1 11 13 19 17 8 18 16 70 2 0 1 0 0
 4 1 20 0 3 3 1 T74 20 3 1 0 4 0 0 0 0 0 0 0 0 0 0 0 0 0 0 0 0 0 0 0 81 1 4 7 5
 12 0 0 116 0 7 80 1 5 0 6 8001 0 0 0 0 3 5 0 0 0 FFFFTFTFFFFFFF2 79 15 6 SDL/TY
SA_COLOUR83 3 7 0.2509803771972656 0.2509803771972656 0.2509803771972656 19 8 1
 0 1 10 0 9 V13 9 2 0 1 0 0 0 0 8 12 19 10 3 0 1 0 8 11 S13 11 4 0 1 0 12 0 0 10
 0 14 12 5 4 1.0e-08 114 0 14 11 13 -0 0 114 0 9 50 13 6 0 12 115 0 0 +-0.00585
 -0.00375 4.9999956e-04 1.4997597826618576e-32 6.1232339957367659e-17 1.0 -2.449
2935982947066e-16 -1.0 6.1232339957367659e-17 15 14 8 0 15 12 39 17 15 0 14 23 3
5 16 20 18 0 28 -18 16 9 0 15 0 21 17 ?1 29 17 10 0 16 22 0 -2.4999999999999982e
-04 -0.001875 4.9999956e-04 16 18 11 0 ?20 0 26 19 0 0 1 30 19 12 0 18 27 0 0 +-
2.4999999999999982e-04 -0.001875 4.9999956e-04 1.9796528358062778e-15 1.0 -6.123
2339957367659e-17 17 20 0 332 333 345 21 15 18 0 35 +18 21 13 0 20 16 24 22 ?1 2
9 22 14 0 21 25 17 -2.4999999999999974e-04 -0.001625 4.9999956e-04 17 23 0 14 29
 15 24 28 26 0 34 -18 24 15 0 23 21 30 25 ?1 29 25 16 0 24 31 22 2.5000000000000
068e-04 -0.001875 4.9999956e-04 16 26 17 0 ?28 18 32 27 0 0 1 30 27 18 0 26 33 1
9 0 +-2.4999999999999982e-04 -0.001875 4.9999956e-04 -1.0 2.4492935982947066e-16
 0.0 17 28 0 383 348 374 16 23 26 0 345 +17 29 0 14 35 23 30 34 32 0 38 -18 30 1
9 0 29 24 41 31 ?1 29 31 20 0 30 42 25 2.4999999999999982e-04 -0.001625 4.999995
6e-04 16 32 21 0 ?34 26 36 33 0 0 1 30 33 22 0 32 37 27 0 +2.5000000000000022e-0
4 -0.001875 4.9999956e-04 -2.4492935982947066e-16 -1.0 6.1232339957367659e-17 17
 34 0 368 369 359 24 29 32 0 374 +17 35 0 14 15 29 21 38 36 0 338 -16 36 23 0 ?3
8 32 43 37 0 0 1 30 37 24 0 36 44 33 0 +-2.499999999999993e-04 -0.001625 4.99999
56e-04 1.0 -2.4492935982947066e-16 0.0 17 38 0 353 354 338 30 35 36 0 359 +15 39
 25 0 40 12 64 17 40 0 39 48 60 41 45 43 0 53 -18 41 26 0 40 30 46 42 ?1 29 42 2
7 0 41 47 31 0.00535 -0.00375 4.9999956e-04 16 43 28 0 ?45 36 51 44 0 0 1 30 44
 29 0 43 52 37 0 +0.00535 0.00375 4.9999956e-04 2.4492935982947066e-16 1.0 -6.12
32339957367659e-17 17 45 0 253 224 205 46 40 43 0 60 +18 46 30 0 221 41 49 47 ?1
 29 47 31 0 46 50 42 0.00535 0.00375 4.9999956e-04 17 48 0 39 54 40 49 53 51 0 5
9 -18 49 32 0 48 46 55 50 ?1 29 50 33 0 49 56 47 -0.00535 -0.00375 4.9999956e-04
 16 51 34 0 ?53 43 57 52 0 0 1 30 52 35 0 51 58 44 0 +-0.00585 -0.00375 4.999995
6e-04 1.0 -2.4492935982947066e-16 0.0 17 53 0 189 200 196 41 48 51 0 205 +17 54
 0 39 60 48 55 59 57 0 63 -18 55 36 0 230 49 66 56 ?1 29 56 37 0 55 67 50 -0.005
35 0.00375 4.9999956e-04 16 57 38 0 ?59 51 61 58 0 0 1 30 58 39 0 57 62 52 0 +-0
.00535 0.00375 4.9999956e-04 -2.4492935982947066e-16 -1.0 6.1232339957367659e-17
 17 59 0 239 199 230 49 54 57 0 196 +17 60 0 39 40 54 46 63 61 0 0 +16 61 40 0 ?
60 57 68 62 0 0 1 30 62 41 0 61 69 58 0 +-0.00585 0.00375 4.9999956e-04 1.0 -2.4
492935982947066e-16 0.0 17 63 0 214 225 221 55 60 61 0 0 -15 64 42 0 65 12 89 17
 65 0 64 73 85 66 70 68 0 78 -18 66 43 0 280 55 71 67 ?1 29 67 44 0 66 72 56 -0.
00279 -0.001875 4.9999956e-04 16 68 45 0 ?70 61 76 69 0 0 1 30 69 46 0 68 77 62
 0 +-0.00279 -0.001875 4.9999956e-04 1.9796528358062778e-15 1.0 -6.1232339957367
659e-17 17 70 0 267 268 280 71 65 68 0 85 +18 71 47 0 273 66 74 72 ?1 29 72 48 0
 71 75 67 -0.00279 -0.001625 4.9999956e-04 17 73 0 64 79 65 74 78 76 0 84 -18 74
 49 0 73 71 80 75 ?1 29 75 50 0 74 81 72 -0.00229 -0.001875 4.9999956e-04 16 76
 51 0 ?78 68 82 77 0 0 1 30 77 52 0 76 83 69 0 +-0.00279 -0.001875 4.9999956e-04
 -1.0 2.4492935982947066e-16 0.0 17 78 0 318 283 309 66 73 76 0 0 +17 79 0 64 85
 73 80 84 82 0 88 -18 80 53 0 294 74 91 81 ?1 29 81 54 0 80 92 75 -0.00229 -0.00
1625 4.9999956e-04 16 82 55 0 ?84 76 86 83 0 0 1 30 83 56 0 82 87 77 0 +-0.00229
 -0.001875 4.9999956e-04 -2.4492935982947066e-16 -1.0 6.1232339957367659e-17 17
 84 0 303 304 294 74 79 82 0 309 +17 85 0 64 65 79 71 88 86 0 0 -16 86 57 0 ?88
 82 93 87 0 0 1 30 87 58 0 86 94 83 0 +-0.00279 -0.001625 4.9999956e-04 1.0 -2.4
492935982947066e-16 0.0 17 88 0 288 289 273 80 85 86 0 0 +15 89 59 0 90 12 0 17
 90 0 89 98 110 91 95 93 0 103 -18 91 60 0 90 80 96 92 ?1 29 92 61 0 91 97 81 0.
00229 -0.001875 4.9999956e-04 16 93 62 0 ?95 86 101 94 0 0 1 30 94 63 0 93 102 8
7 0 +0.00229 -0.001875 4.9999956e-04 1.9796528358062778e-15 1.0 -6.1232339957367
659e-17 17 95 0 397 398 410 96 90 93 0 110 +18 96 64 0 95 91 99 97 ?1 29 97 65 0
 96 100 92 0.00229 -0.001625 4.9999956e-04 17 98 0 89 104 90 99 103 101 0 109 -1
8 99 66 0 98 96 105 100 ?1 29 100 67 0 99 106 97 0.00279 -0.001875 4.9999956e-04
 16 101 68 0 ?103 93 107 102 0 0 1 30 102 69 0 101 108 94 0 +0.00229 -0.001875 4
.9999956e-04 -1.0 2.4492935982947066e-16 0.0 17 103 0 448 413 439 91 98 101 0 41
0 +17 104 0 89 110 98 105 109 107 0 113 -18 105 70 0 104 99 120 106 ?1 29 106 71
 0 105 121 100 0.00279 -0.001625 4.9999956e-04 16 107 72 0 ?109 101 111 108 0 0
 1 30 108 73 0 107 112 102 0 +0.00279 -0.001875 4.9999956e-04 -2.449293598294706
6e-16 -1.0 6.1232339957367659e-17 17 109 0 433 434 424 99 104 107 0 439 +17 110
 0 89 90 104 96 113 111 0 403 -16 111 74 0 ?113 107 122 112 0 0 1 30 112 75 0 11
1 123 108 0 +0.00229 -0.001625 4.9999956e-04 1.0 -2.4492935982947066e-16 0.0 17
 113 0 418 419 403 105 110 111 0 424 +14 114 76 116 1.0e-08 143 12 118 11 115 -0
 0 143 12 9 50 115 77 0 114 144 13 0 +-0.00585 -0.00375 0.01009999956 1.0 -2.449
2935982947066e-16 1.8070036208091742e-16 -1.807003620809174e-16 6.12323399573677
12e-17 1.0 81 1 116 78 5 114 0 0 145 4 117 83 3 117 0.0 0.0 0.0 15 118 79 0 119
 114 0 17 119 0 118 127 139 120 124 122 0 132 +18 120 80 0 231 105 125 121 ?1 29
 121 81 0 120 126 106 -0.00585 0.00375 -4.3999999910226961e-10 16 122 82 0 ?119
 111 130 123 0 0 1 30 123 83 0 122 131 112 0 +-0.00585 0.00375 0.01009999956 1.8
07003620809174e-16 -6.1232339957367712e-17 -1.0 17 124 0 214 180 231 125 119 122
 0 139 -18 125 84 0 124 120 128 126 ?1 29 126 85 0 125 129 121 -0.00585 0.00375
 0.01009999956 17 127 0 118 133 119 128 132 130 0 138 -18 128 86 0 127 125 134 1
29 ?1 29 129 87 0 128 135 126 -0.00585 -0.00375 -4.3999999910226961e-10 16 130 8
8 0 ?132 122 136 131 0 0 1 30 131 89 0 130 137 123 0 +-0.00585 -0.00375 -4.39999
99910226961e-10 2.4492935982947066e-16 1.0 -6.1232339957367659e-17 17 132 0 248
 234 195 120 127 130 0 0 +17 133 0 118 139 127 134 138 136 0 142 -18 134 90 0 13
3 128 149 135 ?1 29 135 91 0 134 150 129 -0.00585 -0.00375 0.01009999956 16 136
 92 0 ?138 130 140 137 0 0 1 30 137 93 0 136 141 131 0 +-0.00585 -0.00375 0.0100
9999956 1.807003620809174e-16 -6.1232339957367712e-17 -1.0 17 138 0 189 190 184
 128 133 136 0 195 +17 139 0 118 119 133 125 142 140 0 177 +16 140 94 0 ?139 136
 151 141 0 0 1 30 141 95 0 140 152 137 0 +-0.00585 -0.00375 0.01009999956 2.4492
935982947066e-16 1.0 -6.1232339957367659e-17 17 142 0 176 181 177 134 139 140 0
 184 -14 143 96 145 1.0e-08 172 114 147 11 144 -0 0 172 114 9 50 144 97 0 143 17
3 115 0 +0.00585 -0.00375 0.01009999956 -1.0 2.4492935982947066e-16 -1.807003620
809174e-16 1.8070036208091736e-16 -6.1232339957367712e-17 -1.0 81 1 145 98 5 143
 0 0 174 116 146 83 3 146 0.0 0.0 0.0 15 147 99 0 148 143 0 17 148 0 147 156 168
 149 153 151 0 161 +18 149 100 0 148 134 154 150 ?1 29 150 101 0 149 155 135 0.0
0585 0.00375 0.01009999956 16 151 102 0 ?148 140 159 152 0 0 1 30 152 103 0 151
 160 141 0 +0.00585 0.00375 0.01009999956 -1.8070036208091736e-16 6.123233995736
7712e-17 1.0 17 153 0 214 215 180 154 148 151 0 168 -18 154 104 0 220 149 157 15
5 ?1 29 155 105 0 154 158 150 0.00585 0.00375 -4.3999999910226961e-10 17 156 0 1
47 162 148 157 161 159 0 167 -18 157 106 0 156 154 163 158 ?1 29 158 107 0 157 1
64 155 0.00585 -0.00375 0.01009999956 16 159 108 0 ?161 151 165 160 0 0 1 30 160
 109 0 159 166 152 0 +0.00585 -0.00375 0.01009999956 2.4492935982947066e-16 1.0
 -6.1232339957367659e-17 17 161 0 176 177 181 149 156 159 0 180 +17 162 0 147 16
8 156 163 167 165 0 171 -18 163 110 0 162 157 191 164 ?1 29 164 111 0 163 192 15
8 0.00585 -0.00375 -4.3999999910226961e-10 16 165 112 0 ?167 159 169 166 0 0 1 3
0 166 113 0 165 170 160 0 +0.00585 -0.00375 0.01009999956 -1.8070036208091736e-1
6 6.1232339957367712e-17 1.0 17 167 0 189 184 206 157 162 165 0 181 +17 168 0 14
7 148 162 154 171 169 0 0 -16 169 114 0 ?171 165 178 170 0 0 1 30 170 115 0 169
 179 166 0 +0.00585 -0.00375 -4.3999999910226961e-10 -2.4492935982947066e-16 -1.
0 6.1232339957367659e-17 17 171 0 262 209 220 163 168 169 0 206 +14 172 116 174
 1.0e-08 185 143 176 11 173 -0 0 185 143 9 50 173 117 0 172 186 144 0 +-0.00585
 -0.00375 0.01009999956 7.4133481879350729e-17 -6.1232339957367676e-17 -1.0 1.0
 -2.4492935982947066e-16 7.4133481879350738e-17 81 1 174 118 5 172 0 0 187 145 1
75 83 3 175 0.0 0.0 0.0 15 176 119 0 177 172 0 17 177 0 176 142 161 125 180 178
 0 0 +16 178 120 0 ?177 169 182 179 0 0 1 30 179 121 0 178 183 170 0 +-0.00585 0
.00375 0.01009999956 -1.0 2.4492935982947066e-16 -7.4133481879350738e-17 17 180
 0 214 153 124 149 177 178 0 0 -17 181 0 176 161 142 157 184 182 0 0 -16 182 122
 0 ?184 178 193 183 0 0 1 30 183 123 0 182 194 179 0 +-0.00585 -0.00375 0.010099
99956 -1.0 2.4492935982947066e-16 -7.4133481879350738e-17 17 184 0 189 138 167 1
34 181 182 0 0 +14 185 124 187 1.0e-08 210 172 189 11 186 +0 0 210 172 9 50 186
 125 0 185 211 173 0 +-0.00585 -0.00375 4.9999956e-04 -2.4492935982947066e-16 -1
.0 6.1232339957367659e-17 1.0 -2.4492935982947066e-16 0.0 81 1 187 126 5 185 0 0
 212 174 188 83 3 188 0.0 0.0 0.0 15 189 127 0 138 185 0 17 190 0 189 196 138 19
1 195 193 0 199 -18 191 128 0 243 163 201 192 ?1 29 192 129 0 191 202 164 -0.005
35 -0.00375 -4.3999999910226961e-10 16 193 130 0 ?195 182 197 194 0 0 1 30 194 1
31 0 193 198 183 0 +-0.00535 -0.00375 -4.3999999910226961e-10 -1.0 2.44929359829
47066e-16 0.0 17 195 0 248 132 243 128 190 193 0 0 +17 196 0 189 53 190 49 199 1
97 0 0 +16 197 132 0 ?196 193 203 198 0 0 1 30 198 133 0 197 204 194 0 +-0.00535
 -0.00375 -4.3999999910226961e-10 1.4997597826618576e-32 6.1232339957367659e-17
 1.0 17 199 0 239 240 59 191 196 197 0 0 -17 200 0 189 206 53 201 205 203 0 209
 -18 201 134 0 254 191 216 202 ?1 29 202 135 0 201 217 192 0.00535 -0.00375 -4.3
999999910226961e-10 16 203 136 0 ?205 197 207 204 0 0 1 30 204 137 0 203 208 198
 0 +0.00535 -0.00375 -4.3999999910226961e-10 1.4997597826618576e-32 6.1232339957
367659e-17 1.0 17 205 0 253 45 254 41 200 203 0 0 +17 206 0 189 167 200 163 209
 207 0 0 -16 207 138 0 ?209 203 218 208 0 0 1 30 208 139 0 207 219 204 0 +0.0053
5 -0.00375 -4.3999999910226961e-10 -1.0 2.4492935982947066e-16 0.0 17 209 0 262
 257 171 201 206 207 0 0 +14 210 140 212 1.0e-08 235 185 214 11 211 -0 0 235 185
 9 50 211 141 0 210 236 186 0 +-0.00585 0.00375 4.9999956e-04 -2.449293598294706
6e-16 -1.0 6.1232339957367659e-17 1.0 -2.4492935982947066e-16 0.0 81 1 212 142 5
 210 0 0 237 187 213 83 3 213 0.0 0.0 0.0 15 214 143 0 124 210 0 17 215 0 214 22
1 153 216 220 218 0 224 -18 216 144 0 215 201 226 217 ?1 29 217 145 0 216 227 20
2 0.00535 0.00375 -4.3999999910226961e-10 16 218 146 0 ?220 207 222 219 0 0 1 30
 219 147 0 218 223 208 0 +0.00585 0.00375 -4.3999999910226961e-10 1.0 -2.4492935
982947066e-16 0.0 17 220 0 262 171 257 154 215 218 0 153 +17 221 0 214 63 215 46
 224 222 0 45 +16 222 148 0 ?221 218 228 223 0 0 1 30 223 149 0 222 229 219 0 +0
.00535 0.00375 -4.3999999910226961e-10 1.4997597826618576e-32 6.1232339957367659
e-17 1.0 17 224 0 253 254 45 216 221 222 0 257 -17 225 0 214 231 63 226 230 228
 0 234 -18 226 150 0 225 216 269 227 ?1 29 227 151 0 226 270 217 -0.00535 0.0037
5 -4.3999999910226961e-10 16 228 152 0 ?230 222 232 229 0 0 1 30 229 153 0 228 2
33 223 0 +-0.00535 0.00375 -4.3999999910226961e-10 1.4997597826618576e-32 6.1232
339957367659e-17 1.0 17 230 0 239 59 240 55 225 228 0 54 +17 231 0 214 124 225 1
20 234 232 0 119 -16 232 154 0 ?234 228 241 233 0 0 1 30 233 155 0 232 242 229 0
 +-0.00585 0.00375 -4.3999999910226961e-10 1.0 -2.4492935982947066e-16 0.0 17 23
4 0 248 243 132 226 231 232 0 240 +14 235 156 237 1.0e-08 244 210 239 11 236 -0
 0 244 210 9 50 236 157 0 235 245 211 0 +-0.00535 0.00375 -4.3999999910226961e-1
0 -1.0 2.4492935982947066e-16 0.0 -2.4492935982947066e-16 -1.0 6.123233995736765
9e-17 81 1 237 158 5 235 0 0 246 212 238 83 3 238 0.0 0.0 0.0 15 239 159 0 59 23
5 0 17 240 0 239 230 199 226 243 241 0 0 -16 241 160 0 ?243 232 255 242 0 0 1 30
 242 161 0 241 256 233 0 +-0.00535 0.00375 -4.3999999910226961e-10 -2.4492935982
947066e-16 -1.0 6.1232339957367659e-17 17 243 0 248 195 234 191 240 241 0 190 +1
4 244 162 246 1.0e-08 249 235 248 11 245 +0 0 249 235 9 50 245 163 0 244 250 236
 0 +-0.00585 -0.00375 -4.3999999910226961e-10 -1.4997597826618576e-32 -6.1232339
957367659e-17 -1.0 2.4492935982947066e-16 1.0 -6.1232339957367659e-17 81 1 246 1
64 5 244 0 0 251 237 247 83 3 247 0.0 0.0 0.0 15 248 165 0 195 244 0 14 249 166
 251 1.0e-08 258 244 253 11 250 -0 0 258 244 9 50 250 167 0 249 259 245 0 +0.005
35 0.00375 -4.3999999910226961e-10 1.0 -2.4492935982947066e-16 0.0 2.44929359829
47066e-16 1.0 -6.1232339957367659e-17 81 1 251 168 5 249 0 0 260 246 252 83 3 25
2 0.0 0.0 0.0 15 253 169 0 45 249 0 17 254 0 253 205 224 201 257 255 0 200 -16 2
55 170 0 ?257 241 271 256 0 0 1 30 256 171 0 255 272 242 0 +0.00535 0.00375 -4.3
999999910226961e-10 2.4492935982947066e-16 1.0 -6.1232339957367659e-17 17 257 0
 262 220 209 216 254 255 0 0 +14 258 172 260 1.0e-08 263 249 262 11 259 -0 0 263
 249 9 50 259 173 0 258 264 250 0 +0.00535 -0.00375 -4.3999999910226961e-10 1.49
97597826618576e-32 6.1232339957367659e-17 1.0 -2.4492935982947066e-16 -1.0 6.123
2339957367659e-17 81 1 260 174 5 258 0 0 265 251 261 83 3 261 0.0 0.0 0.0 15 262
 175 0 257 258 0 14 263 176 265 1.0e-08 284 258 267 11 264 -0 0 284 258 9 50 264
 177 0 263 285 259 0 +-0.00279 -0.001875 -0.00410000044 1.0 -1.9796528358062778e
-15 1.0622117761303835e-31 1.9796528358062778e-15 1.0 -6.1232339957367659e-17 81
 1 265 178 5 263 0 0 286 260 266 83 3 266 0.7921568751335144 0.8196078538894654
 0.9333333373069764 15 267 179 0 70 263 0 17 268 0 267 274 70 269 273 271 0 279
 -18 269 180 0 268 226 275 270 ?1 29 270 181 0 269 276 227 -0.00279 -0.001625 -0
.00410000044 16 271 182 0 ?273 255 277 272 0 0 1 30 272 183 0 271 278 256 0 +-0.
00279 -0.001625 -0.00410000044 1.4997597826618576e-32 6.1232339957367659e-17 1.0
 17 273 0 288 88 295 71 268 271 0 70 +17 274 0 267 280 268 275 279 277 0 283 -18
 275 184 0 274 269 290 276 ?1 29 276 185 0 275 291 270 -0.00279 -0.001875 -0.004
10000044 16 277 186 0 ?279 271 281 278 0 0 1 30 278 187 0 277 282 272 0 +-0.0027
9 -0.001875 -0.00410000044 1.9796528358062778e-15 1.0 -6.1232339957367659e-17 17
 279 0 327 298 322 269 274 277 0 295 +17 280 0 267 70 274 66 283 281 0 65 +16 28
1 188 0 ?280 277 292 282 0 0 1 30 282 189 0 281 293 278 0 +-0.00279 -0.001875 -0
.00410000044 1.4997597826618576e-32 6.1232339957367659e-17 1.0 17 283 0 318 319
 78 275 280 281 0 322 -14 284 190 286 1.0e-08 299 263 288 11 285 -0 0 299 263 9
 50 285 191 0 284 300 264 0 +-0.00279 -0.001625 -0.00410000044 -2.44929359829470
66e-16 -1.0 6.1232339957367659e-17 1.0 -2.4492935982947066e-16 0.0 81 1 286 192
 5 284 0 0 301 265 287 83 3 287 0.7921568751335144 0.8196078538894654 0.93333333
73069764 15 288 193 0 88 284 0 17 289 0 288 295 88 290 294 292 0 298 -18 290 194
 0 289 275 305 291 ?1 29 291 195 0 290 306 276 -0.00229 -0.001625 -0.00410000044
 16 292 196 0 ?294 281 296 293 0 0 1 30 293 197 0 292 297 282 0 +-0.00229 -0.001
625 -0.00410000044 1.4997597826618576e-32 6.1232339957367659e-17 1.0 17 294 0 30
3 84 310 80 289 292 0 79 +17 295 0 288 273 289 269 298 296 0 0 -16 296 198 0 ?29
8 292 307 297 0 0 1 30 297 199 0 296 308 293 0 +-0.00279 -0.001625 -0.0041000004
4 1.0 -2.4492935982947066e-16 0.0 17 298 0 327 313 279 290 295 296 0 310 +14 299
 200 301 1.0e-08 314 284 303 11 300 -0 0 314 284 9 50 300 201 0 299 315 285 0 +-
0.00229 -0.001875 -0.00410000044 -1.0 2.4492935982947066e-16 0.0 -2.449293598294
7066e-16 -1.0 6.1232339957367659e-17 81 1 301 202 5 299 0 0 316 286 302 83 3 302
 0.7921568751335144 0.8196078538894654 0.9333333373069764 15 303 203 0 84 299 0
 17 304 0 303 310 84 305 309 307 0 313 -18 305 204 0 304 290 334 306 ?1 29 306 2
05 0 305 335 291 -0.00229 -0.001875 -0.00410000044 16 307 206 0 ?309 296 311 308
 0 0 1 30 308 207 0 307 312 297 0 +-0.00229 -0.001875 -0.00410000044 1.499759782
6618576e-32 6.1232339957367659e-17 1.0 17 309 0 318 78 319 74 304 307 0 0 +17 31
0 0 303 294 304 290 313 311 0 0 -16 311 208 0 ?313 307 320 312 0 0 1 30 312 209
 0 311 321 308 0 +-0.00229 -0.001875 -0.00410000044 -2.4492935982947066e-16 -1.0
 6.1232339957367659e-17 17 313 0 327 322 298 305 310 311 0 319 +14 314 210 316 1
.0e-08 323 299 318 11 315 -0 0 323 299 9 50 315 211 0 314 324 300 0 +-0.00279 -0
.001875 -0.00410000044 2.4492935982947066e-16 1.0 -6.1232339957367659e-17 -1.0 2
.4492935982947066e-16 0.0 81 1 316 212 5 314 0 0 325 301 317 83 3 317 0.79215687
51335144 0.8196078538894654 0.9333333373069764 15 318 213 0 78 314 0 17 319 0 31
8 309 283 305 322 320 0 0 -16 320 214 0 ?322 311 336 321 0 0 1 30 321 215 0 320
 337 312 0 +-0.00279 -0.001875 -0.00410000044 -1.0 2.4492935982947066e-16 0.0 17
 322 0 327 279 313 275 319 320 0 0 +14 323 216 325 1.0e-08 328 314 327 11 324 +0
 0 328 314 9 50 324 217 0 323 329 315 0 +-0.00279 -0.001625 -0.00410000044 -1.49
97597826618576e-32 -6.1232339957367659e-17 -1.0 2.4492935982947066e-16 1.0 -6.12
32339957367659e-17 81 1 325 218 5 323 0 0 330 316 326 83 3 326 0.792156875133514
4 0.8196078538894654 0.9333333373069764 15 327 219 0 279 323 0 14 328 220 330 1.
0e-08 349 323 332 11 329 -0 0 349 323 9 50 329 221 0 328 350 324 0 +-2.499999999
9999982e-04 -0.001875 -0.00410000044 1.0 -1.9796528358062778e-15 1.0622117761303
835e-31 1.9796528358062778e-15 1.0 -6.1232339957367659e-17 81 1 330 222 5 328 0
 0 351 325 331 83 3 331 0.7921568751335144 0.8196078538894654 0.9333333373069764
 15 332 223 0 20 328 0 17 333 0 332 339 20 334 338 336 0 344 -18 334 224 0 333 3
05 340 335 ?1 29 335 225 0 334 341 306 -2.499999999999993e-04 -0.001625 -0.00410
000044 16 336 226 0 ?338 320 342 337 0 0 1 30 337 227 0 336 343 321 0 +-2.499999
999999993e-04 -0.001625 -0.00410000044 1.4997597826618576e-32 6.1232339957367659
e-17 1.0 17 338 0 353 38 360 21 333 336 0 0 +17 339 0 332 345 333 340 344 342 0
 348 -18 340 228 0 339 334 355 341 ?1 29 341 229 0 340 356 335 -2.49999999999999
82e-04 -0.001875 -0.00410000044 16 342 230 0 ?344 336 346 343 0 0 1 30 343 231 0
 342 347 337 0 +-2.4999999999999982e-04 -0.001875 -0.00410000044 1.9796528358062
778e-15 1.0 -6.1232339957367659e-17 17 344 0 392 363 387 334 339 342 0 360 +17 3
45 0 332 20 339 16 348 346 0 0 +16 346 232 0 ?345 342 357 347 0 0 1 30 347 233 0
 346 358 343 0 +-2.4999999999999982e-04 -0.001875 -0.00410000044 1.4997597826618
576e-32 6.1232339957367659e-17 1.0 17 348 0 383 384 28 340 345 346 0 387 -14 349
 234 351 1.0e-08 364 328 353 11 350 -0 0 364 328 9 50 350 235 0 349 365 329 0 +-
2.499999999999993e-04 -0.001625 -0.00410000044 -2.4492935982947066e-16 -1.0 6.12
32339957367659e-17 1.0 -2.4492935982947066e-16 0.0 81 1 351 236 5 349 0 0 366 33
0 352 83 3 352 0.7921568751335144 0.8196078538894654 0.9333333373069764 15 353 2
37 0 38 349 0 17 354 0 353 360 38 355 359 357 0 363 -18 355 238 0 354 340 370 35
6 ?1 29 356 239 0 355 371 341 2.5000000000000028e-04 -0.001625 -0.00410000044 16
 357 240 0 ?359 346 361 358 0 0 1 30 358 241 0 357 362 347 0 +2.5000000000000028
e-04 -0.001625 -0.00410000044 1.4997597826618576e-32 6.1232339957367659e-17 1.0
 17 359 0 368 34 375 30 354 357 0 0 +17 360 0 353 338 354 334 363 361 0 0 -16 36
1 242 0 ?363 357 372 362 0 0 1 30 362 243 0 361 373 358 0 +-2.499999999999993e-0
4 -0.001625 -0.00410000044 1.0 -2.4492935982947066e-16 0.0 17 363 0 392 378 344
 355 360 361 0 375 +14 364 244 366 1.0e-08 379 349 368 11 365 -0 0 379 349 9 50
 365 245 0 364 380 350 0 +2.5000000000000022e-04 -0.001875 -0.00410000044 -1.0 2
.4492935982947066e-16 0.0 -2.4492935982947066e-16 -1.0 6.1232339957367659e-17 81
 1 366 246 5 364 0 0 381 351 367 83 3 367 0.7921568751335144 0.8196078538894654
 0.9333333373069764 15 368 247 0 34 364 0 17 369 0 368 375 34 370 374 372 0 378
 -18 370 248 0 369 355 399 371 ?1 29 371 249 0 370 400 356 2.5000000000000022e-0
4 -0.001875 -0.00410000044 16 372 250 0 ?374 361 376 373 0 0 1 30 373 251 0 372
 377 362 0 +2.5000000000000022e-04 -0.001875 -0.00410000044 1.4997597826618576e-
32 6.1232339957367659e-17 1.0 17 374 0 383 28 384 24 369 372 0 0 +17 375 0 368 3
59 369 355 378 376 0 0 -16 376 252 0 ?378 372 385 377 0 0 1 30 377 253 0 376 386
 373 0 +2.5000000000000022e-04 -0.001875 -0.00410000044 -2.4492935982947066e-16
 -1.0 6.1232339957367659e-17 17 378 0 392 387 363 370 375 376 0 384 +14 379 254
 381 1.0e-08 388 364 383 11 380 -0 0 388 364 9 50 380 255 0 379 389 365 0 +-2.49
99999999999982e-04 -0.001875 -0.00410000044 2.4492935982947066e-16 1.0 -6.123233
9957367659e-17 -1.0 2.4492935982947066e-16 0.0 81 1 381 256 5 379 0 0 390 366 38
2 83 3 382 0.7921568751335144 0.8196078538894654 0.9333333373069764 15 383 257 0
 28 379 0 17 384 0 383 374 348 370 387 385 0 0 -16 385 258 0 ?387 376 401 386 0
 0 1 30 386 259 0 385 402 377 0 +-2.4999999999999982e-04 -0.001875 -0.0041000004
4 -1.0 2.4492935982947066e-16 0.0 17 387 0 392 344 378 340 384 385 0 0 +14 388 2
60 390 1.0e-08 393 379 392 11 389 +0 0 393 379 9 50 389 261 0 388 394 380 0 +-2.
499999999999993e-04 -0.001625 -0.00410000044 -1.4997597826618576e-32 -6.12323399
57367659e-17 -1.0 2.4492935982947066e-16 1.0 -6.1232339957367659e-17 81 1 390 26
2 5 388 0 0 395 381 391 83 3 391 0.7921568751335144 0.8196078538894654 0.9333333
373069764 15 392 263 0 344 388 0 14 393 264 395 1.0e-08 414 388 397 11 394 -0 0
 414 388 9 50 394 265 0 393 415 389 0 +0.00229 -0.001875 -0.00410000044 1.0 -1.9
796528358062778e-15 1.0622117761303835e-31 1.9796528358062778e-15 1.0 -6.1232339
957367659e-17 81 1 395 266 5 393 0 0 416 390 396 83 3 396 0.7921568751335144 0.8
196078538894654 0.9333333373069764 15 397 267 0 95 393 0 17 398 0 397 404 95 399
 403 401 0 409 -18 399 268 0 398 370 405 400 ?1 29 400 269 0 399 406 371 0.00229
 -0.001625 -0.00410000044 16 401 270 0 ?403 385 407 402 0 0 1 30 402 271 0 401 4
08 386 0 +0.00229 -0.001625 -0.00410000044 1.4997597826618576e-32 6.123233995736
7659e-17 1.0 17 403 0 418 113 425 96 398 401 0 0 +17 404 0 397 410 398 405 409 4
07 0 413 -18 405 272 0 404 399 420 406 ?1 29 406 273 0 405 421 400 0.00229 -0.00
1875 -0.00410000044 16 407 274 0 ?409 401 411 408 0 0 1 30 408 275 0 407 412 402
 0 +0.00229 -0.001875 -0.00410000044 1.9796528358062778e-15 1.0 -6.1232339957367
659e-17 17 409 0 457 428 452 399 404 407 0 425 +17 410 0 397 95 404 91 413 411 0
 0 +16 411 276 0 ?410 407 422 412 0 0 1 30 412 277 0 411 423 408 0 +0.00229 -0.0
01875 -0.00410000044 1.4997597826618576e-32 6.1232339957367659e-17 1.0 17 413 0
 448 449 103 405 410 411 0 452 -14 414 278 416 1.0e-08 429 393 418 11 415 -0 0 4
29 393 9 50 415 279 0 414 430 394 0 +0.00229 -0.001625 -0.00410000044 -2.4492935
982947066e-16 -1.0 6.1232339957367659e-17 1.0 -2.4492935982947066e-16 0.0 81 1 4
16 280 5 414 0 0 431 395 417 83 3 417 0.7921568751335144 0.8196078538894654 0.93
33333373069764 15 418 281 0 113 414 0 17 419 0 418 425 113 420 424 422 0 428 -18
 420 282 0 419 405 435 421 ?1 29 421 283 0 420 436 406 0.00279 -0.001625 -0.0041
0000044 16 422 284 0 ?424 411 426 423 0 0 1 30 423 285 0 422 427 412 0 +0.00279
 -0.001625 -0.00410000044 1.4997597826618576e-32 6.1232339957367659e-17 1.0 17 4
24 0 433 109 440 105 419 422 0 0 +17 425 0 418 403 419 399 428 426 0 0 -16 426 2
86 0 ?428 422 437 427 0 0 1 30 427 287 0 426 438 423 0 +0.00229 -0.001625 -0.004
10000044 1.0 -2.4492935982947066e-16 0.0 17 428 0 457 443 409 420 425 426 0 440
 +14 429 288 431 1.0e-08 444 414 433 11 430 -0 0 444 414 9 50 430 289 0 429 445
 415 0 +0.00279 -0.001875 -0.00410000044 -1.0 2.4492935982947066e-16 0.0 -2.4492
935982947066e-16 -1.0 6.1232339957367659e-17 81 1 431 290 5 429 0 0 446 416 432
 83 3 432 0.7921568751335144 0.8196078538894654 0.9333333373069764 15 433 291 0
 109 429 0 17 434 0 433 440 109 435 439 437 0 443 -18 435 292 0 434 420 0 436 ?1
 29 436 293 0 435 0 421 0.00279 -0.001875 -0.00410000044 16 437 294 0 ?439 426 4
41 438 0 0 1 30 438 295 0 437 442 427 0 +0.00279 -0.001875 -0.00410000044 1.4997
597826618576e-32 6.1232339957367659e-17 1.0 17 439 0 448 103 449 99 434 437 0 0
 +17 440 0 433 424 434 420 443 441 0 0 -16 441 296 0 ?443 437 450 442 0 0 1 30 4
42 297 0 441 451 438 0 +0.00279 -0.001875 -0.00410000044 -2.4492935982947066e-16
 -1.0 6.1232339957367659e-17 17 443 0 457 452 428 435 440 441 0 449 +14 444 298
 446 1.0e-08 453 429 448 11 445 -0 0 453 429 9 50 445 299 0 444 454 430 0 +0.002
29 -0.001875 -0.00410000044 2.4492935982947066e-16 1.0 -6.1232339957367659e-17 -
1.0 2.4492935982947066e-16 0.0 81 1 446 300 5 444 0 0 455 431 447 83 3 447 0.792
1568751335144 0.8196078538894654 0.9333333373069764 15 448 301 0 103 444 0 17 44
9 0 448 439 413 435 452 450 0 0 -16 450 302 0 ?452 441 0 451 0 0 1 30 451 303 0
 450 0 442 0 +0.00229 -0.001875 -0.00410000044 -1.0 2.4492935982947066e-16 0.0 1
7 452 0 457 409 443 405 449 450 0 0 +14 453 304 455 1.0e-08 0 444 457 11 454 +0
 0 0 444 9 50 454 305 0 453 0 445 0 +0.00229 -0.001625 -0.00410000044 -1.4997597
826618576e-32 -6.1232339957367659e-17 -1.0 2.4492935982947066e-16 1.0 -6.1232339
957367659e-17 81 1 455 306 5 453 0 0 0 446 456 83 3 456 0.7921568751335144 0.819
6078538894654 0.9333333373069764 15 457 307 0 409 453 0 1 0 
