<svg width="38.00040406mm" height="29.99999588mm" viewBox="0 0 14960789 11811022"  version="1.1" xmlns="http://www.w3.org/2000/svg" xmlns:xlink="http://www.w3.org/1999/xlink">
<desc>
Origin 13976378 9631890 Bound 6496064 9631889 14960789 11811022
</desc>
<g fill-rule="evenodd" fill="rgb(255, 0, 0)" stroke="black" stroke-width="1" transform="translate(0, 11811022) scale(1, -1) translate(-6496064, -9631889)">
<path id="N" d="M 17716535.00 21362629.36 L 17716535.00 9712167.91 L 10236221.00 9712167.23 L 10236221.00 21362632.07 L 17716535.00 21362629.36  zM 12622048.00 11954135.00 L 12542048.00 11954135.00 L 12542048.00 11559765.00 L 12936418.00 11559765.00 L 12936418.00 11639765.00 L 12622048.00 11639765.00 L 12622048.00 11954135.00  zM 12936418.00 12428425.19 L 12542048.00 12428425.00 L 12542048.00 12034055.00 L 12622048.00 12034055.00 L 12622048.00 12348425.00 L 12936418.00 12348425.00 L 12936418.00 12428425.19  zM 11126805.00 14011032.00 L 11046884.00 14011031.99 L 11046884.00 13704293.00 L 11180512.02 13704293.00 L 11180512.01 13784214.00 L 11126805.00 13784214.00 L 11126805.00 14011032.00  zM 11394060.00 14011032.01 L 11314139.00 14011032.00 L 11314139.00 13784214.00 L 11260432.01 13784214.00 L 11260432.02 13704293.00 L 11394060.00 13704293.00 L 11394060.00 14011032.01  zM 11180511.98 14397691.00 L 11046884.00 14397691.00 L 11046884.00 14090951.99 L 11126805.00 14090952.00 L 11126805.00 14317770.00 L 11180511.99 14317770.00 L 11180511.98 14397691.00  zM 11394060.00 14397691.00 L 11260431.98 14397691.00 L 11260431.99 14317770.00 L 11314139.00 14317770.00 L 11314139.00 14090952.00 L 11394060.00 14090952.01 L 11394060.00 14397691.00  zM 11692519.00 17538573.00 L 11496457.00 17538573.00 L 11457439.00 17530812.00 L 11442593.82 17520892.78 A 79048.19 79048.19 0 0 0 11357521.00 17530812.00 L 11318503.00 17538573.00 L 11305190.97 17538573.00 L 11266556.00 17512759.00 L 11260432.00 17511540.82 L 11260432.00 17458347.00 L 11318503.00 17458347.00 L 11333871.00 17451982.00 L 11340236.00 17436614.00 L 11340236.00 17083072.00 L 11333871.00 17067704.00 L 11318503.00 17061339.00 L 11260432.00 17061339.00 L 11260432.00 16981113.00 L 11318503.00 16981113.00 L 11357521.00 16988874.00 L 11372366.18 16998793.22 L 11386004.54 16988835.77 L 11389148.65 16921611.65 L 11328703.00 16861166.00 L 11023622.00 16861166.00 L 10969028.00 16850307.00 L 10922745.00 16819381.00 L 10745580.00 16642216.00 L 10714654.00 16595934.00 L 10703795.00 16541339.00 L 10703795.00 16444384.52 L 10676330.00 16426033.00 L 10654228.00 16392955.00 L 10646467.00 16353937.00 L 10646467.00 16000395.00 L 10654228.00 15961377.00 L 10676330.00 15928299.00 L 10703795.00 15909947.48 L 10703795.00 15812992.00 L 10714654.00 15758397.00 L 10745580.00 15712115.00 L 11077810.00 15379885.00 L 11077810.00 15130511.02 L 11056955.00 15099300.00 L 11043483.00 15031569.00 L 11043483.00 14685347.00 A 176981.30 176981.30 0 1 1 11397461.00 14685347.00 L 11397461.00 14715796.00 L 11708920.91 14715796.00 L 11748399.98 14676316.89 L 11748400.00 13811392.00 L 12074650.98 13811392.00 L 13407616.83 12478425.43 L 13386904.84 12428426.97 L 13016338.00 12428425.22 L 13016338.00 12348425.00 L 13330708.00 12348425.00 L 13330708.00 12034055.00 L 13410708.15 12034055.00 L 13410709.97 12404621.83 L 13460708.43 12425333.80 L 13542933.12 12343109.06 L 13553543.05 12327149.81 L 13560877.38 12310882.66 L 13566709.81 12291540.71 L 13570752.85 12268730.00 L 13572665.67 12242227.53 L 13572128.29 12212053.90 L 13568895.25 12178276.38 L 13562781.84 12140969.06 L 13553226.00 12098306.00 L 13553077.83 12092133.57 L 13542127.00 12051265.00 A 437993.68 437993.68 0 1 1 14143993.00 12398752.00 L 14082000.31 12415363.09 L 14074890.00 12418630.00 L 14020488.78 12431674.72 L 13925924.49 12457535.12 L 13850009.89 12483011.16 L 13795894.23 12506399.48 L 13764147.28 12525404.55 L 12267348.00 14022203.02 L 12267348.00 14901206.00 L 11941097.00 14901206.00 L 11882968.00 14959335.00 L 11836686.00 14990261.00 L 11782091.00 15001120.00 L 11397461.00 15001120.00 L 11397461.00 15031569.00 L 11383989.00 15099300.00 L 11363134.00 15130511.02 L 11363134.00 15438977.00 L 11352275.00 15493572.00 L 11321349.00 15539854.00 L 10996822.61 15864380.39 L 11000332.15 15917439.86 L 11016584.00 15928299.00 L 11038686.00 15961377.00 L 11046447.00 16000395.00 L 11046447.00 16353937.00 L 11038686.00 16392955.00 L 11016584.00 16426033.00 L 11000333.07 16436891.52 L 10996823.44 16489951.44 L 11082714.00 16575842.00 L 11387795.00 16575842.00 L 11442390.00 16586701.00 L 11488672.00 16617627.00 L 11695365.00 16824320.00 L 11726291.00 16870602.00 L 11737150.00 16925197.00 L 11737150.00 16992624.48 L 11764615.00 17010976.00 L 11786717.00 17044054.00 L 11794478.00 17083072.00 L 11794478.00 17436614.00 A 101958.15 101958.15 0 0 1 11692519.00 17538573.00  zM 12562624.00 16669374.00 L 12482703.00 16669374.00 L 12482703.00 16520611.00 L 12123597.00 16520611.00 L 12123597.00 16669374.00 L 12043675.82 16669374.00 L 12043676.00 16329864.00 L 11794478.00 16329864.00 L 11794478.00 16353937.00 A 101958.15 101958.15 0 0 1 11692519.00 16455896.00 L 11496457.00 16455896.00 A 101958.15 101958.15 0 0 1 11394498.00 16353937.00 L 11394498.00 16000395.00 A 101958.15 101958.15 0 0 1 11496457.00 15898436.00 L 11692519.00 15898436.00 L 11731537.00 15906197.00 L 11761237.16 15926042.00 L 12043676.00 15926042.00 L 12043676.00 15868480.00 L 12370039.96 15868480.00 L 13301995.00 14936524.00 L 13348277.00 14905599.00 L 13402872.00 14894740.00 L 13596457.00 14894740.00 L 13596457.00 14657481.00 L 14356299.00 14657481.00 L 14356299.00 15417323.00 L 13596457.00 15417323.00 L 13596457.00 15180064.00 L 13461964.96 15180064.00 L 12562624.00 16079404.03 L 12562624.00 16669374.00  zM 12263190.00 16977978.00 L 12043676.00 16977978.00 L 12043675.87 16749294.00 L 12123597.00 16749294.00 L 12123597.00 16898057.00 L 12263190.00 16898057.00 L 12263190.00 16977978.00  zM 12562624.00 16977978.00 L 12343110.00 16977978.00 L 12343110.00 16898057.00 L 12482703.00 16898057.00 L 12482703.00 16749294.00 L 12562624.00 16749294.00 L 12562624.00 16977978.00  zM 12976378.92 11994092.47 m -208737.53 0 a 208737.53 208737.53 0 1 1 417475.06 0a 208737.53 208737.53 0 1 1 -417475.06 0M 13410708.12 11954135.00 L 13330708.00 11954135.00 L 13330708.00 11639765.00 L 13016338.00 11639765.00 L 13016338.00 11559765.00 L 13410708.00 11559765.00 L 13410708.12 11954135.00  zM 13936418.00 18247663.00 L 13716904.00 18247663.00 L 13716903.84 18019092.00 L 13796825.00 18019092.00 L 13796825.00 18167742.00 L 13936418.00 18167742.00 L 13936418.00 18247663.00  zM 12578739.00 18160379.00 L 11038404.00 18160379.00 L 10983809.00 18149520.00 L 10937527.00 18118594.00 L 10745580.00 17926647.00 L 10714654.00 17880365.00 L 10703795.00 17825770.00 L 10703795.00 17527061.52 L 10676330.00 17508710.00 L 10654228.00 17475632.00 L 10646467.00 17436614.00 L 10646467.00 17083072.00 A 101958.15 101958.15 0 0 1 10748426.00 16981113.00 L 10944488.00 16981113.00 L 10983506.00 16988874.00 L 11016583.29 17010975.53 L 11050345.71 17010975.53 L 11083423.00 16988874.00 L 11122441.00 16981113.00 L 11180512.00 16981113.00 L 11180512.00 17061339.00 L 11122441.00 17061339.00 L 11107073.00 17067704.00 L 11100708.00 17083072.00 L 11100708.00 17436614.00 L 11107073.00 17451982.00 L 11122441.00 17458347.00 L 11180512.00 17458347.00 L 11180512.00 17511540.82 L 11174388.00 17512759.00 L 11135753.03 17538573.00 L 11122441.00 17538573.00 L 11083423.00 17530812.00 L 11050345.71 17508710.47 L 11031518.28 17508710.47 L 10989119.00 17547334.93 L 10989119.00 17766678.00 L 11097496.00 17875055.00 L 12519647.00 17875055.00 L 13069199.00 17325503.00 L 13115481.00 17294577.00 L 13170076.00 17283718.00 L 13716904.00 17283718.00 L 13716904.00 17157849.00 L 13833716.00 17157849.00 L 13833716.00 16497878.95 L 13826217.74 16468566.91 L 13808214.86 16430781.08 L 13778789.22 16387209.39 L 13734764.59 16335789.54 L 13708198.00 16308700.00 L 13704058.10 16302371.10 L 13672366.00 16270679.00 A 383195.74 383195.74 0 1 1 14280390.00 16270679.00 L 14249305.43 16301763.57 L 14245747.00 16307462.00 L 14193761.61 16362755.20 L 14174584.17 16386354.53 L 14144545.21 16430773.26 L 14126538.26 16468566.91 L 14119040.00 16497878.95 L 14119040.00 17157849.00 L 14235852.00 17157849.00 L 14235852.00 17283718.00 L 14823583.76 17283718.00 L 14918779.00 17188522.22 L 14918779.00 16718229.00 L 15868621.00 16718229.00 L 15868621.00 16910488.00 L 16563209.00 16910488.00 L 16617804.00 16921347.00 L 16664086.00 16952273.00 L 16734381.00 17022568.00 L 16740005.18 17030985.00 L 17443425.00 17030985.00 L 17443425.00 17980827.00 L 16493583.00 17980827.00 L 16493583.00 17195812.00 L 15868621.00 17195812.00 L 15868621.00 17388071.00 L 15122739.79 17388071.00 L 14983553.00 17527257.00 L 14937271.00 17558183.00 L 14882676.00 17569042.00 L 14271208.02 17569042.00 L 14235852.28 17604398.02 L 14235852.00 17939172.00 L 14155931.00 17939172.00 L 14155931.00 17790522.00 L 13796825.00 17790522.00 L 13796825.00 17939172.00 L 13716903.78 17939172.00 L 13716904.00 17569042.00 L 13229168.00 17569042.00 L 12679616.00 18118594.00 L 12633334.00 18149520.00 L 12578739.00 18160379.00  zM 14235852.00 18247663.00 L 14016338.00 18247663.00 L 14016338.00 18167742.00 L 14155931.00 18167742.00 L 14155931.00 18019092.00 L 14235852.00 18019092.00 L 14235852.00 18247663.00  zM 14976378.00 11994099.46 m -437993.68 0 a 437993.68 437993.68 0 1 1 875987.36 0a 437993.68 437993.68 0 1 1 -875987.36 0M 14998700.00 17918702.00 L 14918779.00 17918702.00 L 14918779.00 17623741.00 L 15353740.00 17623741.00 L 15353740.00 17703662.00 L 14998700.00 17703662.00 L 14998700.00 17918702.00  zM 15868621.00 17918702.00 L 15788700.00 17918702.00 L 15788700.00 17703662.00 L 15433660.00 17703662.00 L 15433660.00 17623741.00 L 15868621.00 17623741.00 L 15868621.00 17918702.00  zM 15353740.00 18293583.00 L 14918779.00 18293583.00 L 14918779.00 17998622.00 L 14998700.00 17998622.00 L 14998700.00 18213662.00 L 15353740.00 18213662.00 L 15353740.00 18293583.00  zM 15868621.00 18293583.00 L 15433660.00 18293583.00 L 15433660.00 18213662.00 L 15788700.00 18213662.00 L 15788700.00 17998622.00 L 15868621.00 17998622.00 L 15868621.00 18293583.00  z"/>
<path id="N" d="M 20275757.18 20261825.72 m -1105749.33 0 a 1105749.33 1105749.33 0 1 1 2211498.67 0a 1105749.33 1105749.33 0 1 1 -2211498.67 0M 20275749.40 20261804.06 m -593408.94 0 a 593408.94 593408.94 0 1 1 1186817.89 0a 593408.94 593408.94 0 1 1 -1186817.89 0"/>
<path id="N" d="M 20275593.18 10813017.72 m -1105749.33 0 a 1105749.33 1105749.33 0 1 1 2211498.67 0a 1105749.33 1105749.33 0 1 1 -2211498.67 0M 20275585.40 10812996.06 m -593408.94 0 a 593408.94 593408.94 0 1 1 1186817.89 0a 593408.94 593408.94 0 1 1 -1186817.89 0"/>
<path id="N" d="M 7677174.18 10813012.72 m -1105749.33 0 a 1105749.33 1105749.33 0 1 1 2211498.67 0a 1105749.33 1105749.33 0 1 1 -2211498.67 0M 7677166.40 10812991.06 m -593408.94 0 a 593408.94 593408.94 0 1 1 1186817.89 0a 593408.94 593408.94 0 1 1 -1186817.89 0"/>
<path id="N" d="M 7677340.18 20261830.72 m -1105749.33 0 a 1105749.33 1105749.33 0 1 1 2211498.67 0a 1105749.33 1105749.33 0 1 1 -2211498.67 0M 7677332.40 20261809.06 m -593408.94 0 a 593408.94 593408.94 0 1 1 1186817.89 0a 593408.94 593408.94 0 1 1 -1186817.89 0"/>
<path id="N" d="M 12624661.00 18063639.00 L 13196976.00 17491324.00 L 13796825.00 17491324.00 L 13796825.00 17614990.00 L 14155931.00 17614990.00 L 14155931.00 17491324.00 L 14882676.00 17491324.00 L 14928598.00 17472302.00 L 15092750.93 17308150.00 L 15788700.00 17308150.00 L 15788700.00 17118094.00 L 16536309.00 17118094.00 L 16568560.00 17150345.00 L 16568560.00 17170906.00 L 16573504.00 17182841.57 L 16573504.00 17900906.00 L 17363504.00 17900906.00 L 17363504.00 17110906.00 L 16693254.04 17110906.00 L 16679426.00 17077523.00 L 16609131.00 17007228.00 L 16563209.00 16988206.00 L 15788700.00 16988206.00 L 15788700.00 16798150.00 L 14998700.00 16798150.00 L 14998700.00 17218511.08 L 14855775.89 17361436.00 L 14155931.00 17361436.00 L 14155931.00 17237770.00 L 14041322.00 17237770.00 L 14041322.00 16470429.69 L 14049878.00 16440648.00 L 14060378.00 16415709.00 L 14073878.00 16390084.00 L 14090378.00 16363770.00 L 14132378.00 16309082.00 L 14177061.13 16261554.87 L 14190341.00 16251365.00 A 302603.18 302603.18 0 1 0 13762415.00 16251365.00 L 13777316.41 16262799.11 L 13794878.00 16280707.00 L 13842878.00 16336770.00 L 13862378.00 16363770.00 L 13878878.00 16390084.00 L 13892378.00 16415709.00 L 13902878.00 16440648.00 L 13911434.00 16470429.69 L 13911434.00 17237770.00 L 13796825.00 17237770.00 L 13796825.00 17361436.00 L 13170076.00 17361436.00 L 13124154.00 17380458.00 L 12551839.00 17952773.00 L 11065304.00 17952773.00 L 10911401.00 17798870.00 L 10911401.00 17458347.00 L 10944488.00 17458347.00 L 10959856.00 17451982.00 L 10966221.00 17436614.00 L 10966221.00 17083072.00 L 10959856.00 17067704.00 L 10944488.00 17061339.00 L 10748426.00 17061339.00 L 10733058.00 17067704.00 L 10726693.00 17083072.00 L 10726693.00 17436614.00 L 10733058.00 17451982.00 L 10748426.00 17458347.00 L 10781513.00 17458347.00 L 10781513.00 17825770.00 L 10800535.00 17871692.00 L 10992482.00 18063639.00 L 11038404.00 18082661.00 L 12578739.00 18082661.00 L 12624661.00 18063639.00  zM 13976376.90 16037403.70 m -203916.30 0 a 203916.30 203916.30 0 1 1 407832.60 0a 203916.30 203916.30 0 1 1 -407832.60 0"/>
<path id="N" d="M 12187427.00 13992214.00 L 13728378.71 12451263.13 L 13758991.00 12433696.00 L 13821773.00 12406534.00 L 13902192.00 12379546.00 L 14040861.58 12342992.38 L 14068877.00 12339304.00 A 357387.03 357387.03 0 1 0 13631169.00 12086594.00 L 13637570.29 12102047.96 L 13649750.00 12167783.00 L 13653546.00 12207442.00 L 13654205.00 12244445.00 L 13651726.00 12278792.00 L 13646109.00 12310483.00 L 13637354.00 12339517.00 L 13625461.00 12365895.00 L 13617511.97 12378440.20 L 12104639.99 13891313.00 L 11828321.00 13891313.00 L 11828321.00 14268533.00 L 12187427.00 14268533.00 L 12187427.00 13992214.00  zM 13976378.92 11994092.47 m -208737.53 0 a 208737.53 208737.53 0 1 1 417475.06 0a 208737.53 208737.53 0 1 1 -417475.06 0"/>
<path id="N" d="M 11707887.00 16369305.00 L 11714252.00 16353937.00 L 11714252.00 16248377.00 L 12123597.00 16248377.00 L 12123597.00 16325847.00 L 12482703.00 16325847.00 L 12482703.00 16049415.01 L 13429772.98 15102346.00 L 13676378.00 15102346.00 L 13676378.00 15337402.00 L 14276378.00 15337402.00 L 14276378.00 14737402.00 L 13676378.00 14737402.00 L 13676378.00 14972458.00 L 13402872.00 14972458.00 L 13356950.00 14991479.00 L 12400028.99 15948401.00 L 12123597.00 15948401.00 L 12123597.00 16007529.00 L 11714252.00 16007529.00 L 11714252.00 16000395.00 L 11707887.00 15985027.00 L 11692519.00 15978662.00 L 11496457.00 15978662.00 L 11481089.00 15985027.00 L 11474724.00 16000395.00 L 11474724.00 16353937.00 L 11481089.00 16369305.00 L 11496457.00 16375670.00 L 11692519.00 16375670.00 L 11707887.00 16369305.00  zM 13976376.90 15037403.70 m -203916.30 0 a 203916.30 203916.30 0 1 1 407832.60 0a 203916.30 203916.30 0 1 1 -407832.60 0"/>
<path id="N" d="M 14976378.91 11994094.51 m -357387.03 0 a 357387.03 357387.03 0 1 1 714774.05 0a 357387.03 357387.03 0 1 1 -714774.05 0M 14976378.92 11994092.47 m -208737.53 0 a 208737.53 208737.53 0 1 1 417475.06 0a 208737.53 208737.53 0 1 1 -417475.06 0"/>
<path id="N" d="M 11707887.00 17451982.00 L 11714252.00 17436614.00 L 11714252.00 17083072.00 L 11707887.00 17067704.00 L 11692519.00 17061339.00 L 11659432.00 17061339.00 L 11659432.00 16925197.00 L 11640410.00 16879275.00 L 11433717.00 16672582.00 L 11387795.00 16653560.00 L 11050522.00 16653560.00 L 10911401.00 16514439.00 L 10911401.00 16375670.00 L 10944488.00 16375670.00 L 10959856.00 16369305.00 L 10966221.00 16353937.00 L 10966221.00 16000395.00 L 10959856.00 15985027.00 L 10944488.00 15978662.00 L 10911401.00 15978662.00 L 10911401.00 15839892.00 L 11266394.00 15484899.00 L 11285416.00 15438977.00 L 11285416.00 15100826.90 L 11288002.00 15099099.00 L 11308704.00 15068116.00 L 11315974.00 15031569.00 L 11315974.00 14923402.00 L 11782091.00 14923402.00 L 11828013.00 14904380.00 L 11911108.00 14821285.00 L 12187427.00 14821285.00 L 12187427.00 14444065.00 L 11828321.00 14444065.00 L 11828321.00 14720384.00 L 11755191.00 14793514.00 L 11315974.00 14793514.00 L 11315974.00 14685347.00 A 95504.96 95504.96 0 1 0 11124970.00 14685347.00 L 11124970.00 15031569.00 L 11132240.00 15068116.00 L 11152942.00 15099099.00 L 11155528.00 15100826.90 L 11155528.00 15412077.00 L 10800535.00 15767070.00 L 10781513.00 15812992.00 L 10781513.00 15978662.00 L 10748426.00 15978662.00 L 10733058.00 15985027.00 L 10726693.00 16000395.00 L 10726693.00 16353937.00 L 10733058.00 16369305.00 L 10748426.00 16375670.00 L 10781513.00 16375670.00 L 10781513.00 16541339.00 L 10800535.00 16587261.00 L 10977700.00 16764426.00 L 11023622.00 16783448.00 L 11360895.00 16783448.00 L 11529544.00 16952097.00 L 11529544.00 17061339.00 L 11496457.00 17061339.00 L 11481089.00 17067704.00 L 11474724.00 17083072.00 L 11474724.00 17436614.00 L 11481089.00 17451982.00 L 11496457.00 17458347.00 L 11692519.00 17458347.00 L 11707887.00 17451982.00  z"/>
</g>
</svg>
