<svg width="38.00040406mm" height="29.99999588mm" viewBox="0 0 14960789 11811022"  version="1.1" xmlns="http://www.w3.org/2000/svg" xmlns:xlink="http://www.w3.org/1999/xlink">
<desc>
Origin 13976378 9631890 Bound 6496064 9631889 14960789 11811022
</desc>
<g fill-rule="evenodd" fill="rgb(0, 0, 255)" stroke="black" stroke-width="1" transform="translate(0, 11811022) scale(1, -1) translate(-6496064, -9631889)">
<path id="N" d="M 20275757.18 20261825.72 m -1105749.33 0 a 1105749.33 1105749.33 0 1 1 2211498.67 0a 1105749.33 1105749.33 0 1 1 -2211498.67 0M 20275749.40 20261804.06 m -593408.94 0 a 593408.94 593408.94 0 1 1 1186817.89 0a 593408.94 593408.94 0 1 1 -1186817.89 0"/>
<path id="N" d="M 7677340.18 20261830.72 m -1105749.33 0 a 1105749.33 1105749.33 0 1 1 2211498.67 0a 1105749.33 1105749.33 0 1 1 -2211498.67 0M 7677332.40 20261809.06 m -593408.94 0 a 593408.94 593408.94 0 1 1 1186817.89 0a 593408.94 593408.94 0 1 1 -1186817.89 0"/>
<path id="N" d="M 20275593.18 10813017.72 m -1105749.33 0 a 1105749.33 1105749.33 0 1 1 2211498.67 0a 1105749.33 1105749.33 0 1 1 -2211498.67 0M 20275585.40 10812996.06 m -593408.94 0 a 593408.94 593408.94 0 1 1 1186817.89 0a 593408.94 593408.94 0 1 1 -1186817.89 0"/>
<path id="N" d="M 7677174.18 10813012.72 m -1105749.33 0 a 1105749.33 1105749.33 0 1 1 2211498.67 0a 1105749.33 1105749.33 0 1 1 -2211498.67 0M 7677166.40 10812991.06 m -593408.94 0 a 593408.94 593408.94 0 1 1 1186817.89 0a 593408.94 593408.94 0 1 1 -1186817.89 0"/>
<path id="N" d="M 13976370.67 16037389.81 m -302603.18 0 a 302603.18 302603.18 0 1 1 605206.36 0a 302603.18 302603.18 0 1 1 -605206.36 0M 13976376.90 16037403.70 m -203916.30 0 a 203916.30 203916.30 0 1 1 407832.60 0a 203916.30 203916.30 0 1 1 -407832.60 0"/>
<path id="N" d="M 13976378.91 11994094.51 m -357387.03 0 a 357387.03 357387.03 0 1 1 714774.05 0a 357387.03 357387.03 0 1 1 -714774.05 0M 13976378.92 11994092.47 m -208737.53 0 a 208737.53 208737.53 0 1 1 417475.06 0a 208737.53 208737.53 0 1 1 -417475.06 0"/>
<path id="N" d="M 14976378.91 11994094.51 m -357387.03 0 a 357387.03 357387.03 0 1 1 714774.05 0a 357387.03 357387.03 0 1 1 -714774.05 0M 14976378.92 11994092.47 m -208737.53 0 a 208737.53 208737.53 0 1 1 417475.06 0a 208737.53 208737.53 0 1 1 -417475.06 0"/>
<path id="N" d="M 14276378.00 14737402.00 L 13676378.00 14737402.00 L 13676378.00 15337402.00 L 14276378.00 15337402.00 L 14276378.00 14737402.00  zM 13976376.90 15037403.70 m -203916.30 0 a 203916.30 203916.30 0 1 1 407832.60 0a 203916.30 203916.30 0 1 1 -407832.60 0"/>
<path id="N" d="M 11909457.16 16127961.16 m -120412.98 0 a 120412.98 120412.98 0 1 1 240825.96 0a 120412.98 120412.98 0 1 1 -240825.96 0"/>
<path id="N" d="M 17716536.00 21362629.36 L 17716536.00 9712167.91 L 10236222.00 9712167.23 L 10236222.00 21362632.07 L 17716536.00 21362629.36  zM 12622048.00 11954135.00 L 12542048.00 11954135.00 L 12542048.00 11559765.00 L 12936418.00 11559765.00 L 12936418.00 11639765.00 L 12622048.00 11639765.00 L 12622048.00 11954135.00  zM 12976378.92 11994092.47 m -208737.53 0 a 208737.53 208737.53 0 1 1 417475.06 0a 208737.53 208737.53 0 1 1 -417475.06 0M 13410708.00 11954135.00 L 13330708.00 11954135.00 L 13330708.00 11639765.00 L 13016338.00 11639765.00 L 13016338.00 11559765.00 L 13410708.00 11559765.00 L 13410708.00 11954135.00  zM 13976378.00 11994099.46 m -437993.68 0 a 437993.68 437993.68 0 1 1 875987.36 0a 437993.68 437993.68 0 1 1 -875987.36 0M 14976378.00 11994099.46 m -437993.68 0 a 437993.68 437993.68 0 1 1 875987.36 0a 437993.68 437993.68 0 1 1 -875987.36 0M 12936418.00 12428425.00 L 12542048.00 12428425.00 L 12542048.00 12034055.00 L 12622048.00 12034055.00 L 12622048.00 12348425.00 L 12936418.00 12348425.00 L 12936418.00 12428425.00  zM 13410708.00 12428425.00 L 13016338.00 12428425.00 L 13016338.00 12348425.00 L 13330708.00 12348425.00 L 13330708.00 12034055.00 L 13410708.00 12034055.00 L 13410708.00 12428425.00  zM 14356299.00 15417323.00 L 13596457.00 15417323.00 L 13596457.00 14657481.00 L 14356299.00 14657481.00 L 14356299.00 15417323.00  zM 11909449.00 16127949.21 m -201914.41 0 a 201914.41 201914.41 0 1 1 403828.83 0a 201914.41 201914.41 0 1 1 -403828.83 0M 13976378.00 16037403.22 m -383198.18 0 a 383198.18 383198.18 0 1 1 766396.35 0a 383198.18 383198.18 0 1 1 -766396.35 0"/>
</g>
</svg>
