<svg width="38.00040406mm" height="29.99999588mm" viewBox="0 0 14960789 11811022"  version="1.1" xmlns="http://www.w3.org/2000/svg" xmlns:xlink="http://www.w3.org/1999/xlink">
<desc>
Origin 13976378 9631890 Bound 6496064 9631889 14960789 11811022
</desc>
<g fill-rule="evenodd" fill="rgb(255, 255, 0)" stroke="black" stroke-width="1" transform="translate(0, 11811022) scale(1, -1) translate(-6496064, -9631889)">
<path id="N" d="M 14707485.00 14531119.00 L 14688942.00 14519755.00 L 14688030.00 14521057.00 L 14670405.00 14513756.00 L 14667949.81 14514773.00 L 13284806.19 14514773.00 L 13282351.00 14513756.00 L 13264726.00 14521057.00 L 13263814.00 14519755.00 L 13245271.00 14531119.00 A 1243882.54 1243882.54 0 1 0 14707485.00 14531119.00  zM 13283595.00 14583868.00 L 13290367.89 14579717.00 L 14662388.11 14579717.00 L 14669161.00 14583868.00 A 1178663.99 1178663.99 0 1 1 13283595.00 14583868.00  z"/>
<path id="N" d="M 14144793.00 19190001.00 L 14216948.00 19117846.00 L 14226933.00 19093740.00 L 14226933.00 18949429.00 L 14216948.00 18925323.00 L 14144793.00 18853168.00 L 14120687.00 18843183.00 L 14096581.00 18853168.00 L 14086596.00 18877274.00 L 14096581.00 18901380.00 L 14158751.00 18963550.00 L 14158751.00 19079619.00 L 14106566.00 19131804.00 L 14062652.86 19131804.00 L 14010467.00 19079618.86 L 14010467.00 19021584.00 L 14000482.00 18997478.00 L 13976376.00 18987493.00 L 13952270.00 18997478.00 L 13942285.00 19021584.00 L 13942285.00 19079619.00 L 13890100.00 19131804.00 L 13846187.00 19131804.00 L 13794002.00 19079619.00 L 13794002.00 18963550.00 L 13856172.00 18901380.00 L 13866157.00 18877274.00 L 13856172.00 18853168.00 L 13832066.00 18843183.00 L 13807960.00 18853168.00 L 13735805.00 18925323.00 L 13725820.00 18949429.00 L 13725820.00 19093740.00 L 13735805.00 19117846.00 L 13807960.00 19190001.00 L 13832066.00 19199986.00 L 13904221.00 19199986.00 L 13928327.00 19190001.00 L 13976376.17 19141951.83 L 14024426.00 19190001.00 L 14048532.00 19199986.00 L 14120687.00 19199986.00 L 14144793.00 19190001.00  z"/>
<path id="N" d="M 13928330.00 14400021.00 L 14000485.00 14327866.00 L 14010470.00 14303760.00 L 14010470.00 14015139.00 L 14000485.00 13991033.00 L 13988513.46 13979061.46 L 14000485.00 13967090.00 L 14010470.00 13942984.00 L 14000485.00 13918878.00 L 13976379.00 13908893.00 L 13952273.00 13918878.00 L 13940301.46 13930849.46 L 13928330.00 13918878.00 L 13904224.00 13908893.00 L 13759913.00 13908893.00 L 13735807.00 13918878.00 L 13663652.00 13991033.00 L 13653667.00 14015139.00 L 13653667.00 14303760.00 L 13663652.00 14327866.00 L 13735807.00 14400021.00 L 13759913.00 14410006.00 L 13904224.00 14410006.00 L 13928330.00 14400021.00  zM 13890103.00 14341824.00 L 13774034.00 14341824.00 L 13721849.00 14289639.00 L 13721849.00 14029260.00 L 13774034.00 13977075.00 L 13890103.00 13977075.00 L 13892089.29 13979061.29 L 13807962.00 14063188.00 L 13797977.00 14087294.00 L 13807962.00 14111400.00 L 13832068.00 14121385.00 L 13856174.00 14111400.00 L 13940301.29 14027273.29 L 13942288.00 14029260.00 L 13942288.00 14289639.00 L 13890103.00 14341824.00  z"/>
<path id="N" d="M 15509717.00 19163801.00 L 15581872.00 19091646.00 L 15591857.00 19067540.00 L 15591857.00 18923230.00 L 15581872.00 18899124.00 L 15509717.00 18826968.00 L 15492786.29 18819955.09 L 15581872.00 18730870.00 L 15591857.00 18706764.00 L 15581872.00 18682658.00 L 15557766.00 18672673.00 L 15533660.00 18682658.00 L 15399334.07 18816983.00 L 15303236.00 18816983.00 L 15303236.00 18706764.00 L 15293251.00 18682658.00 L 15269145.00 18672673.00 L 15245039.00 18682658.00 L 15235054.00 18706764.00 L 15235054.00 19139695.00 L 15245039.00 19163801.00 L 15269145.00 19173786.00 L 15485611.00 19173786.00 L 15509717.00 19163801.00  zM 15471490.00 19105604.00 L 15303236.00 19105604.00 L 15303236.00 18885165.00 L 15471489.86 18885165.00 L 15523675.00 18937350.86 L 15523675.00 19053419.00 L 15471490.00 19105604.00  z"/>
<path id="N" d="M 12248445.00 15404028.00 L 12258430.00 15379922.00 L 12248445.00 15355816.00 L 12114120.00 15221490.07 L 12114120.00 15125392.00 L 12224339.00 15125392.00 L 12248445.00 15115407.00 L 12258430.00 15091301.00 L 12248445.00 15067195.00 L 12224339.00 15057210.00 L 11791408.00 15057210.00 L 11767302.00 15067195.00 L 11757317.00 15091301.00 L 11757317.00 15307767.00 L 11767302.00 15331873.00 L 11839457.00 15404028.00 L 11863563.00 15414013.00 L 12007873.00 15414013.00 L 12031979.00 15404028.00 L 12104135.00 15331873.00 L 12111147.91 15314942.29 L 12200233.00 15404028.00 L 12224339.00 15414013.00 L 12248445.00 15404028.00  zM 11993752.14 15345831.00 L 11877684.00 15345831.00 L 11825499.00 15293646.00 L 11825499.00 15125392.00 L 12045938.00 15125392.00 L 12045938.00 15293645.86 L 11993752.14 15345831.00  z"/>
<path id="N" d="M 14216948.00 18757070.00 L 14226933.00 18732964.00 L 14216948.00 18708858.00 L 14082623.00 18574532.07 L 14082623.00 18478434.00 L 14192842.00 18478434.00 L 14216948.00 18468449.00 L 14226933.00 18444343.00 L 14216948.00 18420237.00 L 14192842.00 18410252.00 L 13759911.00 18410252.00 L 13735805.00 18420237.00 L 13725820.00 18444343.00 L 13725820.00 18660809.00 L 13735805.00 18684915.00 L 13807960.00 18757070.00 L 13832066.00 18767055.00 L 13976376.00 18767055.00 L 14000482.00 18757070.00 L 14072638.00 18684915.00 L 14079650.91 18667984.29 L 14168736.00 18757070.00 L 14192842.00 18767055.00 L 14216948.00 18757070.00  zM 13962255.14 18698873.00 L 13846187.00 18698873.00 L 13794002.00 18646688.00 L 13794002.00 18478434.00 L 14014441.00 18478434.00 L 14014441.00 18646687.86 L 13962255.14 18698873.00  z"/>
<path id="N" d="M 12451881.00 17490643.00 L 12524036.00 17418488.00 L 12534021.00 17394382.00 L 12534021.00 17250071.00 L 12524036.00 17225965.00 L 12451881.00 17153810.00 L 12427775.00 17143825.00 L 12139154.00 17143825.00 L 12115048.00 17153810.00 L 12042893.00 17225965.00 L 12032908.00 17250071.00 L 12032908.00 17394382.00 L 12042893.00 17418488.00 L 12115048.00 17490643.00 L 12139154.00 17500628.00 L 12163260.00 17490643.00 L 12173245.00 17466537.00 L 12163260.00 17442431.00 L 12101090.00 17380261.00 L 12101090.00 17264192.00 L 12153275.00 17212007.00 L 12413654.00 17212007.00 L 12465839.00 17264192.00 L 12465839.00 17380261.00 L 12403669.00 17442431.00 L 12393684.00 17466537.00 L 12403669.00 17490643.00 L 12427775.00 17500628.00 L 12451881.00 17490643.00  z"/>
<path id="N" d="M 15942648.00 19163801.00 L 16014803.00 19091646.00 L 16024788.00 19067540.00 L 16024788.00 18995385.00 L 16014803.00 18971279.00 L 15784379.00 18740855.00 L 15990697.00 18740855.00 L 16014803.00 18730870.00 L 16024788.00 18706764.00 L 16014803.00 18682658.00 L 15990697.00 18672673.00 L 15702076.00 18672673.00 L 15677970.00 18682658.00 L 15667985.00 18706764.00 L 15677970.00 18730870.00 L 15956606.00 19009506.00 L 15956606.00 19053419.00 L 15904421.00 19105604.00 L 15788352.00 19105604.00 L 15726182.00 19043434.00 L 15702076.00 19033449.00 L 15677970.00 19043434.00 L 15667985.00 19067540.00 L 15677970.00 19091646.00 L 15750125.00 19163801.00 L 15774231.00 19173786.00 L 15918542.00 19173786.00 L 15942648.00 19163801.00  z"/>
<path id="N" d="M 12900572.00 13097037.00 L 12972727.00 13024882.00 L 12982712.00 13000776.00 L 12982712.00 12856466.00 L 12972727.00 12832360.00 L 12900572.00 12760204.00 L 12876466.00 12750219.00 L 12694091.00 12750219.00 L 12694091.00 12640000.00 L 12684106.00 12615894.00 L 12660000.00 12605909.00 L 12635894.00 12615894.00 L 12625909.00 12640000.00 L 12625909.00 13072931.00 L 12635894.00 13097037.00 L 12660000.00 13107022.00 L 12876466.00 13107022.00 L 12900572.00 13097037.00  zM 12862345.00 13038840.00 L 12694091.00 13038840.00 L 12694091.00 12818401.00 L 12862344.86 12818401.00 L 12914530.00 12870586.86 L 12914530.00 12986655.00 L 12862345.00 13038840.00  z"/>
<path id="N" d="M 11047729.00 18140179.00 L 11057714.00 18116073.00 L 11057714.00 17755297.00 L 11047729.00 17731191.00 L 10975574.00 17659036.00 L 10951468.00 17649051.00 L 10807157.00 17649051.00 L 10783051.00 17659036.00 L 10710896.00 17731191.00 L 10700911.00 17755297.00 L 10700911.00 18116073.00 L 10710896.00 18140179.00 L 10735002.00 18150164.00 L 10759108.00 18140179.00 L 10769093.00 18116073.00 L 10769093.00 17769418.00 L 10821278.00 17717233.00 L 10937347.00 17717233.00 L 10989532.00 17769418.00 L 10989532.00 18116073.00 L 10999517.00 18140179.00 L 11023623.00 18150164.00 L 11047729.00 18140179.00  z"/>
<path id="N" d="M 12248445.00 15692648.00 L 12258430.00 15668542.00 L 12258430.00 15524232.00 L 12248445.00 15500126.00 L 12224339.00 15490141.00 L 12200233.00 15500126.00 L 12190248.00 15524232.00 L 12190248.00 15562296.00 L 11873711.00 15562296.00 L 11887669.00 15548338.00 L 11897654.00 15524232.00 L 11887669.00 15500126.00 L 11863563.00 15490141.00 L 11839457.00 15500126.00 L 11767302.00 15572281.00 L 11757317.00 15596387.00 L 11767302.00 15620493.00 L 11791408.00 15630478.00 L 12190248.00 15630478.00 L 12190248.00 15668542.00 L 12200233.00 15692648.00 L 12224339.00 15702633.00 L 12248445.00 15692648.00  z"/>
<path id="N" d="M 13189192.00 13097037.00 L 13199177.00 13072931.00 L 13199177.00 12674091.00 L 13237241.00 12674091.00 L 13261347.00 12664106.00 L 13271332.00 12640000.00 L 13261347.00 12615894.00 L 13237241.00 12605909.00 L 13092931.00 12605909.00 L 13068825.00 12615894.00 L 13058840.00 12640000.00 L 13068825.00 12664106.00 L 13092931.00 12674091.00 L 13130995.00 12674091.00 L 13130995.00 12990628.00 L 13117037.00 12976670.00 L 13092931.00 12966685.00 L 13068825.00 12976670.00 L 13058840.00 13000776.00 L 13068825.00 13024882.00 L 13140980.00 13097037.00 L 13165086.00 13107022.00 L 13189192.00 13097037.00  z"/>
<path id="N" d="M 12524036.00 17779263.00 L 12534021.00 17755157.00 L 12534021.00 17610847.00 L 12524036.00 17586741.00 L 12499930.00 17576756.00 L 12475824.00 17586741.00 L 12465839.00 17610847.00 L 12465839.00 17648911.00 L 12149302.00 17648911.00 L 12163260.00 17634953.00 L 12173245.00 17610847.00 L 12163260.00 17586741.00 L 12139154.00 17576756.00 L 12115048.00 17586741.00 L 12042893.00 17658896.00 L 12032908.00 17683002.00 L 12042893.00 17707108.00 L 12066999.00 17717093.00 L 12465839.00 17717093.00 L 12465839.00 17755157.00 L 12475824.00 17779263.00 L 12499930.00 17789248.00 L 12524036.00 17779263.00  z"/>
<path id="N" d="M 11264194.00 18140179.00 L 11274179.00 18116073.00 L 11274179.00 17717233.00 L 11312243.00 17717233.00 L 11336349.00 17707248.00 L 11346334.00 17683142.00 L 11336349.00 17659036.00 L 11312243.00 17649051.00 L 11167933.00 17649051.00 L 11143827.00 17659036.00 L 11133842.00 17683142.00 L 11143827.00 17707248.00 L 11167933.00 17717233.00 L 11205997.00 17717233.00 L 11205997.00 18033770.00 L 11192039.00 18019812.00 L 11167933.00 18009827.00 L 11143827.00 18019812.00 L 11133842.00 18043918.00 L 11143827.00 18068024.00 L 11215982.00 18140179.00 L 11240088.00 18150164.00 L 11264194.00 18140179.00  z"/>
<path id="N" d="M 11461043.00 13527294.00 L 11471028.00 13503188.00 L 11471028.00 13358878.00 L 11461043.00 13334772.00 L 11436937.00 13324787.00 L 11412831.00 13334772.00 L 11402846.00 13358878.00 L 11402846.00 13396942.00 L 11086309.00 13396942.00 L 11100267.00 13382984.00 L 11110252.00 13358878.00 L 11100267.00 13334772.00 L 11076161.00 13324787.00 L 11052055.00 13334772.00 L 10979900.00 13406927.00 L 10969915.00 13431033.00 L 10979900.00 13455139.00 L 11004006.00 13465124.00 L 11402846.00 13465124.00 L 11402846.00 13503188.00 L 11412831.00 13527294.00 L 11436937.00 13537279.00 L 11461043.00 13527294.00  z"/>
<path id="N" d="M 14216950.00 14400021.00 L 14226935.00 14375915.00 L 14226935.00 13977075.00 L 14264999.00 13977075.00 L 14289105.00 13967090.00 L 14299090.00 13942984.00 L 14289105.00 13918878.00 L 14264999.00 13908893.00 L 14120689.00 13908893.00 L 14096583.00 13918878.00 L 14086598.00 13942984.00 L 14096583.00 13967090.00 L 14120689.00 13977075.00 L 14158753.00 13977075.00 L 14158753.00 14293612.00 L 14144795.00 14279654.00 L 14120689.00 14269669.00 L 14096583.00 14279654.00 L 14086598.00 14303760.00 L 14096583.00 14327866.00 L 14168738.00 14400021.00 L 14192844.00 14410006.00 L 14216950.00 14400021.00  z"/>
<path id="N" d="M 11388888.00 13238674.00 L 11461043.00 13166519.00 L 11471028.00 13142413.00 L 11471028.00 12925947.00 L 11461043.00 12901841.00 L 11436937.00 12891856.00 L 11004006.00 12891856.00 L 10979900.00 12901841.00 L 10969915.00 12925947.00 L 10969915.00 13142413.00 L 10979900.00 13166519.00 L 11052055.00 13238674.00 L 11076161.00 13248659.00 L 11364782.00 13248659.00 L 11388888.00 13238674.00  zM 11350661.00 13180477.00 L 11090282.00 13180477.00 L 11038097.00 13128292.00 L 11038097.00 12960038.00 L 11402846.00 12960038.00 L 11402846.00 13128292.00 L 11350661.00 13180477.00  z"/>
<path id="N" d="M 17159063.00 18523867.00 L 17168574.00 18500906.00 L 17168574.00 18031906.00 L 17159063.00 18008945.00 L 17136102.00 17999434.00 L 17113141.00 18008945.00 L 17103630.00 18031906.00 L 17103630.00 18468434.00 L 15258574.00 18468434.00 L 15258574.00 18344662.00 L 15249063.00 18321701.00 L 15226102.00 18312190.00 L 15203141.00 18321701.00 L 15193630.00 18344662.00 L 15193630.00 18500906.00 L 15203141.00 18523867.00 L 15226102.00 18533378.00 L 17136102.00 18533378.00 L 17159063.00 18523867.00  z"/>
<path id="N" d="M 17159063.00 17002867.00 L 17168574.00 16979906.00 L 17168574.00 16510906.00 L 17159063.00 16487945.00 L 17136102.00 16478434.00 L 15226102.00 16478434.00 L 15203141.00 16487945.00 L 15193630.00 16510906.00 L 15193630.00 16667150.00 L 15203141.00 16690111.00 L 15226102.00 16699622.00 L 15249063.00 16690111.00 L 15258574.00 16667150.00 L 15258574.00 16543378.00 L 17103630.00 16543378.00 L 17103630.00 16979906.00 L 17113141.00 17002867.00 L 17136102.00 17012378.00 L 17159063.00 17002867.00  z"/>
<path id="N" d="M 11929132.47 17259841.47 m -100354.75 0 a 100354.75 100354.75 0 1 1 200709.51 0a 100354.75 100354.75 0 1 1 -200709.51 0"/>
<path id="N" d="M 11860841.00 16945488.00 L 11873322.00 16915355.00 L 11873322.00 16521654.00 L 11860841.00 16491521.00 L 11830708.00 16479040.00 L 10610236.00 16479040.00 L 10580103.00 16491521.00 L 10567622.00 16521654.00 L 10567622.00 16915355.00 L 10580103.00 16945488.00 L 10610236.00 16957969.00 L 11830708.00 16957969.00 L 11860841.00 16945488.00  zM 11788094.00 16872741.00 L 10652850.00 16872741.00 L 10652850.00 16564268.00 L 11788094.00 16564268.00 L 11788094.00 16872741.00  z"/>
<path id="N" d="M 11020290.00 14819504.00 L 11032771.00 14789371.00 L 11020290.00 14759238.00 L 11007180.00 14753807.88 L 11007180.00 14155642.12 L 11020290.00 14150212.00 L 11032771.00 14120079.00 L 11020290.00 14089946.00 L 10990157.00 14077465.00 L 10964566.00 14077465.00 L 10934433.00 14089946.00 L 10921952.00 14120079.00 L 10921952.00 14789371.00 L 10934433.00 14819504.00 L 10964566.00 14831985.00 L 10990157.00 14831985.00 L 11020290.00 14819504.00  z"/>
<path id="N" d="M 11506511.00 14819504.00 L 11518992.00 14789371.00 L 11518992.00 14120079.00 L 11506511.00 14089946.00 L 11476378.00 14077465.00 L 11450787.00 14077465.00 L 11420654.00 14089946.00 L 11408173.00 14120079.00 L 11420654.00 14150212.00 L 11433764.00 14155642.12 L 11433764.00 14753807.88 L 11420654.00 14759238.00 L 11408173.00 14789371.00 L 11420654.00 14819504.00 L 11450787.00 14831985.00 L 11476378.00 14831985.00 L 11506511.00 14819504.00  z"/>
<path id="N" d="M 10929952.47 13873138.47 m -100354.75 0 a 100354.75 100354.75 0 1 1 200709.51 0a 100354.75 100354.75 0 1 1 -200709.51 0"/>
</g>
</svg>
