<svg width="38.00040406mm" height="29.99999588mm" viewBox="0 0 14960789 11811022"  version="1.1" xmlns="http://www.w3.org/2000/svg" xmlns:xlink="http://www.w3.org/1999/xlink">
<desc>
Origin 13976378 9631890 Bound 6496064 9631889 14960789 11811022
</desc>
<g fill-rule="evenodd" fill="rgb(112, 219, 250)" stroke="black" stroke-width="1" transform="translate(0, 11811022) scale(1, -1) translate(-6496064, -9631889)">
<path id="N" d="M 17716536.00 21362629.36 L 17716536.00 9712167.91 L 10236222.00 9712167.23 L 10236222.00 21362632.07 L 17716536.00 21362629.36  zM 11220472.00 13568899.86 m -160563.45 0 a 160563.45 160563.45 0 1 1 321126.90 0a 160563.45 160563.45 0 1 1 -321126.90 0M 12976378.00 11994093.79 m -305766.02 0 a 305766.02 305766.02 0 1 1 611532.03 0a 305766.02 305766.02 0 1 1 -611532.03 0M 13676378.00 14997441.99 L 13596378.00 14997441.98 L 13596378.00 14657402.00 L 13936418.02 14657402.00 L 13936418.01 14737402.00 L 13676378.00 14737402.00 L 13676378.00 14997441.99  zM 13976378.00 11994093.79 m -305766.02 0 a 305766.02 305766.02 0 1 1 611532.03 0a 305766.02 305766.02 0 1 1 -611532.03 0M 14936418.00 12428425.00 L 14919197.00 12428425.00 A 438090.14 438090.14 0 0 1 14542048.00 12051276.00 L 14542048.00 12034055.00 L 14624251.95 12034055.00 L 14631169.00 12086594.00 A 357401.20 357401.20 0 0 0 14883879.00 12339304.00 L 14936418.00 12346221.05 L 14936418.00 12428425.00  zM 14624251.95 11954135.00 L 14542048.00 11954135.00 L 14542048.00 11936914.00 A 438090.14 438090.14 0 0 1 14919197.00 11559765.00 L 14936418.00 11559765.00 L 14936418.00 11641968.95 L 14883879.00 11648886.00 A 357387.03 357387.03 0 0 0 14631169.00 11901596.00 L 14624251.95 11954135.00  zM 14976378.92 11994092.47 m -208737.53 0 a 208737.53 208737.53 0 1 1 417475.06 0a 208737.53 208737.53 0 1 1 -417475.06 0M 15410708.00 11954135.00 L 15328504.05 11954135.00 L 15321587.00 11901596.00 A 357401.20 357401.20 0 0 0 15068877.00 11648886.00 L 15016338.00 11641968.95 L 15016338.00 11559765.00 L 15033559.00 11559765.00 A 438090.14 438090.14 0 0 1 15410708.00 11936914.00 L 15410708.00 11954135.00  zM 15033559.00 12428425.00 L 15016338.00 12428425.00 L 15016338.00 12346221.05 L 15068877.00 12339304.00 A 357387.03 357387.03 0 0 0 15321587.00 12086594.00 L 15328504.05 12034055.00 L 15410708.00 12034055.00 L 15410708.00 12051276.00 A 438090.14 438090.14 0 0 1 15033559.00 12428425.00  zM 11929134.00 16718505.86 m -160563.45 0 a 160563.45 160563.45 0 1 1 321126.90 0a 160563.45 160563.45 0 1 1 -321126.90 0M 13936417.98 15417402.00 L 13596378.00 15417402.00 L 13596378.00 15077361.98 L 13676378.00 15077361.99 L 13676378.00 15337402.00 L 13936417.99 15337402.00 L 13936417.98 15417402.00  zM 13976378.00 16037397.49 m -301004.52 0 a 301004.52 301004.52 0 1 1 602009.04 0a 301004.52 301004.52 0 1 1 -602009.04 0M 11220472.00 17624017.86 m -160563.45 0 a 160563.45 160563.45 0 1 1 321126.90 0a 160563.45 160563.45 0 1 1 -321126.90 0M 13976378.00 18391734.86 m -160563.45 0 a 160563.45 160563.45 0 1 1 321126.90 0a 160563.45 160563.45 0 1 1 -321126.90 0M 13976376.90 15037403.70 m -203916.30 0 a 203916.30 203916.30 0 1 1 407832.60 0a 203916.30 203916.30 0 1 1 -407832.60 0M 14356378.00 14997442.02 L 14276378.00 14997442.01 L 14276378.00 14737402.00 L 14016338.01 14737402.00 L 14016338.02 14657402.00 L 14356378.00 14657402.00 L 14356378.00 14997442.02  zM 14356378.00 15417402.00 L 14016337.98 15417402.00 L 14016337.99 15337402.00 L 14276378.00 15337402.00 L 14276378.00 15077362.01 L 14356378.00 15077362.02 L 14356378.00 15417402.00  zM 15393701.00 18450789.86 m -160563.45 0 a 160563.45 160563.45 0 1 1 321126.90 0a 160563.45 160563.45 0 1 1 -321126.90 0"/>
</g>
</svg>
