<svg width="38.00040406mm" height="29.99999588mm" viewBox="0 0 14960789 11811022"  version="1.1" xmlns="http://www.w3.org/2000/svg" xmlns:xlink="http://www.w3.org/1999/xlink">
<desc>
Origin 13976378 9631890 Bound 6496064 9631889 14960789 11811022
</desc>
<g fill-rule="evenodd" fill="rgb(188, 142, 0)" stroke="black" stroke-width="1" transform="translate(0, 11811022) scale(1, -1) translate(-6496064, -9631889)">
<path id="N" d="M 17716453.00 21362629.36 L 17716453.00 9712167.91 L 10236139.00 9712167.23 L 10236139.00 21362632.07 L 17716453.00 21362629.36  zM 12622048.00 11954135.00 L 12542048.00 11954135.00 L 12542048.00 11559765.00 L 12936418.00 11559765.00 L 12936418.00 11639765.00 L 12622048.00 11639765.00 L 12622048.00 11954135.00  zM 12976378.92 11994092.47 m -208737.53 0 a 208737.53 208737.53 0 1 1 417475.06 0a 208737.53 208737.53 0 1 1 -417475.06 0M 13410708.00 11954135.00 L 13330708.00 11954135.00 L 13330708.00 11639765.00 L 13016338.00 11639765.00 L 13016338.00 11559765.00 L 13410708.00 11559765.00 L 13410708.00 11954135.00  zM 13976378.00 11994093.79 m -305766.02 0 a 305766.02 305766.02 0 1 1 611532.03 0a 305766.02 305766.02 0 1 1 -611532.03 0M 14976378.00 11994093.79 m -305766.02 0 a 305766.02 305766.02 0 1 1 611532.03 0a 305766.02 305766.02 0 1 1 -611532.03 0M 12936418.00 12428425.00 L 12542048.00 12428425.00 L 12542048.00 12034055.00 L 12622048.00 12034055.00 L 12622048.00 12348425.00 L 12936418.00 12348425.00 L 12936418.00 12428425.00  zM 13410708.00 12428425.00 L 13016338.00 12428425.00 L 13016338.00 12348425.00 L 13330708.00 12348425.00 L 13330708.00 12034055.00 L 13410708.00 12034055.00 L 13410708.00 12428425.00  zM 13976378.00 15037397.49 m -301004.52 0 a 301004.52 301004.52 0 1 1 602009.04 0a 301004.52 301004.52 0 1 1 -602009.04 0M 11909449.00 16127954.86 m -160563.45 0 a 160563.45 160563.45 0 1 1 321126.90 0a 160563.45 160563.45 0 1 1 -321126.90 0M 13976378.00 16037397.49 m -301004.52 0 a 301004.52 301004.52 0 1 1 602009.04 0a 301004.52 301004.52 0 1 1 -602009.04 0"/>
</g>
</svg>
