<svg width="38.00040406mm" height="29.99999588mm" viewBox="0 0 14960789 11811022"  version="1.1" xmlns="http://www.w3.org/2000/svg" xmlns:xlink="http://www.w3.org/1999/xlink">
<desc>
Origin 13976378 9631890 Bound 6496064 9631889 14960789 11811022
</desc>
<g fill-rule="evenodd" fill="rgb(255, 0, 255)" stroke="black" stroke-width="1" transform="translate(0, 11811022) scale(1, -1) translate(-6496064, -9631889)">
<path id="N" d="M 20368704.00 21442908.00 A 1184783.19 1184783.19 0 0 0 20368704.00 19080702.00 L 18346620.00 19080823.00 L 18307947.00 19078920.00 A 393825.50 393825.50 0 0 1 17952794.00 18685851.00 L 17952630.00 12388941.00 L 17954417.00 12350259.00 A 393846.16 393846.16 0 0 1 18346452.00 11993893.00 L 20368540.00 11994099.00 A 1184767.65 1184767.65 0 0 0 20368540.00 9631895.00 L 7584212.00 9631889.00 A 1184742.71 1184742.71 0 0 0 7584212.00 11994095.00 L 9606298.00 11993969.00 L 9644971.00 11995872.00 A 393825.50 393825.50 0 0 1 10000124.00 12388941.00 L 10000290.00 18685861.00 L 9998503.00 18724543.00 A 393881.67 393881.67 0 0 1 9606464.00 19080912.00 L 7584378.00 19080707.00 A 1184727.17 1184727.17 0 0 0 7584378.00 21442911.00 L 20368704.00 21442908.00  zM 7677166.40 10812991.06 m -593408.94 0 a 593408.94 593408.94 0 1 1 1186817.89 0a 593408.94 593408.94 0 1 1 -1186817.89 0M 9842518.98 10340556.71 m -190667.29 0 a 190667.29 190667.29 0 1 1 381334.58 0a 190667.29 190667.29 0 1 1 -381334.58 0M 9842518.98 9868115.71 m -190667.29 0 a 190667.29 190667.29 0 1 1 381334.58 0a 190667.29 190667.29 0 1 1 -381334.58 0M 9842518.98 11285438.71 m -190667.29 0 a 190667.29 190667.29 0 1 1 381334.58 0a 190667.29 190667.29 0 1 1 -381334.58 0M 9842518.98 10812997.71 m -190667.29 0 a 190667.29 190667.29 0 1 1 381334.58 0a 190667.29 190667.29 0 1 1 -381334.58 0M 9842518.98 11757879.71 m -190667.29 0 a 190667.29 190667.29 0 1 1 381334.58 0a 190667.29 190667.29 0 1 1 -381334.58 0M 13360236.00 12377953.00 L 12592520.00 12377953.00 L 12592520.00 11610237.00 L 13360236.00 11610237.00 L 13360236.00 12377953.00  zM 13976374.19 11994109.56 m -387155.44 0 a 387155.44 387155.44 0 1 1 774310.88 0a 387155.44 387155.44 0 1 1 -774310.88 0M 14976374.19 11994109.56 m -387155.44 0 a 387155.44 387155.44 0 1 1 774310.88 0a 387155.44 387155.44 0 1 1 -774310.88 0M 18110234.98 9868115.71 m -190667.29 0 a 190667.29 190667.29 0 1 1 381334.58 0a 190667.29 190667.29 0 1 1 -381334.58 0M 18110234.98 10812997.71 m -190667.29 0 a 190667.29 190667.29 0 1 1 381334.58 0a 190667.29 190667.29 0 1 1 -381334.58 0M 18110234.98 11285438.71 m -190667.29 0 a 190667.29 190667.29 0 1 1 381334.58 0a 190667.29 190667.29 0 1 1 -381334.58 0M 18110234.98 10340556.71 m -190667.29 0 a 190667.29 190667.29 0 1 1 381334.58 0a 190667.29 190667.29 0 1 1 -381334.58 0M 18110234.98 11757879.71 m -190667.29 0 a 190667.29 190667.29 0 1 1 381334.58 0a 190667.29 190667.29 0 1 1 -381334.58 0M 20275585.40 10812996.06 m -593408.94 0 a 593408.94 593408.94 0 1 1 1186817.89 0a 593408.94 593408.94 0 1 1 -1186817.89 0M 7677332.40 20261809.06 m -593408.94 0 a 593408.94 593408.94 0 1 1 1186817.89 0a 593408.94 593408.94 0 1 1 -1186817.89 0M 9842684.98 21206697.71 m -190667.29 0 a 190667.29 190667.29 0 1 1 381334.58 0a 190667.29 190667.29 0 1 1 -381334.58 0M 9842684.98 19316933.71 m -190667.29 0 a 190667.29 190667.29 0 1 1 381334.58 0a 190667.29 190667.29 0 1 1 -381334.58 0M 9842684.98 20734256.71 m -190667.29 0 a 190667.29 190667.29 0 1 1 381334.58 0a 190667.29 190667.29 0 1 1 -381334.58 0M 14305906.00 15366930.00 L 13646850.00 15366930.00 L 13646850.00 14707874.00 L 14305906.00 14707874.00 L 14305906.00 15366930.00  zM 9842684.98 19789374.71 m -190667.29 0 a 190667.29 190667.29 0 1 1 381334.58 0a 190667.29 190667.29 0 1 1 -381334.58 0M 9842684.98 20261815.71 m -190667.29 0 a 190667.29 190667.29 0 1 1 381334.58 0a 190667.29 190667.29 0 1 1 -381334.58 0M 13976376.87 16037402.61 m -332370.39 0 a 332370.39 332370.39 0 1 1 664740.77 0a 332370.39 332370.39 0 1 1 -664740.77 0M 18110398.98 19316923.71 m -190667.29 0 a 190667.29 190667.29 0 1 1 381334.58 0a 190667.29 190667.29 0 1 1 -381334.58 0M 18110398.98 20261805.71 m -190667.29 0 a 190667.29 190667.29 0 1 1 381334.58 0a 190667.29 190667.29 0 1 1 -381334.58 0M 18110398.98 21206687.71 m -190667.29 0 a 190667.29 190667.29 0 1 1 381334.58 0a 190667.29 190667.29 0 1 1 -381334.58 0M 18110398.98 19789364.71 m -190667.29 0 a 190667.29 190667.29 0 1 1 381334.58 0a 190667.29 190667.29 0 1 1 -381334.58 0M 18110398.98 20734246.71 m -190667.29 0 a 190667.29 190667.29 0 1 1 381334.58 0a 190667.29 190667.29 0 1 1 -381334.58 0M 20275749.40 20261804.06 m -593408.94 0 a 593408.94 593408.94 0 1 1 1186817.89 0a 593408.94 593408.94 0 1 1 -1186817.89 0"/>
</g>
</svg>
