**ABCDEFGHIJKLMNOPQRSTUVWXYZabcdefghijklmnopqrstuvwxyz**************************
**PARASOLID !"#$%&'()*+,-./:;<=>?@[\]^_`{|}~0123456789**************************
**PART1;
MC=AMD64;
MC_MODEL=AMD64 Family 23 Model 113 Stepping 0, AuthenticAMD;
MC_ID=unknown;
OS=Windows_NT;
OS_RELEASE=unknown;
FRU=CAD Exchanger 3.10.0 (cadexchanger.com);
APPL=unknown;
SITE=unknown;
USER=unknown;
FORMAT=text;
GUISE=transmit;
KEY=SM-42TAxxx_NDC_CMP-632-0001-2;
FILE=SM-42TAxxx_NDC_CMP-632-0001-2.x_t;
DATE=Thu Sep 23 09:26:20 2021;
**PART2;
SCH=SCH_1200000_12103;
USFLD_SIZE=0;
**PART3;
**END_OF_HEADER*****************************************************************
T51 : TRANSMIT FILE created by modeller version 120000017 SCH_1200000_121030 74
 5 1 5 0 2 137 264 491 718 12 2 87 0 3 0 0 0 0 1000 1e-008 0 0 0 1 0 1 1 12 14 2
0 18 9 19 17 70 3 0 2 0 0 4 1 20 0 4 4 1 T74 20 4 1 0 5 0 0 0 0 0 0 0 0 0 0 0 0
 0 0 0 0 0 0 0 81 1 5 7 6 13 0 0 24 0 8 80 1 6 0 7 8001 0 0 0 0 3 5 0 0 0 FFFFTF
TFFFFFFF2 79 15 7 SDL/TYSA_COLOUR83 3 8 0.2000000029802322 0.2000000029802322 0.
2000000029802322 19 9 1 0 2 11 0 10 V13 10 2 0 2 0 0 0 0 9 13 19 11 3 0 2 0 9 12
 S13 12 4 0 2 0 13 0 0 11 0 14 13 5 5 1e-008 22 0 15 12 14 +0 0 22 0 10 50 14 6
 0 13 23 0 0 +0.001586 0.0004000000000000001 0.00260000118 1 -1.224646799147353e
-016 -1.83697019872103e-016 1.83697019872103e-016 -2.249639673992786e-032 1 15 1
5 8 0 16 13 0 17 16 0 15 16 16 17 21 19 0 37 -18 17 9 0 21 0 28 18 ?2 29 18 10 0
 17 29 0 0.001586 0.0012 0.00180000118 16 19 11 0 ?21 0 30 20 0 0 2 31 20 12 0 1
9 31 0 0 +0.001586 0.0012 0.00260000118 -1 1.224646799147353e-016 1.836970198721
03e-016 -1.83697019872103e-016 2.249639673992786e-032 -1 0.0008 17 21 0 26 27 37
 17 16 19 0 16 +14 22 13 24 1e-008 42 13 26 12 23 -0 0 42 13 10 51 23 14 0 22 43
 14 0 +0.001586 0.0012 0.00260000118 1 -1.224646799147353e-016 -1.83697019872103
e-016 0.0008 -1.83697019872103e-016 2.249639673992786e-032 -1 81 1 24 15 6 22 0
 0 44 5 25 83 3 25 0.2000000029802322 0.2000000029802322 0.2000000029802322 15 2
6 16 0 27 22 0 17 27 0 26 38 21 28 37 30 0 41 +18 28 17 0 27 17 48 29 ?2 29 29 1
8 0 28 49 18 0.002286 0.0012 0.00180000118 16 30 19 0 ?27 19 39 31 0 0 2 134 31
 20 0 30 40 20 0 +32 36 136 32 1 2 3 2 1 FFF1 33 34 35 45 6 33 0.001586 0.0012 0
.00180000118 0.002286 0.0012 0.00180000118 127 2 34 2 2 128 2 35 0 0.7 135 36 1
 0 17 37 0 26 21 38 17 27 30 0 0 -17 38 0 26 37 27 28 41 39 0 0 -16 39 21 0 ?41
 30 50 40 0 0 2 31 40 22 0 39 51 31 0 +0.002286000000000001 0.0012 0.00260000118
 -1 1.224646799147353e-016 1.83697019872103e-016 -1.83697019872103e-016 2.249639
673992786e-032 -1 0.0008 17 41 0 117 41 41 28 38 39 0 38 +14 42 23 44 1e-008 71
 22 46 12 43 -0 0 71 22 10 50 43 24 0 42 72 23 0 +0.002286000000000001 0.0024 0.
00370000118 -1.224646799147353e-016 -1 0 -1.83697019872103e-016 2.24963967399278
6e-032 -1 81 1 44 25 6 42 0 0 73 24 45 83 3 45 0.2000000029802322 0.200000002980
2322 0.2000000029802322 15 46 26 0 47 42 0 17 47 0 46 55 67 48 52 50 0 60 +18 48
 27 0 47 28 53 49 ?2 29 49 28 0 48 54 29 -0.002314 0.0024 0.000200001180000001 1
6 50 29 0 ?47 39 58 51 0 0 2 30 51 30 0 50 59 40 0 +0.002286 0.0024 0.0002000011
800000001 -1 1.224646799147353e-016 1.83697019872103e-016 17 52 0 131 122 81 53
 47 50 0 67 -18 53 31 0 52 48 56 54 ?2 29 54 32 0 53 57 49 0.002286 0.0024 0.000
2000011800000001 17 55 0 46 61 47 56 60 58 0 88 -18 56 33 0 66 53 62 57 ?2 29 57
 34 0 56 63 54 -0.002314 0.0024 0.003700001180000001 16 58 35 0 ?60 50 64 59 0 0
 2 30 59 36 0 58 65 51 0 +-0.002314 0.0024 0.003700001180000001 -1.8369701987210
3e-016 2.249639673992786e-032 -1 17 60 0 75 76 88 48 55 58 0 81 +17 61 0 46 67 5
5 62 66 64 0 70 -18 62 37 0 61 56 77 63 ?2 29 63 38 0 62 78 57 0.002286 0.0024 0
.00370000118 16 64 39 0 ?66 58 68 65 0 0 2 30 65 40 0 64 69 59 0 +0.002286 0.002
4 0.00370000118 -1 1.224646799147353e-016 1.83697019872103e-016 17 66 0 136 91 1
26 56 61 64 0 55 +17 67 0 46 47 61 53 70 68 0 119 +16 68 41 0 ?67 64 79 69 0 0 2
 30 69 42 0 68 80 65 0 +0.002286 0.0024 0.00370000118 -1.83697019872103e-016 2.2
49639673992786e-032 -1 17 70 0 118 123 119 62 67 68 0 126 -14 71 43 73 1e-008 92
 42 75 12 72 -0 0 92 42 10 50 72 44 0 71 93 43 0 +-0.002314 0.0024 0.00370000118
0000001 1 -1.224646799147353e-016 -1.83697019872103e-016 1.83697019872103e-016 -
2.249639673992786e-032 1 81 1 73 45 6 71 0 0 94 44 74 83 3 74 0.2000000029802322
 0.2000000029802322 0.2000000029802322 15 75 46 0 76 71 0 17 76 0 75 82 60 77 81
 79 0 87 +18 77 47 0 76 62 83 78 ?2 29 78 48 0 77 84 63 -0.002314 -0.00239999999
9999999 0.000200001180000001 16 79 49 0 ?76 68 85 80 0 0 2 30 80 50 0 79 86 69 0
 +-0.002314 0.0024 0.000200001180000001 -1.224646799147353e-016 -1 0 17 81 0 131
 52 102 48 76 79 0 0 -17 82 0 75 88 76 83 87 85 0 109 -18 83 51 0 91 77 98 84 ?2
 29 84 52 0 83 99 78 -0.002314 -0.002399999999999999 0.003700001180000001 16 85
 53 0 ?87 79 89 86 0 0 2 30 86 54 0 85 90 80 0 +-0.002314 -0.002399999999999999
 0.003700001180000001 -1.83697019872103e-016 2.249639673992786e-032 -1 17 87 0 9
6 97 109 77 82 85 0 102 +17 88 0 75 60 82 56 91 89 0 0 -16 89 55 0 ?91 85 100 90
 0 0 2 30 90 56 0 89 101 86 0 +-0.002314 0.0024 0.003700001180000001 -1.22464679
9147353e-016 -1 0 17 91 0 136 112 66 83 88 89 0 82 +14 92 57 94 1e-008 113 71 96
 12 93 -0 0 113 71 10 50 93 58 0 92 114 72 0 +-0.002314 -0.002399999999999999 0.
003700001180000001 1.224646799147353e-016 1 0 1.83697019872103e-016 -2.249639673
992786e-032 1 81 1 94 59 6 92 0 0 115 73 95 83 3 95 0.2000000029802322 0.2000000
029802322 0.2000000029802322 15 96 60 0 97 92 0 17 97 0 96 103 87 98 102 100 0 1
22 +18 98 61 0 108 83 104 99 ?2 29 99 62 0 98 105 84 0.002285999999999999 -0.002
4 0.0002000011800000001 16 100 63 0 ?97 89 106 101 0 0 2 30 101 64 0 100 107 90
 0 +-0.002314 -0.002399999999999999 0.000200001180000001 1 -1.224646799147353e-0
16 -1.83697019872103e-016 17 102 0 131 81 122 77 97 100 0 0 -17 103 0 96 109 97
 104 108 106 0 123 -18 104 65 0 112 98 0 105 ?2 29 105 66 0 104 0 99 0.002286 -0
.0024 0.00370000118 16 106 67 0 ?108 100 110 107 0 0 2 30 107 68 0 106 111 101 0
 +0.002286 -0.0024 0.00370000118 -1.83697019872103e-016 2.249639673992786e-032 -
1 17 108 0 118 119 123 98 103 106 0 97 +17 109 0 96 87 103 83 112 110 0 0 -16 11
0 69 0 ?112 106 120 111 0 0 2 30 111 70 0 110 121 107 0 +-0.002314 -0.0023999999
99999999 0.003700001180000001 1 -1.224646799147353e-016 -1.83697019872103e-016 1
7 112 0 136 126 91 104 109 110 0 103 +14 113 71 115 1e-008 127 92 117 12 114 -0
 0 127 92 10 50 114 72 0 113 128 93 0 +0.002286 -0.0024 0.00370000118 -1 1.22464
6799147353e-016 1.83697019872103e-016 -1.83697019872103e-016 2.249639673992786e-
032 -1 81 1 115 73 6 113 0 0 129 94 116 83 3 116 0.2000000029802322 0.2000000029
802322 0.2000000029802322 15 117 74 0 41 113 118 15 118 75 0 119 113 0 17 119 0
 118 70 108 53 122 120 0 0 +16 120 76 0 ?119 110 124 121 0 0 2 30 121 77 0 120 1
25 111 0 +0.002285999999999999 -0.0024 0.0002000011800000001 1.224646799147353e-
016 1 0 17 122 0 131 102 52 98 119 120 0 0 -17 123 0 118 108 70 104 126 124 0 0
 -16 124 78 0 ?126 120 0 125 0 0 2 30 125 79 0 124 0 121 0 +0.002286 -0.0024 0.0
0370000118 1.224646799147353e-016 1 0 17 126 0 136 66 112 62 123 124 0 0 +14 127
 80 129 1e-008 132 113 131 12 128 -0 0 132 113 10 50 128 81 0 127 133 114 0 +0.0
02286 3.936869429487376e-035 0.0002000011800000001 1.83697019872103e-016 -2.2496
39673992786e-032 1 -1.224646799147353e-016 -1 0 81 1 129 82 6 127 0 0 134 115 13
0 83 3 130 0.2000000029802322 0.2000000029802322 0.2000000029802322 15 131 83 0
 52 127 0 14 132 84 134 1e-008 0 127 136 12 133 +0 0 0 127 10 50 133 85 0 132 0
 128 0 +0.002286000000000001 -3.936869429487376e-035 0.00370000118 1.83697019872
103e-016 -2.249639673992786e-032 1 -1.224646799147353e-016 -1 0 81 1 134 86 6 13
2 0 0 0 129 135 83 3 135 0.2000000029802322 0.2000000029802322 0.200000002980232
2 15 136 87 0 66 132 0 12 137 82 0 138 0 0 0 0 1000 1e-008 0 0 0 1 0 1 1 145 147
 153 151 142 152 150 70 138 0 137 0 0 4 1 20 0 139 139 1 T74 20 139 1 0 140 0 0
 0 0 0 0 0 0 0 0 0 0 0 0 0 0 0 0 0 81 1 140 7 6 146 0 0 163 0 141 83 3 141 0.752
9411911964417 0.7529411911964417 0.7529411911964417 19 142 1 0 137 144 0 143 V13
 143 2 0 137 0 0 0 0 142 146 19 144 3 0 137 0 142 145 S13 145 4 0 137 0 146 0 0
 144 0 14 146 5 140 1e-008 161 0 148 145 147 -0 0 161 0 143 50 147 6 0 146 162 0
 0 +0.002286000000000001 0.0012 0.00260000118 -1 1.224646799147353e-016 1.836970
19872103e-016 1.224646799147353e-016 1 -0 15 148 8 0 149 146 0 17 149 0 148 157
 157 150 154 152 0 160 -18 150 9 0 149 0 155 151 ?137 29 151 10 0 150 156 0 0.00
2286 0.001895772951471958 0.00232000118 16 152 11 0 ?154 0 158 153 0 0 137 31 15
3 12 0 152 159 0 0 +0.002286000000000001 0.0012 0.00260000118 -1 1.2246467991473
53e-016 1.83697019872103e-016 1.224646799147353e-016 1 -0 0.00075 17 154 0 165 1
93 189 155 149 152 0 157 +18 155 13 0 154 150 167 156 ?137 29 156 14 0 155 168 1
51 0.002286 0.000504227048528042 0.00232000118 17 157 0 148 149 149 155 160 158
 0 198 -16 158 15 0 ?160 152 169 159 0 0 137 30 159 16 0 158 170 153 0 +0.002286
 0.0002 0.00232000118 1.224646799147353e-016 1 -0 17 160 0 254 192 198 150 157 1
58 0 189 +14 161 17 163 1e-008 227 146 165 145 162 +0 0 227 146 143 51 162 18 0
 161 228 147 0 +0.001586000000000001 0.0012 0.00260000118 1 -1.224646799147353e-
016 -1.83697019872103e-016 0.00075 1.224646799147353e-016 1 -0 81 1 163 19 6 161
 0 0 229 140 164 83 3 164 0.7529411911964417 0.7529411911964417 0.75294119119644
17 15 165 20 0 166 161 0 17 166 0 165 172 182 167 171 169 0 0 -18 167 21 0 182 1
55 173 168 ?137 29 168 22 0 167 174 156 0.001586000000000001 0.00195 0.002600001
18 16 169 23 0 ?171 158 175 170 0 0 137 31 170 24 0 169 176 159 0 +0.00158600000
0000001 0.0012 0.00260000118 -1 1.224646799147353e-016 1.83697019872103e-016 1.2
24646799147353e-016 1 -0 0.00075 17 171 0 240 171 171 167 166 169 0 166 +17 172
 0 165 183 166 173 182 175 0 188 +18 173 25 0 172 167 184 174 ?137 29 174 26 0 1
73 185 168 0.001786000000000001 0.00195 0.00260000118 16 175 27 0 ?172 169 186 1
76 0 0 137 134 176 28 0 175 187 170 0 +177 181 136 177 1 2 3 2 1 FFF1 178 179 18
0 45 6 178 0.001586000000000001 0.00195 0.00260000118 0.001786000000000001 0.001
95 0.00260000118 127 2 179 2 2 128 2 180 0 0.2 135 181 1 0 17 182 0 165 166 223
 167 172 175 0 171 -17 183 0 165 189 172 184 188 186 0 258 -18 184 29 0 192 173
 194 185 ?137 29 185 30 0 184 195 174 0.001786000000000001 0.001895772951471958
 0.00232000118 16 186 31 0 ?188 175 190 187 0 0 137 31 187 32 0 186 191 176 0 +0
.001786000000000001 0.0012 0.00260000118 1 -1.224646799147353e-016 -1.8369701987
2103e-016 -1.224646799147353e-016 -1 0 0.00075 17 188 0 263 226 258 173 183 186
 0 223 +17 189 0 165 154 183 150 192 190 0 0 -16 190 33 0 ?192 186 196 191 0 0 1
37 30 191 34 0 190 197 187 0 +0.001586000000000001 0.001895772951471958 0.002320
00118 -1 1.224646799147353e-016 1.83697019872103e-016 17 192 0 254 255 160 184 1
89 190 0 183 +17 193 0 165 199 154 194 198 196 0 255 +18 194 35 0 204 184 200 19
5 ?137 29 195 36 0 194 201 185 0.001786000000000001 0.0005042270485280422 0.0023
2000118 16 196 37 0 ?193 190 202 197 0 0 137 30 197 38 0 196 203 191 0 +0.001586
 0.0005042270485280422 0.00232000118 -1 1.224646799147353e-016 1.83697019872103e
-016 17 198 0 254 160 255 155 193 196 0 0 -17 199 0 165 205 193 200 204 202 0 24
9 -18 200 39 0 199 194 206 201 ?137 29 201 40 0 200 207 195 0.001786000000000001
 0.0005042270485280422 0.00288000118 16 202 41 0 ?204 196 208 203 0 0 137 31 203
 42 0 202 209 197 0 +0.001786000000000001 0.0012 0.00260000118 1 -1.224646799147
353e-016 -1.83697019872103e-016 -1.224646799147353e-016 -1 0 0.00075 17 204 0 26
3 258 249 194 199 202 0 193 +17 205 0 165 211 199 206 210 208 0 0 -18 206 43 0 2
35 200 212 207 ?137 29 207 44 0 206 213 201 0.002286 0.000504227048528042 0.0028
8000118 16 208 45 0 ?210 202 214 209 0 0 137 30 209 46 0 208 215 203 0 +0.001586
 0.0005042270485280422 0.00288000118 -1 1.224646799147353e-016 1.83697019872103e
-016 17 210 0 245 246 235 200 205 208 0 0 +17 211 0 165 217 205 212 216 214 0 23
2 +18 212 47 0 211 206 218 213 ?137 29 213 48 0 212 219 207 0.002286 0.001895772
951471958 0.00288000118 16 214 49 0 ?211 208 220 215 0 0 137 31 215 50 0 214 221
 209 0 +0.002286000000000001 0.0012 0.00260000118 -1 1.224646799147353e-016 1.83
697019872103e-016 1.224646799147353e-016 1 -0 0.00075 17 216 0 231 232 232 206 2
11 214 0 205 -17 217 0 165 223 211 218 222 220 0 0 +18 218 51 0 226 212 0 219 ?1
37 29 219 52 0 218 0 213 0.001786000000000001 0.001895772951471958 0.00288000118
 16 220 53 0 ?217 214 224 221 0 0 137 30 221 54 0 220 225 215 0 +0.0015860000000
00001 0.001895772951471958 0.00288000118 -1 1.224646799147353e-016 1.83697019872
103e-016 17 222 0 245 235 246 212 217 220 0 0 -17 223 0 165 182 217 173 226 224
 0 0 -16 224 55 0 ?226 220 233 225 0 0 137 31 225 56 0 224 234 221 0 +0.00178600
0000000001 0.0012 0.00260000118 1 -1.224646799147353e-016 -1.83697019872103e-016
 -1.224646799147353e-016 -1 0 0.00075 17 226 0 263 249 188 218 223 224 0 246 +14
 227 57 229 1e-008 236 161 231 145 228 -0 0 236 161 143 50 228 58 0 227 237 162
 0 +0.002286000000000001 0.0012 0.00260000118 -1 1.224646799147353e-016 1.836970
19872103e-016 1.224646799147353e-016 1 -0 81 1 229 59 6 227 0 0 238 163 230 83 3
 230 0.7529411911964417 0.7529411911964417 0.7529411911964417 15 231 60 0 216 22
7 0 17 232 0 231 216 216 212 235 233 0 222 -16 233 61 0 ?235 224 247 234 0 0 137
 30 234 62 0 233 248 225 0 +0.002286 0.0022 0.00288000118 -1.224646799147353e-01
6 -1 0 17 235 0 245 210 222 206 232 233 0 216 +14 236 63 238 1e-008 241 227 240
 145 237 -0 0 241 227 143 50 237 64 0 236 242 228 0 +0.001586 0.0012 0.001850001
18 1 -1.224646799147353e-016 -1.83697019872103e-016 -1.224646799147353e-016 -1 0
 81 1 238 65 6 236 0 0 243 229 239 83 3 239 0.7529411911964417 0.752941191196441
7 0.7529411911964417 15 240 66 0 171 236 0 14 241 67 243 1e-008 250 236 245 145
 242 -0 0 250 236 143 50 242 68 0 241 251 237 0 +0.001786000000000001 0.0022 0.0
0288000118 1.83697019872103e-016 -2.249639673992786e-032 1 -1.224646799147353e-0
16 -1 0 81 1 243 69 6 241 0 0 252 238 244 83 3 244 0.7529411911964417 0.75294119
11964417 0.7529411911964417 15 245 70 0 235 241 0 17 246 0 245 222 210 218 249 2
47 0 217 -16 247 71 0 ?249 233 256 248 0 0 137 30 248 72 0 247 257 234 0 +0.0017
86000000000001 0.0022 0.00288000118 -1.224646799147353e-016 -1 0 17 249 0 263 20
4 226 200 246 247 0 210 +14 250 73 252 1e-008 259 241 254 145 251 -0 0 259 241 1
43 50 251 74 0 250 260 242 0 +0.001786000000000001 0.0002000000000000001 0.00232
000118 -1.83697019872103e-016 2.249639673992786e-032 -1 1.224646799147353e-016 1
 -0 81 1 252 75 6 250 0 0 261 243 253 83 3 253 0.7529411911964417 0.752941191196
4417 0.7529411911964417 15 254 76 0 198 250 0 17 255 0 254 198 192 194 258 256 0
 0 -16 256 77 0 ?258 247 0 257 0 0 137 30 257 78 0 256 0 248 0 +0.00178600000000
0001 0.0002000000000000001 0.00232000118 1.224646799147353e-016 1 -0 17 258 0 26
3 188 204 184 255 256 0 0 +14 259 79 261 1e-008 0 250 263 145 260 +0 0 0 250 143
 50 260 80 0 259 0 251 0 +0.001786000000000001 0.0012 0.00260000118 1 -1.2246467
99147353e-016 -1.83697019872103e-016 -1.224646799147353e-016 -1 0 81 1 261 81 6
 259 0 0 0 252 262 83 3 262 0.7529411911964417 0.7529411911964417 0.752941191196
4417 15 263 82 0 188 259 0 12 264 152 0 265 0 0 0 0 1000 1e-008 0 0 0 1 0 1 1 27
2 274 280 278 269 279 277 70 265 0 264 0 0 4 1 20 0 266 266 1 T74 20 266 1 0 267
 0 0 0 0 0 0 0 0 0 0 0 0 0 0 0 0 0 0 0 81 1 267 7 6 273 0 0 302 0 268 83 3 268 0
.7529411911964417 0.7529411911964417 0.7529411911964417 19 269 1 0 264 271 0 270
 V13 270 2 0 264 0 0 0 0 269 273 19 271 3 0 264 0 269 272 S13 272 4 0 264 0 273
 0 0 271 0 14 273 5 267 1e-008 300 0 275 272 274 +0 0 300 0 270 51 274 6 0 273 3
01 0 0 +0.002266000000000001 -0.0006500000000000001 0.0002200011800000004 -1.224
646799147353e-016 -1 0 0.00022 -1.83697019872103e-016 2.249639673992786e-032 -1
 15 275 8 0 276 273 0 17 276 0 275 284 296 277 281 279 0 289 +18 277 9 0 276 0 2
82 278 ?264 29 278 10 0 277 283 0 0.002486 0.00065 0.0002200011800000003 16 279
 11 0 ?276 0 287 280 0 0 264 31 280 12 0 279 288 0 0 +0.002266000000000001 0.000
6500000000000001 0.0002200011800000004 -1.224646799147353e-016 -1 0 1.8369701987
2103e-016 -2.249639673992786e-032 1 0.00022 17 281 0 485 329 310 282 276 279 0 0
 -18 282 13 0 326 277 285 283 ?264 29 283 14 0 282 286 278 0.002266 0.00065 1.18
0000000267079e-009 17 284 0 275 290 276 285 289 287 0 295 -18 285 15 0 284 282 2
91 286 ?264 29 286 16 0 285 292 283 0.002486 -0.00065 0.0002200011800000003 16 2
87 17 0 ?289 279 293 288 0 0 264 30 288 18 0 287 294 280 0 +0.002486 -0.00065 0.
0002200011800000003 1.224646799147353e-016 1 0 17 289 0 304 305 317 277 284 287
 0 310 +17 290 0 275 296 284 291 295 293 0 0 -18 291 19 0 299 285 306 292 ?264 2
9 292 20 0 291 307 286 0.002266 -0.00065 1.180000000267079e-009 16 293 21 0 ?295
 287 297 294 0 0 264 31 294 22 0 293 298 288 0 +0.002266000000000001 -0.00065000
00000000001 0.0002200011800000004 -1.224646799147353e-016 -1 0 1.83697019872103e
-016 -2.249639673992786e-032 1 0.00022 17 295 0 490 320 337 285 290 293 0 317 +1
7 296 0 275 276 290 282 299 297 0 281 +16 297 23 0 ?296 293 308 298 0 0 264 30 2
98 24 0 297 309 294 0 +0.002266 -0.00065 1.180000000267079e-009 1.22464679914735
3e-016 1 0 17 299 0 325 332 326 291 296 297 0 337 -14 300 25 302 1e-008 321 273
 304 272 301 -0 0 321 273 270 50 301 26 0 300 322 274 0 +0.002486 -0.00065000000
00000001 0.0002200011800000003 -1 1.224646799147353e-016 1.83697019872103e-016 -
1.83697019872103e-016 2.249639673992786e-032 -1 81 1 302 27 6 300 0 0 323 267 30
3 83 3 303 0.7529411911964417 0.7529411911964417 0.7529411911964417 15 304 28 0
 305 300 0 17 305 0 304 311 289 306 310 308 0 352 +18 306 29 0 316 291 312 307 ?
264 29 307 30 0 306 313 292 0.002486 0.00065 0.0008000011800000002 16 308 31 0 ?
305 297 314 309 0 0 264 30 309 32 0 308 315 298 0 +0.002486 0.00065 0.0002200011
800000003 1.83697019872103e-016 -2.249639673992786e-032 1 17 310 0 485 281 352 2
77 305 308 0 0 -17 311 0 304 317 305 312 316 314 0 320 -18 312 33 0 311 306 330
 313 ?264 29 313 34 0 312 331 307 0.002486 -0.00065 0.0008000011800000002 16 314
 35 0 ?316 308 318 315 0 0 264 30 315 36 0 314 319 309 0 +0.002486 -0.00065 0.00
08000011800000002 1.224646799147353e-016 1 0 17 316 0 346 347 359 306 311 314 0
 305 +17 317 0 304 289 311 285 320 318 0 0 -16 318 37 0 ?320 314 327 319 0 0 264
 30 319 38 0 318 328 315 0 +0.002486 -0.00065 0.0002200011800000003 1.8369701987
2103e-016 -2.249639673992786e-032 1 17 320 0 490 362 295 312 317 318 0 359 +14 3
21 39 323 1e-008 342 300 325 272 322 -0 0 342 300 270 50 322 40 0 321 343 301 0
 +0.001706 -0.00065 1.180000000378101e-009 1.83697019872103e-016 -2.249639673992
786e-032 1 1.224646799147353e-016 1 0 81 1 323 41 6 321 0 0 344 302 324 83 3 324
 0.7529411911964417 0.7529411911964417 0.7529411911964417 15 325 42 0 326 321 0
 17 326 0 325 299 338 282 329 327 0 296 +16 327 43 0 ?326 318 335 328 0 0 264 30
 328 44 0 327 336 319 0 +0.001706 0.0006500000000000002 1.180000000378101e-009 1
 -1.224646799147353e-016 -1.83697019872103e-016 17 329 0 485 476 281 330 326 327
 0 338 -18 330 45 0 329 312 333 331 ?264 29 331 46 0 330 334 313 0.001706 0.0006
500000000000002 1.180000000378101e-009 17 332 0 325 338 299 333 337 335 0 341 -1
8 333 47 0 332 330 348 334 ?264 29 334 48 0 333 349 331 0.001706 -0.000649999999
9999999 1.180000000378101e-009 16 335 49 0 ?337 327 339 336 0 0 264 30 336 50 0
 335 340 328 0 +0.001706 -0.0006499999999999999 1.180000000378101e-009 1 -1.2246
46799147353e-016 -1.83697019872103e-016 17 337 0 490 295 480 291 332 335 0 290 +
17 338 0 325 326 332 330 341 339 0 473 +16 339 51 0 ?338 335 350 340 0 0 264 30
 340 52 0 339 351 336 0 +0.001706 -0.0006499999999999999 1.180000000378101e-009
 1.224646799147353e-016 1 0 17 341 0 472 477 473 333 338 339 0 480 -14 342 53 34
4 1e-008 363 321 346 272 343 -0 0 363 321 270 50 343 54 0 342 364 322 0 +0.00248
6 -0.0006500000000000001 0.0008000011800000002 -1.83697019872103e-016 2.24963967
3992786e-032 -1 -1.224646799147353e-016 -1 0 81 1 344 55 6 342 0 0 365 323 345 8
3 3 345 0.7529411911964417 0.7529411911964417 0.7529411911964417 15 346 56 0 347
 342 0 17 347 0 346 353 316 348 352 350 0 373 +18 348 57 0 358 333 354 349 ?264
 29 349 58 0 348 355 334 0.002376 0.00065 0.0008000011800000003 16 350 59 0 ?347
 339 356 351 0 0 264 30 351 60 0 350 357 340 0 +0.002486 0.00065 0.0008000011800
000002 -1 1.224646799147353e-016 1.83697019872103e-016 17 352 0 485 310 373 306
 347 350 0 0 -17 353 0 346 359 347 354 358 356 0 362 -18 354 61 0 380 348 369 35
5 ?264 29 355 62 0 354 370 349 0.002376 -0.00065 0.0008000011800000003 16 356 63
 0 ?358 350 360 357 0 0 264 30 357 64 0 356 361 351 0 +0.002376 -0.00065 0.00080
00011800000003 1.224646799147353e-016 1 0 17 358 0 367 368 380 348 353 356 0 347
 +17 359 0 346 316 353 312 362 360 0 0 -16 360 65 0 ?362 356 371 361 0 0 264 30
 361 66 0 360 372 357 0 +0.002486 -0.00065 0.0008000011800000002 -1 1.2246467991
47353e-016 1.83697019872103e-016 17 362 0 490 383 320 354 359 360 0 0 +14 363 67
 365 1e-008 384 342 367 272 364 -0 0 384 342 270 50 364 68 0 363 385 343 0 +0.00
2376 -0.0006500000000000001 0.0008000011800000003 1 -1.224646799147353e-016 -1.8
3697019872103e-016 1.83697019872103e-016 -2.249639673992786e-032 1 81 1 365 69 6
 363 0 0 386 344 366 83 3 366 0.7529411911964417 0.7529411911964417 0.7529411911
964417 15 367 70 0 368 363 0 17 368 0 367 374 358 369 373 371 0 379 +18 369 71 0
 394 354 375 370 ?264 29 370 72 0 369 376 355 0.002376 0.00065 0.000210001180000
0003 16 371 73 0 ?368 360 377 372 0 0 264 30 372 74 0 371 378 361 0 +0.002376 0.
00065 0.0008000011800000003 -1.83697019872103e-016 2.249639673992786e-032 -1 17
 373 0 485 352 394 348 368 371 0 0 -17 374 0 367 380 368 375 379 377 0 0 -18 375
 75 0 383 369 390 376 ?264 29 376 76 0 375 391 370 0.002376 -0.00065 0.000210001
1800000003 16 377 77 0 ?379 371 381 378 0 0 264 30 378 78 0 377 382 372 0 +0.002
376 -0.00065 0.0002100011800000003 1.224646799147353e-016 1 0 17 379 0 388 389 4
01 369 374 377 0 0 +17 380 0 367 358 374 354 383 381 0 353 -16 381 79 0 ?383 377
 392 382 0 0 264 30 382 80 0 381 393 378 0 +0.002376 -0.00065 0.0008000011800000
003 -1.83697019872103e-016 2.249639673992786e-032 -1 17 383 0 490 404 362 375 38
0 381 0 401 +14 384 81 386 1e-008 405 363 388 272 385 -0 0 405 363 270 51 385 82
 0 384 406 364 0 +0.002276 -0.0006500000000000001 0.0002100011800000003 -1.22464
6799147353e-016 -1 0 0.0001 -1.83697019872103e-016 2.249639673992786e-032 -1 81
 1 386 83 6 384 0 0 407 365 387 83 3 387 0.7529411911964417 0.7529411911964417 0
.7529411911964417 15 388 84 0 389 384 0 17 389 0 388 395 379 390 394 392 0 415 -
18 390 85 0 389 375 396 391 ?264 29 391 86 0 390 397 376 0.002276 0.00065 0.0001
100011800000004 16 392 87 0 ?394 381 398 393 0 0 264 31 393 88 0 392 399 382 0 +
0.002276 0.0006500000000000001 0.0002100011800000003 -1.224646799147353e-016 -1
 0 1.83697019872103e-016 -2.249639673992786e-032 1 0.0001 17 394 0 485 373 415 3
69 389 392 0 368 +17 395 0 388 401 389 396 400 398 0 422 -18 396 89 0 404 390 41
1 397 ?264 29 397 90 0 396 412 391 0.002276 -0.00065 0.0001100011800000004 16 39
8 91 0 ?400 392 402 399 0 0 264 30 399 92 0 398 403 393 0 +0.002276 -0.00065 0.0
001100011800000004 1.224646799147353e-016 1 0 17 400 0 409 410 422 390 395 398 0
 0 +17 401 0 388 379 395 375 404 402 0 374 +16 402 93 0 ?401 398 413 403 0 0 264
 31 403 94 0 402 414 399 0 +0.002276 -0.0006500000000000001 0.000210001180000000
3 -1.224646799147353e-016 -1 0 1.83697019872103e-016 -2.249639673992786e-032 1 0
.0001 17 404 0 490 425 383 396 401 402 0 395 -14 405 95 407 1e-008 426 384 409 2
72 406 -0 0 426 384 270 50 406 96 0 405 427 385 0 +0.002276 -0.00065000000000000
01 0.0001100011800000004 -1.83697019872103e-016 2.249639673992786e-032 -1 -1.224
646799147353e-016 -1 0 81 1 407 97 6 405 0 0 428 386 408 83 3 408 0.752941191196
4417 0.7529411911964417 0.7529411911964417 15 409 98 0 410 405 0 17 410 0 409 41
6 400 411 415 413 0 436 +18 411 99 0 421 396 417 412 ?264 29 412 100 0 411 418 3
97 0.001696 0.0006500000000000002 0.0001100011800000005 16 413 101 0 ?410 402 41
9 414 0 0 264 30 414 102 0 413 420 403 0 +0.002276 0.00065 0.0001100011800000004
 -1 1.224646799147353e-016 1.83697019872103e-016 17 415 0 485 394 436 390 410 41
3 0 400 -17 416 0 409 422 410 417 421 419 0 425 -18 417 103 0 443 411 432 418 ?2
64 29 418 104 0 417 433 412 0.001696 -0.0006499999999999999 0.000110001180000000
5 16 419 105 0 ?421 413 423 420 0 0 264 30 420 106 0 419 424 414 0 +0.001696 -0.
0006499999999999999 0.0001100011800000005 1.224646799147353e-016 1 0 17 421 0 43
0 431 443 411 416 419 0 410 +17 422 0 409 400 416 396 425 423 0 0 -16 423 107 0
 ?425 419 434 424 0 0 264 30 424 108 0 423 435 420 0 +0.002276 -0.00065 0.000110
0011800000004 -1 1.224646799147353e-016 1.83697019872103e-016 17 425 0 490 446 4
04 417 422 423 0 0 +14 426 109 428 1e-008 447 405 430 272 427 -0 0 447 405 270 5
1 427 110 0 426 448 406 0 +0.001696 -0.00065 0.0002100011800000005 -1.2246467991
47353e-016 -1 0 0.0001 -1.83697019872103e-016 2.249639673992786e-032 -1 81 1 428
 111 6 426 0 0 449 407 429 83 3 429 0.7529411911964417 0.7529411911964417 0.7529
411911964417 15 430 112 0 431 426 0 17 431 0 430 437 421 432 436 434 0 457 -18 4
32 113 0 442 417 438 433 ?264 29 433 114 0 432 439 418 0.001596501256289338 0.00
06500000000000002 0.0002000011800000004 16 434 115 0 ?436 423 440 435 0 0 264 31
 435 116 0 434 441 424 0 +0.001696 0.0006500000000000002 0.0002100011800000005 -
1.224646799147353e-016 -1 0 1.83697019872103e-016 -2.249639673992786e-032 1 0.00
01 17 436 0 485 415 457 411 431 434 0 0 +17 437 0 430 443 431 438 442 440 0 464
 -18 438 117 0 446 432 453 439 ?264 29 439 118 0 438 454 433 0.00159650125628933
8 -0.0006499999999999999 0.0002000011800000004 16 440 119 0 ?442 434 444 441 0 0
 264 30 441 120 0 440 445 435 0 +0.001596501256289338 -0.0006499999999999999 0.0
002000011800000004 1.224646799147353e-016 1 0 17 442 0 451 452 464 432 437 440 0
 431 +17 443 0 430 421 437 417 446 444 0 416 +16 444 121 0 ?443 440 455 445 0 0
 264 31 445 122 0 444 456 441 0 +0.001696 -0.00065 0.0002100011800000005 -1.2246
46799147353e-016 -1 0 1.83697019872103e-016 -2.249639673992786e-032 1 0.0001 17
 446 0 490 467 425 438 443 444 0 437 -14 447 123 449 1e-008 468 426 451 272 448
 -0 0 468 426 270 50 448 124 0 447 469 427 0 +0.001596501256289338 -0.00065 0.00
02000011800000004 -1.83697019872103e-016 2.249639673992786e-032 -1 -1.2246467991
47353e-016 -1 0 81 1 449 125 6 447 0 0 470 428 450 83 3 450 0.7529411911964417 0
.7529411911964417 0.7529411911964417 15 451 126 0 452 447 0 17 452 0 451 458 442
 453 457 455 0 0 +18 453 127 0 463 438 459 454 ?264 29 454 128 0 453 460 439 0.0
01486910976997933 0.0006500000000000002 0.0002000011800000004 16 455 129 0 ?452
 444 461 456 0 0 264 30 456 130 0 455 462 445 0 +0.001596501256289338 0.00065000
00000000002 0.0002000011800000004 -1 1.224646799147353e-016 1.83697019872103e-01
6 17 457 0 485 436 476 432 452 455 0 0 -17 458 0 451 464 452 459 463 461 0 477 -
18 459 131 0 458 453 0 460 ?264 29 460 132 0 459 0 454 0.001486910976997933 -0.0
006499999999999999 0.0002000011800000004 16 461 133 0 ?463 455 465 462 0 0 264 3
0 462 134 0 461 466 456 0 +0.001486910976997933 -0.0006499999999999999 0.0002000
011800000004 1.224646799147353e-016 1 0 17 463 0 472 473 477 453 458 461 0 476 +
17 464 0 451 442 458 438 467 465 0 0 -16 465 135 0 ?467 461 474 466 0 0 264 30 4
66 136 0 465 475 462 0 +0.001596501256289338 -0.0006499999999999999 0.0002000011
800000004 -1 1.224646799147353e-016 1.83697019872103e-016 17 467 0 490 480 446 4
59 464 465 0 0 +14 468 137 470 1e-008 481 447 472 272 469 +0 0 481 447 270 51 46
9 138 0 468 482 448 0 +0.001706 -0.00065 0.0002200011800000005 -1.22464679914735
3e-016 -1 0 0.00022 -1.83697019872103e-016 2.249639673992786e-032 -1 81 1 470 13
9 6 468 0 0 483 449 471 83 3 471 0.7529411911964417 0.7529411911964417 0.7529411
911964417 15 472 140 0 473 468 0 17 473 0 472 341 463 330 476 474 0 0 +16 474 14
1 0 ?473 465 478 475 0 0 264 31 475 142 0 474 479 466 0 +0.001706 0.000650000000
0000002 0.0002200011800000005 -1.224646799147353e-016 -1 0 1.83697019872103e-016
 -2.249639673992786e-032 1 0.00022 17 476 0 485 457 329 453 473 474 0 452 -17 47
7 0 472 463 341 459 480 478 0 467 -16 478 143 0 ?480 474 0 479 0 0 264 31 479 14
4 0 478 0 475 0 +0.001706 -0.00065 0.0002200011800000005 -1.224646799147353e-016
 -1 0 1.83697019872103e-016 -2.249639673992786e-032 1 0.00022 17 480 0 490 337 4
67 333 477 478 0 0 +14 481 145 483 1e-008 486 468 485 272 482 -0 0 486 468 270 5
0 482 146 0 481 487 469 0 +0.002266000000000001 0.0006500000000000001 0.00022000
11800000004 -1.224646799147353e-016 -1 0 1.83697019872103e-016 -2.24963967399278
6e-032 1 81 1 483 147 6 481 0 0 488 470 484 83 3 484 0.7529411911964417 0.752941
1911964417 0.7529411911964417 15 485 148 0 329 481 0 14 486 149 488 1e-008 0 481
 490 272 487 +0 0 0 481 270 50 487 150 0 486 0 482 0 +0.002266000000000001 -0.00
06500000000000001 0.0002200011800000004 -1.224646799147353e-016 -1 0 1.836970198
72103e-016 -2.249639673992786e-032 1 81 1 488 151 6 486 0 0 0 483 489 83 3 489 0
.7529411911964417 0.7529411911964417 0.7529411911964417 15 490 152 0 337 486 0 1
2 491 152 0 492 0 0 0 0 1000 1e-008 0 0 0 1 0 1 1 499 501 507 505 496 506 504 70
 492 0 491 0 0 4 1 20 0 493 493 1 T74 20 493 1 0 494 0 0 0 0 0 0 0 0 0 0 0 0 0 0
 0 0 0 0 0 81 1 494 7 6 500 0 0 529 0 495 83 3 495 0.7529411911964417 0.75294119
11964417 0.7529411911964417 19 496 1 0 491 498 0 497 V13 497 2 0 491 0 0 0 0 496
 500 19 498 3 0 491 0 496 499 S13 499 4 0 491 0 500 0 0 498 0 14 500 5 494 1e-00
8 527 0 502 499 501 +0 0 527 0 497 51 501 6 0 500 528 0 0 +-0.002294000000000001
 0.001600000000000001 0.000220001180000001 1.224646799147353e-016 1 0 0.00022 -1
.83697019872103e-016 2.249639673992786e-032 -1 15 502 8 0 503 500 0 17 503 0 502
 511 523 504 508 506 0 516 +18 504 9 0 503 0 509 505 ?491 29 505 10 0 504 510 0
 -0.002514 0.0007000000000000004 0.0002200011800000011 16 506 11 0 ?503 0 514 50
7 0 0 491 31 507 12 0 506 515 0 0 +-0.002294000000000001 0.0007000000000000004 0
.000220001180000001 1.224646799147353e-016 1 0 1.83697019872103e-016 -2.24963967
3992786e-032 1 0.00022 17 508 0 712 556 537 509 503 506 0 553 -18 509 13 0 508 5
04 512 510 ?491 29 510 14 0 509 513 505 -0.002294 0.0007000000000000004 1.180000
000933212e-009 17 511 0 502 517 503 512 516 514 0 522 -18 512 15 0 511 509 518 5
13 ?491 29 513 16 0 512 519 510 -0.002514 0.001600000000000001 0.000220001180000
0011 16 514 17 0 ?516 506 520 515 0 0 491 30 515 18 0 514 521 507 0 +-0.002514 0
.001600000000000001 0.0002200011800000011 -1.224646799147353e-016 -1 0 17 516 0
 531 532 544 504 511 514 0 537 +17 517 0 502 523 511 518 522 520 0 564 -18 518 1
9 0 517 512 533 519 ?491 29 519 20 0 518 534 513 -0.002294 0.001600000000000001
 1.180000000933212e-009 16 520 21 0 ?522 514 524 521 0 0 491 31 521 22 0 520 525
 515 0 +-0.002294000000000001 0.001600000000000001 0.000220001180000001 1.224646
799147353e-016 1 0 1.83697019872103e-016 -2.249639673992786e-032 1 0.00022 17 52
2 0 717 547 564 512 517 520 0 544 +17 523 0 502 503 517 509 526 524 0 0 +16 524
 23 0 ?523 520 535 525 0 0 491 30 525 24 0 524 536 521 0 +-0.002294 0.0016000000
00000001 1.180000000933212e-009 -1.224646799147353e-016 -1 0 17 526 0 552 559 55
3 518 523 524 0 0 -14 527 25 529 1e-008 548 500 531 499 528 -0 0 548 500 497 50
 528 26 0 527 549 501 0 +-0.002514 0.001600000000000001 0.0002200011800000011 1
 -1.224646799147353e-016 -1.83697019872103e-016 -1.83697019872103e-016 2.2496396
73992786e-032 -1 81 1 529 27 6 527 0 0 550 494 530 83 3 530 0.7529411911964417 0
.7529411911964417 0.7529411911964417 15 531 28 0 532 527 0 17 532 0 531 538 516
 533 537 535 0 0 +18 533 29 0 579 518 539 534 ?491 29 534 30 0 533 540 519 -0.00
2514 0.0007000000000000004 0.0008000011800000011 16 535 31 0 ?532 524 541 536 0
 0 491 30 536 32 0 535 542 525 0 +-0.002514 0.0007000000000000004 0.000220001180
0000011 1.83697019872103e-016 -2.249639673992786e-032 1 17 537 0 712 508 579 504
 532 535 0 0 -17 538 0 531 544 532 539 543 541 0 547 -18 539 33 0 586 533 557 54
0 ?491 29 540 34 0 539 558 534 -0.002514 0.001600000000000001 0.0008000011800000
011 16 541 35 0 ?543 535 545 542 0 0 491 30 542 36 0 541 546 536 0 +-0.002514 0.
001600000000000001 0.0008000011800000011 -1.224646799147353e-016 -1 0 17 543 0 5
73 574 586 533 538 541 0 532 +17 544 0 531 516 538 512 547 545 0 0 -16 545 37 0
 ?547 541 554 546 0 0 491 30 546 38 0 545 555 542 0 +-0.002514 0.001600000000000
001 0.0002200011800000011 1.83697019872103e-016 -2.249639673992786e-032 1 17 547
 0 717 589 522 539 544 545 0 0 +14 548 39 550 1e-008 569 527 552 499 549 -0 0 56
9 527 497 50 549 40 0 548 570 528 0 +-0.001734 0.0016 1.18000000082219e-009 1.83
697019872103e-016 -2.249639673992786e-032 1 -1.224646799147353e-016 -1 -0 81 1 5
50 41 6 548 0 0 571 529 551 83 3 551 0.7529411911964417 0.7529411911964417 0.752
9411911964417 15 552 42 0 553 548 0 17 553 0 552 526 565 509 556 554 0 523 +16 5
54 43 0 ?553 545 562 555 0 0 491 30 555 44 0 554 563 546 0 +-0.001734 0.00070000
00000000004 1.18000000082219e-009 -1 1.224646799147353e-016 1.83697019872103e-01
6 17 556 0 712 703 508 557 553 554 0 565 -18 557 45 0 556 539 560 558 ?491 29 55
8 46 0 557 561 540 -0.001734 0.0007000000000000004 1.18000000082219e-009 17 559
 0 552 565 526 560 564 562 0 707 -18 560 47 0 568 557 575 561 ?491 29 561 48 0 5
60 576 558 -0.001734 0.0016 1.18000000082219e-009 16 562 49 0 ?564 554 566 563 0
 0 491 30 563 50 0 562 567 555 0 +-0.001734 0.0016 1.18000000082219e-009 -1 1.22
4646799147353e-016 1.83697019872103e-016 17 564 0 717 522 707 518 559 562 0 526
 +17 565 0 552 553 559 557 568 566 0 700 +16 566 51 0 ?565 562 577 567 0 0 491 3
0 567 52 0 566 578 563 0 +-0.001734 0.0016 1.18000000082219e-009 -1.224646799147
353e-016 -1 0 17 568 0 699 704 700 560 565 566 0 559 -14 569 53 571 1e-008 590 5
48 573 499 570 -0 0 590 548 497 50 570 54 0 569 591 549 0 +-0.002514 0.001600000
000000001 0.0008000011800000011 -1.83697019872103e-016 2.249639673992786e-032 -1
 1.224646799147353e-016 1 0 81 1 571 55 6 569 0 0 592 550 572 83 3 572 0.7529411
911964417 0.7529411911964417 0.7529411911964417 15 573 56 0 574 569 0 17 574 0 5
73 580 543 575 579 577 0 600 +18 575 57 0 585 560 581 576 ?491 29 576 58 0 575 5
82 561 -0.002404 0.0007000000000000004 0.000800001180000001 16 577 59 0 ?574 566
 583 578 0 0 491 30 578 60 0 577 584 567 0 +-0.002514 0.0007000000000000004 0.00
08000011800000011 1 -1.224646799147353e-016 -1.83697019872103e-016 17 579 0 712
 537 600 533 574 577 0 543 -17 580 0 573 586 574 581 585 583 0 589 -18 581 61 0
 607 575 596 582 ?491 29 582 62 0 581 597 576 -0.002404 0.001600000000000001 0.0
00800001180000001 16 583 63 0 ?585 577 587 584 0 0 491 30 584 64 0 583 588 578 0
 +-0.002404 0.001600000000000001 0.000800001180000001 -1.224646799147353e-016 -1
 0 17 585 0 594 595 607 575 580 583 0 574 +17 586 0 573 543 580 539 589 587 0 53
8 -16 587 65 0 ?589 583 598 588 0 0 491 30 588 66 0 587 599 584 0 +-0.002514 0.0
01600000000000001 0.0008000011800000011 1 -1.224646799147353e-016 -1.83697019872
103e-016 17 589 0 717 610 547 581 586 587 0 0 +14 590 67 592 1e-008 611 569 594
 499 591 -0 0 611 569 497 50 591 68 0 590 612 570 0 +-0.002404 0.001600000000000
001 0.000800001180000001 -1 1.224646799147353e-016 1.83697019872103e-016 1.83697
019872103e-016 -2.249639673992786e-032 1 81 1 592 69 6 590 0 0 613 571 593 83 3
 593 0.7529411911964417 0.7529411911964417 0.7529411911964417 15 594 70 0 595 59
0 0 17 595 0 594 601 585 596 600 598 0 621 +18 596 71 0 595 581 602 597 ?491 29
 597 72 0 596 603 582 -0.002404 0.0007000000000000004 0.000210001180000001 16 59
8 73 0 ?595 587 604 599 0 0 491 30 599 74 0 598 605 588 0 +-0.002404 0.000700000
0000000004 0.000800001180000001 -1.83697019872103e-016 2.249639673992786e-032 -1
 17 600 0 712 579 621 575 595 598 0 0 -17 601 0 594 607 595 602 606 604 0 0 -18
 602 75 0 610 596 617 603 ?491 29 603 76 0 602 618 597 -0.002404 0.0016000000000
00001 0.000210001180000001 16 604 77 0 ?606 598 608 605 0 0 491 30 605 78 0 604
 609 599 0 +-0.002404 0.001600000000000001 0.000210001180000001 -1.2246467991473
53e-016 -1 0 17 606 0 615 616 628 596 601 604 0 0 +17 607 0 594 585 601 581 610
 608 0 580 -16 608 79 0 ?610 604 619 609 0 0 491 30 609 80 0 608 620 605 0 +-0.0
02404 0.001600000000000001 0.000800001180000001 -1.83697019872103e-016 2.2496396
73992786e-032 -1 17 610 0 717 631 589 602 607 608 0 628 +14 611 81 613 1e-008 63
2 590 615 499 612 -0 0 632 590 497 51 612 82 0 611 633 591 0 +-0.002304000000000
001 0.001600000000000001 0.000210001180000001 1.224646799147353e-016 1 0 0.0001
 -1.83697019872103e-016 2.249639673992786e-032 -1 81 1 613 83 6 611 0 0 634 592
 614 83 3 614 0.7529411911964417 0.7529411911964417 0.7529411911964417 15 615 84
 0 616 611 0 17 616 0 615 622 606 617 621 619 0 642 -18 617 85 0 627 602 623 618
 ?491 29 618 86 0 617 624 603 -0.002304 0.0007000000000000004 0.0001100011800000
01 16 619 87 0 ?621 608 625 620 0 0 491 31 620 88 0 619 626 609 0 +-0.0023040000
00000001 0.0007000000000000004 0.000210001180000001 1.224646799147353e-016 1 0 1
.83697019872103e-016 -2.249639673992786e-032 1 0.0001 17 621 0 712 600 642 596 6
16 619 0 606 +17 622 0 615 628 616 623 627 625 0 649 -18 623 89 0 631 617 638 62
4 ?491 29 624 90 0 623 639 618 -0.002304 0.001600000000000001 0.0001100011800000
01 16 625 91 0 ?627 619 629 626 0 0 491 30 626 92 0 625 630 620 0 +-0.002304 0.0
01600000000000001 0.000110001180000001 -1.224646799147353e-016 -1 0 17 627 0 636
 637 649 617 622 625 0 616 +17 628 0 615 606 622 602 631 629 0 601 +16 629 93 0
 ?628 625 640 630 0 0 491 31 630 94 0 629 641 626 0 +-0.002304000000000001 0.001
600000000000001 0.000210001180000001 1.224646799147353e-016 1 0 1.83697019872103
e-016 -2.249639673992786e-032 1 0.0001 17 631 0 717 652 610 623 628 629 0 622 -1
4 632 95 634 1e-008 653 611 636 499 633 -0 0 653 611 497 50 633 96 0 632 654 612
 0 +-0.002304000000000001 0.001600000000000001 0.000110001180000001 -1.836970198
72103e-016 2.249639673992786e-032 -1 1.224646799147353e-016 1 0 81 1 634 97 6 63
2 0 0 655 613 635 83 3 635 0.7529411911964417 0.7529411911964417 0.7529411911964
417 15 636 98 0 637 632 0 17 637 0 636 643 627 638 642 640 0 0 +18 638 99 0 663
 623 644 639 ?491 29 639 100 0 638 645 624 -0.001724 0.0007000000000000004 0.000
1100011800000009 16 640 101 0 ?637 629 646 641 0 0 491 30 641 102 0 640 647 630
 0 +-0.002304 0.0007000000000000004 0.000110001180000001 1 -1.224646799147353e-0
16 -1.83697019872103e-016 17 642 0 712 621 663 617 637 640 0 0 -17 643 0 636 649
 637 644 648 646 0 652 -18 644 103 0 670 638 659 645 ?491 29 645 104 0 644 660 6
39 -0.001724 0.0016 0.0001100011800000009 16 646 105 0 ?648 640 650 647 0 0 491
 30 647 106 0 646 651 641 0 +-0.001724 0.0016 0.0001100011800000009 -1.224646799
147353e-016 -1 0 17 648 0 657 658 670 638 643 646 0 637 +17 649 0 636 627 643 62
3 652 650 0 0 -16 650 107 0 ?652 646 661 651 0 0 491 30 651 108 0 650 662 647 0
 +-0.002304 0.001600000000000001 0.000110001180000001 1 -1.224646799147353e-016
 -1.83697019872103e-016 17 652 0 717 673 631 644 649 650 0 0 +14 653 109 655 1e-
008 674 632 657 499 654 -0 0 674 632 497 51 654 110 0 653 675 633 0 +-0.001724 0
.0016 0.0002100011800000009 1.224646799147353e-016 1 0 0.0001 -1.83697019872103e
-016 2.249639673992786e-032 -1 81 1 655 111 6 653 0 0 676 634 656 83 3 656 0.752
9411911964417 0.7529411911964417 0.7529411911964417 15 657 112 0 658 653 0 17 65
8 0 657 664 648 659 663 661 0 684 -18 659 113 0 669 644 665 660 ?491 29 660 114
 0 659 666 645 -0.001624501256289338 0.0007000000000000004 0.0002000011800000009
 16 661 115 0 ?663 650 667 662 0 0 491 31 662 116 0 661 668 651 0 +-0.001724 0.0
007000000000000004 0.0002100011800000009 1.224646799147353e-016 1 0 1.8369701987
2103e-016 -2.249639673992786e-032 1 0.0001 17 663 0 712 642 684 638 658 661 0 64
8 +17 664 0 657 670 658 665 669 667 0 691 -18 665 117 0 673 659 680 666 ?491 29
 666 118 0 665 681 660 -0.001624501256289338 0.0016 0.0002000011800000009 16 667
 119 0 ?669 661 671 668 0 0 491 30 668 120 0 667 672 662 0 +-0.00162450125628933
8 0.0016 0.0002000011800000009 -1.224646799147353e-016 -1 0 17 669 0 678 679 691
 659 664 667 0 658 +17 670 0 657 648 664 644 673 671 0 643 +16 671 121 0 ?670 66
7 682 672 0 0 491 31 672 122 0 671 683 668 0 +-0.001724 0.0016 0.000210001180000
0009 1.224646799147353e-016 1 0 1.83697019872103e-016 -2.249639673992786e-032 1
 0.0001 17 673 0 717 694 652 665 670 671 0 664 -14 674 123 676 1e-008 695 653 67
8 499 675 -0 0 695 653 497 50 675 124 0 674 696 654 0 +-0.001624501256289338 0.0
016 0.0002000011800000009 -1.83697019872103e-016 2.249639673992786e-032 -1 1.224
646799147353e-016 1 0 81 1 676 125 6 674 0 0 697 655 677 83 3 677 0.752941191196
4417 0.7529411911964417 0.7529411911964417 15 678 126 0 679 674 0 17 679 0 678 6
85 669 680 684 682 0 703 +18 680 127 0 690 665 686 681 ?491 29 681 128 0 680 687
 666 -0.001514910976997934 0.0007000000000000004 0.0002000011800000009 16 682 12
9 0 ?679 671 688 683 0 0 491 30 683 130 0 682 689 672 0 +-0.001624501256289338 0
.0007000000000000004 0.0002000011800000009 1 -1.224646799147353e-016 -1.83697019
872103e-016 17 684 0 712 663 703 659 679 682 0 0 -17 685 0 678 691 679 686 690 6
88 0 704 -18 686 131 0 685 680 0 687 ?491 29 687 132 0 686 0 681 -0.001514910976
997934 0.0016 0.0002000011800000009 16 688 133 0 ?690 682 692 689 0 0 491 30 689
 134 0 688 693 683 0 +-0.001514910976997934 0.0016 0.0002000011800000009 -1.2246
46799147353e-016 -1 0 17 690 0 699 700 704 680 685 688 0 679 +17 691 0 678 669 6
85 665 694 692 0 0 -16 692 135 0 ?694 688 701 693 0 0 491 30 693 136 0 692 702 6
89 0 +-0.001624501256289338 0.0016 0.0002000011800000009 1 -1.224646799147353e-0
16 -1.83697019872103e-016 17 694 0 717 707 673 686 691 692 0 0 +14 695 137 697 1
e-008 708 674 699 499 696 +0 0 708 674 497 51 696 138 0 695 709 675 0 +-0.001734
 0.0016 0.0002200011800000009 1.224646799147353e-016 1 0 0.00022 -1.836970198721
03e-016 2.249639673992786e-032 -1 81 1 697 139 6 695 0 0 710 676 698 83 3 698 0.
7529411911964417 0.7529411911964417 0.7529411911964417 15 699 140 0 700 695 0 17
 700 0 699 568 690 557 703 701 0 0 +16 701 141 0 ?700 692 705 702 0 0 491 31 702
 142 0 701 706 693 0 +-0.001734 0.0007000000000000004 0.0002200011800000009 1.22
4646799147353e-016 1 0 1.83697019872103e-016 -2.249639673992786e-032 1 0.00022 1
7 703 0 712 684 556 680 700 701 0 0 -17 704 0 699 690 568 686 707 705 0 694 -16
 705 143 0 ?707 701 0 706 0 0 491 31 706 144 0 705 0 702 0 +-0.001734 0.0016 0.0
002200011800000009 1.224646799147353e-016 1 0 1.83697019872103e-016 -2.249639673
992786e-032 1 0.00022 17 707 0 717 564 694 560 704 705 0 0 +14 708 145 710 1e-00
8 713 695 712 499 709 -0 0 713 695 497 50 709 146 0 708 714 696 0 +-0.0022940000
00000001 0.0007000000000000004 0.000220001180000001 1.224646799147353e-016 1 0 1
.83697019872103e-016 -2.249639673992786e-032 1 81 1 710 147 6 708 0 0 715 697 71
1 83 3 711 0.7529411911964417 0.7529411911964417 0.7529411911964417 15 712 148 0
 556 708 0 14 713 149 715 1e-008 0 708 717 499 714 +0 0 0 708 497 50 714 150 0 7
13 0 709 0 +-0.002294000000000001 0.001600000000000001 0.000220001180000001 1.22
4646799147353e-016 1 0 1.83697019872103e-016 -2.249639673992786e-032 1 81 1 715
 151 6 713 0 0 0 710 716 83 3 716 0.7529411911964417 0.7529411911964417 0.752941
1911964417 15 717 152 0 564 713 0 12 718 152 0 719 0 0 0 0 1000 1e-008 0 0 0 1 0
 1 1 726 728 734 732 723 733 731 70 719 0 718 0 0 4 1 20 0 720 720 1 T74 20 720
 1 0 721 0 0 0 0 0 0 0 0 0 0 0 0 0 0 0 0 0 0 0 81 1 721 7 6 727 0 0 756 0 722 83
 3 722 0.7529411911964417 0.7529411911964417 0.7529411911964417 19 723 1 0 718 7
25 0 724 V13 724 2 0 718 0 0 0 0 723 727 19 725 3 0 718 0 723 726 S13 726 4 0 71
8 0 727 0 0 725 0 14 727 5 721 1e-008 754 0 729 726 728 +0 0 754 0 724 51 728 6
 0 727 755 0 0 +-0.002294000000000001 -0.0006999999999999993 0.00022000118000000
1 1.224646799147353e-016 1 0 0.00022 -1.83697019872103e-016 2.249639673992786e-0
32 -1 15 729 8 0 730 727 0 17 730 0 729 738 750 731 735 733 0 743 +18 731 9 0 73
0 0 736 732 ?718 29 732 10 0 731 737 0 -0.002514 -0.001599999999999999 0.0002200
011800000011 16 733 11 0 ?730 0 741 734 0 0 718 31 734 12 0 733 742 0 0 +-0.0022
94000000000001 -0.001599999999999999 0.000220001180000001 1.224646799147353e-016
 1 0 1.83697019872103e-016 -2.249639673992786e-032 1 0.00022 17 735 0 939 783 76
4 736 730 733 0 780 -18 736 13 0 735 731 739 737 ?718 29 737 14 0 736 740 732 -0
.002294000000000001 -0.001599999999999999 1.180000000933212e-009 17 738 0 729 74
4 730 739 743 741 0 749 -18 739 15 0 738 736 745 740 ?718 29 740 16 0 739 746 73
7 -0.002514 -0.0006999999999999993 0.0002200011800000011 16 741 17 0 ?743 733 74
7 742 0 0 718 30 742 18 0 741 748 734 0 +-0.002514 -0.0006999999999999993 0.0002
200011800000011 -1.224646799147353e-016 -1 0 17 743 0 758 759 771 731 738 741 0
 764 +17 744 0 729 750 738 745 749 747 0 0 -18 745 19 0 753 739 760 746 ?718 29
 746 20 0 745 761 740 -0.002294000000000001 -0.0006999999999999993 1.18000000093
3212e-009 16 747 21 0 ?749 741 751 748 0 0 718 31 748 22 0 747 752 742 0 +-0.002
294000000000001 -0.0006999999999999993 0.000220001180000001 1.224646799147353e-0
16 1 0 1.83697019872103e-016 -2.249639673992786e-032 1 0.00022 17 749 0 944 774
 791 739 744 747 0 771 +17 750 0 729 730 744 736 753 751 0 0 +16 751 23 0 ?750 7
47 762 752 0 0 718 30 752 24 0 751 763 748 0 +-0.002294000000000001 -0.000699999
9999999993 1.180000000933212e-009 -1.224646799147353e-016 -1 0 17 753 0 779 786
 780 745 750 751 0 791 -14 754 25 756 1e-008 775 727 758 726 755 -0 0 775 727 72
4 50 755 26 0 754 776 728 0 +-0.002514 -0.0006999999999999993 0.0002200011800000
011 1 -1.224646799147353e-016 -1.83697019872103e-016 -1.83697019872103e-016 2.24
9639673992786e-032 -1 81 1 756 27 6 754 0 0 777 721 757 83 3 757 0.7529411911964
417 0.7529411911964417 0.7529411911964417 15 758 28 0 759 754 0 17 759 0 758 765
 743 760 764 762 0 0 +18 760 29 0 806 745 766 761 ?718 29 761 30 0 760 767 746 -
0.002514 -0.001599999999999999 0.0008000011800000011 16 762 31 0 ?759 751 768 76
3 0 0 718 30 763 32 0 762 769 752 0 +-0.002514 -0.001599999999999999 0.000220001
1800000011 1.83697019872103e-016 -2.249639673992786e-032 1 17 764 0 939 735 806
 731 759 762 0 0 -17 765 0 758 771 759 766 770 768 0 774 -18 766 33 0 813 760 78
4 767 ?718 29 767 34 0 766 785 761 -0.002514 -0.0006999999999999993 0.0008000011
800000011 16 768 35 0 ?770 762 772 769 0 0 718 30 769 36 0 768 773 763 0 +-0.002
514 -0.0006999999999999993 0.0008000011800000011 -1.224646799147353e-016 -1 0 17
 770 0 800 801 813 760 765 768 0 759 +17 771 0 758 743 765 739 774 772 0 0 -16 7
72 37 0 ?774 768 781 773 0 0 718 30 773 38 0 772 782 769 0 +-0.002514 -0.0006999
999999999993 0.0002200011800000011 1.83697019872103e-016 -2.249639673992786e-032
 1 17 774 0 944 816 749 766 771 772 0 0 +14 775 39 777 1e-008 796 754 779 726 77
6 -0 0 796 754 724 50 776 40 0 775 797 755 0 +-0.001734000000000001 -0.000699999
9999999996 1.18000000082219e-009 1.83697019872103e-016 -2.249639673992786e-032 1
 -1.224646799147353e-016 -1 -0 81 1 777 41 6 775 0 0 798 756 778 83 3 778 0.7529
411911964417 0.7529411911964417 0.7529411911964417 15 779 42 0 780 775 0 17 780
 0 779 753 792 736 783 781 0 750 +16 781 43 0 ?780 772 789 782 0 0 718 30 782 44
 0 781 790 773 0 +-0.001734000000000001 -0.001599999999999999 1.18000000082219e-
009 -1 1.224646799147353e-016 1.83697019872103e-016 17 783 0 939 930 735 784 780
 781 0 792 -18 784 45 0 783 766 787 785 ?718 29 785 46 0 784 788 767 -0.00173400
0000000001 -0.001599999999999999 1.18000000082219e-009 17 786 0 779 792 753 787
 791 789 0 934 -18 787 47 0 795 784 802 788 ?718 29 788 48 0 787 803 785 -0.0017
34000000000001 -0.0006999999999999996 1.18000000082219e-009 16 789 49 0 ?791 781
 793 790 0 0 718 30 790 50 0 789 794 782 0 +-0.001734000000000001 -0.00069999999
99999996 1.18000000082219e-009 -1 1.224646799147353e-016 1.83697019872103e-016 1
7 791 0 944 749 934 745 786 789 0 744 +17 792 0 779 780 786 784 795 793 0 927 +1
6 793 51 0 ?792 789 804 794 0 0 718 30 794 52 0 793 805 790 0 +-0.00173400000000
0001 -0.0006999999999999996 1.18000000082219e-009 -1.224646799147353e-016 -1 0 1
7 795 0 926 931 927 787 792 793 0 786 -14 796 53 798 1e-008 817 775 800 726 797
 -0 0 817 775 724 50 797 54 0 796 818 776 0 +-0.002514 -0.0006999999999999993 0.
0008000011800000011 -1.83697019872103e-016 2.249639673992786e-032 -1 1.224646799
147353e-016 1 0 81 1 798 55 6 796 0 0 819 777 799 83 3 799 0.7529411911964417 0.
7529411911964417 0.7529411911964417 15 800 56 0 801 796 0 17 801 0 800 807 770 8
02 806 804 0 827 +18 802 57 0 812 787 808 803 ?718 29 803 58 0 802 809 788 -0.00
2404 -0.001599999999999999 0.000800001180000001 16 804 59 0 ?801 793 810 805 0 0
 718 30 805 60 0 804 811 794 0 +-0.002514 -0.001599999999999999 0.00080000118000
00011 1 -1.224646799147353e-016 -1.83697019872103e-016 17 806 0 939 764 827 760
 801 804 0 770 -17 807 0 800 813 801 808 812 810 0 816 -18 808 61 0 834 802 823
 809 ?718 29 809 62 0 808 824 803 -0.002404 -0.0006999999999999993 0.00080000118
0000001 16 810 63 0 ?812 804 814 811 0 0 718 30 811 64 0 810 815 805 0 +-0.00240
4 -0.0006999999999999993 0.000800001180000001 -1.224646799147353e-016 -1 0 17 81
2 0 821 822 834 802 807 810 0 801 +17 813 0 800 770 807 766 816 814 0 765 -16 81
4 65 0 ?816 810 825 815 0 0 718 30 815 66 0 814 826 811 0 +-0.002514 -0.00069999
99999999993 0.0008000011800000011 1 -1.224646799147353e-016 -1.83697019872103e-0
16 17 816 0 944 837 774 808 813 814 0 0 +14 817 67 819 1e-008 838 796 821 726 81
8 -0 0 838 796 724 50 818 68 0 817 839 797 0 +-0.002404 -0.0006999999999999993 0
.000800001180000001 -1 1.224646799147353e-016 1.83697019872103e-016 1.8369701987
2103e-016 -2.249639673992786e-032 1 81 1 819 69 6 817 0 0 840 798 820 83 3 820 0
.7529411911964417 0.7529411911964417 0.7529411911964417 15 821 70 0 822 817 0 17
 822 0 821 828 812 823 827 825 0 833 +18 823 71 0 848 808 829 824 ?718 29 824 72
 0 823 830 809 -0.002404 -0.001599999999999999 0.000210001180000001 16 825 73 0
 ?822 814 831 826 0 0 718 30 826 74 0 825 832 815 0 +-0.002404 -0.00159999999999
9999 0.000800001180000001 -1.83697019872103e-016 2.249639673992786e-032 -1 17 82
7 0 939 806 848 802 822 825 0 0 -17 828 0 821 834 822 829 833 831 0 0 -18 829 75
 0 837 823 844 830 ?718 29 830 76 0 829 845 824 -0.002404 -0.0006999999999999993
 0.000210001180000001 16 831 77 0 ?833 825 835 832 0 0 718 30 832 78 0 831 836 8
26 0 +-0.002404 -0.0006999999999999993 0.000210001180000001 -1.224646799147353e-
016 -1 0 17 833 0 842 843 855 823 828 831 0 0 +17 834 0 821 812 828 808 837 835
 0 807 -16 835 79 0 ?837 831 846 836 0 0 718 30 836 80 0 835 847 832 0 +-0.00240
4 -0.0006999999999999993 0.000800001180000001 -1.83697019872103e-016 2.249639673
992786e-032 -1 17 837 0 944 858 816 829 834 835 0 855 +14 838 81 840 1e-008 859
 817 842 726 839 -0 0 859 817 724 51 839 82 0 838 860 818 0 +-0.0023040000000000
01 -0.0006999999999999993 0.000210001180000001 1.224646799147353e-016 1 0 0.0001
 -1.83697019872103e-016 2.249639673992786e-032 -1 81 1 840 83 6 838 0 0 861 819
 841 83 3 841 0.7529411911964417 0.7529411911964417 0.7529411911964417 15 842 84
 0 843 838 0 17 843 0 842 849 833 844 848 846 0 854 -18 844 85 0 843 829 850 845
 ?718 29 845 86 0 844 851 830 -0.002304 -0.001599999999999999 0.0001100011800000
01 16 846 87 0 ?848 835 852 847 0 0 718 31 847 88 0 846 853 836 0 +-0.0023040000
00000001 -0.001599999999999999 0.000210001180000001 1.224646799147353e-016 1 0 1
.83697019872103e-016 -2.249639673992786e-032 1 0.0001 17 848 0 939 827 869 823 8
43 846 0 822 +17 849 0 842 855 843 850 854 852 0 0 -18 850 89 0 858 844 865 851
 ?718 29 851 90 0 850 866 845 -0.002304 -0.0006999999999999993 0.000110001180000
001 16 852 91 0 ?854 846 856 853 0 0 718 30 853 92 0 852 857 847 0 +-0.002304 -0
.0006999999999999993 0.000110001180000001 -1.224646799147353e-016 -1 0 17 854 0
 863 864 876 844 849 852 0 869 +17 855 0 842 833 849 829 858 856 0 828 +16 856 9
3 0 ?855 852 867 857 0 0 718 31 857 94 0 856 868 853 0 +-0.002304000000000001 -0
.0006999999999999993 0.000210001180000001 1.224646799147353e-016 1 0 1.836970198
72103e-016 -2.249639673992786e-032 1 0.0001 17 858 0 944 879 837 850 855 856 0 8
76 -14 859 95 861 1e-008 880 838 863 726 860 -0 0 880 838 724 50 860 96 0 859 88
1 839 0 +-0.002304000000000001 -0.0006999999999999993 0.000110001180000001 -1.83
697019872103e-016 2.249639673992786e-032 -1 1.224646799147353e-016 1 0 81 1 861
 97 6 859 0 0 882 840 862 83 3 862 0.7529411911964417 0.7529411911964417 0.75294
11911964417 15 863 98 0 864 859 0 17 864 0 863 870 854 865 869 867 0 0 +18 865 9
9 0 890 850 871 866 ?718 29 866 100 0 865 872 851 -0.001724000000000001 -0.00159
9999999999999 0.0001100011800000009 16 867 101 0 ?864 856 873 868 0 0 718 30 868
 102 0 867 874 857 0 +-0.002304 -0.001599999999999999 0.000110001180000001 1 -1.
224646799147353e-016 -1.83697019872103e-016 17 869 0 939 848 890 844 864 867 0 0
 -17 870 0 863 876 864 871 875 873 0 879 -18 871 103 0 897 865 886 872 ?718 29 8
72 104 0 871 887 866 -0.001724000000000001 -0.0006999999999999996 0.000110001180
0000009 16 873 105 0 ?875 867 877 874 0 0 718 30 874 106 0 873 878 868 0 +-0.001
724000000000001 -0.0006999999999999996 0.0001100011800000009 -1.224646799147353e
-016 -1 0 17 875 0 884 885 897 865 870 873 0 864 +17 876 0 863 854 870 850 879 8
77 0 849 -16 877 107 0 ?879 873 888 878 0 0 718 30 878 108 0 877 889 874 0 +-0.0
02304 -0.0006999999999999993 0.000110001180000001 1 -1.224646799147353e-016 -1.8
3697019872103e-016 17 879 0 944 900 858 871 876 877 0 0 +14 880 109 882 1e-008 9
01 859 884 726 881 -0 0 901 859 724 51 881 110 0 880 902 860 0 +-0.0017240000000
00001 -0.0006999999999999996 0.0002100011800000009 1.224646799147353e-016 1 0 0.
0001 -1.83697019872103e-016 2.249639673992786e-032 -1 81 1 882 111 6 880 0 0 903
 861 883 83 3 883 0.7529411911964417 0.7529411911964417 0.7529411911964417 15 88
4 112 0 885 880 0 17 885 0 884 891 875 886 890 888 0 896 -18 886 113 0 911 871 8
92 887 ?718 29 887 114 0 886 893 872 -0.001624501256289339 -0.001599999999999999
 0.0002000011800000009 16 888 115 0 ?890 877 894 889 0 0 718 31 889 116 0 888 89
5 878 0 +-0.001724000000000001 -0.001599999999999999 0.0002100011800000009 1.224
646799147353e-016 1 0 1.83697019872103e-016 -2.249639673992786e-032 1 0.0001 17
 890 0 939 869 911 865 885 888 0 875 +17 891 0 884 897 885 892 896 894 0 918 -18
 892 117 0 900 886 907 893 ?718 29 893 118 0 892 908 887 -0.001624501256289339 -
0.0006999999999999996 0.0002000011800000009 16 894 119 0 ?896 888 898 895 0 0 71
8 30 895 120 0 894 899 889 0 +-0.001624501256289339 -0.0006999999999999996 0.000
2000011800000009 -1.224646799147353e-016 -1 0 17 896 0 905 906 918 886 891 894 0
 0 +17 897 0 884 875 891 871 900 898 0 870 +16 898 121 0 ?897 894 909 899 0 0 71
8 31 899 122 0 898 910 895 0 +-0.001724000000000001 -0.0006999999999999996 0.000
2100011800000009 1.224646799147353e-016 1 0 1.83697019872103e-016 -2.24963967399
2786e-032 1 0.0001 17 900 0 944 921 879 892 897 898 0 891 -14 901 123 903 1e-008
 922 880 905 726 902 -0 0 922 880 724 50 902 124 0 901 923 881 0 +-0.00162450125
6289339 -0.0006999999999999996 0.0002000011800000009 -1.83697019872103e-016 2.24
9639673992786e-032 -1 1.224646799147353e-016 1 0 81 1 903 125 6 901 0 0 924 882
 904 83 3 904 0.7529411911964417 0.7529411911964417 0.7529411911964417 15 905 12
6 0 906 901 0 17 906 0 905 912 896 907 911 909 0 930 +18 907 127 0 917 892 913 9
08 ?718 29 908 128 0 907 914 893 -0.001514910976997934 -0.001599999999999999 0.0
002000011800000009 16 909 129 0 ?906 898 915 910 0 0 718 30 910 130 0 909 916 89
9 0 +-0.001624501256289339 -0.001599999999999999 0.0002000011800000009 1 -1.2246
46799147353e-016 -1.83697019872103e-016 17 911 0 939 890 930 886 906 909 0 885 -
17 912 0 905 918 906 913 917 915 0 921 -18 913 131 0 912 907 0 914 ?718 29 914 1
32 0 913 0 908 -0.001514910976997934 -0.0006999999999999996 0.000200001180000000
9 16 915 133 0 ?917 909 919 916 0 0 718 30 916 134 0 915 920 910 0 +-0.001514910
976997934 -0.0006999999999999996 0.0002000011800000009 -1.224646799147353e-016 -
1 0 17 917 0 926 927 931 907 912 915 0 906 +17 918 0 905 896 912 892 921 919 0 0
 -16 919 135 0 ?921 915 928 920 0 0 718 30 920 136 0 919 929 916 0 +-0.001624501
256289339 -0.0006999999999999996 0.0002000011800000009 1 -1.224646799147353e-016
 -1.83697019872103e-016 17 921 0 944 934 900 913 918 919 0 931 +14 922 137 924 1
e-008 935 901 926 726 923 +0 0 935 901 724 51 923 138 0 922 936 902 0 +-0.001734
000000000001 -0.0006999999999999996 0.0002200011800000009 1.224646799147353e-016
 1 0 0.00022 -1.83697019872103e-016 2.249639673992786e-032 -1 81 1 924 139 6 922
 0 0 937 903 925 83 3 925 0.7529411911964417 0.7529411911964417 0.75294119119644
17 15 926 140 0 927 922 0 17 927 0 926 795 917 784 930 928 0 0 +16 928 141 0 ?92
7 919 932 929 0 0 718 31 929 142 0 928 933 920 0 +-0.001734000000000001 -0.00159
9999999999999 0.0002200011800000009 1.224646799147353e-016 1 0 1.83697019872103e
-016 -2.249639673992786e-032 1 0.00022 17 930 0 939 911 783 907 927 928 0 0 -17
 931 0 926 917 795 913 934 932 0 0 -16 932 143 0 ?934 928 0 933 0 0 718 31 933 1
44 0 932 0 929 0 +-0.001734000000000001 -0.0006999999999999996 0.000220001180000
0009 1.224646799147353e-016 1 0 1.83697019872103e-016 -2.249639673992786e-032 1
 0.00022 17 934 0 944 791 921 787 931 932 0 0 +14 935 145 937 1e-008 940 922 939
 726 936 -0 0 940 922 724 50 936 146 0 935 941 923 0 +-0.002294000000000001 -0.0
01599999999999999 0.000220001180000001 1.224646799147353e-016 1 0 1.836970198721
03e-016 -2.249639673992786e-032 1 81 1 937 147 6 935 0 0 942 924 938 83 3 938 0.
7529411911964417 0.7529411911964417 0.7529411911964417 15 939 148 0 783 935 0 14
 940 149 942 1e-008 0 935 944 726 941 +0 0 0 935 724 50 941 150 0 940 0 936 0 +-
0.002294000000000001 -0.0006999999999999993 0.000220001180000001 1.2246467991473
53e-016 1 0 1.83697019872103e-016 -2.249639673992786e-032 1 81 1 942 151 6 940 0
 0 0 937 943 83 3 943 0.7529411911964417 0.7529411911964417 0.7529411911964417 1
5 944 152 0 791 940 0 1 0 
