%TF.GenerationSoftware,Altium Limited,Altium Designer,23.10.1 (27)*%
G04 Layer_Color=255*
%FSLAX45Y45*%
%MOMM*%
%TF.SameCoordinates,7A70C931-5BDF-4ABD-901A-901AFED5F3BC*%
%TF.FilePolarity,Positive*%
%TF.FileFunction,Pads,Top*%
%TF.Part,Single*%
G01*
G75*
%TA.AperFunction,ComponentPad*%
%ADD10C,1.60000*%
%ADD11R,1.60000X1.60000*%
D10*
X889000Y4976500D02*
D03*
Y4722500D02*
D03*
Y4468500D02*
D03*
Y4214500D02*
D03*
Y3960500D02*
D03*
Y3706500D02*
D03*
Y3452500D02*
D03*
Y3198500D02*
D03*
Y2944500D02*
D03*
Y2690500D02*
D03*
Y2436500D02*
D03*
Y2182500D02*
D03*
Y1928500D02*
D03*
Y1674500D02*
D03*
Y1420500D02*
D03*
Y1166500D02*
D03*
Y912500D02*
D03*
Y658500D02*
D03*
Y404500D02*
D03*
X-889000Y150500D02*
D03*
Y404500D02*
D03*
Y658500D02*
D03*
Y912500D02*
D03*
Y1166500D02*
D03*
Y1420500D02*
D03*
Y1674500D02*
D03*
Y1928500D02*
D03*
Y2182500D02*
D03*
Y2436500D02*
D03*
Y2690500D02*
D03*
Y2944500D02*
D03*
Y3198500D02*
D03*
Y3452500D02*
D03*
Y3706500D02*
D03*
Y3960500D02*
D03*
Y4214500D02*
D03*
Y4468500D02*
D03*
Y4722500D02*
D03*
D11*
X889000Y150500D02*
D03*
X-889000Y4976500D02*
D03*
%TF.MD5,29edf23250f33cb938612e685376344b*%
M02*
