%TF.GenerationSoftware,Altium Limited,Altium Designer,23.10.1 (27)*%
G04 Layer_Color=32896*
%FSLAX45Y45*%
%MOMM*%
%TF.SameCoordinates,7A70C931-5BDF-4ABD-901A-901AFED5F3BC*%
%TF.FilePolarity,Positive*%
%TF.FileFunction,Legend,Bot*%
%TF.Part,Single*%
G01*
G75*
%TA.AperFunction,NonConductor*%
%ADD29C,0.20000*%
%ADD30C,0.16000*%
%ADD31C,0.25000*%
%ADD32C,0.50800*%
%ADD33C,0.15240*%
D29*
X-115000Y1400000D02*
X115000D01*
X-115000Y1680000D02*
X115000D01*
X-115000Y1400000D02*
Y1680000D01*
X115000Y1400000D02*
Y1680000D01*
X375000Y4355000D02*
X427235D01*
X375000Y4566842D02*
Y4645000D01*
Y4355000D02*
Y4433158D01*
Y4645000D02*
X427235D01*
D30*
X545018Y1208363D02*
X654982D01*
Y1263345D01*
X636655Y1281672D01*
X600000D01*
X581672Y1263345D01*
Y1208363D01*
Y1245017D02*
X545018Y1281672D01*
X654982Y1391637D02*
Y1318327D01*
X600000D01*
X618327Y1354982D01*
Y1373309D01*
X600000Y1391637D01*
X563345D01*
X545018Y1373309D01*
Y1336654D01*
X563345Y1318327D01*
X545018Y1508363D02*
X654982D01*
Y1563345D01*
X636655Y1581672D01*
X600000D01*
X581672Y1563345D01*
Y1508363D01*
Y1545017D02*
X545018Y1581672D01*
Y1673310D02*
X654982D01*
X600000Y1618327D01*
Y1691637D01*
X252500Y4268345D02*
Y4341655D01*
X270827Y4359982D01*
X307482D01*
X325809Y4341655D01*
Y4268345D01*
X307482Y4250018D01*
X270827D01*
X289155Y4286673D02*
X252500Y4250018D01*
X270827D02*
X252500Y4268345D01*
X215845Y4250018D02*
X179190D01*
X197518D01*
Y4359982D01*
X215845Y4341655D01*
X-183363Y1095018D02*
Y1204982D01*
X-238345D01*
X-256673Y1186655D01*
Y1150000D01*
X-238345Y1131673D01*
X-183363D01*
X-220018D02*
X-256673Y1095018D01*
X-293327Y1186655D02*
X-311655Y1204982D01*
X-348310D01*
X-366637Y1186655D01*
Y1168328D01*
X-348310Y1150000D01*
X-329982D01*
X-348310D01*
X-366637Y1131673D01*
Y1113345D01*
X-348310Y1095018D01*
X-311655D01*
X-293327Y1113345D01*
X-183363Y1245018D02*
Y1354982D01*
X-238345D01*
X-256673Y1336655D01*
Y1300000D01*
X-238345Y1281673D01*
X-183363D01*
X-220018D02*
X-256673Y1245018D01*
X-366637D02*
X-293327D01*
X-366637Y1318328D01*
Y1336655D01*
X-348310Y1354982D01*
X-311655D01*
X-293327Y1336655D01*
X-464191Y4412518D02*
Y4522482D01*
X-519173D01*
X-537500Y4504155D01*
Y4467500D01*
X-519173Y4449173D01*
X-464191D01*
X-500845D02*
X-537500Y4412518D01*
X-574155D02*
X-610810D01*
X-592482D01*
Y4522482D01*
X-574155Y4504155D01*
X-381673Y664982D02*
X-345018D01*
X-363345D01*
Y573345D01*
X-345018Y555018D01*
X-326690D01*
X-308363Y573345D01*
X-418327Y646655D02*
X-436655Y664982D01*
X-473310D01*
X-491637Y646655D01*
Y628328D01*
X-473310Y610000D01*
X-454982D01*
X-473310D01*
X-491637Y591673D01*
Y573345D01*
X-473310Y555018D01*
X-436655D01*
X-418327Y573345D01*
X-256673Y1036655D02*
X-238345Y1054982D01*
X-201690D01*
X-183363Y1036655D01*
Y963345D01*
X-201690Y945018D01*
X-238345D01*
X-256673Y963345D01*
X-293327Y1036655D02*
X-311655Y1054982D01*
X-348310D01*
X-366637Y1036655D01*
Y1018328D01*
X-348310Y1000000D01*
X-329982D01*
X-348310D01*
X-366637Y981673D01*
Y963345D01*
X-348310Y945018D01*
X-311655D01*
X-293327Y963345D01*
X-176691Y1829982D02*
Y1738345D01*
X-195018Y1720018D01*
X-231673D01*
X-250000Y1738345D01*
Y1829982D01*
X-286655Y1720018D02*
X-323310D01*
X-304982D01*
Y1829982D01*
X-286655Y1811655D01*
X-101673Y4484982D02*
X-65018D01*
X-83345D01*
Y4393345D01*
X-65018Y4375018D01*
X-46690D01*
X-28363Y4393345D01*
X-193310Y4375018D02*
Y4484982D01*
X-138327Y4430000D01*
X-211637D01*
X-0Y1976655D02*
X18327Y1994983D01*
X54982D01*
X73309Y1976655D01*
Y1903345D01*
X54982Y1885018D01*
X18327D01*
X-0Y1903345D01*
X-36655Y1885018D02*
X-73310D01*
X-54982D01*
Y1994983D01*
X-36655Y1976655D01*
D31*
X235000Y1702500D02*
G03*
X235000Y1702500I-12500J0D01*
G01*
D32*
X398100Y600000D02*
G03*
X398100Y600000I-38100J0D01*
G01*
X-271900Y4490000D02*
G03*
X-271900Y4490000I-38100J0D01*
G01*
D33*
X-539750Y367614D02*
Y502100D01*
X-261414D01*
X539750Y367614D02*
Y502100D01*
X261414D02*
X539750D01*
%TF.MD5,c94a305f12ff88cdcb820b62fa74415c*%
M02*
