%TF.GenerationSoftware,Altium Limited,Altium Designer,23.10.1 (27)*%
G04 Layer_Color=16711935*
%FSLAX45Y45*%
%MOMM*%
%TF.SameCoordinates,7A70C931-5BDF-4ABD-901A-901AFED5F3BC*%
%TF.FilePolarity,Negative*%
%TF.FileFunction,Soldermask,Bot*%
%TF.Part,Single*%
G01*
G75*
%TA.AperFunction,ComponentPad*%
%ADD10C,1.60000*%
%ADD11R,1.60000X1.60000*%
%TA.AperFunction,SMDPad,CuDef*%
%ADD14R,0.95814X0.91213*%
%ADD15R,0.91213X0.95814*%
G04:AMPARAMS|DCode=16|XSize=0.45mm|YSize=1.35mm|CornerRadius=0.0495mm|HoleSize=0mm|Usage=FLASHONLY|Rotation=90.000|XOffset=0mm|YOffset=0mm|HoleType=Round|Shape=RoundedRectangle|*
%AMROUNDEDRECTD16*
21,1,0.45000,1.25100,0,0,90.0*
21,1,0.35100,1.35000,0,0,90.0*
1,1,0.09900,0.62550,0.17550*
1,1,0.09900,0.62550,-0.17550*
1,1,0.09900,-0.62550,-0.17550*
1,1,0.09900,-0.62550,0.17550*
%
%ADD16ROUNDEDRECTD16*%
%ADD17R,0.80650X0.86822*%
%TA.AperFunction,ConnectorPad*%
%ADD18R,0.81280X1.60020*%
%ADD19R,2.20980X3.09880*%
%TA.AperFunction,SMDPad,CuDef*%
G04:AMPARAMS|DCode=20|XSize=1.35872mm|YSize=0.58684mm|CornerRadius=0.29342mm|HoleSize=0mm|Usage=FLASHONLY|Rotation=180.000|XOffset=0mm|YOffset=0mm|HoleType=Round|Shape=RoundedRectangle|*
%AMROUNDEDRECTD20*
21,1,1.35872,0.00000,0,0,180.0*
21,1,0.77188,0.58684,0,0,180.0*
1,1,0.58684,-0.38594,0.00000*
1,1,0.58684,0.38594,0.00000*
1,1,0.58684,0.38594,0.00000*
1,1,0.58684,-0.38594,0.00000*
%
%ADD20ROUNDEDRECTD20*%
%ADD21R,1.35872X0.58684*%
%ADD22R,0.81280X1.60020*%
%ADD23R,2.20980X3.09880*%
%ADD24R,0.95872X0.91213*%
%TA.AperFunction,FiducialPad,Global*%
%ADD34C,1.20000*%
D10*
X889000Y4976500D02*
D03*
Y4722500D02*
D03*
Y4468500D02*
D03*
Y4214500D02*
D03*
Y3960500D02*
D03*
Y3706500D02*
D03*
Y3452500D02*
D03*
Y3198500D02*
D03*
Y2944500D02*
D03*
Y2690500D02*
D03*
Y2436500D02*
D03*
Y2182500D02*
D03*
Y1928500D02*
D03*
Y1674500D02*
D03*
Y1420500D02*
D03*
Y1166500D02*
D03*
Y912500D02*
D03*
Y658500D02*
D03*
Y404500D02*
D03*
X-889000Y150500D02*
D03*
Y404500D02*
D03*
Y658500D02*
D03*
Y912500D02*
D03*
Y1166500D02*
D03*
Y1420500D02*
D03*
Y1674500D02*
D03*
Y1928500D02*
D03*
Y2182500D02*
D03*
Y2436500D02*
D03*
Y2690500D02*
D03*
Y2944500D02*
D03*
Y3198500D02*
D03*
Y3452500D02*
D03*
Y3706500D02*
D03*
Y3960500D02*
D03*
Y4214500D02*
D03*
Y4468500D02*
D03*
Y4722500D02*
D03*
D11*
X889000Y150500D02*
D03*
X-889000Y4976500D02*
D03*
D14*
X70200Y1300000D02*
D03*
X-70200D02*
D03*
X70200Y1175000D02*
D03*
X-70200D02*
D03*
X-454800Y4625000D02*
D03*
X-595199D02*
D03*
D15*
X450000Y1670200D02*
D03*
Y1529801D02*
D03*
Y1370199D02*
D03*
Y1229800D02*
D03*
D16*
X222500Y1622500D02*
D03*
Y1557500D02*
D03*
Y1492500D02*
D03*
Y1427500D02*
D03*
X-222500D02*
D03*
Y1492500D02*
D03*
Y1557500D02*
D03*
Y1622500D02*
D03*
D17*
X62586Y1050000D02*
D03*
X-62586D02*
D03*
D18*
X187500Y469400D02*
D03*
X62500D02*
D03*
X-62500D02*
D03*
X-187500D02*
D03*
D19*
X442500Y179400D02*
D03*
X-442500D02*
D03*
D20*
X347329Y4500000D02*
D03*
X532671Y4408500D02*
D03*
D21*
Y4591500D02*
D03*
D22*
X-187500Y4660600D02*
D03*
X-62500D02*
D03*
X62500D02*
D03*
X187500D02*
D03*
D23*
X-442500Y4950600D02*
D03*
X442500D02*
D03*
D24*
X72671Y1800000D02*
D03*
X-72671D02*
D03*
D34*
X600000Y800000D02*
D03*
X-500000Y4300000D02*
D03*
%TF.MD5,c4f3bcf006ec732de35e5e0a03e23e2b*%
M02*
