%TF.GenerationSoftware,Altium Limited,Altium Designer,23.10.1 (27)*%
G04 Layer_Color=0*
%FSLAX45Y45*%
%MOMM*%
%TF.SameCoordinates,7A70C931-5BDF-4ABD-901A-901AFED5F3BC*%
%TF.FilePolarity,Positive*%
%TF.FileFunction,Plated,1,2,PTH,Drill*%
%TF.Part,Single*%
G01*
G75*
%TA.AperFunction,ComponentDrill*%
%ADD38C,1.04000*%
%TA.AperFunction,ViaDrill,NotFilled*%
%ADD39C,0.30000*%
D38*
X889000Y4976500D02*
D03*
Y4722500D02*
D03*
Y4468500D02*
D03*
Y4214500D02*
D03*
Y3960500D02*
D03*
Y3706500D02*
D03*
Y3452500D02*
D03*
Y3198500D02*
D03*
Y2944500D02*
D03*
Y2690500D02*
D03*
Y2436500D02*
D03*
Y2182500D02*
D03*
Y1928500D02*
D03*
Y1674500D02*
D03*
Y1420500D02*
D03*
Y1166500D02*
D03*
Y912500D02*
D03*
Y658500D02*
D03*
Y404500D02*
D03*
Y150500D02*
D03*
X-889000D02*
D03*
Y404500D02*
D03*
Y658500D02*
D03*
Y912500D02*
D03*
Y1166500D02*
D03*
Y1420500D02*
D03*
Y1674500D02*
D03*
Y1928500D02*
D03*
Y2182500D02*
D03*
Y2436500D02*
D03*
Y2690500D02*
D03*
Y2944500D02*
D03*
Y3198500D02*
D03*
Y3452500D02*
D03*
Y3706500D02*
D03*
Y3960500D02*
D03*
Y4214500D02*
D03*
Y4468500D02*
D03*
Y4722500D02*
D03*
Y4976500D02*
D03*
D39*
X700000Y5013500D02*
D03*
Y4013500D02*
D03*
Y3513500D02*
D03*
Y3013500D02*
D03*
Y2013500D02*
D03*
Y1513500D02*
D03*
Y1013500D02*
D03*
X575000Y4263500D02*
D03*
X450000Y4013500D02*
D03*
X575000Y3263500D02*
D03*
X450000Y3013500D02*
D03*
X575000Y2763500D02*
D03*
X450000Y2513500D02*
D03*
Y2013500D02*
D03*
X575000Y1763500D02*
D03*
Y1263500D02*
D03*
X450000Y1013500D02*
D03*
X200000Y5013500D02*
D03*
X325000Y4263500D02*
D03*
X200000Y4013500D02*
D03*
X325000Y3763500D02*
D03*
X200000Y3513500D02*
D03*
Y3013500D02*
D03*
X325000Y2763500D02*
D03*
X200000Y2513500D02*
D03*
X325000Y2263500D02*
D03*
Y1763500D02*
D03*
Y1263500D02*
D03*
X200000Y1013500D02*
D03*
X325000Y763500D02*
D03*
X-50000Y5013500D02*
D03*
X75000Y4263500D02*
D03*
X-50000Y4013500D02*
D03*
X75000Y3763500D02*
D03*
X-50000Y3513500D02*
D03*
X75000Y2763500D02*
D03*
Y2263500D02*
D03*
X-300000Y4513500D02*
D03*
X-175000Y4263500D02*
D03*
X-300000Y4013500D02*
D03*
X-175000Y3763500D02*
D03*
X-300000Y3513500D02*
D03*
X-175000Y3263500D02*
D03*
X-300000Y3013500D02*
D03*
Y2513500D02*
D03*
Y2013500D02*
D03*
Y1013500D02*
D03*
X-175000Y763500D02*
D03*
X-550000Y4013500D02*
D03*
X-425000Y3763500D02*
D03*
X-550000Y3513500D02*
D03*
X-425000Y3263500D02*
D03*
X-550000Y3013500D02*
D03*
X-425000Y2763500D02*
D03*
X-550000Y2513500D02*
D03*
X-425000Y2263500D02*
D03*
X-550000Y2013500D02*
D03*
X-425000Y1763500D02*
D03*
X-550000Y1513500D02*
D03*
X-425000Y1263500D02*
D03*
X-550000Y1013500D02*
D03*
X-425000Y763500D02*
D03*
X-550000Y513500D02*
D03*
X-675000Y4263500D02*
D03*
Y3763500D02*
D03*
Y3263500D02*
D03*
Y2763500D02*
D03*
Y2263500D02*
D03*
Y1763500D02*
D03*
Y1263500D02*
D03*
Y763500D02*
D03*
%TF.MD5,14c5d6c9d44f33cc45d8e3878cc0b12f*%
M02*
