%TF.GenerationSoftware,Altium Limited,Altium Designer,23.10.1 (27)*%
G04 Layer_Physical_Order=2*
G04 Layer_Color=16711680*
%FSLAX45Y45*%
%MOMM*%
%TF.SameCoordinates,7A70C931-5BDF-4ABD-901A-901AFED5F3BC*%
%TF.FilePolarity,Positive*%
%TF.FileFunction,Copper,L2,Bot,Signal*%
%TF.Part,Single*%
G01*
G75*
%TA.AperFunction,ComponentPad*%
%ADD10C,1.60000*%
%ADD11R,1.60000X1.60000*%
%TA.AperFunction,ViaPad*%
%ADD12C,0.50000*%
%TA.AperFunction,FiducialPad,Global*%
%ADD13C,1.00000*%
%TA.AperFunction,SMDPad,CuDef*%
%ADD14R,0.95814X0.91213*%
%ADD15R,0.91213X0.95814*%
G04:AMPARAMS|DCode=16|XSize=0.45mm|YSize=1.35mm|CornerRadius=0.0495mm|HoleSize=0mm|Usage=FLASHONLY|Rotation=90.000|XOffset=0mm|YOffset=0mm|HoleType=Round|Shape=RoundedRectangle|*
%AMROUNDEDRECTD16*
21,1,0.45000,1.25100,0,0,90.0*
21,1,0.35100,1.35000,0,0,90.0*
1,1,0.09900,0.62550,0.17550*
1,1,0.09900,0.62550,-0.17550*
1,1,0.09900,-0.62550,-0.17550*
1,1,0.09900,-0.62550,0.17550*
%
%ADD16ROUNDEDRECTD16*%
%ADD17R,0.80650X0.86822*%
%TA.AperFunction,ConnectorPad*%
%ADD18R,0.81280X1.60020*%
%ADD19R,2.20980X3.09880*%
%TA.AperFunction,SMDPad,CuDef*%
G04:AMPARAMS|DCode=20|XSize=1.35872mm|YSize=0.58684mm|CornerRadius=0.29342mm|HoleSize=0mm|Usage=FLASHONLY|Rotation=180.000|XOffset=0mm|YOffset=0mm|HoleType=Round|Shape=RoundedRectangle|*
%AMROUNDEDRECTD20*
21,1,1.35872,0.00000,0,0,180.0*
21,1,0.77188,0.58684,0,0,180.0*
1,1,0.58684,-0.38594,0.00000*
1,1,0.58684,0.38594,0.00000*
1,1,0.58684,0.38594,0.00000*
1,1,0.58684,-0.38594,0.00000*
%
%ADD20ROUNDEDRECTD20*%
%ADD21R,1.35872X0.58684*%
%ADD22R,0.81280X1.60020*%
%ADD23R,2.20980X3.09880*%
%ADD24R,0.95872X0.91213*%
%TA.AperFunction,Conductor*%
%ADD25C,0.30000*%
%ADD26C,0.40000*%
%ADD27C,0.50000*%
%ADD28C,0.60000*%
G36*
X888200Y4896504D02*
X879695Y4896329D01*
X871542Y4895629D01*
X863741Y4894404D01*
X856293Y4892655D01*
X849197Y4890382D01*
X842453Y4887584D01*
X836062Y4884261D01*
X830022Y4880414D01*
X824336Y4876042D01*
X819001Y4871146D01*
X783646Y4906501D01*
X788542Y4911836D01*
X792914Y4917523D01*
X796761Y4923562D01*
X800083Y4929953D01*
X802882Y4936697D01*
X805155Y4943793D01*
X806904Y4951241D01*
X808129Y4959042D01*
X808829Y4967195D01*
X809004Y4975700D01*
X888200Y4896504D01*
D02*
G37*
G36*
X-823940Y4770710D02*
X-808739Y4757590D01*
X-801466Y4752260D01*
X-794412Y4747750D01*
X-787577Y4744060D01*
X-780959Y4741190D01*
X-774561Y4739140D01*
X-768380Y4737910D01*
X-762419Y4737500D01*
Y4707500D01*
X-768380Y4707090D01*
X-774561Y4705860D01*
X-780959Y4703810D01*
X-787577Y4700940D01*
X-794412Y4697250D01*
X-801466Y4692740D01*
X-808739Y4687410D01*
X-816231Y4681260D01*
X-831869Y4666500D01*
Y4778500D01*
X-823940Y4770710D01*
D02*
G37*
G36*
X899875Y4643243D02*
X892728Y4642025D01*
X885755Y4640357D01*
X878956Y4638239D01*
X872331Y4635671D01*
X865880Y4632652D01*
X859603Y4629183D01*
X853499Y4625264D01*
X847570Y4620895D01*
X841814Y4616076D01*
X836232Y4610806D01*
X787032Y4646459D01*
X792388Y4652221D01*
X797063Y4658115D01*
X801058Y4664142D01*
X804373Y4670302D01*
X807007Y4676594D01*
X808962Y4683018D01*
X810236Y4689575D01*
X810829Y4696265D01*
X810743Y4703087D01*
X809976Y4710042D01*
X899875Y4643243D01*
D02*
G37*
G36*
X969134Y3949889D02*
X970842Y3931890D01*
X972412Y3923701D01*
X974459Y3916053D01*
X976983Y3908947D01*
X979985Y3902381D01*
X983465Y3896356D01*
X987421Y3890872D01*
X991856Y3885929D01*
X963571Y3857645D01*
X958628Y3862079D01*
X953144Y3866035D01*
X947119Y3869515D01*
X940553Y3872517D01*
X933447Y3875041D01*
X925799Y3877089D01*
X917611Y3878658D01*
X908881Y3879751D01*
X899611Y3880366D01*
X889800Y3880504D01*
X968996Y3959700D01*
X969134Y3949889D01*
D02*
G37*
G36*
X888200Y3880504D02*
X878389Y3880366D01*
X860389Y3878658D01*
X852201Y3877089D01*
X844553Y3875041D01*
X837447Y3872517D01*
X830881Y3869515D01*
X824856Y3866035D01*
X819372Y3862079D01*
X814429Y3857645D01*
X786144Y3885929D01*
X790579Y3890872D01*
X794535Y3896356D01*
X798015Y3902381D01*
X801017Y3908947D01*
X803541Y3916053D01*
X805588Y3923701D01*
X807158Y3931890D01*
X808251Y3940619D01*
X808866Y3949889D01*
X809004Y3959700D01*
X888200Y3880504D01*
D02*
G37*
G36*
X889509Y3859788D02*
X898778Y3859658D01*
X906906Y3859119D01*
X914371Y3858184D01*
X921163Y3856882D01*
X927292Y3855241D01*
X932763Y3853298D01*
X937611Y3851081D01*
X941874Y3848619D01*
X944993Y3846368D01*
X965100Y3826262D01*
X962666Y3804102D01*
X939596Y3793128D01*
X927722Y3799983D01*
X902207Y3806820D01*
X875793D01*
X850278Y3799983D01*
X827402Y3786776D01*
X808724Y3768098D01*
X795517Y3745222D01*
X788680Y3719707D01*
Y3693293D01*
X795517Y3667778D01*
X808724Y3644902D01*
X827402Y3626224D01*
X850278Y3613017D01*
X875793Y3606180D01*
X902207D01*
X927722Y3613017D01*
X942610Y3621613D01*
X968210Y3610326D01*
Y3548675D01*
X942610Y3537388D01*
X927722Y3545983D01*
X902207Y3552820D01*
X875793D01*
X850278Y3545983D01*
X827402Y3532776D01*
X808724Y3514098D01*
X795517Y3491222D01*
X788680Y3465707D01*
Y3439293D01*
X795517Y3413778D01*
X808724Y3390902D01*
X827402Y3372224D01*
X850278Y3359017D01*
X875793Y3352180D01*
X902207D01*
X927722Y3359017D01*
X942610Y3367613D01*
X968210Y3356326D01*
Y3294642D01*
X942610Y3283364D01*
X927714Y3291964D01*
X902205Y3298800D01*
X901700D01*
Y3198500D01*
Y3098200D01*
X902205D01*
X927714Y3105036D01*
X942610Y3113636D01*
X968210Y3102358D01*
Y3040675D01*
X942610Y3029388D01*
X927722Y3037983D01*
X902207Y3044820D01*
X875793D01*
X850278Y3037983D01*
X827402Y3024776D01*
X808724Y3006098D01*
X795517Y2983222D01*
X788680Y2957707D01*
Y2931293D01*
X795517Y2905778D01*
X808724Y2882902D01*
X827402Y2864224D01*
X850278Y2851017D01*
X875793Y2844180D01*
X902207D01*
X927722Y2851017D01*
X942610Y2859613D01*
X968210Y2848326D01*
Y2786675D01*
X942610Y2775388D01*
X927722Y2783983D01*
X902207Y2790820D01*
X875793D01*
X850278Y2783983D01*
X827402Y2770776D01*
X808724Y2752098D01*
X795517Y2729222D01*
X788680Y2703707D01*
Y2691981D01*
X788295Y2690298D01*
X787695Y2669521D01*
X786871Y2661149D01*
X785685Y2653455D01*
X784192Y2646671D01*
X782441Y2640810D01*
X780497Y2635888D01*
X778430Y2631873D01*
X776389Y2628818D01*
X199536Y2051964D01*
X191729Y2040281D01*
X188988Y2026500D01*
Y1665815D01*
X159950D01*
X150090Y1663854D01*
X141731Y1658268D01*
X136146Y1649910D01*
X134185Y1640050D01*
Y1604950D01*
X136146Y1595090D01*
X139547Y1590000D01*
X136146Y1584909D01*
X134185Y1575050D01*
Y1539950D01*
X136146Y1530090D01*
X139547Y1525000D01*
X136146Y1519910D01*
X134185Y1510050D01*
Y1474950D01*
X136146Y1465090D01*
X139559Y1459982D01*
X136165Y1454902D01*
X134205Y1445050D01*
Y1440200D01*
X222500D01*
Y1414800D01*
X134205D01*
Y1409950D01*
X136165Y1400098D01*
X141746Y1391746D01*
X141946Y1391612D01*
X134180Y1366012D01*
X103837D01*
Y1382175D01*
X101096Y1395956D01*
X93289Y1407639D01*
X-66407Y1567335D01*
X-73249Y1592754D01*
X-65730Y1601132D01*
X-43602Y1623260D01*
X-34690Y1636597D01*
X-31561Y1652329D01*
Y1715972D01*
X-13459Y1734073D01*
X-4415D01*
X21064Y1734094D01*
X59971D01*
Y1800000D01*
Y1865906D01*
X21185D01*
X-4415Y1865927D01*
X-13290Y1865926D01*
X-38890Y1884181D01*
Y2974472D01*
X833007Y3846369D01*
X836126Y3848619D01*
X840389Y3851081D01*
X845237Y3853298D01*
X850711Y3855242D01*
X856837Y3856882D01*
X863326Y3858126D01*
X879514Y3859662D01*
X888490Y3859788D01*
X889000Y3859897D01*
X889509Y3859788D01*
D02*
G37*
G36*
X888200Y2610504D02*
X877085Y2610406D01*
X857059Y2608935D01*
X848148Y2607561D01*
X839971Y2605762D01*
X832528Y2603538D01*
X825820Y2600888D01*
X819845Y2597813D01*
X814606Y2594313D01*
X810100Y2590387D01*
X788887Y2611600D01*
X792813Y2616106D01*
X796313Y2621346D01*
X799388Y2627320D01*
X802038Y2634028D01*
X804262Y2641471D01*
X806061Y2649648D01*
X807435Y2658559D01*
X808383Y2668205D01*
X809004Y2689700D01*
X888200Y2610504D01*
D02*
G37*
G36*
X968210Y2594326D02*
Y2532675D01*
X942610Y2521388D01*
X927722Y2529983D01*
X902207Y2536820D01*
X875793D01*
X850278Y2529983D01*
X827402Y2516776D01*
X808724Y2498098D01*
X795517Y2475222D01*
X788680Y2449707D01*
Y2423293D01*
X795517Y2397778D01*
X808724Y2374902D01*
X827402Y2356224D01*
X850278Y2343017D01*
X875793Y2336180D01*
X902207D01*
X927722Y2343017D01*
X942610Y2351613D01*
X968210Y2340326D01*
Y2278675D01*
X942610Y2267388D01*
X927722Y2275983D01*
X902207Y2282820D01*
X875793D01*
X850278Y2275983D01*
X827402Y2262776D01*
X808724Y2244098D01*
X795517Y2221222D01*
X788680Y2195707D01*
Y2169293D01*
X795517Y2143778D01*
X808724Y2120902D01*
X827402Y2102224D01*
X850278Y2089017D01*
X875793Y2082180D01*
X902207D01*
X927722Y2089017D01*
X942610Y2097613D01*
X968210Y2086326D01*
Y2024642D01*
X942610Y2013364D01*
X927714Y2021964D01*
X902205Y2028800D01*
X901700D01*
Y1928500D01*
Y1828200D01*
X902205D01*
X927714Y1835036D01*
X942610Y1843636D01*
X968210Y1832358D01*
Y1770675D01*
X942610Y1759388D01*
X927722Y1767983D01*
X902207Y1774820D01*
X875793D01*
X850278Y1767983D01*
X827402Y1754776D01*
X808724Y1736098D01*
X795517Y1713222D01*
X788680Y1687707D01*
Y1661293D01*
X795517Y1635778D01*
X808724Y1612902D01*
X827402Y1594224D01*
X850278Y1581017D01*
X875793Y1574180D01*
X902207D01*
X927722Y1581017D01*
X942610Y1589613D01*
X968210Y1578326D01*
Y1516675D01*
X942610Y1505388D01*
X927722Y1513983D01*
X902207Y1520820D01*
X875793D01*
X850278Y1513983D01*
X827402Y1500776D01*
X808724Y1482098D01*
X795517Y1459222D01*
X788680Y1433707D01*
Y1407293D01*
X795517Y1381778D01*
X808724Y1358902D01*
X827402Y1340224D01*
X850278Y1327017D01*
X875793Y1320180D01*
X902207D01*
X927722Y1327017D01*
X942610Y1335613D01*
X968210Y1324326D01*
Y1262675D01*
X942610Y1251388D01*
X927722Y1259983D01*
X902207Y1266820D01*
X875793D01*
X850278Y1259983D01*
X827402Y1246776D01*
X808724Y1228098D01*
X795517Y1205222D01*
X788680Y1179707D01*
Y1153293D01*
X795517Y1127778D01*
X808724Y1104902D01*
X827402Y1086224D01*
X850278Y1073017D01*
X875793Y1066180D01*
X902207D01*
X927722Y1073017D01*
X942610Y1081613D01*
X968210Y1070326D01*
Y1008675D01*
X942610Y997388D01*
X927722Y1005983D01*
X902207Y1012820D01*
X875793D01*
X850278Y1005983D01*
X827402Y992776D01*
X808724Y974098D01*
X795517Y951222D01*
X788680Y925707D01*
Y899293D01*
X795517Y873778D01*
X808724Y850902D01*
X827402Y832224D01*
X850278Y819017D01*
X875793Y812180D01*
X902207D01*
X927722Y819017D01*
X942610Y827613D01*
X968210Y816326D01*
Y754642D01*
X942610Y743364D01*
X927714Y751964D01*
X902205Y758800D01*
X901700D01*
Y658500D01*
X889000D01*
Y645800D01*
X788700D01*
Y645295D01*
X795536Y619786D01*
X808740Y596915D01*
X808945Y596710D01*
X798341Y571110D01*
X470649D01*
X454917Y567981D01*
X441580Y559069D01*
X274060Y391549D01*
X248460Y393485D01*
Y569730D01*
X196561D01*
X195131Y576921D01*
X187324Y588604D01*
X139592Y636337D01*
X138976Y637258D01*
X-26574Y802808D01*
Y983934D01*
X-1941Y986269D01*
X1941D01*
Y986269D01*
X123231D01*
Y1109073D01*
X138426D01*
Y1234073D01*
Y1293988D01*
X262500D01*
X276281Y1296729D01*
X287964Y1304536D01*
X352033Y1368604D01*
X379973Y1365094D01*
X384074Y1362311D01*
X384073Y1301973D01*
X384094Y1276500D01*
Y1242500D01*
X450000D01*
X515907D01*
Y1276372D01*
X515927Y1301973D01*
X515927Y1323599D01*
Y1438426D01*
X515927D01*
Y1461574D01*
X515927D01*
Y1598027D01*
X515927Y1598027D01*
Y1601973D01*
X515927D01*
X515927Y1623627D01*
Y1738427D01*
X384074D01*
Y1658512D01*
X302904D01*
X294910Y1663854D01*
X285050Y1665815D01*
X261012D01*
Y2011583D01*
X827317Y2577889D01*
X830373Y2579930D01*
X834386Y2581996D01*
X839311Y2583941D01*
X845171Y2585692D01*
X851955Y2587185D01*
X859401Y2588333D01*
X877937Y2589695D01*
X888382Y2589787D01*
X890273Y2590180D01*
X902207D01*
X927722Y2597017D01*
X942610Y2605613D01*
X968210Y2594326D01*
D02*
G37*
G36*
X-823940Y452710D02*
X-808739Y439590D01*
X-801466Y434260D01*
X-794412Y429750D01*
X-787577Y426060D01*
X-780959Y423190D01*
X-774561Y421140D01*
X-768380Y419910D01*
X-762419Y419500D01*
Y389500D01*
X-768380Y389090D01*
X-774561Y387860D01*
X-780959Y385810D01*
X-787577Y382940D01*
X-794412Y379250D01*
X-801466Y374740D01*
X-808739Y369410D01*
X-816231Y363260D01*
X-831869Y348500D01*
Y460500D01*
X-823940Y452710D01*
D02*
G37*
G36*
X-573310Y5113765D02*
Y4775340D01*
X-330492D01*
X-319888Y4749740D01*
X-378010Y4691619D01*
X-424194D01*
X-427674Y4690926D01*
X-501372D01*
X-523027Y4690927D01*
X-548628Y4690926D01*
X-610197D01*
X-667235Y4747964D01*
X-678918Y4755771D01*
X-692700Y4758512D01*
X-765755D01*
X-769361Y4759230D01*
X-773659Y4760606D01*
X-778517Y4762714D01*
X-783896Y4765617D01*
X-789750Y4769360D01*
X-795827Y4773813D01*
X-809897Y4785957D01*
X-817348Y4793278D01*
X-818963Y4794336D01*
X-827402Y4802776D01*
X-850278Y4815983D01*
X-875793Y4822820D01*
X-902207D01*
X-927722Y4815983D01*
X-950598Y4802776D01*
X-969276Y4784098D01*
X-982483Y4761222D01*
X-989320Y4735707D01*
Y4709293D01*
X-982483Y4683778D01*
X-969276Y4660902D01*
X-950598Y4642224D01*
X-927722Y4629017D01*
X-902207Y4622180D01*
X-875793D01*
X-850278Y4629017D01*
X-827402Y4642224D01*
X-819110Y4650516D01*
X-817648Y4651433D01*
X-802531Y4665702D01*
X-796034Y4671035D01*
X-789750Y4675640D01*
X-783898Y4679382D01*
X-778518Y4682286D01*
X-773660Y4684393D01*
X-769362Y4685770D01*
X-765755Y4686488D01*
X-707616D01*
X-663426Y4642298D01*
Y4559073D01*
X-548628D01*
X-526973Y4559073D01*
X-501372Y4559073D01*
X-386574D01*
Y4619595D01*
X-363093D01*
X-349312Y4622336D01*
X-337629Y4630142D01*
X-272111Y4695660D01*
X-248460Y4685864D01*
Y4560270D01*
X-149032D01*
X-126541Y4560270D01*
Y4560270D01*
X-123439Y4560290D01*
Y4560290D01*
X-75200D01*
Y4660600D01*
X-49800D01*
Y4560290D01*
X-1560D01*
Y4560290D01*
X1540Y4560270D01*
X23498Y4551477D01*
X31932Y4541860D01*
X35450Y4524177D01*
X45466Y4509186D01*
X87326Y4467326D01*
X102317Y4457309D01*
X120000Y4453792D01*
X120002Y4453792D01*
X288502D01*
X289358Y4453219D01*
X308735Y4449365D01*
X385923D01*
X405300Y4453219D01*
X421727Y4464196D01*
X432703Y4480623D01*
X436558Y4500000D01*
X433834Y4513694D01*
X432704Y4519377D01*
X433206Y4524155D01*
X448413Y4541754D01*
X448875Y4541837D01*
X467491Y4541838D01*
X595829D01*
X616076Y4541837D01*
X630749Y4520306D01*
X570249Y4459806D01*
X532671D01*
X529298Y4459135D01*
X494077D01*
X474700Y4455280D01*
X458272Y4444304D01*
X447296Y4427877D01*
X443442Y4408500D01*
X447296Y4389123D01*
X458272Y4372696D01*
X474700Y4361719D01*
X494077Y4357865D01*
X529298D01*
X532671Y4357194D01*
X591500D01*
X611134Y4361100D01*
X627779Y4372221D01*
X773031Y4517474D01*
X783016Y4512922D01*
X794277Y4502516D01*
X788700Y4481705D01*
Y4481200D01*
X876300D01*
Y4568800D01*
X875795D01*
X854985Y4563224D01*
X844578Y4574484D01*
X840026Y4584469D01*
X859009Y4603452D01*
X860377Y4604598D01*
X865252Y4608190D01*
X870219Y4611379D01*
X875291Y4614182D01*
X880474Y4616607D01*
X885791Y4618668D01*
X891252Y4620369D01*
X896885Y4621717D01*
X899606Y4622180D01*
X902207D01*
X927722Y4629017D01*
X950598Y4642224D01*
X969276Y4660902D01*
X982483Y4683778D01*
X989320Y4709293D01*
Y4735707D01*
X982483Y4761222D01*
X969276Y4784098D01*
X950598Y4802776D01*
X927722Y4815983D01*
X902207Y4822820D01*
X875793D01*
X850278Y4815983D01*
X827402Y4802776D01*
X808724Y4784098D01*
X795517Y4761222D01*
X788680Y4735707D01*
Y4709293D01*
X789589Y4705901D01*
X790039Y4701816D01*
X790100Y4697053D01*
X789693Y4692475D01*
X788828Y4688020D01*
X787492Y4683627D01*
X785652Y4679233D01*
X783265Y4674797D01*
X780281Y4670297D01*
X778525Y4668082D01*
X642458Y4532015D01*
X620927Y4546688D01*
X620926Y4565429D01*
Y4641161D01*
X620927Y4641162D01*
X620927D01*
X636935Y4659087D01*
X839132Y4861284D01*
X841926Y4863432D01*
X846426Y4866299D01*
X851217Y4868789D01*
X856340Y4870915D01*
X861830Y4872674D01*
X867722Y4874057D01*
X874037Y4875049D01*
X880794Y4875629D01*
X888627Y4875790D01*
X890395Y4876180D01*
X902207D01*
X927722Y4883017D01*
X950598Y4896224D01*
X969276Y4914902D01*
X982483Y4937778D01*
X989320Y4963293D01*
Y4989707D01*
X982483Y5015222D01*
X969276Y5038098D01*
X950598Y5056776D01*
X927722Y5069983D01*
X902207Y5076820D01*
X875793D01*
X850278Y5069983D01*
X827402Y5056776D01*
X808724Y5038098D01*
X795517Y5015222D01*
X788680Y4989707D01*
Y4977896D01*
X788290Y4976127D01*
X788129Y4968295D01*
X787549Y4961537D01*
X786557Y4955222D01*
X785174Y4949330D01*
X783415Y4943840D01*
X781290Y4938719D01*
X778799Y4933926D01*
X775931Y4929425D01*
X773784Y4926632D01*
X537333Y4690181D01*
X527316Y4675190D01*
X523799Y4657507D01*
X506275Y4641162D01*
X444415D01*
Y4566261D01*
X444414Y4547929D01*
X424967Y4537537D01*
X421156Y4536187D01*
X413937Y4541010D01*
X405300Y4546780D01*
X385923Y4550635D01*
X308735D01*
X289358Y4546780D01*
X288502Y4546208D01*
X268235D01*
X248460Y4560270D01*
Y4760930D01*
X198512D01*
Y4762500D01*
X195771Y4776282D01*
X187964Y4787965D01*
X110465Y4865464D01*
X98782Y4873271D01*
X85000Y4876012D01*
X-178700D01*
X-192481Y4873271D01*
X-204164Y4865464D01*
X-286090Y4783538D01*
X-311690Y4794142D01*
Y5113764D01*
X311690Y5113764D01*
Y4775340D01*
X573310D01*
Y5113763D01*
X1093764Y5113763D01*
X1093765Y700291D01*
X1093765Y16235D01*
X573310D01*
Y354660D01*
X386895D01*
X377098Y378311D01*
X487677Y488890D01*
X795312D01*
X803834Y474408D01*
X807103Y463290D01*
X795517Y443222D01*
X788680Y417707D01*
Y391293D01*
X795517Y365778D01*
X808724Y342902D01*
X827402Y324224D01*
X850278Y311017D01*
X875793Y304180D01*
X902207D01*
X927722Y311017D01*
X950598Y324224D01*
X969276Y342902D01*
X982483Y365778D01*
X989320Y391293D01*
Y417707D01*
X982483Y443222D01*
X969276Y466098D01*
X963027Y472347D01*
X959962Y498901D01*
X964416Y505620D01*
X1038389Y579593D01*
X1047301Y592930D01*
X1050430Y608662D01*
Y3840180D01*
X1047301Y3855912D01*
X1038389Y3869249D01*
X1003132Y3904507D01*
X1000881Y3907626D01*
X998419Y3911889D01*
X996202Y3916737D01*
X994258Y3922211D01*
X992618Y3928337D01*
X991374Y3934826D01*
X989838Y3951014D01*
X989712Y3959991D01*
X989320Y3961827D01*
Y3973707D01*
X982483Y3999222D01*
X969276Y4022098D01*
X950598Y4040776D01*
X927722Y4053983D01*
X902207Y4060820D01*
X875793D01*
X850278Y4053983D01*
X827402Y4040776D01*
X808724Y4022098D01*
X795517Y3999222D01*
X788680Y3973707D01*
Y3961827D01*
X788288Y3959991D01*
X788158Y3950722D01*
X787618Y3942594D01*
X786684Y3935129D01*
X785382Y3928337D01*
X783741Y3922208D01*
X781798Y3916737D01*
X779581Y3911889D01*
X777119Y3907626D01*
X774869Y3904507D01*
X-109069Y3020569D01*
X-117981Y3007232D01*
X-121110Y2991500D01*
Y1865926D01*
X-140926D01*
Y1734073D01*
X-113781D01*
Y1669358D01*
X-119528Y1663610D01*
X-149725D01*
X-150090Y1663854D01*
X-159950Y1665815D01*
X-285050D01*
X-294910Y1663854D01*
X-303269Y1658268D01*
X-308854Y1649910D01*
X-310815Y1640050D01*
Y1604950D01*
X-308854Y1595090D01*
X-305453Y1590000D01*
X-308854Y1584909D01*
X-310815Y1575050D01*
Y1539950D01*
X-308854Y1530090D01*
X-305453Y1525000D01*
X-308854Y1519910D01*
X-310815Y1510050D01*
Y1474950D01*
X-308854Y1465090D01*
X-305441Y1459982D01*
X-308835Y1454902D01*
X-310795Y1445050D01*
Y1440200D01*
X-222500D01*
Y1427500D01*
X-209800D01*
Y1384205D01*
X-159950D01*
X-152545Y1385678D01*
X-141036Y1369245D01*
X-138426Y1364372D01*
Y1234073D01*
Y1109073D01*
X-123231D01*
Y986269D01*
X-98597D01*
Y787891D01*
X-95856Y774110D01*
X-88050Y762427D01*
X79047Y595330D01*
X68443Y569730D01*
X1540Y569730D01*
X-23932Y569710D01*
X-49800D01*
Y469400D01*
Y369090D01*
X-24060D01*
X1540Y369070D01*
X42713Y369070D01*
X45159Y356769D01*
X54071Y343433D01*
X77503Y320001D01*
X90839Y311090D01*
X106572Y307960D01*
X289719D01*
X311690Y286813D01*
Y16235D01*
X-311690Y16234D01*
Y342888D01*
X-311690Y354660D01*
X-291818Y368488D01*
X-213140D01*
X-210214Y369070D01*
X-126540Y369070D01*
X-101068Y369090D01*
X-75200D01*
Y469400D01*
Y569710D01*
X-100940D01*
X-126540Y569730D01*
X-149032Y569730D01*
X-248460D01*
Y440512D01*
X-765755D01*
X-769361Y441230D01*
X-773659Y442606D01*
X-778517Y444714D01*
X-783896Y447617D01*
X-789750Y451360D01*
X-795827Y455813D01*
X-809897Y467957D01*
X-817348Y475278D01*
X-818963Y476336D01*
X-827402Y484776D01*
X-850278Y497983D01*
X-875793Y504820D01*
X-902207D01*
X-927722Y497983D01*
X-950598Y484776D01*
X-969276Y466098D01*
X-982483Y443222D01*
X-989320Y417707D01*
Y391293D01*
X-982483Y365778D01*
X-969276Y342902D01*
X-950598Y324224D01*
X-927722Y311017D01*
X-902207Y304180D01*
X-875793D01*
X-850278Y311017D01*
X-827402Y324224D01*
X-819110Y332516D01*
X-817648Y333433D01*
X-802531Y347702D01*
X-796034Y353035D01*
X-789750Y357640D01*
X-783898Y361382D01*
X-778518Y364286D01*
X-773660Y366393D01*
X-769362Y367770D01*
X-765755Y368488D01*
X-593182D01*
X-573310Y354660D01*
X-573310Y342888D01*
Y16234D01*
X-1093764D01*
Y5113765D01*
X-573310Y5113765D01*
D02*
G37*
%LPC*%
G36*
X876300Y3298800D02*
X875795D01*
X850286Y3291964D01*
X827415Y3278760D01*
X808740Y3260085D01*
X795536Y3237214D01*
X788700Y3211705D01*
Y3211200D01*
X876300D01*
Y3298800D01*
D02*
G37*
G36*
Y3185800D02*
X788700D01*
Y3185295D01*
X795536Y3159786D01*
X808740Y3136915D01*
X827415Y3118240D01*
X850286Y3105036D01*
X875795Y3098200D01*
X876300D01*
Y3185800D01*
D02*
G37*
G36*
X85371Y1865906D02*
Y1812700D01*
X140906D01*
Y1865906D01*
X85371D01*
D02*
G37*
G36*
X140906Y1787300D02*
X85371D01*
Y1734094D01*
X140906D01*
Y1787300D01*
D02*
G37*
G36*
X876300Y2028800D02*
X875795D01*
X850286Y2021964D01*
X827415Y2008760D01*
X808740Y1990085D01*
X795536Y1967214D01*
X788700Y1941705D01*
Y1941200D01*
X876300D01*
Y2028800D01*
D02*
G37*
G36*
Y1915800D02*
X788700D01*
Y1915295D01*
X795536Y1889786D01*
X808740Y1866915D01*
X827415Y1848240D01*
X850286Y1835036D01*
X875795Y1828200D01*
X876300D01*
Y1915800D01*
D02*
G37*
G36*
X515907Y1217100D02*
X462700D01*
Y1161594D01*
X515907D01*
Y1217100D01*
D02*
G37*
G36*
X437300D02*
X384094D01*
Y1161594D01*
X437300D01*
Y1217100D01*
D02*
G37*
G36*
X609258Y870320D02*
X590742D01*
X572858Y865528D01*
X556823Y856270D01*
X543730Y843177D01*
X534472Y827142D01*
X529680Y809258D01*
Y790742D01*
X534472Y772857D01*
X543730Y756822D01*
X556823Y743730D01*
X572858Y734472D01*
X590742Y729680D01*
X609258D01*
X627143Y734472D01*
X643178Y743730D01*
X656270Y756822D01*
X665528Y772857D01*
X670320Y790742D01*
Y809258D01*
X665528Y827142D01*
X656270Y843177D01*
X643178Y856270D01*
X627143Y865528D01*
X609258Y870320D01*
D02*
G37*
G36*
X876300Y758800D02*
X875795D01*
X850286Y751964D01*
X827415Y738760D01*
X808740Y720085D01*
X795536Y697214D01*
X788700Y671705D01*
Y671200D01*
X876300D01*
Y758800D01*
D02*
G37*
G36*
X-788680Y5076820D02*
X-989320D01*
Y4876180D01*
X-788680D01*
Y5076820D01*
D02*
G37*
G36*
X902205Y4568800D02*
X901700D01*
Y4481200D01*
X989300D01*
Y4481705D01*
X982464Y4507214D01*
X969260Y4530085D01*
X950585Y4548760D01*
X927714Y4561964D01*
X902205Y4568800D01*
D02*
G37*
G36*
X-875795D02*
X-876300D01*
Y4481200D01*
X-788700D01*
Y4481705D01*
X-795536Y4507214D01*
X-808740Y4530085D01*
X-827415Y4548760D01*
X-850286Y4561964D01*
X-875795Y4568800D01*
D02*
G37*
G36*
X-901700D02*
X-902205D01*
X-927714Y4561964D01*
X-950585Y4548760D01*
X-969260Y4530085D01*
X-982464Y4507214D01*
X-989300Y4481705D01*
Y4481200D01*
X-901700D01*
Y4568800D01*
D02*
G37*
G36*
X989300Y4455800D02*
X901700D01*
Y4368200D01*
X902205D01*
X927714Y4375036D01*
X950585Y4388240D01*
X969260Y4406915D01*
X982464Y4429786D01*
X989300Y4455295D01*
Y4455800D01*
D02*
G37*
G36*
X876300D02*
X788700D01*
Y4455295D01*
X795536Y4429786D01*
X808740Y4406915D01*
X827415Y4388240D01*
X850286Y4375036D01*
X875795Y4368200D01*
X876300D01*
Y4455800D01*
D02*
G37*
G36*
X-788700D02*
X-876300D01*
Y4368200D01*
X-875795D01*
X-850286Y4375036D01*
X-827415Y4388240D01*
X-808740Y4406915D01*
X-795536Y4429786D01*
X-788700Y4455295D01*
Y4455800D01*
D02*
G37*
G36*
X-901700D02*
X-989300D01*
Y4455295D01*
X-982464Y4429786D01*
X-969260Y4406915D01*
X-950585Y4388240D01*
X-927714Y4375036D01*
X-902205Y4368200D01*
X-901700D01*
Y4455800D01*
D02*
G37*
G36*
X-490742Y4370320D02*
X-509258D01*
X-527142Y4365528D01*
X-543177Y4356270D01*
X-556270Y4343177D01*
X-565528Y4327142D01*
X-570320Y4309258D01*
Y4290742D01*
X-565528Y4272858D01*
X-556270Y4256823D01*
X-543177Y4243730D01*
X-527142Y4234472D01*
X-509258Y4229680D01*
X-490742D01*
X-472858Y4234472D01*
X-456823Y4243730D01*
X-443730Y4256823D01*
X-434472Y4272858D01*
X-429680Y4290742D01*
Y4309258D01*
X-434472Y4327142D01*
X-443730Y4343177D01*
X-456823Y4356270D01*
X-472858Y4365528D01*
X-490742Y4370320D01*
D02*
G37*
G36*
X902207Y4314820D02*
X875793D01*
X850278Y4307983D01*
X827402Y4294776D01*
X808724Y4276098D01*
X795517Y4253222D01*
X788680Y4227707D01*
Y4201293D01*
X795517Y4175778D01*
X808724Y4152902D01*
X827402Y4134224D01*
X850278Y4121017D01*
X875793Y4114180D01*
X902207D01*
X927722Y4121017D01*
X950598Y4134224D01*
X969276Y4152902D01*
X982483Y4175778D01*
X989320Y4201293D01*
Y4227707D01*
X982483Y4253222D01*
X969276Y4276098D01*
X950598Y4294776D01*
X927722Y4307983D01*
X902207Y4314820D01*
D02*
G37*
G36*
X-875793D02*
X-902207D01*
X-927722Y4307983D01*
X-950598Y4294776D01*
X-969276Y4276098D01*
X-982483Y4253222D01*
X-989320Y4227707D01*
Y4201293D01*
X-982483Y4175778D01*
X-969276Y4152902D01*
X-950598Y4134224D01*
X-927722Y4121017D01*
X-902207Y4114180D01*
X-875793D01*
X-850278Y4121017D01*
X-827402Y4134224D01*
X-808724Y4152902D01*
X-795517Y4175778D01*
X-788680Y4201293D01*
Y4227707D01*
X-795517Y4253222D01*
X-808724Y4276098D01*
X-827402Y4294776D01*
X-850278Y4307983D01*
X-875793Y4314820D01*
D02*
G37*
G36*
Y4060820D02*
X-902207D01*
X-927722Y4053983D01*
X-950598Y4040776D01*
X-969276Y4022098D01*
X-982483Y3999222D01*
X-989320Y3973707D01*
Y3947293D01*
X-982483Y3921778D01*
X-969276Y3898902D01*
X-950598Y3880224D01*
X-927722Y3867017D01*
X-902207Y3860180D01*
X-875793D01*
X-850278Y3867017D01*
X-827402Y3880224D01*
X-808724Y3898902D01*
X-795517Y3921778D01*
X-788680Y3947293D01*
Y3973707D01*
X-795517Y3999222D01*
X-808724Y4022098D01*
X-827402Y4040776D01*
X-850278Y4053983D01*
X-875793Y4060820D01*
D02*
G37*
G36*
Y3806820D02*
X-902207D01*
X-927722Y3799983D01*
X-950598Y3786776D01*
X-969276Y3768098D01*
X-982483Y3745222D01*
X-989320Y3719707D01*
Y3693293D01*
X-982483Y3667778D01*
X-969276Y3644902D01*
X-950598Y3626224D01*
X-927722Y3613017D01*
X-902207Y3606180D01*
X-875793D01*
X-850278Y3613017D01*
X-827402Y3626224D01*
X-808724Y3644902D01*
X-795517Y3667778D01*
X-788680Y3693293D01*
Y3719707D01*
X-795517Y3745222D01*
X-808724Y3768098D01*
X-827402Y3786776D01*
X-850278Y3799983D01*
X-875793Y3806820D01*
D02*
G37*
G36*
Y3552820D02*
X-902207D01*
X-927722Y3545983D01*
X-950598Y3532776D01*
X-969276Y3514098D01*
X-982483Y3491222D01*
X-989320Y3465707D01*
Y3439293D01*
X-982483Y3413778D01*
X-969276Y3390902D01*
X-950598Y3372224D01*
X-927722Y3359017D01*
X-902207Y3352180D01*
X-875793D01*
X-850278Y3359017D01*
X-827402Y3372224D01*
X-808724Y3390902D01*
X-795517Y3413778D01*
X-788680Y3439293D01*
Y3465707D01*
X-795517Y3491222D01*
X-808724Y3514098D01*
X-827402Y3532776D01*
X-850278Y3545983D01*
X-875793Y3552820D01*
D02*
G37*
G36*
X-875795Y3298800D02*
X-876300D01*
Y3211200D01*
X-788700D01*
Y3211705D01*
X-795536Y3237214D01*
X-808740Y3260085D01*
X-827415Y3278760D01*
X-850286Y3291964D01*
X-875795Y3298800D01*
D02*
G37*
G36*
X-901700D02*
X-902205D01*
X-927714Y3291964D01*
X-950585Y3278760D01*
X-969260Y3260085D01*
X-982464Y3237214D01*
X-989300Y3211705D01*
Y3211200D01*
X-901700D01*
Y3298800D01*
D02*
G37*
G36*
X-788700Y3185800D02*
X-876300D01*
Y3098200D01*
X-875795D01*
X-850286Y3105036D01*
X-827415Y3118240D01*
X-808740Y3136915D01*
X-795536Y3159786D01*
X-788700Y3185295D01*
Y3185800D01*
D02*
G37*
G36*
X-901700D02*
X-989300D01*
Y3185295D01*
X-982464Y3159786D01*
X-969260Y3136915D01*
X-950585Y3118240D01*
X-927714Y3105036D01*
X-902205Y3098200D01*
X-901700D01*
Y3185800D01*
D02*
G37*
G36*
X-875793Y3044820D02*
X-902207D01*
X-927722Y3037983D01*
X-950598Y3024776D01*
X-969276Y3006098D01*
X-982483Y2983222D01*
X-989320Y2957707D01*
Y2931293D01*
X-982483Y2905778D01*
X-969276Y2882902D01*
X-950598Y2864224D01*
X-927722Y2851017D01*
X-902207Y2844180D01*
X-875793D01*
X-850278Y2851017D01*
X-827402Y2864224D01*
X-808724Y2882902D01*
X-795517Y2905778D01*
X-788680Y2931293D01*
Y2957707D01*
X-795517Y2983222D01*
X-808724Y3006098D01*
X-827402Y3024776D01*
X-850278Y3037983D01*
X-875793Y3044820D01*
D02*
G37*
G36*
Y2790820D02*
X-902207D01*
X-927722Y2783983D01*
X-950598Y2770776D01*
X-969276Y2752098D01*
X-982483Y2729222D01*
X-989320Y2703707D01*
Y2677293D01*
X-982483Y2651778D01*
X-969276Y2628902D01*
X-950598Y2610224D01*
X-927722Y2597017D01*
X-902207Y2590180D01*
X-875793D01*
X-850278Y2597017D01*
X-827402Y2610224D01*
X-808724Y2628902D01*
X-795517Y2651778D01*
X-788680Y2677293D01*
Y2703707D01*
X-795517Y2729222D01*
X-808724Y2752098D01*
X-827402Y2770776D01*
X-850278Y2783983D01*
X-875793Y2790820D01*
D02*
G37*
G36*
Y2536820D02*
X-902207D01*
X-927722Y2529983D01*
X-950598Y2516776D01*
X-969276Y2498098D01*
X-982483Y2475222D01*
X-989320Y2449707D01*
Y2423293D01*
X-982483Y2397778D01*
X-969276Y2374902D01*
X-950598Y2356224D01*
X-927722Y2343017D01*
X-902207Y2336180D01*
X-875793D01*
X-850278Y2343017D01*
X-827402Y2356224D01*
X-808724Y2374902D01*
X-795517Y2397778D01*
X-788680Y2423293D01*
Y2449707D01*
X-795517Y2475222D01*
X-808724Y2498098D01*
X-827402Y2516776D01*
X-850278Y2529983D01*
X-875793Y2536820D01*
D02*
G37*
G36*
Y2282820D02*
X-902207D01*
X-927722Y2275983D01*
X-950598Y2262776D01*
X-969276Y2244098D01*
X-982483Y2221222D01*
X-989320Y2195707D01*
Y2169293D01*
X-982483Y2143778D01*
X-969276Y2120902D01*
X-950598Y2102224D01*
X-927722Y2089017D01*
X-902207Y2082180D01*
X-875793D01*
X-850278Y2089017D01*
X-827402Y2102224D01*
X-808724Y2120902D01*
X-795517Y2143778D01*
X-788680Y2169293D01*
Y2195707D01*
X-795517Y2221222D01*
X-808724Y2244098D01*
X-827402Y2262776D01*
X-850278Y2275983D01*
X-875793Y2282820D01*
D02*
G37*
G36*
X-875795Y2028800D02*
X-876300D01*
Y1941200D01*
X-788700D01*
Y1941705D01*
X-795536Y1967214D01*
X-808740Y1990085D01*
X-827415Y2008760D01*
X-850286Y2021964D01*
X-875795Y2028800D01*
D02*
G37*
G36*
X-901700D02*
X-902205D01*
X-927714Y2021964D01*
X-950585Y2008760D01*
X-969260Y1990085D01*
X-982464Y1967214D01*
X-989300Y1941705D01*
Y1941200D01*
X-901700D01*
Y2028800D01*
D02*
G37*
G36*
X-788700Y1915800D02*
X-876300D01*
Y1828200D01*
X-875795D01*
X-850286Y1835036D01*
X-827415Y1848240D01*
X-808740Y1866915D01*
X-795536Y1889786D01*
X-788700Y1915295D01*
Y1915800D01*
D02*
G37*
G36*
X-901700D02*
X-989300D01*
Y1915295D01*
X-982464Y1889786D01*
X-969260Y1866915D01*
X-950585Y1848240D01*
X-927714Y1835036D01*
X-902205Y1828200D01*
X-901700D01*
Y1915800D01*
D02*
G37*
G36*
X-875793Y1774820D02*
X-902207D01*
X-927722Y1767983D01*
X-950598Y1754776D01*
X-969276Y1736098D01*
X-982483Y1713222D01*
X-989320Y1687707D01*
Y1661293D01*
X-982483Y1635778D01*
X-969276Y1612902D01*
X-950598Y1594224D01*
X-927722Y1581017D01*
X-902207Y1574180D01*
X-875793D01*
X-850278Y1581017D01*
X-827402Y1594224D01*
X-808724Y1612902D01*
X-795517Y1635778D01*
X-788680Y1661293D01*
Y1687707D01*
X-795517Y1713222D01*
X-808724Y1736098D01*
X-827402Y1754776D01*
X-850278Y1767983D01*
X-875793Y1774820D01*
D02*
G37*
G36*
X-235200Y1414800D02*
X-310795D01*
Y1409950D01*
X-308835Y1400098D01*
X-303254Y1391746D01*
X-294902Y1386165D01*
X-285050Y1384205D01*
X-235200D01*
Y1414800D01*
D02*
G37*
G36*
X-875793Y1520820D02*
X-902207D01*
X-927722Y1513983D01*
X-950598Y1500776D01*
X-969276Y1482098D01*
X-982483Y1459222D01*
X-989320Y1433707D01*
Y1407293D01*
X-982483Y1381778D01*
X-969276Y1358902D01*
X-950598Y1340224D01*
X-927722Y1327017D01*
X-902207Y1320180D01*
X-875793D01*
X-850278Y1327017D01*
X-827402Y1340224D01*
X-808724Y1358902D01*
X-795517Y1381778D01*
X-788680Y1407293D01*
Y1433707D01*
X-795517Y1459222D01*
X-808724Y1482098D01*
X-827402Y1500776D01*
X-850278Y1513983D01*
X-875793Y1520820D01*
D02*
G37*
G36*
Y1266820D02*
X-902207D01*
X-927722Y1259983D01*
X-950598Y1246776D01*
X-969276Y1228098D01*
X-982483Y1205222D01*
X-989320Y1179707D01*
Y1153293D01*
X-982483Y1127778D01*
X-969276Y1104902D01*
X-950598Y1086224D01*
X-927722Y1073017D01*
X-902207Y1066180D01*
X-875793D01*
X-850278Y1073017D01*
X-827402Y1086224D01*
X-808724Y1104902D01*
X-795517Y1127778D01*
X-788680Y1153293D01*
Y1179707D01*
X-795517Y1205222D01*
X-808724Y1228098D01*
X-827402Y1246776D01*
X-850278Y1259983D01*
X-875793Y1266820D01*
D02*
G37*
G36*
Y1012820D02*
X-902207D01*
X-927722Y1005983D01*
X-950598Y992776D01*
X-969276Y974098D01*
X-982483Y951222D01*
X-989320Y925707D01*
Y899293D01*
X-982483Y873778D01*
X-969276Y850902D01*
X-950598Y832224D01*
X-927722Y819017D01*
X-902207Y812180D01*
X-875793D01*
X-850278Y819017D01*
X-827402Y832224D01*
X-808724Y850902D01*
X-795517Y873778D01*
X-788680Y899293D01*
Y925707D01*
X-795517Y951222D01*
X-808724Y974098D01*
X-827402Y992776D01*
X-850278Y1005983D01*
X-875793Y1012820D01*
D02*
G37*
G36*
X-875795Y758800D02*
X-876300D01*
Y671200D01*
X-788700D01*
Y671705D01*
X-795536Y697214D01*
X-808740Y720085D01*
X-827415Y738760D01*
X-850286Y751964D01*
X-875795Y758800D01*
D02*
G37*
G36*
X-901700D02*
X-902205D01*
X-927714Y751964D01*
X-950585Y738760D01*
X-969260Y720085D01*
X-982464Y697214D01*
X-989300Y671705D01*
Y671200D01*
X-901700D01*
Y758800D01*
D02*
G37*
G36*
X-788700Y645800D02*
X-876300D01*
Y558200D01*
X-875795D01*
X-850286Y565036D01*
X-827415Y578240D01*
X-808740Y596915D01*
X-795536Y619786D01*
X-788700Y645295D01*
Y645800D01*
D02*
G37*
G36*
X-901700D02*
X-989300D01*
Y645295D01*
X-982464Y619786D01*
X-969260Y596915D01*
X-950585Y578240D01*
X-927714Y565036D01*
X-902205Y558200D01*
X-901700D01*
Y645800D01*
D02*
G37*
G36*
X989320Y250820D02*
X788680D01*
Y50180D01*
X989320D01*
Y250820D01*
D02*
G37*
G36*
X-875793D02*
X-902207D01*
X-927722Y243983D01*
X-950598Y230776D01*
X-969276Y212098D01*
X-982483Y189222D01*
X-989320Y163707D01*
Y137293D01*
X-982483Y111778D01*
X-969276Y88902D01*
X-950598Y70224D01*
X-927722Y57017D01*
X-902207Y50180D01*
X-875793D01*
X-850278Y57017D01*
X-827402Y70224D01*
X-808724Y88902D01*
X-795517Y111778D01*
X-788680Y137293D01*
Y163707D01*
X-795517Y189222D01*
X-808724Y212098D01*
X-827402Y230776D01*
X-850278Y243983D01*
X-875793Y250820D01*
D02*
G37*
%LPD*%
D10*
X889000Y4976500D02*
D03*
Y4722500D02*
D03*
Y4468500D02*
D03*
Y4214500D02*
D03*
Y3960500D02*
D03*
Y3706500D02*
D03*
Y3452500D02*
D03*
Y3198500D02*
D03*
Y2944500D02*
D03*
Y2690500D02*
D03*
Y2436500D02*
D03*
Y2182500D02*
D03*
Y1928500D02*
D03*
Y1674500D02*
D03*
Y1420500D02*
D03*
Y1166500D02*
D03*
Y912500D02*
D03*
Y658500D02*
D03*
Y404500D02*
D03*
X-889000Y150500D02*
D03*
Y404500D02*
D03*
Y658500D02*
D03*
Y912500D02*
D03*
Y1166500D02*
D03*
Y1420500D02*
D03*
Y1674500D02*
D03*
Y1928500D02*
D03*
Y2182500D02*
D03*
Y2436500D02*
D03*
Y2690500D02*
D03*
Y2944500D02*
D03*
Y3198500D02*
D03*
Y3452500D02*
D03*
Y3706500D02*
D03*
Y3960500D02*
D03*
Y4214500D02*
D03*
Y4468500D02*
D03*
Y4722500D02*
D03*
D11*
X889000Y150500D02*
D03*
X-889000Y4976500D02*
D03*
D12*
X700000Y5013500D02*
D03*
Y4013500D02*
D03*
Y3513500D02*
D03*
Y3013500D02*
D03*
Y2013500D02*
D03*
Y1513500D02*
D03*
Y1013500D02*
D03*
X575000Y4263500D02*
D03*
X450000Y4013500D02*
D03*
X575000Y3263500D02*
D03*
X450000Y3013500D02*
D03*
X575000Y2763500D02*
D03*
X450000Y2513500D02*
D03*
Y2013500D02*
D03*
X575000Y1763500D02*
D03*
Y1263500D02*
D03*
X450000Y1013500D02*
D03*
X200000Y5013500D02*
D03*
X325000Y4263500D02*
D03*
X200000Y4013500D02*
D03*
X325000Y3763500D02*
D03*
X200000Y3513500D02*
D03*
Y3013500D02*
D03*
X325000Y2763500D02*
D03*
X200000Y2513500D02*
D03*
X325000Y2263500D02*
D03*
Y1763500D02*
D03*
Y1263500D02*
D03*
X200000Y1013500D02*
D03*
X325000Y763500D02*
D03*
X-50000Y5013500D02*
D03*
X75000Y4263500D02*
D03*
X-50000Y4013500D02*
D03*
X75000Y3763500D02*
D03*
X-50000Y3513500D02*
D03*
X75000Y2763500D02*
D03*
Y2263500D02*
D03*
X-300000Y4513500D02*
D03*
X-175000Y4263500D02*
D03*
X-300000Y4013500D02*
D03*
X-175000Y3763500D02*
D03*
X-300000Y3513500D02*
D03*
X-175000Y3263500D02*
D03*
X-300000Y3013500D02*
D03*
Y2513500D02*
D03*
Y2013500D02*
D03*
Y1013500D02*
D03*
X-175000Y763500D02*
D03*
X-550000Y4013500D02*
D03*
X-425000Y3763500D02*
D03*
X-550000Y3513500D02*
D03*
X-425000Y3263500D02*
D03*
X-550000Y3013500D02*
D03*
X-425000Y2763500D02*
D03*
X-550000Y2513500D02*
D03*
X-425000Y2263500D02*
D03*
X-550000Y2013500D02*
D03*
X-425000Y1763500D02*
D03*
X-550000Y1513500D02*
D03*
X-425000Y1263500D02*
D03*
X-550000Y1013500D02*
D03*
X-425000Y763500D02*
D03*
X-550000Y513500D02*
D03*
X-675000Y4263500D02*
D03*
Y3763500D02*
D03*
Y3263500D02*
D03*
Y2763500D02*
D03*
Y2263500D02*
D03*
Y1763500D02*
D03*
Y1263500D02*
D03*
Y763500D02*
D03*
D13*
X600000Y800000D02*
D03*
X-500000Y4300000D02*
D03*
D14*
X70200Y1300000D02*
D03*
X-70200D02*
D03*
X70200Y1175000D02*
D03*
X-70200D02*
D03*
X-454800Y4625000D02*
D03*
X-595199D02*
D03*
D15*
X450000Y1670200D02*
D03*
Y1529801D02*
D03*
Y1370199D02*
D03*
Y1229800D02*
D03*
D16*
X222500Y1622500D02*
D03*
Y1557500D02*
D03*
Y1492500D02*
D03*
Y1427500D02*
D03*
X-222500D02*
D03*
Y1492500D02*
D03*
Y1557500D02*
D03*
Y1622500D02*
D03*
D17*
X62586Y1050000D02*
D03*
X-62586D02*
D03*
D18*
X187500Y469400D02*
D03*
X62500D02*
D03*
X-62500D02*
D03*
X-187500D02*
D03*
D19*
X442500Y179400D02*
D03*
X-442500D02*
D03*
D20*
X347329Y4500000D02*
D03*
X532671Y4408500D02*
D03*
D21*
Y4591500D02*
D03*
D22*
X-187500Y4660600D02*
D03*
X-62500D02*
D03*
X62500D02*
D03*
X187500D02*
D03*
D23*
X-442500Y4950600D02*
D03*
X442500D02*
D03*
D24*
X72671Y1800000D02*
D03*
X-72671D02*
D03*
D25*
X-889000Y404500D02*
X-213140D01*
X-187500Y430140D02*
Y469400D01*
X-213140Y404500D02*
X-187500Y430140D01*
X222500Y1492500D02*
X226745Y1488255D01*
X308995D01*
X326569Y1470681D01*
X262500Y1330000D02*
X326569Y1394069D01*
Y1470681D01*
X100199Y1330000D02*
X262500D01*
X70200Y1300000D02*
X100199Y1330000D01*
X-107500Y1557500D02*
X67825Y1382175D01*
X-222500Y1557500D02*
X-107500D01*
X67825Y1302375D02*
Y1382175D01*
X-424194Y4655607D02*
X-363093D01*
X-178700Y4840000D01*
X85000D01*
X162500Y4762500D01*
X-70200Y1175000D02*
Y1300000D01*
Y1441965D01*
X-222130Y1492870D02*
X-121104D01*
X-70200Y1441965D01*
X-222500Y1492500D02*
X-222130Y1492870D01*
X-62586Y787891D02*
X113512Y611793D01*
X-62586Y787891D02*
Y1050000D01*
X113512Y611488D02*
Y611793D01*
Y611488D02*
X161860Y563140D01*
Y495040D02*
Y563140D01*
Y495040D02*
X187500Y469400D01*
X70200Y1057614D02*
Y1175000D01*
X62586Y1050000D02*
X70200Y1057614D01*
X225000Y1622500D02*
X401820D01*
X222500D02*
X225000D01*
Y2026500D01*
X889000Y2690500D01*
X450000Y1370199D02*
Y1529801D01*
X401820Y1622500D02*
X416612Y1637292D01*
X419393D01*
X450000Y1667899D01*
Y1670200D01*
X222500Y1557500D02*
X424393D01*
X450000Y1531893D01*
Y1529801D02*
Y1531893D01*
X67825Y1302375D02*
X70200Y1300000D01*
X162500Y4685600D02*
Y4762500D01*
Y4685600D02*
X187500Y4660600D01*
X-454800Y4625000D02*
X-424194Y4655607D01*
X-889000Y4722500D02*
X-692700D01*
X-628107Y4657907D01*
Y4655607D02*
Y4657907D01*
Y4655607D02*
X-597500Y4625000D01*
X-595199D01*
D26*
X83140Y372502D02*
Y448760D01*
X62500Y469400D02*
X83140Y448760D01*
Y372502D02*
X106572Y349070D01*
X289719D01*
X1009320Y608662D02*
Y3840180D01*
X889000Y3960500D02*
X1009320Y3840180D01*
X-80000Y1800000D02*
Y2991500D01*
X930658Y530000D02*
X1009320Y608662D01*
X470649Y530000D02*
X930658D01*
X289719Y349070D02*
X470649Y530000D01*
X-375000Y1425000D02*
X-372500Y1427500D01*
X-166860Y4761249D02*
X-143428Y4784680D01*
X-166860Y4681240D02*
Y4761249D01*
X-143428Y4784680D02*
X18428D01*
X41860Y4681240D02*
Y4761249D01*
X18428Y4784680D02*
X41860Y4761249D01*
X-222500Y1622500D02*
X-102500D01*
X-72671Y1652329D01*
Y1800000D01*
X-80000Y2991500D02*
X889000Y3960500D01*
X41860Y4681240D02*
X62500Y4660600D01*
X-187500D02*
X-166860Y4681240D01*
D27*
X-62500Y4500000D02*
Y4660600D01*
Y4500000D02*
X-50000D01*
X120000D02*
X347329D01*
X78140Y4541860D02*
Y4644960D01*
Y4541860D02*
X120000Y4500000D01*
X62500Y4660600D02*
X78140Y4644960D01*
X532671Y4591500D02*
X565665D01*
X570007Y4595842D01*
Y4657507D01*
X889000Y4976500D01*
D28*
X532671Y4408500D02*
X591500D01*
X889000Y4706000D01*
Y4722500D01*
%TF.MD5,34af69d9426d1cba454145424105c81c*%
M02*
